<?xml version="1.0" encoding="UTF-8" standalone="no"?>
<!-- Created with Inkscape (http://www.inkscape.org/) -->

<svg
   xmlns:dc="http://purl.org/dc/elements/1.1/"
   xmlns:cc="http://creativecommons.org/ns#"
   xmlns:rdf="http://www.w3.org/1999/02/22-rdf-syntax-ns#"
   xmlns:svg="http://www.w3.org/2000/svg"
   xmlns="http://www.w3.org/2000/svg"
   xmlns:sodipodi="http://sodipodi.sourceforge.net/DTD/sodipodi-0.dtd"
   xmlns:inkscape="http://www.inkscape.org/namespaces/inkscape"
   width="458.53058"
   height="256.4635"
   id="svg3284"
   version="1.1"
   inkscape:version="0.48.4 r9939"
   sodipodi:docname="SA_variable_example.svg">
  <defs
     id="defs3286">
    <marker
       inkscape:stockid="Arrow1Mend"
       orient="auto"
       refY="0"
       refX="0"
       id="Arrow1Mend"
       style="overflow:visible">
      <path
         inkscape:connector-curvature="0"
         id="path4425"
         d="M 0,0 5,-5 -12.5,0 5,5 0,0 z"
         style="fill-rule:evenodd;stroke:#000000;stroke-width:1pt"
         transform="matrix(-0.4,0,0,-0.4,-4,0)" />
    </marker>
    <marker
       inkscape:stockid="Arrow1Mend"
       orient="auto"
       refY="0"
       refX="0"
       id="marker3185"
       style="overflow:visible">
      <path
         inkscape:connector-curvature="0"
         id="path3187"
         d="M 0,0 5,-5 -12.5,0 5,5 0,0 z"
         style="fill-rule:evenodd;stroke:#000000;stroke-width:1pt"
         transform="matrix(-0.4,0,0,-0.4,-4,0)" />
    </marker>
    <marker
       inkscape:stockid="Arrow1Mend"
       orient="auto"
       refY="0"
       refX="0"
       id="marker3189"
       style="overflow:visible">
      <path
         inkscape:connector-curvature="0"
         id="path3191"
         d="M 0,0 5,-5 -12.5,0 5,5 0,0 z"
         style="fill-rule:evenodd;stroke:#000000;stroke-width:1pt"
         transform="matrix(-0.4,0,0,-0.4,-4,0)" />
    </marker>
    <marker
       inkscape:stockid="Arrow1Mend"
       orient="auto"
       refY="0"
       refX="0"
       id="marker3193"
       style="overflow:visible">
      <path
         inkscape:connector-curvature="0"
         id="path3195"
         d="M 0,0 5,-5 -12.5,0 5,5 0,0 z"
         style="fill-rule:evenodd;stroke:#000000;stroke-width:1pt"
         transform="matrix(-0.4,0,0,-0.4,-4,0)" />
    </marker>
    <marker
       inkscape:stockid="Arrow1Mend"
       orient="auto"
       refY="0"
       refX="0"
       id="marker3197"
       style="overflow:visible">
      <path
         inkscape:connector-curvature="0"
         id="path3199"
         d="M 0,0 5,-5 -12.5,0 5,5 0,0 z"
         style="fill-rule:evenodd;stroke:#000000;stroke-width:1pt"
         transform="matrix(-0.4,0,0,-0.4,-4,0)" />
    </marker>
    <marker
       inkscape:stockid="Arrow1Mend"
       orient="auto"
       refY="0"
       refX="0"
       id="marker3201"
       style="overflow:visible">
      <path
         inkscape:connector-curvature="0"
         id="path3203"
         d="M 0,0 5,-5 -12.5,0 5,5 0,0 z"
         style="fill-rule:evenodd;stroke:#000000;stroke-width:1pt"
         transform="matrix(-0.4,0,0,-0.4,-4,0)" />
    </marker>
    <marker
       inkscape:stockid="Arrow1Mend"
       orient="auto"
       refY="0"
       refX="0"
       id="marker3205"
       style="overflow:visible">
      <path
         inkscape:connector-curvature="0"
         id="path3207"
         d="M 0,0 5,-5 -12.5,0 5,5 0,0 z"
         style="fill-rule:evenodd;stroke:#000000;stroke-width:1pt"
         transform="matrix(-0.4,0,0,-0.4,-4,0)" />
    </marker>
    <marker
       inkscape:stockid="Arrow1Mend"
       orient="auto"
       refY="0"
       refX="0"
       id="marker3205-1"
       style="overflow:visible">
      <path
         inkscape:connector-curvature="0"
         id="path3207-9"
         d="M 0,0 5,-5 -12.5,0 5,5 0,0 z"
         style="fill-rule:evenodd;stroke:#000000;stroke-width:1pt"
         transform="matrix(-0.4,0,0,-0.4,-4,0)" />
    </marker>
    <marker
       inkscape:stockid="Arrow1Mend"
       orient="auto"
       refY="0"
       refX="0"
       id="marker5819"
       style="overflow:visible">
      <path
         inkscape:connector-curvature="0"
         id="path5821"
         d="M 0,0 5,-5 -12.5,0 5,5 0,0 z"
         style="fill-rule:evenodd;stroke:#000000;stroke-width:1pt"
         transform="matrix(-0.4,0,0,-0.4,-4,0)" />
    </marker>
    <marker
       inkscape:stockid="Arrow1Mend"
       orient="auto"
       refY="0"
       refX="0"
       id="marker5823"
       style="overflow:visible">
      <path
         inkscape:connector-curvature="0"
         id="path5825"
         d="M 0,0 5,-5 -12.5,0 5,5 0,0 z"
         style="fill-rule:evenodd;stroke:#000000;stroke-width:1pt"
         transform="matrix(-0.4,0,0,-0.4,-4,0)" />
    </marker>
    <marker
       inkscape:stockid="Arrow1Mend"
       orient="auto"
       refY="0"
       refX="0"
       id="marker5827"
       style="overflow:visible">
      <path
         inkscape:connector-curvature="0"
         id="path5829"
         d="M 0,0 5,-5 -12.5,0 5,5 0,0 z"
         style="fill-rule:evenodd;stroke:#000000;stroke-width:1pt"
         transform="matrix(-0.4,0,0,-0.4,-4,0)" />
    </marker>
    <marker
       inkscape:stockid="Arrow1Mend"
       orient="auto"
       refY="0"
       refX="0"
       id="Arrow1Mend-1"
       style="overflow:visible">
      <path
         inkscape:connector-curvature="0"
         id="path4425-2"
         d="M 0,0 5,-5 -12.5,0 5,5 0,0 z"
         style="fill-rule:evenodd;stroke:#000000;stroke-width:1pt"
         transform="matrix(-0.4,0,0,-0.4,-4,0)" />
    </marker>
    <marker
       inkscape:stockid="Arrow1Mend"
       orient="auto"
       refY="0"
       refX="0"
       id="marker5833"
       style="overflow:visible">
      <path
         inkscape:connector-curvature="0"
         id="path5835"
         d="M 0,0 5,-5 -12.5,0 5,5 0,0 z"
         style="fill-rule:evenodd;stroke:#000000;stroke-width:1pt"
         transform="matrix(-0.4,0,0,-0.4,-4,0)" />
    </marker>
    <marker
       inkscape:stockid="Arrow1Mend"
       orient="auto"
       refY="0"
       refX="0"
       id="marker5837"
       style="overflow:visible">
      <path
         inkscape:connector-curvature="0"
         id="path5839"
         d="M 0,0 5,-5 -12.5,0 5,5 0,0 z"
         style="fill-rule:evenodd;stroke:#000000;stroke-width:1pt"
         transform="matrix(-0.4,0,0,-0.4,-4,0)" />
    </marker>
    <marker
       inkscape:stockid="Arrow1Mend"
       orient="auto"
       refY="0"
       refX="0"
       id="marker5841"
       style="overflow:visible">
      <path
         inkscape:connector-curvature="0"
         id="path5843"
         d="M 0,0 5,-5 -12.5,0 5,5 0,0 z"
         style="fill-rule:evenodd;stroke:#000000;stroke-width:1pt"
         transform="matrix(-0.4,0,0,-0.4,-4,0)" />
    </marker>
    <marker
       inkscape:stockid="Arrow1Mend"
       orient="auto"
       refY="0"
       refX="0"
       id="marker5845"
       style="overflow:visible">
      <path
         inkscape:connector-curvature="0"
         id="path5847"
         d="M 0,0 5,-5 -12.5,0 5,5 0,0 z"
         style="fill-rule:evenodd;stroke:#000000;stroke-width:1pt"
         transform="matrix(-0.4,0,0,-0.4,-4,0)" />
    </marker>
    <marker
       inkscape:stockid="Arrow1Mend"
       orient="auto"
       refY="0"
       refX="0"
       id="marker5849"
       style="overflow:visible">
      <path
         inkscape:connector-curvature="0"
         id="path5851"
         d="M 0,0 5,-5 -12.5,0 5,5 0,0 z"
         style="fill-rule:evenodd;stroke:#000000;stroke-width:1pt"
         transform="matrix(-0.4,0,0,-0.4,-4,0)" />
    </marker>
    <marker
       inkscape:stockid="Arrow1Mend"
       orient="auto"
       refY="0"
       refX="0"
       id="marker5853"
       style="overflow:visible">
      <path
         inkscape:connector-curvature="0"
         id="path5855"
         d="M 0,0 5,-5 -12.5,0 5,5 0,0 z"
         style="fill-rule:evenodd;stroke:#000000;stroke-width:1pt"
         transform="matrix(-0.4,0,0,-0.4,-4,0)" />
    </marker>
  </defs>
  <sodipodi:namedview
     id="base"
     pagecolor="#ffffff"
     bordercolor="#666666"
     borderopacity="1.0"
     inkscape:pageopacity="0.0"
     inkscape:pageshadow="2"
     inkscape:zoom="1.979899"
     inkscape:cx="324.58172"
     inkscape:cy="151.8124"
     inkscape:document-units="px"
     inkscape:current-layer="layer1"
     showgrid="false"
     inkscape:window-width="1440"
     inkscape:window-height="845"
     inkscape:window-x="0"
     inkscape:window-y="20"
     inkscape:window-maximized="1"
     fit-margin-top="10"
     fit-margin-left="10"
     fit-margin-bottom="10"
     fit-margin-right="10" />
  <metadata
     id="metadata3289">
    <rdf:RDF>
      <cc:Work
         rdf:about="">
        <dc:format>image/svg+xml</dc:format>
        <dc:type
           rdf:resource="http://purl.org/dc/dcmitype/StillImage" />
        <dc:title />
      </cc:Work>
    </rdf:RDF>
  </metadata>
  <g
     inkscape:label="Layer 1"
     inkscape:groupmode="layer"
     id="layer1"
     transform="translate(-134.53668,-333.6646)">
    <rect
       style="fill:#271f89;fill-opacity:0.23529412;stroke:#111320;stroke-width:0.40508685;stroke-linecap:square;stroke-linejoin:bevel;stroke-miterlimit:4;stroke-opacity:1;stroke-dasharray:none;stroke-dashoffset:0"
       id="rect3021-8"
       width="23.789963"
       height="179.61256"
       x="166.912"
       y="394.69321" />
    <text
       xml:space="preserve"
       style="font-size:20.2083168px;font-style:normal;font-variant:normal;font-weight:normal;font-stretch:normal;text-align:start;line-height:125%;letter-spacing:0px;word-spacing:0px;writing-mode:lr-tb;text-anchor:start;fill:#000000;fill-opacity:1;stroke:none;font-family:Verdana;-inkscape-font-specification:Verdana"
       x="172.30315"
       y="415.43491"
       id="text9698"
       sodipodi:linespacing="125%"><tspan
         sodipodi:role="line"
         x="172.30315"
         y="415.43491"
         id="tspan9700"><tspan
           x="172.30315"
           y="415.43491"
           id="tspan9702">5</tspan><tspan
           dx="0"
           x="185.17018"
           y="415.43491"
           id="tspan9704" /></tspan><tspan
         sodipodi:role="line"
         x="172.30315"
         y="440.69534"
         id="tspan9706"><tspan
           x="172.30315"
           y="440.69534"
           id="tspan9708">1</tspan><tspan
           dx="0"
           x="185.17018"
           y="440.69534"
           id="tspan9710" /></tspan><tspan
         sodipodi:role="line"
         x="172.30315"
         y="465.95572"
         id="tspan9712"><tspan
           x="172.30315"
           y="465.95572"
           id="tspan9714">6</tspan><tspan
           dx="0"
           x="185.17018"
           y="465.95572"
           id="tspan9716" /></tspan><tspan
         sodipodi:role="line"
         x="172.30315"
         y="491.21609"
         id="tspan9718"><tspan
           x="172.30315"
           y="491.21609"
           id="tspan9720">3</tspan><tspan
           dx="0"
           x="185.17018"
           y="491.21609"
           id="tspan9722" /></tspan><tspan
         sodipodi:role="line"
         x="172.30315"
         y="516.4765"
         id="tspan9724"><tspan
           x="172.30315"
           y="516.4765"
           id="tspan9726">2</tspan><tspan
           dx="0"
           x="185.17018"
           y="516.4765"
           id="tspan9728" /></tspan><tspan
         sodipodi:role="line"
         x="172.30315"
         y="541.73694"
         id="tspan9730"><tspan
           x="172.30315"
           y="541.73694"
           id="tspan9732">4</tspan><tspan
           dx="0"
           x="185.17018"
           y="541.73694"
           id="tspan9734" /></tspan><tspan
         sodipodi:role="line"
         x="172.30315"
         y="566.99731"
         id="tspan9736"><tspan
           x="172.30315"
           y="566.99731"
           id="tspan9738">0</tspan></tspan></text>
    <path
       style="fill:none;stroke:#000000;stroke-width:1.05499136px;stroke-linecap:butt;stroke-linejoin:miter;stroke-opacity:1"
       d="m 167.01405,420.29691 23.54891,0.18838"
       id="path6996"
       inkscape:connector-curvature="0" />
    <path
       style="fill:none;stroke:#000000;stroke-width:1.05499136px;stroke-linecap:butt;stroke-linejoin:miter;stroke-opacity:1"
       d="m 167.10825,446.01231 23.5489,0.1884"
       id="path6996-4"
       inkscape:connector-curvature="0" />
    <path
       style="fill:none;stroke:#000000;stroke-width:1.05499136px;stroke-linecap:butt;stroke-linejoin:miter;stroke-opacity:1"
       d="m 166.91985,470.69158 23.54891,0.18839"
       id="path6996-42"
       inkscape:connector-curvature="0" />
    <path
       style="fill:none;stroke:#000000;stroke-width:1.05499136px;stroke-linecap:butt;stroke-linejoin:miter;stroke-opacity:1"
       d="m 166.91985,496.31281 23.54891,0.18838"
       id="path6996-7"
       inkscape:connector-curvature="0" />
    <path
       style="fill:none;stroke:#000000;stroke-width:1.05499136px;stroke-linecap:butt;stroke-linejoin:miter;stroke-opacity:1"
       d="m 167.10825,522.87597 23.5489,0.18839"
       id="path6996-5"
       inkscape:connector-curvature="0" />
    <path
       style="fill:none;stroke:#000000;stroke-width:1.05499136px;stroke-linecap:butt;stroke-linejoin:miter;stroke-opacity:1"
       d="m 167.29663,546.80168 23.54891,0.18839"
       id="path6996-3"
       inkscape:connector-curvature="0" />
    <path
       style="fill:none;stroke:#000000;stroke-width:0.73849398;stroke-linecap:butt;stroke-linejoin:miter;stroke-miterlimit:4;stroke-opacity:1;stroke-dasharray:0.73849397, 0.73849397;stroke-dashoffset:0;marker-end:url(#Arrow1Mend)"
       d="M 190.67497,408.25573 233.8359,530.81148"
       id="path7044"
       inkscape:connector-curvature="0" />
    <path
       style="fill:none;stroke:#000000;stroke-width:0.73849398;stroke-linecap:butt;stroke-linejoin:miter;stroke-miterlimit:4;stroke-opacity:1;stroke-dasharray:0.73849397, 0.73849397;stroke-dashoffset:0;marker-start:none;marker-end:url(#Arrow1Mend)"
       d="m 190.67497,434.09902 43.96021,-1.33213"
       id="path7046"
       inkscape:connector-curvature="0" />
    <path
       style="fill:none;stroke:#000000;stroke-width:0.73849398;stroke-linecap:butt;stroke-linejoin:miter;stroke-miterlimit:4;stroke-opacity:1;stroke-dasharray:0.73849397, 0.73849397;stroke-dashoffset:0;marker-end:url(#Arrow1Mend)"
       d="m 190.67497,458.87659 43.42736,96.97891"
       id="path7048"
       inkscape:connector-curvature="0" />
    <path
       style="fill:none;stroke:#000000;stroke-width:0.73849398;stroke-linecap:butt;stroke-linejoin:miter;stroke-miterlimit:4;stroke-opacity:1;stroke-dasharray:0.73849397, 0.73849397;stroke-dashoffset:0;marker-end:url(#Arrow1Mend)"
       d="m 190.40855,484.71988 45.0259,-1.33213"
       id="path7050"
       inkscape:connector-curvature="0" />
    <path
       style="fill:none;stroke:#000000;stroke-width:0.73849398;stroke-linecap:butt;stroke-linejoin:miter;stroke-miterlimit:4;stroke-opacity:1;stroke-dasharray:0.73849397, 0.73849397;stroke-dashoffset:0;marker-mid:none;marker-end:url(#Arrow1Mend)"
       d="m 190.67497,510.56315 43.96021,-54.61724"
       id="path7052"
       inkscape:connector-curvature="0" />
    <path
       style="fill:none;stroke:#000000;stroke-width:0.73849398;stroke-linecap:butt;stroke-linejoin:miter;stroke-miterlimit:4;stroke-opacity:1;stroke-dasharray:0.73849397, 0.73849397;stroke-dashoffset:0;marker-end:url(#Arrow1Mend)"
       d="M 190.94139,535.34073 235.43445,508.9646"
       id="path7054"
       inkscape:connector-curvature="0" />
    <path
       style="fill:none;stroke:#000000;stroke-width:0.73849398;stroke-linecap:butt;stroke-linejoin:miter;stroke-miterlimit:4;stroke-opacity:1;stroke-dasharray:0.73849397, 0.73849397;stroke-dashoffset:0;marker-end:url(#Arrow1Mend)"
       d="M 190.67357,561.18539 235.1691,410.37278"
       id="path7056"
       inkscape:connector-curvature="0" />
    <g
       style="font-size:20.2083168px;font-style:normal;font-variant:normal;font-weight:normal;font-stretch:normal;text-align:start;line-height:125%;letter-spacing:0px;word-spacing:0px;writing-mode:lr-tb;text-anchor:start;fill:#000000;fill-opacity:1;stroke:none;font-family:DejaVu Sans Mono;-inkscape-font-specification:DejaVu Sans Mono"
       id="text9656">
      <path
         d="m 258.42032,401.87652 0,1.77613 c -0.51969,-0.30259 -1.04266,-0.52954 -1.56891,-0.68085 -0.52626,-0.15129 -1.06239,-0.22694 -1.60837,-0.22695 -0.82229,1e-5 -1.43735,0.13486 -1.8452,0.40456 -0.40127,0.26314 -0.60191,0.6677 -0.6019,1.21368 -1e-5,0.49338 0.15129,0.86176 0.45389,1.10515 0.3026,0.2434 1.0558,0.48021 2.25962,0.71045 l 0.73019,0.13814 c 0.90121,0.17104 1.58205,0.51311 2.04254,1.0262 0.46704,0.51311 0.70057,1.1808 0.70058,2.00307 -10e-6,1.09199 -0.38813,1.94716 -1.16435,2.56551 -0.77624,0.61178 -1.85506,0.91766 -3.23649,0.91766 -0.54599,0 -1.1183,-0.0592 -1.71691,-0.17761 -0.59862,-0.11183 -1.24658,-0.28286 -1.94387,-0.5131 l 0,-1.87479 c 0.67756,0.34864 1.32551,0.61177 1.94387,0.78938 0.61835,0.17104 1.20381,0.25655 1.75638,0.25655 0.80254,0 1.42418,-0.16116 1.86493,-0.4835 0.44074,-0.32891 0.66111,-0.78609 0.66111,-1.37156 0,-0.84201 -0.80584,-1.42418 -2.4175,-1.74652 l -0.0789,-0.0197 -0.68085,-0.13814 c -1.04594,-0.20392 -1.80902,-0.54599 -2.28922,-1.02621 -0.48022,-0.48678 -0.72032,-1.14789 -0.72032,-1.98333 0,-1.05909 0.35851,-1.87479 1.07554,-2.4471 0.71702,-0.57888 1.73994,-0.86832 3.06874,-0.86833 0.59204,10e-6 1.16105,0.0559 1.70705,0.16774 0.54599,0.10527 1.08211,0.26643 1.60838,0.4835"
         style="font-size:20.2083168px;font-style:normal;font-variant:normal;font-weight:normal;font-stretch:normal;text-align:start;line-height:125%;writing-mode:lr-tb;text-anchor:start;font-family:DejaVu Sans Mono;-inkscape-font-specification:DejaVu Sans Mono"
         id="path4491" />
      <path
         d="m 271.44521,411.98068 c -0.4868,0.28287 -0.99003,0.49337 -1.5097,0.63151 -0.51311,0.14472 -1.03937,0.21708 -1.57878,0.21708 -1.71034,0 -3.04901,-0.5131 -4.016,-1.5393 -0.96043,-1.0262 -1.44064,-2.4471 -1.44064,-4.26269 0,-1.81559 0.48021,-3.23648 1.44064,-4.26269 0.96699,-1.0262 2.30566,-1.5393 4.016,-1.53931 0.53283,10e-6 1.05251,0.0691 1.55904,0.20721 0.50652,0.13816 1.01633,0.35195 1.52944,0.64138 l 0,1.9044 c -0.48022,-0.42758 -0.96372,-0.73675 -1.4505,-0.92753 -0.48022,-0.19076 -1.02621,-0.28614 -1.63798,-0.28615 -1.13804,10e-6 -2.01294,0.36839 -2.62471,1.10514 -0.61178,0.73677 -0.91767,1.78928 -0.91766,3.15755 -1e-5,1.36169 0.30588,2.41421 0.91766,3.15755 0.61835,0.73676 1.49325,1.10514 2.62471,1.10514 0.63151,0 1.19723,-0.0954 1.69719,-0.28615 0.49993,-0.19735 0.9637,-0.49995 1.39129,-0.9078 l 0,1.88466"
         style="font-size:20.2083168px;font-style:normal;font-variant:normal;font-weight:normal;font-stretch:normal;text-align:start;line-height:125%;writing-mode:lr-tb;text-anchor:start;font-family:DejaVu Sans Mono;-inkscape-font-specification:DejaVu Sans Mono"
         id="path4493" />
      <path
         d="m 275.65857,401.4917 4.64752,0 0,9.64039 3.60158,0 0,1.41103 -9.01875,0 0,-1.41103 3.60158,0 0,-8.22936 -2.83193,0 0,-1.41103 m 2.83193,-4.30216 1.81559,0 0,2.29909 -1.81559,0 0,-2.29909"
         style="font-size:20.2083168px;font-style:normal;font-variant:normal;font-weight:normal;font-stretch:normal;text-align:start;line-height:125%;writing-mode:lr-tb;text-anchor:start;font-family:DejaVu Sans Mono;-inkscape-font-specification:DejaVu Sans Mono"
         id="path4495" />
      <path
         d="m 296.26158,406.56351 0,0.88806 -7.86427,0 0,0.0592 c -1e-5,1.20382 0.31246,2.13463 0.93739,2.79245 0.63151,0.65783 1.51957,0.98674 2.66419,0.98674 0.57887,0 1.18407,-0.0921 1.81559,-0.27629 0.6315,-0.18419 1.30577,-0.46376 2.0228,-0.83872 l 0,1.80572 c -0.69072,0.28287 -1.35841,0.49337 -2.00307,0.63151 -0.63809,0.14472 -1.25645,0.21708 -1.85506,0.21708 -1.71692,0 -3.05888,-0.5131 -4.02587,-1.5393 -0.96701,-1.03278 -1.45051,-2.45368 -1.4505,-4.26269 -10e-6,-1.76296 0.47363,-3.1707 1.42089,-4.22323 0.94726,-1.0525 2.21028,-1.57876 3.78906,-1.57877 1.40774,10e-6 2.51617,0.47693 3.3253,1.43076 0.81569,0.95386 1.22354,2.25634 1.22355,3.90747 m -1.81559,-0.53283 c -0.0263,-1.06567 -0.27959,-1.87479 -0.75979,-2.42737 -0.47364,-0.55914 -1.15777,-0.83871 -2.05241,-0.83872 -0.87491,10e-6 -1.59522,0.28945 -2.16094,0.86832 -0.56574,0.57889 -0.90122,1.38144 -1.00647,2.40763 l 5.97961,-0.01"
         style="font-size:20.2083168px;font-style:normal;font-variant:normal;font-weight:normal;font-stretch:normal;text-align:start;line-height:125%;writing-mode:lr-tb;text-anchor:start;font-family:DejaVu Sans Mono;-inkscape-font-specification:DejaVu Sans Mono"
         id="path4497" />
      <path
         d="m 307.81624,405.69519 0,6.84793 -1.82546,0 0,-6.84793 c -10e-6,-0.99331 -0.17433,-1.72349 -0.52297,-2.19055 -0.34865,-0.46705 -0.89465,-0.70058 -1.63798,-0.70059 -0.8486,10e-6 -1.50313,0.30261 -1.9636,0.9078 -0.4539,0.59863 -0.68085,1.46037 -0.68085,2.58524 l 0,6.24603 -1.81559,0 0,-11.05142 1.81559,0 0,1.65771 c 0.32233,-0.6315 0.75978,-1.10842 1.31236,-1.43076 0.55256,-0.3289 1.2071,-0.49336 1.9636,-0.49337 1.12487,10e-6 1.96359,0.37168 2.51617,1.11501 0.55914,0.73677 0.83872,1.85507 0.83873,3.3549"
         style="font-size:20.2083168px;font-style:normal;font-variant:normal;font-weight:normal;font-stretch:normal;text-align:start;line-height:125%;writing-mode:lr-tb;text-anchor:start;font-family:DejaVu Sans Mono;-inkscape-font-specification:DejaVu Sans Mono"
         id="path4499" />
      <path
         d="m 320.07148,411.98068 c -0.4868,0.28287 -0.99004,0.49337 -1.50971,0.63151 -0.51311,0.14472 -1.03936,0.21708 -1.57877,0.21708 -1.71035,0 -3.04901,-0.5131 -4.01601,-1.5393 -0.96042,-1.0262 -1.44063,-2.4471 -1.44063,-4.26269 0,-1.81559 0.48021,-3.23648 1.44063,-4.26269 0.967,-1.0262 2.30566,-1.5393 4.01601,-1.53931 0.53283,10e-6 1.05251,0.0691 1.55904,0.20721 0.50651,0.13816 1.01632,0.35195 1.52944,0.64138 l 0,1.9044 c -0.48022,-0.42758 -0.96372,-0.73675 -1.4505,-0.92753 -0.48022,-0.19076 -1.02621,-0.28614 -1.63798,-0.28615 -1.13804,10e-6 -2.01294,0.36839 -2.62471,1.10514 -0.61178,0.73677 -0.91767,1.78928 -0.91767,3.15755 0,1.36169 0.30589,2.41421 0.91767,3.15755 0.61834,0.73676 1.49325,1.10514 2.62471,1.10514 0.6315,0 1.19723,-0.0954 1.69718,-0.28615 0.49994,-0.19735 0.9637,-0.49995 1.3913,-0.9078 l 0,1.88466"
         style="font-size:20.2083168px;font-style:normal;font-variant:normal;font-weight:normal;font-stretch:normal;text-align:start;line-height:125%;writing-mode:lr-tb;text-anchor:start;font-family:DejaVu Sans Mono;-inkscape-font-specification:DejaVu Sans Mono"
         id="path4501" />
      <path
         d="m 332.73127,406.56351 0,0.88806 -7.86427,0 0,0.0592 c 0,1.20382 0.31246,2.13463 0.9374,2.79245 0.6315,0.65783 1.51956,0.98674 2.66418,0.98674 0.57888,0 1.18407,-0.0921 1.81559,-0.27629 0.6315,-0.18419 1.30577,-0.46376 2.02281,-0.83872 l 0,1.80572 c -0.69073,0.28287 -1.35842,0.49337 -2.00307,0.63151 -0.6381,0.14472 -1.25645,0.21708 -1.85506,0.21708 -1.71693,0 -3.05888,-0.5131 -4.02588,-1.5393 -0.967,-1.03278 -1.4505,-2.45368 -1.4505,-4.26269 0,-1.76296 0.47363,-3.1707 1.4209,-4.22323 0.94726,-1.0525 2.21028,-1.57876 3.78906,-1.57877 1.40773,10e-6 2.51616,0.47693 3.32529,1.43076 0.81569,0.95386 1.22354,2.25634 1.22355,3.90747 m -1.81559,-0.53283 c -0.0263,-1.06567 -0.27958,-1.87479 -0.75978,-2.42737 -0.47364,-0.55914 -1.15778,-0.83871 -2.05241,-0.83872 -0.87491,10e-6 -1.59522,0.28945 -2.16095,0.86832 -0.56573,0.57889 -0.90122,1.38144 -1.00647,2.40763 l 5.97961,-0.01"
         style="font-size:20.2083168px;font-style:normal;font-variant:normal;font-weight:normal;font-stretch:normal;text-align:start;line-height:125%;writing-mode:lr-tb;text-anchor:start;font-family:DejaVu Sans Mono;-inkscape-font-specification:DejaVu Sans Mono"
         id="path4503" />
      <path
         d="m 259.28865,437.24106 c -0.4868,0.28286 -0.99004,0.49337 -1.50971,0.63151 -0.51311,0.14472 -1.03936,0.21708 -1.57877,0.21708 -1.71035,0 -3.04901,-0.5131 -4.01601,-1.53931 -0.96042,-1.0262 -1.44063,-2.44709 -1.44063,-4.26269 0,-1.81558 0.48021,-3.23648 1.44063,-4.26269 0.967,-1.02619 2.30566,-1.53929 4.01601,-1.5393 0.53283,1e-5 1.05251,0.0691 1.55904,0.20721 0.50651,0.13815 1.01633,0.35195 1.52944,0.64138 l 0,1.90439 c -0.48022,-0.42757 -0.96372,-0.73675 -1.4505,-0.92753 -0.48022,-0.19075 -1.02621,-0.28614 -1.63798,-0.28615 -1.13804,10e-6 -2.01294,0.36839 -2.62471,1.10514 -0.61178,0.73677 -0.91767,1.78929 -0.91767,3.15755 0,1.3617 0.30589,2.41422 0.91767,3.15755 0.61834,0.73677 1.49325,1.10515 2.62471,1.10514 0.6315,10e-6 1.19723,-0.0954 1.69718,-0.28615 0.49994,-0.19734 0.9637,-0.49994 1.3913,-0.90779 l 0,1.88466"
         style="font-size:20.2083168px;font-style:normal;font-variant:normal;font-weight:normal;font-stretch:normal;text-align:start;line-height:125%;writing-mode:lr-tb;text-anchor:start;font-family:DejaVu Sans Mono;-inkscape-font-specification:DejaVu Sans Mono"
         id="path4505" />
      <path
         d="m 263.502,426.75207 4.64752,0 0,9.6404 3.60158,0 0,1.41103 -9.01875,0 0,-1.41103 3.60158,0 0,-8.22937 -2.83193,0 0,-1.41103 m 2.83193,-4.30216 1.81559,0 0,2.29909 -1.81559,0 0,-2.29909"
         style="font-size:20.2083168px;font-style:normal;font-variant:normal;font-weight:normal;font-stretch:normal;text-align:start;line-height:125%;writing-mode:lr-tb;text-anchor:start;font-family:DejaVu Sans Mono;-inkscape-font-specification:DejaVu Sans Mono"
         id="path4507" />
      <path
         d="m 284.10501,431.82389 0,0.88806 -7.86427,0 0,0.0592 c 0,1.20382 0.31246,2.13464 0.9374,2.79246 0.6315,0.65783 1.51956,0.98674 2.66418,0.98673 0.57888,10e-6 1.18407,-0.0921 1.81559,-0.27628 0.6315,-0.18419 1.30577,-0.46376 2.02281,-0.83872 l 0,1.80572 c -0.69073,0.28286 -1.35842,0.49337 -2.00307,0.63151 -0.6381,0.14472 -1.25645,0.21708 -1.85506,0.21708 -1.71693,0 -3.05888,-0.5131 -4.02588,-1.53931 -0.967,-1.03277 -1.4505,-2.45367 -1.4505,-4.26269 0,-1.76295 0.47363,-3.17069 1.4209,-4.22322 0.94726,-1.05251 2.21028,-1.57876 3.78906,-1.57877 1.40773,1e-5 2.51616,0.47693 3.32529,1.43076 0.81569,0.95385 1.22354,2.25634 1.22355,3.90747 m -1.81559,-0.53284 c -0.0263,-1.06566 -0.27958,-1.87479 -0.75978,-2.42736 -0.47364,-0.55914 -1.15778,-0.83872 -2.05241,-0.83873 -0.87491,10e-6 -1.59523,0.28945 -2.16095,0.86833 -0.56573,0.57889 -0.90122,1.38143 -1.00647,2.40763 l 5.97961,-0.01"
         style="font-size:20.2083168px;font-style:normal;font-variant:normal;font-weight:normal;font-stretch:normal;text-align:start;line-height:125%;writing-mode:lr-tb;text-anchor:start;font-family:DejaVu Sans Mono;-inkscape-font-specification:DejaVu Sans Mono"
         id="path4509" />
      <path
         d="m 295.65967,430.95556 0,6.84794 -1.82546,0 0,-6.84794 c -10e-6,-0.9933 -0.17433,-1.72349 -0.52297,-2.19055 -0.34865,-0.46704 -0.89464,-0.70057 -1.63798,-0.70058 -0.84859,10e-6 -1.50313,0.30261 -1.9636,0.9078 -0.4539,0.59862 -0.68085,1.46037 -0.68084,2.58524 l 0,6.24603 -1.8156,0 0,-11.05143 1.8156,0 0,1.65772 c 0.32232,-0.6315 0.75978,-1.10842 1.31235,-1.43077 0.55257,-0.3289 1.2071,-0.49335 1.9636,-0.49336 1.12487,1e-5 1.9636,0.37168 2.51618,1.11501 0.55913,0.73677 0.83871,1.85506 0.83872,3.35489"
         style="font-size:20.2083168px;font-style:normal;font-variant:normal;font-weight:normal;font-stretch:normal;text-align:start;line-height:125%;writing-mode:lr-tb;text-anchor:start;font-family:DejaVu Sans Mono;-inkscape-font-specification:DejaVu Sans Mono"
         id="path4511" />
      <path
         d="m 307.91491,437.24106 c -0.4868,0.28286 -0.99003,0.49337 -1.5097,0.63151 -0.51311,0.14472 -1.03937,0.21708 -1.57878,0.21708 -1.71034,0 -3.04901,-0.5131 -4.01601,-1.53931 -0.96042,-1.0262 -1.44063,-2.44709 -1.44063,-4.26269 0,-1.81558 0.48021,-3.23648 1.44063,-4.26269 0.967,-1.02619 2.30567,-1.53929 4.01601,-1.5393 0.53283,1e-5 1.05251,0.0691 1.55904,0.20721 0.50652,0.13815 1.01633,0.35195 1.52944,0.64138 l 0,1.90439 c -0.48022,-0.42757 -0.96372,-0.73675 -1.4505,-0.92753 -0.48022,-0.19075 -1.02621,-0.28614 -1.63798,-0.28615 -1.13804,10e-6 -2.01294,0.36839 -2.62471,1.10514 -0.61178,0.73677 -0.91767,1.78929 -0.91766,3.15755 -1e-5,1.3617 0.30588,2.41422 0.91766,3.15755 0.61835,0.73677 1.49325,1.10515 2.62471,1.10514 0.6315,10e-6 1.19723,-0.0954 1.69718,-0.28615 0.49994,-0.19734 0.9637,-0.49994 1.3913,-0.90779 l 0,1.88466"
         style="font-size:20.2083168px;font-style:normal;font-variant:normal;font-weight:normal;font-stretch:normal;text-align:start;line-height:125%;writing-mode:lr-tb;text-anchor:start;font-family:DejaVu Sans Mono;-inkscape-font-specification:DejaVu Sans Mono"
         id="path4513" />
      <path
         d="m 320.57471,431.82389 0,0.88806 -7.86427,0 0,0.0592 c 0,1.20382 0.31246,2.13464 0.9374,2.79246 0.6315,0.65783 1.51956,0.98674 2.66418,0.98673 0.57888,10e-6 1.18407,-0.0921 1.81559,-0.27628 0.6315,-0.18419 1.30577,-0.46376 2.02281,-0.83872 l 0,1.80572 c -0.69073,0.28286 -1.35842,0.49337 -2.00308,0.63151 -0.63809,0.14472 -1.25644,0.21708 -1.85506,0.21708 -1.71692,0 -3.05888,-0.5131 -4.02587,-1.53931 -0.967,-1.03277 -1.4505,-2.45367 -1.4505,-4.26269 0,-1.76295 0.47363,-3.17069 1.4209,-4.22322 0.94726,-1.05251 2.21028,-1.57876 3.78906,-1.57877 1.40773,1e-5 2.51616,0.47693 3.32529,1.43076 0.81569,0.95385 1.22354,2.25634 1.22355,3.90747 m -1.81559,-0.53284 c -0.0263,-1.06566 -0.27958,-1.87479 -0.75979,-2.42736 -0.47364,-0.55914 -1.15777,-0.83872 -2.0524,-0.83873 -0.87491,10e-6 -1.59523,0.28945 -2.16095,0.86833 -0.56573,0.57889 -0.90122,1.38143 -1.00647,2.40763 l 5.97961,-0.01"
         style="font-size:20.2083168px;font-style:normal;font-variant:normal;font-weight:normal;font-stretch:normal;text-align:start;line-height:125%;writing-mode:lr-tb;text-anchor:start;font-family:DejaVu Sans Mono;-inkscape-font-specification:DejaVu Sans Mono"
         id="path4515" />
      <path
         d="m 251.34544,452.01245 4.64751,0 0,9.64039 3.60158,0 0,1.41103 -9.01875,0 0,-1.41103 3.60158,0 0,-8.22936 -2.83192,0 0,-1.41103 m 2.83192,-4.30216 1.81559,0 0,2.29909 -1.81559,0 0,-2.29909"
         style="font-size:20.2083168px;font-style:normal;font-variant:normal;font-weight:normal;font-stretch:normal;text-align:start;line-height:125%;writing-mode:lr-tb;text-anchor:start;font-family:DejaVu Sans Mono;-inkscape-font-specification:DejaVu Sans Mono"
         id="path4517" />
      <path
         d="m 271.94845,457.08426 0,0.88806 -7.86427,0 0,0.0592 c -1e-5,1.20382 0.31246,2.13464 0.93739,2.79246 0.63151,0.65782 1.51957,0.98673 2.66419,0.98673 0.57887,0 1.18407,-0.0921 1.81559,-0.27628 0.6315,-0.18419 1.30576,-0.46377 2.0228,-0.83873 l 0,1.80572 c -0.69072,0.28287 -1.35841,0.49337 -2.00307,0.63151 -0.6381,0.14473 -1.25645,0.21709 -1.85506,0.21709 -1.71692,0 -3.05888,-0.51311 -4.02587,-1.53931 -0.96701,-1.03278 -1.45051,-2.45367 -1.4505,-4.26269 -10e-6,-1.76296 0.47363,-3.1707 1.42089,-4.22322 0.94726,-1.05251 2.21028,-1.57877 3.78906,-1.57878 1.40774,10e-6 2.51617,0.47693 3.3253,1.43077 0.81569,0.95385 1.22354,2.25634 1.22355,3.90746 m -1.81559,-0.53283 c -0.0263,-1.06567 -0.27959,-1.87479 -0.75979,-2.42737 -0.47364,-0.55914 -1.15777,-0.83871 -2.05241,-0.83872 -0.87491,10e-6 -1.59522,0.28945 -2.16094,0.86832 -0.56574,0.5789 -0.90122,1.38144 -1.00647,2.40763 l 5.97961,-0.01"
         style="font-size:20.2083168px;font-style:normal;font-variant:normal;font-weight:normal;font-stretch:normal;text-align:start;line-height:125%;writing-mode:lr-tb;text-anchor:start;font-family:DejaVu Sans Mono;-inkscape-font-specification:DejaVu Sans Mono"
         id="path4519" />
      <path
         d="m 283.5031,456.21594 0,6.84793 -1.82545,0 0,-6.84793 c -1e-5,-0.99331 -0.17433,-1.72349 -0.52297,-2.19055 -0.34866,-0.46705 -0.89465,-0.70057 -1.63798,-0.70058 -0.8486,10e-6 -1.50313,0.3026 -1.9636,0.90779 -0.4539,0.59863 -0.68085,1.46038 -0.68085,2.58525 l 0,6.24602 -1.81559,0 0,-11.05142 1.81559,0 0,1.65771 c 0.32233,-0.6315 0.75978,-1.10842 1.31236,-1.43076 0.55256,-0.3289 1.2071,-0.49336 1.9636,-0.49337 1.12487,10e-6 1.96359,0.37168 2.51617,1.11501 0.55914,0.73677 0.83871,1.85507 0.83872,3.3549"
         style="font-size:20.2083168px;font-style:normal;font-variant:normal;font-weight:normal;font-stretch:normal;text-align:start;line-height:125%;writing-mode:lr-tb;text-anchor:start;font-family:DejaVu Sans Mono;-inkscape-font-specification:DejaVu Sans Mono"
         id="path4521" />
      <path
         d="m 295.75834,462.50143 c -0.4868,0.28287 -0.99003,0.49337 -1.5097,0.63151 -0.51311,0.14473 -1.03937,0.21709 -1.57878,0.21709 -1.71034,0 -3.04901,-0.51311 -4.016,-1.53931 -0.96043,-1.0262 -1.44064,-2.4471 -1.44064,-4.26269 0,-1.81558 0.48021,-3.23648 1.44064,-4.26269 0.96699,-1.0262 2.30566,-1.5393 4.016,-1.53931 0.53283,10e-6 1.05251,0.0691 1.55905,0.20722 0.50651,0.13815 1.01632,0.35194 1.52943,0.64137 l 0,1.9044 c -0.48022,-0.42758 -0.96372,-0.73675 -1.4505,-0.92753 -0.48022,-0.19076 -1.02621,-0.28614 -1.63798,-0.28615 -1.13803,10e-6 -2.01294,0.36839 -2.62471,1.10514 -0.61178,0.73677 -0.91766,1.78928 -0.91766,3.15755 0,1.3617 0.30588,2.41421 0.91766,3.15755 0.61835,0.73676 1.49325,1.10514 2.62471,1.10514 0.63151,0 1.19723,-0.0954 1.69719,-0.28615 0.49993,-0.19735 0.9637,-0.49995 1.39129,-0.9078 l 0,1.88466"
         style="font-size:20.2083168px;font-style:normal;font-variant:normal;font-weight:normal;font-stretch:normal;text-align:start;line-height:125%;writing-mode:lr-tb;text-anchor:start;font-family:DejaVu Sans Mono;-inkscape-font-specification:DejaVu Sans Mono"
         id="path4523" />
      <path
         d="m 308.41814,457.08426 0,0.88806 -7.86427,0 0,0.0592 c 0,1.20382 0.31246,2.13464 0.9374,2.79246 0.63151,0.65782 1.51957,0.98673 2.66418,0.98673 0.57888,0 1.18408,-0.0921 1.81559,-0.27628 0.6315,-0.18419 1.30577,-0.46377 2.02281,-0.83873 l 0,1.80572 c -0.69073,0.28287 -1.35841,0.49337 -2.00307,0.63151 -0.6381,0.14473 -1.25645,0.21709 -1.85506,0.21709 -1.71692,0 -3.05888,-0.51311 -4.02588,-1.53931 -0.967,-1.03278 -1.4505,-2.45367 -1.4505,-4.26269 0,-1.76296 0.47363,-3.1707 1.4209,-4.22322 0.94726,-1.05251 2.21028,-1.57877 3.78906,-1.57878 1.40773,10e-6 2.51616,0.47693 3.32529,1.43077 0.81569,0.95385 1.22354,2.25634 1.22355,3.90746 m -1.81559,-0.53283 c -0.0263,-1.06567 -0.27958,-1.87479 -0.75978,-2.42737 -0.47364,-0.55914 -1.15778,-0.83871 -2.05241,-0.83872 -0.87491,10e-6 -1.59522,0.28945 -2.16095,0.86832 -0.56573,0.5789 -0.90122,1.38144 -1.00647,2.40763 l 5.97961,-0.01"
         style="font-size:20.2083168px;font-style:normal;font-variant:normal;font-weight:normal;font-stretch:normal;text-align:start;line-height:125%;writing-mode:lr-tb;text-anchor:start;font-family:DejaVu Sans Mono;-inkscape-font-specification:DejaVu Sans Mono"
         id="path4525" />
      <path
         d="m 259.79188,482.3447 0,0.88806 -7.86427,0 0,0.0592 c 0,1.20382 0.31246,2.13463 0.9374,2.79245 0.6315,0.65783 1.51956,0.98674 2.66418,0.98674 0.57888,0 1.18407,-0.0921 1.81559,-0.27629 0.6315,-0.18419 1.30577,-0.46376 2.02281,-0.83872 l 0,1.80572 c -0.69073,0.28287 -1.35842,0.49337 -2.00307,0.63151 -0.6381,0.14472 -1.25645,0.21708 -1.85507,0.21708 -1.71692,0 -3.05887,-0.5131 -4.02587,-1.5393 -0.967,-1.03278 -1.4505,-2.45368 -1.4505,-4.26269 0,-1.76296 0.47363,-3.1707 1.4209,-4.22323 0.94726,-1.0525 2.21028,-1.57876 3.78906,-1.57877 1.40773,1e-5 2.51616,0.47693 3.32529,1.43076 0.81569,0.95386 1.22354,2.25634 1.22355,3.90747 m -1.81559,-0.53284 c -0.0263,-1.06566 -0.27958,-1.87478 -0.75978,-2.42736 -0.47365,-0.55914 -1.15778,-0.83872 -2.05241,-0.83873 -0.87491,10e-6 -1.59523,0.28946 -2.16095,0.86833 -0.56573,0.57889 -0.90122,1.38144 -1.00647,2.40763 l 5.97961,-0.01"
         style="font-size:20.2083168px;font-style:normal;font-variant:normal;font-weight:normal;font-stretch:normal;text-align:start;line-height:125%;writing-mode:lr-tb;text-anchor:start;font-family:DejaVu Sans Mono;-inkscape-font-specification:DejaVu Sans Mono"
         id="path4527" />
      <path
         d="m 271.34654,481.47637 0,6.84794 -1.82546,0 0,-6.84794 c -10e-6,-0.9933 -0.17433,-1.72348 -0.52297,-2.19055 -0.34865,-0.46704 -0.89464,-0.70057 -1.63798,-0.70058 -0.84859,10e-6 -1.50313,0.30261 -1.9636,0.9078 -0.4539,0.59863 -0.68085,1.46037 -0.68084,2.58524 l 0,6.24603 -1.8156,0 0,-11.05142 1.8156,0 0,1.65771 c 0.32232,-0.6315 0.75978,-1.10842 1.31235,-1.43076 0.55257,-0.3289 1.2071,-0.49336 1.9636,-0.49337 1.12487,1e-5 1.9636,0.37168 2.51618,1.11501 0.55913,0.73677 0.83871,1.85507 0.83872,3.35489"
         style="font-size:20.2083168px;font-style:normal;font-variant:normal;font-weight:normal;font-stretch:normal;text-align:start;line-height:125%;writing-mode:lr-tb;text-anchor:start;font-family:DejaVu Sans Mono;-inkscape-font-specification:DejaVu Sans Mono"
         id="path4529" />
      <path
         d="m 283.60178,487.76187 c -0.4868,0.28287 -0.99003,0.49337 -1.5097,0.63151 -0.51312,0.14472 -1.03937,0.21708 -1.57878,0.21708 -1.71034,0 -3.04901,-0.5131 -4.01601,-1.5393 -0.96042,-1.0262 -1.44063,-2.4471 -1.44063,-4.26269 0,-1.81559 0.48021,-3.23648 1.44063,-4.2627 0.967,-1.02619 2.30567,-1.53929 4.01601,-1.5393 0.53283,1e-5 1.05251,0.0691 1.55904,0.20721 0.50651,0.13816 1.01633,0.35195 1.52944,0.64138 l 0,1.9044 c -0.48022,-0.42758 -0.96372,-0.73675 -1.4505,-0.92753 -0.48022,-0.19076 -1.02621,-0.28615 -1.63798,-0.28616 -1.13804,10e-6 -2.01294,0.36839 -2.62471,1.10515 -0.61178,0.73677 -0.91767,1.78928 -0.91767,3.15755 0,1.36169 0.30589,2.41421 0.91767,3.15755 0.61835,0.73676 1.49325,1.10514 2.62471,1.10514 0.6315,0 1.19723,-0.0954 1.69718,-0.28616 0.49994,-0.19734 0.9637,-0.49994 1.3913,-0.90779 l 0,1.88466"
         style="font-size:20.2083168px;font-style:normal;font-variant:normal;font-weight:normal;font-stretch:normal;text-align:start;line-height:125%;writing-mode:lr-tb;text-anchor:start;font-family:DejaVu Sans Mono;-inkscape-font-specification:DejaVu Sans Mono"
         id="path4531" />
      <path
         d="m 296.26158,482.3447 0,0.88806 -7.86427,0 0,0.0592 c -1e-5,1.20382 0.31246,2.13463 0.93739,2.79245 0.63151,0.65783 1.51957,0.98674 2.66419,0.98674 0.57887,0 1.18407,-0.0921 1.81559,-0.27629 0.6315,-0.18419 1.30577,-0.46376 2.0228,-0.83872 l 0,1.80572 c -0.69072,0.28287 -1.35841,0.49337 -2.00307,0.63151 -0.63809,0.14472 -1.25645,0.21708 -1.85506,0.21708 -1.71692,0 -3.05888,-0.5131 -4.02587,-1.5393 -0.96701,-1.03278 -1.45051,-2.45368 -1.4505,-4.26269 -10e-6,-1.76296 0.47363,-3.1707 1.42089,-4.22323 0.94726,-1.0525 2.21028,-1.57876 3.78906,-1.57877 1.40774,1e-5 2.51617,0.47693 3.3253,1.43076 0.81569,0.95386 1.22354,2.25634 1.22355,3.90747 m -1.81559,-0.53284 c -0.0263,-1.06566 -0.27959,-1.87478 -0.75979,-2.42736 -0.47364,-0.55914 -1.15777,-0.83872 -2.05241,-0.83873 -0.87491,10e-6 -1.59522,0.28946 -2.16094,0.86833 -0.56574,0.57889 -0.90122,1.38144 -1.00647,2.40763 l 5.97961,-0.01"
         style="font-size:20.2083168px;font-style:normal;font-variant:normal;font-weight:normal;font-stretch:normal;text-align:start;line-height:125%;writing-mode:lr-tb;text-anchor:start;font-family:DejaVu Sans Mono;-inkscape-font-specification:DejaVu Sans Mono"
         id="path4533" />
      <path
         d="m 259.18997,506.73672 0,6.84794 -1.82545,0 0,-6.84794 c -1e-5,-0.9933 -0.17434,-1.72349 -0.52297,-2.19055 -0.34866,-0.46704 -0.89465,-0.70057 -1.63798,-0.70058 -0.8486,10e-6 -1.50313,0.30261 -1.9636,0.90779 -0.45391,0.59863 -0.68085,1.46038 -0.68085,2.58525 l 0,6.24603 -1.81559,0 0,-11.05143 1.81559,0 0,1.65772 c 0.32233,-0.6315 0.75978,-1.10842 1.31236,-1.43077 0.55256,-0.3289 1.20709,-0.49335 1.9636,-0.49337 1.12487,2e-5 1.96359,0.37169 2.51617,1.11501 0.55914,0.73677 0.83871,1.85507 0.83872,3.3549"
         style="font-size:20.2083168px;font-style:normal;font-variant:normal;font-weight:normal;font-stretch:normal;text-align:start;line-height:125%;writing-mode:lr-tb;text-anchor:start;font-family:DejaVu Sans Mono;-inkscape-font-specification:DejaVu Sans Mono"
         id="path4535" />
      <path
         d="m 271.44521,513.02222 c -0.4868,0.28286 -0.99003,0.49336 -1.5097,0.63151 -0.51311,0.14472 -1.03937,0.21708 -1.57878,0.21708 -1.71034,0 -3.04901,-0.5131 -4.016,-1.53931 -0.96043,-1.0262 -1.44064,-2.44709 -1.44064,-4.26269 0,-1.81558 0.48021,-3.23648 1.44064,-4.26269 0.96699,-1.02619 2.30566,-1.53929 4.016,-1.53931 0.53283,2e-5 1.05251,0.0691 1.55904,0.20722 0.50652,0.13815 1.01633,0.35194 1.52944,0.64138 l 0,1.90439 c -0.48022,-0.42757 -0.96372,-0.73675 -1.4505,-0.92753 -0.48022,-0.19076 -1.02621,-0.28614 -1.63798,-0.28615 -1.13804,10e-6 -2.01294,0.36839 -2.62471,1.10514 -0.61178,0.73677 -0.91767,1.78929 -0.91766,3.15755 -1e-5,1.3617 0.30588,2.41421 0.91766,3.15755 0.61835,0.73676 1.49325,1.10514 2.62471,1.10514 0.63151,0 1.19723,-0.0954 1.69719,-0.28615 0.49993,-0.19734 0.9637,-0.49994 1.39129,-0.9078 l 0,1.88467"
         style="font-size:20.2083168px;font-style:normal;font-variant:normal;font-weight:normal;font-stretch:normal;text-align:start;line-height:125%;writing-mode:lr-tb;text-anchor:start;font-family:DejaVu Sans Mono;-inkscape-font-specification:DejaVu Sans Mono"
         id="path4537" />
      <path
         d="m 284.10501,507.60505 0,0.88806 -7.86427,0 0,0.0592 c 0,1.20382 0.31246,2.13464 0.9374,2.79246 0.6315,0.65782 1.51956,0.98673 2.66418,0.98673 0.57888,0 1.18407,-0.0921 1.81559,-0.27628 0.6315,-0.18419 1.30577,-0.46377 2.02281,-0.83873 l 0,1.80573 c -0.69073,0.28286 -1.35842,0.49336 -2.00307,0.63151 -0.6381,0.14472 -1.25645,0.21708 -1.85506,0.21708 -1.71693,0 -3.05888,-0.5131 -4.02588,-1.53931 -0.967,-1.03278 -1.4505,-2.45367 -1.4505,-4.26269 0,-1.76296 0.47363,-3.1707 1.4209,-4.22322 0.94726,-1.05251 2.21028,-1.57876 3.78906,-1.57878 1.40773,2e-5 2.51616,0.47694 3.32529,1.43077 0.81569,0.95385 1.22354,2.25634 1.22355,3.90747 m -1.81559,-0.53284 c -0.0263,-1.06567 -0.27958,-1.87479 -0.75978,-2.42737 -0.47364,-0.55914 -1.15778,-0.83871 -2.05241,-0.83872 -0.87491,10e-6 -1.59523,0.28945 -2.16095,0.86833 -0.56573,0.57889 -0.90122,1.38143 -1.00647,2.40763 l 5.97961,-0.01"
         style="font-size:20.2083168px;font-style:normal;font-variant:normal;font-weight:normal;font-stretch:normal;text-align:start;line-height:125%;writing-mode:lr-tb;text-anchor:start;font-family:DejaVu Sans Mono;-inkscape-font-specification:DejaVu Sans Mono"
         id="path4539" />
      <path
         d="m 259.28865,538.28265 c -0.4868,0.28287 -0.99004,0.49337 -1.50971,0.63151 -0.51311,0.14472 -1.03936,0.21709 -1.57877,0.21709 -1.71035,0 -3.04901,-0.51311 -4.01601,-1.53931 -0.96042,-1.0262 -1.44063,-2.4471 -1.44063,-4.26269 0,-1.81559 0.48021,-3.23648 1.44063,-4.26269 0.967,-1.0262 2.30566,-1.5393 4.01601,-1.53931 0.53283,10e-6 1.05251,0.0691 1.55904,0.20722 0.50651,0.13815 1.01633,0.35194 1.52944,0.64137 l 0,1.9044 c -0.48022,-0.42758 -0.96372,-0.73675 -1.4505,-0.92753 -0.48022,-0.19076 -1.02621,-0.28614 -1.63798,-0.28615 -1.13804,10e-6 -2.01294,0.36839 -2.62471,1.10514 -0.61178,0.73677 -0.91767,1.78928 -0.91767,3.15755 0,1.3617 0.30589,2.41421 0.91767,3.15755 0.61834,0.73676 1.49325,1.10514 2.62471,1.10514 0.6315,0 1.19723,-0.0954 1.69718,-0.28615 0.49994,-0.19735 0.9637,-0.49995 1.3913,-0.9078 l 0,1.88466"
         style="font-size:20.2083168px;font-style:normal;font-variant:normal;font-weight:normal;font-stretch:normal;text-align:start;line-height:125%;writing-mode:lr-tb;text-anchor:start;font-family:DejaVu Sans Mono;-inkscape-font-specification:DejaVu Sans Mono"
         id="path4541" />
      <path
         d="m 271.94845,532.86548 0,0.88806 -7.86427,0 0,0.0592 c -1e-5,1.20382 0.31246,2.13464 0.93739,2.79246 0.63151,0.65782 1.51957,0.98673 2.66419,0.98673 0.57887,0 1.18407,-0.0921 1.81559,-0.27629 0.6315,-0.18418 1.30576,-0.46376 2.0228,-0.83872 l 0,1.80572 c -0.69072,0.28287 -1.35841,0.49337 -2.00307,0.63151 -0.6381,0.14472 -1.25645,0.21709 -1.85506,0.21709 -1.71692,0 -3.05888,-0.51311 -4.02587,-1.53931 -0.96701,-1.03278 -1.45051,-2.45368 -1.4505,-4.26269 -10e-6,-1.76296 0.47363,-3.1707 1.42089,-4.22322 0.94726,-1.05251 2.21028,-1.57877 3.78906,-1.57878 1.40774,10e-6 2.51617,0.47693 3.3253,1.43077 0.81569,0.95385 1.22354,2.25634 1.22355,3.90746 m -1.81559,-0.53283 c -0.0263,-1.06567 -0.27959,-1.87479 -0.75979,-2.42737 -0.47364,-0.55914 -1.15777,-0.83871 -2.05241,-0.83872 -0.87491,10e-6 -1.59522,0.28945 -2.16094,0.86832 -0.56574,0.5789 -0.90122,1.38144 -1.00647,2.40763 l 5.97961,-0.01"
         style="font-size:20.2083168px;font-style:normal;font-variant:normal;font-weight:normal;font-stretch:normal;text-align:start;line-height:125%;writing-mode:lr-tb;text-anchor:start;font-family:DejaVu Sans Mono;-inkscape-font-specification:DejaVu Sans Mono"
         id="path4543" />
      <path
         d="m 259.79188,558.12586 0,0.88806 -7.86427,0 0,0.0592 c 0,1.20382 0.31246,2.13464 0.9374,2.79246 0.6315,0.65783 1.51956,0.98674 2.66418,0.98674 0.57888,0 1.18407,-0.0921 1.81559,-0.27629 0.6315,-0.18419 1.30577,-0.46376 2.02281,-0.83872 l 0,1.80572 c -0.69073,0.28286 -1.35842,0.49337 -2.00307,0.63151 -0.6381,0.14472 -1.25645,0.21708 -1.85507,0.21708 -1.71692,0 -3.05887,-0.5131 -4.02587,-1.5393 -0.967,-1.03278 -1.4505,-2.45368 -1.4505,-4.2627 0,-1.76295 0.47363,-3.17069 1.4209,-4.22322 0.94726,-1.0525 2.21028,-1.57876 3.78906,-1.57877 1.40773,10e-6 2.51616,0.47693 3.32529,1.43076 0.81569,0.95385 1.22354,2.25634 1.22355,3.90747 m -1.81559,-0.53284 c -0.0263,-1.06566 -0.27958,-1.87478 -0.75978,-2.42736 -0.47365,-0.55914 -1.15778,-0.83872 -2.05241,-0.83873 -0.87491,1e-5 -1.59523,0.28945 -2.16095,0.86833 -0.56573,0.57889 -0.90122,1.38143 -1.00647,2.40763 l 5.97961,-0.01"
         style="font-size:20.2083168px;font-style:normal;font-variant:normal;font-weight:normal;font-stretch:normal;text-align:start;line-height:125%;writing-mode:lr-tb;text-anchor:start;font-family:DejaVu Sans Mono;-inkscape-font-specification:DejaVu Sans Mono"
         id="path4545" />
    </g>
    <rect
       style="opacity:0.35611512;fill:#95d3e4;fill-opacity:1;stroke:#7472c9;stroke-width:0.73345035;stroke-linecap:square;stroke-linejoin:bevel;stroke-miterlimit:4;stroke-opacity:1;stroke-dasharray:0.73345034, 0.73345034;stroke-dashoffset:0"
       id="rect3437"
       width="105.84238"
       height="192.10393"
       x="237.00482"
       y="387.66837" />
    <text
       xml:space="preserve"
       style="font-size:20.2083168px;font-style:normal;font-variant:normal;font-weight:normal;font-stretch:normal;text-align:start;line-height:125%;letter-spacing:0px;word-spacing:0px;writing-mode:lr-tb;text-anchor:start;fill:#95d3e4;fill-opacity:1;stroke:none;font-family:DejaVu Sans Mono;-inkscape-font-specification:DejaVu Sans Mono"
       x="325.76862"
       y="367.64767"
       id="text4494"
       sodipodi:linespacing="125%"><tspan
         sodipodi:role="line"
         x="325.76862"
         y="367.64767"
         id="tspan4496"><tspan
           x="325.76862"
           y="367.64767"
           id="tspan4498"
           style="fill:#95d3e4;fill-opacity:1">S</tspan></tspan></text>
    <rect
       style="opacity:0.35611512;fill:#48d358;fill-opacity:1;stroke:#7472c9;stroke-width:0.73345035;stroke-linecap:square;stroke-linejoin:bevel;stroke-miterlimit:4;stroke-opacity:1;stroke-dasharray:0.73345034, 0.73345034;stroke-dashoffset:0"
       id="rect4257"
       width="24.872961"
       height="177.286"
       x="272.99124"
       y="393.48972" />
    <rect
       style="opacity:0.35611512;fill:#d348d3;fill-opacity:1;stroke:#7472c9;stroke-width:0.73345035;stroke-linecap:square;stroke-linejoin:bevel;stroke-miterlimit:4;stroke-opacity:1;stroke-dasharray:0.73345034, 0.73345034;stroke-dashoffset:0"
       id="rect4257-3"
       width="24.872961"
       height="177.286"
       x="247.32443"
       y="393.7543" />
    <path
       style="fill:none;stroke:#000000;stroke-width:1.04778624px;stroke-linecap:butt;stroke-linejoin:miter;stroke-opacity:1;marker-end:url(#marker3205)"
       d="m 323.53097,366.49988 c -6.07885,3.5388 -9.17621,9.89201 -8.20278,19.05164"
       id="path4279"
       inkscape:connector-curvature="0"
       sodipodi:nodetypes="cc" />
    <text
       xml:space="preserve"
       style="font-size:20.2083168px;font-style:normal;font-variant:normal;font-weight:normal;font-stretch:normal;text-align:start;line-height:125%;letter-spacing:0px;word-spacing:0px;writing-mode:lr-tb;text-anchor:start;fill:#48d358;fill-opacity:1;stroke:none;font-family:DejaVu Sans Mono;-inkscape-font-specification:DejaVu Sans Mono"
       x="264.35181"
       y="364.24716"
       id="text4494-4"
       sodipodi:linespacing="125%"><tspan
         sodipodi:role="line"
         x="264.35181"
         y="364.24716"
         id="tspan4496-4"><tspan
           x="264.35181"
           y="364.24716"
           id="tspan4498-9"
           style="fill:#48d358;fill-opacity:1">S<tspan
   style="font-size:13.13559151px;baseline-shift:sub;fill:#48d358;fill-opacity:1"
   id="tspan4524">2:4</tspan></tspan></tspan></text>
    <text
       xml:space="preserve"
       style="font-size:20.2083168px;font-style:normal;font-variant:normal;font-weight:normal;font-stretch:normal;text-align:start;line-height:125%;letter-spacing:0px;word-spacing:0px;writing-mode:lr-tb;text-anchor:start;fill:#d348d3;fill-opacity:1;stroke:none;font-family:DejaVu Sans Mono;-inkscape-font-specification:DejaVu Sans Mono"
       x="222.3127"
       y="366.05508"
       id="text4494-4-2"
       sodipodi:linespacing="125%"><tspan
         sodipodi:role="line"
         x="222.3127"
         y="366.05508"
         id="tspan4496-4-2"><tspan
           x="222.3127"
           y="366.05508"
           id="tspan4498-9-1"
           style="fill:#d348d3;fill-opacity:1">S<tspan
   style="font-size:13.13559151px;baseline-shift:sub;fill:#d348d3;fill-opacity:1"
   id="tspan4524-4">2</tspan></tspan></tspan></text>
    <path
       style="fill:none;stroke:#000000;stroke-width:1.12504303px;stroke-linecap:butt;stroke-linejoin:miter;stroke-opacity:1;marker-end:url(#marker3205)"
       d="m 281.46944,370.5796 0.77706,20.87973"
       id="path4553"
       inkscape:connector-curvature="0" />
    <path
       style="fill:none;stroke:#000000;stroke-width:1.04778624px;stroke-linecap:butt;stroke-linejoin:miter;stroke-opacity:1;marker-end:url(#marker3205)"
       d="m 243.09076,365.44146 c 8.22012,4.58363 13.0339,12.88327 13.4949,25.93139"
       id="path4749"
       inkscape:connector-curvature="0"
       sodipodi:nodetypes="cc" />
    <text
       xml:space="preserve"
       style="font-size:20.2083168px;font-style:normal;font-variant:normal;font-weight:normal;font-stretch:normal;text-align:start;line-height:125%;letter-spacing:0px;word-spacing:0px;writing-mode:lr-tb;text-anchor:start;fill:#000000;fill-opacity:1;stroke:none;font-family:DejaVu Sans Mono;-inkscape-font-specification:DejaVu Sans Mono"
       x="143.16512"
       y="367.67154"
       id="text4953"
       sodipodi:linespacing="125%"><tspan
         sodipodi:role="line"
         x="143.16512"
         y="367.67154"
         id="tspan4955"><tspan
           x="143.16512"
           y="367.67154"
           id="tspan4957">SA</tspan></tspan></text>
    <path
       style="fill:none;stroke:#000000;stroke-width:1.04778624px;stroke-linecap:butt;stroke-linejoin:miter;stroke-opacity:1;marker-end:url(#marker3205)"
       d="m 161.11313,369.24301 c 9.84926,2.99861 16.20009,9.49563 16.09101,22.45256"
       id="path4959"
       inkscape:connector-curvature="0"
       sodipodi:nodetypes="cc" />
    <rect
       style="fill:#271f89;fill-opacity:0.23529412;stroke:#111320;stroke-width:0.40508685;stroke-linecap:square;stroke-linejoin:bevel;stroke-miterlimit:4;stroke-opacity:1;stroke-dasharray:none;stroke-dashoffset:0"
       id="rect3021-8-7"
       width="23.789963"
       height="179.61256"
       x="427.24799"
       y="393.80099" />
    <g
       style="font-size:20.2083168px;font-style:normal;font-variant:normal;font-weight:normal;font-stretch:normal;text-align:start;line-height:125%;letter-spacing:0px;word-spacing:0px;writing-mode:lr-tb;text-anchor:start;fill:#000000;fill-opacity:1;stroke:none;font-family:DejaVu Sans Mono;-inkscape-font-specification:DejaVu Sans Mono"
       id="text9656-6">
      <path
         d="m 508.75632,400.98431 0,1.77612 c -0.51969,-0.30259 -1.04266,-0.52953 -1.56891,-0.68084 -0.52626,-0.15129 -1.06239,-0.22694 -1.60837,-0.22695 -0.82229,10e-6 -1.43735,0.13486 -1.8452,0.40456 -0.40127,0.26314 -0.60191,0.6677 -0.60191,1.21368 0,0.49338 0.1513,0.86176 0.4539,1.10515 0.3026,0.2434 1.0558,0.48021 2.25962,0.71044 l 0.73019,0.13815 c 0.90121,0.17104 1.58205,0.5131 2.04254,1.0262 0.46704,0.51311 0.70057,1.1808 0.70058,2.00307 -10e-6,1.09199 -0.38813,1.94716 -1.16435,2.56551 -0.77624,0.61177 -1.85507,0.91766 -3.23649,0.91766 -0.54599,0 -1.1183,-0.0592 -1.71691,-0.17761 -0.59863,-0.11183 -1.24658,-0.28286 -1.94387,-0.5131 l 0,-1.8748 c 0.67755,0.34865 1.32551,0.61178 1.94387,0.78939 0.61834,0.17104 1.20381,0.25655 1.75638,0.25655 0.80254,0 1.42418,-0.16116 1.86493,-0.4835 0.44073,-0.32891 0.6611,-0.78609 0.66111,-1.37156 -10e-6,-0.84201 -0.80584,-1.42418 -2.4175,-1.74652 l -0.0789,-0.0197 -0.68084,-0.13815 c -1.04594,-0.20392 -1.80902,-0.54598 -2.28923,-1.0262 -0.48021,-0.48678 -0.72031,-1.14789 -0.72031,-1.98334 0,-1.05908 0.35851,-1.87478 1.07554,-2.4471 0.71702,-0.57887 1.73994,-0.86831 3.06874,-0.86832 0.59204,10e-6 1.16105,0.0559 1.70705,0.16774 0.54599,0.10527 1.08211,0.26643 1.60838,0.4835"
         style="font-size:20.2083168px;font-style:normal;font-variant:normal;font-weight:normal;font-stretch:normal;text-align:start;line-height:125%;writing-mode:lr-tb;text-anchor:start;font-family:DejaVu Sans Mono;-inkscape-font-specification:DejaVu Sans Mono"
         id="path4434" />
      <path
         d="m 521.78121,411.08847 c -0.4868,0.28287 -0.99003,0.49337 -1.5097,0.63151 -0.51311,0.14472 -1.03937,0.21708 -1.57878,0.21708 -1.71034,0 -3.04901,-0.5131 -4.01601,-1.5393 -0.96042,-1.0262 -1.44063,-2.4471 -1.44063,-4.26269 0,-1.81559 0.48021,-3.23648 1.44063,-4.2627 0.967,-1.02619 2.30567,-1.53929 4.01601,-1.5393 0.53283,10e-6 1.05251,0.0691 1.55904,0.20721 0.50652,0.13816 1.01633,0.35195 1.52944,0.64138 l 0,1.9044 c -0.48022,-0.42758 -0.96372,-0.73676 -1.4505,-0.92753 -0.48022,-0.19076 -1.02621,-0.28615 -1.63798,-0.28616 -1.13804,1e-5 -2.01294,0.36839 -2.62471,1.10515 -0.61178,0.73677 -0.91767,1.78928 -0.91766,3.15755 -10e-6,1.36169 0.30588,2.41421 0.91766,3.15754 0.61835,0.73677 1.49325,1.10515 2.62471,1.10515 0.63151,0 1.19723,-0.0954 1.69719,-0.28616 0.49993,-0.19734 0.9637,-0.49994 1.39129,-0.90779 l 0,1.88466"
         style="font-size:20.2083168px;font-style:normal;font-variant:normal;font-weight:normal;font-stretch:normal;text-align:start;line-height:125%;writing-mode:lr-tb;text-anchor:start;font-family:DejaVu Sans Mono;-inkscape-font-specification:DejaVu Sans Mono"
         id="path4436" />
      <path
         d="m 525.99457,400.59949 4.64751,0 0,9.64039 3.60158,0 0,1.41103 -9.01875,0 0,-1.41103 3.60158,0 0,-8.22936 -2.83192,0 0,-1.41103 m 2.83192,-4.30217 1.81559,0 0,2.2991 -1.81559,0 0,-2.2991"
         style="font-size:20.2083168px;font-style:normal;font-variant:normal;font-weight:normal;font-stretch:normal;text-align:start;line-height:125%;writing-mode:lr-tb;text-anchor:start;font-family:DejaVu Sans Mono;-inkscape-font-specification:DejaVu Sans Mono"
         id="path4438" />
      <path
         d="m 546.59758,405.6713 0,0.88806 -7.86428,0 0,0.0592 c 0,1.20382 0.31247,2.13464 0.9374,2.79246 0.63151,0.65783 1.51957,0.98674 2.66418,0.98674 0.57888,0 1.18408,-0.0921 1.8156,-0.27629 0.6315,-0.18419 1.30576,-0.46376 2.0228,-0.83872 l 0,1.80572 c -0.69072,0.28287 -1.35841,0.49337 -2.00307,0.63151 -0.6381,0.14472 -1.25645,0.21708 -1.85506,0.21708 -1.71692,0 -3.05888,-0.5131 -4.02588,-1.5393 -0.967,-1.03278 -1.4505,-2.45368 -1.4505,-4.26269 0,-1.76296 0.47364,-3.1707 1.4209,-4.22323 0.94726,-1.0525 2.21028,-1.57876 3.78906,-1.57877 1.40773,10e-6 2.51616,0.47693 3.3253,1.43076 0.81569,0.95385 1.22354,2.25634 1.22355,3.90747 m -1.81559,-0.53284 c -0.0263,-1.06566 -0.27959,-1.87478 -0.75979,-2.42736 -0.47364,-0.55914 -1.15778,-0.83872 -2.05241,-0.83873 -0.87491,1e-5 -1.59522,0.28945 -2.16095,0.86833 -0.56573,0.57889 -0.90122,1.38143 -1.00646,2.40763 l 5.97961,-0.01"
         style="font-size:20.2083168px;font-style:normal;font-variant:normal;font-weight:normal;font-stretch:normal;text-align:start;line-height:125%;writing-mode:lr-tb;text-anchor:start;font-family:DejaVu Sans Mono;-inkscape-font-specification:DejaVu Sans Mono"
         id="path4440" />
      <path
         d="m 558.15223,404.80297 0,6.84794 -1.82545,0 0,-6.84794 c -10e-6,-0.9933 -0.17433,-1.72348 -0.52297,-2.19055 -0.34866,-0.46704 -0.89465,-0.70057 -1.63798,-0.70058 -0.8486,1e-5 -1.50313,0.30261 -1.9636,0.9078 -0.4539,0.59863 -0.68085,1.46037 -0.68085,2.58524 l 0,6.24603 -1.81559,0 0,-11.05142 1.81559,0 0,1.65771 c 0.32233,-0.6315 0.75978,-1.10842 1.31236,-1.43076 0.55256,-0.32891 1.2071,-0.49336 1.9636,-0.49337 1.12487,10e-6 1.96359,0.37168 2.51617,1.11501 0.55914,0.73677 0.83871,1.85507 0.83872,3.35489"
         style="font-size:20.2083168px;font-style:normal;font-variant:normal;font-weight:normal;font-stretch:normal;text-align:start;line-height:125%;writing-mode:lr-tb;text-anchor:start;font-family:DejaVu Sans Mono;-inkscape-font-specification:DejaVu Sans Mono"
         id="path4442" />
      <path
         d="m 570.40747,411.08847 c -0.48679,0.28287 -0.99003,0.49337 -1.5097,0.63151 -0.51311,0.14472 -1.03937,0.21708 -1.57877,0.21708 -1.71035,0 -3.04902,-0.5131 -4.01601,-1.5393 -0.96043,-1.0262 -1.44064,-2.4471 -1.44063,-4.26269 -10e-6,-1.81559 0.4802,-3.23648 1.44063,-4.2627 0.96699,-1.02619 2.30566,-1.53929 4.01601,-1.5393 0.53283,10e-6 1.0525,0.0691 1.55904,0.20721 0.50651,0.13816 1.01632,0.35195 1.52943,0.64138 l 0,1.9044 c -0.48022,-0.42758 -0.96372,-0.73676 -1.45049,-0.92753 -0.48022,-0.19076 -1.02622,-0.28615 -1.63798,-0.28616 -1.13804,1e-5 -2.01295,0.36839 -2.62472,1.10515 -0.61178,0.73677 -0.91766,1.78928 -0.91766,3.15755 0,1.36169 0.30588,2.41421 0.91766,3.15754 0.61835,0.73677 1.49326,1.10515 2.62472,1.10515 0.6315,0 1.19723,-0.0954 1.69718,-0.28616 0.49994,-0.19734 0.9637,-0.49994 1.39129,-0.90779 l 0,1.88466"
         style="font-size:20.2083168px;font-style:normal;font-variant:normal;font-weight:normal;font-stretch:normal;text-align:start;line-height:125%;writing-mode:lr-tb;text-anchor:start;font-family:DejaVu Sans Mono;-inkscape-font-specification:DejaVu Sans Mono"
         id="path4444" />
      <path
         d="m 583.06727,405.6713 0,0.88806 -7.86427,0 0,0.0592 c 0,1.20382 0.31246,2.13464 0.9374,2.79246 0.6315,0.65783 1.51956,0.98674 2.66418,0.98674 0.57888,0 1.18407,-0.0921 1.81559,-0.27629 0.6315,-0.18419 1.30577,-0.46376 2.02281,-0.83872 l 0,1.80572 c -0.69073,0.28287 -1.35842,0.49337 -2.00307,0.63151 -0.6381,0.14472 -1.25645,0.21708 -1.85506,0.21708 -1.71693,0 -3.05888,-0.5131 -4.02588,-1.5393 -0.967,-1.03278 -1.4505,-2.45368 -1.4505,-4.26269 0,-1.76296 0.47363,-3.1707 1.4209,-4.22323 0.94726,-1.0525 2.21028,-1.57876 3.78906,-1.57877 1.40773,10e-6 2.51616,0.47693 3.32529,1.43076 0.81569,0.95385 1.22354,2.25634 1.22355,3.90747 m -1.81559,-0.53284 c -0.0263,-1.06566 -0.27958,-1.87478 -0.75978,-2.42736 -0.47364,-0.55914 -1.15778,-0.83872 -2.05241,-0.83873 -0.87491,1e-5 -1.59523,0.28945 -2.16095,0.86833 -0.56573,0.57889 -0.90122,1.38143 -1.00647,2.40763 l 5.97961,-0.01"
         style="font-size:20.2083168px;font-style:normal;font-variant:normal;font-weight:normal;font-stretch:normal;text-align:start;line-height:125%;writing-mode:lr-tb;text-anchor:start;font-family:DejaVu Sans Mono;-inkscape-font-specification:DejaVu Sans Mono"
         id="path4446" />
      <path
         d="m 509.62465,436.34882 c -0.4868,0.28286 -0.99004,0.49336 -1.50971,0.63151 -0.51311,0.14472 -1.03937,0.21708 -1.57877,0.21708 -1.71035,0 -3.04902,-0.5131 -4.01601,-1.53931 -0.96042,-1.0262 -1.44063,-2.44709 -1.44063,-4.26269 0,-1.81558 0.48021,-3.23648 1.44063,-4.26269 0.96699,-1.02619 2.30566,-1.5393 4.01601,-1.53931 0.53283,10e-6 1.05251,0.0691 1.55904,0.20722 0.50651,0.13815 1.01632,0.35194 1.52944,0.64137 l 0,1.9044 c -0.48023,-0.42757 -0.96372,-0.73675 -1.4505,-0.92753 -0.48022,-0.19076 -1.02622,-0.28614 -1.63798,-0.28615 -1.13804,10e-6 -2.01295,0.36839 -2.62472,1.10514 -0.61177,0.73677 -0.91766,1.78929 -0.91766,3.15755 0,1.3617 0.30589,2.41421 0.91766,3.15755 0.61835,0.73676 1.49326,1.10514 2.62472,1.10514 0.6315,0 1.19723,-0.0954 1.69718,-0.28615 0.49994,-0.19735 0.9637,-0.49994 1.3913,-0.9078 l 0,1.88467"
         style="font-size:20.2083168px;font-style:normal;font-variant:normal;font-weight:normal;font-stretch:normal;text-align:start;line-height:125%;writing-mode:lr-tb;text-anchor:start;font-family:DejaVu Sans Mono;-inkscape-font-specification:DejaVu Sans Mono"
         id="path4448" />
      <path
         d="m 513.838,425.85983 4.64752,0 0,9.64039 3.60158,0 0,1.41103 -9.01875,0 0,-1.41103 3.60158,0 0,-8.22936 -2.83193,0 0,-1.41103 m 2.83193,-4.30216 1.81559,0 0,2.29909 -1.81559,0 0,-2.29909"
         style="font-size:20.2083168px;font-style:normal;font-variant:normal;font-weight:normal;font-stretch:normal;text-align:start;line-height:125%;writing-mode:lr-tb;text-anchor:start;font-family:DejaVu Sans Mono;-inkscape-font-specification:DejaVu Sans Mono"
         id="path4450" />
      <path
         d="m 534.44101,430.93165 0,0.88806 -7.86427,0 0,0.0592 c 0,1.20382 0.31246,2.13464 0.9374,2.79246 0.6315,0.65782 1.51956,0.98673 2.66418,0.98673 0.57888,0 1.18407,-0.0921 1.81559,-0.27628 0.6315,-0.18419 1.30577,-0.46377 2.02281,-0.83873 l 0,1.80573 c -0.69073,0.28286 -1.35842,0.49336 -2.00307,0.63151 -0.6381,0.14472 -1.25645,0.21708 -1.85507,0.21708 -1.71692,0 -3.05887,-0.5131 -4.02587,-1.53931 -0.967,-1.03278 -1.4505,-2.45367 -1.4505,-4.26269 0,-1.76296 0.47363,-3.1707 1.4209,-4.22322 0.94726,-1.05251 2.21028,-1.57877 3.78906,-1.57878 1.40773,10e-6 2.51616,0.47694 3.32529,1.43077 0.81569,0.95385 1.22354,2.25634 1.22355,3.90747 m -1.81559,-0.53284 c -0.0263,-1.06567 -0.27958,-1.87479 -0.75978,-2.42737 -0.47365,-0.55914 -1.15778,-0.83871 -2.05241,-0.83872 -0.87491,10e-6 -1.59523,0.28945 -2.16095,0.86832 -0.56573,0.5789 -0.90122,1.38144 -1.00647,2.40764 l 5.97961,-0.01"
         style="font-size:20.2083168px;font-style:normal;font-variant:normal;font-weight:normal;font-stretch:normal;text-align:start;line-height:125%;writing-mode:lr-tb;text-anchor:start;font-family:DejaVu Sans Mono;-inkscape-font-specification:DejaVu Sans Mono"
         id="path4452" />
      <path
         d="m 545.99567,430.06332 0,6.84793 -1.82546,0 0,-6.84793 c -10e-6,-0.99331 -0.17433,-1.72349 -0.52297,-2.19055 -0.34865,-0.46705 -0.89465,-0.70057 -1.63798,-0.70058 -0.8486,10e-6 -1.50313,0.30261 -1.9636,0.90779 -0.4539,0.59863 -0.68085,1.46038 -0.68085,2.58525 l 0,6.24602 -1.81559,0 0,-11.05142 1.81559,0 0,1.65772 c 0.32233,-0.6315 0.75979,-1.10843 1.31236,-1.43077 0.55257,-0.3289 1.2071,-0.49336 1.9636,-0.49337 1.12487,10e-6 1.96359,0.37168 2.51617,1.11501 0.55914,0.73677 0.83872,1.85507 0.83873,3.3549"
         style="font-size:20.2083168px;font-style:normal;font-variant:normal;font-weight:normal;font-stretch:normal;text-align:start;line-height:125%;writing-mode:lr-tb;text-anchor:start;font-family:DejaVu Sans Mono;-inkscape-font-specification:DejaVu Sans Mono"
         id="path4454" />
      <path
         d="m 558.25091,436.34882 c -0.4868,0.28286 -0.99003,0.49336 -1.50971,0.63151 -0.51311,0.14472 -1.03936,0.21708 -1.57877,0.21708 -1.71034,0 -3.04901,-0.5131 -4.01601,-1.53931 -0.96042,-1.0262 -1.44063,-2.44709 -1.44063,-4.26269 0,-1.81558 0.48021,-3.23648 1.44063,-4.26269 0.967,-1.02619 2.30567,-1.5393 4.01601,-1.53931 0.53283,10e-6 1.05251,0.0691 1.55904,0.20722 0.50651,0.13815 1.01633,0.35194 1.52944,0.64137 l 0,1.9044 c -0.48022,-0.42757 -0.96372,-0.73675 -1.4505,-0.92753 -0.48022,-0.19076 -1.02621,-0.28614 -1.63798,-0.28615 -1.13804,10e-6 -2.01294,0.36839 -2.62471,1.10514 -0.61178,0.73677 -0.91767,1.78929 -0.91767,3.15755 0,1.3617 0.30589,2.41421 0.91767,3.15755 0.61835,0.73676 1.49325,1.10514 2.62471,1.10514 0.6315,0 1.19723,-0.0954 1.69718,-0.28615 0.49994,-0.19735 0.9637,-0.49994 1.3913,-0.9078 l 0,1.88467"
         style="font-size:20.2083168px;font-style:normal;font-variant:normal;font-weight:normal;font-stretch:normal;text-align:start;line-height:125%;writing-mode:lr-tb;text-anchor:start;font-family:DejaVu Sans Mono;-inkscape-font-specification:DejaVu Sans Mono"
         id="path4456" />
      <path
         d="m 570.91071,430.93165 0,0.88806 -7.86427,0 0,0.0592 c -10e-6,1.20382 0.31246,2.13464 0.9374,2.79246 0.6315,0.65782 1.51956,0.98673 2.66418,0.98673 0.57887,0 1.18407,-0.0921 1.81559,-0.27628 0.6315,-0.18419 1.30577,-0.46377 2.0228,-0.83873 l 0,1.80573 c -0.69072,0.28286 -1.35841,0.49336 -2.00307,0.63151 -0.63809,0.14472 -1.25645,0.21708 -1.85506,0.21708 -1.71692,0 -3.05888,-0.5131 -4.02587,-1.53931 -0.967,-1.03278 -1.4505,-2.45367 -1.4505,-4.26269 0,-1.76296 0.47363,-3.1707 1.4209,-4.22322 0.94726,-1.05251 2.21027,-1.57877 3.78905,-1.57878 1.40774,10e-6 2.51617,0.47694 3.3253,1.43077 0.81569,0.95385 1.22354,2.25634 1.22355,3.90747 m -1.81559,-0.53284 c -0.0263,-1.06567 -0.27959,-1.87479 -0.75979,-2.42737 -0.47364,-0.55914 -1.15777,-0.83871 -2.0524,-0.83872 -0.87491,10e-6 -1.59523,0.28945 -2.16095,0.86832 -0.56573,0.5789 -0.90122,1.38144 -1.00647,2.40764 l 5.97961,-0.01"
         style="font-size:20.2083168px;font-style:normal;font-variant:normal;font-weight:normal;font-stretch:normal;text-align:start;line-height:125%;writing-mode:lr-tb;text-anchor:start;font-family:DejaVu Sans Mono;-inkscape-font-specification:DejaVu Sans Mono"
         id="path4458" />
      <path
         d="m 501.68144,451.12021 4.64751,0 0,9.64039 3.60158,0 0,1.41103 -9.01875,0 0,-1.41103 3.60158,0 0,-8.22936 -2.83192,0 0,-1.41103 m 2.83192,-4.30216 1.81559,0 0,2.29909 -1.81559,0 0,-2.29909"
         style="font-size:20.2083168px;font-style:normal;font-variant:normal;font-weight:normal;font-stretch:normal;text-align:start;line-height:125%;writing-mode:lr-tb;text-anchor:start;font-family:DejaVu Sans Mono;-inkscape-font-specification:DejaVu Sans Mono"
         id="path4460" />
      <path
         d="m 522.28445,456.19202 0,0.88806 -7.86428,0 0,0.0592 c 0,1.20382 0.31247,2.13463 0.9374,2.79245 0.63151,0.65783 1.51957,0.98674 2.66418,0.98674 0.57888,0 1.18408,-0.0921 1.81559,-0.27629 0.63151,-0.18419 1.30577,-0.46376 2.02281,-0.83872 l 0,1.80572 c -0.69072,0.28287 -1.35841,0.49337 -2.00307,0.63151 -0.6381,0.14472 -1.25645,0.21708 -1.85506,0.21708 -1.71692,0 -3.05888,-0.5131 -4.02588,-1.5393 -0.967,-1.03278 -1.4505,-2.45368 -1.4505,-4.26269 0,-1.76296 0.47364,-3.1707 1.4209,-4.22323 0.94726,-1.0525 2.21028,-1.57876 3.78906,-1.57877 1.40773,10e-6 2.51616,0.47693 3.3253,1.43076 0.81568,0.95386 1.22353,2.25634 1.22355,3.90747 m -1.8156,-0.53283 c -0.0263,-1.06567 -0.27958,-1.87479 -0.75978,-2.42737 -0.47364,-0.55914 -1.15778,-0.83872 -2.05241,-0.83873 -0.87491,1e-5 -1.59522,0.28946 -2.16095,0.86833 -0.56573,0.57889 -0.90122,1.38144 -1.00646,2.40763 l 5.9796,-0.01"
         style="font-size:20.2083168px;font-style:normal;font-variant:normal;font-weight:normal;font-stretch:normal;text-align:start;line-height:125%;writing-mode:lr-tb;text-anchor:start;font-family:DejaVu Sans Mono;-inkscape-font-specification:DejaVu Sans Mono"
         id="path4462" />
      <path
         d="m 533.8391,455.3237 0,6.84793 -1.82545,0 0,-6.84793 c -10e-6,-0.99331 -0.17434,-1.72349 -0.52297,-2.19055 -0.34866,-0.46705 -0.89465,-0.70058 -1.63798,-0.70059 -0.8486,10e-6 -1.50313,0.30261 -1.9636,0.9078 -0.45391,0.59863 -0.68085,1.46037 -0.68085,2.58524 l 0,6.24603 -1.81559,0 0,-11.05142 1.81559,0 0,1.65771 c 0.32233,-0.6315 0.75978,-1.10842 1.31236,-1.43076 0.55256,-0.3289 1.20709,-0.49336 1.9636,-0.49337 1.12487,10e-6 1.96359,0.37168 2.51617,1.11501 0.55914,0.73677 0.83871,1.85507 0.83872,3.3549"
         style="font-size:20.2083168px;font-style:normal;font-variant:normal;font-weight:normal;font-stretch:normal;text-align:start;line-height:125%;writing-mode:lr-tb;text-anchor:start;font-family:DejaVu Sans Mono;-inkscape-font-specification:DejaVu Sans Mono"
         id="path4464" />
      <path
         d="m 546.09434,461.60919 c -0.4868,0.28287 -0.99003,0.49337 -1.5097,0.63151 -0.51311,0.14472 -1.03937,0.21708 -1.57878,0.21708 -1.71034,0 -3.04901,-0.5131 -4.016,-1.5393 -0.96043,-1.0262 -1.44064,-2.4471 -1.44064,-4.26269 0,-1.81559 0.48021,-3.23648 1.44064,-4.2627 0.96699,-1.02619 2.30566,-1.53929 4.016,-1.5393 0.53283,10e-6 1.05251,0.0691 1.55904,0.20721 0.50652,0.13816 1.01633,0.35195 1.52944,0.64138 l 0,1.9044 c -0.48022,-0.42758 -0.96372,-0.73675 -1.4505,-0.92753 -0.48022,-0.19076 -1.02621,-0.28615 -1.63798,-0.28616 -1.13804,1e-5 -2.01294,0.36839 -2.62471,1.10515 -0.61178,0.73677 -0.91767,1.78928 -0.91766,3.15755 -10e-6,1.36169 0.30588,2.41421 0.91766,3.15755 0.61835,0.73676 1.49325,1.10514 2.62471,1.10514 0.63151,0 1.19723,-0.0954 1.69719,-0.28615 0.49993,-0.19735 0.9637,-0.49995 1.39129,-0.9078 l 0,1.88466"
         style="font-size:20.2083168px;font-style:normal;font-variant:normal;font-weight:normal;font-stretch:normal;text-align:start;line-height:125%;writing-mode:lr-tb;text-anchor:start;font-family:DejaVu Sans Mono;-inkscape-font-specification:DejaVu Sans Mono"
         id="path4466" />
      <path
         d="m 558.75414,456.19202 0,0.88806 -7.86427,0 0,0.0592 c 0,1.20382 0.31246,2.13463 0.9374,2.79245 0.6315,0.65783 1.51956,0.98674 2.66418,0.98674 0.57888,0 1.18407,-0.0921 1.81559,-0.27629 0.6315,-0.18419 1.30577,-0.46376 2.02281,-0.83872 l 0,1.80572 c -0.69073,0.28287 -1.35842,0.49337 -2.00307,0.63151 -0.6381,0.14472 -1.25645,0.21708 -1.85506,0.21708 -1.71693,0 -3.05888,-0.5131 -4.02588,-1.5393 -0.967,-1.03278 -1.4505,-2.45368 -1.4505,-4.26269 0,-1.76296 0.47363,-3.1707 1.4209,-4.22323 0.94726,-1.0525 2.21028,-1.57876 3.78906,-1.57877 1.40773,10e-6 2.51616,0.47693 3.32529,1.43076 0.81569,0.95386 1.22354,2.25634 1.22355,3.90747 m -1.81559,-0.53283 c -0.0263,-1.06567 -0.27958,-1.87479 -0.75978,-2.42737 -0.47364,-0.55914 -1.15778,-0.83872 -2.05241,-0.83873 -0.87491,1e-5 -1.59523,0.28946 -2.16095,0.86833 -0.56573,0.57889 -0.90122,1.38144 -1.00647,2.40763 l 5.97961,-0.01"
         style="font-size:20.2083168px;font-style:normal;font-variant:normal;font-weight:normal;font-stretch:normal;text-align:start;line-height:125%;writing-mode:lr-tb;text-anchor:start;font-family:DejaVu Sans Mono;-inkscape-font-specification:DejaVu Sans Mono"
         id="path4468" />
      <path
         d="m 510.12788,481.45246 0,0.88806 -7.86427,0 0,0.0592 c 0,1.20382 0.31246,2.13464 0.9374,2.79246 0.6315,0.65783 1.51956,0.98674 2.66418,0.98674 0.57887,0 1.18407,-0.0921 1.81559,-0.27629 0.6315,-0.18419 1.30577,-0.46376 2.0228,-0.83872 l 0,1.80572 c -0.69072,0.28286 -1.35841,0.49337 -2.00307,0.63151 -0.63809,0.14472 -1.25645,0.21708 -1.85506,0.21708 -1.71692,0 -3.05888,-0.5131 -4.02587,-1.5393 -0.967,-1.03278 -1.4505,-2.45368 -1.4505,-4.2627 0,-1.76295 0.47363,-3.17069 1.4209,-4.22322 0.94726,-1.0525 2.21028,-1.57876 3.78906,-1.57877 1.40773,10e-6 2.51616,0.47693 3.32529,1.43076 0.81569,0.95385 1.22354,2.25634 1.22355,3.90747 m -1.81559,-0.53284 c -0.0263,-1.06566 -0.27958,-1.87478 -0.75979,-2.42736 -0.47364,-0.55914 -1.15777,-0.83872 -2.0524,-0.83873 -0.87491,1e-5 -1.59523,0.28945 -2.16095,0.86833 -0.56573,0.57889 -0.90122,1.38143 -1.00647,2.40763 l 5.97961,-0.01"
         style="font-size:20.2083168px;font-style:normal;font-variant:normal;font-weight:normal;font-stretch:normal;text-align:start;line-height:125%;writing-mode:lr-tb;text-anchor:start;font-family:DejaVu Sans Mono;-inkscape-font-specification:DejaVu Sans Mono"
         id="path4470" />
      <path
         d="m 521.68254,480.58413 0,6.84794 -1.82546,0 0,-6.84794 c -10e-6,-0.9933 -0.17433,-1.72348 -0.52297,-2.19055 -0.34865,-0.46704 -0.89465,-0.70057 -1.63798,-0.70058 -0.8486,1e-5 -1.50313,0.30261 -1.9636,0.9078 -0.4539,0.59862 -0.68085,1.46037 -0.68085,2.58524 l 0,6.24603 -1.81559,0 0,-11.05143 1.81559,0 0,1.65772 c 0.32233,-0.6315 0.75978,-1.10842 1.31236,-1.43077 0.55257,-0.3289 1.2071,-0.49335 1.9636,-0.49336 1.12487,10e-6 1.96359,0.37168 2.51617,1.11501 0.55914,0.73677 0.83872,1.85506 0.83873,3.35489"
         style="font-size:20.2083168px;font-style:normal;font-variant:normal;font-weight:normal;font-stretch:normal;text-align:start;line-height:125%;writing-mode:lr-tb;text-anchor:start;font-family:DejaVu Sans Mono;-inkscape-font-specification:DejaVu Sans Mono"
         id="path4472" />
      <path
         d="m 533.93778,486.86963 c -0.4868,0.28286 -0.99004,0.49337 -1.50971,0.63151 -0.51311,0.14472 -1.03936,0.21708 -1.57877,0.21708 -1.71035,0 -3.04901,-0.5131 -4.01601,-1.5393 -0.96042,-1.02621 -1.44063,-2.4471 -1.44063,-4.2627 0,-1.81558 0.48021,-3.23648 1.44063,-4.26269 0.967,-1.02619 2.30566,-1.53929 4.01601,-1.5393 0.53283,10e-6 1.05251,0.0691 1.55904,0.20721 0.50651,0.13815 1.01633,0.35195 1.52944,0.64138 l 0,1.90439 c -0.48022,-0.42757 -0.96372,-0.73675 -1.4505,-0.92753 -0.48022,-0.19075 -1.02621,-0.28614 -1.63798,-0.28615 -1.13804,1e-5 -2.01294,0.36839 -2.62471,1.10514 -0.61178,0.73677 -0.91767,1.78929 -0.91767,3.15755 0,1.3617 0.30589,2.41422 0.91767,3.15755 0.61834,0.73677 1.49325,1.10515 2.62471,1.10515 0.6315,0 1.19723,-0.0954 1.69718,-0.28616 0.49994,-0.19734 0.9637,-0.49994 1.3913,-0.90779 l 0,1.88466"
         style="font-size:20.2083168px;font-style:normal;font-variant:normal;font-weight:normal;font-stretch:normal;text-align:start;line-height:125%;writing-mode:lr-tb;text-anchor:start;font-family:DejaVu Sans Mono;-inkscape-font-specification:DejaVu Sans Mono"
         id="path4474" />
      <path
         d="m 546.59758,481.45246 0,0.88806 -7.86428,0 0,0.0592 c 0,1.20382 0.31247,2.13464 0.9374,2.79246 0.63151,0.65783 1.51957,0.98674 2.66418,0.98674 0.57888,0 1.18408,-0.0921 1.8156,-0.27629 0.6315,-0.18419 1.30576,-0.46376 2.0228,-0.83872 l 0,1.80572 c -0.69072,0.28286 -1.35841,0.49337 -2.00307,0.63151 -0.6381,0.14472 -1.25645,0.21708 -1.85506,0.21708 -1.71692,0 -3.05888,-0.5131 -4.02588,-1.5393 -0.967,-1.03278 -1.4505,-2.45368 -1.4505,-4.2627 0,-1.76295 0.47364,-3.17069 1.4209,-4.22322 0.94726,-1.0525 2.21028,-1.57876 3.78906,-1.57877 1.40773,10e-6 2.51616,0.47693 3.3253,1.43076 0.81569,0.95385 1.22354,2.25634 1.22355,3.90747 m -1.81559,-0.53284 c -0.0263,-1.06566 -0.27959,-1.87478 -0.75979,-2.42736 -0.47364,-0.55914 -1.15778,-0.83872 -2.05241,-0.83873 -0.87491,1e-5 -1.59522,0.28945 -2.16095,0.86833 -0.56573,0.57889 -0.90122,1.38143 -1.00646,2.40763 l 5.97961,-0.01"
         style="font-size:20.2083168px;font-style:normal;font-variant:normal;font-weight:normal;font-stretch:normal;text-align:start;line-height:125%;writing-mode:lr-tb;text-anchor:start;font-family:DejaVu Sans Mono;-inkscape-font-specification:DejaVu Sans Mono"
         id="path4476" />
      <path
         d="m 509.52597,505.84457 0,6.84793 -1.82546,0 0,-6.84793 c 0,-0.99331 -0.17433,-1.72349 -0.52297,-2.19055 -0.34865,-0.46705 -0.89464,-0.70057 -1.63797,-0.70058 -0.8486,10e-6 -1.50313,0.30261 -1.96361,0.90779 -0.4539,0.59863 -0.68085,1.46038 -0.68084,2.58525 l 0,6.24602 -1.81559,0 0,-11.05142 1.81559,0 0,1.65772 c 0.32233,-0.6315 0.75978,-1.10843 1.31235,-1.43077 0.55257,-0.3289 1.2071,-0.49336 1.96361,-0.49337 1.12486,10e-6 1.96359,0.37168 2.51617,1.11501 0.55914,0.73677 0.83871,1.85507 0.83872,3.3549"
         style="font-size:20.2083168px;font-style:normal;font-variant:normal;font-weight:normal;font-stretch:normal;text-align:start;line-height:125%;writing-mode:lr-tb;text-anchor:start;font-family:DejaVu Sans Mono;-inkscape-font-specification:DejaVu Sans Mono"
         id="path4478" />
      <path
         d="m 521.78121,512.13007 c -0.4868,0.28286 -0.99003,0.49336 -1.5097,0.63151 -0.51311,0.14472 -1.03937,0.21708 -1.57878,0.21708 -1.71034,0 -3.04901,-0.5131 -4.01601,-1.53931 -0.96042,-1.0262 -1.44063,-2.44709 -1.44063,-4.26269 0,-1.81558 0.48021,-3.23648 1.44063,-4.26269 0.967,-1.02619 2.30567,-1.5393 4.01601,-1.53931 0.53283,10e-6 1.05251,0.0691 1.55904,0.20722 0.50652,0.13815 1.01633,0.35194 1.52944,0.64137 l 0,1.9044 c -0.48022,-0.42757 -0.96372,-0.73675 -1.4505,-0.92753 -0.48022,-0.19076 -1.02621,-0.28614 -1.63798,-0.28615 -1.13804,10e-6 -2.01294,0.36839 -2.62471,1.10514 -0.61178,0.73677 -0.91767,1.78929 -0.91766,3.15755 -10e-6,1.3617 0.30588,2.41421 0.91766,3.15755 0.61835,0.73676 1.49325,1.10514 2.62471,1.10514 0.63151,0 1.19723,-0.0954 1.69719,-0.28615 0.49993,-0.19735 0.9637,-0.49994 1.39129,-0.9078 l 0,1.88467"
         style="font-size:20.2083168px;font-style:normal;font-variant:normal;font-weight:normal;font-stretch:normal;text-align:start;line-height:125%;writing-mode:lr-tb;text-anchor:start;font-family:DejaVu Sans Mono;-inkscape-font-specification:DejaVu Sans Mono"
         id="path4480" />
      <path
         d="m 534.44101,506.7129 0,0.88806 -7.86427,0 0,0.0592 c 0,1.20382 0.31246,2.13464 0.9374,2.79246 0.6315,0.65782 1.51956,0.98673 2.66418,0.98673 0.57888,0 1.18407,-0.0921 1.81559,-0.27628 0.6315,-0.18419 1.30577,-0.46377 2.02281,-0.83873 l 0,1.80573 c -0.69073,0.28286 -1.35842,0.49336 -2.00307,0.63151 -0.6381,0.14472 -1.25645,0.21708 -1.85507,0.21708 -1.71692,0 -3.05887,-0.5131 -4.02587,-1.53931 -0.967,-1.03278 -1.4505,-2.45367 -1.4505,-4.26269 0,-1.76296 0.47363,-3.1707 1.4209,-4.22322 0.94726,-1.05251 2.21028,-1.57877 3.78906,-1.57878 1.40773,10e-6 2.51616,0.47694 3.32529,1.43077 0.81569,0.95385 1.22354,2.25634 1.22355,3.90747 m -1.81559,-0.53284 c -0.0263,-1.06567 -0.27958,-1.87479 -0.75978,-2.42737 -0.47365,-0.55914 -1.15778,-0.83871 -2.05241,-0.83872 -0.87491,10e-6 -1.59523,0.28945 -2.16095,0.86832 -0.56573,0.5789 -0.90122,1.38144 -1.00647,2.40764 l 5.97961,-0.01"
         style="font-size:20.2083168px;font-style:normal;font-variant:normal;font-weight:normal;font-stretch:normal;text-align:start;line-height:125%;writing-mode:lr-tb;text-anchor:start;font-family:DejaVu Sans Mono;-inkscape-font-specification:DejaVu Sans Mono"
         id="path4482" />
      <path
         d="m 509.62465,537.39038 c -0.4868,0.28287 -0.99004,0.49337 -1.50971,0.63151 -0.51311,0.14472 -1.03937,0.21708 -1.57877,0.21708 -1.71035,0 -3.04902,-0.5131 -4.01601,-1.5393 -0.96042,-1.0262 -1.44063,-2.4471 -1.44063,-4.26269 0,-1.81559 0.48021,-3.23648 1.44063,-4.2627 0.96699,-1.02619 2.30566,-1.53929 4.01601,-1.5393 0.53283,10e-6 1.05251,0.0691 1.55904,0.20721 0.50651,0.13816 1.01632,0.35195 1.52944,0.64138 l 0,1.9044 c -0.48023,-0.42758 -0.96372,-0.73676 -1.4505,-0.92753 -0.48022,-0.19076 -1.02622,-0.28615 -1.63798,-0.28616 -1.13804,1e-5 -2.01295,0.36839 -2.62472,1.10515 -0.61177,0.73677 -0.91766,1.78928 -0.91766,3.15755 0,1.36169 0.30589,2.41421 0.91766,3.15755 0.61835,0.73676 1.49326,1.10514 2.62472,1.10514 0.6315,0 1.19723,-0.0954 1.69718,-0.28616 0.49994,-0.19734 0.9637,-0.49994 1.3913,-0.90779 l 0,1.88466"
         style="font-size:20.2083168px;font-style:normal;font-variant:normal;font-weight:normal;font-stretch:normal;text-align:start;line-height:125%;writing-mode:lr-tb;text-anchor:start;font-family:DejaVu Sans Mono;-inkscape-font-specification:DejaVu Sans Mono"
         id="path4484" />
      <path
         d="m 522.28445,531.97321 0,0.88806 -7.86428,0 0,0.0592 c 0,1.20381 0.31247,2.13463 0.9374,2.79245 0.63151,0.65783 1.51957,0.98674 2.66418,0.98674 0.57888,0 1.18408,-0.0921 1.81559,-0.27629 0.63151,-0.18419 1.30577,-0.46376 2.02281,-0.83872 l 0,1.80572 c -0.69072,0.28287 -1.35841,0.49337 -2.00307,0.63151 -0.6381,0.14472 -1.25645,0.21708 -1.85506,0.21708 -1.71692,0 -3.05888,-0.5131 -4.02588,-1.5393 -0.967,-1.03278 -1.4505,-2.45368 -1.4505,-4.26269 0,-1.76296 0.47364,-3.1707 1.4209,-4.22323 0.94726,-1.0525 2.21028,-1.57876 3.78906,-1.57877 1.40773,10e-6 2.51616,0.47693 3.3253,1.43076 0.81568,0.95385 1.22353,2.25634 1.22355,3.90747 m -1.8156,-0.53284 c -0.0263,-1.06566 -0.27958,-1.87478 -0.75978,-2.42736 -0.47364,-0.55914 -1.15778,-0.83872 -2.05241,-0.83873 -0.87491,1e-5 -1.59522,0.28946 -2.16095,0.86833 -0.56573,0.57889 -0.90122,1.38144 -1.00646,2.40763 l 5.9796,-0.01"
         style="font-size:20.2083168px;font-style:normal;font-variant:normal;font-weight:normal;font-stretch:normal;text-align:start;line-height:125%;writing-mode:lr-tb;text-anchor:start;font-family:DejaVu Sans Mono;-inkscape-font-specification:DejaVu Sans Mono"
         id="path4486" />
      <path
         d="m 510.12788,557.23365 0,0.88806 -7.86427,0 0,0.0592 c 0,1.20382 0.31246,2.13464 0.9374,2.79246 0.6315,0.65782 1.51956,0.98674 2.66418,0.98673 0.57887,10e-6 1.18407,-0.0921 1.81559,-0.27628 0.6315,-0.18419 1.30577,-0.46376 2.0228,-0.83873 l 0,1.80573 c -0.69072,0.28286 -1.35841,0.49337 -2.00307,0.63151 -0.63809,0.14472 -1.25645,0.21708 -1.85506,0.21708 -1.71692,0 -3.05888,-0.5131 -4.02587,-1.53931 -0.967,-1.03278 -1.4505,-2.45367 -1.4505,-4.26269 0,-1.76296 0.47363,-3.17069 1.4209,-4.22322 0.94726,-1.05251 2.21028,-1.57876 3.78906,-1.57877 1.40773,1e-5 2.51616,0.47693 3.32529,1.43076 0.81569,0.95385 1.22354,2.25634 1.22355,3.90747 m -1.81559,-0.53284 c -0.0263,-1.06566 -0.27958,-1.87479 -0.75979,-2.42737 -0.47364,-0.55914 -1.15777,-0.83871 -2.0524,-0.83872 -0.87491,10e-6 -1.59523,0.28945 -2.16095,0.86833 -0.56573,0.57889 -0.90122,1.38143 -1.00647,2.40763 l 5.97961,-0.01"
         style="font-size:20.2083168px;font-style:normal;font-variant:normal;font-weight:normal;font-stretch:normal;text-align:start;line-height:125%;writing-mode:lr-tb;text-anchor:start;font-family:DejaVu Sans Mono;-inkscape-font-specification:DejaVu Sans Mono"
         id="path4488" />
    </g>
    <text
       xml:space="preserve"
       style="font-size:20.2083168px;font-style:normal;font-variant:normal;font-weight:normal;font-stretch:normal;text-align:start;line-height:125%;letter-spacing:0px;word-spacing:0px;writing-mode:lr-tb;text-anchor:start;fill:#000000;fill-opacity:1;stroke:none;font-family:Verdana;-inkscape-font-specification:Verdana"
       x="432.63913"
       y="414.54269"
       id="text9698-2"
       sodipodi:linespacing="125%"><tspan
         sodipodi:role="line"
         x="432.63913"
         y="414.54269"
         id="tspan9700-0"><tspan
           x="432.63913"
           y="414.54269"
           id="tspan9702-2">5</tspan><tspan
           dx="0"
           x="445.50616"
           y="414.54269"
           id="tspan9704-5" /></tspan><tspan
         sodipodi:role="line"
         x="432.63913"
         y="439.8031"
         id="tspan9706-6">6</tspan><tspan
         sodipodi:role="line"
         x="432.63913"
         y="465.06348"
         id="tspan9712-7">3</tspan><tspan
         sodipodi:role="line"
         x="432.63913"
         y="490.32388"
         id="tspan9718-5">4</tspan><tspan
         sodipodi:role="line"
         x="432.63913"
         y="515.58429"
         id="tspan9724-0">1</tspan><tspan
         sodipodi:role="line"
         x="432.63913"
         y="540.84467"
         id="tspan9730-1">0</tspan><tspan
         sodipodi:role="line"
         x="432.63913"
         y="566.10504"
         id="tspan6139">2</tspan><tspan
         sodipodi:role="line"
         x="432.63913"
         y="566.10504"
         id="tspan9736-9"><tspan
           x="432.63913"
           y="566.10504"
           id="tspan9738-5" /></tspan></text>
    <path
       style="fill:none;stroke:#000000;stroke-width:1.05499136px;stroke-linecap:butt;stroke-linejoin:miter;stroke-opacity:1"
       d="m 427.35003,419.40467 23.54892,0.18838"
       id="path6996-8"
       inkscape:connector-curvature="0" />
    <path
       style="fill:none;stroke:#000000;stroke-width:1.05499136px;stroke-linecap:butt;stroke-linejoin:miter;stroke-opacity:1"
       d="m 427.44424,445.12007 23.5489,0.1884"
       id="path6996-4-5"
       inkscape:connector-curvature="0" />
    <path
       style="fill:none;stroke:#000000;stroke-width:1.05499136px;stroke-linecap:butt;stroke-linejoin:miter;stroke-opacity:1"
       d="m 427.25584,469.79934 23.54891,0.18839"
       id="path6996-42-3"
       inkscape:connector-curvature="0" />
    <path
       style="fill:none;stroke:#000000;stroke-width:1.05499136px;stroke-linecap:butt;stroke-linejoin:miter;stroke-opacity:1"
       d="m 427.25584,495.42057 23.54891,0.18838"
       id="path6996-7-6"
       inkscape:connector-curvature="0" />
    <path
       style="fill:none;stroke:#000000;stroke-width:1.05499136px;stroke-linecap:butt;stroke-linejoin:miter;stroke-opacity:1"
       d="m 427.44424,521.98373 23.5489,0.18839"
       id="path6996-5-3"
       inkscape:connector-curvature="0" />
    <path
       style="fill:none;stroke:#000000;stroke-width:1.05499136px;stroke-linecap:butt;stroke-linejoin:miter;stroke-opacity:1"
       d="m 427.63262,545.90944 23.5489,0.18839"
       id="path6996-3-6"
       inkscape:connector-curvature="0" />
    <rect
       style="opacity:0.35611512;fill:#48d358;fill-opacity:1;stroke:#7472c9;stroke-width:0.73345035;stroke-linecap:square;stroke-linejoin:bevel;stroke-miterlimit:4;stroke-opacity:1;stroke-dasharray:0.73345034, 0.73345034;stroke-dashoffset:0"
       id="rect4257-1"
       width="24.872961"
       height="177.286"
       x="523.32721"
       y="392.59747" />
    <text
       xml:space="preserve"
       style="font-size:20.2083168px;font-style:normal;font-variant:normal;font-weight:normal;font-stretch:normal;text-align:start;line-height:125%;letter-spacing:0px;word-spacing:0px;writing-mode:lr-tb;text-anchor:start;fill:#48d358;fill-opacity:1;stroke:none;font-family:DejaVu Sans Mono;-inkscape-font-specification:DejaVu Sans Mono"
       x="514.3136"
       y="366.3486"
       id="text4494-4-6"
       sodipodi:linespacing="125%"><tspan
         sodipodi:role="line"
         x="514.3136"
         y="366.3486"
         id="tspan4496-4-4"><tspan
           x="514.3136"
           y="366.3486"
           id="tspan4498-9-8"
           style="fill:#48d358;fill-opacity:1">S<tspan
   style="font-size:13.13559151px;baseline-shift:sub;fill:#48d358;fill-opacity:1"
   id="tspan4524-1">2:4</tspan></tspan></tspan></text>
    <path
       style="fill:none;stroke:#000000;stroke-width:1.04778624px;stroke-linecap:butt;stroke-linejoin:miter;stroke-opacity:1;marker-end:url(#marker3205)"
       d="m 531.79461,373.01661 0.79381,17.7286"
       id="path4553-9"
       inkscape:connector-curvature="0" />
    <text
       xml:space="preserve"
       style="font-size:20.2083168px;font-style:normal;font-variant:normal;font-weight:normal;font-stretch:normal;text-align:start;line-height:125%;letter-spacing:0px;word-spacing:0px;writing-mode:lr-tb;text-anchor:start;fill:#000000;fill-opacity:1;stroke:none;font-family:DejaVu Sans Mono;-inkscape-font-specification:DejaVu Sans Mono"
       x="393.39746"
       y="362.66296"
       id="text4953-4"
       sodipodi:linespacing="125%"><tspan
         sodipodi:role="line"
         x="393.39746"
         y="362.66296"
         id="tspan4955-6"><tspan
           x="393.39746"
           y="362.66296"
           id="tspan4957-9">SA<tspan
   style="font-size:13.13559151px;baseline-shift:sub"
   id="tspan6137">2:4</tspan></tspan></tspan></text>
    <path
       style="fill:none;stroke:#000000;stroke-width:1.04778624px;stroke-linecap:butt;stroke-linejoin:miter;stroke-opacity:1;marker-end:url(#marker3205)"
       d="m 421.44912,368.35077 c 9.84926,2.99861 16.20009,9.49563 16.09101,22.45256"
       id="path4959-2"
       inkscape:connector-curvature="0"
       sodipodi:nodetypes="cc" />
    <path
       style="fill:none;stroke:#000000;stroke-width:0.73345035;stroke-linecap:butt;stroke-linejoin:miter;stroke-miterlimit:4;stroke-opacity:1;stroke-dasharray:0.73345034, 0.73345034;stroke-dashoffset:0;marker-end:url(#marker5853)"
       d="m 451.49286,408.41195 43.04902,122.38641"
       id="path6141"
       inkscape:connector-curvature="0" />
    <path
       style="fill:none;stroke:#000000;stroke-width:0.73345035;stroke-linecap:butt;stroke-linejoin:miter;stroke-miterlimit:4;stroke-opacity:1;stroke-dasharray:0.73345034, 0.73345034;stroke-dashoffset:0;marker-end:url(#marker5853)"
       d="M 451.3125,433.49072 495.095,556.9798"
       id="path6141-0"
       inkscape:connector-curvature="0" />
    <path
       style="fill:none;stroke:#000000;stroke-width:0.73345035;stroke-linecap:butt;stroke-linejoin:miter;stroke-miterlimit:4;stroke-opacity:1;stroke-dasharray:0.73345034, 0.73345034;stroke-dashoffset:0;marker-end:url(#marker5853)"
       d="m 451.12539,458.93695 41.91145,22.45256"
       id="path6161"
       inkscape:connector-curvature="0" />
    <path
       style="fill:none;stroke:#000000;stroke-width:0.73345035;stroke-linecap:butt;stroke-linejoin:miter;stroke-miterlimit:4;stroke-opacity:1;stroke-dasharray:0.73345034, 0.73345034;stroke-dashoffset:0;marker-end:url(#marker5853)"
       d="m 451.12539,484.38319 42.28566,21.70414"
       id="path6163"
       inkscape:connector-curvature="0" />
    <path
       style="fill:none;stroke:#000000;stroke-width:0.73345035;stroke-linecap:butt;stroke-linejoin:miter;stroke-miterlimit:4;stroke-opacity:1;stroke-dasharray:0.73345034, 0.73345034;stroke-dashoffset:0;marker-end:url(#marker5853)"
       d="m 451.12539,509.081 44.53092,-75.21608"
       id="path6165"
       inkscape:connector-curvature="0" />
    <path
       style="fill:none;stroke:#000000;stroke-width:0.73345035;stroke-linecap:butt;stroke-linejoin:miter;stroke-miterlimit:4;stroke-opacity:1;stroke-dasharray:0.73345034, 0.73345034;stroke-dashoffset:0;marker-start:none;marker-end:url(#marker5853)"
       d="M 450.75118,535.64987 496.40472,408.7929"
       id="path6167"
       inkscape:connector-curvature="0" />
    <path
       style="fill:none;stroke:#000000;stroke-width:0.73345035;stroke-linecap:butt;stroke-linejoin:miter;stroke-miterlimit:4;stroke-opacity:1;stroke-dasharray:0.73345034, 1.46690068;stroke-dashoffset:0;marker-end:url(#marker5853)"
       d="M 450.75118,559.97347 496.40472,458.56274"
       id="path6169"
       inkscape:connector-curvature="0" />
  </g>
</svg>
