<?xml version="1.0" encoding="UTF-8" standalone="no"?>
<!-- Created with Inkscape (http://www.inkscape.org/) -->

<svg
   xmlns:dc="http://purl.org/dc/elements/1.1/"
   xmlns:cc="http://creativecommons.org/ns#"
   xmlns:rdf="http://www.w3.org/1999/02/22-rdf-syntax-ns#"
   xmlns:svg="http://www.w3.org/2000/svg"
   xmlns="http://www.w3.org/2000/svg"
   xmlns:sodipodi="http://sodipodi.sourceforge.net/DTD/sodipodi-0.dtd"
   xmlns:inkscape="http://www.inkscape.org/namespaces/inkscape"
   width="169.2088"
   height="191.80762"
   id="svg9312"
   version="1.1"
   inkscape:version="0.48.4 r9939"
   sodipodi:docname="science_SA.svg">
  <defs
     id="defs9314">
    <marker
       inkscape:stockid="Arrow1Mend"
       orient="auto"
       refY="0"
       refX="0"
       id="Arrow1Mend"
       style="overflow:visible">
      <path
         inkscape:connector-curvature="0"
         id="path4425"
         d="M 0,0 5,-5 -12.5,0 5,5 0,0 z"
         style="fill-rule:evenodd;stroke:#000000;stroke-width:1pt"
         transform="matrix(-0.4,0,0,-0.4,-4,0)" />
    </marker>
    <marker
       inkscape:stockid="Arrow1Mend"
       orient="auto"
       refY="0"
       refX="0"
       id="marker9254"
       style="overflow:visible">
      <path
         inkscape:connector-curvature="0"
         id="path9256"
         d="M 0,0 5,-5 -12.5,0 5,5 0,0 z"
         style="fill-rule:evenodd;stroke:#000000;stroke-width:1pt"
         transform="matrix(-0.4,0,0,-0.4,-4,0)" />
    </marker>
    <marker
       inkscape:stockid="Arrow1Mend"
       orient="auto"
       refY="0"
       refX="0"
       id="marker9258"
       style="overflow:visible">
      <path
         inkscape:connector-curvature="0"
         id="path9260"
         d="M 0,0 5,-5 -12.5,0 5,5 0,0 z"
         style="fill-rule:evenodd;stroke:#000000;stroke-width:1pt"
         transform="matrix(-0.4,0,0,-0.4,-4,0)" />
    </marker>
    <marker
       inkscape:stockid="Arrow1Mend"
       orient="auto"
       refY="0"
       refX="0"
       id="marker9262"
       style="overflow:visible">
      <path
         inkscape:connector-curvature="0"
         id="path9264"
         d="M 0,0 5,-5 -12.5,0 5,5 0,0 z"
         style="fill-rule:evenodd;stroke:#000000;stroke-width:1pt"
         transform="matrix(-0.4,0,0,-0.4,-4,0)" />
    </marker>
    <marker
       inkscape:stockid="Arrow1Mend"
       orient="auto"
       refY="0"
       refX="0"
       id="marker9266"
       style="overflow:visible">
      <path
         inkscape:connector-curvature="0"
         id="path9268"
         d="M 0,0 5,-5 -12.5,0 5,5 0,0 z"
         style="fill-rule:evenodd;stroke:#000000;stroke-width:1pt"
         transform="matrix(-0.4,0,0,-0.4,-4,0)" />
    </marker>
    <marker
       inkscape:stockid="Arrow1Mend"
       orient="auto"
       refY="0"
       refX="0"
       id="marker9270"
       style="overflow:visible">
      <path
         inkscape:connector-curvature="0"
         id="path9272"
         d="M 0,0 5,-5 -12.5,0 5,5 0,0 z"
         style="fill-rule:evenodd;stroke:#000000;stroke-width:1pt"
         transform="matrix(-0.4,0,0,-0.4,-4,0)" />
    </marker>
    <marker
       inkscape:stockid="Arrow1Mend"
       orient="auto"
       refY="0"
       refX="0"
       id="marker9274"
       style="overflow:visible">
      <path
         inkscape:connector-curvature="0"
         id="path9276"
         d="M 0,0 5,-5 -12.5,0 5,5 0,0 z"
         style="fill-rule:evenodd;stroke:#000000;stroke-width:1pt"
         transform="matrix(-0.4,0,0,-0.4,-4,0)" />
    </marker>
  </defs>
  <sodipodi:namedview
     id="base"
     pagecolor="#ffffff"
     bordercolor="#666666"
     borderopacity="1.0"
     inkscape:pageopacity="0.0"
     inkscape:pageshadow="2"
     inkscape:zoom="2.8"
     inkscape:cx="124.93189"
     inkscape:cy="97.453921"
     inkscape:document-units="px"
     inkscape:current-layer="layer1"
     showgrid="false"
     inkscape:window-width="1440"
     inkscape:window-height="845"
     inkscape:window-x="0"
     inkscape:window-y="20"
     inkscape:window-maximized="1"
     fit-margin-top="10"
     fit-margin-right="10"
     fit-margin-bottom="10"
     fit-margin-left="10" />
  <metadata
     id="metadata9317">
    <rdf:RDF>
      <cc:Work
         rdf:about="">
        <dc:format>image/svg+xml</dc:format>
        <dc:type
           rdf:resource="http://purl.org/dc/dcmitype/StillImage" />
        <dc:title />
      </cc:Work>
    </rdf:RDF>
  </metadata>
  <g
     inkscape:label="Layer 1"
     inkscape:groupmode="layer"
     id="layer1"
     transform="translate(-338.19213,-379.90218)">
    <rect
       style="fill:#271f89;fill-opacity:0.23529412;stroke:#111320;stroke-width:0.38661212;stroke-linecap:square;stroke-linejoin:bevel;stroke-miterlimit:4;stroke-opacity:1;stroke-dasharray:none;stroke-dashoffset:0"
       id="rect3021-8"
       width="22.704979"
       height="171.42101"
       x="348.68808"
       y="390.09549" />
    <g
       style="font-size:19.28668022px;font-style:normal;font-variant:normal;font-weight:normal;font-stretch:normal;text-align:start;line-height:125%;letter-spacing:0px;word-spacing:0px;writing-mode:lr-tb;text-anchor:start;fill:#000000;fill-opacity:1;stroke:none;font-family:DejaVu Sans Mono;-inkscape-font-specification:DejaVu Sans Mono"
       id="text9656">
      <path
         d="m 426.47907,396.95119 0,1.69512 c -0.49599,-0.28879 -0.99511,-0.50539 -1.49736,-0.6498 -0.50226,-0.14439 -1.01394,-0.21659 -1.53502,-0.2166 -0.78478,1e-5 -1.3718,0.12872 -1.76104,0.38611 -0.38298,0.25114 -0.57446,0.63725 -0.57446,1.15834 0,0.47087 0.1444,0.82245 0.4332,1.05474 0.28879,0.2323 1.00765,0.45831 2.15657,0.67804 l 0.69688,0.13185 c 0.86011,0.16323 1.5099,0.4897 1.94938,0.9794 0.44575,0.4897 0.66862,1.12694 0.66863,1.91171 -10e-6,1.04219 -0.37042,1.85836 -1.11124,2.44851 -0.74084,0.58387 -1.77046,0.87581 -3.08888,0.87581 -0.5211,0 -1.0673,-0.0565 -1.63862,-0.16951 -0.57132,-0.10673 -1.18972,-0.26997 -1.85521,-0.4897 l 0,-1.78929 c 0.64665,0.33274 1.26506,0.58387 1.85521,0.75338 0.59015,0.16324 1.14891,0.24485 1.67629,0.24485 0.76593,0 1.35922,-0.15381 1.77987,-0.46145 0.42063,-0.31391 0.63095,-0.75024 0.63096,-1.30901 -10e-6,-0.8036 -0.76909,-1.35922 -2.30724,-1.66686 l -0.0753,-0.0188 -0.6498,-0.13184 c -0.99824,-0.19462 -1.72651,-0.52109 -2.18482,-0.9794 -0.45831,-0.46458 -0.68746,-1.09554 -0.68746,-1.89288 0,-1.01079 0.34216,-1.78929 1.02649,-2.3355 0.68432,-0.55247 1.66058,-0.82871 2.92879,-0.82872 0.56503,10e-6 1.10809,0.0534 1.62919,0.16009 0.52109,0.10046 1.03276,0.25428 1.53503,0.46145"
         style="font-size:19.28668022px;font-style:normal;font-variant:normal;font-weight:normal;font-stretch:normal;text-align:start;line-height:125%;writing-mode:lr-tb;text-anchor:start;font-family:DejaVu Sans Mono;-inkscape-font-specification:DejaVu Sans Mono"
         id="path4548" />
      <path
         d="m 438.90993,406.59453 c -0.46459,0.26996 -0.94488,0.47087 -1.44085,0.60271 -0.48971,0.13812 -0.99196,0.20718 -1.50677,0.20718 -1.63234,0 -2.90996,-0.4897 -3.83285,-1.4691 -0.91662,-0.9794 -1.37493,-2.3355 -1.37493,-4.06829 0,-1.73278 0.45831,-3.08887 1.37493,-4.06828 0.92289,-0.97939 2.20051,-1.46909 3.83285,-1.4691 0.50853,10e-6 1.00451,0.0659 1.48794,0.19776 0.48341,0.13185 0.96997,0.33589 1.45968,0.61213 l 0,1.81754 c -0.45832,-0.40808 -0.91976,-0.70315 -1.38434,-0.88523 -0.45832,-0.18206 -0.97941,-0.27309 -1.56328,-0.2731 -1.08614,1e-5 -1.92114,0.35159 -2.50501,1.05474 -0.58387,0.70317 -0.87581,1.70768 -0.87581,3.01354 0,1.2996 0.29194,2.30411 0.87581,3.01355 0.59015,0.70316 1.42515,1.05474 2.50501,1.05474 0.6027,0 1.14263,-0.091 1.61978,-0.27311 0.47714,-0.18834 0.91975,-0.47714 1.32784,-0.86639 l 0,1.79871"
         style="font-size:19.28668022px;font-style:normal;font-variant:normal;font-weight:normal;font-stretch:normal;text-align:start;line-height:125%;writing-mode:lr-tb;text-anchor:start;font-family:DejaVu Sans Mono;-inkscape-font-specification:DejaVu Sans Mono"
         id="path4550" />
      <path
         d="m 442.93113,396.58391 4.43556,0 0,9.20073 3.43732,0 0,1.34668 -8.60743,0 0,-1.34668 3.43732,0 0,-7.85405 -2.70277,0 0,-1.34668 m 2.70277,-4.10595 1.73279,0 0,2.19424 -1.73279,0 0,-2.19424"
         style="font-size:19.28668022px;font-style:normal;font-variant:normal;font-weight:normal;font-stretch:normal;text-align:start;line-height:125%;writing-mode:lr-tb;text-anchor:start;font-family:DejaVu Sans Mono;-inkscape-font-specification:DejaVu Sans Mono"
         id="path4552" />
      <path
         d="m 462.5945,401.42442 0,0.84756 -7.5056,0 0,0.0565 c -1e-5,1.14892 0.29821,2.03729 0.89464,2.6651 0.60271,0.62783 1.45027,0.94174 2.54268,0.94174 0.55248,0 1.13007,-0.0879 1.73279,-0.26369 0.6027,-0.17579 1.24622,-0.44261 1.93055,-0.80047 l 0,1.72337 c -0.65922,0.26996 -1.29646,0.47087 -1.91172,0.60271 -0.60899,0.13812 -1.19914,0.20718 -1.77045,0.20718 -1.63862,0 -2.91938,-0.4897 -3.84227,-1.4691 -0.9229,-0.98568 -1.38435,-2.34177 -1.38435,-4.06829 0,-1.68255 0.45203,-3.02609 1.3561,-4.03061 0.90406,-1.00451 2.10947,-1.50676 3.61625,-1.50677 1.34353,10e-6 2.40141,0.45518 3.17364,1.36551 0.77849,0.91035 1.16773,2.15343 1.16774,3.72926 m -1.73278,-0.50854 c -0.0251,-1.01706 -0.26684,-1.78928 -0.72514,-2.31666 -0.45204,-0.53364 -1.10497,-0.80046 -1.9588,-0.80047 -0.83501,1e-5 -1.52247,0.27625 -2.06239,0.82872 -0.53993,0.55249 -0.86012,1.31844 -0.96057,2.29783 l 5.7069,-0.009"
         style="font-size:19.28668022px;font-style:normal;font-variant:normal;font-weight:normal;font-stretch:normal;text-align:start;line-height:125%;writing-mode:lr-tb;text-anchor:start;font-family:DejaVu Sans Mono;-inkscape-font-specification:DejaVu Sans Mono"
         id="path4554" />
      <path
         d="m 473.62219,400.59569 0,6.53563 -1.7422,0 0,-6.53563 c -1e-5,-0.948 -0.16639,-1.64488 -0.49912,-2.09064 -0.33276,-0.44575 -0.85385,-0.66862 -1.56328,-0.66863 -0.80989,1e-5 -1.43458,0.2888 -1.87405,0.86639 -0.4332,0.57133 -0.64979,1.39377 -0.64979,2.46734 l 0,5.96117 -1.73279,0 0,-10.54741 1.73279,0 0,1.58211 c 0.30763,-0.60269 0.72513,-1.05787 1.2525,-1.36551 0.52737,-0.3139 1.15205,-0.47085 1.87405,-0.47086 1.07357,10e-6 1.87404,0.35473 2.40142,1.06415 0.53364,0.70317 0.80046,1.77047 0.80047,3.20189"
         style="font-size:19.28668022px;font-style:normal;font-variant:normal;font-weight:normal;font-stretch:normal;text-align:start;line-height:125%;writing-mode:lr-tb;text-anchor:start;font-family:DejaVu Sans Mono;-inkscape-font-specification:DejaVu Sans Mono"
         id="path4556" />
      <path
         d="m 485.31851,406.59453 c -0.4646,0.26996 -0.94488,0.47087 -1.44085,0.60271 -0.48971,0.13812 -0.99197,0.20718 -1.50678,0.20718 -1.63234,0 -2.90995,-0.4897 -3.83285,-1.4691 -0.91662,-0.9794 -1.37493,-2.3355 -1.37493,-4.06829 0,-1.73278 0.45831,-3.08887 1.37493,-4.06828 0.9229,-0.97939 2.20051,-1.46909 3.83285,-1.4691 0.50853,10e-6 1.00451,0.0659 1.48794,0.19776 0.48341,0.13185 0.96998,0.33589 1.45969,0.61213 l 0,1.81754 c -0.45832,-0.40808 -0.91977,-0.70315 -1.38435,-0.88523 -0.45832,-0.18206 -0.97941,-0.27309 -1.56328,-0.2731 -1.08613,1e-5 -1.92114,0.35159 -2.505,1.05474 -0.58388,0.70317 -0.87582,1.70768 -0.87582,3.01354 0,1.2996 0.29194,2.30411 0.87582,3.01355 0.59014,0.70316 1.42514,1.05474 2.505,1.05474 0.6027,0 1.14263,-0.091 1.61978,-0.27311 0.47714,-0.18834 0.91975,-0.47714 1.32785,-0.86639 l 0,1.79871"
         style="font-size:19.28668022px;font-style:normal;font-variant:normal;font-weight:normal;font-stretch:normal;text-align:start;line-height:125%;writing-mode:lr-tb;text-anchor:start;font-family:DejaVu Sans Mono;-inkscape-font-specification:DejaVu Sans Mono"
         id="path4558" />
      <path
         d="m 497.40094,401.42442 0,0.84756 -7.50561,0 0,0.0565 c 0,1.14892 0.29821,2.03729 0.89464,2.6651 0.60271,0.62783 1.45027,0.94174 2.54268,0.94174 0.55248,0 1.13007,-0.0879 1.73279,-0.26369 0.6027,-0.17579 1.24622,-0.44261 1.93055,-0.80047 l 0,1.72337 c -0.65922,0.26996 -1.29646,0.47087 -1.91172,0.60271 -0.60899,0.13812 -1.19914,0.20718 -1.77045,0.20718 -1.63862,0 -2.91938,-0.4897 -3.84227,-1.4691 -0.9229,-0.98568 -1.38435,-2.34177 -1.38435,-4.06829 0,-1.68255 0.45203,-3.02609 1.3561,-4.03061 0.90406,-1.00451 2.10947,-1.50676 3.61625,-1.50677 1.34353,10e-6 2.40141,0.45518 3.17364,1.36551 0.77849,0.91035 1.16774,2.15343 1.16775,3.72926 m -1.73279,-0.50854 c -0.0251,-1.01706 -0.26683,-1.78928 -0.72514,-2.31666 -0.45203,-0.53364 -1.10497,-0.80046 -1.9588,-0.80047 -0.83501,1e-5 -1.52247,0.27625 -2.06239,0.82872 -0.53993,0.55249 -0.86012,1.31844 -0.96057,2.29783 l 5.7069,-0.009"
         style="font-size:19.28668022px;font-style:normal;font-variant:normal;font-weight:normal;font-stretch:normal;text-align:start;line-height:125%;writing-mode:lr-tb;text-anchor:start;font-family:DejaVu Sans Mono;-inkscape-font-specification:DejaVu Sans Mono"
         id="path4560" />
      <path
         d="m 427.30779,430.70287 c -0.4646,0.26996 -0.94488,0.47086 -1.44085,0.60271 -0.48971,0.13812 -0.99197,0.20718 -1.50677,0.20718 -1.63234,0 -2.90996,-0.4897 -3.83285,-1.46911 -0.91662,-0.9794 -1.37493,-2.33549 -1.37493,-4.06828 0,-1.73278 0.45831,-3.08887 1.37493,-4.06828 0.92289,-0.9794 2.20051,-1.4691 3.83285,-1.46911 0.50853,1e-5 1.0045,0.0659 1.48794,0.19777 0.48341,0.13185 0.96997,0.33589 1.45968,0.61212 l 0,1.81755 c -0.45832,-0.40808 -0.91977,-0.70315 -1.38435,-0.88523 -0.45831,-0.18206 -0.97941,-0.27309 -1.56327,-0.2731 -1.08614,1e-5 -1.92114,0.35159 -2.50501,1.05474 -0.58388,0.70316 -0.87581,1.70768 -0.87581,3.01354 0,1.29959 0.29193,2.30411 0.87581,3.01354 0.59015,0.70317 1.42515,1.05475 2.50501,1.05474 0.6027,10e-6 1.14263,-0.091 1.61978,-0.2731 0.47713,-0.18834 0.91975,-0.47714 1.32784,-0.86639 l 0,1.79871"
         style="font-size:19.28668022px;font-style:normal;font-variant:normal;font-weight:normal;font-stretch:normal;text-align:start;line-height:125%;writing-mode:lr-tb;text-anchor:start;font-family:DejaVu Sans Mono;-inkscape-font-specification:DejaVu Sans Mono"
         id="path4562" />
      <path
         d="m 431.32899,420.69225 4.43556,0 0,9.20073 3.43732,0 0,1.34667 -8.60743,0 0,-1.34667 3.43732,0 0,-7.85405 -2.70277,0 0,-1.34668 m 2.70277,-4.10595 1.73279,0 0,2.19423 -1.73279,0 0,-2.19423"
         style="font-size:19.28668022px;font-style:normal;font-variant:normal;font-weight:normal;font-stretch:normal;text-align:start;line-height:125%;writing-mode:lr-tb;text-anchor:start;font-family:DejaVu Sans Mono;-inkscape-font-specification:DejaVu Sans Mono"
         id="path4564" />
      <path
         d="m 450.99236,425.53276 0,0.84756 -7.50561,0 0,0.0565 c 0,1.14892 0.29822,2.03728 0.89465,2.6651 0.6027,0.62783 1.45026,0.94174 2.54268,0.94173 0.55247,10e-6 1.13007,-0.0879 1.73278,-0.26368 0.6027,-0.17579 1.24622,-0.44261 1.93056,-0.80047 l 0,1.72337 c -0.65923,0.26996 -1.29646,0.47086 -1.91172,0.60271 -0.609,0.13812 -1.19915,0.20718 -1.77046,0.20718 -1.63862,0 -2.91937,-0.4897 -3.84227,-1.46911 -0.9229,-0.98567 -1.38434,-2.34177 -1.38434,-4.06828 0,-1.68255 0.45203,-3.02609 1.35609,-4.03061 0.90406,-1.00451 2.10948,-1.50677 3.61625,-1.50678 1.34354,1e-5 2.40141,0.45518 3.17364,1.36552 0.77849,0.91035 1.16774,2.15343 1.16775,3.72926 m -1.73279,-0.50854 c -0.0251,-1.01706 -0.26683,-1.78928 -0.72513,-2.31666 -0.45204,-0.53364 -1.10497,-0.80046 -1.9588,-0.80047 -0.83501,1e-5 -1.52248,0.27625 -2.0624,0.82872 -0.53993,0.55249 -0.86012,1.31843 -0.96057,2.29783 l 5.7069,-0.009"
         style="font-size:19.28668022px;font-style:normal;font-variant:normal;font-weight:normal;font-stretch:normal;text-align:start;line-height:125%;writing-mode:lr-tb;text-anchor:start;font-family:DejaVu Sans Mono;-inkscape-font-specification:DejaVu Sans Mono"
         id="path4566" />
      <path
         d="m 462.02005,424.70403 0,6.53562 -1.74221,0 0,-6.53562 c 0,-0.948 -0.16638,-1.64488 -0.49911,-2.09064 -0.33276,-0.44575 -0.85385,-0.66863 -1.56328,-0.66863 -0.8099,0 -1.43458,0.2888 -1.87405,0.86639 -0.4332,0.57132 -0.6498,1.39377 -0.64979,2.46734 l 0,5.96116 -1.73279,0 0,-10.5474 1.73279,0 0,1.58211 c 0.30762,-0.6027 0.72513,-1.05787 1.2525,-1.36551 0.52737,-0.3139 1.15205,-0.47086 1.87405,-0.47087 1.07357,1e-5 1.87404,0.35473 2.40142,1.06416 0.53363,0.70317 0.80046,1.77047 0.80047,3.20189"
         style="font-size:19.28668022px;font-style:normal;font-variant:normal;font-weight:normal;font-stretch:normal;text-align:start;line-height:125%;writing-mode:lr-tb;text-anchor:start;font-family:DejaVu Sans Mono;-inkscape-font-specification:DejaVu Sans Mono"
         id="path4568" />
      <path
         d="m 473.71636,430.70287 c -0.46459,0.26996 -0.94488,0.47086 -1.44085,0.60271 -0.48971,0.13812 -0.99196,0.20718 -1.50677,0.20718 -1.63234,0 -2.90996,-0.4897 -3.83285,-1.46911 -0.91662,-0.9794 -1.37493,-2.33549 -1.37493,-4.06828 0,-1.73278 0.45831,-3.08887 1.37493,-4.06828 0.92289,-0.9794 2.20051,-1.4691 3.83285,-1.46911 0.50853,1e-5 1.00451,0.0659 1.48794,0.19777 0.48341,0.13185 0.96997,0.33589 1.45968,0.61212 l 0,1.81755 c -0.45832,-0.40808 -0.91976,-0.70315 -1.38434,-0.88523 -0.45832,-0.18206 -0.97941,-0.27309 -1.56328,-0.2731 -1.08614,1e-5 -1.92114,0.35159 -2.50501,1.05474 -0.58388,0.70316 -0.87581,1.70768 -0.87581,3.01354 0,1.29959 0.29193,2.30411 0.87581,3.01354 0.59015,0.70317 1.42515,1.05475 2.50501,1.05474 0.6027,10e-6 1.14263,-0.091 1.61978,-0.2731 0.47714,-0.18834 0.91975,-0.47714 1.32784,-0.86639 l 0,1.79871"
         style="font-size:19.28668022px;font-style:normal;font-variant:normal;font-weight:normal;font-stretch:normal;text-align:start;line-height:125%;writing-mode:lr-tb;text-anchor:start;font-family:DejaVu Sans Mono;-inkscape-font-specification:DejaVu Sans Mono"
         id="path4570" />
      <path
         d="m 485.79879,425.53276 0,0.84756 -7.50561,0 0,0.0565 c 0,1.14892 0.29821,2.03728 0.89465,2.6651 0.6027,0.62783 1.45026,0.94174 2.54268,0.94173 0.55247,10e-6 1.13007,-0.0879 1.73278,-0.26368 0.6027,-0.17579 1.24622,-0.44261 1.93055,-0.80047 l 0,1.72337 c -0.65922,0.26996 -1.29646,0.47086 -1.91171,0.60271 -0.609,0.13812 -1.19915,0.20718 -1.77046,0.20718 -1.63862,0 -2.91937,-0.4897 -3.84227,-1.46911 -0.9229,-0.98567 -1.38435,-2.34177 -1.38434,-4.06828 -10e-6,-1.68255 0.45203,-3.02609 1.35609,-4.03061 0.90406,-1.00451 2.10948,-1.50677 3.61625,-1.50678 1.34353,1e-5 2.40141,0.45518 3.17364,1.36552 0.77849,0.91035 1.16774,2.15343 1.16775,3.72926 m -1.73279,-0.50854 c -0.0251,-1.01706 -0.26683,-1.78928 -0.72513,-2.31666 -0.45204,-0.53364 -1.10497,-0.80046 -1.95881,-0.80047 -0.835,1e-5 -1.52247,0.27625 -2.06239,0.82872 -0.53993,0.55249 -0.86012,1.31843 -0.96057,2.29783 l 5.7069,-0.009"
         style="font-size:19.28668022px;font-style:normal;font-variant:normal;font-weight:normal;font-stretch:normal;text-align:start;line-height:125%;writing-mode:lr-tb;text-anchor:start;font-family:DejaVu Sans Mono;-inkscape-font-specification:DejaVu Sans Mono"
         id="path4572" />
      <path
         d="m 419.72684,444.80059 4.43556,0 0,9.20072 3.43733,0 0,1.34668 -8.60744,0 0,-1.34668 3.43733,0 0,-7.85404 -2.70278,0 0,-1.34668 m 2.70278,-4.10595 1.73278,0 0,2.19423 -1.73278,0 0,-2.19423"
         style="font-size:19.28668022px;font-style:normal;font-variant:normal;font-weight:normal;font-stretch:normal;text-align:start;line-height:125%;writing-mode:lr-tb;text-anchor:start;font-family:DejaVu Sans Mono;-inkscape-font-specification:DejaVu Sans Mono"
         id="path4574" />
      <path
         d="m 439.39022,449.64109 0,0.84756 -7.50561,0 0,0.0565 c 0,1.14891 0.29821,2.03728 0.89465,2.6651 0.6027,0.62782 1.45026,0.94173 2.54267,0.94173 0.55248,0 1.13007,-0.0879 1.73279,-0.26368 0.6027,-0.17579 1.24622,-0.44262 1.93055,-0.80048 l 0,1.72337 c -0.65922,0.26997 -1.29646,0.47087 -1.91171,0.60271 -0.609,0.13812 -1.19915,0.20718 -1.77046,0.20718 -1.63862,0 -2.91938,-0.4897 -3.84227,-1.4691 -0.9229,-0.98568 -1.38435,-2.34177 -1.38435,-4.06828 0,-1.68256 0.45203,-3.02609 1.3561,-4.03062 0.90406,-1.0045 2.10947,-1.50676 3.61625,-1.50677 1.34353,1e-5 2.40141,0.45518 3.17364,1.36551 0.77849,0.91035 1.16774,2.15344 1.16775,3.72926 m -1.73279,-0.50853 c -0.0251,-1.01707 -0.26683,-1.78929 -0.72513,-2.31666 -0.45204,-0.53364 -1.10498,-0.80047 -1.95881,-0.80048 -0.83501,10e-6 -1.52247,0.27625 -2.06239,0.82873 -0.53993,0.55249 -0.86012,1.31843 -0.96057,2.29783 l 5.7069,-0.009"
         style="font-size:19.28668022px;font-style:normal;font-variant:normal;font-weight:normal;font-stretch:normal;text-align:start;line-height:125%;writing-mode:lr-tb;text-anchor:start;font-family:DejaVu Sans Mono;-inkscape-font-specification:DejaVu Sans Mono"
         id="path4576" />
      <path
         d="m 450.4179,448.81237 0,6.53562 -1.7422,0 0,-6.53562 c -1e-5,-0.948 -0.16638,-1.64489 -0.49912,-2.09065 -0.33275,-0.44574 -0.85384,-0.66862 -1.56328,-0.66863 -0.80989,10e-6 -1.43457,0.28881 -1.87404,0.8664 -0.4332,0.57132 -0.6498,1.39377 -0.6498,2.46734 l 0,5.96116 -1.73279,0 0,-10.5474 1.73279,0 0,1.58211 c 0.30763,-0.6027 0.72513,-1.05787 1.25251,-1.36551 0.52736,-0.3139 1.15204,-0.47086 1.87404,-0.47087 1.07357,1e-5 1.87404,0.35473 2.40142,1.06416 0.53364,0.70317 0.80046,1.77046 0.80047,3.20189"
         style="font-size:19.28668022px;font-style:normal;font-variant:normal;font-weight:normal;font-stretch:normal;text-align:start;line-height:125%;writing-mode:lr-tb;text-anchor:start;font-family:DejaVu Sans Mono;-inkscape-font-specification:DejaVu Sans Mono"
         id="path4578" />
      <path
         d="m 462.11422,454.8112 c -0.4646,0.26997 -0.94488,0.47087 -1.44085,0.60271 -0.48971,0.13812 -0.99196,0.20718 -1.50677,0.20718 -1.63234,0 -2.90996,-0.4897 -3.83285,-1.4691 -0.91662,-0.9794 -1.37493,-2.33549 -1.37493,-4.06828 0,-1.73278 0.45831,-3.08888 1.37493,-4.06829 0.92289,-0.97939 2.20051,-1.46909 3.83285,-1.4691 0.50853,1e-5 1.00451,0.0659 1.48794,0.19776 0.48341,0.13186 0.96997,0.3359 1.45968,0.61213 l 0,1.81754 c -0.45832,-0.40807 -0.91977,-0.70315 -1.38435,-0.88522 -0.45831,-0.18206 -0.9794,-0.2731 -1.56327,-0.27311 -1.08614,10e-6 -1.92114,0.35159 -2.50501,1.05474 -0.58388,0.70317 -0.87581,1.70769 -0.87581,3.01355 0,1.29959 0.29193,2.30411 0.87581,3.01354 0.59015,0.70316 1.42515,1.05474 2.50501,1.05474 0.6027,0 1.14263,-0.091 1.61978,-0.2731 0.47713,-0.18835 0.91975,-0.47714 1.32784,-0.86639 l 0,1.7987"
         style="font-size:19.28668022px;font-style:normal;font-variant:normal;font-weight:normal;font-stretch:normal;text-align:start;line-height:125%;writing-mode:lr-tb;text-anchor:start;font-family:DejaVu Sans Mono;-inkscape-font-specification:DejaVu Sans Mono"
         id="path4580" />
      <path
         d="m 474.19665,449.64109 0,0.84756 -7.50561,0 0,0.0565 c 0,1.14891 0.29821,2.03728 0.89465,2.6651 0.6027,0.62782 1.45026,0.94173 2.54267,0.94173 0.55248,0 1.13007,-0.0879 1.73279,-0.26368 0.6027,-0.17579 1.24622,-0.44262 1.93055,-0.80048 l 0,1.72337 c -0.65922,0.26997 -1.29646,0.47087 -1.91171,0.60271 -0.609,0.13812 -1.19915,0.20718 -1.77046,0.20718 -1.63862,0 -2.91938,-0.4897 -3.84227,-1.4691 -0.9229,-0.98568 -1.38435,-2.34177 -1.38435,-4.06828 0,-1.68256 0.45203,-3.02609 1.3561,-4.03062 0.90406,-1.0045 2.10947,-1.50676 3.61625,-1.50677 1.34353,1e-5 2.40141,0.45518 3.17364,1.36551 0.77849,0.91035 1.16774,2.15344 1.16775,3.72926 m -1.73279,-0.50853 c -0.0251,-1.01707 -0.26683,-1.78929 -0.72513,-2.31666 -0.45204,-0.53364 -1.10498,-0.80047 -1.95881,-0.80048 -0.83501,10e-6 -1.52247,0.27625 -2.06239,0.82873 -0.53993,0.55249 -0.86012,1.31843 -0.96057,2.29783 l 5.7069,-0.009"
         style="font-size:19.28668022px;font-style:normal;font-variant:normal;font-weight:normal;font-stretch:normal;text-align:start;line-height:125%;writing-mode:lr-tb;text-anchor:start;font-family:DejaVu Sans Mono;-inkscape-font-specification:DejaVu Sans Mono"
         id="path4582" />
      <path
         d="m 427.78807,473.74946 0,0.84756 -7.5056,0 0,0.0565 c -10e-6,1.14892 0.29821,2.03729 0.89464,2.66511 0.60271,0.62782 1.45027,0.94173 2.54268,0.94173 0.55248,0 1.13007,-0.0879 1.73279,-0.26369 0.6027,-0.17578 1.24621,-0.44261 1.93055,-0.80047 l 0,1.72337 c -0.65922,0.26997 -1.29646,0.47087 -1.91172,0.60271 -0.60899,0.13812 -1.19914,0.20718 -1.77045,0.20718 -1.63862,0 -2.91938,-0.4897 -3.84227,-1.4691 -0.9229,-0.98568 -1.38435,-2.34177 -1.38435,-4.06828 0,-1.68256 0.45203,-3.0261 1.3561,-4.03062 0.90405,-1.0045 2.10947,-1.50676 3.61625,-1.50677 1.34353,10e-6 2.40141,0.45518 3.17364,1.36551 0.77848,0.91035 1.16773,2.15344 1.16774,3.72926 m -1.73278,-0.50853 c -0.0251,-1.01707 -0.26684,-1.78929 -0.72514,-2.31667 -0.45204,-0.53364 -1.10497,-0.80046 -1.9588,-0.80047 -0.83501,1e-5 -1.52247,0.27625 -2.06239,0.82873 -0.53994,0.55249 -0.86012,1.31843 -0.96057,2.29782 l 5.7069,-0.009"
         style="font-size:19.28668022px;font-style:normal;font-variant:normal;font-weight:normal;font-stretch:normal;text-align:start;line-height:125%;writing-mode:lr-tb;text-anchor:start;font-family:DejaVu Sans Mono;-inkscape-font-specification:DejaVu Sans Mono"
         id="path4584" />
      <path
         d="m 438.81576,472.92074 0,6.53562 -1.7422,0 0,-6.53562 c -10e-6,-0.94801 -0.16639,-1.64489 -0.49912,-2.09065 -0.33276,-0.44574 -0.85385,-0.66862 -1.56328,-0.66863 -0.80989,1e-5 -1.43458,0.28881 -1.87405,0.86639 -0.4332,0.57133 -0.64979,1.39378 -0.64979,2.46734 l 0,5.96117 -1.73279,0 0,-10.5474 1.73279,0 0,1.58211 c 0.30763,-0.6027 0.72513,-1.05787 1.2525,-1.36551 0.52737,-0.31391 1.15205,-0.47086 1.87405,-0.47087 1.07357,10e-6 1.87404,0.35473 2.40142,1.06416 0.53364,0.70317 0.80046,1.77046 0.80047,3.20189"
         style="font-size:19.28668022px;font-style:normal;font-variant:normal;font-weight:normal;font-stretch:normal;text-align:start;line-height:125%;writing-mode:lr-tb;text-anchor:start;font-family:DejaVu Sans Mono;-inkscape-font-specification:DejaVu Sans Mono"
         id="path4586" />
      <path
         d="m 450.51208,478.91957 c -0.4646,0.26997 -0.94488,0.47087 -1.44085,0.60271 -0.48971,0.13812 -0.99197,0.20718 -1.50678,0.20718 -1.63234,0 -2.90995,-0.4897 -3.83285,-1.4691 -0.91662,-0.9794 -1.37493,-2.33549 -1.37493,-4.06828 0,-1.73279 0.45831,-3.08888 1.37493,-4.06829 0.9229,-0.97939 2.20051,-1.46909 3.83285,-1.4691 0.50853,10e-6 1.00451,0.0659 1.48794,0.19776 0.48342,0.13186 0.96998,0.3359 1.45969,0.61213 l 0,1.81754 c -0.45832,-0.40807 -0.91977,-0.70315 -1.38435,-0.88523 -0.45832,-0.18206 -0.97941,-0.27309 -1.56328,-0.2731 -1.08613,1e-5 -1.92113,0.35159 -2.505,1.05474 -0.58388,0.70317 -0.87582,1.70768 -0.87581,3.01355 -1e-5,1.29959 0.29193,2.3041 0.87581,3.01354 0.59014,0.70316 1.42515,1.05474 2.505,1.05474 0.60271,0 1.14263,-0.091 1.61978,-0.2731 0.47714,-0.18835 0.91975,-0.47715 1.32785,-0.8664 l 0,1.79871"
         style="font-size:19.28668022px;font-style:normal;font-variant:normal;font-weight:normal;font-stretch:normal;text-align:start;line-height:125%;writing-mode:lr-tb;text-anchor:start;font-family:DejaVu Sans Mono;-inkscape-font-specification:DejaVu Sans Mono"
         id="path4588" />
      <path
         d="m 462.5945,473.74946 0,0.84756 -7.5056,0 0,0.0565 c -1e-5,1.14892 0.29821,2.03729 0.89464,2.66511 0.60271,0.62782 1.45027,0.94173 2.54268,0.94173 0.55248,0 1.13007,-0.0879 1.73279,-0.26369 0.6027,-0.17578 1.24622,-0.44261 1.93055,-0.80047 l 0,1.72337 c -0.65922,0.26997 -1.29646,0.47087 -1.91172,0.60271 -0.60899,0.13812 -1.19914,0.20718 -1.77045,0.20718 -1.63862,0 -2.91938,-0.4897 -3.84227,-1.4691 -0.9229,-0.98568 -1.38435,-2.34177 -1.38435,-4.06828 0,-1.68256 0.45203,-3.0261 1.3561,-4.03062 0.90406,-1.0045 2.10947,-1.50676 3.61625,-1.50677 1.34353,10e-6 2.40141,0.45518 3.17364,1.36551 0.77849,0.91035 1.16773,2.15344 1.16774,3.72926 m -1.73278,-0.50853 c -0.0251,-1.01707 -0.26684,-1.78929 -0.72514,-2.31667 -0.45204,-0.53364 -1.10497,-0.80046 -1.9588,-0.80047 -0.83501,1e-5 -1.52247,0.27625 -2.06239,0.82873 -0.53993,0.55249 -0.86012,1.31843 -0.96057,2.29782 l 5.7069,-0.009"
         style="font-size:19.28668022px;font-style:normal;font-variant:normal;font-weight:normal;font-stretch:normal;text-align:start;line-height:125%;writing-mode:lr-tb;text-anchor:start;font-family:DejaVu Sans Mono;-inkscape-font-specification:DejaVu Sans Mono"
         id="path4590" />
      <path
         d="m 427.21362,497.02907 0,6.53563 -1.74221,0 0,-6.53563 c -10e-6,-0.948 -0.16638,-1.64488 -0.49912,-2.09064 -0.33275,-0.44575 -0.85384,-0.66862 -1.56327,-0.66863 -0.8099,1e-5 -1.43458,0.28881 -1.87405,0.86639 -0.4332,0.57133 -0.6498,1.39377 -0.64979,2.46734 l 0,5.96117 -1.73279,0 0,-10.54741 1.73279,0 0,1.58211 c 0.30762,-0.60269 0.72513,-1.05786 1.2525,-1.36551 0.52736,-0.3139 1.15205,-0.47085 1.87405,-0.47086 1.07356,10e-6 1.87404,0.35473 2.40141,1.06415 0.53364,0.70317 0.80047,1.77047 0.80048,3.20189"
         style="font-size:19.28668022px;font-style:normal;font-variant:normal;font-weight:normal;font-stretch:normal;text-align:start;line-height:125%;writing-mode:lr-tb;text-anchor:start;font-family:DejaVu Sans Mono;-inkscape-font-specification:DejaVu Sans Mono"
         id="path4592" />
      <path
         d="m 438.90993,503.02791 c -0.46459,0.26996 -0.94488,0.47087 -1.44085,0.60271 -0.48971,0.13812 -0.99196,0.20718 -1.50677,0.20718 -1.63234,0 -2.90996,-0.4897 -3.83285,-1.4691 -0.91662,-0.9794 -1.37493,-2.3355 -1.37493,-4.06829 0,-1.73278 0.45831,-3.08887 1.37493,-4.06828 0.92289,-0.97939 2.20051,-1.46909 3.83285,-1.4691 0.50853,10e-6 1.00451,0.0659 1.48794,0.19776 0.48341,0.13185 0.96997,0.33589 1.45968,0.61213 l 0,1.81754 c -0.45832,-0.40808 -0.91976,-0.70315 -1.38434,-0.88523 -0.45832,-0.18206 -0.97941,-0.27309 -1.56328,-0.2731 -1.08614,1e-5 -1.92114,0.35159 -2.50501,1.05474 -0.58387,0.70317 -0.87581,1.70768 -0.87581,3.01354 0,1.2996 0.29194,2.30411 0.87581,3.01355 0.59015,0.70316 1.42515,1.05474 2.50501,1.05474 0.6027,0 1.14263,-0.091 1.61978,-0.27311 0.47714,-0.18834 0.91975,-0.47714 1.32784,-0.86639 l 0,1.79871"
         style="font-size:19.28668022px;font-style:normal;font-variant:normal;font-weight:normal;font-stretch:normal;text-align:start;line-height:125%;writing-mode:lr-tb;text-anchor:start;font-family:DejaVu Sans Mono;-inkscape-font-specification:DejaVu Sans Mono"
         id="path4594" />
      <path
         d="m 450.99236,497.8578 0,0.84756 -7.50561,0 0,0.0565 c 0,1.14892 0.29822,2.03729 0.89465,2.6651 0.6027,0.62783 1.45026,0.94174 2.54268,0.94174 0.55247,0 1.13007,-0.0879 1.73278,-0.26369 0.6027,-0.17579 1.24622,-0.44261 1.93056,-0.80047 l 0,1.72337 c -0.65923,0.26996 -1.29646,0.47087 -1.91172,0.60271 -0.609,0.13812 -1.19915,0.20718 -1.77046,0.20718 -1.63862,0 -2.91937,-0.4897 -3.84227,-1.4691 -0.9229,-0.98568 -1.38434,-2.34177 -1.38434,-4.06829 0,-1.68255 0.45203,-3.02609 1.35609,-4.03061 0.90406,-1.00451 2.10948,-1.50676 3.61625,-1.50677 1.34354,10e-6 2.40141,0.45518 3.17364,1.36551 0.77849,0.91035 1.16774,2.15343 1.16775,3.72926 m -1.73279,-0.50854 c -0.0251,-1.01706 -0.26683,-1.78928 -0.72513,-2.31666 -0.45204,-0.53364 -1.10497,-0.80046 -1.9588,-0.80047 -0.83501,1e-5 -1.52248,0.27625 -2.0624,0.82872 -0.53993,0.55249 -0.86012,1.31844 -0.96057,2.29783 l 5.7069,-0.009"
         style="font-size:19.28668022px;font-style:normal;font-variant:normal;font-weight:normal;font-stretch:normal;text-align:start;line-height:125%;writing-mode:lr-tb;text-anchor:start;font-family:DejaVu Sans Mono;-inkscape-font-specification:DejaVu Sans Mono"
         id="path4596" />
      <path
         d="m 427.30779,527.13625 c -0.4646,0.26996 -0.94488,0.47086 -1.44085,0.60271 -0.48971,0.13812 -0.99197,0.20718 -1.50677,0.20718 -1.63234,0 -2.90996,-0.4897 -3.83285,-1.46911 -0.91662,-0.9794 -1.37493,-2.33549 -1.37493,-4.06828 0,-1.73278 0.45831,-3.08887 1.37493,-4.06828 0.92289,-0.9794 2.20051,-1.4691 3.83285,-1.46911 0.50853,10e-6 1.0045,0.0659 1.48794,0.19777 0.48341,0.13185 0.96997,0.33589 1.45968,0.61212 l 0,1.81755 c -0.45832,-0.40808 -0.91977,-0.70315 -1.38435,-0.88523 -0.45831,-0.18206 -0.97941,-0.27309 -1.56327,-0.2731 -1.08614,10e-6 -1.92114,0.35159 -2.50501,1.05474 -0.58388,0.70316 -0.87581,1.70768 -0.87581,3.01354 0,1.2996 0.29193,2.30411 0.87581,3.01354 0.59015,0.70317 1.42515,1.05475 2.50501,1.05474 0.6027,10e-6 1.14263,-0.091 1.61978,-0.2731 0.47713,-0.18834 0.91975,-0.47714 1.32784,-0.86639 l 0,1.79871"
         style="font-size:19.28668022px;font-style:normal;font-variant:normal;font-weight:normal;font-stretch:normal;text-align:start;line-height:125%;writing-mode:lr-tb;text-anchor:start;font-family:DejaVu Sans Mono;-inkscape-font-specification:DejaVu Sans Mono"
         id="path4598" />
      <path
         d="m 439.39022,521.96614 0,0.84756 -7.50561,0 0,0.0565 c 0,1.14892 0.29821,2.03728 0.89465,2.6651 0.6027,0.62783 1.45026,0.94174 2.54267,0.94173 0.55248,10e-6 1.13007,-0.0879 1.73279,-0.26368 0.6027,-0.17579 1.24622,-0.44261 1.93055,-0.80047 l 0,1.72337 c -0.65922,0.26996 -1.29646,0.47086 -1.91171,0.60271 -0.609,0.13812 -1.19915,0.20718 -1.77046,0.20718 -1.63862,0 -2.91938,-0.4897 -3.84227,-1.46911 -0.9229,-0.98567 -1.38435,-2.34177 -1.38435,-4.06828 0,-1.68255 0.45203,-3.02609 1.3561,-4.03061 0.90406,-1.00451 2.10947,-1.50677 3.61625,-1.50678 1.34353,10e-6 2.40141,0.45518 3.17364,1.36552 0.77849,0.91035 1.16774,2.15343 1.16775,3.72926 m -1.73279,-0.50854 c -0.0251,-1.01706 -0.26683,-1.78928 -0.72513,-2.31666 -0.45204,-0.53364 -1.10498,-0.80046 -1.95881,-0.80047 -0.83501,10e-6 -1.52247,0.27625 -2.06239,0.82872 -0.53993,0.55249 -0.86012,1.31843 -0.96057,2.29783 l 5.7069,-0.009"
         style="font-size:19.28668022px;font-style:normal;font-variant:normal;font-weight:normal;font-stretch:normal;text-align:start;line-height:125%;writing-mode:lr-tb;text-anchor:start;font-family:DejaVu Sans Mono;-inkscape-font-specification:DejaVu Sans Mono"
         id="path4600" />
      <path
         d="m 427.78807,546.07447 0,0.84756 -7.5056,0 0,0.0565 c -10e-6,1.14891 0.29821,2.03728 0.89464,2.6651 0.60271,0.62782 1.45027,0.94173 2.54268,0.94173 0.55248,0 1.13007,-0.0879 1.73279,-0.26368 0.6027,-0.17579 1.24621,-0.44262 1.93055,-0.80048 l 0,1.72337 c -0.65922,0.26997 -1.29646,0.47087 -1.91172,0.60271 -0.60899,0.13812 -1.19914,0.20718 -1.77045,0.20718 -1.63862,0 -2.91938,-0.4897 -3.84227,-1.4691 -0.9229,-0.98568 -1.38435,-2.34177 -1.38435,-4.06828 0,-1.68256 0.45203,-3.02609 1.3561,-4.03062 0.90405,-1.0045 2.10947,-1.50676 3.61625,-1.50677 1.34353,10e-6 2.40141,0.45518 3.17364,1.36551 0.77848,0.91035 1.16773,2.15344 1.16774,3.72926 m -1.73278,-0.50853 c -0.0251,-1.01707 -0.26684,-1.78929 -0.72514,-2.31666 -0.45204,-0.53364 -1.10497,-0.80047 -1.9588,-0.80048 -0.83501,10e-6 -1.52247,0.27625 -2.06239,0.82873 -0.53994,0.55249 -0.86012,1.31843 -0.96057,2.29783 l 5.7069,-0.009"
         style="font-size:19.28668022px;font-style:normal;font-variant:normal;font-weight:normal;font-stretch:normal;text-align:start;line-height:125%;writing-mode:lr-tb;text-anchor:start;font-family:DejaVu Sans Mono;-inkscape-font-specification:DejaVu Sans Mono"
         id="path4602" />
    </g>
    <text
       xml:space="preserve"
       style="font-size:19.28668022px;font-style:normal;font-variant:normal;font-weight:normal;font-stretch:normal;text-align:start;line-height:125%;letter-spacing:0px;word-spacing:0px;writing-mode:lr-tb;text-anchor:start;fill:#000000;fill-opacity:1;stroke:none;font-family:Verdana;-inkscape-font-specification:Verdana"
       x="353.83334"
       y="409.89124"
       id="text9698"
       sodipodi:linespacing="125%"><tspan
         sodipodi:role="line"
         x="353.83334"
         y="409.89124"
         id="tspan9700"><tspan
           x="353.83334"
           y="409.89124"
           id="tspan9702">5</tspan><tspan
           dx="0"
           x="366.11356"
           y="409.89124"
           id="tspan9704" /></tspan><tspan
         sodipodi:role="line"
         x="353.83334"
         y="433.9996"
         id="tspan9706"><tspan
           x="353.83334"
           y="433.9996"
           id="tspan9708">1</tspan><tspan
           dx="0"
           x="366.11356"
           y="433.9996"
           id="tspan9710" /></tspan><tspan
         sodipodi:role="line"
         x="353.83334"
         y="458.10794"
         id="tspan9712"><tspan
           x="353.83334"
           y="458.10794"
           id="tspan9714">6</tspan><tspan
           dx="0"
           x="366.11356"
           y="458.10794"
           id="tspan9716" /></tspan><tspan
         sodipodi:role="line"
         x="353.83334"
         y="482.21628"
         id="tspan9718"><tspan
           x="353.83334"
           y="482.21628"
           id="tspan9720">3</tspan><tspan
           dx="0"
           x="366.11356"
           y="482.21628"
           id="tspan9722" /></tspan><tspan
         sodipodi:role="line"
         x="353.83334"
         y="506.32462"
         id="tspan9724"><tspan
           x="353.83334"
           y="506.32462"
           id="tspan9726">2</tspan><tspan
           dx="0"
           x="366.11356"
           y="506.32462"
           id="tspan9728" /></tspan><tspan
         sodipodi:role="line"
         x="353.83334"
         y="530.43298"
         id="tspan9730"><tspan
           x="353.83334"
           y="530.43298"
           id="tspan9732">4</tspan><tspan
           dx="0"
           x="366.11356"
           y="530.43298"
           id="tspan9734" /></tspan><tspan
         sodipodi:role="line"
         x="353.83334"
         y="554.54132"
         id="tspan9736"><tspan
           x="353.83334"
           y="554.54132"
           id="tspan9738">0</tspan></tspan></text>
    <path
       style="fill:none;stroke:#000000;stroke-width:1.00687659px;stroke-linecap:butt;stroke-linejoin:miter;stroke-opacity:1"
       d="m 348.78547,414.53148 22.47492,0.17979"
       id="path6996"
       inkscape:connector-curvature="0" />
    <path
       style="fill:none;stroke:#000000;stroke-width:1.00687659px;stroke-linecap:butt;stroke-linejoin:miter;stroke-opacity:1"
       d="m 348.87538,439.07409 22.47491,0.1798"
       id="path6996-4"
       inkscape:connector-curvature="0" />
    <path
       style="fill:none;stroke:#000000;stroke-width:1.00687659px;stroke-linecap:butt;stroke-linejoin:miter;stroke-opacity:1"
       d="m 348.69557,462.62781 22.47492,0.1798"
       id="path6996-42"
       inkscape:connector-curvature="0" />
    <path
       style="fill:none;stroke:#000000;stroke-width:1.00687659px;stroke-linecap:butt;stroke-linejoin:miter;stroke-opacity:1"
       d="m 348.69557,487.08054 22.47492,0.17979"
       id="path6996-7"
       inkscape:connector-curvature="0" />
    <path
       style="fill:none;stroke:#000000;stroke-width:1.00687659px;stroke-linecap:butt;stroke-linejoin:miter;stroke-opacity:1"
       d="m 348.87538,512.43224 22.47491,0.1798"
       id="path6996-5"
       inkscape:connector-curvature="0" />
    <path
       style="fill:none;stroke:#000000;stroke-width:1.00687659px;stroke-linecap:butt;stroke-linejoin:miter;stroke-opacity:1"
       d="m 349.05517,535.26677 22.47491,0.1798"
       id="path6996-3"
       inkscape:connector-curvature="0" />
    <path
       style="fill:none;stroke:#000000;stroke-width:0.7048136;stroke-linecap:butt;stroke-linejoin:miter;stroke-miterlimit:4;stroke-opacity:1;stroke-dasharray:0.70481361, 0.70481361;stroke-dashoffset:0;marker-end:url(#Arrow1Mend)"
       d="m 371.36729,403.03947 41.1925,116.96637"
       id="path7044"
       inkscape:connector-curvature="0" />
    <path
       style="fill:none;stroke:#000000;stroke-width:0.7048136;stroke-linecap:butt;stroke-linejoin:miter;stroke-miterlimit:4;stroke-opacity:1;stroke-dasharray:0.70481361, 0.70481361;stroke-dashoffset:0;marker-start:none;marker-end:url(#Arrow1Mend)"
       d="m 371.36729,427.70412 41.95533,-1.27137"
       id="path7046"
       inkscape:connector-curvature="0" />
    <path
       style="fill:none;stroke:#000000;stroke-width:0.7048136;stroke-linecap:butt;stroke-linejoin:miter;stroke-miterlimit:4;stroke-opacity:1;stroke-dasharray:0.70481361, 0.70481361;stroke-dashoffset:0;marker-end:url(#Arrow1Mend)"
       d="m 371.36729,451.35167 41.44678,92.55601"
       id="path7048"
       inkscape:connector-curvature="0" />
    <path
       style="fill:none;stroke:#000000;stroke-width:0.7048136;stroke-linecap:butt;stroke-linejoin:miter;stroke-miterlimit:4;stroke-opacity:1;stroke-dasharray:0.70481361, 0.70481361;stroke-dashoffset:0;marker-end:url(#Arrow1Mend)"
       d="m 371.11302,476.01633 42.97242,-1.27138"
       id="path7050"
       inkscape:connector-curvature="0" />
    <path
       style="fill:none;stroke:#000000;stroke-width:0.7048136;stroke-linecap:butt;stroke-linejoin:miter;stroke-miterlimit:4;stroke-opacity:1;stroke-dasharray:0.70481361, 0.70481361;stroke-dashoffset:0;marker-mid:none;marker-end:url(#Arrow1Mend)"
       d="m 371.36729,500.68097 41.95533,-52.12632"
       id="path7052"
       inkscape:connector-curvature="0" />
    <path
       style="fill:none;stroke:#000000;stroke-width:0.7048136;stroke-linecap:butt;stroke-linejoin:miter;stroke-miterlimit:4;stroke-opacity:1;stroke-dasharray:0.70481361, 0.70481361;stroke-dashoffset:0;marker-end:url(#Arrow1Mend)"
       d="m 371.62156,524.32852 42.46388,-25.1732"
       id="path7054"
       inkscape:connector-curvature="0" />
    <path
       style="fill:none;stroke:#000000;stroke-width:0.7048136;stroke-linecap:butt;stroke-linejoin:miter;stroke-miterlimit:4;stroke-opacity:1;stroke-dasharray:0.70481361, 0.70481361;stroke-dashoffset:0;marker-end:url(#Arrow1Mend)"
       d="M 371.36596,548.99449 413.83219,405.05997"
       id="path7056"
       inkscape:connector-curvature="0" />
  </g>
</svg>
