<?xml version="1.0" encoding="UTF-8" standalone="no"?>
<!-- Created with Inkscape (http://www.inkscape.org/) -->

<svg
   xmlns:dc="http://purl.org/dc/elements/1.1/"
   xmlns:cc="http://creativecommons.org/ns#"
   xmlns:rdf="http://www.w3.org/1999/02/22-rdf-syntax-ns#"
   xmlns:svg="http://www.w3.org/2000/svg"
   xmlns="http://www.w3.org/2000/svg"
   xmlns:xlink="http://www.w3.org/1999/xlink"
   xmlns:sodipodi="http://sodipodi.sourceforge.net/DTD/sodipodi-0.dtd"
   xmlns:inkscape="http://www.inkscape.org/namespaces/inkscape"
   width="396.59949"
   height="395.34512"
   id="svg2"
   version="1.1"
   inkscape:version="0.48.4 r9939"
   sodipodi:docname="drawing.svg">
  <defs
     id="defs4">
    <clipPath
       id="p7ff5b81e1d">
      <rect
         height="345.60001"
         width="446.39999"
         x="72"
         y="43.200001"
         id="rect268" />
    </clipPath>
    <clipPath
       id="clipPath3261">
      <rect
         height="345.60001"
         width="446.39999"
         x="72"
         y="43.200001"
         id="rect3263" />
    </clipPath>
    <clipPath
       id="clipPath3265">
      <rect
         height="345.60001"
         width="446.39999"
         x="72"
         y="43.200001"
         id="rect3267" />
    </clipPath>
    <clipPath
       id="clipPath3269">
      <rect
         height="345.60001"
         width="446.39999"
         x="72"
         y="43.200001"
         id="rect3271" />
    </clipPath>
    <clipPath
       id="clipPath3273">
      <rect
         height="345.60001"
         width="446.39999"
         x="72"
         y="43.200001"
         id="rect3275" />
    </clipPath>
    <clipPath
       id="clipPath3277">
      <rect
         height="345.60001"
         width="446.39999"
         x="72"
         y="43.200001"
         id="rect3279" />
    </clipPath>
  </defs>
  <sodipodi:namedview
     id="base"
     pagecolor="#ffffff"
     bordercolor="#666666"
     borderopacity="1.0"
     inkscape:pageopacity="0.0"
     inkscape:pageshadow="2"
     inkscape:zoom="0.98994949"
     inkscape:cx="496.7047"
     inkscape:cy="105.37369"
     inkscape:document-units="px"
     inkscape:current-layer="layer1"
     showgrid="false"
     inkscape:window-width="1440"
     inkscape:window-height="839"
     inkscape:window-x="0"
     inkscape:window-y="22"
     inkscape:window-maximized="1"
     fit-margin-top="10"
     fit-margin-left="10"
     fit-margin-right="10"
     fit-margin-bottom="10" />
  <metadata
     id="metadata7">
    <rdf:RDF>
      <cc:Work
         rdf:about="">
        <dc:format>image/svg+xml</dc:format>
        <dc:type
           rdf:resource="http://purl.org/dc/dcmitype/StillImage" />
        <dc:title />
      </cc:Work>
    </rdf:RDF>
  </metadata>
  <g
     inkscape:label="Layer 1"
     inkscape:groupmode="layer"
     id="layer1"
     transform="translate(449.80205,-285.46865)">
    <g
       id="g3169"
       transform="matrix(0.56679099,0,0,0.56679099,-190.52621,127.99968)">
      <g
         id="figure_1"
         transform="matrix(1.1535444,0,0,1.5329362,-439.80205,295.46866)">
        <g
           id="patch_1">
          <path
             id="path10"
             style="fill:#ffffff"
             d="M 0,432 576,432 576,0 0,0 z"
             inkscape:connector-curvature="0" />
        </g>
        <g
           id="axes_1">
          <g
             id="patch_2">
            <path
               id="path14"
               style="fill:#ffffff"
               d="m 72,388.8 446.4,0 0,-345.6 -446.4,0 z"
               inkscape:connector-curvature="0" />
          </g>
          <g
             id="LineCollection_1">
            <defs
               id="defs17">
              <path
                 id="C0_0_82eff6ac93"
                 d="m 259.617,-43.5088 0,0 -0.588,-0.3089 0,0 -0.588,-0.3088 0,0 -0.588,-0.3089 0,0 -0.588,-0.3088 0,0 -0.588,-0.3089 0,0 -0.588,-0.3088 0,0 -0.589,-0.3089 0,0 -0.588,-0.3088 0,0 -0.588,-0.3089 0,0 -0.588,-0.3088 0,0 -0.588,-0.3089 0,0 -0.588,-0.3088 0,0 -0.588,-0.3089 0,0 -0.589,-0.3088 0,0 -0.588,-0.3089 0,0 -0.588,-0.3088 0,0 -0.588,-0.3088 0,0 -0.588,-0.3089 0,0 -0.588,-0.3088 0,0 -0.588,-0.3089 0,0 -0.589,-0.3088 0,0 -0.588,-0.3089 0,0 -0.588,-0.3088 0,0 -0.588,-0.3089 0,0 -0.588,-0.3088 0,0 -0.588,-0.3089 0,0 -0.588,-0.3088 0,0 -0.589,-0.3089 0,0 -0.588,-0.3088 0,0 -0.588,-0.3089 0,0 -0.588,-0.3088 0,0 -0.588,-0.3089 0,0 -0.588,-0.3088 0,0 -0.588,-0.3089 0,0 -0.589,-0.3088 0,0 -0.588,-0.3088 0,0 -0.588,-0.3089 0,0 -0.588,-0.3088 0,0 -0.588,-0.3089 0,0 -0.588,-0.3088 0,0 -0.588,-0.3089 0,0 -0.589,-0.3088 0,0 -0.588,-0.3089 0,0 -0.588,-0.3088 0,0 -0.588,-0.3089 0,0 -0.588,-0.3088 0,0 -0.588,-0.3089 0,0 -0.588,-0.3088 0,0 -0.589,-0.3089 0,0 -0.588,-0.3088 0,0 -0.588,-0.3089 0,0 -0.588,-0.3088 0,0 -0.588,-0.3088 0,0 -0.588,-0.3089 0,0 -0.588,-0.3088 0,0 -0.589,-0.3089 0,0 -0.588,-0.3088 0,0 -0.588,-0.3089 0,0 -0.588,-0.3088 0,0 -0.588,-0.3089 0,0 -0.588,-0.3088 0,0 -0.588,-0.3089 0,0 -0.589,-0.3088 0,0 -0.588,-0.3089 0,0 -0.588,-0.3088 0,0 -0.588,-0.3089 0,0 -0.588,-0.3088 0,0 -0.588,-0.3089 0,0 -0.588,-0.3088 0,0 -0.589,-0.3089 0,0 -0.588,-0.3088 0,0 -0.588,-0.3088 0,0 -0.588,-0.3089 0,0 -0.588,-0.3088 0,0 -0.588,-0.3089 0,0 -0.588,-0.3088 0,0 -0.589,-0.3089 0,0 -0.588,-0.3088 0,0 -0.588,-0.3089 0,0 -0.588,-0.3088 0,0 -0.588,-0.3089 0,0 -0.588,-0.3088 0,0 -0.588,-0.3089 0,0 -0.589,-0.3088 0,0 -0.588,-0.3089 0,0 -0.588,-0.3088 0,0 -0.588,-0.3089 0,0 -0.588,-0.3088 0,0 -0.588,-0.3088 0,0 -0.588,-0.3089 0,0 -0.589,-0.3088 0,0 -0.588,-0.3089 0,0 -0.588,-0.3088 0,0 -0.588,-0.3089 0,0 -0.588,-0.3088 0,0 -0.588,-0.3089 0,0 -0.588,-0.3088 0,0 -0.589,-0.3089 0,0 -0.588,-0.3088 0,0 -0.588,-0.3089 0,0 -0.588,-0.3088 0,0 -0.588,-0.3089 0,0 -0.588,-0.3088 0,0 -0.588,-0.3089 0,0 -0.589,-0.3088 0,0 -0.588,-0.3088 0,0 -0.588,-0.3089 0,0 -0.588,-0.3088 0,0 -0.588,-0.3089 0,0 -0.588,-0.3088 0,0 -0.588,-0.3089 0,0 -0.589,-0.3088 0,0 -0.588,-0.3089 0,0 -0.588,-0.3088 0,0 -0.588,-0.3089 0,0 -0.588,-0.3088 0,0 -0.588,-0.3089 0,0 -0.588,-0.3088 0,0 -0.589,-0.3089 0,0 -0.588,-0.3088 0,0 -0.588,-0.3089 0,0 -0.588,-0.3088 0,0 -0.588,-0.3089 0,0 -0.588,-0.3088 0,0 -0.588,-0.3088 0,0 -0.589,-0.3089 0,0 -0.588,-0.3088 0,0 -0.588,-0.3089 0,0 -0.588,-0.3088 0,0 -0.588,-0.3089 0,0 -0.588,-0.3088 0,0 -0.588,-0.3089 0,0 -0.589,-0.3088 0,0 -0.588,-0.3089 0,0 -0.588,-0.3088 0,0 -0.588,-0.3089 0,0 -0.588,-0.3088 0,0 -0.588,-0.3089 0,0 -0.588,-0.3088 0,0 -0.589,-0.3089 0,0 -0.588,-0.3088 0,0 -0.588,-0.3088 0,0 -0.588,-0.3089 0,0 -0.588,-0.3088 0,0 -0.588,-0.3089 0,0 -0.588,-0.3088 0,0 -0.589,-0.3089 0,0 -0.588,-0.3088 0,0 -0.588,-0.3089 0,0 -0.588,-0.3088 0,0 -0.588,-0.3089 0,0 -0.588,-0.3088 0,0 -0.588,-0.3089 0,0 -0.589,-0.3088 0,0 -0.588,-0.3089 0,0 -0.588,-0.3088 0,0 -0.588,-0.3089 0,0 -0.588,-0.3088 0,0 -0.588,-0.3088 0,0 -0.588,-0.3089 0,0 -0.589,-0.3088 0,0 -0.588,-0.3089 0,0 -0.588,-0.3088 0,0 -0.588,-0.3089 0,0 -0.588,-0.3088 0,0 -0.588,-0.3089 0,0 -0.588,-0.3088 0,0 -0.589,-0.3089 0,0 -0.588,-0.3088 0,0 -0.588,-0.3089 0,0 -0.588,-0.3088 0,0 -0.588,-0.3089 0,0 -0.588,-0.3088 0,0 -0.588,-0.3089 0,0 -0.589,-0.3088 0,0 -0.588,-0.3089 0,0 -0.588,-0.3088 0,0 -0.588,-0.3088 0,0 -0.588,-0.3089 0,0 -0.588,-0.3088 0,0 -0.588,-0.3089 0,0 -0.589,-0.3088 0,0 -0.588,-0.309 0,0 -0.588,-0.309 0,0 -0.588,-0.309 0,0 -0.588,-0.308 0,0 -0.588,-0.309 0,0 -0.588,-0.309 0,0 -0.589,-0.309 0,0 -0.588,-0.309 0,0 -0.588,-0.309 0,0 -0.588,-0.309 0,0 -0.588,-0.308 0,0 -0.588,-0.309 0,0 -0.588,-0.309 0,0 -0.588,-0.309 0,0 -0.589,-0.309 0,0 -0.588,-0.309 0,0 -0.588,-0.308 0,0 -0.588,-0.309 0,0 -0.588,-0.309 0,0 -0.588,-0.309 0,0 -0.588,-0.309 0,0 -0.589,-0.309 0,0 -0.588,-0.309 0,0 -0.588,-0.308 0,0 -0.588,-0.309 0,0 -0.588,-0.309 0,0 -0.588,-0.309 0,0 -0.588,-0.309 0,0 -0.589,-0.309 0,0 -0.588,-0.308 0,0 -0.588,-0.309 0,0 -0.588,-0.309 0,0 -0.588,-0.309 0,0 -0.588,-0.309 0,0 -0.588,-0.309 0,0 -0.589,-0.309 0,0 -0.588,-0.308 0,0 -0.588,-0.309 0,0 -0.588,-0.309 0,0 -0.588,-0.309 0,0 -0.588,-0.309 0,0 -0.588,-0.309 0,0 -0.589,-0.308 0,0 -0.588,-0.309 0,0 -0.588,-0.309 0,0 -0.588,-0.309 0,0 -0.588,-0.309 0,0 -0.588,-0.309 0,0 -0.588,-0.309 0,0 -0.589,-0.308 0,0 -0.588,-0.309 0,0 -0.588,-0.309 0,0 -0.588,-0.309 0,0 -0.588,-0.309 0,0 -0.588,-0.309 0,0 -0.588,-0.308 0,0 -0.589,-0.309 0,0 -0.588,-0.309 0,0 -0.588,-0.309 0,0 -0.588,-0.309 0,0 -0.588,-0.309 0,0 -0.588,-0.309 0,0 -0.588,-0.308 0,0 -0.589,-0.309 0,0 -0.588,-0.309 0,0 -0.588,-0.309 0,0 -0.588,-0.309 0,0 -0.588,-0.309 0,0 -0.588,-0.308 0,0 -0.588,-0.309 0,0 -0.589,-0.309 0,0 -0.588,-0.309 0,0 -0.588,-0.309 0,0 -0.588,-0.309 0,0 -0.588,-0.309 0,0 -0.588,-0.308 0,0 -0.588,-0.309 0,0 -0.589,-0.309 0,0 -0.588,-0.309 0,0 -0.588,-0.309 0,0 -0.588,-0.309 0,0 -0.588,-0.309 0,0 -0.588,-0.308 0,0 -0.588,-0.309 0,0 -0.589,-0.309 0,0 -0.588,-0.309 0,0 -0.588,-0.309 0,0 -0.588,-0.309 0,0 -0.588,-0.308 0,0 -0.5883,-0.309 0,0 -0.5882,-0.309 0,0 -0.5881,-0.309 0,0 -0.5881,-0.309 0,0 -0.5882,-0.309 0,0 -0.5881,-0.309 0,0 -0.5882,-0.308 0,0 -0.5881,-0.309 0,0 -0.5882,-0.309 0,0 -0.5881,-0.309 0,0 -0.5881,-0.309 0,0 -0.5882,-0.309 0,0 -0.5881,-0.308 0,0 -0.5882,-0.309 0,0 -0.5881,-0.309 0,0 -0.5881,-0.309 0,0 -0.5882,-0.309 0,0 -0.5881,-0.309 0,0 -0.5882,-0.309 0,0 -0.5881,-0.308 0,0 -0.5882,-0.309 0,0 -0.5881,-0.309 0,0 -0.5881,-0.309 0,0 -0.5882,-0.309 0,0 -0.5881,-0.309 0,0 -0.5882,-0.308 0,0 -0.5881,-0.309 0,0 -0.5882,-0.309 0,0 -0.5881,-0.309 0,0 -0.5881,-0.309 0,0 -0.5882,-0.309 0,0 -0.5881,-0.309 0,0 -0.5882,-0.308 0,0 -0.5881,-0.309 0,0 -0.5882,-0.309 0,0 -0.5881,-0.309 0,0 -0.5881,-0.309 0,0 -0.5882,-0.309 0,0 -0.5881,-0.308 0,0 -0.5882,-0.309 0,0 -0.5881,-0.309 0,0 -0.5881,-0.309 0,0 -0.5882,-0.309 0,0 -0.5881,-0.309 0,0 -0.5882,-0.309 0,0 -0.5881,-0.308 0,0 -0.5882,-0.309 0,0 -0.5881,-0.309 0.5881,-0.309 0,0 0.5882,-0.309 0,0 0.5881,-0.309 0,0 0.5882,-0.308 0,0 0.5881,-0.309 0,0 0.5882,-0.309 0,0 0.5881,-0.309 0,0 0.5881,-0.309 0,0 0.5882,-0.309 0,0 0.5881,-0.309 0,0 0.5882,-0.308 0,0 0.5881,-0.309 0,0 0.5881,-0.309 0,0 0.5882,-0.309 0,0 0.5881,-0.309 0,0 0.5882,-0.309 0,0 0.5881,-0.309 0,0 0.5882,-0.308 0,0 0.5881,-0.309 0,0 0.5881,-0.309 0,0 0.5882,-0.309 0,0 0.5881,-0.309 0,0 0.5882,-0.309 0,0 0.5881,-0.308 0,0 0.5882,-0.309 0,0 0.5881,-0.309 0,0 0.5881,-0.309 0,0 0.5882,-0.309 0,0 0.5881,-0.309 0,0 0.5882,-0.309 0,0 0.5881,-0.308 0,0 0.5882,-0.309 0,0 0.5881,-0.309 0,0 0.5881,-0.309 0,0 0.5882,-0.309 0,0 0.5881,-0.309 0,0 0.5882,-0.308 0,0 0.5881,-0.309 0,0 0.5881,-0.309 0,0 0.5882,-0.309 0,0 0.5881,-0.309 0,0 0.5882,-0.309 0,0 0.5881,-0.309 0,0 0.5882,-0.308 0,0 0.5881,-0.309 0,0 0.5881,-0.309 0,0 0.5882,-0.309 0,0 0.5883,-0.309 0,0 0.588,-0.309 0,0 0.588,-0.308 0,0 0.588,-0.309 0,0 0.588,-0.309 0,0 0.589,-0.309 0,0 0.588,-0.309 0,0 0.588,-0.309 0,0 0.588,-0.309 0,0 0.588,-0.308 0,0 0.588,-0.309 0,0 0.588,-0.309 0,0 0.589,-0.309 0,0 0.588,-0.309 0,0 0.588,-0.309 0,0 0.588,-0.308 0,0 0.588,-0.309 0,0 0.588,-0.309 0,0 0.588,-0.309 0,0 0.589,-0.309 0,0 0.588,-0.309 0,0 0.588,-0.309 0,0 0.588,-0.308 0,0 0.588,-0.309 0,0 0.588,-0.309 0,0 0.588,-0.309 0,0 0.589,-0.309 0,0 0.588,-0.309 0,0 0.588,-0.308 0,0 0.588,-0.309 0,0 0.588,-0.309 0,0 0.588,-0.309 0,0 0.588,-0.309 0,0 0.589,-0.309 0,0 0.588,-0.309 0,0 0.588,-0.308 0,0 0.588,-0.309 0,0 0.588,-0.309 0,0 0.588,-0.309 0,0 0.588,-0.309 0,0 0.589,-0.309 0,0 0.588,-0.308 0,0 0.588,-0.309 0,0 0.588,-0.309 0,0 0.588,-0.309 0,0 0.588,-0.309 0,0 0.588,-0.309 0,0 0.589,-0.309 0,0 0.588,-0.308 0,0 0.588,-0.309 0,0 0.588,-0.309 0,0 0.588,-0.309 0,0 0.588,-0.309 0,0 0.588,-0.309 0,0 0.589,-0.309 0,0 0.588,-0.308 0,0 0.588,-0.309 0,0 0.588,-0.309 0,0 0.588,-0.309 0,0 0.588,-0.309 0,0 0.588,-0.309 0,0 0.589,-0.308 0,0 0.588,-0.309 0,0 0.588,-0.309 0,0 0.588,-0.309 0,0 0.588,-0.309 0,0 0.588,-0.309 0,0 0.588,-0.309 0,0 0.589,-0.308 0,0 0.588,-0.309 0,0 0.588,-0.309 0,0 0.588,-0.309 0,0 0.588,-0.309 0,0 0.588,-0.309 0,0 0.588,-0.308 0,0 0.589,-0.309 0,0 0.588,-0.309 0,0 0.588,-0.309 0,0 0.588,-0.309 0,0 0.588,-0.309 0,0 0.588,-0.309 0,0 0.588,-0.308 0,0 0.588,-0.309 0,0 0.589,-0.309 0,0 0.588,-0.309 0,0 0.588,-0.309 0,0 0.588,-0.309 0,0 0.588,-0.308 0,0 0.588,-0.309 0,0 0.588,-0.309 0,0 0.589,-0.309 0,0 0.588,-0.309 0,0 0.588,-0.309 0,0 0.588,-0.309 0,0 0.588,-0.308 0,0 0.588,-0.309 0,0 0.588,-0.309 0,0 0.589,-0.309 0,0 0.588,-0.309 0,0 0.588,-0.309 0,0 0.588,-0.308 0,0 0.588,-0.309 0,0 0.588,-0.309 0,0 0.588,-0.309 0,0 0.589,-0.309 0,0 0.588,-0.309 0,0 0.588,-0.309 0,0 0.588,-0.308 0,0 0.588,-0.309 0,0 0.588,-0.309 0,0 0.588,-0.309 0,0 0.589,-0.309 0,0 0.588,-0.309 0,0 0.588,-0.308 0,0 0.588,-0.309 0,0 0.588,-0.309 0,0 0.588,-0.309 0,0 0.588,-0.309 0,0 0.589,-0.309 0,0 0.588,-0.309 0,0 0.588,-0.308 0,0 0.588,-0.309 0,0 0.588,-0.309 0,0 0.588,-0.309 0,0 0.588,-0.309 0,0 0.589,-0.309 0,0 0.588,-0.309 0,0 0.588,-0.308 0,0 0.588,-0.309 0,0 0.588,-0.309 0,0 0.588,-0.309 0,0 0.588,-0.309 0,0 0.589,-0.309 0,0 0.588,-0.308 0,0 0.588,-0.309 0,0 0.588,-0.309 0,0 0.588,-0.309 0,0 0.588,-0.309 0,0 0.588,-0.309 0,0 0.589,-0.309 0,0 0.588,-0.308 0,0 0.588,-0.309 0,0 0.588,-0.309 0,0 0.588,-0.309 0,0 0.588,-0.309 0,0 0.588,-0.309 0,0 0.589,-0.308 0,0 0.588,-0.309 0,0 0.588,-0.309 0,0 0.588,-0.309 0,0 0.588,-0.309 0,0 0.588,-0.309 0,0 0.588,-0.309 0,0 0.589,-0.308 0,0 0.588,-0.309 0,0 0.588,-0.309 0,0 0.588,-0.309 0,0 0.588,-0.309 0,0 0.588,-0.309 0,0 0.588,-0.308 0,0 0.589,-0.309 0,0 0.588,-0.309 0,0 0.588,-0.309 0,0 0.588,-0.309 0,0 0.588,-0.309 0,0 0.588,-0.309 0,0 0.588,-0.308 0,0 0.589,-0.309 0,0 0.588,-0.309 0,0 0.588,-0.309 0,0 0.588,-0.309 0,0 0.588,-0.309 0,0 0.588,-0.308 0,0 0.588,-0.309 0,0 0.589,-0.309 0,0 0.588,-0.309 0,0 0.588,-0.309 0,0 0.588,-0.309 0,0 0.588,-0.309 0,0 0.588,-0.308 0,0 0.588,-0.309 0,0 0.589,-0.309 0,0 0.588,-0.309 0,0 0.588,-0.309 0,0 0.588,-0.309 0,0 0.588,-0.308 0,0 0.588,-0.309 0,0 0.588,-0.309 0,0 0.589,-0.309 0,0 0.588,-0.309 0,0 0.588,-0.309 0,0 0.588,-0.309 0,0 0.588,-0.308 0,0 0.588,-0.309 0,0 0.588,-0.309 0,0 0.589,-0.309 0,0 0.588,-0.309 0,0 0.588,-0.309 0,0 0.588,-0.309 0,0 0.588,-0.308 0,0 0.588,-0.309 0,0 0.588,-0.309 0,0 0.589,-0.309 0,0 0.588,-0.309 0,0 0.588,-0.309 0,0 0.588,-0.308 0,0 0.588,-0.309 0,0 0.588,-0.309 0,0 0.588,-0.309 0,0 0.589,-0.309 0,0 0.588,-0.309 0,0 0.588,-0.309 0,0 0.588,-0.308 0,0 0.588,-0.309 0,0 0.588,-0.309 0,0 0.588,-0.309 0,0 0.589,-0.309 0,0 0.588,-0.309 0,0 0.588,-0.308 0,0 0.588,-0.309 0,0 0.588,-0.309 0,0 0.588,-0.309 0,0 0.588,-0.309 0,0 0.589,-0.309 0,0 0.588,-0.309 0,0 0.588,-0.308 0,0 0.588,-0.309 0,0 0.588,-0.309 0,0 0.588,-0.309 0,0 0.588,-0.309 0,0 0.589,-0.309 0,0 0.588,-0.308 0,0 0.588,-0.309 0,0 0.588,-0.309 0,0 0.588,-0.309 0,0 0.588,-0.309 0,0 0.588,-0.309 0,0 0.589,-0.309 0,0 0.588,-0.308 0,0 0.588,-0.309 0,0 0.588,-0.309 0,0 0.588,-0.309 0,0 0.588,-0.309 0,0 0.588,-0.309 0,0 0.589,-0.308 0,0 0.588,-0.309 0,0 0.588,-0.309 0,0 0.588,-0.309 0,0 0.588,-0.309 0,0 0.588,-0.309 0,0 0.588,-0.309 0,0 0.589,-0.308 0,0 0.588,-0.309 0,0 0.588,-0.309 0,0 0.588,-0.309 0,0 0.588,-0.309 0,0 0.588,-0.309 0,0 0.588,-0.308 0,0 0.589,-0.309 0,0 0.588,-0.309 0,0 0.588,-0.309 0,0 0.588,-0.309 0,0 0.588,-0.309 0,0 0.588,-0.309 0,0 0.588,-0.308 0,0 0.589,-0.309 0,0 0.588,-0.309 0,0 0.588,-0.309 0,0 0.588,-0.309 0,0 0.588,-0.309 0,0 0.588,-0.309 0,0 0.588,-0.308 0,0 0.589,-0.309 0.588,0.309 0,0 0.588,0.308 0,0 0.588,0.309 0,0 0.588,0.309 0,0 0.588,0.309 0,0 0.588,0.309 0,0 0.589,0.309 0,0 0.588,0.309 0,0 0.588,0.308 0,0 0.588,0.309 0,0 0.588,0.309 0,0 0.588,0.309 0,0 0.588,0.309 0,0 0.589,0.309 0,0 0.588,0.309 0,0 0.588,0.308 0,0 0.588,0.309 0,0 0.588,0.309 0,0 0.588,0.309 0,0 0.588,0.309 0,0 0.589,0.309 0,0 0.588,0.308 0,0 0.588,0.309 0,0 0.588,0.309 0,0 0.588,0.309 0,0 0.588,0.309 0,0 0.588,0.309 0,0 0.589,0.309 0,0 0.588,0.308 0,0 0.588,0.309 0,0 0.588,0.309 0,0 0.588,0.309 0,0 0.588,0.309 0,0 0.588,0.309 0,0 0.589,0.308 0,0 0.588,0.309 0,0 0.588,0.309 0,0 0.588,0.309 0,0 0.588,0.309 0,0 0.588,0.309 0,0 0.588,0.309 0,0 0.589,0.308 0,0 0.588,0.309 0,0 0.588,0.309 0,0 0.588,0.309 0,0 0.588,0.309 0,0 0.588,0.309 0,0 0.588,0.308 0,0 0.589,0.309 0,0 0.588,0.309 0,0 0.588,0.309 0,0 0.588,0.309 0,0 0.588,0.309 0,0 0.588,0.309 0,0 0.588,0.308 0,0 0.589,0.309 0,0 0.588,0.309 0,0 0.588,0.309 0,0 0.588,0.309 0,0 0.588,0.309 0,0 0.588,0.308 0,0 0.588,0.309 0,0 0.588,0.309 0,0 0.589,0.309 0,0 0.588,0.309 0,0 0.588,0.309 0,0 0.588,0.309 0,0 0.588,0.308 0,0 0.588,0.309 0,0 0.588,0.309 0,0 0.589,0.309 0,0 0.588,0.309 0,0 0.588,0.309 0,0 0.588,0.308 0,0 0.588,0.309 0,0 0.588,0.309 0,0 0.588,0.309 0,0 0.589,0.309 0,0 0.588,0.309 0,0 0.588,0.309 0,0 0.588,0.308 0,0 0.588,0.309 0,0 0.588,0.309 0,0 0.588,0.309 0,0 0.589,0.309 0,0 0.588,0.309 0,0 0.588,0.309 0,0 0.588,0.308 0,0 0.588,0.309 0,0 0.588,0.309 0,0 0.588,0.309 0,0 0.589,0.309 0,0 0.588,0.309 0,0 0.588,0.308 0,0 0.588,0.309 0,0 0.588,0.309 0,0 0.588,0.309 0,0 0.588,0.309 0,0 0.589,0.309 0,0 0.588,0.309 0,0 0.588,0.308 0,0 0.588,0.309 0,0 0.588,0.309 0,0 0.588,0.309 0,0 0.588,0.309 0,0 0.589,0.309 0,0 0.588,0.308 0,0 0.588,0.309 0,0 0.588,0.309 0,0 0.588,0.309 0,0 0.588,0.309 0,0 0.588,0.309 0,0 0.589,0.309 0,0 0.588,0.308 0,0 0.588,0.309 0,0 0.588,0.309 0,0 0.588,0.309 0,0 0.588,0.309 0,0 0.588,0.309 0,0 0.589,0.308 0,0 0.588,0.309 0,0 0.588,0.309 0,0 0.588,0.309 0,0 0.588,0.309 0,0 0.588,0.309 0,0 0.588,0.309 0,0 0.589,0.308 0,0 0.588,0.309 0,0 0.588,0.309 0,0 0.588,0.309 0,0 0.588,0.309 0,0 0.588,0.309 0,0 0.588,0.308 0,0 0.589,0.309 0,0 0.588,0.309 0,0 0.588,0.309 0,0 0.588,0.309 0,0 0.588,0.309 0,0 0.588,0.309 0,0 0.588,0.308 0,0 0.589,0.309 0,0 0.588,0.309 0,0 0.588,0.309 0,0 0.588,0.309 0,0 0.588,0.309 0,0 0.588,0.308 0,0 0.588,0.309 0,0 0.589,0.309 0,0 0.588,0.309 0,0 0.588,0.309 0,0 0.588,0.309 0,0 0.588,0.309 0,0 0.588,0.308 0,0 0.588,0.309 0,0 0.589,0.309 0,0 0.588,0.309 0,0 0.588,0.309 0,0 0.588,0.309 0,0 0.588,0.309 0,0 0.588,0.308 0,0 0.588,0.309 0,0 0.589,0.309 0,0 0.588,0.309 0,0 0.588,0.309 0,0 0.588,0.309 0,0 0.588,0.308 0,0 0.588,0.309 0,0 0.588,0.309 0,0 0.589,0.309 0,0 0.588,0.309 0,0 0.588,0.309 0,0 0.588,0.309 0,0 0.588,0.308 0,0 0.588,0.309 0,0 0.588,0.309 0,0 0.589,0.309 0,0 0.588,0.309 0,0 0.588,0.309 0,0 0.588,0.308 0,0 0.588,0.309 0,0 0.588,0.309 0,0 0.588,0.309 0,0 0.589,0.309 0,0 0.588,0.309 0,0 0.588,0.309 0,0 0.588,0.308 0,0 0.588,0.309 0,0 0.588,0.309 0,0 0.588,0.309 0,0 0.589,0.309 0,0 0.588,0.309 0,0 0.588,0.308 0,0 0.588,0.309 0,0 0.588,0.309 0,0 0.588,0.309 0,0 0.588,0.309 0,0 0.589,0.309 0,0 0.588,0.309 0,0 0.588,0.308 0,0 0.588,0.309 0,0 0.588,0.309 0,0 0.588,0.309 0,0 0.588,0.309 0,0 0.589,0.309 0,0 0.588,0.308 0,0 0.588,0.309 0,0 0.588,0.309 0,0 0.588,0.309 0,0 0.588,0.309 0,0 0.588,0.309 0,0 0.589,0.309 0,0 0.588,0.308 0,0 0.588,0.309 0,0 0.588,0.309 0,0 0.588,0.309 0,0 0.588,0.309 0,0 0.588,0.309 0,0 0.589,0.308 0,0 0.588,0.309 0,0 0.588,0.309 0,0 0.588,0.309 0,0 0.588,0.309 0,0 0.588,0.309 0,0 0.588,0.309 0,0 0.589,0.308 0,0 0.588,0.309 0,0 0.588,0.309 0,0 0.588,0.309 0,0 0.588,0.309 0,0 0.588,0.309 0,0 0.588,0.309 0,0 0.589,0.308 0,0 0.588,0.309 0,0 0.588,0.309 0,0 0.588,0.309 0,0 0.588,0.309 0,0 0.588,0.309 0,0 0.588,0.308 0,0 0.589,0.309 0,0 0.588,0.309 0,0 0.588,0.309 0,0 0.588,0.309 0,0 0.588,0.309 0,0 0.588,0.309 0,0 0.588,0.308 0,0 0.589,0.309 0,0 0.588,0.309 0,0 0.588,0.309 0,0 0.588,0.309 0,0 0.588,0.309 0,0 0.588,0.308 0,0 0.588,0.309 0,0 0.589,0.309 0,0 0.588,0.309 0,0 0.588,0.309 0,0 0.588,0.309 0,0 0.588,0.309 0,0 0.588,0.308 0,0 0.588,0.309 0,0 0.589,0.309 0,0 0.588,0.309 0,0 0.588,0.309 0,0 0.588,0.309 0,0 0.588,0.308 0,0 0.588,0.309 0,0 0.588,0.309 0,0 0.589,0.309 0,0 0.588,0.309 0,0 0.588,0.309 0,0 0.588,0.309 0,0 0.588,0.308 0,0 0.588,0.309 0,0 0.588,0.309 0,0 0.589,0.309 0,0 0.588,0.309 0,0 0.588,0.309 0,0 0.588,0.308 0,0 0.588,0.309 0,0 0.588,0.309 0,0 0.588,0.309 0,0 0.589,0.309 0,0 0.588,0.309 0,0 0.588,0.309 0,0 0.588,0.308 0,0 0.588,0.309 0,0 0.588,0.309 0,0 0.588,0.309 0,0 0.589,0.309 0,0 0.588,0.309 0,0 0.588,0.308 0,0 0.588,0.309 0,0 0.588,0.309 0,0 0.588,0.309 0,0 0.588,0.309 0,0 0.589,0.309 0,0 0.588,0.309 0,0 0.588,0.308 0,0 0.588,0.309 0,0 0.588,0.309 0,0 0.588,0.309 0,0 0.588,0.309 0,0 0.589,0.309 0,0 0.588,0.308 0,0 0.588,0.309 0,0 0.588,0.309 0,0 0.588,0.309 0,0 0.588,0.309 0,0 0.588,0.309 0,0 0.589,0.309 0,0 0.588,0.308 0,0 0.588,0.309 0,0 0.588,0.309 0,0 0.588,0.309 0,0 0.588,0.309 0,0 0.588,0.309 0,0 0.588,0.309 0,0 0.589,0.308 0,0 0.588,0.309 0,0 0.588,0.309 0,0 0.588,0.309 -0.588,0.309 0,0 -0.588,0.309 0,0 -0.588,0.308 0,0 -0.589,0.309 0,0 -0.588,0.309 0,0 -0.588,0.309 0,0 -0.588,0.309 0,0 -0.588,0.309 0,0 -0.588,0.309 0,0 -0.588,0.308 0,0 -0.588,0.309 0,0 -0.589,0.309 0,0 -0.588,0.309 0,0 -0.588,0.309 0,0 -0.588,0.309 0,0 -0.588,0.308 0,0 -0.588,0.309 0,0 -0.588,0.309 0,0 -0.589,0.309 0,0 -0.588,0.309 0,0 -0.588,0.309 0,0 -0.588,0.309 0,0 -0.588,0.308 0,0 -0.588,0.309 0,0 -0.588,0.309 0,0 -0.589,0.309 0,0 -0.588,0.309 0,0 -0.588,0.309 0,0 -0.588,0.308 0,0 -0.588,0.309 0,0 -0.588,0.309 0,0 -0.588,0.309 0,0 -0.589,0.309 0,0 -0.588,0.309 0,0 -0.588,0.309 0,0 -0.588,0.308 0,0 -0.588,0.309 0,0 -0.588,0.309 0,0 -0.588,0.309 0,0 -0.589,0.309 0,0 -0.588,0.309 0,0 -0.588,0.308 0,0 -0.588,0.309 0,0 -0.588,0.309 0,0 -0.588,0.309 0,0 -0.588,0.309 0,0 -0.589,0.309 0,0 -0.588,0.309 0,0 -0.588,0.308 0,0 -0.588,0.309 0,0 -0.588,0.309 0,0 -0.588,0.309 0,0 -0.588,0.309 0,0 -0.589,0.309 0,0 -0.588,0.308 0,0 -0.588,0.309 0,0 -0.588,0.309 0,0 -0.588,0.309 0,0 -0.588,0.309 0,0 -0.588,0.309 0,0 -0.589,0.309 0,0 -0.588,0.308 0,0 -0.588,0.309 0,0 -0.588,0.309 0,0 -0.588,0.309 0,0 -0.588,0.309 0,0 -0.588,0.309 0,0 -0.589,0.309 0,0 -0.588,0.308 0,0 -0.588,0.309 0,0 -0.588,0.309 0,0 -0.588,0.309 0,0 -0.588,0.309 0,0 -0.588,0.309 0,0 -0.589,0.308 0,0 -0.588,0.309 0,0 -0.588,0.309 0,0 -0.588,0.309 0,0 -0.588,0.309 0,0 -0.588,0.309 0,0 -0.588,0.309 0,0 -0.589,0.308 0,0 -0.588,0.309 0,0 -0.588,0.309 0,0 -0.588,0.309 0,0 -0.588,0.309 0,0 -0.588,0.309 0,0 -0.588,0.308 0,0 -0.589,0.309 0,0 -0.588,0.309 0,0 -0.588,0.309 0,0 -0.588,0.309 0,0 -0.588,0.309 0,0 -0.588,0.309 0,0 -0.588,0.308 0,0 -0.589,0.309 0,0 -0.588,0.309 0,0 -0.588,0.309 0,0 -0.588,0.309 0,0 -0.588,0.309 0,0 -0.588,0.308 0,0 -0.588,0.309 0,0 -0.589,0.309 0,0 -0.588,0.309 0,0 -0.588,0.309 0,0 -0.588,0.309 0,0 -0.588,0.309 0,0 -0.588,0.308 0,0 -0.588,0.309 0,0 -0.589,0.309 0,0 -0.588,0.309 0,0 -0.588,0.309 0,0 -0.588,0.309 0,0 -0.588,0.308 0,0 -0.588,0.309 0,0 -0.588,0.309 0,0 -0.589,0.309 0,0 -0.588,0.309 0,0 -0.588,0.309 0,0 -0.588,0.309 0,0 -0.588,0.308 0,0 -0.588,0.309 0,0 -0.588,0.309 0,0 -0.589,0.309 0,0 -0.588,0.309 0,0 -0.588,0.309 0,0 -0.588,0.308 0,0 -0.588,0.309 0,0 -0.588,0.309 0,0 -0.588,0.309 0,0 -0.589,0.309 0,0 -0.588,0.309 0,0 -0.588,0.309 0,0 -0.588,0.308 0,0 -0.588,0.309 0,0 -0.588,0.309 0,0 -0.588,0.309 0,0 -0.589,0.3088 0,0 -0.588,0.3089 0,0 -0.588,0.3088 0,0 -0.588,0.3089 0,0 -0.588,0.3088 0,0 -0.588,0.3088 0,0 -0.588,0.3089 0,0 -0.589,0.3088 0,0 -0.588,0.3089 0,0 -0.588,0.3088 0,0 -0.588,0.3089 0,0 -0.588,0.3088 0,0 -0.588,0.3089 0,0 -0.588,0.3088 0,0 -0.589,0.3089 0,0 -0.588,0.3088 0,0 -0.588,0.3089 0,0 -0.588,0.3088 0,0 -0.588,0.3089 0,0 -0.588,0.3088 0,0 -0.588,0.3089 0,0 -0.589,0.3088 0,0 -0.588,0.3089 0,0 -0.588,0.3088 0,0 -0.588,0.3088 0,0 -0.588,0.3089 0,0 -0.588,0.3088 0,0 -0.588,0.3089 0,0 -0.589,0.3088 0,0 -0.588,0.3089 0,0 -0.588,0.3088 0,0 -0.588,0.3089 0,0 -0.588,0.3088 0,0 -0.588,0.3089 0,0 -0.588,0.3088 0,0 -0.589,0.3089 0,0 -0.588,0.3088 0,0 -0.588,0.3089 0,0 -0.588,0.3088 0,0 -0.588,0.3089 0,0 -0.588,0.3088 0,0 -0.588,0.3088 0,0 -0.589,0.3089 0,0 -0.588,0.3088 0,0 -0.588,0.3089 0,0 -0.588,0.3088 0,0 -0.588,0.3089 0,0 -0.588,0.3088 0,0 -0.588,0.3089 0,0 -0.589,0.3088 0,0 -0.588,0.3089 0,0 -0.588,0.3088 0,0 -0.588,0.3089 0,0 -0.588,0.3088 0,0 -0.588,0.3089 0,0 -0.588,0.3088 0,0 -0.589,0.3089 0,0 -0.588,0.3088 0,0 -0.588,0.3088 0,0 -0.588,0.3089 0,0 -0.588,0.3088 0,0 -0.588,0.3089 0,0 -0.588,0.3088 0,0 -0.589,0.3089 0,0 -0.588,0.3088 0,0 -0.588,0.3089 0,0 -0.588,0.3088 0,0 -0.588,0.3089 0,0 -0.588,0.3088 0,0 -0.588,0.3089 0,0 -0.589,0.3088 0,0 -0.588,0.3089 0,0 -0.588,0.3088 0,0 -0.588,0.3089 0,0 -0.588,0.3088 0,0 -0.588,0.3089 0,0 -0.588,0.3088 0,0 -0.589,0.3088 0,0 -0.588,0.3089 0,0 -0.588,0.3088 0,0 -0.588,0.3089 0,0 -0.588,0.3088 0,0 -0.588,0.3089 0,0 -0.588,0.3088 0,0 -0.589,0.3089 0,0 -0.588,0.3088 0,0 -0.588,0.3089 0,0 -0.588,0.3088 0,0 -0.588,0.3089 0,0 -0.588,0.3088 0,0 -0.588,0.3089 0,0 -0.589,0.3088 0,0 -0.588,0.3089 0,0 -0.588,0.3088 0,0 -0.588,0.3088 0,0 -0.588,0.3089 0,0 -0.588,0.3088 0,0 -0.588,0.3089 0,0 -0.589,0.3088 0,0 -0.588,0.3089 0,0 -0.588,0.3088 0,0 -0.588,0.3089 0,0 -0.588,0.3088 0,0 -0.588,0.3089 0,0 -0.588,0.3088 0,0 -0.589,0.3089 0,0 -0.588,0.3088 0,0 -0.588,0.3089 0,0 -0.588,0.3088 0,0 -0.588,0.3089 0,0 -0.588,0.3088 0,0 -0.588,0.3088 0,0 -0.589,0.3089 0,0 -0.588,0.3088 0,0 -0.588,0.3089 0,0 -0.588,0.3088 0,0 -0.588,0.3089 0,0 -0.588,0.3088 0,0 -0.588,0.3089 0,0 -0.589,0.3088 0,0 -0.588,0.3089 0,0 -0.588,0.3088 0,0 -0.588,0.3089 0,0 -0.588,0.3088 0,0 -0.588,0.3089 0,0 -0.588,0.3088 0,0 -0.588,0.3089 0,0 -0.589,0.3088 0,0 -0.588,0.3089 0,0 -0.588,0.3088 0,0 -0.588,0.3088 0,0 -0.588,0.3089 0,0 -0.588,0.3088 0,0 -0.588,0.3089 0,0 -0.589,0.3088 0,0 -0.588,0.3089 0,0 -0.588,0.3088 0,0 -0.588,0.3089 0,0 -0.588,0.3088 0,0 -0.588,0.3089 0,0 -0.588,0.3088 0,0 -0.589,0.3089 0,0 -0.588,0.3088 0,0 -0.588,0.3089 0,0 -0.588,0.3088 0,0 -0.588,0.3089 0,0 -0.588,0.3088 0,0 -0.588,0.3088 0,0 -0.589,0.3089 0,0 -0.588,0.3088 0,0 -0.588,0.3089 0,0 -0.588,0.3088 0,0 -0.588,0.3089 0,0 -0.588,0.3088 0,0 -0.588,0.3089 0,0 -0.589,0.3088 0,0 -0.588,0.3089 0,0 -0.588,0.3088 0,0 -0.588,0.3089 0,0 -0.588,0.3088 0,0 -0.588,0.3089 0,0 -0.588,0.3088 0,0 -0.589,0.3089 0,0 -0.588,0.3088 0,0 -0.588,0.3089 0,0 -0.588,0.3088 0,0 -0.588,0.3088 0,0 -0.588,0.3089 0,0 -0.588,0.3088 0,0 -0.589,0.3089 0,0 -0.588,0.3088 0,0 -0.588,0.3089 0,0 -0.588,0.3088 0,0 -0.588,0.3089 0,0 -0.588,0.3088 0,0 -0.588,0.3089 0,0 -0.589,0.3088 0,0 -0.588,0.3089 0,0 -0.588,0.3088 0,0 -0.588,0.3089 0,0 -0.588,0.3088 0,0 -0.588,0.3089 0,0 -0.588,0.3088 -0.589,-0.3088"
                 inkscape:connector-curvature="0" />
            </defs>
            <g
               id="g20"
               clip-path="url(#p7ff5b81e1d)">
              <use
                 id="use22"
                 y="432"
                 xlink:href="#C0_0_82eff6ac93"
                 x="0"
                 style="fill:none;stroke:#000000"
                 width="744.09448"
                 height="1052.3622" />
            </g>
          </g>
          <g
             id="LineCollection_2">
            <defs
               id="defs25">
              <path
                 id="C1_0_3688180829"
                 d="m 259.617,-68.2166 0,0 -0.588,-0.3089 0,0 -0.588,-0.3088 0,0 -0.588,-0.3089 0,0 -0.588,-0.3088 0,0 -0.588,-0.3089 0,0 -0.588,-0.3088 0,0 -0.589,-0.3089 0,0 -0.588,-0.3088 0,0 -0.588,-0.3088 0,0 -0.588,-0.3089 0,0 -0.588,-0.3088 0,0 -0.588,-0.3089 0,0 -0.588,-0.3088 0,0 -0.589,-0.3089 0,0 -0.588,-0.3088 0,0 -0.588,-0.3089 0,0 -0.588,-0.3088 0,0 -0.588,-0.3089 0,0 -0.588,-0.3088 0,0 -0.588,-0.3089 0,0 -0.589,-0.3088 0,0 -0.588,-0.3089 0,0 -0.588,-0.3088 0,0 -0.588,-0.3089 0,0 -0.588,-0.3088 0,0 -0.588,-0.3088 0,0 -0.588,-0.3089 0,0 -0.589,-0.3088 0,0 -0.588,-0.3089 0,0 -0.588,-0.3088 0,0 -0.588,-0.3089 0,0 -0.588,-0.3088 0,0 -0.588,-0.3089 0,0 -0.588,-0.3088 0,0 -0.589,-0.3089 0,0 -0.588,-0.3088 0,0 -0.588,-0.3089 0,0 -0.588,-0.3088 0,0 -0.588,-0.3089 0,0 -0.588,-0.3088 0,0 -0.588,-0.3089 0,0 -0.589,-0.3088 0,0 -0.588,-0.3089 0,0 -0.588,-0.3088 0,0 -0.588,-0.3088 0,0 -0.588,-0.3089 0,0 -0.588,-0.3088 0,0 -0.588,-0.3089 0,0 -0.589,-0.3088 0,0 -0.588,-0.3089 0,0 -0.588,-0.3088 0,0 -0.588,-0.3089 0,0 -0.588,-0.3088 0,0 -0.588,-0.3089 0,0 -0.588,-0.3088 0,0 -0.589,-0.3089 0,0 -0.588,-0.3088 0,0 -0.588,-0.3089 0,0 -0.588,-0.3088 0,0 -0.588,-0.3089 0,0 -0.588,-0.3088 0,0 -0.588,-0.3088 0,0 -0.589,-0.3089 0,0 -0.588,-0.3088 0,0 -0.588,-0.3089 0,0 -0.588,-0.3088 0,0 -0.588,-0.3089 0,0 -0.588,-0.3088 0,0 -0.588,-0.3089 0,0 -0.589,-0.3088 0,0 -0.588,-0.3089 0,0 -0.588,-0.3088 0,0 -0.588,-0.3089 0,0 -0.588,-0.3088 0,0 -0.588,-0.3089 0,0 -0.588,-0.3088 0,0 -0.589,-0.3089 0,0 -0.588,-0.3088 0,0 -0.588,-0.3088 0,0 -0.588,-0.3089 0,0 -0.588,-0.3088 0,0 -0.588,-0.3089 0,0 -0.588,-0.3088 0,0 -0.589,-0.3089 0,0 -0.588,-0.3088 0,0 -0.588,-0.3089 0,0 -0.588,-0.3088 0,0 -0.588,-0.3089 0,0 -0.588,-0.3088 0,0 -0.588,-0.3089 0,0 -0.589,-0.3088 0,0 -0.588,-0.3089 0,0 -0.588,-0.3088 0,0 -0.588,-0.3089 0,0 -0.588,-0.3088 0,0 -0.588,-0.3089 0,0 -0.588,-0.3088 0,0 -0.589,-0.3088 0,0 -0.588,-0.3089 0,0 -0.588,-0.3088 0,0 -0.588,-0.3089 0,0 -0.588,-0.3088 0,0 -0.588,-0.309 0,0 -0.588,-0.309 0,0 -0.589,-0.309 0,0 -0.588,-0.308 0,0 -0.588,-0.309 0,0 -0.588,-0.309 0,0 -0.588,-0.309 0,0 -0.588,-0.309 0,0 -0.588,-0.309 0,0 -0.589,-0.309 0,0 -0.588,-0.308 0,0 -0.588,-0.309 0,0 -0.588,-0.309 0,0 -0.588,-0.309 0,0 -0.588,-0.309 0,0 -0.588,-0.309 0,0 -0.589,-0.308 0,0 -0.588,-0.309 0,0 -0.588,-0.309 0,0 -0.588,-0.309 0,0 -0.588,-0.309 0,0 -0.588,-0.309 0,0 -0.588,-0.309 0,0 -0.589,-0.308 0,0 -0.588,-0.309 0,0 -0.588,-0.309 0,0 -0.588,-0.309 0,0 -0.588,-0.309 0,0 -0.588,-0.309 0,0 -0.588,-0.308 0,0 -0.589,-0.309 0,0 -0.588,-0.309 0,0 -0.588,-0.309 0,0 -0.588,-0.309 0,0 -0.588,-0.309 0,0 -0.588,-0.309 0,0 -0.588,-0.308 0,0 -0.589,-0.309 0,0 -0.588,-0.309 0,0 -0.588,-0.309 0,0 -0.588,-0.309 0,0 -0.588,-0.309 0,0 -0.588,-0.308 0,0 -0.588,-0.309 0,0 -0.589,-0.309 0,0 -0.588,-0.309 0,0 -0.588,-0.309 0,0 -0.588,-0.309 0,0 -0.588,-0.309 0,0 -0.588,-0.308 0,0 -0.588,-0.309 0,0 -0.589,-0.309 0,0 -0.588,-0.309 0,0 -0.588,-0.309 0,0 -0.588,-0.309 0,0 -0.588,-0.308 0,0 -0.588,-0.309 0,0 -0.588,-0.309 0,0 -0.589,-0.309 0,0 -0.588,-0.309 0,0 -0.588,-0.309 0,0 -0.588,-0.309 0,0 -0.588,-0.308 0,0 -0.588,-0.309 0,0 -0.588,-0.309 0,0 -0.589,-0.309 0,0 -0.588,-0.309 0,0 -0.588,-0.309 0,0 -0.588,-0.308 0,0 -0.588,-0.309 0,0 -0.588,-0.309 0,0 -0.588,-0.309 0,0 -0.589,-0.309 0,0 -0.588,-0.309 0,0 -0.588,-0.309 0,0 -0.588,-0.308 0,0 -0.588,-0.309 0,0 -0.588,-0.309 0,0 -0.588,-0.309 0,0 -0.589,-0.309 0,0 -0.588,-0.309 0,0 -0.588,-0.309 0,0 -0.588,-0.308 0,0 -0.588,-0.309 0,0 -0.588,-0.309 0,0 -0.588,-0.309 0,0 -0.589,-0.309 0,0 -0.588,-0.309 0,0 -0.588,-0.308 0,0 -0.588,-0.309 0,0 -0.588,-0.309 0,0 -0.588,-0.309 0,0 -0.588,-0.309 0,0 -0.588,-0.309 0,0 -0.589,-0.309 0,0 -0.588,-0.308 0,0 -0.588,-0.309 0,0 -0.588,-0.309 0,0 -0.588,-0.309 0,0 -0.588,-0.309 0,0 -0.588,-0.309 0,0 -0.589,-0.308 0,0 -0.588,-0.309 0,0 -0.588,-0.309 0,0 -0.588,-0.309 0,0 -0.588,-0.309 0,0 -0.588,-0.309 0,0 -0.588,-0.309 0,0 -0.589,-0.308 0,0 -0.588,-0.309 0,0 -0.588,-0.309 0,0 -0.588,-0.309 0,0 -0.588,-0.309 0,0 -0.588,-0.309 0,0 -0.588,-0.308 0,0 -0.589,-0.309 0,0 -0.588,-0.309 0,0 -0.588,-0.309 0,0 -0.588,-0.309 0,0 -0.588,-0.309 0,0 -0.588,-0.309 0,0 -0.588,-0.308 0,0 -0.589,-0.309 0,0 -0.588,-0.309 0,0 -0.588,-0.309 0,0 -0.588,-0.309 0,0 -0.588,-0.309 0,0 -0.588,-0.308 0,0 -0.588,-0.309 0,0 -0.589,-0.309 0,0 -0.588,-0.309 0,0 -0.588,-0.309 0,0 -0.588,-0.309 0,0 -0.588,-0.309 0,0 -0.588,-0.308 0,0 -0.588,-0.309 0,0 -0.589,-0.309 0.589,-0.309 0,0 0.588,-0.309 0,0 0.588,-0.309 0,0 0.588,-0.308 0,0 0.588,-0.309 0,0 0.588,-0.309 0,0 0.588,-0.309 0,0 0.589,-0.309 0,0 0.588,-0.309 0,0 0.588,-0.309 0,0 0.588,-0.308 0,0 0.588,-0.309 0,0 0.588,-0.309 0,0 0.588,-0.309 0,0 0.589,-0.309 0,0 0.588,-0.309 0,0 0.588,-0.309 0,0 0.588,-0.308 0,0 0.588,-0.309 0,0 0.588,-0.309 0,0 0.588,-0.309 0,0 0.589,-0.309 0,0 0.588,-0.309 0,0 0.588,-0.308 0,0 0.588,-0.309 0,0 0.588,-0.309 0,0 0.588,-0.309 0,0 0.588,-0.309 0,0 0.589,-0.309 0,0 0.588,-0.309 0,0 0.588,-0.308 0,0 0.588,-0.309 0,0 0.588,-0.309 0,0 0.588,-0.309 0,0 0.588,-0.309 0,0 0.589,-0.309 0,0 0.588,-0.308 0,0 0.588,-0.309 0,0 0.588,-0.309 0,0 0.588,-0.309 0,0 0.588,-0.309 0,0 0.588,-0.309 0,0 0.589,-0.309 0,0 0.588,-0.308 0,0 0.588,-0.309 0,0 0.588,-0.309 0,0 0.588,-0.309 0,0 0.588,-0.309 0,0 0.588,-0.309 0,0 0.588,-0.308 0,0 0.589,-0.309 0,0 0.588,-0.309 0,0 0.588,-0.309 0,0 0.588,-0.309 0,0 0.588,-0.309 0,0 0.588,-0.309 0,0 0.588,-0.308 0,0 0.589,-0.309 0,0 0.588,-0.309 0,0 0.588,-0.309 0,0 0.588,-0.309 0,0 0.588,-0.309 0,0 0.588,-0.308 0,0 0.588,-0.309 0,0 0.589,-0.309 0,0 0.588,-0.309 0,0 0.588,-0.309 0,0 0.588,-0.309 0,0 0.588,-0.309 0,0 0.588,-0.308 0,0 0.588,-0.309 0,0 0.589,-0.309 0,0 0.588,-0.309 0,0 0.588,-0.309 0,0 0.588,-0.309 0,0 0.588,-0.308 0,0 0.588,-0.309 0,0 0.588,-0.309 0,0 0.589,-0.309 0,0 0.588,-0.309 0,0 0.588,-0.309 0,0 0.588,-0.309 0,0 0.588,-0.308 0,0 0.588,-0.309 0,0 0.588,-0.309 0,0 0.589,-0.309 0,0 0.588,-0.309 0,0 0.588,-0.309 0,0 0.588,-0.308 0,0 0.588,-0.309 0,0 0.588,-0.309 0,0 0.588,-0.309 0,0 0.589,-0.309 0,0 0.588,-0.309 0,0 0.588,-0.309 0,0 0.588,-0.308 0,0 0.588,-0.309 0,0 0.588,-0.309 0,0 0.588,-0.309 0,0 0.589,-0.309 0,0 0.588,-0.309 0,0 0.588,-0.309 0,0 0.588,-0.308 0,0 0.588,-0.309 0,0 0.588,-0.309 0,0 0.588,-0.309 0,0 0.589,-0.309 0,0 0.588,-0.309 0,0 0.588,-0.308 0,0 0.588,-0.309 0,0 0.588,-0.309 0,0 0.588,-0.309 0,0 0.588,-0.309 0,0 0.589,-0.309 0,0 0.588,-0.309 0,0 0.588,-0.308 0,0 0.588,-0.309 0,0 0.588,-0.309 0,0 0.588,-0.309 0,0 0.588,-0.309 0,0 0.589,-0.309 0,0 0.588,-0.308 0,0 0.588,-0.309 0,0 0.588,-0.309 0,0 0.588,-0.309 0,0 0.588,-0.309 0,0 0.588,-0.309 0,0 0.589,-0.309 0,0 0.588,-0.308 0,0 0.588,-0.309 0,0 0.588,-0.309 0,0 0.588,-0.309 0,0 0.588,-0.309 0,0 0.588,-0.309 0,0 0.589,-0.308 0,0 0.588,-0.309 0,0 0.588,-0.309 0,0 0.588,-0.309 0,0 0.588,-0.309 0,0 0.588,-0.309 0,0 0.588,-0.309 0,0 0.589,-0.308 0,0 0.588,-0.309 0,0 0.588,-0.309 0,0 0.588,-0.309 0,0 0.588,-0.309 0,0 0.588,-0.309 0,0 0.588,-0.308 0,0 0.589,-0.309 0,0 0.588,-0.309 0,0 0.588,-0.309 0,0 0.588,-0.309 0,0 0.588,-0.309 0,0 0.588,-0.309 0,0 0.588,-0.308 0,0 0.589,-0.309 0,0 0.588,-0.309 0,0 0.588,-0.309 0,0 0.588,-0.309 0,0 0.588,-0.309 0,0 0.588,-0.308 0,0 0.588,-0.309 0,0 0.589,-0.309 0,0 0.588,-0.309 0,0 0.588,-0.309 0,0 0.588,-0.309 0,0 0.588,-0.309 0,0 0.588,-0.308 0,0 0.588,-0.309 0,0 0.589,-0.309 0,0 0.588,-0.309 0,0 0.588,-0.309 0,0 0.588,-0.309 0,0 0.588,-0.309 0,0 0.588,-0.308 0,0 0.588,-0.309 0,0 0.589,-0.309 0,0 0.588,-0.309 0,0 0.588,-0.309 0,0 0.588,-0.309 0,0 0.588,-0.308 0,0 0.588,-0.309 0,0 0.588,-0.309 0,0 0.589,-0.309 0,0 0.588,-0.309 0,0 0.588,-0.309 0,0 0.588,-0.309 0,0 0.588,-0.308 0,0 0.588,-0.309 0,0 0.588,-0.309 0,0 0.589,-0.309 0,0 0.588,-0.309 0,0 0.588,-0.309 0,0 0.588,-0.308 0,0 0.588,-0.309 0,0 0.588,-0.309 0,0 0.588,-0.309 0,0 0.589,-0.309 0,0 0.588,-0.309 0,0 0.588,-0.309 0,0 0.588,-0.308 0,0 0.588,-0.309 0,0 0.588,-0.309 0,0 0.588,-0.309 0,0 0.589,-0.309 0,0 0.588,-0.309 0,0 0.588,-0.308 0,0 0.588,-0.309 0,0 0.588,-0.309 0,0 0.588,-0.309 0,0 0.588,-0.309 0,0 0.589,-0.309 0,0 0.588,-0.309 0,0 0.588,-0.308 0,0 0.588,-0.309 0,0 0.588,-0.309 0,0 0.588,-0.309 0,0 0.588,-0.309 0,0 0.589,-0.309 0,0 0.588,-0.308 0,0 0.588,-0.309 0,0 0.588,-0.309 0,0 0.588,-0.309 0,0 0.588,-0.309 0,0 0.588,-0.309 0,0 0.589,-0.309 0,0 0.588,-0.308 0,0 0.588,-0.309 0,0 0.588,-0.309 0,0 0.588,-0.309 0,0 0.588,-0.309 0,0 0.588,-0.309 0,0 0.589,-0.308 0,0 0.588,-0.309 0,0 0.588,-0.309 0,0 0.588,-0.309 0,0 0.588,-0.309 0,0 0.588,-0.309 0,0 0.588,-0.309 0,0 0.589,-0.308 0.588,0.308 0,0 0.588,0.309 0,0 0.588,0.309 0,0 0.588,0.309 0,0 0.588,0.309 0,0 0.588,0.309 0,0 0.589,0.309 0,0 0.588,0.308 0,0 0.588,0.309 0,0 0.588,0.309 0,0 0.588,0.309 0,0 0.588,0.309 0,0 0.588,0.309 0,0 0.589,0.308 0,0 0.588,0.309 0,0 0.588,0.309 0,0 0.588,0.309 0,0 0.588,0.309 0,0 0.588,0.309 0,0 0.588,0.309 0,0 0.589,0.308 0,0 0.588,0.309 0,0 0.588,0.309 0,0 0.588,0.309 0,0 0.588,0.309 0,0 0.588,0.309 0,0 0.588,0.308 0,0 0.589,0.309 0,0 0.588,0.309 0,0 0.588,0.309 0,0 0.588,0.309 0,0 0.588,0.309 0,0 0.588,0.309 0,0 0.588,0.308 0,0 0.589,0.309 0,0 0.588,0.309 0,0 0.588,0.309 0,0 0.588,0.309 0,0 0.588,0.309 0,0 0.588,0.308 0,0 0.588,0.309 0,0 0.589,0.309 0,0 0.588,0.309 0,0 0.588,0.309 0,0 0.588,0.309 0,0 0.588,0.309 0,0 0.588,0.308 0,0 0.588,0.309 0,0 0.589,0.309 0,0 0.588,0.309 0,0 0.588,0.309 0,0 0.588,0.309 0,0 0.588,0.308 0,0 0.588,0.309 0,0 0.588,0.309 0,0 0.589,0.309 0,0 0.588,0.309 0,0 0.588,0.309 0,0 0.588,0.309 0,0 0.588,0.308 0,0 0.588,0.309 0,0 0.588,0.309 0,0 0.588,0.309 0,0 0.589,0.309 0,0 0.588,0.309 0,0 0.588,0.308 0,0 0.588,0.309 0,0 0.588,0.309 0,0 0.588,0.309 0,0 0.588,0.309 0,0 0.589,0.309 0,0 0.588,0.309 0,0 0.588,0.308 0,0 0.588,0.309 0,0 0.588,0.309 0,0 0.588,0.309 0,0 0.588,0.309 0,0 0.589,0.309 0,0 0.588,0.309 0,0 0.588,0.308 0,0 0.588,0.309 0,0 0.588,0.309 0,0 0.588,0.309 0,0 0.588,0.309 0,0 0.589,0.309 0,0 0.588,0.308 0,0 0.588,0.309 0,0 0.588,0.309 0,0 0.588,0.309 0,0 0.588,0.309 0,0 0.588,0.309 0,0 0.589,0.309 0,0 0.588,0.308 0,0 0.588,0.309 0,0 0.588,0.309 0,0 0.588,0.309 0,0 0.588,0.309 0,0 0.588,0.309 0,0 0.589,0.308 0,0 0.588,0.309 0,0 0.588,0.309 0,0 0.588,0.309 0,0 0.588,0.309 0,0 0.588,0.309 0,0 0.588,0.309 0,0 0.589,0.308 0,0 0.588,0.309 0,0 0.588,0.309 0,0 0.588,0.309 0,0 0.588,0.309 0,0 0.588,0.309 0,0 0.588,0.308 0,0 0.589,0.309 0,0 0.588,0.309 0,0 0.588,0.309 0,0 0.588,0.309 0,0 0.588,0.309 0,0 0.588,0.309 0,0 0.588,0.308 0,0 0.589,0.309 0,0 0.588,0.309 0,0 0.588,0.309 0,0 0.588,0.309 0,0 0.588,0.309 0,0 0.588,0.308 0,0 0.588,0.309 0,0 0.589,0.309 0,0 0.588,0.309 0,0 0.588,0.309 0,0 0.588,0.309 0,0 0.588,0.309 0,0 0.588,0.308 0,0 0.588,0.309 0,0 0.589,0.309 0,0 0.588,0.309 0,0 0.588,0.309 0,0 0.588,0.309 0,0 0.588,0.308 0,0 0.588,0.309 0,0 0.588,0.309 0,0 0.589,0.309 0,0 0.588,0.309 0,0 0.588,0.309 0,0 0.588,0.309 0,0 0.588,0.308 0,0 0.588,0.309 0,0 0.588,0.309 0,0 0.589,0.309 0,0 0.588,0.309 0,0 0.588,0.309 0,0 0.588,0.309 0,0 0.588,0.308 0,0 0.588,0.309 0,0 0.588,0.309 0,0 0.589,0.309 0,0 0.588,0.309 0,0 0.588,0.309 0,0 0.588,0.308 0,0 0.588,0.309 0,0 0.588,0.309 0,0 0.588,0.309 0,0 0.589,0.309 0,0 0.588,0.309 0,0 0.588,0.309 0,0 0.588,0.308 0,0 0.588,0.309 0,0 0.588,0.309 0,0 0.588,0.309 0,0 0.589,0.309 0,0 0.588,0.309 0,0 0.588,0.308 0,0 0.588,0.309 0,0 0.588,0.309 0,0 0.588,0.309 0,0 0.588,0.309 0,0 0.589,0.309 0,0 0.588,0.309 0,0 0.588,0.308 0,0 0.588,0.309 0,0 0.588,0.309 0,0 0.588,0.309 0,0 0.588,0.309 0,0 0.589,0.309 0,0 0.588,0.308 0,0 0.588,0.309 0,0 0.588,0.309 0,0 0.588,0.309 0,0 0.588,0.309 0,0 0.588,0.309 0,0 0.589,0.309 0,0 0.588,0.308 0,0 0.588,0.309 0,0 0.588,0.309 0,0 0.588,0.309 0,0 0.588,0.309 0,0 0.588,0.309 0,0 0.589,0.308 0,0 0.588,0.309 0,0 0.588,0.309 0,0 0.588,0.309 0,0 0.588,0.309 0,0 0.588,0.309 0,0 0.588,0.309 0,0 0.589,0.308 0,0 0.588,0.309 0,0 0.588,0.309 0,0 0.588,0.309 0,0 0.588,0.309 0,0 0.588,0.309 0,0 0.588,0.308 0,0 0.589,0.309 0,0 0.588,0.309 0,0 0.588,0.309 0,0 0.588,0.309 0,0 0.588,0.309 0,0 0.588,0.309 0,0 0.588,0.308 0,0 0.589,0.309 0,0 0.588,0.309 0,0 0.588,0.309 0,0 0.588,0.309 0,0 0.588,0.309 0,0 0.588,0.308 0,0 0.588,0.309 0,0 0.589,0.309 0,0 0.588,0.309 0,0 0.588,0.309 0,0 0.588,0.309 0,0 0.588,0.309 0,0 0.588,0.308 0,0 0.588,0.309 0,0 0.589,0.309 0,0 0.588,0.309 0,0 0.588,0.309 0,0 0.588,0.309 0,0 0.588,0.309 0,0 0.588,0.308 0,0 0.588,0.309 0,0 0.589,0.309 0,0 0.588,0.309 -0.588,0.309 0,0 -0.589,0.309 0,0 -0.588,0.308 0,0 -0.588,0.309 0,0 -0.588,0.309 0,0 -0.588,0.309 0,0 -0.588,0.309 0,0 -0.588,0.309 0,0 -0.589,0.309 0,0 -0.588,0.308 0,0 -0.588,0.309 0,0 -0.588,0.309 0,0 -0.588,0.309 0,0 -0.588,0.309 0,0 -0.588,0.309 0,0 -0.589,0.308 0,0 -0.588,0.309 0,0 -0.588,0.309 0,0 -0.588,0.309 0,0 -0.588,0.309 0,0 -0.588,0.309 0,0 -0.588,0.309 0,0 -0.589,0.308 0,0 -0.588,0.309 0,0 -0.588,0.309 0,0 -0.588,0.309 0,0 -0.588,0.309 0,0 -0.588,0.309 0,0 -0.588,0.308 0,0 -0.589,0.309 0,0 -0.588,0.309 0,0 -0.588,0.309 0,0 -0.588,0.309 0,0 -0.588,0.309 0,0 -0.588,0.309 0,0 -0.588,0.308 0,0 -0.589,0.309 0,0 -0.588,0.309 0,0 -0.588,0.309 0,0 -0.588,0.309 0,0 -0.588,0.309 0,0 -0.588,0.308 0,0 -0.588,0.309 0,0 -0.589,0.309 0,0 -0.588,0.309 0,0 -0.588,0.309 0,0 -0.588,0.309 0,0 -0.588,0.309 0,0 -0.588,0.308 0,0 -0.588,0.309 0,0 -0.589,0.309 0,0 -0.588,0.309 0,0 -0.588,0.309 0,0 -0.588,0.309 0,0 -0.588,0.308 0,0 -0.588,0.309 0,0 -0.588,0.309 0,0 -0.589,0.309 0,0 -0.588,0.309 0,0 -0.588,0.309 0,0 -0.588,0.309 0,0 -0.588,0.308 0,0 -0.588,0.309 0,0 -0.588,0.309 0,0 -0.589,0.309 0,0 -0.588,0.309 0,0 -0.588,0.309 0,0 -0.588,0.309 0,0 -0.588,0.308 0,0 -0.588,0.309 0,0 -0.588,0.309 0,0 -0.589,0.309 0,0 -0.588,0.309 0,0 -0.588,0.309 0,0 -0.588,0.308 0,0 -0.588,0.309 0,0 -0.588,0.309 0,0 -0.588,0.309 0,0 -0.589,0.309 0,0 -0.588,0.309 0,0 -0.588,0.309 0,0 -0.588,0.308 0,0 -0.588,0.309 0,0 -0.588,0.309 0,0 -0.588,0.309 0,0 -0.589,0.309 0,0 -0.588,0.309 0,0 -0.588,0.308 0,0 -0.588,0.309 0,0 -0.588,0.309 0,0 -0.588,0.309 0,0 -0.588,0.309 0,0 -0.589,0.309 0,0 -0.588,0.309 0,0 -0.588,0.308 0,0 -0.588,0.309 0,0 -0.588,0.309 0,0 -0.588,0.309 0,0 -0.588,0.309 0,0 -0.589,0.309 0,0 -0.588,0.308 0,0 -0.588,0.309 0,0 -0.588,0.309 0,0 -0.588,0.309 0,0 -0.588,0.309 0,0 -0.588,0.309 0,0 -0.589,0.309 0,0 -0.588,0.308 0,0 -0.588,0.309 0,0 -0.588,0.309 0,0 -0.588,0.309 0,0 -0.588,0.309 0,0 -0.588,0.309 0,0 -0.589,0.308 0,0 -0.588,0.309 0,0 -0.588,0.309 0,0 -0.588,0.309 0,0 -0.588,0.309 0,0 -0.588,0.309 0,0 -0.588,0.309 0,0 -0.589,0.308 0,0 -0.588,0.309 0,0 -0.588,0.309 0,0 -0.588,0.309 0,0 -0.588,0.309 0,0 -0.588,0.309 0,0 -0.588,0.308 0,0 -0.589,0.309 0,0 -0.588,0.309 0,0 -0.588,0.309 0,0 -0.588,0.309 0,0 -0.588,0.309 0,0 -0.588,0.309 0,0 -0.588,0.308 0,0 -0.589,0.309 0,0 -0.588,0.309 0,0 -0.588,0.309 0,0 -0.588,0.3088 0,0 -0.588,0.3089 0,0 -0.588,0.3088 0,0 -0.588,0.3089 0,0 -0.589,0.3088 0,0 -0.588,0.3088 0,0 -0.588,0.3089 0,0 -0.588,0.3088 0,0 -0.588,0.3089 0,0 -0.588,0.3088 0,0 -0.588,0.3089 0,0 -0.589,0.3088 0,0 -0.588,0.3089 0,0 -0.588,0.3088 0,0 -0.588,0.3089 0,0 -0.588,0.3088 0,0 -0.588,0.3089 0,0 -0.588,0.3088 0,0 -0.589,0.3089 0,0 -0.588,0.3088 0,0 -0.588,0.3089 0,0 -0.588,0.3088 0,0 -0.588,0.3089 0,0 -0.588,0.3088 0,0 -0.588,0.3088 0,0 -0.589,0.3089 0,0 -0.588,0.3088 0,0 -0.588,0.3089 0,0 -0.588,0.3088 0,0 -0.588,0.3089 0,0 -0.588,0.3088 0,0 -0.588,0.3089 0,0 -0.589,0.3088 0,0 -0.588,0.3089 0,0 -0.588,0.3088 0,0 -0.588,0.3089 0,0 -0.588,0.3088 0,0 -0.588,0.3089 0,0 -0.588,0.3088 0,0 -0.589,0.3089 0,0 -0.588,0.3088 0,0 -0.588,0.3088 0,0 -0.588,0.3089 0,0 -0.588,0.3088 0,0 -0.588,0.3089 0,0 -0.588,0.3088 0,0 -0.588,0.3089 0,0 -0.589,0.3088 0,0 -0.588,0.3089 0,0 -0.588,0.3088 0,0 -0.588,0.3089 0,0 -0.588,0.3088 0,0 -0.588,0.3089 0,0 -0.588,0.3088 0,0 -0.589,0.3089 0,0 -0.588,0.3088 0,0 -0.588,0.3089 0,0 -0.588,0.3088 0,0 -0.588,0.3088 0,0 -0.588,0.3089 0,0 -0.588,0.3088 0,0 -0.589,0.3089 0,0 -0.588,0.3088 0,0 -0.588,0.3089 0,0 -0.588,0.3088 0,0 -0.588,0.3089 0,0 -0.588,0.3088 0,0 -0.588,0.3089 0,0 -0.589,0.3088 0,0 -0.588,0.3089 0,0 -0.588,0.3088 0,0 -0.588,0.3089 0,0 -0.588,0.3088 0,0 -0.588,0.3089 0,0 -0.588,0.3088 0,0 -0.589,0.3089 0,0 -0.588,0.3088 0,0 -0.588,0.3088 0,0 -0.588,0.3089 0,0 -0.588,0.3088 0,0 -0.588,0.3089 0,0 -0.588,0.3088 0,0 -0.589,0.3089 0,0 -0.588,0.3088 0,0 -0.588,0.3089 0,0 -0.588,0.3088 0,0 -0.588,0.3089 0,0 -0.588,0.3088 0,0 -0.588,0.3089 0,0 -0.589,0.3088 0,0 -0.588,0.3089 0,0 -0.588,0.3088 0,0 -0.588,0.3089 0,0 -0.588,0.3088 0,0 -0.588,0.3088 0,0 -0.588,0.3089 0,0 -0.589,0.3088 0,0 -0.588,0.3089 0,0 -0.588,0.3088 0,0 -0.588,0.3089 0,0 -0.588,0.3088 0,0 -0.588,0.3089 0,0 -0.588,0.3088 -0.589,-0.3088"
                 inkscape:connector-curvature="0" />
            </defs>
            <g
               id="g28"
               clip-path="url(#p7ff5b81e1d)">
              <use
                 id="use30"
                 y="432"
                 xlink:href="#C1_0_3688180829"
                 x="0"
                 style="fill:none;stroke:#000000"
                 width="744.09448"
                 height="1052.3622" />
            </g>
          </g>
          <g
             id="LineCollection_3">
            <defs
               id="defs33">
              <path
                 id="C2_0_ddfe1a163c"
                 d="m 259.617,-92.9244 0,0 -0.588,-0.3088 0,0 -0.588,-0.3089 0,0 -0.588,-0.3088 0,0 -0.588,-0.3089 0,0 -0.588,-0.3088 0,0 -0.588,-0.3089 0,0 -0.589,-0.3088 0,0 -0.588,-0.3089 0,0 -0.588,-0.3088 0,0 -0.588,-0.3089 0,0 -0.588,-0.3088 0,0 -0.588,-0.3089 0,0 -0.588,-0.3088 0,0 -0.589,-0.3089 0,0 -0.588,-0.3088 0,0 -0.588,-0.3089 0,0 -0.588,-0.3088 0,0 -0.588,-0.3088 0,0 -0.588,-0.3089 0,0 -0.588,-0.3088 0,0 -0.589,-0.3089 0,0 -0.588,-0.3088 0,0 -0.588,-0.309 0,0 -0.588,-0.309 0,0 -0.588,-0.309 0,0 -0.588,-0.308 0,0 -0.588,-0.309 0,0 -0.589,-0.309 0,0 -0.588,-0.309 0,0 -0.588,-0.309 0,0 -0.588,-0.309 0,0 -0.588,-0.309 0,0 -0.588,-0.308 0,0 -0.588,-0.309 0,0 -0.589,-0.309 0,0 -0.588,-0.309 0,0 -0.588,-0.309 0,0 -0.588,-0.309 0,0 -0.588,-0.308 0,0 -0.588,-0.309 0,0 -0.588,-0.309 0,0 -0.589,-0.309 0,0 -0.588,-0.309 0,0 -0.588,-0.309 0,0 -0.588,-0.309 0,0 -0.588,-0.308 0,0 -0.588,-0.309 0,0 -0.588,-0.309 0,0 -0.589,-0.309 0,0 -0.588,-0.309 0,0 -0.588,-0.309 0,0 -0.588,-0.308 0,0 -0.588,-0.309 0,0 -0.588,-0.309 0,0 -0.588,-0.309 0,0 -0.589,-0.309 0,0 -0.588,-0.309 0,0 -0.588,-0.309 0,0 -0.588,-0.308 0,0 -0.588,-0.309 0,0 -0.588,-0.309 0,0 -0.588,-0.309 0,0 -0.589,-0.309 0,0 -0.588,-0.309 0,0 -0.588,-0.308 0,0 -0.588,-0.309 0,0 -0.588,-0.309 0,0 -0.588,-0.309 0,0 -0.588,-0.309 0,0 -0.589,-0.309 0,0 -0.588,-0.309 0,0 -0.588,-0.308 0,0 -0.588,-0.309 0,0 -0.588,-0.309 0,0 -0.588,-0.309 0,0 -0.588,-0.309 0,0 -0.589,-0.309 0,0 -0.588,-0.308 0,0 -0.588,-0.309 0,0 -0.588,-0.309 0,0 -0.588,-0.309 0,0 -0.588,-0.309 0,0 -0.588,-0.309 0,0 -0.589,-0.309 0,0 -0.588,-0.308 0,0 -0.588,-0.309 0,0 -0.588,-0.309 0,0 -0.588,-0.309 0,0 -0.588,-0.309 0,0 -0.588,-0.309 0,0 -0.589,-0.308 0,0 -0.588,-0.309 0,0 -0.588,-0.309 0,0 -0.588,-0.309 0,0 -0.588,-0.309 0,0 -0.588,-0.309 0,0 -0.588,-0.309 0,0 -0.589,-0.308 0,0 -0.588,-0.309 0,0 -0.588,-0.309 0,0 -0.588,-0.309 0,0 -0.588,-0.309 0,0 -0.588,-0.309 0,0 -0.588,-0.309 0,0 -0.589,-0.308 0,0 -0.588,-0.309 0,0 -0.588,-0.309 0,0 -0.588,-0.309 0,0 -0.588,-0.309 0,0 -0.588,-0.309 0,0 -0.588,-0.308 0,0 -0.589,-0.309 0,0 -0.588,-0.309 0,0 -0.588,-0.309 0,0 -0.588,-0.309 0,0 -0.588,-0.309 0,0 -0.588,-0.309 0,0 -0.588,-0.308 0,0 -0.589,-0.309 0,0 -0.588,-0.309 0,0 -0.588,-0.309 0,0 -0.588,-0.309 0,0 -0.588,-0.309 0,0 -0.588,-0.308 0,0 -0.588,-0.309 0,0 -0.589,-0.309 0,0 -0.588,-0.309 0,0 -0.588,-0.309 0,0 -0.588,-0.309 0,0 -0.588,-0.309 0,0 -0.588,-0.308 0,0 -0.588,-0.309 0,0 -0.589,-0.309 0,0 -0.588,-0.309 0,0 -0.588,-0.309 0,0 -0.588,-0.309 0,0 -0.588,-0.308 0,0 -0.588,-0.309 0,0 -0.588,-0.309 0,0 -0.589,-0.309 0,0 -0.588,-0.309 0,0 -0.588,-0.309 0,0 -0.588,-0.309 0,0 -0.588,-0.308 0,0 -0.588,-0.309 0,0 -0.588,-0.309 0,0 -0.589,-0.309 0,0 -0.588,-0.309 0,0 -0.588,-0.309 0,0 -0.588,-0.308 0,0 -0.588,-0.309 0,0 -0.588,-0.309 0,0 -0.588,-0.309 0,0 -0.589,-0.309 0,0 -0.588,-0.309 0,0 -0.588,-0.309 0,0 -0.588,-0.308 0,0 -0.588,-0.309 0,0 -0.588,-0.309 0.588,-0.309 0,0 0.588,-0.309 0,0 0.588,-0.309 0,0 0.588,-0.308 0,0 0.588,-0.309 0,0 0.589,-0.309 0,0 0.588,-0.309 0,0 0.588,-0.309 0,0 0.588,-0.309 0,0 0.588,-0.309 0,0 0.588,-0.308 0,0 0.588,-0.309 0,0 0.589,-0.309 0,0 0.588,-0.309 0,0 0.588,-0.309 0,0 0.588,-0.309 0,0 0.588,-0.309 0,0 0.588,-0.308 0,0 0.588,-0.309 0,0 0.589,-0.309 0,0 0.588,-0.309 0,0 0.588,-0.309 0,0 0.588,-0.309 0,0 0.588,-0.308 0,0 0.588,-0.309 0,0 0.588,-0.309 0,0 0.589,-0.309 0,0 0.588,-0.309 0,0 0.588,-0.309 0,0 0.588,-0.309 0,0 0.588,-0.308 0,0 0.588,-0.309 0,0 0.588,-0.309 0,0 0.589,-0.309 0,0 0.588,-0.309 0,0 0.588,-0.309 0,0 0.588,-0.308 0,0 0.588,-0.309 0,0 0.588,-0.309 0,0 0.588,-0.309 0,0 0.589,-0.309 0,0 0.588,-0.309 0,0 0.588,-0.309 0,0 0.588,-0.308 0,0 0.588,-0.309 0,0 0.588,-0.309 0,0 0.588,-0.309 0,0 0.589,-0.309 0,0 0.588,-0.309 0,0 0.588,-0.308 0,0 0.588,-0.309 0,0 0.588,-0.309 0,0 0.588,-0.309 0,0 0.588,-0.309 0,0 0.589,-0.309 0,0 0.588,-0.309 0,0 0.588,-0.308 0,0 0.588,-0.309 0,0 0.588,-0.309 0,0 0.588,-0.309 0,0 0.588,-0.309 0,0 0.589,-0.309 0,0 0.588,-0.308 0,0 0.588,-0.309 0,0 0.588,-0.309 0,0 0.588,-0.309 0,0 0.588,-0.309 0,0 0.588,-0.309 0,0 0.589,-0.309 0,0 0.588,-0.308 0,0 0.588,-0.309 0,0 0.588,-0.309 0,0 0.588,-0.309 0,0 0.588,-0.309 0,0 0.588,-0.309 0,0 0.589,-0.308 0,0 0.588,-0.309 0,0 0.588,-0.309 0,0 0.588,-0.309 0,0 0.588,-0.309 0,0 0.588,-0.309 0,0 0.588,-0.309 0,0 0.589,-0.308 0,0 0.588,-0.309 0,0 0.588,-0.309 0,0 0.588,-0.309 0,0 0.588,-0.309 0,0 0.588,-0.309 0,0 0.588,-0.308 0,0 0.589,-0.309 0,0 0.588,-0.309 0,0 0.588,-0.309 0,0 0.588,-0.309 0,0 0.588,-0.309 0,0 0.588,-0.309 0,0 0.588,-0.308 0,0 0.589,-0.309 0,0 0.588,-0.309 0,0 0.588,-0.309 0,0 0.588,-0.309 0,0 0.588,-0.309 0,0 0.588,-0.309 0,0 0.588,-0.308 0,0 0.589,-0.309 0,0 0.588,-0.309 0,0 0.588,-0.309 0,0 0.588,-0.309 0,0 0.588,-0.309 0,0 0.588,-0.308 0,0 0.588,-0.309 0,0 0.589,-0.309 0,0 0.588,-0.309 0,0 0.588,-0.309 0,0 0.588,-0.309 0,0 0.588,-0.309 0,0 0.588,-0.308 0,0 0.588,-0.309 0,0 0.589,-0.309 0,0 0.588,-0.309 0,0 0.588,-0.309 0,0 0.588,-0.309 0,0 0.588,-0.308 0,0 0.588,-0.309 0,0 0.588,-0.309 0,0 0.589,-0.309 0,0 0.588,-0.309 0,0 0.588,-0.309 0,0 0.588,-0.309 0,0 0.588,-0.308 0,0 0.588,-0.309 0,0 0.588,-0.309 0,0 0.589,-0.309 0,0 0.588,-0.309 0,0 0.588,-0.309 0,0 0.588,-0.308 0,0 0.588,-0.309 0,0 0.588,-0.309 0,0 0.588,-0.309 0,0 0.589,-0.309 0,0 0.588,-0.309 0,0 0.588,-0.309 0,0 0.588,-0.308 0,0 0.588,-0.309 0,0 0.588,-0.309 0,0 0.588,-0.309 0,0 0.589,-0.309 0,0 0.588,-0.309 0,0 0.588,-0.308 0,0 0.588,-0.309 0,0 0.588,-0.309 0,0 0.588,-0.309 0,0 0.588,-0.309 0,0 0.589,-0.309 0,0 0.588,-0.309 0,0 0.588,-0.308 0,0 0.588,-0.309 0,0 0.588,-0.309 0,0 0.588,-0.309 0,0 0.588,-0.309 0,0 0.589,-0.309 0.588,0.309 0,0 0.588,0.309 0,0 0.588,0.309 0,0 0.588,0.309 0,0 0.588,0.309 0,0 0.588,0.308 0,0 0.589,0.309 0,0 0.588,0.309 0,0 0.588,0.309 0,0 0.588,0.309 0,0 0.588,0.309 0,0 0.588,0.309 0,0 0.588,0.308 0,0 0.589,0.309 0,0 0.588,0.309 0,0 0.588,0.309 0,0 0.588,0.309 0,0 0.588,0.309 0,0 0.588,0.308 0,0 0.588,0.309 0,0 0.589,0.309 0,0 0.588,0.309 0,0 0.588,0.309 0,0 0.588,0.309 0,0 0.588,0.309 0,0 0.588,0.308 0,0 0.588,0.309 0,0 0.589,0.309 0,0 0.588,0.309 0,0 0.588,0.309 0,0 0.588,0.309 0,0 0.588,0.308 0,0 0.588,0.309 0,0 0.588,0.309 0,0 0.589,0.309 0,0 0.588,0.309 0,0 0.588,0.309 0,0 0.588,0.309 0,0 0.588,0.308 0,0 0.588,0.309 0,0 0.588,0.309 0,0 0.589,0.309 0,0 0.588,0.309 0,0 0.588,0.309 0,0 0.588,0.308 0,0 0.588,0.309 0,0 0.588,0.309 0,0 0.588,0.309 0,0 0.589,0.309 0,0 0.588,0.309 0,0 0.588,0.309 0,0 0.588,0.308 0,0 0.588,0.309 0,0 0.588,0.309 0,0 0.588,0.309 0,0 0.589,0.309 0,0 0.588,0.309 0,0 0.588,0.308 0,0 0.588,0.309 0,0 0.588,0.309 0,0 0.588,0.309 0,0 0.588,0.309 0,0 0.588,0.309 0,0 0.589,0.309 0,0 0.588,0.308 0,0 0.588,0.309 0,0 0.588,0.309 0,0 0.588,0.309 0,0 0.588,0.309 0,0 0.588,0.309 0,0 0.589,0.309 0,0 0.588,0.308 0,0 0.588,0.309 0,0 0.588,0.309 0,0 0.588,0.309 0,0 0.588,0.309 0,0 0.588,0.309 0,0 0.589,0.308 0,0 0.588,0.309 0,0 0.588,0.309 0,0 0.588,0.309 0,0 0.588,0.309 0,0 0.588,0.309 0,0 0.588,0.309 0,0 0.589,0.308 0,0 0.588,0.309 0,0 0.588,0.309 0,0 0.588,0.309 0,0 0.588,0.309 0,0 0.588,0.309 0,0 0.588,0.308 0,0 0.589,0.309 0,0 0.588,0.309 0,0 0.588,0.309 0,0 0.588,0.309 0,0 0.588,0.309 0,0 0.588,0.309 0,0 0.588,0.308 0,0 0.589,0.309 0,0 0.588,0.309 0,0 0.588,0.309 0,0 0.588,0.309 0,0 0.588,0.309 0,0 0.588,0.308 0,0 0.588,0.309 0,0 0.589,0.309 0,0 0.588,0.309 0,0 0.588,0.309 0,0 0.588,0.309 0,0 0.588,0.309 0,0 0.588,0.308 0,0 0.588,0.309 0,0 0.589,0.309 0,0 0.588,0.309 0,0 0.588,0.309 0,0 0.588,0.309 0,0 0.588,0.308 0,0 0.588,0.309 0,0 0.588,0.309 0,0 0.589,0.309 0,0 0.588,0.309 0,0 0.588,0.309 0,0 0.588,0.309 0,0 0.588,0.308 0,0 0.588,0.309 0,0 0.588,0.309 0,0 0.589,0.309 0,0 0.588,0.309 0,0 0.588,0.309 0,0 0.588,0.308 0,0 0.588,0.309 0,0 0.588,0.309 0,0 0.588,0.309 0,0 0.589,0.309 0,0 0.588,0.309 0,0 0.588,0.309 0,0 0.588,0.308 0,0 0.588,0.309 0,0 0.588,0.309 0,0 0.588,0.309 0,0 0.589,0.309 0,0 0.588,0.309 0,0 0.588,0.308 0,0 0.588,0.309 0,0 0.588,0.309 0,0 0.588,0.309 0,0 0.588,0.309 0,0 0.589,0.309 0,0 0.588,0.309 0,0 0.588,0.308 0,0 0.588,0.309 0,0 0.588,0.309 0,0 0.588,0.309 0,0 0.588,0.309 0,0 0.589,0.309 0,0 0.588,0.309 0,0 0.588,0.308 0,0 0.588,0.309 0,0 0.588,0.309 0,0 0.588,0.309 -0.588,0.309 0,0 -0.588,0.309 0,0 -0.588,0.308 0,0 -0.588,0.309 0,0 -0.588,0.309 0,0 -0.589,0.309 0,0 -0.588,0.309 0,0 -0.588,0.309 0,0 -0.588,0.309 0,0 -0.588,0.308 0,0 -0.588,0.309 0,0 -0.588,0.309 0,0 -0.589,0.309 0,0 -0.588,0.309 0,0 -0.588,0.309 0,0 -0.588,0.308 0,0 -0.588,0.309 0,0 -0.588,0.309 0,0 -0.588,0.309 0,0 -0.589,0.309 0,0 -0.588,0.309 0,0 -0.588,0.309 0,0 -0.588,0.308 0,0 -0.588,0.309 0,0 -0.588,0.309 0,0 -0.588,0.309 0,0 -0.589,0.309 0,0 -0.588,0.309 0,0 -0.588,0.308 0,0 -0.588,0.309 0,0 -0.588,0.309 0,0 -0.588,0.309 0,0 -0.588,0.309 0,0 -0.589,0.309 0,0 -0.588,0.309 0,0 -0.588,0.308 0,0 -0.588,0.309 0,0 -0.588,0.309 0,0 -0.588,0.309 0,0 -0.588,0.309 0,0 -0.589,0.309 0,0 -0.588,0.308 0,0 -0.588,0.309 0,0 -0.588,0.309 0,0 -0.588,0.309 0,0 -0.588,0.309 0,0 -0.588,0.309 0,0 -0.589,0.309 0,0 -0.588,0.308 0,0 -0.588,0.309 0,0 -0.588,0.309 0,0 -0.588,0.309 0,0 -0.588,0.309 0,0 -0.588,0.309 0,0 -0.589,0.308 0,0 -0.588,0.309 0,0 -0.588,0.309 0,0 -0.588,0.309 0,0 -0.588,0.309 0,0 -0.588,0.309 0,0 -0.588,0.309 0,0 -0.589,0.308 0,0 -0.588,0.309 0,0 -0.588,0.309 0,0 -0.588,0.309 0,0 -0.588,0.309 0,0 -0.588,0.309 0,0 -0.588,0.309 0,0 -0.589,0.308 0,0 -0.588,0.309 0,0 -0.588,0.309 0,0 -0.588,0.309 0,0 -0.588,0.309 0,0 -0.588,0.309 0,0 -0.588,0.308 0,0 -0.589,0.309 0,0 -0.588,0.309 0,0 -0.588,0.309 0,0 -0.588,0.309 0,0 -0.588,0.309 0,0 -0.588,0.309 0,0 -0.588,0.308 0,0 -0.589,0.309 0,0 -0.588,0.309 0,0 -0.588,0.309 0,0 -0.588,0.309 0,0 -0.588,0.309 0,0 -0.588,0.308 0,0 -0.588,0.309 0,0 -0.589,0.309 0,0 -0.588,0.309 0,0 -0.588,0.309 0,0 -0.588,0.309 0,0 -0.588,0.309 0,0 -0.588,0.308 0,0 -0.588,0.309 0,0 -0.589,0.309 0,0 -0.588,0.309 0,0 -0.588,0.309 0,0 -0.588,0.309 0,0 -0.588,0.308 0,0 -0.588,0.309 0,0 -0.588,0.309 0,0 -0.588,0.309 0,0 -0.589,0.309 0,0 -0.588,0.309 0,0 -0.588,0.309 0,0 -0.588,0.308 0,0 -0.588,0.309 0,0 -0.588,0.309 0,0 -0.588,0.309 0,0 -0.589,0.309 0,0 -0.588,0.309 0,0 -0.588,0.308 0,0 -0.588,0.309 0,0 -0.588,0.309 0,0 -0.588,0.309 0,0 -0.588,0.309 0,0 -0.589,0.309 0,0 -0.588,0.309 0,0 -0.588,0.308 0,0 -0.588,0.309 0,0 -0.588,0.309 0,0 -0.588,0.309 0,0 -0.588,0.309 0,0 -0.589,0.309 0,0 -0.588,0.308 0,0 -0.588,0.309 0,0 -0.588,0.309 0,0 -0.588,0.309 0,0 -0.588,0.309 0,0 -0.588,0.309 0,0 -0.589,0.309 0,0 -0.588,0.308 0,0 -0.588,0.309 0,0 -0.588,0.309 0,0 -0.588,0.309 0,0 -0.588,0.3088 0,0 -0.588,0.3089 0,0 -0.589,0.3088 0,0 -0.588,0.3089 0,0 -0.588,0.3088 0,0 -0.588,0.3088 0,0 -0.588,0.3089 0,0 -0.588,0.3088 0,0 -0.588,0.3089 0,0 -0.589,0.3088 0,0 -0.588,0.3089 0,0 -0.588,0.3088 0,0 -0.588,0.3089 0,0 -0.588,0.3088 0,0 -0.588,0.3089 0,0 -0.588,0.3088 0,0 -0.589,0.3089 0,0 -0.588,0.3088 0,0 -0.588,0.3089 0,0 -0.588,0.3088 0,0 -0.588,0.3089 0,0 -0.588,0.3088 0,0 -0.588,0.3089 -0.589,-0.3089"
                 inkscape:connector-curvature="0" />
            </defs>
            <g
               id="g36"
               clip-path="url(#p7ff5b81e1d)">
              <use
                 id="use38"
                 y="432"
                 xlink:href="#C2_0_ddfe1a163c"
                 x="0"
                 style="fill:none;stroke:#000000"
                 width="744.09448"
                 height="1052.3622" />
            </g>
          </g>
          <g
             id="LineCollection_4">
            <defs
               id="defs41">
              <path
                 id="C3_0_a525d3f2eb"
                 d="m 259.617,-117.632 0,0 -0.588,-0.309 0,0 -0.588,-0.309 0,0 -0.588,-0.309 0,0 -0.588,-0.309 0,0 -0.588,-0.308 0,0 -0.588,-0.309 0,0 -0.589,-0.309 0,0 -0.588,-0.309 0,0 -0.588,-0.309 0,0 -0.588,-0.309 0,0 -0.588,-0.308 0,0 -0.588,-0.309 0,0 -0.588,-0.309 0,0 -0.589,-0.309 0,0 -0.588,-0.309 0,0 -0.588,-0.309 0,0 -0.588,-0.309 0,0 -0.588,-0.308 0,0 -0.588,-0.309 0,0 -0.588,-0.309 0,0 -0.589,-0.309 0,0 -0.588,-0.309 0,0 -0.588,-0.309 0,0 -0.588,-0.309 0,0 -0.588,-0.308 0,0 -0.588,-0.309 0,0 -0.588,-0.309 0,0 -0.589,-0.309 0,0 -0.588,-0.309 0,0 -0.588,-0.309 0,0 -0.588,-0.308 0,0 -0.588,-0.309 0,0 -0.588,-0.309 0,0 -0.588,-0.309 0,0 -0.589,-0.309 0,0 -0.588,-0.309 0,0 -0.588,-0.309 0,0 -0.588,-0.308 0,0 -0.588,-0.309 0,0 -0.588,-0.309 0,0 -0.588,-0.309 0,0 -0.589,-0.309 0,0 -0.588,-0.309 0,0 -0.588,-0.308 0,0 -0.588,-0.309 0,0 -0.588,-0.309 0,0 -0.588,-0.309 0,0 -0.588,-0.309 0,0 -0.589,-0.309 0,0 -0.588,-0.309 0,0 -0.588,-0.308 0,0 -0.588,-0.309 0,0 -0.588,-0.309 0,0 -0.588,-0.309 0,0 -0.588,-0.309 0,0 -0.589,-0.309 0,0 -0.588,-0.308 0,0 -0.588,-0.309 0,0 -0.588,-0.309 0,0 -0.588,-0.309 0,0 -0.588,-0.309 0,0 -0.588,-0.309 0,0 -0.589,-0.309 0,0 -0.588,-0.308 0,0 -0.588,-0.309 0,0 -0.588,-0.309 0,0 -0.588,-0.309 0,0 -0.588,-0.309 0,0 -0.588,-0.309 0,0 -0.589,-0.308 0,0 -0.588,-0.309 0,0 -0.588,-0.309 0,0 -0.588,-0.309 0,0 -0.588,-0.309 0,0 -0.588,-0.309 0,0 -0.588,-0.309 0,0 -0.589,-0.308 0,0 -0.588,-0.309 0,0 -0.588,-0.309 0.588,-0.309 0,0 0.588,-0.309 0,0 0.589,-0.309 0,0 0.588,-0.308 0,0 0.588,-0.309 0,0 0.588,-0.309 0,0 0.588,-0.309 0,0 0.588,-0.309 0,0 0.588,-0.309 0,0 0.589,-0.309 0,0 0.588,-0.308 0,0 0.588,-0.309 0,0 0.588,-0.309 0,0 0.588,-0.309 0,0 0.588,-0.309 0,0 0.588,-0.309 0,0 0.589,-0.309 0,0 0.588,-0.308 0,0 0.588,-0.309 0,0 0.588,-0.309 0,0 0.588,-0.309 0,0 0.588,-0.309 0,0 0.588,-0.309 0,0 0.589,-0.308 0,0 0.588,-0.309 0,0 0.588,-0.309 0,0 0.588,-0.309 0,0 0.588,-0.309 0,0 0.588,-0.309 0,0 0.588,-0.309 0,0 0.589,-0.308 0,0 0.588,-0.309 0,0 0.588,-0.309 0,0 0.588,-0.309 0,0 0.588,-0.309 0,0 0.588,-0.309 0,0 0.588,-0.308 0,0 0.589,-0.309 0,0 0.588,-0.309 0,0 0.588,-0.309 0,0 0.588,-0.309 0,0 0.588,-0.309 0,0 0.588,-0.309 0,0 0.588,-0.308 0,0 0.589,-0.309 0,0 0.588,-0.309 0,0 0.588,-0.309 0,0 0.588,-0.309 0,0 0.588,-0.309 0,0 0.588,-0.308 0,0 0.588,-0.309 0,0 0.589,-0.309 0,0 0.588,-0.309 0,0 0.588,-0.309 0,0 0.588,-0.309 0,0 0.588,-0.309 0,0 0.588,-0.308 0,0 0.588,-0.309 0,0 0.589,-0.309 0,0 0.588,-0.309 0,0 0.588,-0.309 0,0 0.588,-0.309 0,0 0.588,-0.308 0,0 0.588,-0.309 0,0 0.588,-0.309 0,0 0.589,-0.309 0,0 0.588,-0.309 0,0 0.588,-0.309 0,0 0.588,-0.309 0,0 0.588,-0.308 0,0 0.588,-0.309 0,0 0.588,-0.309 0,0 0.589,-0.309 0,0 0.588,-0.309 0,0 0.588,-0.309 0,0 0.588,-0.308 0,0 0.588,-0.309 0,0 0.588,-0.309 0,0 0.588,-0.309 0,0 0.589,-0.309 0.588,0.309 0,0 0.588,0.309 0,0 0.588,0.309 0,0 0.588,0.309 0,0 0.588,0.308 0,0 0.588,0.309 0,0 0.589,0.309 0,0 0.588,0.309 0,0 0.588,0.309 0,0 0.588,0.309 0,0 0.588,0.308 0,0 0.588,0.309 0,0 0.588,0.309 0,0 0.589,0.309 0,0 0.588,0.309 0,0 0.588,0.309 0,0 0.588,0.309 0,0 0.588,0.308 0,0 0.588,0.309 0,0 0.588,0.309 0,0 0.589,0.309 0,0 0.588,0.309 0,0 0.588,0.309 0,0 0.588,0.308 0,0 0.588,0.309 0,0 0.588,0.309 0,0 0.588,0.309 0,0 0.589,0.309 0,0 0.588,0.309 0,0 0.588,0.309 0,0 0.588,0.308 0,0 0.588,0.309 0,0 0.588,0.309 0,0 0.588,0.309 0,0 0.589,0.309 0,0 0.588,0.309 0,0 0.588,0.308 0,0 0.588,0.309 0,0 0.588,0.309 0,0 0.588,0.309 0,0 0.588,0.309 0,0 0.589,0.309 0,0 0.588,0.309 0,0 0.588,0.308 0,0 0.588,0.309 0,0 0.588,0.309 0,0 0.588,0.309 0,0 0.588,0.309 0,0 0.589,0.309 0,0 0.588,0.308 0,0 0.588,0.309 0,0 0.588,0.309 0,0 0.588,0.309 0,0 0.588,0.309 0,0 0.588,0.309 0,0 0.589,0.309 0,0 0.588,0.308 0,0 0.588,0.309 0,0 0.588,0.309 0,0 0.588,0.309 0,0 0.588,0.309 0,0 0.588,0.309 0,0 0.588,0.308 0,0 0.589,0.309 0,0 0.588,0.309 0,0 0.588,0.309 0,0 0.588,0.309 0,0 0.588,0.309 0,0 0.588,0.309 0,0 0.588,0.308 0,0 0.589,0.309 0,0 0.588,0.309 0,0 0.588,0.309 0,0 0.588,0.309 0,0 0.588,0.309 0,0 0.588,0.309 0,0 0.588,0.308 0,0 0.589,0.309 0,0 0.588,0.309 0,0 0.588,0.309 -0.588,0.309 0,0 -0.588,0.309 0,0 -0.589,0.308 0,0 -0.588,0.309 0,0 -0.588,0.309 0,0 -0.588,0.309 0,0 -0.588,0.309 0,0 -0.588,0.309 0,0 -0.588,0.309 0,0 -0.589,0.308 0,0 -0.588,0.309 0,0 -0.588,0.309 0,0 -0.588,0.309 0,0 -0.588,0.309 0,0 -0.588,0.309 0,0 -0.588,0.308 0,0 -0.589,0.309 0,0 -0.588,0.309 0,0 -0.588,0.309 0,0 -0.588,0.309 0,0 -0.588,0.309 0,0 -0.588,0.309 0,0 -0.588,0.308 0,0 -0.588,0.309 0,0 -0.589,0.309 0,0 -0.588,0.309 0,0 -0.588,0.309 0,0 -0.588,0.309 0,0 -0.588,0.308 0,0 -0.588,0.309 0,0 -0.588,0.309 0,0 -0.589,0.309 0,0 -0.588,0.309 0,0 -0.588,0.309 0,0 -0.588,0.309 0,0 -0.588,0.308 0,0 -0.588,0.309 0,0 -0.588,0.309 0,0 -0.589,0.309 0,0 -0.588,0.309 0,0 -0.588,0.309 0,0 -0.588,0.308 0,0 -0.588,0.309 0,0 -0.588,0.309 0,0 -0.588,0.309 0,0 -0.589,0.309 0,0 -0.588,0.309 0,0 -0.588,0.309 0,0 -0.588,0.308 0,0 -0.588,0.309 0,0 -0.588,0.309 0,0 -0.588,0.309 0,0 -0.589,0.309 0,0 -0.588,0.309 0,0 -0.588,0.308 0,0 -0.588,0.309 0,0 -0.588,0.309 0,0 -0.588,0.309 0,0 -0.588,0.309 0,0 -0.589,0.309 0,0 -0.588,0.309 0,0 -0.588,0.308 0,0 -0.588,0.309 0,0 -0.588,0.309 0,0 -0.588,0.309 0,0 -0.588,0.309 0,0 -0.589,0.309 0,0 -0.588,0.309 0,0 -0.588,0.308 0,0 -0.588,0.309 0,0 -0.588,0.309 0,0 -0.588,0.309 0,0 -0.588,0.309 0,0 -0.589,0.309 0,0 -0.588,0.308 0,0 -0.588,0.309 0,0 -0.588,0.309 0,0 -0.588,0.309 0,0 -0.588,0.309 0,0 -0.588,0.309 -0.589,-0.309"
                 inkscape:connector-curvature="0" />
            </defs>
            <g
               id="g44"
               clip-path="url(#p7ff5b81e1d)">
              <use
                 id="use46"
                 y="432"
                 xlink:href="#C3_0_a525d3f2eb"
                 x="0"
                 style="fill:none;stroke:#000000"
                 width="744.09448"
                 height="1052.3622" />
            </g>
          </g>
          <g
             id="LineCollection_5">
            <defs
               id="defs49">
              <path
                 id="C4_0_84a1143a18"
                 d="m 259.617,-129.986 0,0 -0.588,-0.309 0,0 -0.588,-0.309 0,0 -0.588,-0.309 0,0 -0.588,-0.308 0,0 -0.588,-0.309 0,0 -0.588,-0.309 0,0 -0.589,-0.309 0,0 -0.588,-0.309 0,0 -0.588,-0.309 0,0 -0.588,-0.309 0,0 -0.588,-0.308 0,0 -0.588,-0.309 0,0 -0.588,-0.309 0,0 -0.589,-0.309 0,0 -0.588,-0.309 0,0 -0.588,-0.309 0,0 -0.588,-0.308 0,0 -0.588,-0.309 0,0 -0.588,-0.309 0,0 -0.588,-0.309 0,0 -0.589,-0.309 0,0 -0.588,-0.309 0,0 -0.588,-0.309 0,0 -0.588,-0.308 0,0 -0.588,-0.309 0,0 -0.588,-0.309 0,0 -0.588,-0.309 0,0 -0.589,-0.309 0,0 -0.588,-0.309 0,0 -0.588,-0.308 0,0 -0.588,-0.309 0,0 -0.588,-0.309 0,0 -0.588,-0.309 0,0 -0.588,-0.309 0,0 -0.589,-0.309 0,0 -0.588,-0.309 0,0 -0.588,-0.308 0,0 -0.588,-0.309 0,0 -0.588,-0.309 0.588,-0.309 0,0 0.588,-0.309 0,0 0.588,-0.309 0,0 0.588,-0.308 0,0 0.589,-0.309 0,0 0.588,-0.309 0,0 0.588,-0.309 0,0 0.588,-0.309 0,0 0.588,-0.309 0,0 0.588,-0.309 0,0 0.588,-0.308 0,0 0.589,-0.309 0,0 0.588,-0.309 0,0 0.588,-0.309 0,0 0.588,-0.309 0,0 0.588,-0.309 0,0 0.588,-0.309 0,0 0.588,-0.308 0,0 0.589,-0.309 0,0 0.588,-0.309 0,0 0.588,-0.309 0,0 0.588,-0.309 0,0 0.588,-0.309 0,0 0.588,-0.308 0,0 0.588,-0.309 0,0 0.589,-0.309 0,0 0.588,-0.309 0,0 0.588,-0.309 0,0 0.588,-0.309 0,0 0.588,-0.309 0,0 0.588,-0.308 0,0 0.588,-0.309 0,0 0.589,-0.309 0,0 0.588,-0.309 0,0 0.588,-0.309 0,0 0.588,-0.309 0,0 0.588,-0.308 0,0 0.588,-0.309 0,0 0.588,-0.309 0,0 0.589,-0.309 0.588,0.309 0,0 0.588,0.309 0,0 0.588,0.309 0,0 0.588,0.308 0,0 0.588,0.309 0,0 0.588,0.309 0,0 0.589,0.309 0,0 0.588,0.309 0,0 0.588,0.309 0,0 0.588,0.308 0,0 0.588,0.309 0,0 0.588,0.309 0,0 0.588,0.309 0,0 0.589,0.309 0,0 0.588,0.309 0,0 0.588,0.309 0,0 0.588,0.308 0,0 0.588,0.309 0,0 0.588,0.309 0,0 0.588,0.309 0,0 0.589,0.309 0,0 0.588,0.309 0,0 0.588,0.308 0,0 0.588,0.309 0,0 0.588,0.309 0,0 0.588,0.309 0,0 0.588,0.309 0,0 0.589,0.309 0,0 0.588,0.309 0,0 0.588,0.308 0,0 0.588,0.309 0,0 0.588,0.309 0,0 0.588,0.309 0,0 0.588,0.309 0,0 0.589,0.309 0,0 0.588,0.309 0,0 0.588,0.308 0,0 0.588,0.309 0,0 0.588,0.309 0,0 0.588,0.309 -0.588,0.309 0,0 -0.588,0.309 0,0 -0.588,0.308 0,0 -0.588,0.309 0,0 -0.588,0.309 0,0 -0.589,0.309 0,0 -0.588,0.309 0,0 -0.588,0.309 0,0 -0.588,0.309 0,0 -0.588,0.308 0,0 -0.588,0.309 0,0 -0.588,0.309 0,0 -0.589,0.309 0,0 -0.588,0.309 0,0 -0.588,0.309 0,0 -0.588,0.308 0,0 -0.588,0.309 0,0 -0.588,0.309 0,0 -0.588,0.309 0,0 -0.589,0.309 0,0 -0.588,0.309 0,0 -0.588,0.309 0,0 -0.588,0.308 0,0 -0.588,0.309 0,0 -0.588,0.309 0,0 -0.588,0.309 0,0 -0.589,0.309 0,0 -0.588,0.309 0,0 -0.588,0.308 0,0 -0.588,0.309 0,0 -0.588,0.309 0,0 -0.588,0.309 0,0 -0.588,0.309 0,0 -0.589,0.309 0,0 -0.588,0.309 0,0 -0.588,0.308 0,0 -0.588,0.309 0,0 -0.588,0.309 0,0 -0.588,0.309 0,0 -0.588,0.309 -0.589,-0.309"
                 inkscape:connector-curvature="0" />
            </defs>
            <g
               id="g52"
               clip-path="url(#p7ff5b81e1d)">
              <use
                 id="use54"
                 y="432"
                 xlink:href="#C4_0_84a1143a18"
                 x="0"
                 style="fill:none;stroke:#000000"
                 width="744.09448"
                 height="1052.3622" />
            </g>
          </g>
          <g
             id="LineCollection_6">
            <defs
               id="defs57">
              <path
                 id="C5_0_85eaadf750"
                 d="m 259.617,-141.105 0,0 -0.588,-0.308 0,0 -0.588,-0.309 0,0 -0.588,-0.309 0.588,-0.309 0,0 0.588,-0.309 0,0 0.588,-0.309 0,0 0.589,-0.308 0.588,0.308 0,0 0.588,0.309 0,0 0.588,0.309 0,0 0.588,0.309 -0.588,0.309 0,0 -0.588,0.309 0,0 -0.588,0.308 0,0 -0.588,0.309 -0.589,-0.309"
                 inkscape:connector-curvature="0" />
            </defs>
            <g
               id="g60"
               clip-path="url(#p7ff5b81e1d)">
              <use
                 id="use62"
                 y="432"
                 xlink:href="#C5_0_85eaadf750"
                 x="0"
                 style="fill:none;stroke:#000000"
                 width="744.09448"
                 height="1052.3622" />
            </g>
          </g>
          <g
             id="matplotlib.axis_1">
            <g
               id="xtick_1">
              <g
                 id="line2d_1">
                <defs
                   id="defs67">
                  <path
                     style="stroke:#000000;stroke-width:0.5"
                     id="m741efc42ff"
                     d="M 0,0 0,4"
                     inkscape:connector-curvature="0" />
                </defs>
                <g
                   id="g70">
                  <use
                     id="use72"
                     y="388.79999"
                     xlink:href="#m741efc42ff"
                     x="142.57707"
                     style="stroke:#000000;stroke-width:0.5"
                     width="744.09448"
                     height="1052.3622" />
                </g>
              </g>
              <g
                 id="line2d_2">
                <defs
                   id="defs75">
                  <path
                     style="stroke:#000000;stroke-width:0.5"
                     id="m93b0483c22"
                     d="M 0,0 0,-4"
                     inkscape:connector-curvature="0" />
                </defs>
                <g
                   id="g78">
                  <use
                     id="use80"
                     y="43.200001"
                     xlink:href="#m93b0483c22"
                     x="142.57707"
                     style="stroke:#000000;stroke-width:0.5"
                     width="744.09448"
                     height="1052.3622" />
                </g>
              </g>
              <g
                 id="text_1">
                <!-- 5 -->
                <defs
                   id="defs83">
                  <path
                     id="BitstreamVeraSans-Roman-2212"
                     d="m 10.5938,35.5 62.5937,0 0,-8.2969 -62.5937,0 z"
                     inkscape:connector-curvature="0" />
                  <path
                     id="BitstreamVeraSans-Roman-35"
                     d="m 10.7969,72.9062 38.7187,0 0,-8.3124 -29.6875,0 0,-17.8594 q 2.1407,0.7344 4.2813,1.0937 2.1562,0.3594 4.3125,0.3594 12.2031,0 19.3281,-6.6875 7.1406,-6.6875 7.1406,-18.1094 0,-11.7656 -7.3281,-18.29685 -7.3281,-6.51563 -20.6563,-6.51563 -4.5937,0 -9.3593,0.781255 -4.75,0.78125 -9.82815,2.343745 l 0,9.92188 q 4.39065,-2.39062 9.07815,-3.5625 4.6875,-1.17188 9.9062,-1.17188 8.4531,0 13.375,4.43748 4.9375,4.4375 4.9375,12.0625 0,7.6094 -4.9375,12.0469 -4.9219,4.4531 -13.375,4.4531 -3.9531,0 -7.8906,-0.875 -3.9219,-0.875 -8.0156,-2.7344 z"
                     inkscape:connector-curvature="0" />
                </defs>
                <g
                   id="g87"
                   transform="matrix(0.12,0,0,-0.12,134.89145,405.91812)">
                  <use
                     id="use89"
                     xlink:href="#BitstreamVeraSans-Roman-2212"
                     x="0"
                     y="0"
                     width="744.09448"
                     height="1052.3622" />
                  <use
                     id="use91"
                     xlink:href="#BitstreamVeraSans-Roman-35"
                     x="83.789062"
                     y="0"
                     width="744.09448"
                     height="1052.3622" />
                </g>
              </g>
            </g>
            <g
               id="xtick_2">
              <g
                 id="line2d_3">
                <g
                   id="g95">
                  <use
                     id="use97"
                     y="388.79999"
                     xlink:href="#m741efc42ff"
                     x="260.20554"
                     style="stroke:#000000;stroke-width:0.5"
                     width="744.09448"
                     height="1052.3622" />
                </g>
              </g>
              <g
                 id="line2d_4">
                <g
                   id="g100">
                  <use
                     id="use102"
                     y="43.200001"
                     xlink:href="#m93b0483c22"
                     x="260.20554"
                     style="stroke:#000000;stroke-width:0.5"
                     width="744.09448"
                     height="1052.3622" />
                </g>
              </g>
              <g
                 id="text_2">
                <!-- 0 -->
                <defs
                   id="defs105">
                  <path
                     id="BitstreamVeraSans-Roman-30"
                     d="m 31.7812,66.4062 q -7.6093,0 -11.4531,-7.5 Q 16.5,51.4219 16.5,36.375 q 0,-14.9844 3.8281,-22.4844 3.8438,-7.49998 11.4531,-7.49998 7.6719,0 11.5,7.49998 3.8438,7.5 3.8438,22.4844 0,15.0469 -3.8438,22.5312 -3.8281,7.5 -11.5,7.5 m 0,7.8126 q 12.2657,0 18.7344,-9.7032 6.4688,-9.6875 6.4688,-28.1406 0,-18.4062 -6.4688,-28.10938 -6.4687,-9.6875 -18.7344,-9.6875 -12.25,0 -18.7187,9.6875 -6.46875,9.70318 -6.46875,28.10938 0,18.4531 6.46875,28.1406 6.4687,9.7032 18.7187,9.7032"
                     inkscape:connector-curvature="0" />
                </defs>
                <g
                   id="g108"
                   transform="matrix(0.12,0,0,-0.12,257.1821,405.91812)">
                  <use
                     id="use110"
                     xlink:href="#BitstreamVeraSans-Roman-30"
                     x="0"
                     y="0"
                     width="744.09448"
                     height="1052.3622" />
                </g>
              </g>
            </g>
            <g
               id="xtick_3">
              <g
                 id="line2d_5">
                <g
                   id="g114">
                  <use
                     id="use116"
                     y="388.79999"
                     xlink:href="#m741efc42ff"
                     x="377.83398"
                     style="stroke:#000000;stroke-width:0.5"
                     width="744.09448"
                     height="1052.3622" />
                </g>
              </g>
              <g
                 id="line2d_6">
                <g
                   id="g119">
                  <use
                     id="use121"
                     y="43.200001"
                     xlink:href="#m93b0483c22"
                     x="377.83398"
                     style="stroke:#000000;stroke-width:0.5"
                     width="744.09448"
                     height="1052.3622" />
                </g>
              </g>
              <g
                 id="text_3">
                <!-- 5 -->
                <g
                   id="g124"
                   transform="matrix(0.12,0,0,-0.12,375.00368,405.91812)">
                  <use
                     id="use126"
                     xlink:href="#BitstreamVeraSans-Roman-35"
                     x="0"
                     y="0"
                     width="744.09448"
                     height="1052.3622" />
                </g>
              </g>
            </g>
            <g
               id="xtick_4">
              <g
                 id="line2d_7">
                <g
                   id="g130">
                  <use
                     id="use132"
                     y="388.79999"
                     xlink:href="#m741efc42ff"
                     x="495.46246"
                     style="stroke:#000000;stroke-width:0.5"
                     width="744.09448"
                     height="1052.3622" />
                </g>
              </g>
              <g
                 id="line2d_8">
                <g
                   id="g135">
                  <use
                     id="use137"
                     y="43.200001"
                     xlink:href="#m93b0483c22"
                     x="495.46246"
                     style="stroke:#000000;stroke-width:0.5"
                     width="744.09448"
                     height="1052.3622" />
                </g>
              </g>
              <g
                 id="text_4">
                <!-- 10 -->
                <defs
                   id="defs140">
                  <path
                     id="BitstreamVeraSans-Roman-31"
                     d="m 12.4062,8.29688 16.1094,0 0,55.62502 -17.5312,-3.5157 0,8.9844 17.4375,3.5156 9.8593,0 0,-64.60932 16.1094,0 0,-8.29688 -41.9844,0 z"
                     inkscape:connector-curvature="0" />
                </defs>
                <g
                   id="g143"
                   transform="matrix(0.12,0,0,-0.12,488.88495,405.91812)">
                  <use
                     id="use145"
                     xlink:href="#BitstreamVeraSans-Roman-31"
                     x="0"
                     y="0"
                     width="744.09448"
                     height="1052.3622" />
                  <use
                     id="use147"
                     xlink:href="#BitstreamVeraSans-Roman-30"
                     x="63.623047"
                     y="0"
                     width="744.09448"
                     height="1052.3622" />
                </g>
              </g>
            </g>
          </g>
          <g
             id="matplotlib.axis_2">
            <g
               id="ytick_1">
              <g
                 id="line2d_9">
                <defs
                   id="defs152">
                  <path
                     style="stroke:#000000;stroke-width:0.5"
                     id="mcb0005524f"
                     d="M 0,0 -4,0"
                     inkscape:connector-curvature="0" />
                </defs>
                <g
                   id="g155">
                  <use
                     id="use157"
                     y="351.73834"
                     xlink:href="#mcb0005524f"
                     x="72"
                     style="stroke:#000000;stroke-width:0.5"
                     width="744.09448"
                     height="1052.3622" />
                </g>
              </g>
              <g
                 id="line2d_10">
                <defs
                   id="defs160">
                  <path
                     style="stroke:#000000;stroke-width:0.5"
                     id="m728421d6d4"
                     d="M 0,0 4,0"
                     inkscape:connector-curvature="0" />
                </defs>
                <g
                   id="g163">
                  <use
                     id="use165"
                     y="351.73834"
                     xlink:href="#m728421d6d4"
                     x="518.40002"
                     style="stroke:#000000;stroke-width:0.5"
                     width="744.09448"
                     height="1052.3622" />
                </g>
              </g>
              <g
                 id="text_5">
                <!-- 5 -->
                <g
                   id="g168"
                   transform="matrix(0.12,0,0,-0.12,48.62875,355.04959)">
                  <use
                     id="use170"
                     xlink:href="#BitstreamVeraSans-Roman-2212"
                     x="0"
                     y="0"
                     width="744.09448"
                     height="1052.3622" />
                  <use
                     id="use172"
                     xlink:href="#BitstreamVeraSans-Roman-35"
                     x="83.789062"
                     y="0"
                     width="744.09448"
                     height="1052.3622" />
                </g>
              </g>
            </g>
            <g
               id="ytick_2">
              <g
                 id="line2d_11">
                <g
                   id="g176">
                  <use
                     id="use178"
                     y="289.9689"
                     xlink:href="#mcb0005524f"
                     x="72"
                     style="stroke:#000000;stroke-width:0.5"
                     width="744.09448"
                     height="1052.3622" />
                </g>
              </g>
              <g
                 id="line2d_12">
                <g
                   id="g181">
                  <use
                     id="use183"
                     y="289.9689"
                     xlink:href="#m728421d6d4"
                     x="518.40002"
                     style="stroke:#000000;stroke-width:0.5"
                     width="744.09448"
                     height="1052.3622" />
                </g>
              </g>
              <g
                 id="text_6">
                <!-- 0 -->
                <g
                   id="g186"
                   transform="matrix(0.12,0,0,-0.12,57.953125,293.28015)">
                  <use
                     id="use188"
                     xlink:href="#BitstreamVeraSans-Roman-30"
                     x="0"
                     y="0"
                     width="744.09448"
                     height="1052.3622" />
                </g>
              </g>
            </g>
            <g
               id="ytick_3">
              <g
                 id="line2d_13">
                <g
                   id="g192">
                  <use
                     id="use194"
                     y="228.19946"
                     xlink:href="#mcb0005524f"
                     x="72"
                     style="stroke:#000000;stroke-width:0.5"
                     width="744.09448"
                     height="1052.3622" />
                </g>
              </g>
              <g
                 id="line2d_14">
                <g
                   id="g197">
                  <use
                     id="use199"
                     y="228.19946"
                     xlink:href="#m728421d6d4"
                     x="518.40002"
                     style="stroke:#000000;stroke-width:0.5"
                     width="744.09448"
                     height="1052.3622" />
                </g>
              </g>
              <g
                 id="text_7">
                <!-- 5 -->
                <g
                   id="g202"
                   transform="matrix(0.12,0,0,-0.12,58.339375,231.51071)">
                  <use
                     id="use204"
                     xlink:href="#BitstreamVeraSans-Roman-35"
                     x="0"
                     y="0"
                     width="744.09448"
                     height="1052.3622" />
                </g>
              </g>
            </g>
            <g
               id="ytick_4">
              <g
                 id="line2d_15">
                <g
                   id="g208">
                  <use
                     id="use210"
                     y="166.43002"
                     xlink:href="#mcb0005524f"
                     x="72"
                     style="stroke:#000000;stroke-width:0.5"
                     width="744.09448"
                     height="1052.3622" />
                </g>
              </g>
              <g
                 id="line2d_16">
                <g
                   id="g213">
                  <use
                     id="use215"
                     y="166.43002"
                     xlink:href="#m728421d6d4"
                     x="518.40002"
                     style="stroke:#000000;stroke-width:0.5"
                     width="744.09448"
                     height="1052.3622" />
                </g>
              </g>
              <g
                 id="text_8">
                <!-- 10 -->
                <g
                   id="g218"
                   transform="matrix(0.12,0,0,-0.12,50.845,169.74128)">
                  <use
                     id="use220"
                     xlink:href="#BitstreamVeraSans-Roman-31"
                     x="0"
                     y="0"
                     width="744.09448"
                     height="1052.3622" />
                  <use
                     id="use222"
                     xlink:href="#BitstreamVeraSans-Roman-30"
                     x="63.623047"
                     y="0"
                     width="744.09448"
                     height="1052.3622" />
                </g>
              </g>
            </g>
            <g
               id="ytick_5">
              <g
                 id="line2d_17">
                <g
                   id="g226">
                  <use
                     id="use228"
                     y="104.66059"
                     xlink:href="#mcb0005524f"
                     x="72"
                     style="stroke:#000000;stroke-width:0.5"
                     width="744.09448"
                     height="1052.3622" />
                </g>
              </g>
              <g
                 id="line2d_18">
                <g
                   id="g231">
                  <use
                     id="use233"
                     y="104.66059"
                     xlink:href="#m728421d6d4"
                     x="518.40002"
                     style="stroke:#000000;stroke-width:0.5"
                     width="744.09448"
                     height="1052.3622" />
                </g>
              </g>
              <g
                 id="text_9">
                <!-- 15 -->
                <g
                   id="g236"
                   transform="matrix(0.12,0,0,-0.12,51.09625,107.97184)">
                  <use
                     id="use238"
                     xlink:href="#BitstreamVeraSans-Roman-31"
                     x="0"
                     y="0"
                     width="744.09448"
                     height="1052.3622" />
                  <use
                     id="use240"
                     xlink:href="#BitstreamVeraSans-Roman-35"
                     x="63.623047"
                     y="0"
                     width="744.09448"
                     height="1052.3622" />
                </g>
              </g>
            </g>
            <g
               id="ytick_6">
              <g
                 id="text_10">
                <!-- 20 -->
                <defs
                   id="defs244">
                  <path
                     id="BitstreamVeraSans-Roman-32"
                     d="m 19.1875,8.29688 34.4219,0 0,-8.29688 -46.28128,0 0,8.29688 Q 12.9375,14.1094 22.625,23.8906 q 9.7031,9.7969 12.1875,12.6406 4.7344,5.3126 6.6094,9 1.8906,3.6876 1.8906,7.25 0,5.8126 -4.0781,9.4688 -4.0782,3.6719 -10.625,3.6719 -4.6406,0 -9.7969,-1.6094 -5.1406,-1.6094 -11,-4.8906 l 0,9.9687 q 5.9531,2.3906 11.125,3.6094 5.1875,1.2188 9.4844,1.2188 11.3281,0 18.0625,-5.6719 6.7344,-5.6563 6.7344,-15.125 0,-4.5 -1.6876,-8.5313 Q 49.8594,40.875 45.4062,35.4062 44.1875,33.9844 37.6406,27.2188 31.1094,20.4531 19.1875,8.29688"
                     inkscape:connector-curvature="0" />
                </defs>
                <g
                   id="g247"
                   transform="matrix(0.12,0,0,-0.12,50.40625,46.202403)">
                  <use
                     id="use249"
                     xlink:href="#BitstreamVeraSans-Roman-32"
                     x="0"
                     y="0"
                     width="744.09448"
                     height="1052.3622" />
                  <use
                     id="use251"
                     xlink:href="#BitstreamVeraSans-Roman-30"
                     x="63.623047"
                     y="0"
                     width="744.09448"
                     height="1052.3622" />
                </g>
              </g>
            </g>
          </g>
          <g
             id="patch_3">
            <path
               id="path254"
               style="fill:none;stroke:#000000"
               d="m 72,43.2 446.4,0"
               inkscape:connector-curvature="0" />
          </g>
          <g
             id="patch_4">
            <path
               id="path257"
               style="fill:none;stroke:#000000"
               d="m 518.4,388.8 0,-345.6"
               inkscape:connector-curvature="0" />
          </g>
          <g
             id="patch_5">
            <path
               id="path260"
               style="fill:none;stroke:#000000"
               d="m 72,388.8 446.4,0"
               inkscape:connector-curvature="0" />
          </g>
          <g
             id="patch_6">
            <path
               id="path263"
               style="fill:none;stroke:#000000"
               d="M 72,388.8 72,43.2"
               inkscape:connector-curvature="0" />
          </g>
        </g>
      </g>
      <path
         transform="matrix(0.72136464,-0.57103517,0.57103517,0.72136464,-393.76762,381.13377)"
         d="m 262.63966,386.67166 c 0,25.10513 -38.66829,45.45686 -86.36804,45.45686 -47.69975,0 -86.36804,-20.35173 -86.36804,-45.45686 0,-25.10513 38.66829,-45.45686 86.36804,-45.45686 47.69975,0 86.36804,20.35173 86.36804,45.45686 z"
         sodipodi:ry="45.456863"
         sodipodi:rx="86.368042"
         sodipodi:cy="386.67166"
         sodipodi:cx="176.27162"
         id="path2985-4"
         style="fill:none;stroke:#000093;stroke-width:1.6303885;stroke-linecap:square;stroke-linejoin:bevel;stroke-miterlimit:4;stroke-opacity:1;stroke-dasharray:none;stroke-dashoffset:0"
         sodipodi:type="arc" />
      <path
         transform="matrix(1.0072841,-0.79737014,0.79737014,1.0072841,-529.56629,310.97834)"
         d="m 262.63966,386.67166 c 0,25.10513 -38.66829,45.45686 -86.36804,45.45686 -47.69975,0 -86.36804,-20.35173 -86.36804,-45.45686 0,-25.10513 38.66829,-45.45686 86.36804,-45.45686 47.69975,0 86.36804,20.35173 86.36804,45.45686 z"
         sodipodi:ry="45.456863"
         sodipodi:rx="86.368042"
         sodipodi:cy="386.67166"
         sodipodi:cx="176.27162"
         id="path2985-4-7"
         style="fill:none;stroke:#000093;stroke-width:1.16759968;stroke-linecap:square;stroke-linejoin:bevel;stroke-miterlimit:4;stroke-opacity:1;stroke-dasharray:none;stroke-dashoffset:0"
         sodipodi:type="arc" />
      <path
         transform="matrix(1.3012325,-1.0300609,1.0300609,1.3012325,-671.60739,239.68726)"
         d="m 262.63966,386.67166 c 0,25.10513 -38.66829,45.45686 -86.36804,45.45686 -47.69975,0 -86.36804,-20.35173 -86.36804,-45.45686 0,-25.10513 38.66829,-45.45686 86.36804,-45.45686 47.69975,0 86.36804,20.35173 86.36804,45.45686 z"
         sodipodi:ry="45.456863"
         sodipodi:rx="86.368042"
         sodipodi:cy="386.67166"
         sodipodi:cx="176.27162"
         id="path2985-4-7-9"
         style="fill:none;stroke:#000093;stroke-width:0.90383893;stroke-linecap:square;stroke-linejoin:bevel;stroke-miterlimit:4;stroke-opacity:1;stroke-dasharray:none;stroke-dashoffset:0"
         sodipodi:type="arc" />
      <path
         transform="matrix(1.6944364,-1.3413226,1.3413226,1.6944364,-863.00582,143.36376)"
         d="m 262.63966,386.67166 c 0,25.10513 -38.66829,45.45686 -86.36804,45.45686 -47.69975,0 -86.36804,-20.35173 -86.36804,-45.45686 0,-25.10513 38.66829,-45.45686 86.36804,-45.45686 47.69975,0 86.36804,20.35173 86.36804,45.45686 z"
         sodipodi:ry="45.456863"
         sodipodi:rx="86.368042"
         sodipodi:cy="386.67166"
         sodipodi:cx="176.27162"
         id="path2985-4-7-9-1"
         style="fill:none;stroke:#000093;stroke-width:0.69409782;stroke-linecap:square;stroke-linejoin:bevel;stroke-miterlimit:4;stroke-opacity:1;stroke-dasharray:none;stroke-dashoffset:0"
         sodipodi:type="arc" />
    </g>
  </g>
</svg>
