<?xml version="1.0" encoding="UTF-8" standalone="no"?>
<!-- Created with Inkscape (http://www.inkscape.org/) -->

<svg
   xmlns:dc="http://purl.org/dc/elements/1.1/"
   xmlns:cc="http://creativecommons.org/ns#"
   xmlns:rdf="http://www.w3.org/1999/02/22-rdf-syntax-ns#"
   xmlns:svg="http://www.w3.org/2000/svg"
   xmlns="http://www.w3.org/2000/svg"
   xmlns:sodipodi="http://sodipodi.sourceforge.net/DTD/sodipodi-0.dtd"
   xmlns:inkscape="http://www.inkscape.org/namespaces/inkscape"
   width="323.30637"
   height="257.9574"
   id="svg2"
   version="1.1"
   inkscape:version="0.48.4 r9939"
   sodipodi:docname="gradient.svg">
  <sodipodi:namedview
     id="base"
     pagecolor="#ffffff"
     bordercolor="#666666"
     borderopacity="1.0"
     inkscape:pageopacity="0.0"
     inkscape:pageshadow="2"
     inkscape:zoom="1.979899"
     inkscape:cx="169.66671"
     inkscape:cy="131.6233"
     inkscape:document-units="px"
     inkscape:current-layer="text3328"
     showgrid="false"
     inkscape:window-width="1366"
     inkscape:window-height="750"
     inkscape:window-x="0"
     inkscape:window-y="18"
     inkscape:window-maximized="1"
     fit-margin-top="10"
     fit-margin-left="10"
     fit-margin-bottom="10"
     fit-margin-right="10" />
  <defs
     id="defs4">
    <marker
       inkscape:stockid="Arrow1Mend"
       orient="auto"
       refY="0"
       refX="0"
       id="Arrow1Mend"
       style="overflow:visible">
      <path
         id="path3962"
         d="M 0,0 5,-5 -12.5,0 5,5 0,0 z"
         style="fill-rule:evenodd;stroke:#000000;stroke-width:1pt"
         transform="matrix(-0.4,0,0,-0.4,-4,0)"
         inkscape:connector-curvature="0" />
    </marker>
    <marker
       inkscape:stockid="Arrow1Mstart"
       orient="auto"
       refY="0"
       refX="0"
       id="Arrow1Mstart"
       style="overflow:visible">
      <path
         id="path3959"
         d="M 0,0 5,-5 -12.5,0 5,5 0,0 z"
         style="fill-rule:evenodd;stroke:#000000;stroke-width:1pt"
         transform="matrix(0.4,0,0,0.4,4,0)"
         inkscape:connector-curvature="0" />
    </marker>
  </defs>
  <metadata
     id="metadata7">
    <rdf:RDF>
      <cc:Work
         rdf:about="">
        <dc:format>image/svg+xml</dc:format>
        <dc:type
           rdf:resource="http://purl.org/dc/dcmitype/StillImage" />
        <dc:title />
      </cc:Work>
    </rdf:RDF>
  </metadata>
  <g
     inkscape:label="Layer 1"
     inkscape:groupmode="layer"
     id="layer1"
     transform="translate(-40.490267,-224.53398)">
    <path
       style="fill:none;stroke:#000000;stroke-width:1.21062827;stroke-linecap:butt;stroke-linejoin:miter;stroke-miterlimit:4;stroke-opacity:1;stroke-dasharray:none"
       d="M 99.483365,471.88607 C 81.492921,318.83395 158.12112,274.70101 296.64282,305.85705"
       id="path2985"
       inkscape:connector-curvature="0"
       sodipodi:nodetypes="cc" />
    <path
       style="fill:none;stroke:#000000;stroke-width:1.01329589;stroke-linecap:butt;stroke-linejoin:miter;stroke-miterlimit:4;stroke-opacity:1;stroke-dasharray:none"
       d="M 57.590551,395.41558 211.41818,251.25164"
       id="path2991"
       inkscape:connector-curvature="0" />
    <path
       style="fill:none;stroke:#000000;stroke-width:1.01312506px;stroke-linecap:butt;stroke-linejoin:miter;stroke-opacity:1;marker-start:url(#Arrow1Mstart);marker-end:url(#Arrow1Mend)"
       d="M 63.728222,250.80639 202.29357,398.66013"
       id="path2993"
       inkscape:connector-curvature="0" />
    <g
       transform="matrix(0.30632713,0,0,0.30632713,47.783131,219.1539)"
       id="g4995">
      <g
         style="font-style:normal;font-variant:normal;font-weight:normal;font-stretch:normal;letter-spacing:normal;word-spacing:normal;text-anchor:start;fill:none;stroke:#000000;stroke-linecap:butt;stroke-linejoin:miter;stroke-miterlimit:10.43299961;stroke-opacity:1;stroke-dasharray:none;stroke-dashoffset:0"
         id="content"
         transform="matrix(1.0629921,0,0,-1.0629921,-186.02362,789.27165)"
         xml:space="preserve"
         stroke-miterlimit="10.433"
         font-style="normal"
         font-variant="normal"
         font-weight="normal"
         font-stretch="normal"
         font-size-adjust="none"
         letter-spacing="normal"
         word-spacing="normal"><path
           style="fill:#000000;stroke-width:0"
           inkscape:connector-curvature="0"
           d="m 472.16,421.25 0.03,0.13 0.04,0.15 0.04,0.16 0.04,0.18 0.06,0.19 0.06,0.21 0.06,0.22 0.07,0.22 0.08,0.23 0.09,0.24 0.1,0.25 0.1,0.24 0.11,0.25 0.12,0.25 0.13,0.25 0.14,0.25 0.15,0.24 0.15,0.24 0.17,0.23 0.18,0.22 0.18,0.22 0.2,0.2 0.21,0.19 0.22,0.18 0.23,0.16 0.25,0.14 0.12,0.07 0.13,0.06 0.14,0.05 0.13,0.05 0.14,0.05 0.14,0.04 0.15,0.03 0.15,0.03 0.15,0.02 0.16,0.02 0.16,0.01 0.16,0 c 0.25,0 1.44,0 2.48,-0.64 -1.39,-0.25 -2.39,-1.5 -2.39,-2.69 0,-0.79 0.55,-1.75 1.89,-1.75 1.1,0 2.69,0.89 2.69,2.89 0,2.6 -2.94,3.28 -4.63,3.28 -2.89,0 -4.64,-2.64 -5.23,-3.78 -1.25,3.28 -3.94,3.78 -5.37,3.78 -5.19,0 -8.04,-6.42 -8.04,-7.67 0,-0.5 0.5,-0.5 0.61,-0.5 0.39,0 0.55,0.11 0.64,0.55 1.69,5.28 4.99,6.53 6.68,6.53 0.95,0 2.68,-0.44 2.68,-3.33 0,-1.54 -0.84,-4.89 -2.68,-11.86 -0.8,-3.09 -2.54,-5.18 -4.74,-5.18 -0.3,0 -1.44,0 -2.48,0.65 1.25,0.24 2.34,1.28 2.34,2.69 0,1.34 -1.09,1.73 -1.84,1.73 -1.5,0 -2.75,-1.29 -2.75,-2.89 0,-2.28 2.5,-3.28 4.68,-3.28 3.3,0 5.08,3.49 5.24,3.78 0.59,-1.84 2.39,-3.78 5.37,-3.78 5.14,0 7.99,6.42 7.99,7.67 0,0.5 -0.45,0.5 -0.61,0.5 -0.44,0 -0.55,-0.2 -0.64,-0.54 -1.64,-5.33 -5.03,-6.53 -6.63,-6.53 -1.95,0 -2.75,1.59 -2.75,3.29 0,1.1 0.3,2.19 0.86,4.38 z"
           id="path4998" /><path
           style="fill:#000000;stroke-width:0"
           inkscape:connector-curvature="0"
           d="m 495.21,432.87 0.26,0.12 0.26,0.11 0.24,0.11 0.24,0.1 0.23,0.1 0.22,0.1 0.21,0.09 0.21,0.09 0.2,0.08 0.19,0.08 0.18,0.08 0.18,0.07 0.17,0.08 0.16,0.06 0.16,0.07 0.15,0.06 0.14,0.06 0.14,0.06 0.14,0.06 0.13,0.05 0.12,0.06 0.12,0.05 0.11,0.05 0.11,0.04 0.11,0.05 0.1,0.04 0.19,0.09 0.18,0.08 0.17,0.08 c 0.67,0.27 0.98,0.41 0.98,1.08 0,0.59 -0.45,1.11 -1.08,1.11 -0.25,0 -0.31,0 -0.73,-0.31 l -4.74,-3.17 0.52,5.15 c 0.08,0.63 0,1.5 -1.05,1.5 -0.42,0 -1.08,-0.28 -1.08,-1.04 0,-0.32 0.15,-1.36 0.18,-1.71 0.07,-0.59 0.31,-3.11 0.39,-3.9 l -4.71,3.17 c -0.36,0.2 -0.45,0.31 -0.76,0.31 -0.64,0 -1.1,-0.52 -1.1,-1.11 0,-0.7 0.43,-0.87 0.74,-1.01 l 5.26,-2.19 c -2.85,-1.27 -4.14,-1.75 -5.01,-2.17 -0.66,-0.29 -0.99,-0.43 -0.99,-1.08 0,-0.6 0.46,-1.11 1.1,-1.11 0.23,0 0.31,0 0.72,0.31 l 4.75,3.17 -0.57,-5.61 c 0,-0.76 0.66,-1.04 1.08,-1.04 0.42,0 1.08,0.28 1.08,1.04 0,0.32 -0.14,1.36 -0.17,1.71 -0.06,0.59 -0.31,3.09 -0.38,3.9 l 4.18,-2.79 c 0.9,-0.69 0.98,-0.69 1.29,-0.69 0.63,0 1.08,0.51 1.08,1.11 0,0.7 -0.42,0.87 -0.73,1.01 z"
           id="path5000" /></g>    </g>
    <g
       id="g5038"
       transform="matrix(0.30335876,0,0,0.30335876,-40.210299,148.19884)">
      <g
         word-spacing="normal"
         letter-spacing="normal"
         font-size-adjust="none"
         font-stretch="normal"
         font-weight="normal"
         font-variant="normal"
         font-style="normal"
         stroke-miterlimit="10.433"
         xml:space="preserve"
         transform="matrix(1.0629921,0,0,-1.0629921,-186.02362,789.27165)"
         id="g5040"
         style="font-style:normal;font-variant:normal;font-weight:normal;font-stretch:normal;letter-spacing:normal;word-spacing:normal;text-anchor:start;fill:none;stroke:#000000;stroke-linecap:butt;stroke-linejoin:miter;stroke-miterlimit:10.43299961;stroke-opacity:1;stroke-dasharray:none;stroke-dashoffset:0"><path
           id="path5042"
           d="m 478.99,424.98 0.01,0.06 0.01,0.05 0.01,0.05 0.01,0.06 0.02,0.1 0.01,0.05 0.02,0.06 0.01,0.05 0.01,0.06 0.01,0.05 0,0.06 0.01,0.06 0,0.06 0.01,0.03 0,0.03 0,0.03 0,0.03 c 0,0.86 -0.59,1.36 -1.44,1.36 -0.5,0 -1.84,-0.36 -2.05,-2.16 -0.89,1.85 -2.64,3.14 -4.62,3.14 l 0.05,-1.09 c 3.28,0 3.98,-4.03 3.98,-4.28 0,-0.25 -0.09,-0.55 -0.16,-0.75 l -2.39,-9.52 c -0.29,-1.29 -1.43,-2.53 -2.53,-3.48 -1.04,-0.89 -2.59,-1.8 -4.04,-1.8 -2.49,0 -3.24,2.6 -3.24,4.58 0,2.41 1.45,8.28 2.8,10.81 1.34,2.46 3.48,4.44 5.58,4.44 l -0.05,1.09 c -5.69,0 -11.86,-6.96 -11.86,-14.14 0,-4.93 3.03,-7.87 6.63,-7.87 2.93,0 5.28,2.34 5.78,2.89 l 0.04,-0.05 c -1.04,-4.43 -1.64,-6.48 -1.64,-6.58 -0.2,-0.45 -1.89,-5.39 -7.17,-5.39 -0.95,0 -2.59,0.07 -4,0.5 1.5,0.46 2.05,1.75 2.05,2.6 0,0.79 -0.55,1.75 -1.89,1.75 -1.1,0 -2.69,-0.91 -2.69,-2.89 0,-2.05 1.84,-3.05 6.62,-3.05 6.22,0 9.82,3.89 10.57,6.88 z"
           inkscape:connector-curvature="0"
           style="fill:#000000;stroke-width:0" /></g>    </g>
    <g
       transform="matrix(0.30895916,0,0,0.30895916,90.64699,299.80418)"
       id="g5080">
      <g
         style="font-style:normal;font-variant:normal;font-weight:normal;font-stretch:normal;letter-spacing:normal;word-spacing:normal;text-anchor:start;fill:none;stroke:#000000;stroke-linecap:butt;stroke-linejoin:miter;stroke-miterlimit:10.43299961;stroke-opacity:1;stroke-dasharray:none;stroke-dashoffset:0"
         id="g5082"
         transform="matrix(1.0629921,0,0,-1.0629921,-186.02362,789.27165)"
         xml:space="preserve"
         stroke-miterlimit="10.433"
         font-style="normal"
         font-variant="normal"
         font-weight="normal"
         font-stretch="normal"
         font-size-adjust="none"
         letter-spacing="normal"
         word-spacing="normal"><path
           style="fill:#000000;stroke-width:0"
           inkscape:connector-curvature="0"
           d="m 488.35,417.65 0.16,0 0.16,0 0.15,0.01 0.08,0 0.08,0.01 0.07,0 0.08,0.01 0.07,0.01 0.07,0.01 0.07,0.02 0.07,0.02 0.07,0.02 0.06,0.02 0.06,0.02 0.06,0.03 0.05,0.03 0.06,0.04 0.05,0.03 0.04,0.05 0.04,0.04 0.04,0.05 0.02,0.03 0.02,0.03 0.01,0.03 0.02,0.03 0.01,0.03 0.02,0.03 0.01,0.04 0.01,0.03 0.01,0.04 0,0.04 0.01,0.04 0.01,0.04 0,0.04 0.01,0.04 0,0.05 0,0.04 c 0,1 -0.91,1 -1.75,1 h -26.96 c -0.84,0 -1.73,0 -1.73,-1 0,-1 0.89,-1 1.73,-1 z"
           id="path5084" /><path
           style="fill:#000000;stroke-width:0"
           inkscape:connector-curvature="0"
           d="m 517.75,424.98 0.01,0.06 0.01,0.05 0.01,0.05 0.01,0.06 0.02,0.1 0.01,0.05 0.01,0.06 0.01,0.05 0.01,0.06 0.01,0.05 0.01,0.06 0.01,0.06 0,0.06 0,0.03 0.01,0.03 0,0.03 0,0.03 c 0,0.86 -0.6,1.36 -1.44,1.36 -0.5,0 -1.85,-0.36 -2.05,-2.16 -0.89,1.85 -2.64,3.14 -4.62,3.14 l 0.04,-1.09 c 3.28,0 3.99,-4.03 3.99,-4.28 0,-0.25 -0.09,-0.55 -0.16,-0.75 l -2.39,-9.52 c -0.3,-1.29 -1.44,-2.53 -2.53,-3.48 -1.05,-0.89 -2.59,-1.8 -4.05,-1.8 -2.48,0 -3.23,2.6 -3.23,4.58 0,2.41 1.45,8.28 2.8,10.81 1.34,2.46 3.48,4.44 5.57,4.44 l -0.04,1.09 c -5.69,0 -11.86,-6.96 -11.86,-14.14 0,-4.93 3.03,-7.87 6.62,-7.87 2.94,0 5.28,2.34 5.78,2.89 l 0.05,-0.05 c -1.05,-4.43 -1.64,-6.48 -1.64,-6.58 -0.2,-0.45 -1.89,-5.39 -7.17,-5.39 -0.95,0 -2.6,0.07 -4,0.5 1.5,0.46 2.05,1.75 2.05,2.6 0,0.79 -0.55,1.75 -1.9,1.75 -1.09,0 -2.68,-0.91 -2.68,-2.89 0,-2.05 1.84,-3.05 6.62,-3.05 6.22,0 9.81,3.89 10.57,6.88 z"
           id="path5086" /></g>    </g>
    <g
       style="font-size:19.28668022px;font-style:normal;font-variant:normal;font-weight:normal;font-stretch:normal;text-align:start;line-height:125%;letter-spacing:0px;word-spacing:0px;writing-mode:lr-tb;text-anchor:start;fill:#000000;fill-opacity:1;stroke:none;font-family:DejaVu Sans Mono;-inkscape-font-specification:DejaVu Sans Mono"
       id="text5109"
       transform="matrix(0.60531412,0,0,0.60531412,19.927796,92.567251)">
      <g
         style="font-size:18.83417892px;line-height:125%;fill:#000000;font-family:Sans"
         id="text3328">
        <g
           id="g3355"
           transform="matrix(1.0773922,0,0,1.0773922,38.574405,-73.29821)">
          <path
             id="path3333"
             d="m 238.78219,302.23674 c 0.64036,0 1.29956,-0.11301 1.99643,-0.33902 l 0,-1.14888 c -0.48969,0.13184 -0.99822,0.20717 -1.54441,0.20717 -1.16772,0 -1.4314,-0.62153 -1.4314,-1.82691 l 0,-4.87805 2.97581,0 0,-1.28073 -2.97581,0 0,-2.33544 -1.56323,0.0753 0,2.2601 -1.52557,0 0,1.28073 1.52557,0 0,4.99105 c 0,1.92109 0.6592,2.99464 2.54261,2.99464"
             inkscape:connector-curvature="0" />
          <path
             id="path3335"
             d="m 245.82529,294.15688 c 1.13005,0 1.80808,0.35785 2.07176,1.07354 0.11301,0.30135 0.16951,0.75337 0.16951,1.41257 l 0,0.0753 c -1.39373,0.0377 -2.52378,0.16951 -3.42782,0.39552 -1.18655,0.32018 -2.22243,1.18656 -2.22243,2.69329 0,1.46906 1.33722,2.48611 2.91929,2.48611 1.01705,0 1.93993,-0.37668 2.78746,-1.07355 l 0.33902,0.84754 1.16772,0 0,-5.8951 c 0,-1.4879 -0.32019,-2.16593 -1.28073,-2.80629 -0.50852,-0.33902 -1.29956,-0.50852 -2.35427,-0.50852 -1.05471,0 -2.07176,0.18834 -3.05114,0.56502 l 0,1.22422 c 0.7722,-0.26367 2.10943,-0.48968 2.88163,-0.48968 m -0.26368,6.91214 c -0.22601,0 -0.45202,-0.0377 -0.62152,-0.11301 -0.52736,-0.24484 -0.99822,-0.69686 -0.99822,-1.33722 0,-0.22601 0.0753,-0.43319 0.20718,-0.6592 0.30135,-0.48969 0.80987,-0.79103 1.50673,-0.94171 0.37669,-0.0753 1.16773,-0.13184 2.41078,-0.16951 l 0,2.16593 c -0.6592,0.64037 -1.41256,1.05472 -2.50495,1.05472"
             inkscape:connector-curvature="0" />
          <path
             id="path3337"
             d="m 258.19935,296.28514 0,5.78209 1.56324,0 0,-6.15878 c 0,-1.92108 -1.01705,-3.10764 -2.9758,-3.10764 -0.96055,0 -2.07177,0.30135 -3.22065,0.90404 l -0.30135,-0.71569 -1.09238,0 0,9.07807 1.56324,0 0,-7.30766 c 0.92287,-0.43319 1.78925,-0.6592 2.50494,-0.6592 1.46907,0 1.95876,0.67803 1.95876,2.18477"
             inkscape:connector-curvature="0" />
          <path
             id="path3339"
             d="m 268.4472,301.63404 0,0.26368 c 0,0.58386 0,1.03588 -0.0377,1.29956 -0.18834,1.63857 -1.24306,2.63679 -3.14531,2.63679 -0.65919,0 -1.37489,-0.18835 -2.16593,-0.47086 l -0.41435,1.09238 c 0.75337,0.33902 1.88342,0.6027 2.76863,0.6027 1.39372,0 2.56145,-0.43319 3.29598,-1.13005 0.90404,-0.86637 1.26189,-1.73275 1.26189,-3.42782 l 0,-9.51126 -1.11122,0 -0.18834,0.52735 -0.43319,-0.18834 c -0.75336,-0.33901 -1.46906,-0.50852 -2.14709,-0.50852 -0.52736,0 -1.03588,0.0942 -1.52557,0.30135 -1.65741,0.69686 -2.73096,2.24126 -2.73096,4.55787 0,1.18655 0.30135,2.10943 0.82871,2.88163 0.69686,1.01704 1.77041,1.67624 3.33365,1.67624 0.90404,0 1.63857,-0.18834 2.41077,-0.6027 m -5.00989,-4.16235 c 0,-1.97759 0.94171,-3.40899 2.90046,-3.40899 0.62153,0 1.3184,0.15068 2.10943,0.47086 l 0,5.97043 c -0.58386,0.32018 -1.24306,0.50853 -2.03409,0.50853 -1.97759,0 -2.9758,-1.58208 -2.9758,-3.54083"
             inkscape:connector-curvature="0" />
          <path
             id="path3341"
             d="m 276.40817,292.83848 c -1.31839,0 -2.33544,0.47086 -3.06997,1.41257 -0.69686,0.9417 -1.01705,2.07176 -1.01705,3.42782 0,2.93813 1.58208,4.55787 4.53904,4.55787 1.01705,0 1.99643,-0.16951 2.9193,-0.48969 l 0,-1.22422 c -0.88521,0.28251 -1.71391,0.45202 -2.50495,0.45202 -1.14888,0 -2.05292,-0.28252 -2.58028,-0.84754 -0.52736,-0.56503 -0.86637,-1.29956 -0.88521,-2.16593 l 6.23412,0 0.0942,-0.15067 0,-0.82871 c 0,-2.61795 -1.33723,-4.14352 -3.72917,-4.14352 m 2.18477,3.93635 -4.74622,0 c 0.16951,-1.45023 0.94171,-2.73096 2.69329,-2.73096 1.41256,0 2.05293,1.24306 2.05293,2.73096"
             inkscape:connector-curvature="0" />
          <path
             id="path3343"
             d="m 288.40025,296.28514 0,5.78209 1.56323,0 0,-6.15878 c 0,-1.92108 -1.01704,-3.10764 -2.9758,-3.10764 -0.96054,0 -2.07176,0.30135 -3.22064,0.90404 l -0.30135,-0.71569 -1.09238,0 0,9.07807 1.56324,0 0,-7.30766 c 0.92287,-0.43319 1.78924,-0.6592 2.50494,-0.6592 1.46907,0 1.95876,0.67803 1.95876,2.18477"
             inkscape:connector-curvature="0" />
          <path
             id="path3345"
             d="m 295.6158,302.23674 c 0.64036,0 1.29956,-0.11301 1.99642,-0.33902 l 0,-1.14888 c -0.48969,0.13184 -0.99821,0.20717 -1.5444,0.20717 -1.16772,0 -1.4314,-0.62153 -1.4314,-1.82691 l 0,-4.87805 2.9758,0 0,-1.28073 -2.9758,0 0,-2.33544 -1.56324,0.0753 0,2.2601 -1.52556,0 0,1.28073 1.52556,0 0,4.99105 c 0,1.92109 0.6592,2.99464 2.54262,2.99464"
             inkscape:connector-curvature="0" />
          <path
             id="path3347"
             d="m 307.45102,300.84301 c -1.16771,0 -1.20538,-0.6027 -1.20538,-1.29956 l 0,-10.11395 -1.50674,0 0,10.66014 c 0.0188,1.28072 0.7722,2.16593 1.95876,2.16593 0.8852,0 1.50673,-0.33901 1.82691,-0.45202 l 0,-1.16772 c -0.41435,0.13184 -0.7157,0.20718 -1.07355,0.20718"
             inkscape:connector-curvature="0" />
          <path
             id="path3349"
             d="m 310.03601,292.98916 0,9.07807 1.56324,0 0,-9.07807 -1.56324,0 m 0,-3.54083 0,1.56324 1.56324,0 0,-1.56324 -1.56324,0"
             inkscape:connector-curvature="0" />
          <path
             id="path3351"
             d="m 320.25649,296.28514 0,5.78209 1.56324,0 0,-6.15878 c 0,-1.92108 -1.01705,-3.10764 -2.9758,-3.10764 -0.96054,0 -2.07176,0.30135 -3.22064,0.90404 l -0.30135,-0.71569 -1.09238,0 0,9.07807 1.56323,0 0,-7.30766 c 0.92288,-0.43319 1.78925,-0.6592 2.50495,-0.6592 1.46906,0 1.95875,0.67803 1.95875,2.18477"
             inkscape:connector-curvature="0" />
          <path
             id="path3353"
             d="m 328.01824,292.83848 c -1.31839,0 -2.33544,0.47086 -3.06997,1.41257 -0.69686,0.9417 -1.01705,2.07176 -1.01705,3.42782 0,2.93813 1.58208,4.55787 4.53904,4.55787 1.01705,0 1.99643,-0.16951 2.9193,-0.48969 l 0,-1.22422 c -0.88521,0.28251 -1.71391,0.45202 -2.50495,0.45202 -1.14888,0 -2.05292,-0.28252 -2.58028,-0.84754 -0.52736,-0.56503 -0.86637,-1.29956 -0.88521,-2.16593 l 6.23412,0 0.0942,-0.15067 0,-0.82871 c 0,-2.61795 -1.33723,-4.14352 -3.72917,-4.14352 m 2.18477,3.93635 -4.74622,0 c 0.16951,-1.45023 0.94171,-2.73096 2.69329,-2.73096 1.41256,0 2.05293,1.24306 2.05293,2.73096"
             inkscape:connector-curvature="0" />
        </g>
      </g>
    </g>
    <g
       style="font-size:19.28668022px;font-style:normal;font-variant:normal;font-weight:normal;font-stretch:normal;text-align:start;line-height:125%;letter-spacing:0px;word-spacing:0px;writing-mode:lr-tb;text-anchor:start;fill:#000000;fill-opacity:1;stroke:none;font-family:DejaVu Sans Mono;-inkscape-font-specification:DejaVu Sans Mono"
       id="text5119"
       transform="matrix(0.60531412,0,0,0.60531412,19.927796,92.567251)">
      <path
         d="m 460.51983,344.71861 c -0.4646,0.26997 -0.94488,0.47087 -1.44085,0.60271 -0.48971,0.13812 -0.99197,0.20718 -1.50678,0.20718 -1.63234,0 -2.90995,-0.4897 -3.83285,-1.4691 -0.91662,-0.9794 -1.37493,-2.33549 -1.37493,-4.06828 0,-1.73278 0.45831,-3.08888 1.37493,-4.06829 0.9229,-0.97939 2.20051,-1.46909 3.83285,-1.4691 0.50853,10e-6 1.00451,0.0659 1.48794,0.19776 0.48342,0.13186 0.96998,0.3359 1.45969,0.61213 l 0,1.81754 c -0.45832,-0.40807 -0.91977,-0.70315 -1.38435,-0.88522 -0.45832,-0.18206 -0.97941,-0.2731 -1.56328,-0.27311 -1.08613,1e-5 -1.92114,0.35159 -2.505,1.05474 -0.58388,0.70317 -0.87582,1.70768 -0.87582,3.01355 0,1.29959 0.29194,2.30411 0.87582,3.01354 0.59014,0.70316 1.42515,1.05474 2.505,1.05474 0.60271,0 1.14263,-0.091 1.61978,-0.2731 0.47714,-0.18835 0.91975,-0.47714 1.32785,-0.86639 l 0,1.7987"
         id="path5511"
         inkscape:connector-curvature="0" />
      <path
         d="m 467.93126,335.92283 c -0.87895,1e-5 -1.54444,0.34217 -1.99647,1.02649 -0.45204,0.68433 -0.67805,1.69827 -0.67805,3.0418 0,1.33726 0.22601,2.35119 0.67805,3.04179 0.45203,0.68433 1.11752,1.02649 1.99647,1.02649 0.88522,0 1.55385,-0.34216 2.00589,-1.02649 0.45202,-0.6906 0.67804,-1.70453 0.67805,-3.04179 -1e-5,-1.34353 -0.22603,-2.35747 -0.67805,-3.0418 -0.45204,-0.68432 -1.12067,-1.02648 -2.00589,-1.02649 m 0,-1.4691 c 1.46282,10e-6 2.58034,0.47402 3.35257,1.42202 0.77849,0.94802 1.16774,2.3198 1.16775,4.11537 -10e-6,1.80185 -0.38612,3.17678 -1.15833,4.12479 -0.77223,0.94173 -1.89289,1.41259 -3.36199,1.41259 -1.46283,0 -2.58035,-0.47086 -3.35257,-1.41259 -0.77222,-0.94801 -1.15833,-2.32294 -1.15833,-4.12479 0,-1.79557 0.38611,-3.16735 1.15833,-4.11537 0.77222,-0.948 1.88974,-1.42201 3.35257,-1.42202"
         id="path5513"
         inkscape:connector-curvature="0" />
      <path
         d="m 483.62994,338.71978 0,6.53562 -1.7422,0 0,-6.53562 c -1e-5,-0.948 -0.16639,-1.64489 -0.49912,-2.09065 -0.33276,-0.44574 -0.85385,-0.66862 -1.56328,-0.66863 -0.80989,10e-6 -1.43458,0.28881 -1.87405,0.8664 -0.4332,0.57132 -0.6498,1.39377 -0.64979,2.46734 l 0,5.96116 -1.73279,0 0,-10.5474 1.73279,0 0,1.58211 c 0.30763,-0.6027 0.72513,-1.05787 1.2525,-1.36551 0.52737,-0.3139 1.15205,-0.47086 1.87405,-0.47087 1.07357,10e-6 1.87404,0.35473 2.40142,1.06416 0.53364,0.70317 0.80046,1.77046 0.80047,3.20189"
         id="path5515"
         inkscape:connector-curvature="0" />
      <path
         d="m 491.11671,331.71329 0,2.99471 3.93645,0 0,1.34668 -3.93645,0 0,5.72573 c 0,0.7785 0.14754,1.32157 0.44262,1.6292 0.29507,0.30763 0.80988,0.46145 1.54444,0.46144 l 1.94939,0 0,1.38435 -2.1189,0 c -1.2996,0 -2.21622,-0.26054 -2.74986,-0.78164 -0.53365,-0.52109 -0.80048,-1.41887 -0.80047,-2.69335 l 0,-5.72573 -2.81578,0 0,-1.34668 2.81578,0 0,-2.99471 1.73278,0"
         id="path5517"
         inkscape:connector-curvature="0" />
      <path
         d="m 502.73769,335.92283 c -0.87895,1e-5 -1.54444,0.34217 -1.99647,1.02649 -0.45204,0.68433 -0.67805,1.69827 -0.67805,3.0418 0,1.33726 0.22601,2.35119 0.67805,3.04179 0.45203,0.68433 1.11752,1.02649 1.99647,1.02649 0.88522,0 1.55385,-0.34216 2.00589,-1.02649 0.45202,-0.6906 0.67804,-1.70453 0.67805,-3.04179 -10e-6,-1.34353 -0.22603,-2.35747 -0.67805,-3.0418 -0.45204,-0.68432 -1.12067,-1.02648 -2.00589,-1.02649 m 0,-1.4691 c 1.46282,10e-6 2.58034,0.47402 3.35257,1.42202 0.77849,0.94802 1.16774,2.3198 1.16775,4.11537 -1e-5,1.80185 -0.38612,3.17678 -1.15833,4.12479 -0.77223,0.94173 -1.89289,1.41259 -3.36199,1.41259 -1.46283,0 -2.58035,-0.47086 -3.35257,-1.41259 -0.77222,-0.94801 -1.15833,-2.32294 -1.15833,-4.12479 0,-1.79557 0.38611,-3.16735 1.15833,-4.11537 0.77222,-0.948 1.88974,-1.42201 3.35257,-1.42202"
         id="path5519"
         inkscape:connector-curvature="0" />
      <path
         d="m 510.37514,341.26246 0,-6.53563 1.73279,0 0,6.53563 c -10e-6,0.94801 0.16637,1.64489 0.49912,2.09064 0.33901,0.44576 0.86011,0.66863 1.56327,0.66863 0.81616,0 1.44084,-0.28566 1.87405,-0.85697 0.43319,-0.5776 0.64979,-1.40318 0.64979,-2.47676 l 0,-5.96117 1.74221,0 0,10.52857 -1.74221,0 0,-1.58211 c -0.30764,0.60899 -0.72828,1.07044 -1.26192,1.38435 -0.52737,0.31391 -1.14578,0.47086 -1.85521,0.47086 -1.07986,0 -1.88347,-0.35158 -2.41084,-1.05474 -0.52737,-0.70943 -0.79105,-1.77987 -0.79105,-3.2113"
         id="path5521"
         inkscape:connector-curvature="0" />
      <path
         d="m 531.01792,336.8834 c -0.37043,-0.28879 -0.74712,-0.49911 -1.13008,-0.63096 -0.38298,-0.13183 -0.80362,-0.19776 -1.26192,-0.19776 -1.07986,0 -1.90545,0.33903 -2.47676,1.01707 -0.57132,0.67805 -0.85698,1.65745 -0.85698,2.9382 l 0,5.24545 -1.7422,0 0,-10.5474 1.7422,0 0,2.06239 c 0.2888,-0.7471 0.73141,-1.31841 1.32785,-1.71395 0.6027,-0.4018 1.31527,-0.6027 2.13773,-0.60271 0.42691,10e-6 0.82558,0.0534 1.196,0.1601 0.3704,0.10674 0.72512,0.27311 1.06416,0.49911 l 0,1.77046"
         id="path5523"
         inkscape:connector-curvature="0" />
    </g>
    <g
       id="g5151"
       transform="matrix(0.23175076,0,0,0.23175076,216.13915,235.12173)">
      <g
         word-spacing="normal"
         letter-spacing="normal"
         font-size-adjust="none"
         font-stretch="normal"
         font-weight="normal"
         font-variant="normal"
         font-style="normal"
         stroke-miterlimit="10.433"
         xml:space="preserve"
         transform="matrix(1.0629921,0,0,-1.0629921,-186.02362,789.27165)"
         id="g5153"
         style="font-style:normal;font-variant:normal;font-weight:normal;font-stretch:normal;letter-spacing:normal;word-spacing:normal;text-anchor:start;fill:none;stroke:#000000;stroke-linecap:butt;stroke-linejoin:miter;stroke-miterlimit:10.43299961;stroke-opacity:1;stroke-dasharray:none;stroke-dashoffset:0"><path
           id="path5155"
           d="m 473.8,426.12 h 4.28 c 1,0 1.5,0 1.5,1 0,0.55 -0.5,0.55 -1.34,0.55 h -4.14 l 1.04,5.69 c 0.21,1.04 0.91,4.57 1.21,5.17 0.45,0.95 1.29,1.7 2.34,1.7 0.19,0 1.49,0 2.44,-0.91 -2.19,-0.18 -2.69,-1.93 -2.69,-2.68 0,-1.14 0.89,-1.74 1.85,-1.74 1.29,0 2.73,1.1 2.73,2.99 0,2.29 -2.3,3.43 -4.33,3.43 -1.7,0 -4.84,-0.89 -6.33,-5.82 -0.29,-1.05 -0.45,-1.55 -1.64,-7.83 h -3.43 c -0.96,0 -1.5,0 -1.5,-0.94 0,-0.61 0.45,-0.61 1.39,-0.61 h 3.29 l -3.75,-19.67 c -0.89,-4.83 -1.73,-9.38 -4.33,-9.38 -0.2,0 -1.43,0 -2.39,0.91 2.3,0.14 2.74,1.94 2.74,2.69 0,1.14 -0.89,1.75 -1.85,1.75 -1.29,0 -2.73,-1.1 -2.73,-3 0,-2.24 2.19,-3.44 4.23,-3.44 2.74,0 4.74,2.94 5.63,4.84 1.59,3.14 2.75,9.16 2.8,9.52 z"
           inkscape:connector-curvature="0"
           style="fill:#000000;stroke-width:0" /><path
           id="path5157"
           d="m 501.77,394.25 0,0.02 -0.01,0.03 0,0.01 0,0.02 0,0.01 -0.01,0.02 0,0.01 -0.01,0.02 -0.01,0.02 -0.01,0.02 -0.01,0.02 -0.01,0.03 -0.02,0.02 -0.02,0.03 -0.02,0.03 -0.02,0.03 -0.03,0.03 -0.03,0.04 -0.02,0.02 -0.01,0.02 -0.02,0.02 -0.02,0.02 -0.02,0.02 -0.02,0.03 -0.02,0.02 -0.02,0.02 -0.02,0.03 -0.03,0.02 -0.02,0.03 -0.03,0.03 -0.02,0.03 -0.03,0.03 -0.03,0.03 -0.03,0.03 -0.03,0.03 -0.03,0.03 -0.04,0.04 -0.03,0.03 -0.03,0.04 -0.04,0.03 -0.04,0.04 -0.04,0.04 c -6.22,6.28 -7.81,15.69 -7.81,23.31 0,8.67 1.89,17.35 8.01,23.56 0.65,0.61 0.65,0.71 0.65,0.86 0,0.35 -0.19,0.49 -0.49,0.49 -0.5,0 -4.98,-3.38 -7.92,-9.7 -2.55,-5.49 -3.14,-11.02 -3.14,-15.21 0,-3.89 0.55,-9.9 3.28,-15.54 2.98,-6.13 7.28,-9.36 7.78,-9.36 0.3,0 0.49,0.14 0.49,0.5 z"
           inkscape:connector-curvature="0"
           style="fill:#000000;stroke-width:0" /><path
           id="path5159"
           d="m 521.24,421.25 0.03,0.13 0.03,0.15 0.05,0.16 0.04,0.18 0.05,0.19 0.06,0.21 0.07,0.22 0.07,0.22 0.08,0.23 0.09,0.24 0.09,0.25 0.11,0.24 0.11,0.25 0.12,0.25 0.13,0.25 0.14,0.25 0.14,0.24 0.16,0.24 0.17,0.23 0.17,0.22 0.19,0.22 0.2,0.2 0.21,0.19 0.22,0.18 0.23,0.16 0.25,0.14 0.12,0.07 0.13,0.06 0.14,0.05 0.13,0.05 0.14,0.05 0.14,0.04 0.15,0.03 0.15,0.03 0.15,0.02 0.15,0.02 0.16,0.01 0.17,0 c 0.25,0 1.43,0 2.48,-0.64 -1.39,-0.25 -2.39,-1.5 -2.39,-2.69 0,-0.79 0.55,-1.75 1.89,-1.75 1.09,0 2.69,0.89 2.69,2.89 0,2.6 -2.94,3.28 -4.63,3.28 -2.89,0 -4.64,-2.64 -5.23,-3.78 -1.25,3.28 -3.94,3.78 -5.38,3.78 -5.18,0 -8.03,-6.42 -8.03,-7.67 0,-0.5 0.5,-0.5 0.61,-0.5 0.39,0 0.55,0.11 0.64,0.55 1.69,5.28 4.99,6.53 6.67,6.53 0.96,0 2.69,-0.44 2.69,-3.33 0,-1.54 -0.84,-4.89 -2.69,-11.86 -0.79,-3.09 -2.53,-5.18 -4.73,-5.18 -0.3,0 -1.44,0 -2.48,0.65 1.25,0.24 2.34,1.28 2.34,2.69 0,1.34 -1.09,1.73 -1.84,1.73 -1.5,0 -2.75,-1.29 -2.75,-2.89 0,-2.28 2.5,-3.28 4.68,-3.28 3.3,0 5.08,3.49 5.24,3.78 0.59,-1.84 2.39,-3.78 5.37,-3.78 5.14,0 7.99,6.42 7.99,7.67 0,0.5 -0.46,0.5 -0.61,0.5 -0.44,0 -0.55,-0.2 -0.64,-0.54 -1.64,-5.33 -5.04,-6.53 -6.63,-6.53 -1.95,0 -2.75,1.59 -2.75,3.29 0,1.1 0.3,2.19 0.86,4.38 z"
           inkscape:connector-curvature="0"
           style="fill:#000000;stroke-width:0" /><path
           id="path5161"
           d="m 547.43,418.65 -0.01,0.37 0,0.39 -0.01,0.39 -0.01,0.41 -0.04,0.84 -0.06,0.88 -0.08,0.92 -0.11,0.95 -0.14,0.97 -0.16,1.01 -0.2,1.02 -0.23,1.03 -0.26,1.05 -0.31,1.06 -0.35,1.07 -0.39,1.07 -0.21,0.53 -0.23,0.53 -0.24,0.53 -0.24,0.53 c -2.99,6.12 -7.27,9.36 -7.77,9.36 -0.3,0 -0.5,-0.19 -0.5,-0.49 0,-0.15 0,-0.25 0.94,-1.15 4.89,-4.92 7.73,-12.85 7.73,-23.27 0,-8.51 -1.84,-17.28 -8.03,-23.56 -0.64,-0.59 -0.64,-0.7 -0.64,-0.84 0,-0.3 0.2,-0.5 0.5,-0.5 0.5,0 4.97,3.39 7.92,9.71 2.53,5.47 3.13,11 3.13,15.19 z"
           inkscape:connector-curvature="0"
           style="fill:#000000;stroke-width:0" /><path
           id="path5163"
           d="m 600.62,422.5 0.14,0 0.15,0 0.14,0 0.08,0.01 0.07,0 0.07,0.01 0.07,0.01 0.07,0.01 0.07,0.01 0.07,0.01 0.07,0.02 0.06,0.02 0.06,0.02 0.07,0.02 0.05,0.03 0.06,0.03 0.05,0.04 0.05,0.03 0.05,0.05 0.04,0.04 0.04,0.05 0.02,0.03 0.02,0.03 0.01,0.02 0.02,0.03 0.01,0.03 0.02,0.04 0.01,0.03 0.01,0.04 0.01,0.03 0.01,0.04 0.01,0.04 0,0.04 0.01,0.04 0,0.04 0,0.04 0,0.05 c 0,1 -0.95,1 -1.64,1 h -29.84 c -0.71,0 -1.64,0 -1.64,-1 0,-0.98 0.93,-0.98 1.69,-0.98 z"
           inkscape:connector-curvature="0"
           style="fill:#000000;stroke-width:0" /><path
           id="path5165"
           d="m 600.67,412.82 0.07,0 0.06,0 0.14,0.01 0.14,0 0.07,0 0.07,0.01 0.07,0.01 0.07,0 0.07,0.01 0.06,0.02 0.07,0.01 0.06,0.02 0.07,0.02 0.06,0.02 0.06,0.02 0.06,0.03 0.05,0.03 0.05,0.04 0.05,0.04 0.05,0.04 0.04,0.05 0.02,0.02 0.02,0.03 0.02,0.02 0.02,0.03 0.02,0.03 0.01,0.03 0.01,0.03 0.02,0.03 0.01,0.04 0.01,0.03 0.01,0.04 0.01,0.04 0.01,0.04 0,0.04 0.01,0.04 0,0.04 0,0.05 0,0.04 c 0,1 -0.95,1 -1.69,1 h -29.74 c -0.76,0 -1.69,0 -1.69,-1 0,-1 0.93,-1 1.64,-1 z"
           inkscape:connector-curvature="0"
           style="fill:#000000;stroke-width:0" /><path
           id="path5167"
           d="m 637.23,426.12 h 4.28 c 1,0 1.5,0 1.5,1 0,0.55 -0.5,0.55 -1.34,0.55 h -4.14 l 1.04,5.69 c 0.21,1.04 0.91,4.57 1.21,5.17 0.45,0.95 1.29,1.7 2.34,1.7 0.19,0 1.48,0 2.44,-0.91 -2.19,-0.18 -2.69,-1.93 -2.69,-2.68 0,-1.14 0.89,-1.74 1.85,-1.74 1.29,0 2.73,1.1 2.73,2.99 0,2.29 -2.3,3.43 -4.33,3.43 -1.7,0 -4.84,-0.89 -6.33,-5.82 -0.29,-1.05 -0.45,-1.55 -1.64,-7.83 h -3.43 c -0.96,0 -1.5,0 -1.5,-0.94 0,-0.61 0.45,-0.61 1.38,-0.61 h 3.3 l -3.75,-19.67 c -0.89,-4.83 -1.73,-9.38 -4.33,-9.38 -0.2,0 -1.43,0 -2.39,0.91 2.3,0.14 2.74,1.94 2.74,2.69 0,1.14 -0.89,1.75 -1.85,1.75 -1.29,0 -2.73,-1.1 -2.73,-3 0,-2.24 2.19,-3.44 4.23,-3.44 2.74,0 4.74,2.94 5.63,4.84 1.59,3.14 2.75,9.16 2.8,9.52 z"
           inkscape:connector-curvature="0"
           style="fill:#000000;stroke-width:0" /><path
           id="path5169"
           d="m 665.19,394.25 0,0.02 0,0.03 0,0.01 0,0.02 -0.01,0.01 0,0.02 -0.01,0.01 0,0.02 -0.01,0.02 -0.01,0.02 -0.02,0.02 -0.01,0.03 -0.02,0.02 -0.01,0.03 -0.03,0.03 -0.02,0.03 -0.03,0.03 -0.02,0.04 -0.02,0.02 -0.02,0.02 -0.01,0.02 -0.02,0.02 -0.02,0.02 -0.02,0.03 -0.02,0.02 -0.02,0.02 -0.03,0.03 -0.02,0.02 -0.03,0.03 -0.02,0.03 -0.03,0.03 -0.03,0.03 -0.02,0.03 -0.03,0.03 -0.03,0.03 -0.04,0.03 -0.03,0.04 -0.03,0.03 -0.04,0.04 -0.04,0.03 -0.03,0.04 -0.04,0.04 c -6.22,6.28 -7.82,15.69 -7.82,23.31 0,8.67 1.9,17.35 8.02,23.56 0.64,0.61 0.64,0.71 0.64,0.86 0,0.35 -0.19,0.49 -0.48,0.49 -0.5,0 -4.99,-3.38 -7.93,-9.7 -2.54,-5.49 -3.13,-11.02 -3.13,-15.21 0,-3.89 0.54,-9.9 3.28,-15.54 2.98,-6.13 7.28,-9.36 7.78,-9.36 0.29,0 0.48,0.14 0.48,0.5 z"
           inkscape:connector-curvature="0"
           style="fill:#000000;stroke-width:0" /><path
           id="path5171"
           d="m 684.66,421.25 0.03,0.13 0.04,0.15 0.04,0.16 0.05,0.18 0.05,0.19 0.06,0.21 0.07,0.22 0.07,0.22 0.08,0.23 0.09,0.24 0.09,0.25 0.1,0.24 0.12,0.25 0.12,0.25 0.12,0.25 0.14,0.25 0.15,0.24 0.16,0.24 0.16,0.23 0.18,0.22 0.19,0.22 0.2,0.2 0.2,0.19 0.23,0.18 0.23,0.16 0.24,0.14 0.13,0.07 0.13,0.06 0.13,0.05 0.14,0.05 0.14,0.05 0.14,0.04 0.14,0.03 0.15,0.03 0.16,0.02 0.15,0.02 0.16,0.01 0.16,0 c 0.25,0 1.44,0 2.49,-0.64 -1.39,-0.25 -2.39,-1.5 -2.39,-2.69 0,-0.79 0.54,-1.75 1.89,-1.75 1.09,0 2.68,0.89 2.68,2.89 0,2.6 -2.93,3.28 -4.62,3.28 -2.89,0 -4.64,-2.64 -5.24,-3.78 -1.25,3.28 -3.93,3.78 -5.37,3.78 -5.19,0 -8.03,-6.42 -8.03,-7.67 0,-0.5 0.5,-0.5 0.61,-0.5 0.39,0 0.54,0.11 0.64,0.55 1.69,5.28 4.98,6.53 6.67,6.53 0.95,0 2.69,-0.44 2.69,-3.33 0,-1.54 -0.85,-4.89 -2.69,-11.86 -0.8,-3.09 -2.53,-5.18 -4.73,-5.18 -0.3,0 -1.44,0 -2.49,0.65 1.25,0.24 2.34,1.28 2.34,2.69 0,1.34 -1.09,1.73 -1.84,1.73 -1.5,0 -2.75,-1.29 -2.75,-2.89 0,-2.28 2.5,-3.28 4.69,-3.28 3.3,0 5.08,3.49 5.23,3.78 0.6,-1.84 2.39,-3.78 5.38,-3.78 5.14,0 7.98,6.42 7.98,7.67 0,0.5 -0.45,0.5 -0.61,0.5 -0.43,0 -0.54,-0.2 -0.64,-0.54 -1.64,-5.33 -5.03,-6.53 -6.62,-6.53 -1.96,0 -2.75,1.59 -2.75,3.29 0,1.1 0.29,2.19 0.86,4.38 z"
           inkscape:connector-curvature="0"
           style="fill:#000000;stroke-width:0" /><path
           id="path5173"
           d="m 707.73,432.87 0.26,0.12 0.26,0.11 0.24,0.11 0.24,0.1 0.23,0.1 0.22,0.1 0.21,0.09 0.21,0.09 0.2,0.08 0.19,0.08 0.18,0.08 0.18,0.07 0.17,0.08 0.16,0.06 0.16,0.07 0.15,0.06 0.14,0.06 0.14,0.06 0.14,0.06 0.13,0.05 0.12,0.06 0.12,0.05 0.11,0.05 0.11,0.04 0.11,0.05 0.1,0.04 0.19,0.09 0.18,0.08 0.17,0.08 c 0.67,0.27 0.98,0.41 0.98,1.08 0,0.59 -0.45,1.11 -1.08,1.11 -0.25,0 -0.31,0 -0.73,-0.31 l -4.74,-3.17 0.52,5.15 c 0.08,0.63 0,1.5 -1.05,1.5 -0.42,0 -1.08,-0.28 -1.08,-1.04 0,-0.32 0.15,-1.36 0.18,-1.71 0.07,-0.59 0.31,-3.11 0.39,-3.9 l -4.71,3.17 c -0.36,0.2 -0.45,0.31 -0.76,0.31 -0.64,0 -1.1,-0.52 -1.1,-1.11 0,-0.7 0.43,-0.87 0.74,-1.01 l 5.26,-2.19 c -2.85,-1.27 -4.14,-1.75 -5.01,-2.17 -0.66,-0.29 -0.99,-0.43 -0.99,-1.08 0,-0.6 0.46,-1.11 1.1,-1.11 0.23,0 0.31,0 0.72,0.31 l 4.75,3.17 -0.57,-5.61 c 0,-0.76 0.66,-1.04 1.08,-1.04 0.42,0 1.08,0.28 1.08,1.04 0,0.32 -0.14,1.36 -0.17,1.71 -0.06,0.59 -0.31,3.09 -0.38,3.9 l 4.17,-2.79 c 0.91,-0.69 0.99,-0.69 1.3,-0.69 0.63,0 1.08,0.51 1.08,1.11 0,0.7 -0.42,0.87 -0.73,1.01 z"
           inkscape:connector-curvature="0"
           style="fill:#000000;stroke-width:0" /><path
           id="path5175"
           d="m 733.79,418.65 0,0.37 -0.01,0.39 -0.01,0.39 -0.01,0.41 -0.04,0.84 -0.06,0.88 -0.08,0.92 -0.11,0.95 -0.13,0.97 -0.17,1.01 -0.19,1.02 -0.23,1.03 -0.27,1.05 -0.31,1.06 -0.34,1.07 -0.4,1.07 -0.21,0.53 -0.22,0.53 -0.24,0.53 -0.25,0.53 c -2.99,6.12 -7.27,9.36 -7.77,9.36 -0.29,0 -0.5,-0.19 -0.5,-0.49 0,-0.15 0,-0.25 0.94,-1.15 4.89,-4.92 7.73,-12.85 7.73,-23.27 0,-8.51 -1.84,-17.28 -8.03,-23.56 -0.64,-0.59 -0.64,-0.7 -0.64,-0.84 0,-0.3 0.21,-0.5 0.5,-0.5 0.5,0 4.97,3.39 7.92,9.71 2.54,5.47 3.13,11 3.13,15.19 z"
           inkscape:connector-curvature="0"
           style="fill:#000000;stroke-width:0" /></g>    </g>
    <g
       transform="matrix(0.24731424,0,0,0.24731424,23.125037,162.91556)"
       id="g5257">
      <g
         style="font-style:normal;font-variant:normal;font-weight:normal;font-stretch:normal;letter-spacing:normal;word-spacing:normal;text-anchor:start;fill:none;stroke:#000000;stroke-linecap:butt;stroke-linejoin:miter;stroke-miterlimit:10.43299961;stroke-opacity:1;stroke-dasharray:none;stroke-dashoffset:0"
         id="g5259"
         transform="matrix(1.0629921,0,0,-1.0629921,-186.02362,789.27165)"
         xml:space="preserve"
         stroke-miterlimit="10.433"
         font-style="normal"
         font-variant="normal"
         font-weight="normal"
         font-stretch="normal"
         font-size-adjust="none"
         letter-spacing="normal"
         word-spacing="normal"><path
           style="fill:#000000;stroke-width:0"
           inkscape:connector-curvature="0"
           d="m 473.8,426.12 h 4.28 c 1,0 1.5,0 1.5,1 0,0.55 -0.5,0.55 -1.34,0.55 h -4.14 l 1.04,5.69 c 0.21,1.04 0.91,4.57 1.21,5.17 0.45,0.95 1.29,1.7 2.34,1.7 0.19,0 1.49,0 2.44,-0.91 -2.19,-0.18 -2.69,-1.93 -2.69,-2.68 0,-1.14 0.89,-1.74 1.85,-1.74 1.29,0 2.73,1.1 2.73,2.99 0,2.29 -2.3,3.43 -4.33,3.43 -1.7,0 -4.84,-0.89 -6.33,-5.82 -0.29,-1.05 -0.45,-1.55 -1.64,-7.83 h -3.43 c -0.96,0 -1.5,0 -1.5,-0.94 0,-0.61 0.45,-0.61 1.39,-0.61 h 3.29 l -3.75,-19.67 c -0.89,-4.83 -1.73,-9.38 -4.33,-9.38 -0.2,0 -1.43,0 -2.39,0.91 2.3,0.14 2.74,1.94 2.74,2.69 0,1.14 -0.89,1.75 -1.85,1.75 -1.29,0 -2.73,-1.1 -2.73,-3 0,-2.24 2.19,-3.44 4.23,-3.44 2.74,0 4.74,2.94 5.63,4.84 1.59,3.14 2.75,9.16 2.8,9.52 z"
           id="path5261" /><path
           style="fill:#000000;stroke-width:0"
           inkscape:connector-curvature="0"
           d="m 501.77,394.25 0,0.02 -0.01,0.03 0,0.01 0,0.02 0,0.01 -0.01,0.02 0,0.01 -0.01,0.02 -0.01,0.02 -0.01,0.02 -0.01,0.02 -0.01,0.03 -0.02,0.02 -0.02,0.03 -0.02,0.03 -0.02,0.03 -0.03,0.03 -0.03,0.04 -0.02,0.02 -0.01,0.02 -0.02,0.02 -0.02,0.02 -0.02,0.02 -0.02,0.03 -0.02,0.02 -0.02,0.02 -0.02,0.03 -0.03,0.02 -0.02,0.03 -0.03,0.03 -0.02,0.03 -0.03,0.03 -0.03,0.03 -0.03,0.03 -0.03,0.03 -0.03,0.03 -0.04,0.04 -0.03,0.03 -0.03,0.04 -0.04,0.03 -0.04,0.04 -0.04,0.04 c -6.22,6.28 -7.81,15.69 -7.81,23.31 0,8.67 1.89,17.35 8.01,23.56 0.65,0.61 0.65,0.71 0.65,0.86 0,0.35 -0.19,0.49 -0.49,0.49 -0.5,0 -4.98,-3.38 -7.92,-9.7 -2.55,-5.49 -3.14,-11.02 -3.14,-15.21 0,-3.89 0.55,-9.9 3.28,-15.54 2.98,-6.13 7.28,-9.36 7.78,-9.36 0.3,0 0.49,0.14 0.49,0.5 z"
           id="path5263" /><path
           style="fill:#000000;stroke-width:0"
           inkscape:connector-curvature="0"
           d="m 521.24,421.25 0.03,0.13 0.03,0.15 0.05,0.16 0.04,0.18 0.05,0.19 0.06,0.21 0.07,0.22 0.07,0.22 0.08,0.23 0.09,0.24 0.09,0.25 0.11,0.24 0.11,0.25 0.12,0.25 0.13,0.25 0.14,0.25 0.14,0.24 0.16,0.24 0.17,0.23 0.17,0.22 0.19,0.22 0.2,0.2 0.21,0.19 0.22,0.18 0.23,0.16 0.25,0.14 0.12,0.07 0.13,0.06 0.14,0.05 0.13,0.05 0.14,0.05 0.14,0.04 0.15,0.03 0.15,0.03 0.15,0.02 0.15,0.02 0.16,0.01 0.17,0 c 0.25,0 1.43,0 2.48,-0.64 -1.39,-0.25 -2.39,-1.5 -2.39,-2.69 0,-0.79 0.55,-1.75 1.89,-1.75 1.09,0 2.69,0.89 2.69,2.89 0,2.6 -2.94,3.28 -4.63,3.28 -2.89,0 -4.64,-2.64 -5.23,-3.78 -1.25,3.28 -3.94,3.78 -5.38,3.78 -5.18,0 -8.03,-6.42 -8.03,-7.67 0,-0.5 0.5,-0.5 0.61,-0.5 0.39,0 0.55,0.11 0.64,0.55 1.69,5.28 4.99,6.53 6.67,6.53 0.96,0 2.69,-0.44 2.69,-3.33 0,-1.54 -0.84,-4.89 -2.69,-11.86 -0.79,-3.09 -2.53,-5.18 -4.73,-5.18 -0.3,0 -1.44,0 -2.48,0.65 1.25,0.24 2.34,1.28 2.34,2.69 0,1.34 -1.09,1.73 -1.84,1.73 -1.5,0 -2.75,-1.29 -2.75,-2.89 0,-2.28 2.5,-3.28 4.68,-3.28 3.3,0 5.08,3.49 5.24,3.78 0.59,-1.84 2.39,-3.78 5.37,-3.78 5.14,0 7.99,6.42 7.99,7.67 0,0.5 -0.46,0.5 -0.61,0.5 -0.44,0 -0.55,-0.2 -0.64,-0.54 -1.64,-5.33 -5.04,-6.53 -6.63,-6.53 -1.95,0 -2.75,1.59 -2.75,3.29 0,1.1 0.3,2.19 0.86,4.38 z"
           id="path5265" /><path
           style="fill:#000000;stroke-width:0"
           inkscape:connector-curvature="0"
           d="m 547.43,418.65 -0.01,0.37 0,0.39 -0.01,0.39 -0.01,0.41 -0.04,0.84 -0.06,0.88 -0.08,0.92 -0.11,0.95 -0.14,0.97 -0.16,1.01 -0.2,1.02 -0.23,1.03 -0.26,1.05 -0.31,1.06 -0.35,1.07 -0.39,1.07 -0.21,0.53 -0.23,0.53 -0.24,0.53 -0.24,0.53 c -2.99,6.12 -7.27,9.36 -7.77,9.36 -0.3,0 -0.5,-0.19 -0.5,-0.49 0,-0.15 0,-0.25 0.94,-1.15 4.89,-4.92 7.73,-12.85 7.73,-23.27 0,-8.51 -1.84,-17.28 -8.03,-23.56 -0.64,-0.59 -0.64,-0.7 -0.64,-0.84 0,-0.3 0.2,-0.5 0.5,-0.5 0.5,0 4.97,3.39 7.92,9.71 2.53,5.47 3.13,11 3.13,15.19 z"
           id="path5267" /><path
           style="fill:#000000;stroke-width:0"
           inkscape:connector-curvature="0"
           d="m 600.02,417.56 0.1,0.05 0.09,0.04 0.05,0.03 0.05,0.02 0.04,0.03 0.05,0.02 0.04,0.03 0.04,0.02 0.04,0.03 0.04,0.03 0.04,0.03 0.03,0.03 0.03,0.03 0.04,0.03 0.03,0.03 0.03,0.03 0.03,0.04 0.02,0.03 0.03,0.04 0.02,0.04 0.02,0.04 0.02,0.04 0.01,0.04 0.02,0.04 0.01,0.05 0.01,0.05 0.01,0.04 0,0.05 0.01,0.06 0,0.05 c 0,0.6 -0.41,0.85 -0.95,1.1 l -27.6,13.01 c -0.65,0.35 -0.75,0.35 -0.9,0.35 -0.55,0 -0.99,-0.46 -0.99,-1 0,-0.46 0.25,-0.75 0.94,-1.1 l 26.15,-12.36 -26.15,-12.36 c -0.69,-0.34 -0.94,-0.64 -0.94,-1.09 0,-0.55 0.44,-1 0.99,-1 0.15,0 0.25,0 0.9,0.36 z"
           id="path5269" /><path
           style="fill:#000000;stroke-width:0"
           inkscape:connector-curvature="0"
           d="m 637.23,426.12 h 4.28 c 1,0 1.5,0 1.5,1 0,0.55 -0.5,0.55 -1.34,0.55 h -4.14 l 1.04,5.69 c 0.21,1.04 0.91,4.57 1.21,5.17 0.45,0.95 1.29,1.7 2.34,1.7 0.19,0 1.48,0 2.44,-0.91 -2.19,-0.18 -2.69,-1.93 -2.69,-2.68 0,-1.14 0.89,-1.74 1.85,-1.74 1.29,0 2.73,1.1 2.73,2.99 0,2.29 -2.3,3.43 -4.33,3.43 -1.7,0 -4.84,-0.89 -6.33,-5.82 -0.29,-1.05 -0.45,-1.55 -1.64,-7.83 h -3.43 c -0.96,0 -1.5,0 -1.5,-0.94 0,-0.61 0.45,-0.61 1.38,-0.61 h 3.3 l -3.75,-19.67 c -0.89,-4.83 -1.73,-9.38 -4.33,-9.38 -0.2,0 -1.43,0 -2.39,0.91 2.3,0.14 2.74,1.94 2.74,2.69 0,1.14 -0.89,1.75 -1.85,1.75 -1.29,0 -2.73,-1.1 -2.73,-3 0,-2.24 2.19,-3.44 4.23,-3.44 2.74,0 4.74,2.94 5.63,4.84 1.59,3.14 2.75,9.16 2.8,9.52 z"
           id="path5271" /><path
           style="fill:#000000;stroke-width:0"
           inkscape:connector-curvature="0"
           d="m 665.19,394.25 0,0.02 0,0.03 0,0.01 0,0.02 -0.01,0.01 0,0.02 -0.01,0.01 0,0.02 -0.01,0.02 -0.01,0.02 -0.02,0.02 -0.01,0.03 -0.02,0.02 -0.01,0.03 -0.03,0.03 -0.02,0.03 -0.03,0.03 -0.02,0.04 -0.02,0.02 -0.02,0.02 -0.01,0.02 -0.02,0.02 -0.02,0.02 -0.02,0.03 -0.02,0.02 -0.02,0.02 -0.03,0.03 -0.02,0.02 -0.03,0.03 -0.02,0.03 -0.03,0.03 -0.03,0.03 -0.02,0.03 -0.03,0.03 -0.03,0.03 -0.04,0.03 -0.03,0.04 -0.03,0.03 -0.04,0.04 -0.04,0.03 -0.03,0.04 -0.04,0.04 c -6.22,6.28 -7.82,15.69 -7.82,23.31 0,8.67 1.9,17.35 8.02,23.56 0.64,0.61 0.64,0.71 0.64,0.86 0,0.35 -0.19,0.49 -0.48,0.49 -0.5,0 -4.99,-3.38 -7.93,-9.7 -2.54,-5.49 -3.13,-11.02 -3.13,-15.21 0,-3.89 0.54,-9.9 3.28,-15.54 2.98,-6.13 7.28,-9.36 7.78,-9.36 0.29,0 0.48,0.14 0.48,0.5 z"
           id="path5273" /><path
           style="fill:#000000;stroke-width:0"
           inkscape:connector-curvature="0"
           d="m 684.66,421.25 0.03,0.13 0.04,0.15 0.04,0.16 0.05,0.18 0.05,0.19 0.06,0.21 0.07,0.22 0.07,0.22 0.08,0.23 0.09,0.24 0.09,0.25 0.1,0.24 0.12,0.25 0.12,0.25 0.12,0.25 0.14,0.25 0.15,0.24 0.16,0.24 0.16,0.23 0.18,0.22 0.19,0.22 0.2,0.2 0.2,0.19 0.23,0.18 0.23,0.16 0.24,0.14 0.13,0.07 0.13,0.06 0.13,0.05 0.14,0.05 0.14,0.05 0.14,0.04 0.14,0.03 0.15,0.03 0.16,0.02 0.15,0.02 0.16,0.01 0.16,0 c 0.25,0 1.44,0 2.49,-0.64 -1.39,-0.25 -2.39,-1.5 -2.39,-2.69 0,-0.79 0.54,-1.75 1.89,-1.75 1.09,0 2.68,0.89 2.68,2.89 0,2.6 -2.93,3.28 -4.62,3.28 -2.89,0 -4.64,-2.64 -5.24,-3.78 -1.25,3.28 -3.93,3.78 -5.37,3.78 -5.19,0 -8.03,-6.42 -8.03,-7.67 0,-0.5 0.5,-0.5 0.61,-0.5 0.39,0 0.54,0.11 0.64,0.55 1.69,5.28 4.98,6.53 6.67,6.53 0.95,0 2.69,-0.44 2.69,-3.33 0,-1.54 -0.85,-4.89 -2.69,-11.86 -0.8,-3.09 -2.53,-5.18 -4.73,-5.18 -0.3,0 -1.44,0 -2.49,0.65 1.25,0.24 2.34,1.28 2.34,2.69 0,1.34 -1.09,1.73 -1.84,1.73 -1.5,0 -2.75,-1.29 -2.75,-2.89 0,-2.28 2.5,-3.28 4.69,-3.28 3.3,0 5.08,3.49 5.23,3.78 0.6,-1.84 2.39,-3.78 5.38,-3.78 5.14,0 7.98,6.42 7.98,7.67 0,0.5 -0.45,0.5 -0.61,0.5 -0.43,0 -0.54,-0.2 -0.64,-0.54 -1.64,-5.33 -5.03,-6.53 -6.62,-6.53 -1.96,0 -2.75,1.59 -2.75,3.29 0,1.1 0.29,2.19 0.86,4.38 z"
           id="path5275" /><path
           style="fill:#000000;stroke-width:0"
           inkscape:connector-curvature="0"
           d="m 707.73,432.87 0.26,0.12 0.26,0.11 0.24,0.11 0.24,0.1 0.23,0.1 0.22,0.1 0.21,0.09 0.21,0.09 0.2,0.08 0.19,0.08 0.18,0.08 0.18,0.07 0.17,0.08 0.16,0.06 0.16,0.07 0.15,0.06 0.14,0.06 0.14,0.06 0.14,0.06 0.13,0.05 0.12,0.06 0.12,0.05 0.11,0.05 0.11,0.04 0.11,0.05 0.1,0.04 0.19,0.09 0.18,0.08 0.17,0.08 c 0.67,0.27 0.98,0.41 0.98,1.08 0,0.59 -0.45,1.11 -1.08,1.11 -0.25,0 -0.31,0 -0.73,-0.31 l -4.74,-3.17 0.52,5.15 c 0.08,0.63 0,1.5 -1.05,1.5 -0.42,0 -1.08,-0.28 -1.08,-1.04 0,-0.32 0.15,-1.36 0.18,-1.71 0.07,-0.59 0.31,-3.11 0.39,-3.9 l -4.71,3.17 c -0.36,0.2 -0.45,0.31 -0.76,0.31 -0.64,0 -1.1,-0.52 -1.1,-1.11 0,-0.7 0.43,-0.87 0.74,-1.01 l 5.26,-2.19 c -2.85,-1.27 -4.14,-1.75 -5.01,-2.17 -0.66,-0.29 -0.99,-0.43 -0.99,-1.08 0,-0.6 0.46,-1.11 1.1,-1.11 0.23,0 0.31,0 0.72,0.31 l 4.75,3.17 -0.57,-5.61 c 0,-0.76 0.66,-1.04 1.08,-1.04 0.42,0 1.08,0.28 1.08,1.04 0,0.32 -0.14,1.36 -0.17,1.71 -0.06,0.59 -0.31,3.09 -0.38,3.9 l 4.17,-2.79 c 0.91,-0.69 0.99,-0.69 1.3,-0.69 0.63,0 1.08,0.51 1.08,1.11 0,0.7 -0.42,0.87 -0.73,1.01 z"
           id="path5277" /><path
           style="fill:#000000;stroke-width:0"
           inkscape:connector-curvature="0"
           d="m 733.79,418.65 0,0.37 -0.01,0.39 -0.01,0.39 -0.01,0.41 -0.04,0.84 -0.06,0.88 -0.08,0.92 -0.11,0.95 -0.13,0.97 -0.17,1.01 -0.19,1.02 -0.23,1.03 -0.27,1.05 -0.31,1.06 -0.34,1.07 -0.4,1.07 -0.21,0.53 -0.22,0.53 -0.24,0.53 -0.25,0.53 c -2.99,6.12 -7.27,9.36 -7.77,9.36 -0.29,0 -0.5,-0.19 -0.5,-0.49 0,-0.15 0,-0.25 0.94,-1.15 4.89,-4.92 7.73,-12.85 7.73,-23.27 0,-8.51 -1.84,-17.28 -8.03,-23.56 -0.64,-0.59 -0.64,-0.7 -0.64,-0.84 0,-0.3 0.21,-0.5 0.5,-0.5 0.5,0 4.97,3.39 7.92,9.71 2.54,5.47 3.13,11 3.13,15.19 z"
           id="path5279" /></g>    </g>
    <g
       id="g5385"
       transform="matrix(0.24634094,0,0,0.24634094,159.16202,306.91785)">
      <g
         word-spacing="normal"
         letter-spacing="normal"
         font-size-adjust="none"
         font-stretch="normal"
         font-weight="normal"
         font-variant="normal"
         font-style="normal"
         stroke-miterlimit="10.433"
         xml:space="preserve"
         transform="matrix(1.0629921,0,0,-1.0629921,-186.02362,789.27165)"
         id="g5387"
         style="font-style:normal;font-variant:normal;font-weight:normal;font-stretch:normal;letter-spacing:normal;word-spacing:normal;text-anchor:start;fill:none;stroke:#000000;stroke-linecap:butt;stroke-linejoin:miter;stroke-miterlimit:10.43299961;stroke-opacity:1;stroke-dasharray:none;stroke-dashoffset:0"><path
           id="path5389"
           d="m 473.8,426.12 h 4.28 c 1,0 1.5,0 1.5,1 0,0.55 -0.5,0.55 -1.34,0.55 h -4.14 l 1.04,5.69 c 0.21,1.04 0.91,4.57 1.21,5.17 0.45,0.95 1.29,1.7 2.34,1.7 0.19,0 1.49,0 2.44,-0.91 -2.19,-0.18 -2.69,-1.93 -2.69,-2.68 0,-1.14 0.89,-1.74 1.85,-1.74 1.29,0 2.73,1.1 2.73,2.99 0,2.29 -2.3,3.43 -4.33,3.43 -1.7,0 -4.84,-0.89 -6.33,-5.82 -0.29,-1.05 -0.45,-1.55 -1.64,-7.83 h -3.43 c -0.96,0 -1.5,0 -1.5,-0.94 0,-0.61 0.45,-0.61 1.39,-0.61 h 3.29 l -3.75,-19.67 c -0.89,-4.83 -1.73,-9.38 -4.33,-9.38 -0.2,0 -1.43,0 -2.39,0.91 2.3,0.14 2.74,1.94 2.74,2.69 0,1.14 -0.89,1.75 -1.85,1.75 -1.29,0 -2.73,-1.1 -2.73,-3 0,-2.24 2.19,-3.44 4.23,-3.44 2.74,0 4.74,2.94 5.63,4.84 1.59,3.14 2.75,9.16 2.8,9.52 z"
           inkscape:connector-curvature="0"
           style="fill:#000000;stroke-width:0" /><path
           id="path5391"
           d="m 501.77,394.25 0,0.02 -0.01,0.03 0,0.01 0,0.02 0,0.01 -0.01,0.02 0,0.01 -0.01,0.02 -0.01,0.02 -0.01,0.02 -0.01,0.02 -0.01,0.03 -0.02,0.02 -0.02,0.03 -0.02,0.03 -0.02,0.03 -0.03,0.03 -0.03,0.04 -0.02,0.02 -0.01,0.02 -0.02,0.02 -0.02,0.02 -0.02,0.02 -0.02,0.03 -0.02,0.02 -0.02,0.02 -0.02,0.03 -0.03,0.02 -0.02,0.03 -0.03,0.03 -0.02,0.03 -0.03,0.03 -0.03,0.03 -0.03,0.03 -0.03,0.03 -0.03,0.03 -0.04,0.04 -0.03,0.03 -0.03,0.04 -0.04,0.03 -0.04,0.04 -0.04,0.04 c -6.22,6.28 -7.81,15.69 -7.81,23.31 0,8.67 1.89,17.35 8.01,23.56 0.65,0.61 0.65,0.71 0.65,0.86 0,0.35 -0.19,0.49 -0.49,0.49 -0.5,0 -4.98,-3.38 -7.92,-9.7 -2.55,-5.49 -3.14,-11.02 -3.14,-15.21 0,-3.89 0.55,-9.9 3.28,-15.54 2.98,-6.13 7.28,-9.36 7.78,-9.36 0.3,0 0.49,0.14 0.49,0.5 z"
           inkscape:connector-curvature="0"
           style="fill:#000000;stroke-width:0" /><path
           id="path5393"
           d="m 521.24,421.25 0.03,0.13 0.03,0.15 0.05,0.16 0.04,0.18 0.05,0.19 0.06,0.21 0.07,0.22 0.07,0.22 0.08,0.23 0.09,0.24 0.09,0.25 0.11,0.24 0.11,0.25 0.12,0.25 0.13,0.25 0.14,0.25 0.14,0.24 0.16,0.24 0.17,0.23 0.17,0.22 0.19,0.22 0.2,0.2 0.21,0.19 0.22,0.18 0.23,0.16 0.25,0.14 0.12,0.07 0.13,0.06 0.14,0.05 0.13,0.05 0.14,0.05 0.14,0.04 0.15,0.03 0.15,0.03 0.15,0.02 0.15,0.02 0.16,0.01 0.17,0 c 0.25,0 1.43,0 2.48,-0.64 -1.39,-0.25 -2.39,-1.5 -2.39,-2.69 0,-0.79 0.55,-1.75 1.89,-1.75 1.09,0 2.69,0.89 2.69,2.89 0,2.6 -2.94,3.28 -4.63,3.28 -2.89,0 -4.64,-2.64 -5.23,-3.78 -1.25,3.28 -3.94,3.78 -5.38,3.78 -5.18,0 -8.03,-6.42 -8.03,-7.67 0,-0.5 0.5,-0.5 0.61,-0.5 0.39,0 0.55,0.11 0.64,0.55 1.69,5.28 4.99,6.53 6.67,6.53 0.96,0 2.69,-0.44 2.69,-3.33 0,-1.54 -0.84,-4.89 -2.69,-11.86 -0.79,-3.09 -2.53,-5.18 -4.73,-5.18 -0.3,0 -1.44,0 -2.48,0.65 1.25,0.24 2.34,1.28 2.34,2.69 0,1.34 -1.09,1.73 -1.84,1.73 -1.5,0 -2.75,-1.29 -2.75,-2.89 0,-2.28 2.5,-3.28 4.68,-3.28 3.3,0 5.08,3.49 5.24,3.78 0.59,-1.84 2.39,-3.78 5.37,-3.78 5.14,0 7.99,6.42 7.99,7.67 0,0.5 -0.46,0.5 -0.61,0.5 -0.44,0 -0.55,-0.2 -0.64,-0.54 -1.64,-5.33 -5.04,-6.53 -6.63,-6.53 -1.95,0 -2.75,1.59 -2.75,3.29 0,1.1 0.3,2.19 0.86,4.38 z"
           inkscape:connector-curvature="0"
           style="fill:#000000;stroke-width:0" /><path
           id="path5395"
           d="m 547.43,418.65 -0.01,0.37 0,0.39 -0.01,0.39 -0.01,0.41 -0.04,0.84 -0.06,0.88 -0.08,0.92 -0.11,0.95 -0.14,0.97 -0.16,1.01 -0.2,1.02 -0.23,1.03 -0.26,1.05 -0.31,1.06 -0.35,1.07 -0.39,1.07 -0.21,0.53 -0.23,0.53 -0.24,0.53 -0.24,0.53 c -2.99,6.12 -7.27,9.36 -7.77,9.36 -0.3,0 -0.5,-0.19 -0.5,-0.49 0,-0.15 0,-0.25 0.94,-1.15 4.89,-4.92 7.73,-12.85 7.73,-23.27 0,-8.51 -1.84,-17.28 -8.03,-23.56 -0.64,-0.59 -0.64,-0.7 -0.64,-0.84 0,-0.3 0.2,-0.5 0.5,-0.5 0.5,0 4.97,3.39 7.92,9.71 2.53,5.47 3.13,11 3.13,15.19 z"
           inkscape:connector-curvature="0"
           style="fill:#000000;stroke-width:0" /><path
           id="path5397"
           d="m 600.02,431.01 0.05,0.03 0.06,0.03 0.05,0.02 0.05,0.03 0.05,0.03 0.05,0.03 0.05,0.02 0.04,0.03 0.05,0.03 0.04,0.03 0.04,0.03 0.04,0.02 0.03,0.03 0.04,0.03 0.03,0.03 0.03,0.04 0.03,0.03 0.03,0.03 0.02,0.03 0.03,0.04 0.02,0.03 0.02,0.04 0.02,0.04 0.02,0.04 0.01,0.04 0.01,0.04 0.01,0.04 0.01,0.04 0.01,0.05 0,0.05 0.01,0.04 0,0.06 c 0,0.54 -0.45,1 -1,1 -0.14,0 -0.25,0 -0.89,-0.35 l -27.61,-13.01 c -0.55,-0.25 -0.94,-0.5 -0.94,-1.1 0,-0.59 0.39,-0.84 0.94,-1.09 l 27.61,-13 c 0.64,-0.36 0.75,-0.36 0.89,-0.36 0.55,0 1,0.45 1,1 0,0.55 -0.35,0.8 -0.95,1.09 l -26.16,12.36 z"
           inkscape:connector-curvature="0"
           style="fill:#000000;stroke-width:0" /><path
           id="path5399"
           d="m 637.23,426.12 h 4.28 c 1,0 1.5,0 1.5,1 0,0.55 -0.5,0.55 -1.34,0.55 h -4.14 l 1.04,5.69 c 0.21,1.04 0.91,4.57 1.21,5.17 0.45,0.95 1.29,1.7 2.34,1.7 0.19,0 1.48,0 2.44,-0.91 -2.19,-0.18 -2.69,-1.93 -2.69,-2.68 0,-1.14 0.89,-1.74 1.85,-1.74 1.29,0 2.73,1.1 2.73,2.99 0,2.29 -2.3,3.43 -4.33,3.43 -1.7,0 -4.84,-0.89 -6.33,-5.82 -0.29,-1.05 -0.45,-1.55 -1.64,-7.83 h -3.43 c -0.96,0 -1.5,0 -1.5,-0.94 0,-0.61 0.45,-0.61 1.38,-0.61 h 3.3 l -3.75,-19.67 c -0.89,-4.83 -1.73,-9.38 -4.33,-9.38 -0.2,0 -1.43,0 -2.39,0.91 2.3,0.14 2.74,1.94 2.74,2.69 0,1.14 -0.89,1.75 -1.85,1.75 -1.29,0 -2.73,-1.1 -2.73,-3 0,-2.24 2.19,-3.44 4.23,-3.44 2.74,0 4.74,2.94 5.63,4.84 1.59,3.14 2.75,9.16 2.8,9.52 z"
           inkscape:connector-curvature="0"
           style="fill:#000000;stroke-width:0" /><path
           id="path5401"
           d="m 665.19,394.25 0,0.02 0,0.03 0,0.01 0,0.02 -0.01,0.01 0,0.02 -0.01,0.01 0,0.02 -0.01,0.02 -0.01,0.02 -0.02,0.02 -0.01,0.03 -0.02,0.02 -0.01,0.03 -0.03,0.03 -0.02,0.03 -0.03,0.03 -0.02,0.04 -0.02,0.02 -0.02,0.02 -0.01,0.02 -0.02,0.02 -0.02,0.02 -0.02,0.03 -0.02,0.02 -0.02,0.02 -0.03,0.03 -0.02,0.02 -0.03,0.03 -0.02,0.03 -0.03,0.03 -0.03,0.03 -0.02,0.03 -0.03,0.03 -0.03,0.03 -0.04,0.03 -0.03,0.04 -0.03,0.03 -0.04,0.04 -0.04,0.03 -0.03,0.04 -0.04,0.04 c -6.22,6.28 -7.82,15.69 -7.82,23.31 0,8.67 1.9,17.35 8.02,23.56 0.64,0.61 0.64,0.71 0.64,0.86 0,0.35 -0.19,0.49 -0.48,0.49 -0.5,0 -4.99,-3.38 -7.93,-9.7 -2.54,-5.49 -3.13,-11.02 -3.13,-15.21 0,-3.89 0.54,-9.9 3.28,-15.54 2.98,-6.13 7.28,-9.36 7.78,-9.36 0.29,0 0.48,0.14 0.48,0.5 z"
           inkscape:connector-curvature="0"
           style="fill:#000000;stroke-width:0" /><path
           id="path5403"
           d="m 684.66,421.25 0.03,0.13 0.04,0.15 0.04,0.16 0.05,0.18 0.05,0.19 0.06,0.21 0.07,0.22 0.07,0.22 0.08,0.23 0.09,0.24 0.09,0.25 0.1,0.24 0.12,0.25 0.12,0.25 0.12,0.25 0.14,0.25 0.15,0.24 0.16,0.24 0.16,0.23 0.18,0.22 0.19,0.22 0.2,0.2 0.2,0.19 0.23,0.18 0.23,0.16 0.24,0.14 0.13,0.07 0.13,0.06 0.13,0.05 0.14,0.05 0.14,0.05 0.14,0.04 0.14,0.03 0.15,0.03 0.16,0.02 0.15,0.02 0.16,0.01 0.16,0 c 0.25,0 1.44,0 2.49,-0.64 -1.39,-0.25 -2.39,-1.5 -2.39,-2.69 0,-0.79 0.54,-1.75 1.89,-1.75 1.09,0 2.68,0.89 2.68,2.89 0,2.6 -2.93,3.28 -4.62,3.28 -2.89,0 -4.64,-2.64 -5.24,-3.78 -1.25,3.28 -3.93,3.78 -5.37,3.78 -5.19,0 -8.03,-6.42 -8.03,-7.67 0,-0.5 0.5,-0.5 0.61,-0.5 0.39,0 0.54,0.11 0.64,0.55 1.69,5.28 4.98,6.53 6.67,6.53 0.95,0 2.69,-0.44 2.69,-3.33 0,-1.54 -0.85,-4.89 -2.69,-11.86 -0.8,-3.09 -2.53,-5.18 -4.73,-5.18 -0.3,0 -1.44,0 -2.49,0.65 1.25,0.24 2.34,1.28 2.34,2.69 0,1.34 -1.09,1.73 -1.84,1.73 -1.5,0 -2.75,-1.29 -2.75,-2.89 0,-2.28 2.5,-3.28 4.69,-3.28 3.3,0 5.08,3.49 5.23,3.78 0.6,-1.84 2.39,-3.78 5.38,-3.78 5.14,0 7.98,6.42 7.98,7.67 0,0.5 -0.45,0.5 -0.61,0.5 -0.43,0 -0.54,-0.2 -0.64,-0.54 -1.64,-5.33 -5.03,-6.53 -6.62,-6.53 -1.96,0 -2.75,1.59 -2.75,3.29 0,1.1 0.29,2.19 0.86,4.38 z"
           inkscape:connector-curvature="0"
           style="fill:#000000;stroke-width:0" /><path
           id="path5405"
           d="m 707.73,432.87 0.26,0.12 0.26,0.11 0.24,0.11 0.24,0.1 0.23,0.1 0.22,0.1 0.21,0.09 0.21,0.09 0.2,0.08 0.19,0.08 0.18,0.08 0.18,0.07 0.17,0.08 0.16,0.06 0.16,0.07 0.15,0.06 0.14,0.06 0.14,0.06 0.14,0.06 0.13,0.05 0.12,0.06 0.12,0.05 0.11,0.05 0.11,0.04 0.11,0.05 0.1,0.04 0.19,0.09 0.18,0.08 0.17,0.08 c 0.67,0.27 0.98,0.41 0.98,1.08 0,0.59 -0.45,1.11 -1.08,1.11 -0.25,0 -0.31,0 -0.73,-0.31 l -4.74,-3.17 0.52,5.15 c 0.08,0.63 0,1.5 -1.05,1.5 -0.42,0 -1.08,-0.28 -1.08,-1.04 0,-0.32 0.15,-1.36 0.18,-1.71 0.07,-0.59 0.31,-3.11 0.39,-3.9 l -4.71,3.17 c -0.36,0.2 -0.45,0.31 -0.76,0.31 -0.64,0 -1.1,-0.52 -1.1,-1.11 0,-0.7 0.43,-0.87 0.74,-1.01 l 5.26,-2.19 c -2.85,-1.27 -4.14,-1.75 -5.01,-2.17 -0.66,-0.29 -0.99,-0.43 -0.99,-1.08 0,-0.6 0.46,-1.11 1.1,-1.11 0.23,0 0.31,0 0.72,0.31 l 4.75,3.17 -0.57,-5.61 c 0,-0.76 0.66,-1.04 1.08,-1.04 0.42,0 1.08,0.28 1.08,1.04 0,0.32 -0.14,1.36 -0.17,1.71 -0.06,0.59 -0.31,3.09 -0.38,3.9 l 4.17,-2.79 c 0.91,-0.69 0.99,-0.69 1.3,-0.69 0.63,0 1.08,0.51 1.08,1.11 0,0.7 -0.42,0.87 -0.73,1.01 z"
           inkscape:connector-curvature="0"
           style="fill:#000000;stroke-width:0" /><path
           id="path5407"
           d="m 733.79,418.65 0,0.37 -0.01,0.39 -0.01,0.39 -0.01,0.41 -0.04,0.84 -0.06,0.88 -0.08,0.92 -0.11,0.95 -0.13,0.97 -0.17,1.01 -0.19,1.02 -0.23,1.03 -0.27,1.05 -0.31,1.06 -0.34,1.07 -0.4,1.07 -0.21,0.53 -0.22,0.53 -0.24,0.53 -0.25,0.53 c -2.99,6.12 -7.27,9.36 -7.77,9.36 -0.29,0 -0.5,-0.19 -0.5,-0.49 0,-0.15 0,-0.25 0.94,-1.15 4.89,-4.92 7.73,-12.85 7.73,-23.27 0,-8.51 -1.84,-17.28 -8.03,-23.56 -0.64,-0.59 -0.64,-0.7 -0.64,-0.84 0,-0.3 0.21,-0.5 0.5,-0.5 0.5,0 4.97,3.39 7.92,9.71 2.54,5.47 3.13,11 3.13,15.19 z"
           inkscape:connector-curvature="0"
           style="fill:#000000;stroke-width:0" /></g>    </g>
    <path
       style="fill:none;stroke:#000000;stroke-width:0.60531414px;stroke-linecap:butt;stroke-linejoin:miter;stroke-opacity:1"
       d="m 125.76125,317.73065 -7.64324,7.64325 6.72605,6.72606"
       id="path5550"
       inkscape:connector-curvature="0" />
  </g>
</svg>
