<?xml version="1.0" encoding="UTF-8" standalone="no"?>
<!-- Created with Inkscape (http://www.inkscape.org/) -->

<svg
   xmlns:dc="http://purl.org/dc/elements/1.1/"
   xmlns:cc="http://creativecommons.org/ns#"
   xmlns:rdf="http://www.w3.org/1999/02/22-rdf-syntax-ns#"
   xmlns:svg="http://www.w3.org/2000/svg"
   xmlns="http://www.w3.org/2000/svg"
   xmlns:sodipodi="http://sodipodi.sourceforge.net/DTD/sodipodi-0.dtd"
   xmlns:inkscape="http://www.inkscape.org/namespaces/inkscape"
   width="154.44714"
   height="41.096237"
   id="svg3220"
   version="1.1"
   inkscape:version="0.48.4 r9939"
   sodipodi:docname="New document 3">
  <sodipodi:namedview
     id="base"
     pagecolor="#ffffff"
     bordercolor="#666666"
     borderopacity="1.0"
     inkscape:pageopacity="0.0"
     inkscape:pageshadow="2"
     inkscape:zoom="3.2965092"
     inkscape:cx="28.537633"
     inkscape:cy="31.621484"
     inkscape:document-units="px"
     inkscape:current-layer="layer1"
     showgrid="false"
     inkscape:window-width="958"
     inkscape:window-height="602"
     inkscape:window-x="178"
     inkscape:window-y="162"
     inkscape:window-maximized="0"
     fit-margin-top="0"
     fit-margin-left="0"
     fit-margin-right="0"
     fit-margin-bottom="0" />
  <defs
     id="defs3222" />
  <metadata
     id="metadata3225">
    <rdf:RDF>
      <cc:Work
         rdf:about="">
        <dc:format>image/svg+xml</dc:format>
        <dc:type
           rdf:resource="http://purl.org/dc/dcmitype/StillImage" />
        <dc:title></dc:title>
      </cc:Work>
    </rdf:RDF>
  </metadata>
  <g
     id="layer1"
     inkscape:groupmode="layer"
     inkscape:label="Layer 1"
     transform="translate(-397.66964,-372.57089)">
    <g
       id="g3233"
       transform="matrix(0.4153132,0,0,0.40910942,272.96685,244.41723)">
      <g
         word-spacing="normal"
         letter-spacing="normal"
         font-size-adjust="none"
         font-stretch="normal"
         font-weight="normal"
         font-variant="normal"
         font-style="normal"
         stroke-miterlimit="10.433"
         xml:space="preserve"
         transform="matrix(1.0629921,0,0,-1.0629921,-186.02362,789.27165)"
         id="content"
         style="font-style:normal;font-variant:normal;font-weight:normal;font-stretch:normal;letter-spacing:normal;word-spacing:normal;text-anchor:start;fill:none;stroke:#000000;stroke-linecap:butt;stroke-linejoin:miter;stroke-miterlimit:10.43299961;stroke-opacity:1;stroke-dasharray:none;stroke-dashoffset:0"><path
           id="path3236"
           d="m 474.1,425.03 -0.09,0.17 -0.09,0.17 -0.09,0.16 -0.09,0.16 -0.1,0.16 -0.1,0.16 -0.11,0.15 -0.11,0.14 -0.11,0.15 -0.12,0.13 -0.12,0.14 -0.12,0.13 -0.13,0.12 -0.13,0.12 -0.14,0.11 -0.14,0.11 -0.14,0.11 -0.15,0.09 -0.15,0.1 -0.15,0.08 -0.16,0.08 -0.17,0.08 -0.17,0.06 -0.17,0.07 -0.17,0.05 -0.18,0.05 -0.19,0.04 -0.19,0.03 -0.19,0.03 -0.2,0.02 -0.2,0.01 -0.21,0 0.05,-1.09 c 3.23,0 3.93,-4.08 3.93,-4.37 0,-0.32 -0.09,-0.61 -0.14,-0.86 l -2.5,-9.77 c -0.25,-0.89 -0.25,-0.98 -1,-1.84 -2.18,-2.74 -4.23,-3.53 -5.62,-3.53 -2.49,0 -3.19,2.73 -3.19,4.68 0,2.49 1.59,8.61 2.74,10.91 1.54,2.94 3.79,4.78 5.78,4.78 l -0.05,1.09 c -5.83,0 -12,-7.31 -12,-14.59 0,-4.69 2.73,-7.97 6.62,-7.97 0.99,0 3.49,0.21 6.47,3.74 0.41,-2.1 2.14,-3.74 4.53,-3.74 1.75,0 2.9,1.14 3.69,2.74 0.85,1.79 1.5,4.84 1.5,4.93 0,0.5 -0.45,0.5 -0.59,0.5 -0.5,0 -0.55,-0.2 -0.7,-0.9 -0.85,-3.24 -1.75,-6.17 -3.79,-6.17 -1.34,0 -1.5,1.29 -1.5,2.29 0,1.1 0.1,1.49 0.64,3.69 0.57,2.09 0.66,2.59 1.11,4.48 l 1.79,6.97 c 0.35,1.39 0.35,1.5 0.35,1.69 0,0.86 -0.6,1.36 -1.45,1.36 -1.19,0 -1.94,-1.11 -2.09,-2.2 z"
           inkscape:connector-curvature="0"
           style="fill:#000000;stroke-width:0" /><path
           id="path3238"
           d="m 486.19,409.14 -0.02,-0.07 -0.01,-0.08 -0.02,-0.07 -0.02,-0.08 -0.03,-0.16 -0.04,-0.16 -0.04,-0.16 -0.03,-0.16 -0.04,-0.16 -0.04,-0.16 -0.02,-0.08 -0.01,-0.07 -0.02,-0.07 -0.01,-0.07 -0.02,-0.07 -0.01,-0.07 -0.02,-0.06 -0.01,-0.06 -0.01,-0.06 -0.01,-0.05 -0.01,-0.05 0,-0.04 -0.01,-0.04 0,-0.04 -0.01,-0.03 0,-0.02 c 0,-0.89 0.71,-1.35 1.44,-1.35 0.61,0 1.5,0.39 1.85,1.39 0.1,0.21 1.79,6.99 2,7.88 0.39,1.64 1.29,5.12 1.59,6.48 0.2,0.64 1.59,2.99 2.78,4.08 0.41,0.34 1.84,1.64 4,1.64 1.28,0 2.03,-0.59 2.08,-0.59 -1.49,-0.25 -2.58,-1.46 -2.58,-2.74 0,-0.79 0.55,-1.75 1.89,-1.75 1.34,0 2.74,1.14 2.74,2.94 0,1.75 -1.6,3.23 -4.13,3.23 -3.25,0 -5.44,-2.43 -6.39,-3.82 -0.39,2.23 -2.19,3.82 -4.53,3.82 -2.28,0 -3.24,-1.93 -3.69,-2.82 -0.89,-1.71 -1.55,-4.69 -1.55,-4.85 0,-0.5 0.5,-0.5 0.61,-0.5 0.5,0 0.55,0.07 0.85,1.16 0.84,3.53 1.84,5.92 3.64,5.92 0.84,0 1.55,-0.39 1.55,-2.28 0,-1.05 -0.16,-1.61 -0.8,-4.19 z"
           inkscape:connector-curvature="0"
           style="fill:#000000;stroke-width:0" /><path
           id="path3240"
           d="m 529.15,424.98 0,0.06 0.01,0.05 0.02,0.05 0.01,0.06 0.02,0.1 0.01,0.05 0.01,0.06 0.01,0.05 0.01,0.06 0.01,0.05 0.01,0.06 0.01,0.06 0,0.06 0,0.03 0,0.03 0,0.03 0,0.03 c 0,0.86 -0.59,1.36 -1.43,1.36 -0.5,0 -1.85,-0.36 -2.05,-2.16 -0.89,1.85 -2.64,3.14 -4.62,3.14 l 0.04,-1.09 c 3.28,0 3.99,-4.03 3.99,-4.28 0,-0.25 -0.1,-0.55 -0.16,-0.75 l -2.39,-9.52 c -0.3,-1.29 -1.44,-2.53 -2.53,-3.48 -1.05,-0.89 -2.6,-1.8 -4.05,-1.8 -2.48,0 -3.23,2.6 -3.23,4.58 0,2.41 1.45,8.28 2.8,10.81 1.34,2.46 3.48,4.44 5.57,4.44 l -0.04,1.09 c -5.69,0 -11.86,-6.96 -11.86,-14.14 0,-4.93 3.03,-7.87 6.62,-7.87 2.94,0 5.28,2.34 5.78,2.89 l 0.05,-0.05 c -1.05,-4.43 -1.64,-6.48 -1.64,-6.58 -0.2,-0.45 -1.89,-5.39 -7.17,-5.39 -0.96,0 -2.6,0.07 -4,0.5 1.5,0.46 2.04,1.75 2.04,2.6 0,0.79 -0.54,1.75 -1.89,1.75 -1.09,0 -2.68,-0.91 -2.68,-2.89 0,-2.05 1.84,-3.05 6.62,-3.05 6.22,0 9.81,3.89 10.56,6.88 z"
           inkscape:connector-curvature="0"
           style="fill:#000000;stroke-width:0" /><path
           id="path3242"
           d="m 535.62,409.14 -0.01,-0.07 -0.02,-0.08 -0.01,-0.07 -0.02,-0.08 -0.03,-0.16 -0.04,-0.16 -0.04,-0.16 -0.04,-0.16 -0.03,-0.16 -0.04,-0.16 -0.02,-0.08 -0.01,-0.07 -0.02,-0.07 -0.02,-0.07 -0.01,-0.07 -0.01,-0.07 -0.02,-0.06 -0.01,-0.06 -0.01,-0.06 -0.01,-0.05 -0.01,-0.05 0,-0.04 -0.01,-0.04 0,-0.04 -0.01,-0.03 0,-0.02 c 0,-0.89 0.71,-1.35 1.44,-1.35 0.61,0 1.5,0.39 1.84,1.39 0.07,0.11 0.66,2.44 0.96,3.69 l 1.09,4.48 c 0.3,1.1 0.59,2.19 0.84,3.35 0.21,0.84 0.61,2.28 0.66,2.48 0.75,1.55 3.39,6.08 8.11,6.08 2.25,0 2.7,-1.84 2.7,-3.48 0,-1.25 -0.36,-2.64 -0.75,-4.14 l -1.39,-5.79 -1,-3.78 c -0.2,-1 -0.65,-2.68 -0.65,-2.93 0,-0.89 0.7,-1.35 1.45,-1.35 1.55,0 1.84,1.25 2.23,2.85 0.71,2.78 2.55,10.06 3,12 0.14,0.65 2.78,6.62 8.22,6.62 2.14,0 2.69,-1.69 2.69,-3.48 0,-2.85 -2.09,-8.52 -3.09,-11.16 -0.46,-1.2 -0.64,-1.75 -0.64,-2.75 0,-2.33 1.73,-4.08 4.07,-4.08 4.69,0 6.53,7.27 6.53,7.67 0,0.5 -0.45,0.5 -0.59,0.5 -0.5,0 -0.5,-0.15 -0.75,-0.9 -0.75,-2.64 -2.34,-6.17 -5.08,-6.17 -0.86,0 -1.2,0.5 -1.2,1.64 0,1.25 0.45,2.45 0.89,3.54 0.95,2.58 3.05,8.11 3.05,10.96 0,3.23 -2,5.32 -5.74,5.32 -3.73,0 -6.26,-2.18 -8.11,-4.82 -0.06,0.65 -0.2,2.34 -1.61,3.53 -1.23,1.04 -2.82,1.29 -4.07,1.29 -4.49,0 -6.93,-3.18 -7.77,-4.32 -0.25,2.84 -2.34,4.32 -4.59,4.32 -2.29,0 -3.24,-1.93 -3.69,-2.82 -0.89,-1.75 -1.55,-4.69 -1.55,-4.85 0,-0.5 0.5,-0.5 0.61,-0.5 0.5,0 0.55,0.07 0.84,1.16 0.85,3.53 1.85,5.92 3.65,5.92 0.79,0 1.54,-0.39 1.54,-2.28 0,-1.05 -0.15,-1.61 -0.79,-4.19 z"
           inkscape:connector-curvature="0"
           style="fill:#000000;stroke-width:0" /><path
           id="path3244"
           d="m 593.49,425.03 -0.08,0.17 -0.09,0.17 -0.09,0.16 -0.1,0.16 -0.1,0.16 -0.1,0.16 -0.11,0.15 -0.1,0.14 -0.12,0.15 -0.11,0.13 -0.12,0.14 -0.13,0.13 -0.13,0.12 -0.13,0.12 -0.13,0.11 -0.14,0.11 -0.15,0.11 -0.14,0.09 -0.16,0.1 -0.15,0.08 -0.16,0.08 -0.16,0.08 -0.17,0.06 -0.17,0.07 -0.18,0.05 -0.18,0.05 -0.19,0.04 -0.18,0.03 -0.2,0.03 -0.2,0.02 -0.2,0.01 -0.21,0 0.05,-1.09 c 3.24,0 3.94,-4.08 3.94,-4.37 0,-0.32 -0.1,-0.61 -0.14,-0.86 l -2.5,-9.77 c -0.25,-0.89 -0.25,-0.98 -1,-1.84 -2.19,-2.74 -4.24,-3.53 -5.63,-3.53 -2.48,0 -3.18,2.73 -3.18,4.68 0,2.49 1.59,8.61 2.73,10.91 1.55,2.94 3.8,4.78 5.78,4.78 l -0.05,1.09 c -5.82,0 -12,-7.31 -12,-14.59 0,-4.69 2.74,-7.97 6.63,-7.97 0.98,0 3.48,0.21 6.47,3.74 0.4,-2.1 2.14,-3.74 4.53,-3.74 1.75,0 2.89,1.14 3.69,2.74 0.84,1.79 1.5,4.84 1.5,4.93 0,0.5 -0.46,0.5 -0.6,0.5 -0.5,0 -0.54,-0.2 -0.7,-0.9 -0.84,-3.24 -1.75,-6.17 -3.78,-6.17 -1.35,0 -1.5,1.29 -1.5,2.29 0,1.1 0.09,1.49 0.64,3.69 0.56,2.09 0.66,2.59 1.11,4.48 l 1.78,6.97 c 0.36,1.39 0.36,1.5 0.36,1.69 0,0.86 -0.61,1.36 -1.45,1.36 -1.19,0 -1.94,-1.11 -2.1,-2.2 z"
           inkscape:connector-curvature="0"
           style="fill:#000000;stroke-width:0" /><path
           id="path3246"
           d="m 617.83,421.25 0.03,0.13 0.04,0.15 0.04,0.16 0.05,0.18 0.05,0.19 0.06,0.21 0.06,0.22 0.08,0.22 0.08,0.23 0.08,0.24 0.1,0.25 0.1,0.24 0.11,0.25 0.12,0.25 0.13,0.25 0.14,0.25 0.15,0.24 0.15,0.24 0.17,0.23 0.18,0.22 0.19,0.22 0.19,0.2 0.21,0.19 0.22,0.18 0.24,0.16 0.24,0.14 0.13,0.07 0.13,0.06 0.13,0.05 0.14,0.05 0.13,0.05 0.15,0.04 0.14,0.03 0.15,0.03 0.15,0.02 0.16,0.02 0.16,0.01 0.16,0 c 0.25,0 1.44,0 2.48,-0.64 -1.39,-0.25 -2.39,-1.5 -2.39,-2.69 0,-0.79 0.55,-1.75 1.89,-1.75 1.1,0 2.69,0.89 2.69,2.89 0,2.6 -2.94,3.28 -4.62,3.28 -2.89,0 -4.64,-2.64 -5.24,-3.78 -1.25,3.28 -3.93,3.78 -5.37,3.78 -5.19,0 -8.03,-6.42 -8.03,-7.67 0,-0.5 0.5,-0.5 0.6,-0.5 0.4,0 0.55,0.11 0.65,0.55 1.68,5.28 4.98,6.53 6.67,6.53 0.95,0 2.68,-0.44 2.68,-3.33 0,-1.54 -0.84,-4.89 -2.68,-11.86 -0.8,-3.09 -2.53,-5.18 -4.74,-5.18 -0.29,0 -1.43,0 -2.48,0.65 1.25,0.24 2.34,1.28 2.34,2.69 0,1.34 -1.09,1.73 -1.84,1.73 -1.5,0 -2.75,-1.29 -2.75,-2.89 0,-2.28 2.5,-3.28 4.69,-3.28 3.29,0 5.08,3.49 5.23,3.78 0.6,-1.84 2.39,-3.78 5.38,-3.78 5.14,0 7.98,6.42 7.98,7.67 0,0.5 -0.45,0.5 -0.61,0.5 -0.44,0 -0.55,-0.2 -0.64,-0.54 -1.64,-5.33 -5.03,-6.53 -6.63,-6.53 -1.95,0 -2.75,1.59 -2.75,3.29 0,1.1 0.3,2.19 0.87,4.38 z"
           inkscape:connector-curvature="0"
           style="fill:#000000;stroke-width:0" /><path
           id="path3248"
           d="m 493.65,386.85 0,0.05 0,0.05 0,0.05 0,0.06 0,0.11 -0.01,0.05 0,0.06 -0.01,0.05 0,0.06 -0.01,0.05 -0.01,0.06 -0.01,0.05 -0.02,0.06 -0.01,0.05 -0.02,0.05 -0.02,0.05 -0.03,0.05 -0.02,0.04 -0.03,0.05 -0.03,0.04 -0.04,0.04 -0.04,0.03 -0.02,0.02 -0.02,0.01 -0.02,0.02 -0.02,0.01 -0.03,0.02 -0.02,0.01 -0.03,0.01 -0.03,0.01 -0.02,0.01 -0.03,0.01 -0.03,0.01 -0.03,0.01 -0.04,0.01 -0.03,0 -0.03,0 -0.04,0.01 -0.04,0 -0.04,0 c -0.87,0 -0.87,-0.88 -0.87,-1.5 v -31.81 c 0,-0.64 0,-1.5 0.87,-1.5 0.83,0 0.83,0.79 0.83,1.31 z"
           inkscape:connector-curvature="0"
           style="fill:#000000;stroke-width:0" /><path
           id="path3250"
           d="m 501.36,386.68 -0.01,0.06 0,0.06 0,0.12 0,0.13 -0.01,0.13 0,0.06 -0.01,0.06 -0.01,0.07 -0.01,0.06 -0.01,0.06 -0.02,0.06 -0.02,0.06 -0.01,0.05 -0.03,0.06 -0.02,0.05 -0.03,0.05 -0.03,0.05 -0.03,0.05 -0.04,0.04 -0.04,0.04 -0.04,0.03 -0.03,0.02 -0.02,0.02 -0.03,0.01 -0.02,0.02 -0.03,0.01 -0.03,0.01 -0.03,0.01 -0.03,0.01 -0.03,0.01 -0.04,0.01 -0.03,0 -0.04,0.01 -0.03,0 -0.04,0.01 -0.04,0 -0.04,0 c -0.83,0 -0.83,-0.81 -0.83,-1.33 v -32.17 c 0,-0.52 0,-1.31 0.83,-1.31 0.88,0 0.88,0.86 0.88,1.5 z"
           inkscape:connector-curvature="0"
           style="fill:#000000;stroke-width:0" /><path
           id="path3252"
           d="m 525.49,374.7 0,0.12 -0.01,0.12 0,0.12 -0.01,0.11 -0.01,0.11 -0.01,0.11 -0.02,0.1 -0.01,0.1 -0.02,0.1 -0.02,0.09 -0.02,0.09 -0.02,0.08 -0.03,0.09 -0.02,0.07 -0.03,0.08 -0.03,0.08 -0.03,0.07 -0.03,0.06 -0.03,0.07 -0.04,0.06 -0.03,0.06 -0.03,0.06 -0.04,0.05 -0.04,0.05 -0.03,0.05 -0.04,0.05 -0.08,0.09 -0.08,0.07 -0.08,0.07 -0.08,0.07 -0.07,0.05 -0.08,0.05 -0.08,0.04 -0.07,0.03 -0.08,0.03 -0.07,0.03 -0.06,0.02 -0.06,0.01 -0.06,0.01 -0.05,0.01 -0.05,0.01 -0.03,0 -0.03,0 -0.03,0 -0.01,0.01 c -0.91,0 -1.88,-0.96 -1.88,-1.86 0,-0.58 0.35,-0.86 0.6,-1.08 0.59,-0.49 1.28,-1.39 1.28,-2.78 0,-1.57 -2.3,-9.07 -6.44,-9.07 -2.83,0 -2.83,2.52 -2.83,3.11 0,1.6 0.63,3.55 1.93,6.78 0.28,0.74 0.48,1.27 0.48,1.86 0,1.82 -1.53,2.99 -3.31,2.99 -3.49,0 -5.05,-4.77 -5.05,-5.33 0,-0.45 0.48,-0.45 0.59,-0.45 0.49,0 0.52,0.17 0.63,0.56 0.83,2.86 2.33,4.25 3.72,4.25 0.59,0 0.87,-0.39 0.87,-1.22 0,-0.8 -0.28,-1.53 -0.62,-2.33 -1.5,-3.87 -1.88,-5.37 -1.88,-6.62 0,-3.46 2.72,-4.56 5.36,-4.56 5.86,0 8.3,10.14 8.3,13 z"
           inkscape:connector-curvature="0"
           style="fill:#000000;stroke-width:0" /><path
           id="path3254"
           d="m 535.17,386.85 0,0.05 0,0.05 0,0.05 0,0.06 -0.01,0.11 0,0.05 0,0.06 -0.01,0.05 -0.01,0.06 -0.01,0.05 -0.01,0.06 -0.01,0.05 -0.01,0.06 -0.02,0.05 -0.02,0.05 -0.02,0.05 -0.02,0.05 -0.03,0.04 -0.02,0.05 -0.04,0.04 -0.03,0.04 -0.04,0.03 -0.02,0.02 -0.02,0.01 -0.02,0.02 -0.03,0.01 -0.02,0.02 -0.03,0.01 -0.02,0.01 -0.03,0.01 -0.03,0.01 -0.03,0.01 -0.03,0.01 -0.03,0.01 -0.03,0.01 -0.03,0 -0.04,0 -0.03,0.01 -0.04,0 -0.04,0 c -0.87,0 -0.87,-0.88 -0.87,-1.5 v -31.81 c 0,-0.64 0,-1.5 0.87,-1.5 0.83,0 0.83,0.79 0.83,1.31 z"
           inkscape:connector-curvature="0"
           style="fill:#000000;stroke-width:0" /><path
           id="path3256"
           d="m 542.87,386.68 0,0.06 0,0.06 0,0.12 0,0.13 -0.01,0.13 -0.01,0.06 -0.01,0.06 0,0.07 -0.02,0.06 -0.01,0.06 -0.01,0.06 -0.02,0.06 -0.02,0.05 -0.02,0.06 -0.02,0.05 -0.03,0.05 -0.03,0.05 -0.04,0.05 -0.03,0.04 -0.04,0.04 -0.05,0.03 -0.02,0.02 -0.03,0.02 -0.02,0.01 -0.03,0.02 -0.03,0.01 -0.02,0.01 -0.03,0.01 -0.04,0.01 -0.03,0.01 -0.03,0.01 -0.03,0 -0.04,0.01 -0.04,0 -0.03,0.01 -0.04,0 -0.04,0 c -0.83,0 -0.83,-0.81 -0.83,-1.33 v -32.17 c 0,-0.52 0,-1.31 0.83,-1.31 0.87,0 0.87,0.86 0.87,1.5 z"
           inkscape:connector-curvature="0"
           style="fill:#000000;stroke-width:0" /><path
           id="path3258"
           d="m 575.28,373.74 0.05,0 0.05,0 0.05,0 0.06,0 0.1,0.01 0.06,0 0.05,0.01 0.06,0 0.05,0.01 0.06,0.01 0.05,0.01 0.06,0.01 0.05,0.02 0.05,0.01 0.05,0.02 0.05,0.02 0.05,0.03 0.04,0.03 0.04,0.03 0.05,0.03 0.03,0.04 0.04,0.04 0.02,0.02 0.01,0.02 0.02,0.02 0.01,0.03 0.01,0.02 0.02,0.03 0.01,0.03 0.01,0.03 0.01,0.03 0.01,0.03 0.01,0.03 0,0.03 0.01,0.04 0,0.03 0.01,0.04 0,0.04 0,0.04 0,0.04 c 0,0.84 -0.82,0.84 -1.28,0.84 h -23.06 c -0.45,0 -1.3,0 -1.3,-0.84 0,-0.88 0.8,-0.88 1.33,-0.88 z"
           inkscape:connector-curvature="0"
           style="fill:#000000;stroke-width:0" /><path
           id="path3260"
           d="m 575.31,366.09 0.05,0 0.04,0 0.05,0 0.05,0 0.05,0 0.05,0 0.05,0 0.05,0.01 0.06,0 0.05,0.01 0.05,0.01 0.06,0.01 0.05,0.01 0.05,0.02 0.05,0.01 0.05,0.02 0.05,0.02 0.05,0.02 0.04,0.03 0.05,0.03 0.04,0.03 0.04,0.04 0.03,0.03 0.02,0.02 0.02,0.03 0.01,0.02 0.02,0.02 0.01,0.02 0.01,0.03 0.02,0.03 0.01,0.02 0.01,0.03 0.01,0.03 0.01,0.03 0,0.03 0.01,0.03 0,0.04 0.01,0.03 0,0.04 0,0.04 0,0.03 c 0,0.88 -0.79,0.88 -1.31,0.88 h -23 c -0.53,0 -1.33,0 -1.33,-0.88 0,-0.82 0.85,-0.82 1.3,-0.82 z"
           inkscape:connector-curvature="0"
           style="fill:#000000;stroke-width:0" /><path
           id="path3262"
           d="m 590.78,384.2 0,0.04 0,0.04 0,0.04 0,0.04 0,0.04 0,0.04 0,0.04 0,0.03 0,0.03 0,0.04 0,0.03 -0.01,0.03 0,0.03 0,0.03 -0.01,0.02 0,0.03 0,0.03 -0.01,0.02 0,0.02 -0.01,0.03 -0.01,0.04 -0.02,0.04 -0.01,0.03 -0.02,0.03 -0.02,0.03 -0.03,0.02 -0.03,0.03 -0.03,0.02 -0.03,0.01 -0.04,0.02 -0.04,0.01 -0.04,0.01 -0.03,0.01 -0.02,0 -0.03,0.01 -0.02,0 -0.03,0 -0.03,0.01 -0.03,0 -0.03,0 -0.03,0 -0.03,0 -0.04,0.01 -0.03,0 -0.04,0 -0.04,0 -0.04,0 -0.04,0 -0.04,0 -0.04,0 -0.05,0 -0.04,0 c -2.24,-2.2 -5.39,-2.23 -6.83,-2.23 v -1.25 c 0.84,0 3.14,0 5.05,0.96 V 364.9 c 0,-1.16 0,-1.61 -3.49,-1.61 h -1.31 v -1.25 c 0.62,0.03 4.91,0.14 6.2,0.14 1.08,0 5.47,-0.11 6.24,-0.14 v 1.25 h -1.33 c -3.49,0 -3.49,0.45 -3.49,1.61 z"
           inkscape:connector-curvature="0"
           style="fill:#000000;stroke-width:0" /><path
           id="path3264"
           d="m 680.79,424.73 0,0.12 0,0.13 -0.01,0.12 0,0.11 -0.01,0.12 -0.01,0.11 -0.01,0.11 -0.01,0.1 -0.04,0.21 -0.03,0.19 -0.05,0.18 -0.04,0.18 -0.06,0.16 -0.05,0.16 -0.07,0.15 -0.06,0.13 -0.07,0.13 -0.08,0.12 -0.08,0.12 -0.08,0.1 -0.08,0.1 -0.09,0.09 -0.08,0.08 -0.09,0.07 -0.09,0.07 -0.09,0.06 -0.09,0.05 -0.1,0.05 -0.09,0.04 -0.09,0.03 -0.09,0.03 -0.1,0.03 -0.09,0.01 -0.08,0.02 -0.09,0 -0.09,0 c -1.25,0 -2.43,-1.29 -2.43,-2.39 0,-0.64 0.25,-0.93 0.8,-1.48 1.04,-1 1.68,-2.3 1.68,-4.09 0,-2.1 -3.03,-13.5 -8.86,-13.5 -2.54,0 -3.69,1.75 -3.69,4.32 0,2.8 1.35,6.44 2.9,10.57 0.34,0.86 0.59,1.54 0.59,2.5 0,2.23 -1.59,4.07 -4.09,4.07 -4.68,0 -6.58,-7.21 -6.58,-7.67 0,-0.5 0.5,-0.5 0.61,-0.5 0.5,0 0.54,0.11 0.79,0.91 1.44,5.03 3.58,6.17 5.03,6.17 0.4,0 1.25,0 1.25,-1.59 0,-1.25 -0.5,-2.6 -0.85,-3.49 -2.19,-5.78 -2.83,-8.08 -2.83,-10.22 0,-5.37 4.37,-6.17 6.67,-6.17 8.38,0 11.2,16.49 11.2,19.08 z"
           inkscape:connector-curvature="0"
           style="fill:#000000;stroke-width:0" /><path
           id="path3266"
           d="m 700.34,445.28 0.01,0.04 0.01,0.05 0.01,0.04 0.01,0.05 0.01,0.04 0.01,0.04 0.01,0.04 0.01,0.04 0.02,0.07 0.02,0.07 0.02,0.06 0.02,0.06 0.02,0.06 0.02,0.05 0.02,0.05 0.02,0.04 0.02,0.04 0.02,0.04 0.03,0.04 0.03,0.03 0.02,0.03 0.03,0.02 0.03,0.03 0.04,0.02 0.03,0.02 0.04,0.02 0.04,0.01 0.05,0.02 0.04,0.01 0.05,0.01 0.05,0.01 0.06,0.01 0.06,0.01 0.06,0 0.06,0.01 0.07,0 c 0.18,0.04 1.39,0.04 2.1,0.04 2.12,0 3.03,0 3.89,-0.29 1.58,-0.48 1.64,-1.5 1.64,-2.75 0,-0.54 0,-1 -0.24,-2.81 l -0.07,-0.39 c 0,-0.34 0.25,-0.51 0.59,-0.51 0.53,0 0.59,0.31 0.67,0.86 l 0.94,6.65 c 0,0.5 -0.42,0.5 -1.05,0.5 h -21.43 c -0.86,0 -0.94,0 -1.18,-0.73 l -2.2,-6.17 c -0.03,-0.15 -0.17,-0.46 -0.17,-0.63 0,-0.14 0.06,-0.48 0.59,-0.48 0.46,0 0.52,0.17 0.74,0.82 2.01,5.58 3.17,5.93 8.47,5.93 h 1.45 c 1.05,0 1.08,-0.04 1.08,-0.35 0,-0.03 0,-0.2 -0.14,-0.73 l -4.6,-18.33 c -0.31,-1.28 -0.42,-1.64 -4.08,-1.64 -1.25,0 -1.56,0 -1.56,-0.77 0,-0.09 0.06,-0.48 0.6,-0.48 0.96,0 2.01,0.11 2.98,0.11 0.98,0 2.03,0.03 3,0.03 0.98,0 2.17,0 3.14,-0.03 0.94,-0.05 1.98,-0.11 2.92,-0.11 0.28,0 0.81,0 0.81,0.76 0,0.49 -0.35,0.49 -1.43,0.49 -0.66,0 -1.36,0.05 -2.02,0.08 -1.19,0.09 -1.25,0.23 -1.25,0.65 0,0.25 0,0.32 0.13,0.8 z"
           inkscape:connector-curvature="0"
           style="fill:#000000;stroke-width:0" /><path
           id="path3268"
           d="M 744.09,416.91 726.4,395.05 c -0.39,-0.5 -0.43,-0.61 -0.43,-0.8 0,-0.56 0.43,-0.56 1.34,-0.56 h 41.29 l 4.29,12.41 h -1.24 c -1.25,-3.74 -4.59,-6.77 -8.83,-8.22 -0.79,-0.25 -4.23,-1.44 -11.54,-1.44 h -21.19 l 17.3,21.38 c 0.34,0.43 0.45,0.59 0.45,0.79 0,0.19 -0.06,0.25 -0.36,0.69 l -16.19,22.22 h 19.74 c 5.67,0 17.12,-0.34 20.62,-9.66 h 1.24 l -4.29,11.66 h -41.29 c -1.34,0 -1.39,-0.05 -1.39,-1.59 z"
           inkscape:connector-curvature="0"
           style="fill:#000000;stroke-width:0" /><path
           id="path3270"
           d="m 807.27,424.73 0,0.12 0,0.13 -0.01,0.12 0,0.11 -0.01,0.12 -0.01,0.11 -0.01,0.11 -0.01,0.1 -0.04,0.21 -0.03,0.19 -0.05,0.18 -0.04,0.18 -0.06,0.16 -0.05,0.16 -0.07,0.15 -0.06,0.13 -0.07,0.13 -0.08,0.12 -0.08,0.12 -0.08,0.1 -0.08,0.1 -0.08,0.09 -0.09,0.08 -0.09,0.07 -0.09,0.07 -0.09,0.06 -0.09,0.05 -0.1,0.05 -0.09,0.04 -0.09,0.03 -0.09,0.03 -0.09,0.03 -0.09,0.01 -0.09,0.02 -0.09,0 -0.08,0 c -1.25,0 -2.44,-1.29 -2.44,-2.39 0,-0.64 0.25,-0.93 0.8,-1.48 1.04,-1 1.68,-2.3 1.68,-4.09 0,-2.1 -3.03,-13.5 -8.86,-13.5 -2.54,0 -3.68,1.75 -3.68,4.32 0,2.8 1.34,6.44 2.89,10.57 0.34,0.86 0.59,1.54 0.59,2.5 0,2.23 -1.59,4.07 -4.09,4.07 -4.68,0 -6.58,-7.21 -6.58,-7.67 0,-0.5 0.5,-0.5 0.61,-0.5 0.5,0 0.54,0.11 0.79,0.91 1.44,5.03 3.58,6.17 5.04,6.17 0.39,0 1.25,0 1.25,-1.59 0,-1.25 -0.5,-2.6 -0.86,-3.49 -2.19,-5.78 -2.83,-8.08 -2.83,-10.22 0,-5.37 4.37,-6.17 6.67,-6.17 8.38,0 11.2,16.49 11.2,19.08 z"
           inkscape:connector-curvature="0"
           style="fill:#000000;stroke-width:0" /></g>    </g>
  </g>
</svg>
