<?xml version="1.0" encoding="UTF-8" standalone="no"?>
<!-- Created with Inkscape (http://www.inkscape.org/) -->

<svg
   xmlns:dc="http://purl.org/dc/elements/1.1/"
   xmlns:cc="http://creativecommons.org/ns#"
   xmlns:rdf="http://www.w3.org/1999/02/22-rdf-syntax-ns#"
   xmlns:svg="http://www.w3.org/2000/svg"
   xmlns="http://www.w3.org/2000/svg"
   xmlns:sodipodi="http://sodipodi.sourceforge.net/DTD/sodipodi-0.dtd"
   xmlns:inkscape="http://www.inkscape.org/namespaces/inkscape"
   width="134.95024"
   height="23.81842"
   id="svg4924"
   version="1.1"
   inkscape:version="0.48.4 r9939"
   sodipodi:docname="New document 15">
  <sodipodi:namedview
     id="base"
     pagecolor="#ffffff"
     bordercolor="#666666"
     borderopacity="1.0"
     inkscape:pageopacity="0.0"
     inkscape:pageshadow="2"
     inkscape:zoom="2.0146343"
     inkscape:cx="207.1996"
     inkscape:cy="32.010034"
     inkscape:document-units="px"
     inkscape:current-layer="layer1"
     showgrid="false"
     inkscape:window-width="963"
     inkscape:window-height="628"
     inkscape:window-x="0"
     inkscape:window-y="231"
     inkscape:window-maximized="0"
     fit-margin-top="0"
     fit-margin-left="0"
     fit-margin-right="0"
     fit-margin-bottom="0" />
  <defs
     id="defs4926" />
  <metadata
     id="metadata4929">
    <rdf:RDF>
      <cc:Work
         rdf:about="">
        <dc:format>image/svg+xml</dc:format>
        <dc:type
           rdf:resource="http://purl.org/dc/dcmitype/StillImage" />
        <dc:title></dc:title>
      </cc:Work>
    </rdf:RDF>
  </metadata>
  <g
     id="layer1"
     inkscape:groupmode="layer"
     inkscape:label="Layer 1"
     transform="translate(-299.59852,-352.28549)">
    <g
       id="g4937"
       transform="matrix(0.32559929,0,0,0.37170693,202.06054,236.29262)">
      <g
         word-spacing="normal"
         letter-spacing="normal"
         font-size-adjust="none"
         font-stretch="normal"
         font-weight="normal"
         font-variant="normal"
         font-style="normal"
         stroke-miterlimit="10.433"
         xml:space="preserve"
         transform="matrix(1.0629921,0,0,-1.0629921,-186.02362,789.27165)"
         id="content"
         style="font-style:normal;font-variant:normal;font-weight:normal;font-stretch:normal;letter-spacing:normal;word-spacing:normal;text-anchor:start;fill:none;stroke:#000000;stroke-linecap:butt;stroke-linejoin:miter;stroke-miterlimit:10.43299961;stroke-opacity:1;stroke-dasharray:none;stroke-dashoffset:0"><polygon
           id="polygon4940"
           points="475.52,446.64 493.5,446.64 493.5,448.19 475.52,448.19 "
           style="fill:#000000;stroke-width:0" /><path
           id="path4942"
           d="m 479.68,426.68 -4.18,9.91 c -0.15,0.41 -0.25,0.59 -0.25,0.64 0,0.31 0.85,1.25 2.94,1.45 0.5,0.05 1,0.1 1,0.96 0,0.59 -0.61,0.59 -0.75,0.59 -2.05,0 -4.19,-0.16 -6.28,-0.16 -1.25,0 -4.33,0.16 -5.58,0.16 -0.29,0 -0.9,0 -0.9,-1 0,-0.55 0.5,-0.55 1.15,-0.55 2.99,0 3.28,-0.5 3.74,-1.59 l 5.87,-13.91 -10.51,-11.31 -0.64,-0.55 c -2.44,-2.64 -4.79,-3.43 -7.33,-3.57 -0.64,-0.05 -1.1,-0.05 -1.1,-1 0,-0.05 0,-0.55 0.66,-0.55 1.48,0 3.12,0.16 4.67,0.16 1.85,0 3.8,-0.16 5.58,-0.16 0.31,0 0.91,0 0.91,1 0,0.5 -0.5,0.55 -0.6,0.55 -0.45,0.04 -2,0.14 -2,1.54 0,0.8 0.75,1.6 1.35,2.24 l 5.07,5.39 4.49,4.87 5.03,-11.9 c 0.2,-0.55 0.25,-0.6 0.25,-0.71 0,-0.39 -0.94,-1.23 -2.89,-1.43 -0.55,-0.05 -0.99,-0.11 -0.99,-0.96 0,-0.59 0.55,-0.59 0.74,-0.59 1.41,0 4.89,0.16 6.28,0.16 1.25,0 4.28,-0.16 5.53,-0.16 0.35,0 0.95,0 0.95,0.95 0,0.6 -0.5,0.6 -0.9,0.6 -3.33,0.04 -3.44,0.2 -4.28,2.18 -1.94,4.64 -5.28,12.41 -6.42,15.39 3.39,3.5 8.6,9.43 10.2,10.82 1.45,1.2 3.34,2.39 6.33,2.54 0.65,0.05 1.09,0.05 1.09,1 0,0.05 0,0.55 -0.64,0.55 -1.5,0 -3.14,-0.16 -4.69,-0.16 -1.84,0 -3.73,0.16 -5.53,0.16 -0.3,0 -0.94,0 -0.94,-1 0,-0.34 0.25,-0.5 0.6,-0.55 0.45,-0.04 2,-0.15 2,-1.54 0,-0.71 -0.55,-1.35 -0.96,-1.8 z"
           inkscape:connector-curvature="0"
           style="fill:#000000;stroke-width:0" /><path
           id="path4944"
           d="m 508.1,420.54 0,0.05 -0.01,0.06 0,0.05 -0.01,0.06 -0.01,0.05 -0.02,0.06 -0.01,0.05 -0.02,0.06 -0.03,0.06 -0.02,0.05 -0.03,0.06 -0.03,0.05 -0.03,0.06 -0.04,0.05 -0.03,0.05 -0.05,0.05 -0.04,0.05 -0.05,0.05 -0.05,0.04 -0.05,0.05 -0.06,0.04 -0.06,0.03 -0.06,0.04 -0.06,0.03 -0.07,0.03 -0.07,0.03 -0.08,0.02 -0.08,0.02 -0.08,0.01 -0.08,0.01 -0.09,0.01 -0.09,0 c -0.94,0 -1.95,-0.91 -1.95,-1.92 0,-0.59 0.45,-1.33 1.4,-1.33 1,0 1.96,0.99 1.96,1.92 z"
           inkscape:connector-curvature="0"
           style="fill:#000000;stroke-width:0" /><path
           id="path4946"
           d="m 500.99,402.84 -0.06,-0.17 -0.05,-0.17 -0.03,-0.08 -0.02,-0.09 -0.03,-0.08 -0.02,-0.09 -0.02,-0.09 -0.02,-0.09 -0.02,-0.1 -0.01,-0.09 -0.02,-0.1 0,-0.05 -0.01,-0.05 0,-0.06 0,-0.05 0,-0.05 0,-0.06 c 0,-1.64 1.39,-2.95 3.29,-2.95 3.49,0 5.03,4.79 5.03,5.33 0,0.45 -0.45,0.45 -0.56,0.45 -0.48,0 -0.53,-0.2 -0.67,-0.59 -0.8,-2.79 -2.33,-4.22 -3.69,-4.22 -0.7,0 -0.87,0.45 -0.87,1.22 0,0.79 0.25,1.46 0.56,2.23 0.34,0.94 0.73,1.87 1.11,2.78 0.31,0.84 1.58,4.02 1.72,4.44 0.09,0.34 0.2,0.76 0.2,1.11 0,1.64 -1.39,2.95 -3.31,2.95 -3.45,0 -5.05,-4.73 -5.05,-5.33 0,-0.45 0.49,-0.45 0.6,-0.45 0.48,0 0.51,0.17 0.62,0.56 0.91,3 2.44,4.25 3.72,4.25 0.56,0 0.87,-0.28 0.87,-1.22 0,-0.79 -0.2,-1.32 -1.07,-3.48 z"
           inkscape:connector-curvature="0"
           style="fill:#000000;stroke-width:0" /><path
           id="path4948"
           d="m 561.52,422.5 0.14,0 0.14,0 0.14,0 0.08,0.01 0.07,0 0.07,0.01 0.07,0.01 0.07,0.01 0.07,0.01 0.07,0.01 0.07,0.02 0.06,0.02 0.06,0.02 0.07,0.02 0.05,0.03 0.06,0.03 0.05,0.04 0.05,0.03 0.05,0.05 0.04,0.04 0.04,0.05 0.02,0.03 0.02,0.03 0.01,0.02 0.02,0.03 0.01,0.03 0.02,0.04 0.01,0.03 0.01,0.04 0.01,0.03 0.01,0.04 0.01,0.04 0,0.04 0.01,0.04 0,0.04 0,0.04 0,0.05 c 0,1 -0.95,1 -1.64,1 h -29.84 c -0.7,0 -1.64,0 -1.64,-1 0,-0.98 0.94,-0.98 1.69,-0.98 z"
           inkscape:connector-curvature="0"
           style="fill:#000000;stroke-width:0" /><path
           id="path4950"
           d="m 561.56,412.82 0.07,0 0.06,0 0.14,0.01 0.14,0 0.07,0 0.07,0.01 0.07,0.01 0.07,0 0.07,0.01 0.06,0.02 0.07,0.01 0.07,0.02 0.06,0.02 0.06,0.02 0.06,0.02 0.06,0.03 0.05,0.03 0.06,0.04 0.04,0.04 0.05,0.04 0.04,0.05 0.02,0.02 0.02,0.03 0.02,0.02 0.02,0.03 0.02,0.03 0.01,0.03 0.01,0.03 0.02,0.03 0.01,0.04 0.01,0.03 0.01,0.04 0.01,0.04 0.01,0.04 0,0.04 0.01,0.04 0,0.04 0,0.05 0,0.04 c 0,1 -0.95,1 -1.68,1 h -29.75 c -0.75,0 -1.69,0 -1.69,-1 0,-1 0.94,-1 1.64,-1 z"
           inkscape:connector-curvature="0"
           style="fill:#000000;stroke-width:0" /><path
           id="path4952"
           d="m 605.19,447.92 0,0.04 0,0.04 0,0.05 0,0.04 0,0.03 0,0.04 0,0.04 0,0.03 -0.01,0.04 0,0.03 0,0.03 0,0.03 0,0.03 -0.01,0.03 0,0.03 0,0.02 -0.01,0.03 0,0.02 -0.01,0.03 0,0.02 -0.02,0.04 -0.01,0.04 -0.02,0.03 -0.02,0.03 -0.02,0.03 -0.02,0.03 -0.03,0.02 -0.03,0.02 -0.03,0.02 -0.04,0.01 -0.04,0.01 -0.05,0.02 -0.02,0 -0.02,0 -0.03,0.01 -0.03,0 -0.02,0.01 -0.03,0 -0.03,0 -0.03,0 -0.03,0 -0.04,0.01 -0.03,0 -0.04,0 -0.03,0 -0.04,0 -0.04,0 -0.04,0 -0.04,0 -0.05,0 -0.04,0 -0.04,0 c -2.24,-2.2 -5.4,-2.23 -6.83,-2.23 v -1.25 c 0.84,0 3.14,0 5.04,0.97 v -17.77 c 0,-1.16 0,-1.61 -3.48,-1.61 h -1.31 v -1.25 c 0.62,0.03 4.9,0.14 6.2,0.14 1.08,0 5.47,-0.11 6.23,-0.14 v 1.25 h -1.32 c -3.49,0 -3.49,0.45 -3.49,1.61 z"
           inkscape:connector-curvature="0"
           style="fill:#000000;stroke-width:0" /><polyline
           id="polyline4954"
           points="586,418 621.4,418 621.4,420.04 586,420.04 "
           style="fill:#000000;fill-rule:nonzero;stroke-width:0" /><path
           id="path4956"
           d="m 600.97,391.87 -0.02,-0.07 -0.02,-0.07 -0.02,-0.07 -0.02,-0.08 -0.01,-0.07 -0.02,-0.08 -0.04,-0.16 -0.04,-0.16 -0.04,-0.16 -0.04,-0.16 -0.02,-0.08 -0.02,-0.07 -0.02,-0.08 -0.02,-0.07 -0.02,-0.07 -0.01,-0.07 -0.02,-0.07 -0.01,-0.06 -0.02,-0.06 -0.01,-0.06 -0.01,-0.05 -0.01,-0.05 -0.01,-0.05 -0.01,-0.04 0,-0.03 -0.01,-0.03 0,-0.03 0,-0.02 c 0,-0.76 0.62,-1.1 1.17,-1.1 0.64,0 1.19,0.45 1.36,0.76 0.19,0.31 0.46,1.42 0.64,2.16 0.17,0.65 0.55,2.26 0.77,3.14 0.2,0.76 0.4,1.53 0.59,2.33 0.38,1.5 0.38,1.56 1.08,2.65 1.11,1.71 2.86,3.69 5.56,3.69 1.95,0 2.07,-1.61 2.07,-2.44 0,-2.09 -1.5,-5.95 -2.07,-7.42 -0.37,-0.98 -0.51,-1.3 -0.51,-1.89 0,-1.84 1.53,-2.98 3.31,-2.98 3.48,0 5.02,4.79 5.02,5.32 0,0.46 -0.46,0.46 -0.57,0.46 -0.48,0 -0.51,-0.21 -0.65,-0.6 -0.8,-2.78 -2.3,-4.22 -3.69,-4.22 -0.74,0 -0.88,0.49 -0.88,1.22 0,0.8 0.17,1.25 0.8,2.83 0.42,1.08 1.84,4.77 1.84,6.72 0,0.56 0,2.03 -1.28,3.03 -0.59,0.45 -1.61,0.94 -3.25,0.94 -3.12,0 -5.04,-2.05 -6.15,-3.52 -0.29,2.97 -2.77,3.52 -4.54,3.52 -2.88,0 -4.84,-1.77 -5.88,-3.16 -0.25,2.39 -2.3,3.16 -3.74,3.16 -1.5,0 -2.3,-1.08 -2.75,-1.88 -0.76,-1.28 -1.25,-3.28 -1.25,-3.45 0,-0.45 0.49,-0.45 0.59,-0.45 0.49,0 0.52,0.11 0.77,1.04 0.51,2.07 1.19,3.77 2.55,3.77 0.9,0 1.14,-0.77 1.14,-1.7 0,-0.68 -0.31,-1.96 -0.56,-2.89 -0.24,-0.96 -0.58,-2.38 -0.77,-3.14 l -1.11,-4.47 c -0.14,-0.44 -0.34,-1.32 -0.34,-1.43 0,-0.76 0.62,-1.1 1.18,-1.1 0.63,0 1.17,0.45 1.36,0.76 0.18,0.31 0.46,1.42 0.63,2.16 0.17,0.65 0.55,2.26 0.76,3.14 0.21,0.76 0.42,1.53 0.6,2.33 0.37,1.43 0.45,1.7 1.45,3.14 0.99,1.39 2.62,3.2 5.24,3.2 2.01,0 2.04,-1.78 2.04,-2.44 0,-0.87 -0.09,-1.33 -0.59,-3.28 z"
           inkscape:connector-curvature="0"
           style="fill:#000000;stroke-width:0" /><path
           id="path4958"
           d="m 656.37,416.91 -17.69,-21.86 c -0.39,-0.5 -0.44,-0.61 -0.44,-0.8 0,-0.56 0.44,-0.56 1.35,-0.56 h 41.29 l 4.28,12.41 h -1.23 c -1.25,-3.74 -4.59,-6.77 -8.83,-8.22 -0.8,-0.25 -4.23,-1.44 -11.55,-1.44 h -21.18 l 17.29,21.38 c 0.35,0.43 0.46,0.59 0.46,0.79 0,0.19 -0.07,0.25 -0.36,0.69 l -16.19,22.22 h 19.73 c 5.68,0 17.13,-0.34 20.63,-9.66 h 1.23 l -4.28,11.66 h -41.29 c -1.35,0 -1.39,-0.05 -1.39,-1.59 z"
           inkscape:connector-curvature="0"
           style="fill:#000000;stroke-width:0" /><path
           id="path4960"
           d="m 703.09,434.11 -0.02,-0.07 -0.02,-0.07 -0.02,-0.07 -0.01,-0.07 -0.02,-0.08 -0.02,-0.08 -0.04,-0.16 -0.04,-0.16 -0.04,-0.16 -0.04,-0.16 -0.02,-0.07 -0.02,-0.08 -0.02,-0.08 -0.02,-0.07 -0.01,-0.07 -0.02,-0.07 -0.02,-0.07 -0.01,-0.06 -0.01,-0.06 -0.02,-0.06 -0.01,-0.05 -0.01,-0.05 -0.01,-0.04 0,-0.04 -0.01,-0.04 0,-0.03 -0.01,-0.02 0,-0.02 c 0,-0.77 0.63,-1.11 1.17,-1.11 0.64,0 1.19,0.45 1.36,0.76 0.19,0.32 0.46,1.42 0.64,2.16 0.18,0.66 0.55,2.26 0.77,3.14 0.2,0.77 0.41,1.53 0.59,2.33 0.38,1.5 0.38,1.56 1.08,2.65 1.11,1.71 2.86,3.69 5.56,3.69 1.96,0 2.07,-1.61 2.07,-2.44 0,-2.09 -1.5,-5.95 -2.07,-7.42 -0.37,-0.98 -0.51,-1.29 -0.51,-1.89 0,-1.84 1.53,-2.98 3.31,-2.98 3.48,0 5.02,4.79 5.02,5.33 0,0.45 -0.46,0.45 -0.57,0.45 -0.48,0 -0.51,-0.2 -0.65,-0.6 -0.8,-2.78 -2.3,-4.21 -3.69,-4.21 -0.73,0 -0.88,0.48 -0.88,1.21 0,0.8 0.18,1.26 0.8,2.83 0.42,1.08 1.85,4.77 1.85,6.72 0,0.56 0,2.03 -1.29,3.03 -0.59,0.46 -1.61,0.94 -3.25,0.94 -3.12,0 -5.04,-2.05 -6.15,-3.52 -0.28,2.97 -2.77,3.52 -4.53,3.52 -2.89,0 -4.85,-1.76 -5.89,-3.16 -0.25,2.4 -2.3,3.16 -3.74,3.16 -1.5,0 -2.3,-1.08 -2.75,-1.87 -0.76,-1.29 -1.25,-3.29 -1.25,-3.46 0,-0.45 0.49,-0.45 0.6,-0.45 0.48,0 0.51,0.11 0.76,1.05 0.52,2.06 1.19,3.76 2.55,3.76 0.9,0 1.14,-0.76 1.14,-1.7 0,-0.67 -0.31,-1.95 -0.56,-2.89 -0.24,-0.96 -0.58,-2.38 -0.77,-3.14 l -1.11,-4.47 c -0.14,-0.44 -0.34,-1.31 -0.34,-1.42 0,-0.77 0.62,-1.11 1.18,-1.11 0.63,0 1.18,0.45 1.36,0.76 0.18,0.32 0.46,1.42 0.63,2.16 0.17,0.66 0.55,2.26 0.76,3.14 0.21,0.77 0.43,1.53 0.6,2.33 0.37,1.44 0.45,1.7 1.45,3.14 0.99,1.39 2.63,3.2 5.24,3.2 2.01,0 2.04,-1.78 2.04,-2.44 0,-0.87 -0.09,-1.32 -0.59,-3.28 z"
           inkscape:connector-curvature="0"
           style="fill:#000000;stroke-width:0" /><path
           id="path4962"
           d="m 698.87,414.34 0,0 0,0.01 0,0 0,0.01 0.01,0 0,0.01 0,0 0,0.01 0,0.01 0.01,0 0,0.02 0.01,0.02 0,0.02 0.01,0.02 0,0.02 0.01,0.02 0.01,0.02 0,0.02 0.01,0.03 0.01,0.04 0.01,0.05 0.01,0.02 0,0.03 0.01,0.02 0,0.02 0.01,0.02 0,0.02 0,0.01 0.01,0.02 0,0.01 0,0 0,0.01 0,0.01 0,0 0.01,0.01 0,0 0,0.01 0,0 0,0 0,0.01 0,0 c 0,0.18 -0.14,0.5 -0.56,0.5 -0.69,0 -3.58,-0.28 -4.46,-0.36 -0.28,-0.03 -0.76,-0.07 -0.76,-0.8 0,-0.48 0.48,-0.48 0.9,-0.48 1.67,0 1.67,-0.25 1.67,-0.54 0,-0.23 -0.07,-0.45 -0.14,-0.76 l -4.92,-19.72 c -0.17,-0.62 -0.17,-0.69 -0.17,-0.77 0,-0.51 0.42,-1.1 1.19,-1.1 0.94,0 1.39,0.68 1.61,1.45 0.06,0.14 1.56,6.28 1.7,6.76 2.47,-0.25 4.45,-1.04 4.45,-2.86 0,-0.17 0,-0.34 -0.06,-0.68 -0.14,-0.53 -0.14,-0.71 -0.14,-1.1 0,-2.47 2.02,-3.57 3.69,-3.57 3.39,0 4.44,5.29 4.44,5.32 0,0.46 -0.46,0.46 -0.57,0.46 -0.48,0 -0.53,-0.18 -0.7,-0.85 -0.41,-1.5 -1.36,-3.97 -3.06,-3.97 -0.94,0 -1.22,0.88 -1.22,1.82 0,0.59 0,0.65 0.2,1.56 0.05,0.11 0.19,0.7 0.19,1.09 0,3.1 -4.19,3.58 -5.66,3.69 1.02,0.63 2.3,1.78 2.89,2.3 1.78,1.67 3.53,3.31 5.47,3.31 0.42,0 0.88,-0.11 1.16,-0.45 -1.5,-0.25 -1.81,-1.43 -1.81,-1.96 0,-0.76 0.59,-1.28 1.39,-1.28 0.95,0 1.98,0.77 1.98,2.22 0,1.16 -0.83,2.44 -2.67,2.44 -1.99,0 -3.8,-1.42 -5.58,-3.06 -1.47,-1.39 -2.61,-2.47 -4.05,-3.07 z"
           inkscape:connector-curvature="0"
           style="fill:#000000;stroke-width:0" /><path
           id="path4964"
           d="m 736.68,402.9 0.05,0 0.05,0 0.06,0 0.05,0 0.11,0.01 0.05,0 0.06,0.01 0.05,0 0.06,0.01 0.05,0.01 0.06,0.01 0.05,0.01 0.05,0.02 0.05,0.01 0.05,0.02 0.05,0.02 0.05,0.03 0.04,0.03 0.05,0.03 0.04,0.03 0.04,0.04 0.03,0.04 0.02,0.02 0.01,0.02 0.02,0.02 0.01,0.03 0.02,0.02 0.01,0.03 0.01,0.03 0.01,0.03 0.01,0.03 0.01,0.03 0.01,0.03 0.01,0.03 0,0.04 0.01,0.03 0,0.04 0,0.04 0.01,0.04 0,0.04 c 0,0.84 -0.83,0.84 -1.28,0.84 h -23.07 c -0.45,0 -1.3,0 -1.3,-0.84 0,-0.88 0.8,-0.88 1.33,-0.88 z"
           inkscape:connector-curvature="0"
           style="fill:#000000;stroke-width:0" /><path
           id="path4966"
           d="m 736.72,395.25 0.04,0 0.04,0 0.05,0 0.05,0 0.05,0 0.05,0 0.05,0 0.06,0.01 0.05,0 0.05,0.01 0.06,0.01 0.05,0.01 0.05,0.01 0.05,0.02 0.06,0.01 0.05,0.02 0.04,0.02 0.05,0.02 0.05,0.03 0.04,0.03 0.04,0.03 0.04,0.04 0.04,0.03 0.01,0.02 0.02,0.03 0.02,0.02 0.01,0.02 0.01,0.02 0.02,0.03 0.01,0.03 0.01,0.02 0.01,0.03 0.01,0.03 0.01,0.03 0.01,0.03 0,0.03 0.01,0.04 0,0.03 0,0.04 0.01,0.04 0,0.03 c 0,0.88 -0.8,0.88 -1.32,0.88 h -23 c -0.53,0 -1.33,0 -1.33,-0.88 0,-0.82 0.85,-0.82 1.3,-0.82 z"
           inkscape:connector-curvature="0"
           style="fill:#000000;stroke-width:0" /><path
           id="path4968"
           d="m 752.19,413.36 0,0.04 0,0.04 0,0.04 0,0.04 0,0.04 0,0.04 -0.01,0.04 0,0.03 0,0.04 0,0.03 0,0.03 0,0.03 -0.01,0.03 0,0.03 0,0.03 -0.01,0.02 0,0.03 -0.01,0.02 0,0.02 -0.01,0.03 -0.01,0.04 -0.01,0.04 -0.02,0.03 -0.02,0.03 -0.02,0.03 -0.03,0.03 -0.02,0.02 -0.03,0.02 -0.04,0.01 -0.04,0.02 -0.04,0.01 -0.04,0.01 -0.05,0.01 -0.02,0.01 -0.03,0 -0.03,0 -0.03,0.01 -0.03,0 -0.03,0 -0.03,0 -0.03,0 -0.04,0.01 -0.03,0 -0.04,0 -0.04,0 -0.03,0 -0.05,0 -0.04,0 -0.04,0 -0.04,0 -0.05,0 c -2.23,-2.2 -5.39,-2.23 -6.83,-2.23 v -1.25 c 0.85,0 3.14,0 5.05,0.96 v -17.76 c 0,-1.16 0,-1.61 -3.48,-1.61 h -1.32 v -1.25 c 0.63,0.03 4.91,0.14 6.21,0.14 1.07,0 5.46,-0.11 6.23,-0.14 v 1.25 h -1.33 c -3.48,0 -3.48,0.45 -3.48,1.61 z"
           inkscape:connector-curvature="0"
           style="fill:#000000;stroke-width:0" /><path
           id="path4970"
           d="m 795.4,426.68 -4.18,9.91 c -0.15,0.41 -0.25,0.59 -0.25,0.64 0,0.31 0.85,1.25 2.94,1.45 0.5,0.05 1,0.1 1,0.96 0,0.59 -0.61,0.59 -0.75,0.59 -2.05,0 -4.19,-0.16 -6.28,-0.16 -1.25,0 -4.33,0.16 -5.58,0.16 -0.3,0 -0.9,0 -0.9,-1 0,-0.55 0.5,-0.55 1.15,-0.55 2.98,0 3.28,-0.5 3.73,-1.59 l 5.88,-13.91 -10.51,-11.31 -0.65,-0.55 c -2.43,-2.64 -4.78,-3.43 -7.32,-3.57 -0.65,-0.05 -1.1,-0.05 -1.1,-1 0,-0.05 0,-0.55 0.66,-0.55 1.48,0 3.12,0.16 4.67,0.16 1.84,0 3.8,-0.16 5.58,-0.16 0.31,0 0.91,0 0.91,1 0,0.5 -0.5,0.55 -0.6,0.55 -0.45,0.04 -2,0.14 -2,1.54 0,0.8 0.75,1.6 1.35,2.24 l 5.07,5.39 4.49,4.87 5.03,-11.9 c 0.2,-0.55 0.25,-0.6 0.25,-0.71 0,-0.39 -0.94,-1.23 -2.89,-1.43 -0.55,-0.05 -0.99,-0.11 -0.99,-0.96 0,-0.59 0.55,-0.59 0.74,-0.59 1.4,0 4.89,0.16 6.28,0.16 1.25,0 4.28,-0.16 5.53,-0.16 0.34,0 0.95,0 0.95,0.95 0,0.6 -0.5,0.6 -0.9,0.6 -3.33,0.04 -3.44,0.2 -4.28,2.18 -1.94,4.64 -5.28,12.41 -6.43,15.39 3.4,3.5 8.61,9.43 10.21,10.82 1.45,1.2 3.34,2.39 6.32,2.54 0.66,0.05 1.1,0.05 1.1,1 0,0.05 0,0.55 -0.64,0.55 -1.5,0 -3.14,-0.16 -4.69,-0.16 -1.84,0 -3.73,0.16 -5.53,0.16 -0.3,0 -0.94,0 -0.94,-1 0,-0.34 0.25,-0.5 0.6,-0.55 0.45,-0.04 2,-0.15 2,-1.54 0,-0.71 -0.55,-1.35 -0.96,-1.8 z"
           inkscape:connector-curvature="0"
           style="fill:#000000;stroke-width:0" /><path
           id="path4972"
           d="m 823.43,421.9 0,0.01 0,0 0,0 0,0.01 0,0 0.01,0.01 0,0.01 0,0 0,0.01 0.01,0.01 0,0.01 0.01,0.02 0,0.02 0.01,0.02 0,0.02 0.01,0.02 0,0.02 0.01,0.03 0.01,0.02 0.01,0.05 0.01,0.04 0,0.03 0.01,0.02 0,0.02 0.01,0.02 0,0.02 0.01,0.02 0,0.02 0.01,0.01 0,0.01 0,0.01 0,0 0,0.01 0,0 0,0.01 0,0 0,0.01 0.01,0 0,0 0,0.01 0,0 c 0,0.19 -0.14,0.5 -0.57,0.5 -0.68,0 -3.57,-0.28 -4.45,-0.36 -0.28,-0.03 -0.77,-0.06 -0.77,-0.8 0,-0.48 0.49,-0.48 0.91,-0.48 1.67,0 1.67,-0.25 1.67,-0.53 0,-0.24 -0.08,-0.46 -0.14,-0.77 l -4.92,-19.72 c -0.17,-0.62 -0.17,-0.68 -0.17,-0.76 0,-0.52 0.42,-1.11 1.19,-1.11 0.93,0 1.39,0.69 1.61,1.45 0.06,0.14 1.56,6.28 1.7,6.77 2.47,-0.25 4.45,-1.05 4.45,-2.86 0,-0.17 0,-0.35 -0.06,-0.69 -0.14,-0.53 -0.14,-0.7 -0.14,-1.09 0,-2.47 2.02,-3.58 3.69,-3.58 3.39,0 4.43,5.29 4.43,5.33 0,0.45 -0.45,0.45 -0.56,0.45 -0.48,0 -0.53,-0.17 -0.7,-0.84 -0.41,-1.5 -1.36,-3.97 -3.06,-3.97 -0.94,0 -1.22,0.87 -1.22,1.81 0,0.59 0,0.66 0.2,1.56 0.05,0.11 0.19,0.7 0.19,1.1 0,3.09 -4.19,3.57 -5.66,3.68 1.02,0.63 2.3,1.78 2.89,2.3 1.78,1.67 3.53,3.31 5.47,3.31 0.42,0 0.88,-0.11 1.16,-0.45 -1.5,-0.25 -1.81,-1.42 -1.81,-1.95 0,-0.77 0.59,-1.29 1.38,-1.29 0.96,0 1.99,0.77 1.99,2.22 0,1.16 -0.83,2.44 -2.67,2.44 -1.99,0 -3.8,-1.42 -5.58,-3.06 -1.47,-1.39 -2.61,-2.47 -4.05,-3.06 z"
           inkscape:connector-curvature="0"
           style="fill:#000000;stroke-width:0" /><path
           id="path4974"
           d="m 845.77,420.54 0,0.05 0,0.06 -0.01,0.05 -0.01,0.06 -0.01,0.05 -0.01,0.06 -0.02,0.05 -0.02,0.06 -0.02,0.06 -0.02,0.05 -0.03,0.06 -0.03,0.05 -0.04,0.06 -0.03,0.05 -0.04,0.05 -0.04,0.05 -0.04,0.05 -0.05,0.05 -0.05,0.04 -0.06,0.05 -0.05,0.04 -0.06,0.03 -0.06,0.04 -0.07,0.03 -0.07,0.03 -0.07,0.03 -0.07,0.02 -0.08,0.02 -0.08,0.01 -0.08,0.01 -0.09,0.01 -0.09,0 c -0.94,0 -1.96,-0.91 -1.96,-1.92 0,-0.59 0.46,-1.33 1.41,-1.33 1,0 1.95,0.99 1.95,1.92 z"
           inkscape:connector-curvature="0"
           style="fill:#000000;stroke-width:0" /><path
           id="path4976"
           d="m 838.66,402.84 -0.05,-0.17 -0.05,-0.17 -0.03,-0.08 -0.03,-0.09 -0.02,-0.08 -0.02,-0.09 -0.03,-0.09 -0.02,-0.09 -0.01,-0.1 -0.02,-0.09 -0.01,-0.1 -0.01,-0.05 0,-0.05 0,-0.06 -0.01,-0.05 0,-0.05 0,-0.06 c 0,-1.64 1.39,-2.95 3.3,-2.95 3.48,0 5.03,4.79 5.03,5.33 0,0.45 -0.45,0.45 -0.56,0.45 -0.49,0 -0.53,-0.2 -0.67,-0.59 -0.8,-2.79 -2.33,-4.22 -3.69,-4.22 -0.71,0 -0.88,0.45 -0.88,1.22 0,0.79 0.25,1.46 0.57,2.23 0.34,0.94 0.73,1.87 1.1,2.78 0.32,0.84 1.58,4.02 1.72,4.44 0.1,0.34 0.21,0.76 0.21,1.11 0,1.64 -1.39,2.95 -3.32,2.95 -3.45,0 -5.04,-4.73 -5.04,-5.33 0,-0.45 0.48,-0.45 0.59,-0.45 0.49,0 0.52,0.17 0.63,0.56 0.9,3 2.43,4.25 3.71,4.25 0.57,0 0.88,-0.28 0.88,-1.22 0,-0.79 -0.2,-1.32 -1.08,-3.48 z"
           inkscape:connector-curvature="0"
           style="fill:#000000;stroke-width:0" /></g>    </g>
  </g>
</svg>
