<?xml version="1.0" encoding="UTF-8" standalone="no"?>
<!-- Created with Inkscape (http://www.inkscape.org/) -->

<svg
   xmlns:dc="http://purl.org/dc/elements/1.1/"
   xmlns:cc="http://creativecommons.org/ns#"
   xmlns:rdf="http://www.w3.org/1999/02/22-rdf-syntax-ns#"
   xmlns:svg="http://www.w3.org/2000/svg"
   xmlns="http://www.w3.org/2000/svg"
   xmlns:sodipodi="http://sodipodi.sourceforge.net/DTD/sodipodi-0.dtd"
   xmlns:inkscape="http://www.inkscape.org/namespaces/inkscape"
   width="370.43256"
   height="310.02179"
   id="svg2"
   version="1.1"
   inkscape:version="0.48.5 r10040"
   sodipodi:docname="duality-gap-3.svg">
  <sodipodi:namedview
     id="base"
     pagecolor="#ffffff"
     bordercolor="#666666"
     borderopacity="1.0"
     inkscape:pageopacity="0.0"
     inkscape:pageshadow="2"
     inkscape:zoom="2.323935"
     inkscape:cx="205.62561"
     inkscape:cy="158.55692"
     inkscape:document-units="px"
     inkscape:current-layer="layer1"
     showgrid="false"
     inkscape:window-width="1440"
     inkscape:window-height="882"
     inkscape:window-x="0"
     inkscape:window-y="18"
     inkscape:window-maximized="1"
     fit-margin-top="10"
     fit-margin-left="10"
     fit-margin-bottom="10"
     fit-margin-right="10" />
  <defs
     id="defs4">
    <marker
       style="overflow:visible"
       id="Arrow1Mend"
       refX="0"
       refY="0"
       orient="auto"
       inkscape:stockid="Arrow1Mend">
      <path
         transform="matrix(-0.4,0,0,-0.4,-4,0)"
         style="fill-rule:evenodd;stroke:#000000;stroke-width:1pt"
         d="M 0,0 5,-5 -12.5,0 5,5 0,0 z"
         id="path3770"
         inkscape:connector-curvature="0" />
    </marker>
  </defs>
  <metadata
     id="metadata7">
    <rdf:RDF>
      <cc:Work
         rdf:about="">
        <dc:format>image/svg+xml</dc:format>
        <dc:type
           rdf:resource="http://purl.org/dc/dcmitype/StillImage" />
        <dc:title />
      </cc:Work>
    </rdf:RDF>
  </metadata>
  <g
     id="layer1"
     inkscape:groupmode="layer"
     inkscape:label="Layer 1"
     transform="translate(-175.28971,-277.92753)">
    <path
       inkscape:connector-curvature="0"
       id="path2985"
       d="m 236.69934,536.63251 295.55916,0"
       style="fill:none;stroke:#000000;stroke-width:1.37981117px;stroke-linecap:butt;stroke-linejoin:miter;stroke-opacity:1;marker-end:url(#Arrow1Mend)" />
    <path
       inkscape:connector-curvature="0"
       id="path2987"
       d="m 381.79202,570.41069 0,-264.85172"
       style="fill:none;stroke:#000000;stroke-width:1.37981117px;stroke-linecap:butt;stroke-linejoin:miter;stroke-opacity:1;marker-end:url(#Arrow1Mend)" />
    <g
       id="g4725"
       transform="matrix(1.3798111,0,0,1.3798111,-74.981227,-117.80266)">
      <path
         sodipodi:type="arc"
         style="fill:none;stroke:#880000;stroke-width:1.07599998;stroke-linecap:square;stroke-linejoin:bevel;stroke-miterlimit:4;stroke-opacity:1;stroke-dasharray:3.22799993, 1.07599998;stroke-dashoffset:0"
         id="path4399"
         sodipodi:cx="125.46153"
         sodipodi:cy="337.70435"
         sodipodi:rx="14.743816"
         sodipodi:ry="14.743816"
         d="m 140.20535,337.70435 c 0,8.14278 -6.60103,14.74381 -14.74382,14.74381 -8.14278,0 -14.74381,-6.60103 -14.74381,-14.74381 0,-8.14279 6.60103,-14.74382 14.74381,-14.74382 8.14279,0 14.74382,6.60103 14.74382,14.74382 z"
         transform="translate(78.448233,-28.374892)" />
      <g
         transform="matrix(0.27727098,0,0,0.27727098,115.68495,214.69201)"
         id="g4511">
        <g
           style="font-style:normal;font-variant:normal;font-weight:normal;font-stretch:normal;letter-spacing:normal;word-spacing:normal;text-anchor:start;fill:none;stroke:#000000;stroke-linecap:butt;stroke-linejoin:miter;stroke-miterlimit:10.43299961;stroke-opacity:1;stroke-dasharray:none;stroke-dashoffset:0"
           id="g4513"
           transform="matrix(1.0629921,0,0,-1.0629921,-186.02362,789.27165)"
           xml:space="preserve"
           stroke-miterlimit="10.433"
           font-style="normal"
           font-variant="normal"
           font-weight="normal"
           font-stretch="normal"
           font-size-adjust="none"
           letter-spacing="normal"
           word-spacing="normal"><path
             style="fill:#000000;stroke-width:0"
             inkscape:connector-curvature="0"
             d="m 487.66,440.82 0,0.02 0,0.02 0,0.01 -0.01,0.02 0,0.02 0,0.02 -0.01,0.02 0,0.02 -0.01,0.02 -0.01,0.02 -0.01,0.02 -0.01,0.02 -0.01,0.02 -0.01,0.02 -0.01,0.02 -0.02,0.02 -0.02,0.02 -0.01,0.02 -0.02,0.02 -0.02,0.02 -0.02,0.01 -0.03,0.02 -0.02,0.01 -0.03,0.02 -0.02,0.01 -0.03,0.01 -0.02,0.01 -0.01,0 -0.02,0.01 -0.02,0 -0.01,0 -0.02,0.01 -0.02,0 -0.02,0 -0.02,0 -0.02,0 -0.02,0 -0.02,0 c -0.25,0 -0.31,-0.04 -0.9,-0.75 l -2.39,-2.84 c -1.3,2.34 -3.89,3.59 -7.13,3.59 -6.33,0 -12.3,-5.73 -12.3,-11.76 0,-4.03 2.65,-6.33 5.18,-7.06 l 5.32,-1.41 c 1.85,-0.44 4.6,-1.19 4.6,-5.28 0,-4.49 -4.1,-9.16 -8.97,-9.16 -3.19,0 -8.72,1.1 -8.72,7.27 0,1.2 0.25,2.39 0.3,2.69 0.04,0.2 0.09,0.25 0.09,0.35 0,0.5 -0.34,0.55 -0.59,0.55 -0.25,0 -0.35,-0.05 -0.5,-0.2 -0.21,-0.2 -2.99,-11.56 -2.99,-11.7 0,-0.3 0.25,-0.5 0.55,-0.5 0.25,0 0.3,0.04 0.89,0.75 l 2.45,2.82 c 2.14,-2.89 5.52,-3.57 8.41,-3.57 6.78,0 12.66,6.62 12.66,12.79 0,3.44 -1.69,5.14 -2.44,5.83 -1.14,1.16 -1.89,1.34 -6.33,2.5 -1.09,0.3 -2.89,0.8 -3.34,0.89 -1.35,0.45 -3.03,1.89 -3.03,4.53 0,4.05 3.98,8.28 8.71,8.28 4.15,0 7.18,-2.14 7.18,-7.73 0,-1.59 -0.21,-2.49 -0.21,-2.78 0,-0.05 0,-0.5 0.61,-0.5 0.5,0 0.55,0.15 0.74,1 z"
             id="path4515" /></g>      </g>
    </g>
    <path
       style="fill:none;stroke:#000000;stroke-width:1.48317635px;stroke-linecap:butt;stroke-linejoin:miter;stroke-opacity:1;marker-end:url(#Arrow1Mend)"
       d="m 229.07416,302.71152 c 43.8396,-7.65975 69.85063,13.74122 97.36722,32.6881"
       id="path4541"
       inkscape:connector-curvature="0"
       sodipodi:nodetypes="cc" />
    <path
       sodipodi:type="arc"
       style="fill:#000000;fill-opacity:1;stroke:#000000;stroke-width:1.07599998;stroke-linecap:square;stroke-linejoin:bevel;stroke-miterlimit:4;stroke-opacity:1;stroke-dasharray:3.22799993, 1.07599998;stroke-dashoffset:0"
       id="path4731"
       sodipodi:cx="118.22872"
       sodipodi:cy="378.3194"
       sodipodi:rx="1.3909261"
       sodipodi:ry="1.3909261"
       d="m 119.61965,378.3194 c 0,0.76818 -0.62274,1.39092 -1.39093,1.39092 -0.76819,0 -1.39092,-0.62274 -1.39092,-1.39092 0,-0.76819 0.62273,-1.39093 1.39092,-1.39093 0.76819,0 1.39093,0.62274 1.39093,1.39093 z"
       transform="matrix(1.3798111,0,0,1.3798111,218.43403,-129.52501)" />
    <g
       id="g4750"
       transform="matrix(0.52832625,0,0,0.52832625,203.25747,122.90995)">
      <g
         id="content"
         transform="matrix(1.0629921,0,0,-1.0629921,-186.02362,789.27165)"
         xml:space="preserve"
         stroke-miterlimit="10.433"
         font-style="normal"
         font-variant="normal"
         font-weight="normal"
         font-stretch="normal"
         font-size-adjust="none"
         letter-spacing="normal"
         word-spacing="normal"
         style="font-style:normal;font-variant:normal;font-weight:normal;font-stretch:normal;letter-spacing:normal;word-spacing:normal;text-anchor:start;fill:none;stroke:#000000;stroke-linecap:butt;stroke-linejoin:miter;stroke-miterlimit:10.43299961;stroke-opacity:1;stroke-dasharray:none;stroke-dashoffset:0"><path
           d="m 462.14,410.34 0.25,0.27 0.24,0.25 0.24,0.25 0.23,0.24 0.22,0.23 0.22,0.22 0.21,0.22 0.2,0.21 0.2,0.2 0.2,0.19 0.19,0.19 0.19,0.19 0.18,0.17 0.19,0.18 0.35,0.33 0.34,0.32 0.33,0.3 0.33,0.29 0.32,0.29 0.65,0.56 0.33,0.29 0.33,0.28 c 0,0.05 3.08,2.69 4.88,4.49 4.73,4.64 5.83,7.03 5.83,7.21 0,0.5 -0.46,0.5 -0.55,0.5 -0.35,0 -0.5,-0.09 -0.75,-0.54 -1.49,-2.39 -2.53,-3.19 -3.74,-3.19 -1.2,0 -1.79,0.75 -2.54,1.59 -0.94,1.16 -1.78,2.14 -3.44,2.14 -3.73,0 -6.02,-4.62 -6.02,-5.67 0,-0.25 0.14,-0.54 0.6,-0.54 0.45,0 0.54,0.25 0.64,0.54 0.95,2.3 3.84,2.35 4.23,2.35 1.05,0 2,-0.36 3.14,-0.75 2,-0.75 2.55,-0.75 3.85,-0.75 -1.8,-2.14 -5.99,-5.74 -6.92,-6.53 l -4.49,-4.18 c -3.39,-3.34 -5.14,-6.18 -5.14,-6.53 0,-0.5 0.5,-0.5 0.59,-0.5 0.41,0 0.5,0.1 0.8,0.64 1.16,1.75 2.64,3.1 4.24,3.1 1.15,0 1.65,-0.46 2.89,-1.89 0.86,-1.05 1.75,-1.85 3.18,-1.85 4.94,0 7.83,6.33 7.83,7.67 0,0.25 -0.2,0.5 -0.59,0.5 -0.46,0 -0.55,-0.29 -0.71,-0.65 -1.14,-3.24 -4.32,-4.17 -5.98,-4.17 -0.98,0 -1.89,0.29 -2.94,0.64 -1.68,0.64 -2.43,0.84 -3.48,0.84 -0.1,0 -0.89,0 -1.35,-0.14 z"
           id="path4753"
           inkscape:connector-curvature="0"
           style="fill:#000000;stroke-width:0" /></g>    </g>
    <g
       id="g4793"
       transform="matrix(0.52832625,0,0,0.52832625,364.47155,367.80182)">
      <g
         word-spacing="normal"
         letter-spacing="normal"
         font-size-adjust="none"
         font-stretch="normal"
         font-weight="normal"
         font-variant="normal"
         font-style="normal"
         stroke-miterlimit="10.433"
         xml:space="preserve"
         transform="matrix(1.0629921,0,0,-1.0629921,-186.02362,789.27165)"
         id="g4795"
         style="font-style:normal;font-variant:normal;font-weight:normal;font-stretch:normal;letter-spacing:normal;word-spacing:normal;text-anchor:start;fill:none;stroke:#000000;stroke-linecap:butt;stroke-linejoin:miter;stroke-miterlimit:10.43299961;stroke-opacity:1;stroke-dasharray:none;stroke-dashoffset:0"><path
           id="path4797"
           d="m 479.74,425.18 0.01,0.04 0.01,0.03 0.01,0.06 0.02,0.05 0.01,0.06 0.01,0.05 0.02,0.04 0.01,0.05 0.01,0.04 0.01,0.04 0,0.04 0.01,0.04 0.01,0.04 0.01,0.03 0,0.03 0.01,0.03 0,0.03 0.01,0.03 0,0.03 0.01,0.05 0,0.06 0,0.05 0,0.05 0.01,0.05 0,0.03 0,0.03 0,0.03 0,0.03 c 0,0.91 -0.69,1.35 -1.44,1.35 -0.5,0 -1.3,-0.3 -1.75,-1.05 -0.1,-0.25 -0.5,-1.78 -0.69,-2.69 -0.36,-1.29 -0.7,-2.64 -1,-3.98 l -2.25,-8.97 c -0.19,-0.75 -2.33,-4.23 -5.62,-4.23 -2.54,0 -3.1,2.18 -3.1,4.03 0,2.29 0.86,5.39 2.55,9.76 0.8,2.05 1,2.6 1,3.6 0,2.23 -1.59,4.07 -4.09,4.07 -4.74,0 -6.58,-7.21 -6.58,-7.67 0,-0.5 0.5,-0.5 0.61,-0.5 0.5,0 0.54,0.11 0.79,0.91 1.35,4.69 3.33,6.17 5.03,6.17 0.4,0 1.25,0 1.25,-1.59 0,-1.25 -0.5,-2.53 -0.85,-3.49 -1.99,-5.28 -2.9,-8.12 -2.9,-10.47 0,-4.42 3.15,-5.92 6.08,-5.92 1.96,0 3.64,0.85 5.03,2.24 -0.64,-2.58 -1.23,-5.03 -3.23,-7.68 -1.3,-1.68 -3.19,-3.14 -5.48,-3.14 -0.69,0 -2.94,0.16 -3.79,2.1 0.8,0 1.46,0 2.14,0.61 0.5,0.43 1,1.09 1,2.03 0,1.55 -1.34,1.75 -1.84,1.75 -1.14,0 -2.8,-0.8 -2.8,-3.24 0,-2.5 2.21,-4.34 5.29,-4.34 5.14,0 10.26,4.55 11.67,10.17 z"
           inkscape:connector-curvature="0"
           style="fill:#000000;stroke-width:0" /></g>    </g>
    <path
       sodipodi:nodetypes="cc"
       inkscape:connector-curvature="0"
       id="path5000"
       d="m 407.66865,419.35332 c -14.28272,0.37812 -18.75787,-11.01286 -23.03059,-22.64675"
       style="fill:none;stroke:#000000;stroke-width:1.10384893;stroke-linecap:butt;stroke-linejoin:miter;stroke-miterlimit:4;stroke-opacity:1;stroke-dasharray:none;marker-mid:none;marker-end:url(#Arrow1Mend)" />
    <g
       id="g5613"
       transform="matrix(0.27251519,0,0,0.27251519,175.19555,245.39661)">
      <g
         word-spacing="normal"
         letter-spacing="normal"
         font-size-adjust="none"
         font-stretch="normal"
         font-weight="normal"
         font-variant="normal"
         font-style="normal"
         stroke-miterlimit="10.433"
         xml:space="preserve"
         transform="matrix(1.0629921,0,0,-1.0629921,-186.02362,789.27165)"
         id="g5615"
         style="font-style:normal;font-variant:normal;font-weight:normal;font-stretch:normal;letter-spacing:normal;word-spacing:normal;text-anchor:start;fill:none;stroke:#000000;stroke-linecap:butt;stroke-linejoin:miter;stroke-miterlimit:10.43299961;stroke-opacity:1;stroke-dasharray:none;stroke-dashoffset:0"><path
           id="path5617"
           d="m 473.3,420.75 0.19,-0.5 0.2,-0.51 0.39,-1.05 0.4,-1.08 0.39,-1.1 0.39,-1.1 0.39,-1.09 0.37,-1.07 0.19,-0.53 0.18,-0.51 0.17,-0.5 0.18,-0.49 0.16,-0.47 0.17,-0.45 0.16,-0.44 0.15,-0.42 0.15,-0.39 0.14,-0.37 0.13,-0.35 0.13,-0.32 0.12,-0.29 0.12,-0.26 0.1,-0.23 0.1,-0.2 0.09,-0.16 0.08,-0.12 c 0.79,-1.1 1.29,-1.1 2.64,-1.1 h 1.09 c 0.5,0.05 0.55,0.35 0.55,0.5 0,0.14 -0.1,0.25 -0.25,0.46 -0.49,0.54 -0.8,1.28 -1.14,2.28 l -10.16,28.34 c -1.05,2.89 -3.75,3.55 -6.08,3.55 -0.25,0 -0.9,0 -0.9,-0.55 0,-0.41 0.4,-0.5 0.45,-0.5 1.64,-0.3 1.98,-0.59 3.23,-3.98 l 4.83,-13.55 -13.75,-13.66 c -0.59,-0.59 -0.89,-0.9 -0.89,-1.54 0,-0.85 0.7,-1.44 1.5,-1.44 0.8,0 1.23,0.55 1.64,1.05 z"
           inkscape:connector-curvature="0"
           style="fill:#000000;stroke-width:0" /><path
           id="path5619"
           d="m 496.23,420.92 0,0.04 0,0.04 0,0.05 0,0.04 0,0.03 0,0.04 0,0.04 0,0.03 -0.01,0.04 0,0.03 0,0.03 0,0.03 0,0.03 -0.01,0.03 0,0.03 -0.01,0.02 0,0.03 0,0.02 -0.01,0.03 0,0.02 -0.02,0.04 -0.01,0.04 -0.02,0.03 -0.02,0.03 -0.02,0.03 -0.02,0.03 -0.03,0.02 -0.03,0.02 -0.04,0.02 -0.03,0.01 -0.04,0.01 -0.05,0.02 -0.02,0 -0.03,0 -0.02,0.01 -0.03,0 -0.02,0.01 -0.03,0 -0.03,0 -0.03,0 -0.04,0 -0.03,0.01 -0.03,0 -0.04,0 -0.04,0 -0.03,0 -0.04,0 -0.04,0 -0.04,0 -0.05,0 -0.04,0 -0.05,0 c -2.23,-2.2 -5.39,-2.23 -6.82,-2.23 v -1.25 c 0.84,0 3.14,0 5.04,0.97 v -17.77 c 0,-1.16 0,-1.61 -3.48,-1.61 h -1.31 v -1.25 c 0.62,0.03 4.9,0.14 6.2,0.14 1.08,0 5.47,-0.11 6.23,-0.14 v 1.25 h -1.33 c -3.48,0 -3.48,0.45 -3.48,1.61 z"
           inkscape:connector-curvature="0"
           style="fill:#000000;stroke-width:0" /></g>    </g>
    <g
       id="g5707"
       transform="matrix(0.27251519,0,0,0.27251519,164.54153,295.0435)">
      <g
         id="g5709"
         transform="matrix(1.0629921,0,0,-1.0629921,-186.02362,789.27165)"
         xml:space="preserve"
         stroke-miterlimit="10.433"
         font-style="normal"
         font-variant="normal"
         font-weight="normal"
         font-stretch="normal"
         font-size-adjust="none"
         letter-spacing="normal"
         word-spacing="normal"
         style="font-style:normal;font-variant:normal;font-weight:normal;font-stretch:normal;letter-spacing:normal;word-spacing:normal;text-anchor:start;fill:none;stroke:#000000;stroke-linecap:butt;stroke-linejoin:miter;stroke-miterlimit:10.43299961;stroke-opacity:1;stroke-dasharray:none;stroke-dashoffset:0"><path
           d="m 473.3,420.75 0.19,-0.5 0.2,-0.51 0.39,-1.05 0.4,-1.08 0.39,-1.1 0.39,-1.1 0.39,-1.09 0.37,-1.07 0.19,-0.53 0.18,-0.51 0.17,-0.5 0.18,-0.49 0.16,-0.47 0.17,-0.45 0.16,-0.44 0.15,-0.42 0.15,-0.39 0.14,-0.37 0.13,-0.35 0.13,-0.32 0.12,-0.29 0.12,-0.26 0.1,-0.23 0.1,-0.2 0.09,-0.16 0.08,-0.12 c 0.79,-1.1 1.29,-1.1 2.64,-1.1 h 1.09 c 0.5,0.05 0.55,0.35 0.55,0.5 0,0.14 -0.1,0.25 -0.25,0.46 -0.49,0.54 -0.8,1.28 -1.14,2.28 l -10.16,28.34 c -1.05,2.89 -3.75,3.55 -6.08,3.55 -0.25,0 -0.9,0 -0.9,-0.55 0,-0.41 0.4,-0.5 0.45,-0.5 1.64,-0.3 1.98,-0.59 3.23,-3.98 l 4.83,-13.55 -13.75,-13.66 c -0.59,-0.59 -0.89,-0.9 -0.89,-1.54 0,-0.85 0.7,-1.44 1.5,-1.44 0.8,0 1.23,0.55 1.64,1.05 z"
           id="path5711"
           inkscape:connector-curvature="0"
           style="fill:#000000;stroke-width:0" /><path
           d="m 502.15,405.11 h -1.19 c -0.09,-0.77 -0.45,-2.83 -0.9,-3.18 -0.27,-0.2 -2.95,-0.2 -3.44,-0.2 h -6.42 c 3.66,3.23 4.87,4.2 6.97,5.84 2.58,2.07 4.98,4.22 4.98,7.54 0,4.21 -3.69,6.79 -8.15,6.79 -4.32,0 -7.25,-3.03 -7.25,-6.23 0,-1.78 1.5,-1.96 1.86,-1.96 0.82,0 1.84,0.6 1.84,1.85 0,0.62 -0.25,1.84 -2.06,1.84 1.07,2.47 3.45,3.24 5.09,3.24 3.48,0 5.3,-2.71 5.3,-5.53 0,-3.04 -2.16,-5.44 -3.28,-6.69 l -8.39,-8.3 c -0.36,-0.31 -0.36,-0.39 -0.36,-1.36 h 14.36 z"
           id="path5713"
           inkscape:connector-curvature="0"
           style="fill:#000000;stroke-width:0" /></g>    </g>
    <g
       id="g5809"
       transform="matrix(0.27251519,0,0,0.27251519,165.27123,355.9624)">
      <g
         word-spacing="normal"
         letter-spacing="normal"
         font-size-adjust="none"
         font-stretch="normal"
         font-weight="normal"
         font-variant="normal"
         font-style="normal"
         stroke-miterlimit="10.433"
         xml:space="preserve"
         transform="matrix(1.0629921,0,0,-1.0629921,-186.02362,789.27165)"
         id="g5811"
         style="font-style:normal;font-variant:normal;font-weight:normal;font-stretch:normal;letter-spacing:normal;word-spacing:normal;text-anchor:start;fill:none;stroke:#000000;stroke-linecap:butt;stroke-linejoin:miter;stroke-miterlimit:10.43299961;stroke-opacity:1;stroke-dasharray:none;stroke-dashoffset:0"><path
           id="path5813"
           d="m 473.3,420.75 0.19,-0.5 0.2,-0.51 0.39,-1.05 0.4,-1.08 0.39,-1.1 0.39,-1.1 0.39,-1.09 0.37,-1.07 0.19,-0.53 0.18,-0.51 0.17,-0.5 0.18,-0.49 0.16,-0.47 0.17,-0.45 0.16,-0.44 0.15,-0.42 0.15,-0.39 0.14,-0.37 0.13,-0.35 0.13,-0.32 0.12,-0.29 0.12,-0.26 0.1,-0.23 0.1,-0.2 0.09,-0.16 0.08,-0.12 c 0.79,-1.1 1.29,-1.1 2.64,-1.1 h 1.09 c 0.5,0.05 0.55,0.35 0.55,0.5 0,0.14 -0.1,0.25 -0.25,0.46 -0.49,0.54 -0.8,1.28 -1.14,2.28 l -10.16,28.34 c -1.05,2.89 -3.75,3.55 -6.08,3.55 -0.25,0 -0.9,0 -0.9,-0.55 0,-0.41 0.4,-0.5 0.45,-0.5 1.64,-0.3 1.98,-0.59 3.23,-3.98 l 4.83,-13.55 -13.75,-13.66 c -0.59,-0.59 -0.89,-0.9 -0.89,-1.54 0,-0.85 0.7,-1.44 1.5,-1.44 0.8,0 1.23,0.55 1.64,1.05 z"
           inkscape:connector-curvature="0"
           style="fill:#000000;stroke-width:0" /><path
           id="path5815"
           d="m 494.07,410.4 0.26,0 0.24,-0.02 0.25,-0.03 0.24,-0.04 0.23,-0.05 0.22,-0.06 0.23,-0.07 0.21,-0.08 0.21,-0.1 0.2,-0.1 0.2,-0.12 0.19,-0.12 0.18,-0.14 0.17,-0.15 0.17,-0.16 0.16,-0.17 0.15,-0.18 0.14,-0.19 0.14,-0.2 0.12,-0.22 0.12,-0.22 0.11,-0.24 0.1,-0.24 0.09,-0.26 0.08,-0.27 0.07,-0.28 0.06,-0.29 0.05,-0.3 0.04,-0.31 0.02,-0.32 0.02,-0.33 0.01,-0.35 c 0,-4.33 -2.52,-5.61 -4.54,-5.61 -1.39,0 -4.46,0.38 -5.92,2.44 1.63,0.06 2.02,1.22 2.02,1.95 0,1.11 -0.85,1.91 -1.92,1.91 -0.97,0 -1.96,-0.59 -1.96,-2.02 0,-3.28 3.63,-5.4 7.85,-5.4 4.84,0 8.18,3.25 8.18,6.73 0,2.72 -2.21,5.44 -6.06,6.24 3.66,1.33 4.99,3.93 4.99,6.06 0,2.75 -3.18,4.81 -7.03,4.81 -3.88,0 -6.83,-1.89 -6.83,-4.67 0,-1.19 0.76,-1.84 1.81,-1.84 1.08,0 1.77,0.79 1.77,1.76 0,1.02 -0.69,1.75 -1.77,1.81 1.22,1.55 3.61,1.93 4.91,1.93 1.56,0 3.76,-0.77 3.76,-3.8 0,-1.47 -0.48,-3.06 -1.39,-4.14 -1.16,-1.33 -2.12,-1.41 -3.87,-1.5 -0.88,-0.08 -0.94,-0.08 -1.11,-0.11 -0.08,0 -0.36,-0.06 -0.36,-0.45 0,-0.49 0.31,-0.49 0.9,-0.49 z"
           inkscape:connector-curvature="0"
           style="fill:#000000;stroke-width:0" /></g>    </g>
    <path
       style="fill:none;stroke:#000000;stroke-width:1px;stroke-linecap:butt;stroke-linejoin:miter;stroke-opacity:1"
       d="m 323.77413,420.44532 c -87.4961,-106.30057 132.66229,-120.70163 132.66229,-13.99649 0,16.69565 -7.80695,84.33521 -40.16381,68.15678 -36.95901,-18.47951 2.95174,-82.7618 -32.8613,-82.7618 -29.94816,0 -37.48089,53.62446 -59.63718,28.60151 z"
       id="path3106"
       inkscape:connector-curvature="0"
       sodipodi:nodetypes="csssc" />
    <path
       style="fill:none;stroke:#008989;stroke-width:1px;stroke-linecap:butt;stroke-linejoin:miter;stroke-opacity:1"
       d="M 262.38178,388.55289 486.18456,515.01763"
       id="path3108"
       inkscape:connector-curvature="0" />
    <path
       style="fill:none;stroke:#008989;stroke-width:1px;stroke-linecap:butt;stroke-linejoin:miter;stroke-opacity:1"
       d="M 271.43946,340.72623 421.74949,577.44931"
       id="path3110"
       inkscape:connector-curvature="0" />
    <path
       style="fill:none;stroke:#008989;stroke-width:1px;stroke-linecap:butt;stroke-linejoin:miter;stroke-opacity:1"
       d="m 263.00892,452.05167 249.32436,39.02245"
       id="path3886"
       inkscape:connector-curvature="0" />
    <path
       style="fill:none;stroke:#008100;stroke-width:1.09656417px;stroke-linecap:butt;stroke-linejoin:miter;stroke-opacity:1"
       d="m 303.13196,373.53925 51.62957,-39.45871"
       id="path3888"
       inkscape:connector-curvature="0" />
    <path
       style="fill:none;stroke:#008100;stroke-width:0.98440808px;stroke-linecap:butt;stroke-linejoin:miter;stroke-opacity:1"
       d="m 304.9015,386.37473 67.56383,-52.35027"
       id="path3890"
       inkscape:connector-curvature="0" />
    <path
       style="fill:none;stroke:#008100;stroke-width:1px;stroke-linecap:butt;stroke-linejoin:miter;stroke-opacity:1"
       d="M 134.48793,120.61024 206.29596,63.407231"
       id="path3892"
       inkscape:connector-curvature="0"
       transform="translate(175.28972,277.92754)" />
    <path
       style="fill:none;stroke:#008100;stroke-width:1.00112963px;stroke-linecap:butt;stroke-linejoin:miter;stroke-opacity:1"
       d="m 315.25509,408.88245 66.33002,-53.55063"
       id="path3894"
       inkscape:connector-curvature="0" />
    <path
       style="fill:none;stroke:#008100;stroke-width:0.89099628px;stroke-linecap:butt;stroke-linejoin:miter;stroke-opacity:1"
       d="m 322.80681,419.89129 59.13764,-47.57535"
       id="path3894-5"
       inkscape:connector-curvature="0" />
    <g
       id="g3962"
       transform="translate(280.55863,394.15905)">
      <g
         id="g3964"
         transform="matrix(0.43310433,0,0,-0.43310433,-75.793257,277.8244)"
         xml:space="preserve"
         stroke-miterlimit="10.433"
         font-style="normal"
         font-variant="normal"
         font-weight="normal"
         font-stretch="normal"
         font-size-adjust="none"
         letter-spacing="normal"
         word-spacing="normal"
         style="font-style:normal;font-variant:normal;font-weight:normal;font-stretch:normal;letter-spacing:normal;word-spacing:normal;text-anchor:start;fill:none;stroke:#000000;stroke-linecap:butt;stroke-linejoin:miter;stroke-miterlimit:10.43299961;stroke-opacity:1;stroke-dasharray:none;stroke-dashoffset:0"><path
           d="m 481.22,440.23 0,0 0,0.01 0,0 0,0.01 0,0.02 0,0.01 0,0.02 0,0.02 -0.01,0.02 0,0.02 -0.01,0.02 0,0.02 -0.01,0.02 -0.01,0.03 -0.01,0.02 -0.01,0.03 -0.02,0.02 -0.01,0.03 -0.02,0.02 -0.02,0.02 -0.02,0.03 -0.02,0.01 -0.01,0.01 -0.01,0.01 -0.02,0.01 -0.01,0.01 -0.02,0.01 -0.01,0.01 -0.02,0.01 -0.01,0.01 -0.02,0.01 -0.02,0 -0.02,0.01 -0.02,0.01 -0.02,0 -0.02,0.01 -0.03,0.01 -0.02,0 -0.02,0 -0.03,0.01 -0.03,0 -0.02,0 -0.03,0.01 -0.03,0 -0.03,0 c -0.75,0 -5.48,-0.46 -6.33,-0.55 -0.4,-0.05 -0.7,-0.3 -0.7,-0.95 0,-0.6 0.45,-0.6 1.2,-0.6 2.39,0 2.49,-0.34 2.49,-0.84 l -0.14,-1 -3,-11.81 c -0.89,1.84 -2.35,3.18 -4.58,3.18 l 0.05,-1.09 c 3.23,0 3.93,-4.08 3.93,-4.37 0,-0.32 -0.09,-0.61 -0.14,-0.86 l -2.5,-9.77 c -0.25,-0.89 -0.25,-0.98 -1,-1.84 -2.18,-2.74 -4.23,-3.53 -5.62,-3.53 -2.49,0 -3.19,2.73 -3.19,4.68 0,2.49 1.59,8.61 2.74,10.91 1.54,2.94 3.79,4.78 5.78,4.78 l -0.05,1.09 c -5.83,0 -12,-7.31 -12,-14.59 0,-4.69 2.73,-7.97 6.62,-7.97 0.99,0 3.49,0.21 6.47,3.74 0.41,-2.1 2.14,-3.74 4.53,-3.74 1.75,0 2.9,1.14 3.69,2.74 0.85,1.79 1.5,4.84 1.5,4.93 0,0.5 -0.45,0.5 -0.59,0.5 -0.5,0 -0.55,-0.2 -0.7,-0.9 -0.85,-3.24 -1.75,-6.17 -3.79,-6.17 -1.34,0 -1.5,1.29 -1.5,2.29 0,1.19 0.1,1.55 0.3,2.39 z"
           id="path3966"
           inkscape:connector-curvature="0"
           style="fill:#000000;stroke-width:0" /><path
           d="m 492.69,432.87 0.26,0.12 0.26,0.11 0.25,0.11 0.23,0.1 0.23,0.1 0.22,0.1 0.22,0.09 0.2,0.09 0.2,0.08 0.19,0.08 0.18,0.08 0.18,0.07 0.17,0.08 0.16,0.06 0.16,0.07 0.15,0.06 0.14,0.06 0.14,0.06 0.14,0.06 0.13,0.05 0.12,0.06 0.12,0.05 0.11,0.05 0.11,0.04 0.11,0.05 0.1,0.04 0.19,0.09 0.18,0.08 0.17,0.08 c 0.67,0.27 0.98,0.41 0.98,1.08 0,0.59 -0.45,1.11 -1.08,1.11 -0.25,0 -0.31,0 -0.73,-0.31 l -4.74,-3.17 0.52,5.15 c 0.08,0.63 0,1.5 -1.05,1.5 -0.42,0 -1.07,-0.28 -1.07,-1.04 0,-0.32 0.14,-1.36 0.17,-1.71 0.08,-0.59 0.31,-3.11 0.39,-3.9 l -4.71,3.17 c -0.35,0.2 -0.45,0.31 -0.76,0.31 -0.64,0 -1.09,-0.52 -1.09,-1.11 0,-0.7 0.42,-0.87 0.73,-1.01 l 5.27,-2.19 c -2.86,-1.27 -4.15,-1.75 -5.02,-2.17 -0.66,-0.29 -0.98,-0.43 -0.98,-1.08 0,-0.6 0.45,-1.11 1.09,-1.11 0.23,0 0.31,0 0.72,0.31 l 4.75,3.17 -0.56,-5.61 c 0,-0.76 0.65,-1.04 1.07,-1.04 0.43,0 1.08,0.28 1.08,1.04 0,0.32 -0.14,1.36 -0.17,1.71 -0.06,0.59 -0.31,3.09 -0.38,3.9 l 4.18,-2.79 c 0.9,-0.69 0.98,-0.69 1.29,-0.69 0.63,0 1.08,0.51 1.08,1.11 0,0.7 -0.42,0.87 -0.73,1.01 z"
           id="path3968"
           inkscape:connector-curvature="0"
           style="fill:#000000;stroke-width:0" /></g>    </g>
    <g
       id="g4072"
       transform="translate(288.30411,322.29817)">
      <g
         word-spacing="normal"
         letter-spacing="normal"
         font-size-adjust="none"
         font-stretch="normal"
         font-weight="normal"
         font-variant="normal"
         font-style="normal"
         stroke-miterlimit="10.433"
         xml:space="preserve"
         transform="matrix(0.43310433,0,0,-0.43310433,-75.793257,277.8244)"
         id="g4074"
         style="font-style:normal;font-variant:normal;font-weight:normal;font-stretch:normal;letter-spacing:normal;word-spacing:normal;text-anchor:start;fill:none;stroke:#000000;stroke-linecap:butt;stroke-linejoin:miter;stroke-miterlimit:10.43299961;stroke-opacity:1;stroke-dasharray:none;stroke-dashoffset:0"><path
           id="path4076"
           d="m 457.75,400.12 -0.03,-0.15 -0.04,-0.15 -0.03,-0.14 -0.03,-0.13 -0.04,-0.13 -0.03,-0.11 -0.04,-0.12 -0.03,-0.1 -0.04,-0.1 -0.04,-0.09 -0.04,-0.09 -0.05,-0.08 -0.05,-0.07 -0.05,-0.07 -0.06,-0.07 -0.06,-0.06 -0.07,-0.05 -0.07,-0.05 -0.08,-0.04 -0.09,-0.04 -0.09,-0.04 -0.1,-0.03 -0.11,-0.03 -0.12,-0.02 -0.13,-0.02 -0.06,-0.01 -0.07,-0.01 -0.07,-0.01 -0.08,-0.01 -0.07,0 -0.08,-0.01 -0.08,0 -0.09,-0.01 -0.08,0 -0.09,0 -0.1,0 -0.09,0 -0.1,-0.01 -0.1,0 c -0.6,0 -1.14,0 -1.14,-0.93 0,-0.41 0.25,-0.61 0.64,-0.61 1.36,0 2.79,0.15 4.18,0.15 1.64,0 3.35,-0.15 4.94,-0.15 0.25,0 0.89,0 0.89,1 0,0.54 -0.5,0.54 -1.19,0.54 -2.5,0 -2.5,0.36 -2.5,0.8 0,0.61 2.1,8.72 2.46,9.97 0.64,-1.44 2.03,-3.19 4.58,-3.19 l -0.05,1.1 c -3.3,0 -3.94,4.14 -3.94,4.43 0,0.1 0,0.21 0.14,0.8 l 2.46,9.77 c 0.34,1.34 1.68,2.73 2.57,3.48 1.75,1.55 3.21,1.89 4.05,1.89 1.98,0 3.19,-1.73 3.19,-4.69 0,-2.93 -1.64,-8.65 -2.55,-10.56 -1.69,-3.48 -4.08,-5.12 -5.92,-5.12 l 0.05,-1.1 c 5.78,0 12,7.27 12,14.6 0,4.68 -2.83,7.96 -6.63,7.96 -2.48,0 -4.87,-1.78 -6.51,-3.73 -0.5,2.69 -2.65,3.73 -4.49,3.73 -2.3,0 -3.25,-1.93 -3.69,-2.82 -0.9,-1.71 -1.54,-4.69 -1.54,-4.85 0,-0.5 0.5,-0.5 0.59,-0.5 0.5,0 0.55,0.07 0.84,1.16 0.86,3.53 1.85,5.92 3.64,5.92 0.85,0 1.55,-0.39 1.55,-2.28 0,-1.16 -0.15,-1.7 -0.34,-2.55 z"
           inkscape:connector-curvature="0"
           style="fill:#000000;stroke-width:0" /><path
           id="path4078"
           d="m 491.85,432.87 0.27,0.12 0.25,0.11 0.25,0.11 0.23,0.1 0.23,0.1 0.22,0.1 0.22,0.09 0.2,0.09 0.2,0.08 0.19,0.08 0.18,0.08 0.18,0.07 0.17,0.08 0.16,0.06 0.16,0.07 0.15,0.06 0.14,0.06 0.14,0.06 0.14,0.06 0.13,0.05 0.12,0.06 0.12,0.05 0.11,0.05 0.11,0.04 0.11,0.05 0.1,0.04 0.19,0.09 0.18,0.08 0.17,0.08 c 0.67,0.27 0.98,0.41 0.98,1.08 0,0.59 -0.45,1.11 -1.08,1.11 -0.25,0 -0.31,0 -0.73,-0.31 l -4.74,-3.17 0.52,5.15 c 0.08,0.63 0,1.5 -1.05,1.5 -0.42,0 -1.07,-0.28 -1.07,-1.04 0,-0.32 0.14,-1.36 0.17,-1.71 0.08,-0.59 0.31,-3.11 0.39,-3.9 l -4.71,3.17 c -0.35,0.2 -0.45,0.31 -0.76,0.31 -0.64,0 -1.09,-0.52 -1.09,-1.11 0,-0.7 0.42,-0.87 0.73,-1.01 l 5.27,-2.19 c -2.86,-1.27 -4.15,-1.75 -5.02,-2.17 -0.66,-0.29 -0.98,-0.43 -0.98,-1.08 0,-0.6 0.45,-1.11 1.09,-1.11 0.23,0 0.31,0 0.72,0.31 l 4.75,3.17 -0.56,-5.61 c 0,-0.76 0.65,-1.04 1.07,-1.04 0.43,0 1.08,0.28 1.08,1.04 0,0.32 -0.14,1.36 -0.17,1.71 -0.06,0.59 -0.31,3.09 -0.38,3.9 l 4.18,-2.79 c 0.9,-0.69 0.98,-0.69 1.29,-0.69 0.63,0 1.08,0.51 1.08,1.11 0,0.7 -0.42,0.87 -0.73,1.01 z"
           inkscape:connector-curvature="0"
           style="fill:#000000;stroke-width:0" /></g>    </g>
    <path
       sodipodi:type="arc"
       style="fill:#000000;fill-opacity:1;stroke:#000000;stroke-width:1.07599998;stroke-linecap:square;stroke-linejoin:bevel;stroke-miterlimit:4;stroke-opacity:1;stroke-dasharray:3.22799993, 1.07599998;stroke-dashoffset:0"
       id="path4134"
       sodipodi:cx="54.863842"
       sodipodi:cy="342.99466"
       sodipodi:rx="0.64545697"
       sodipodi:ry="0.64545697"
       d="m 55.509299,342.99466 c 0,0.35648 -0.288981,0.64546 -0.645457,0.64546 -0.356476,0 -0.645457,-0.28898 -0.645457,-0.64546 0,-0.35648 0.288981,-0.64546 0.645457,-0.64546 0.356476,0 0.645457,0.28898 0.645457,0.64546 z"
       transform="matrix(2.454399,0,0,2.454399,247.23995,-385.78479)" />
    <path
       style="fill:none;stroke:#000000;stroke-width:1.09728456px;stroke-linecap:butt;stroke-linejoin:miter;stroke-opacity:1;marker-end:url(#Arrow1Mend)"
       d="m 401.21277,485.91846 c -13.18191,-2.5153 -14.19867,-14.38233 -16.68564,-25.11918"
       id="path4320"
       inkscape:connector-curvature="0"
       sodipodi:nodetypes="cc" />
  </g>
</svg>
