<?xml version="1.0" encoding="UTF-8" standalone="no"?>
<!-- Created with Inkscape (http://www.inkscape.org/) -->

<svg
   xmlns:dc="http://purl.org/dc/elements/1.1/"
   xmlns:cc="http://creativecommons.org/ns#"
   xmlns:rdf="http://www.w3.org/1999/02/22-rdf-syntax-ns#"
   xmlns:svg="http://www.w3.org/2000/svg"
   xmlns="http://www.w3.org/2000/svg"
   xmlns:sodipodi="http://sodipodi.sourceforge.net/DTD/sodipodi-0.dtd"
   xmlns:inkscape="http://www.inkscape.org/namespaces/inkscape"
   width="280.33994"
   height="51.059174"
   id="svg2"
   version="1.1"
   inkscape:version="0.48.4 r9939"
   sodipodi:docname="EM_estep.svg">
  <sodipodi:namedview
     id="base"
     pagecolor="#ffffff"
     bordercolor="#666666"
     borderopacity="1.0"
     inkscape:pageopacity="0.0"
     inkscape:pageshadow="2"
     inkscape:zoom="3.959798"
     inkscape:cx="155.01265"
     inkscape:cy="11.058488"
     inkscape:document-units="px"
     inkscape:current-layer="layer1"
     showgrid="false"
     inkscape:window-width="1440"
     inkscape:window-height="839"
     inkscape:window-x="0"
     inkscape:window-y="22"
     inkscape:window-maximized="1"
     fit-margin-top="10"
     fit-margin-left="10"
     fit-margin-bottom="10"
     fit-margin-right="10" />
  <defs
     id="defs4" />
  <metadata
     id="metadata7">
    <rdf:RDF>
      <cc:Work
         rdf:about="">
        <dc:format>image/svg+xml</dc:format>
        <dc:type
           rdf:resource="http://purl.org/dc/dcmitype/StillImage" />
        <dc:title></dc:title>
      </cc:Work>
    </rdf:RDF>
  </metadata>
  <g
     id="layer1"
     inkscape:groupmode="layer"
     inkscape:label="Layer 1"
     transform="translate(-345.90734,-411.13975)">
    <g
       id="g2990"
       transform="matrix(0.3694177,0,0,0.3694177,244.98523,308.64688)">
      <g
         word-spacing="normal"
         letter-spacing="normal"
         font-size-adjust="none"
         font-stretch="normal"
         font-weight="normal"
         font-variant="normal"
         font-style="normal"
         stroke-miterlimit="10.433"
         xml:space="preserve"
         transform="matrix(1.0629921,0,0,-1.0629921,-186.02362,789.27165)"
         id="content"
         style="font-style:normal;font-variant:normal;font-weight:normal;font-stretch:normal;letter-spacing:normal;word-spacing:normal;text-anchor:start;fill:none;stroke:#000000;stroke-linecap:butt;stroke-linejoin:miter;stroke-miterlimit:10.43299961;stroke-opacity:1;stroke-dasharray:none;stroke-dashoffset:0"><path
           id="path2993"
           d="m 470.61,421.47 0.21,1.28 3.39,13.56 c 0.43,1.74 0.54,1.89 2.68,1.89 h 4.79 c 4.14,0 6.78,-1.34 6.78,-4.78 0,-1.95 -1,-6.23 -2.94,-8.03 -2.5,-2.23 -5.48,-2.64 -7.69,-2.64 h -7.01 l -0.21,-1.28 h 8.47 c 7.08,0 14,5.17 14,10.75 0,3.84 -3.28,7.53 -9.81,7.53 h -16.14 c -0.95,0 -1.5,0 -1.5,-0.95 0,-0.6 0.45,-0.6 1.45,-0.6 0.64,0 1.55,-0.04 2.14,-0.09 0.8,-0.11 1.1,-0.25 1.1,-0.8 0,-0.2 -0.05,-0.36 -0.21,-0.95 l -6.67,-26.75 c -0.5,-1.95 -0.59,-2.34 -4.53,-2.34 -0.84,0 -1.39,0 -1.39,-0.96 0,-0.59 0.59,-0.59 0.73,-0.59 1.41,0 4.94,0.16 6.33,0.16 1.05,0 2.14,-0.07 3.19,-0.07 1.11,0 2.2,-0.09 3.25,-0.09 0.34,0 0.98,0 0.98,1 0,0.55 -0.43,0.55 -1.39,0.55 -1.84,0 -3.23,0 -3.23,0.89 0,0.29 0.09,0.54 0.14,0.84 z"
           inkscape:connector-curvature="0"
           style="fill:#000000;stroke-width:0" /><path
           id="path2995"
           d="m 511,393.77 0,0.02 0,0.03 0,0.01 0,0.02 0,0.01 -0.01,0.02 0,0.01 -0.01,0.02 -0.01,0.02 -0.01,0.02 -0.01,0.02 -0.02,0.03 -0.01,0.02 -0.02,0.03 -0.02,0.03 -0.03,0.03 -0.02,0.03 -0.03,0.04 -0.02,0.02 -0.01,0.02 -0.02,0.02 -0.02,0.02 -0.02,0.02 -0.02,0.02 -0.02,0.03 -0.02,0.02 -0.02,0.03 -0.03,0.02 -0.02,0.03 -0.03,0.03 -0.03,0.03 -0.02,0.02 -0.03,0.03 -0.03,0.04 -0.03,0.03 -0.03,0.03 -0.04,0.03 -0.03,0.04 -0.04,0.04 -0.03,0.03 -0.04,0.04 -0.04,0.04 c -6.22,6.28 -7.81,15.69 -7.81,23.31 0,8.67 1.89,17.35 8.01,23.56 0.64,0.61 0.64,0.71 0.64,0.86 0,0.35 -0.18,0.49 -0.48,0.49 -0.5,0 -4.98,-3.38 -7.92,-9.7 -2.55,-5.49 -3.14,-11.02 -3.14,-15.21 0,-3.89 0.54,-9.9 3.28,-15.55 2.98,-6.12 7.28,-9.35 7.78,-9.35 0.3,0 0.48,0.14 0.48,0.5 z"
           inkscape:connector-curvature="0"
           style="fill:#000000;stroke-width:0" /><path
           id="path2997"
           d="m 520.46,409.86 0.25,0.27 0.24,0.25 0.24,0.25 0.22,0.24 0.23,0.23 0.21,0.22 0.21,0.22 0.21,0.21 0.2,0.2 0.2,0.19 0.19,0.19 0.19,0.19 0.18,0.17 0.18,0.18 0.35,0.33 0.35,0.32 0.33,0.3 0.33,0.29 0.32,0.29 0.65,0.56 0.32,0.28 0.34,0.29 c 0,0.05 3.08,2.69 4.87,4.49 4.74,4.64 5.83,7.03 5.83,7.21 0,0.5 -0.45,0.5 -0.55,0.5 -0.34,0 -0.5,-0.09 -0.75,-0.54 -1.48,-2.39 -2.53,-3.19 -3.73,-3.19 -1.2,0 -1.8,0.75 -2.55,1.59 -0.93,1.16 -1.78,2.14 -3.43,2.14 -3.74,0 -6.02,-4.62 -6.02,-5.67 0,-0.25 0.14,-0.54 0.59,-0.54 0.46,0 0.55,0.25 0.64,0.54 0.96,2.3 3.85,2.35 4.24,2.35 1.05,0 2,-0.36 3.14,-0.75 2,-0.75 2.55,-0.75 3.84,-0.75 -1.79,-2.14 -5.98,-5.74 -6.92,-6.53 l -4.48,-4.18 c -3.39,-3.34 -5.14,-6.18 -5.14,-6.53 0,-0.5 0.5,-0.5 0.59,-0.5 0.41,0 0.5,0.1 0.8,0.64 1.15,1.75 2.64,3.1 4.23,3.1 1.16,0 1.66,-0.46 2.89,-1.89 0.86,-1.05 1.75,-1.85 3.19,-1.85 4.94,0 7.83,6.33 7.83,7.67 0,0.25 -0.21,0.5 -0.6,0.5 -0.45,0 -0.54,-0.29 -0.7,-0.65 -1.14,-3.24 -4.33,-4.17 -5.98,-4.17 -0.99,0 -1.89,0.29 -2.94,0.64 -1.69,0.64 -2.44,0.84 -3.49,0.84 -0.09,0 -0.89,0 -1.34,-0.14 z"
           inkscape:connector-curvature="0"
           style="fill:#000000;stroke-width:0" /><path
           id="path2999"
           d="m 547.07,441.3 0,0.16 0,0.17 0,0.16 -0.01,0.08 0,0.08 -0.01,0.08 -0.01,0.07 -0.01,0.08 -0.01,0.07 -0.01,0.07 -0.02,0.07 -0.02,0.07 -0.02,0.06 -0.03,0.06 -0.02,0.06 -0.04,0.06 -0.03,0.05 -0.04,0.05 -0.04,0.04 -0.05,0.05 -0.05,0.04 -0.02,0.01 -0.03,0.02 -0.03,0.02 -0.03,0.01 -0.03,0.01 -0.04,0.02 -0.03,0.01 -0.04,0.01 -0.03,0.01 -0.04,0.01 -0.04,0 -0.04,0.01 -0.04,0 -0.05,0.01 -0.04,0 -0.05,0 c -1,0 -1,-0.89 -1,-1.78 v -46.24 c 0,-0.9 0,-1.79 1,-1.79 1,0 1,0.89 1,1.79 z"
           inkscape:connector-curvature="0"
           style="fill:#000000;stroke-width:0" /><path
           id="path3001"
           d="m 575.97,422.61 0.02,0.1 0.02,0.11 0.03,0.11 0.03,0.12 0.03,0.12 0.03,0.12 0.06,0.24 0.06,0.25 0.06,0.26 0.06,0.24 0.06,0.25 0.03,0.11 0.03,0.12 0.03,0.11 0.02,0.11 0.03,0.1 0.02,0.1 0.02,0.1 0.02,0.09 0.02,0.08 0.02,0.08 0.01,0.07 0.01,0.06 0.01,0.06 0.01,0.05 0,0.04 0.01,0.03 c 0,0.91 -0.71,1.35 -1.46,1.35 -0.59,0 -1.48,-0.39 -1.83,-1.39 -0.15,-0.35 -2.5,-9.86 -2.84,-11.16 -0.36,-1.5 -0.45,-2.39 -0.45,-3.3 0,-0.54 0,-0.64 0.04,-0.89 -1.14,-2.64 -2.64,-4.18 -4.58,-4.18 -3.98,0 -3.98,3.68 -3.98,4.53 0,1.59 0.25,3.54 2.6,9.67 0.54,1.48 0.84,2.19 0.84,3.19 0,2.23 -1.64,4.07 -4.09,4.07 -4.74,0 -6.58,-7.21 -6.58,-7.67 0,-0.5 0.5,-0.5 0.61,-0.5 0.5,0 0.54,0.11 0.79,0.91 1.35,4.62 3.28,6.17 5.03,6.17 0.44,0 1.25,-0.05 1.25,-1.64 0,-1.25 -0.56,-2.64 -0.9,-3.48 -2.19,-5.88 -2.78,-8.18 -2.78,-10.07 0,-4.53 3.33,-6.28 7.06,-6.28 0.86,0 3.19,0 5.19,3.49 1.29,-3.19 4.73,-3.49 6.23,-3.49 3.73,0 5.92,3.14 7.22,6.13 1.69,3.89 3.28,10.56 3.28,12.95 0,2.75 -1.34,3.48 -2.19,3.48 -1.25,0 -2.48,-1.29 -2.48,-2.39 0,-0.64 0.3,-0.93 0.73,-1.34 0.55,-0.55 1.8,-1.84 1.8,-4.23 0,-1.69 -1.44,-6.58 -2.73,-9.11 -1.3,-2.64 -3.05,-4.39 -5.49,-4.39 -2.34,0 -3.69,1.5 -3.69,4.32 0,1.41 0.35,2.96 0.55,3.64 z"
           inkscape:connector-curvature="0"
           style="fill:#000000;stroke-width:0" /><path
           id="path3003"
           d="m 600.02,405.77 -0.01,0.3 -0.01,0.3 -0.02,0.29 -0.02,0.28 -0.03,0.27 -0.04,0.26 -0.05,0.26 -0.05,0.24 -0.06,0.24 -0.06,0.23 -0.07,0.22 -0.08,0.21 -0.08,0.2 -0.09,0.19 -0.09,0.19 -0.11,0.17 -0.1,0.16 -0.11,0.16 -0.12,0.14 -0.13,0.13 -0.12,0.13 -0.14,0.11 -0.14,0.1 -0.14,0.1 -0.15,0.08 -0.15,0.07 -0.16,0.06 -0.16,0.05 -0.17,0.04 -0.17,0.03 -0.18,0.01 -0.18,0.01 c -1.64,0 -2.64,-1.25 -2.64,-2.64 0,-1.34 1,-2.64 2.64,-2.64 0.59,0 1.25,0.2 1.75,0.64 0.14,0.11 0.2,0.16 0.25,0.16 0.05,0 0.09,-0.05 0.09,-0.75 0,-3.69 -1.73,-6.68 -3.39,-8.32 -0.55,-0.54 -0.55,-0.65 -0.55,-0.79 0,-0.36 0.25,-0.55 0.5,-0.55 0.55,0 4.54,3.83 4.54,9.66 z"
           inkscape:connector-curvature="0"
           style="fill:#000000;stroke-width:0" /><path
           id="path3005"
           d="m 637.68,439.75 0,0 0,0.01 0,0 0,0.01 0,0.02 0,0.01 0,0.02 0,0.02 -0.01,0.02 0,0.02 -0.01,0.02 0,0.02 -0.01,0.02 -0.01,0.03 -0.01,0.02 -0.01,0.03 -0.02,0.02 -0.01,0.03 -0.02,0.02 -0.02,0.02 -0.02,0.03 -0.01,0.01 -0.02,0.01 -0.01,0.01 -0.01,0.01 -0.02,0.01 -0.01,0.01 -0.02,0.01 -0.02,0.01 -0.01,0.01 -0.02,0.01 -0.02,0 -0.02,0.01 -0.02,0.01 -0.02,0 -0.02,0.01 -0.03,0.01 -0.02,0 -0.02,0 -0.03,0.01 -0.02,0 -0.03,0 -0.03,0.01 -0.03,0 -0.03,0 c -0.75,0 -5.48,-0.46 -6.32,-0.55 -0.41,-0.05 -0.71,-0.3 -0.71,-0.95 0,-0.6 0.46,-0.6 1.21,-0.6 2.38,0 2.48,-0.34 2.48,-0.84 l -0.14,-1 -3,-11.81 c -0.89,1.84 -2.34,3.18 -4.58,3.18 l 0.05,-1.09 c 3.23,0 3.94,-4.08 3.94,-4.37 0,-0.32 -0.1,-0.61 -0.15,-0.86 l -2.5,-9.77 c -0.25,-0.89 -0.25,-0.98 -1,-1.84 -2.18,-2.74 -4.23,-3.53 -5.62,-3.53 -2.48,0 -3.19,2.73 -3.19,4.68 0,2.49 1.59,8.61 2.74,10.91 1.54,2.94 3.79,4.78 5.78,4.78 l -0.05,1.09 c -5.83,0 -12,-7.31 -12,-14.59 0,-4.69 2.74,-7.97 6.62,-7.97 0.99,0 3.49,0.21 6.47,3.74 0.41,-2.1 2.15,-3.74 4.53,-3.74 1.75,0 2.9,1.14 3.69,2.74 0.85,1.79 1.5,4.84 1.5,4.93 0,0.5 -0.45,0.5 -0.59,0.5 -0.5,0 -0.55,-0.2 -0.7,-0.9 -0.85,-3.24 -1.75,-6.17 -3.78,-6.17 -1.35,0 -1.5,1.29 -1.5,2.29 0,1.19 0.09,1.55 0.29,2.39 z"
           inkscape:connector-curvature="0"
           style="fill:#000000;stroke-width:0" /><path
           id="path3007"
           d="m 652.29,418.17 0,0.37 -0.01,0.39 -0.01,0.39 -0.01,0.41 -0.04,0.84 -0.06,0.88 -0.08,0.92 -0.11,0.95 -0.13,0.97 -0.17,1.01 -0.19,1.02 -0.23,1.03 -0.27,1.05 -0.31,1.06 -0.34,1.07 -0.4,1.07 -0.21,0.53 -0.22,0.53 -0.24,0.53 -0.25,0.53 c -2.99,6.12 -7.27,9.36 -7.77,9.36 -0.29,0 -0.5,-0.19 -0.5,-0.49 0,-0.15 0,-0.25 0.94,-1.15 4.89,-4.92 7.73,-12.85 7.73,-23.27 0,-8.51 -1.84,-17.28 -8.03,-23.56 -0.64,-0.59 -0.64,-0.7 -0.64,-0.84 0,-0.3 0.21,-0.5 0.5,-0.5 0.5,0 4.97,3.39 7.92,9.71 2.54,5.47 3.13,11 3.13,15.19 z"
           inkscape:connector-curvature="0"
           style="fill:#000000;stroke-width:0" /><path
           id="path3009"
           d="m 705.49,422.02 0.14,0 0.15,0 0.14,0 0.07,0.01 0.08,0 0.07,0.01 0.07,0.01 0.07,0.01 0.07,0.01 0.07,0.01 0.06,0.02 0.07,0.02 0.06,0.02 0.06,0.02 0.06,0.03 0.06,0.03 0.05,0.04 0.05,0.03 0.05,0.05 0.04,0.04 0.04,0.05 0.02,0.03 0.02,0.03 0.01,0.02 0.02,0.03 0.01,0.03 0.01,0.04 0.02,0.03 0.01,0.04 0.01,0.03 0.01,0.04 0,0.04 0.01,0.04 0,0.04 0.01,0.04 0,0.04 0,0.05 c 0,1 -0.95,1 -1.64,1 H 675.7 c -0.71,0 -1.65,0 -1.65,-1 0,-0.98 0.94,-0.98 1.69,-0.98 z"
           inkscape:connector-curvature="0"
           style="fill:#000000;stroke-width:0" /><path
           id="path3011"
           d="m 705.54,412.34 0.06,0 0.07,0 0.14,0.01 0.14,0 0.07,0 0.07,0.01 0.07,0.01 0.06,0 0.07,0.01 0.07,0.02 0.07,0.01 0.06,0.02 0.07,0.02 0.06,0.02 0.06,0.02 0.05,0.03 0.06,0.03 0.05,0.04 0.05,0.04 0.05,0.04 0.04,0.05 0.02,0.02 0.02,0.03 0.02,0.02 0.02,0.03 0.01,0.03 0.02,0.03 0.01,0.03 0.01,0.03 0.02,0.04 0.01,0.03 0.01,0.04 0.01,0.04 0,0.04 0.01,0.04 0,0.04 0.01,0.04 0,0.05 0,0.04 c 0,1 -0.95,1 -1.69,1 h -29.75 c -0.75,0 -1.69,0 -1.69,-1 0,-1 0.94,-1 1.65,-1 z"
           inkscape:connector-curvature="0"
           style="fill:#000000;stroke-width:0" /><path
           id="path3013"
           d="m 776.4,440.64 0.13,1.12 2.38,9.44 c 0.28,1.08 0.31,1.19 1.78,1.19 h 4.08 c 3.23,0 5.25,-0.99 5.25,-3.46 0,-1.07 -0.41,-3.82 -2.16,-5.4 -1.25,-1.11 -3.23,-1.77 -5.75,-1.77 h -5.58 l -0.13,-1.12 h 6.31 c 5.89,0 10.87,3.76 10.87,7.56 0,2.94 -2.86,5.44 -7.64,5.44 h -12.19 c -0.7,0 -1.1,0 -1.1,-0.77 0,-0.48 0.37,-0.48 1.13,-0.48 0.57,0 0.71,0 1.33,-0.08 0.71,-0.06 0.77,-0.14 0.77,-0.49 0,-0.06 0,-0.23 -0.14,-0.76 l -4.59,-18.36 c -0.37,-1.36 -0.4,-1.61 -3.12,-1.61 -0.62,0 -1.04,0 -1.04,-0.77 0,-0.03 0,-0.48 0.56,-0.48 1.02,0 3.52,0.14 4.53,0.14 0.6,0 1.82,0 2.41,-0.03 0.69,-0.05 1.56,-0.11 2.23,-0.11 0.21,0 0.72,0 0.72,0.77 0,0.48 -0.41,0.48 -1.11,0.48 -0.03,0 -0.7,0 -1.33,0.08 -0.79,0.06 -0.79,0.17 -0.79,0.51 0,0.03 0,0.25 0.14,0.77 z"
           inkscape:connector-curvature="0"
           style="fill:#000000;stroke-width:0" /><path
           id="path3015"
           d="m 807.61,455.98 -0.6,-0.45 -0.58,-0.46 -0.55,-0.47 -0.53,-0.49 -0.5,-0.5 -0.47,-0.51 -0.45,-0.53 -0.42,-0.53 -0.4,-0.54 -0.38,-0.55 -0.35,-0.56 -0.33,-0.56 -0.31,-0.57 -0.28,-0.57 -0.27,-0.58 -0.25,-0.58 -0.23,-0.58 -0.21,-0.58 -0.19,-0.59 -0.17,-0.58 -0.15,-0.58 -0.14,-0.58 -0.13,-0.57 -0.11,-0.57 -0.09,-0.57 -0.08,-0.56 -0.06,-0.55 -0.05,-0.54 -0.04,-0.54 -0.03,-0.53 -0.02,-0.51 0,-0.51 c 0,-4.92 1.47,-12.55 8.37,-17.42 0.29,0 0.69,0 0.69,0.4 0,0.22 -0.09,0.29 -0.34,0.54 -4.64,4.18 -6.35,10.1 -6.35,16.45 0,9.4 3.6,14 6.46,16.58 0.14,0.14 0.23,0.25 0.23,0.42 0,0.42 -0.4,0.42 -0.69,0.42 z"
           inkscape:connector-curvature="0"
           style="fill:#000000;stroke-width:0" /><path
           id="path3017"
           d="m 816.7,432.9 0.16,0.17 0.17,0.16 0.16,0.17 0.17,0.17 0.18,0.17 0.1,0.09 0.09,0.09 0.11,0.1 0.1,0.1 0.11,0.1 0.12,0.11 0.12,0.11 0.13,0.11 0.14,0.12 0.14,0.13 0.15,0.13 0.16,0.13 0.17,0.15 0.18,0.15 0.19,0.15 0.2,0.17 0.21,0.17 0.22,0.18 0.23,0.19 0.24,0.2 0.26,0.2 0.27,0.22 c 0.73,0.59 3.34,2.69 4.36,3.66 2.12,2.09 3.45,3.87 3.45,4.29 0,0.41 -0.45,0.41 -0.59,0.41 -0.31,0 -0.42,-0.06 -0.6,-0.34 -1.07,-1.6 -1.81,-2.13 -2.64,-2.13 -0.42,0 -0.95,0.03 -2,1.05 -1.17,1.18 -1.93,1.42 -2.75,1.42 -2.78,0 -4.67,-3.03 -4.67,-4.06 0,-0.33 0.36,-0.43 0.6,-0.43 0.42,0 0.5,0.1 0.62,0.49 0.53,1.22 2.49,1.3 3.05,1.3 0.79,0 1.7,-0.22 2.19,-0.33 1.92,-0.41 2.15,-0.41 3.03,-0.41 -0.91,-0.95 -1.53,-1.58 -4.85,-4.22 -2.72,-2.15 -3.65,-3.03 -4.31,-3.73 -2.09,-2.05 -3.11,-3.58 -3.11,-3.91 0,-0.4 0.45,-0.4 0.59,-0.4 0.35,0 0.43,0.06 0.6,0.34 0.94,1.33 2.01,2.12 3.2,2.12 0.42,0 0.94,-0.03 1.88,-0.9 1.09,-1.05 1.78,-1.56 2.9,-1.56 3.72,0 6.07,4.21 6.07,5.39 0,0.42 -0.4,0.45 -0.6,0.45 -0.42,0 -0.5,-0.17 -0.62,-0.55 -0.68,-1.75 -2.72,-2.58 -4.44,-2.58 -0.8,0 -1.67,0.18 -2.53,0.38 -1.61,0.34 -1.89,0.34 -2.52,0.34 -0.08,0 -0.59,0 -0.79,-0.03 z"
           inkscape:connector-curvature="0"
           style="fill:#000000;stroke-width:0" /><path
           id="path3019"
           d="m 834.49,455.98 -0.02,0 -0.03,0 -0.02,0 -0.03,0 -0.03,0 -0.02,0 -0.03,0 -0.03,-0.01 -0.03,0 -0.02,0 -0.03,-0.01 -0.03,0 -0.03,-0.01 -0.03,-0.01 -0.02,0 -0.03,-0.01 -0.02,-0.01 -0.03,-0.01 -0.02,-0.02 -0.02,-0.01 -0.02,-0.02 -0.02,-0.02 -0.02,-0.02 -0.01,-0.01 -0.01,-0.01 -0.01,-0.01 -0.01,-0.01 0,-0.01 -0.01,-0.02 -0.01,-0.01 0,-0.01 -0.01,-0.02 0,-0.01 -0.01,-0.02 0,-0.01 0,-0.02 -0.01,-0.02 0,-0.01 0,-0.02 0,-0.02 0,-0.02 c 0,-0.17 0.11,-0.28 0.31,-0.53 3,-2.75 6.35,-7.46 6.35,-16.44 0,-7.28 -2.27,-12.8 -6.03,-16.2 -0.58,-0.6 -0.63,-0.63 -0.63,-0.82 0,-0.17 0.11,-0.4 0.45,-0.4 0.43,0 3.74,2.29 6.03,6.65 1.54,2.89 2.55,6.66 2.55,10.74 0,4.9 -1.47,12.53 -8.36,17.42 z"
           inkscape:connector-curvature="0"
           style="fill:#000000;stroke-width:0" /><path
           id="path3021"
           d="m 858.82,440.64 0.15,1.12 2.37,9.44 c 0.28,1.08 0.31,1.19 1.78,1.19 h 4.08 c 3.23,0 5.25,-0.99 5.25,-3.46 0,-1.07 -0.41,-3.82 -2.16,-5.4 -1.25,-1.11 -3.23,-1.77 -5.75,-1.77 h -5.57 l -0.15,-1.12 h 6.32 c 5.89,0 10.87,3.76 10.87,7.56 0,2.94 -2.86,5.44 -7.64,5.44 h -12.19 c -0.7,0 -1.11,0 -1.11,-0.77 0,-0.48 0.38,-0.48 1.15,-0.48 0.56,0 0.7,0 1.32,-0.08 0.71,-0.06 0.77,-0.14 0.77,-0.49 0,-0.06 0,-0.23 -0.14,-0.76 l -4.6,-18.36 c -0.35,-1.36 -0.39,-1.61 -3.1,-1.61 -0.63,0 -1.05,0 -1.05,-0.77 0,-0.03 0,-0.48 0.56,-0.48 1.02,0 3.52,0.14 4.53,0.14 0.59,0 1.81,0 2.41,-0.03 0.68,-0.05 1.56,-0.11 2.23,-0.11 0.2,0 0.72,0 0.72,0.77 0,0.48 -0.4,0.48 -1.11,0.48 -0.03,0 -0.7,0 -1.33,0.08 -0.79,0.06 -0.79,0.17 -0.79,0.51 0,0.03 0,0.25 0.14,0.77 z"
           inkscape:connector-curvature="0"
           style="fill:#000000;stroke-width:0" /><path
           id="path3023"
           d="m 890.04,455.98 -0.6,-0.45 -0.58,-0.46 -0.55,-0.47 -0.53,-0.49 -0.5,-0.5 -0.47,-0.51 -0.45,-0.53 -0.42,-0.53 -0.4,-0.54 -0.38,-0.55 -0.35,-0.56 -0.33,-0.56 -0.31,-0.57 -0.28,-0.57 -0.27,-0.58 -0.25,-0.58 -0.23,-0.58 -0.21,-0.58 -0.19,-0.59 -0.17,-0.58 -0.15,-0.58 -0.14,-0.58 -0.13,-0.57 -0.11,-0.57 -0.09,-0.57 -0.08,-0.56 -0.06,-0.55 -0.05,-0.54 -0.04,-0.54 -0.03,-0.53 -0.02,-0.51 0,-0.51 c 0,-4.92 1.47,-12.55 8.37,-17.42 0.28,0 0.69,0 0.69,0.4 0,0.22 -0.09,0.29 -0.34,0.54 -4.64,4.18 -6.35,10.1 -6.35,16.45 0,9.4 3.6,14 6.46,16.58 0.14,0.14 0.23,0.25 0.23,0.42 0,0.42 -0.41,0.42 -0.69,0.42 z"
           inkscape:connector-curvature="0"
           style="fill:#000000;stroke-width:0" /><path
           id="path3025"
           d="m 913.16,452.98 0,0 0,0.01 0,0 0.01,0.01 0,0 0,0.01 0,0 0.01,0.01 0,0.01 0,0.01 0.01,0.01 0,0.02 0.01,0.02 0,0.02 0.01,0.02 0.01,0.02 0,0.02 0.01,0.03 0,0.02 0.01,0.05 0.01,0.02 0,0.02 0.01,0.02 0,0.03 0.01,0.02 0,0.02 0.01,0.02 0,0.02 0,0.01 0.01,0.02 0,0.01 0,0 0,0.01 0,0.01 0,0 0,0.01 0.01,0 0,0.01 0,0 0,0 0,0.01 0,0 c 0,0.18 -0.14,0.5 -0.55,0.5 -0.7,0 -3.59,-0.28 -4.47,-0.36 -0.28,-0.03 -0.76,-0.06 -0.76,-0.8 0,-0.48 0.48,-0.48 0.9,-0.48 1.67,0 1.67,-0.25 1.67,-0.53 0,-0.24 -0.06,-0.46 -0.14,-0.77 l -1.98,-7.94 c -0.74,1.14 -1.92,2.05 -3.59,2.05 v -0.97 c 2.43,0 3.1,-2.64 3.1,-3.03 0,-0.14 -0.07,-0.39 -0.1,-0.49 l -1.65,-6.51 c -0.23,-0.99 -1,-1.67 -1.76,-2.34 -0.31,-0.27 -1.72,-1.4 -3.22,-1.4 -1.28,0 -2.53,0.91 -2.53,3.38 0,1.86 1,5.69 1.81,7.08 1.59,2.79 3.38,3.31 4.35,3.31 v 0.97 c -4.46,0 -8.99,-4.91 -8.99,-9.92 0,-3.38 2.27,-5.78 5.27,-5.78 1.87,0 3.54,1.07 4.93,2.43 0.68,-2.09 2.69,-2.43 3.6,-2.43 1.25,0 2.12,0.76 2.75,1.84 0.76,1.36 1.22,3.34 1.22,3.48 0,0.46 -0.46,0.46 -0.55,0.46 -0.5,0 -0.53,-0.14 -0.77,-1.08 -0.42,-1.67 -1.09,-3.74 -2.54,-3.74 -0.91,0 -1.16,0.77 -1.16,1.71 0,0.67 0.08,0.98 0.17,1.44 z"
           inkscape:connector-curvature="0"
           style="fill:#000000;stroke-width:0" /><path
           id="path3027"
           d="m 920.79,454.62 0,0.05 0,0.05 0,0.05 0,0.06 0,0.05 -0.01,0.06 0,0.05 0,0.06 -0.01,0.06 -0.01,0.05 -0.01,0.06 -0.01,0.06 -0.01,0.05 -0.01,0.06 -0.02,0.05 -0.02,0.05 -0.02,0.05 -0.02,0.05 -0.03,0.05 -0.03,0.05 -0.03,0.04 -0.04,0.04 -0.03,0.04 -0.03,0.01 -0.02,0.02 -0.02,0.02 -0.02,0.01 -0.03,0.02 -0.02,0.01 -0.03,0.01 -0.03,0.01 -0.03,0.01 -0.03,0.01 -0.03,0.01 -0.03,0.01 -0.03,0.01 -0.04,0 -0.03,0 -0.04,0.01 -0.04,0 -0.03,0 c -0.88,0 -0.88,-0.81 -0.88,-1.36 v -32.14 c 0,-0.52 0,-1.36 0.84,-1.36 0.88,0 0.88,0.81 0.88,1.36 z"
           inkscape:connector-curvature="0"
           style="fill:#000000;stroke-width:0" /><path
           id="path3029"
           d="m 931.76,432.9 0.17,0.17 0.16,0.16 0.17,0.17 0.17,0.17 0.18,0.17 0.09,0.09 0.1,0.09 0.1,0.1 0.11,0.1 0.11,0.1 0.12,0.11 0.12,0.11 0.13,0.11 0.13,0.12 0.15,0.13 0.15,0.13 0.16,0.13 0.17,0.15 0.18,0.15 0.18,0.15 0.2,0.17 0.21,0.17 0.22,0.18 0.23,0.19 0.25,0.2 0.26,0.2 0.27,0.22 c 0.73,0.59 3.34,2.69 4.35,3.66 2.13,2.09 3.46,3.87 3.46,4.29 0,0.41 -0.46,0.41 -0.59,0.41 -0.32,0 -0.43,-0.06 -0.6,-0.34 -1.08,-1.6 -1.81,-2.13 -2.64,-2.13 -0.42,0 -0.95,0.03 -2,1.05 -1.17,1.18 -1.94,1.42 -2.75,1.42 -2.78,0 -4.67,-3.03 -4.67,-4.06 0,-0.33 0.36,-0.43 0.59,-0.43 0.42,0 0.5,0.1 0.63,0.49 0.53,1.22 2.48,1.3 3.04,1.3 0.8,0 1.71,-0.22 2.19,-0.33 1.92,-0.41 2.16,-0.41 3.03,-0.41 -0.9,-0.95 -1.53,-1.58 -4.84,-4.22 -2.72,-2.15 -3.66,-3.03 -4.31,-3.73 -2.1,-2.05 -3.11,-3.58 -3.11,-3.91 0,-0.4 0.45,-0.4 0.59,-0.4 0.35,0 0.42,0.06 0.6,0.34 0.93,1.33 2.01,2.12 3.2,2.12 0.42,0 0.93,-0.03 1.87,-0.9 1.1,-1.05 1.78,-1.56 2.91,-1.56 3.72,0 6.06,4.21 6.06,5.39 0,0.42 -0.39,0.45 -0.59,0.45 -0.42,0 -0.5,-0.17 -0.63,-0.55 -0.67,-1.75 -2.72,-2.58 -4.44,-2.58 -0.79,0 -1.67,0.18 -2.53,0.38 -1.6,0.34 -1.89,0.34 -2.51,0.34 -0.08,0 -0.59,0 -0.8,-0.03 z"
           inkscape:connector-curvature="0"
           style="fill:#000000;stroke-width:0" /><path
           id="path3031"
           d="m 949.56,455.98 -0.02,0 -0.03,0 -0.03,0 -0.02,0 -0.03,0 -0.03,0 -0.02,0 -0.03,-0.01 -0.03,0 -0.03,0 -0.03,-0.01 -0.02,0 -0.03,-0.01 -0.03,-0.01 -0.02,0 -0.03,-0.01 -0.03,-0.01 -0.02,-0.01 -0.02,-0.02 -0.03,-0.01 -0.02,-0.02 -0.02,-0.02 -0.02,-0.02 0,-0.01 -0.01,-0.01 -0.01,-0.01 -0.01,-0.01 -0.01,-0.01 0,-0.02 -0.01,-0.01 0,-0.01 -0.01,-0.02 0,-0.01 -0.01,-0.02 0,-0.01 -0.01,-0.02 0,-0.02 0,-0.01 0,-0.02 0,-0.02 0,-0.02 c 0,-0.17 0.11,-0.28 0.31,-0.53 3,-2.75 6.34,-7.46 6.34,-16.44 0,-7.28 -2.26,-12.8 -6.03,-16.2 -0.58,-0.6 -0.62,-0.63 -0.62,-0.82 0,-0.17 0.11,-0.4 0.45,-0.4 0.42,0 3.73,2.29 6.03,6.65 1.53,2.89 2.55,6.66 2.55,10.74 0,4.9 -1.47,12.53 -8.36,17.42 z"
           inkscape:connector-curvature="0"
           style="fill:#000000;stroke-width:0" /><path
           id="path3033"
           d="m 973.89,440.64 0.14,1.12 2.38,9.44 c 0.28,1.08 0.31,1.19 1.78,1.19 h 4.08 c 3.23,0 5.25,-0.99 5.25,-3.46 0,-1.07 -0.41,-3.82 -2.16,-5.4 -1.25,-1.11 -3.24,-1.77 -5.75,-1.77 h -5.58 l -0.14,-1.12 h 6.31 c 5.89,0 10.88,3.76 10.88,7.56 0,2.94 -2.86,5.44 -7.64,5.44 h -12.19 c -0.7,0 -1.11,0 -1.11,-0.77 0,-0.48 0.38,-0.48 1.14,-0.48 0.56,0 0.7,0 1.33,-0.08 0.7,-0.06 0.77,-0.14 0.77,-0.49 0,-0.06 0,-0.23 -0.15,-0.76 l -4.59,-18.36 c -0.36,-1.36 -0.39,-1.61 -3.11,-1.61 -0.62,0 -1.05,0 -1.05,-0.77 0,-0.03 0,-0.48 0.57,-0.48 1.01,0 3.51,0.14 4.53,0.14 0.59,0 1.81,0 2.4,-0.03 0.69,-0.05 1.57,-0.11 2.24,-0.11 0.2,0 0.72,0 0.72,0.77 0,0.48 -0.41,0.48 -1.11,0.48 -0.03,0 -0.71,0 -1.33,0.08 -0.8,0.06 -0.8,0.17 -0.8,0.51 0,0.03 0,0.25 0.14,0.77 z"
           inkscape:connector-curvature="0"
           style="fill:#000000;stroke-width:0" /><path
           id="path3035"
           d="m 1005.1,455.98 -0.6,-0.45 -0.6,-0.46 -0.5,-0.47 -0.6,-0.49 -0.5,-0.5 -0.4,-0.51 -0.5,-0.53 -0.4,-0.53 -0.4,-0.54 -0.4,-0.55 -0.32,-0.56 -0.33,-0.56 -0.31,-0.57 -0.29,-0.57 -0.27,-0.58 -0.24,-0.58 -0.23,-0.58 -0.21,-0.58 -0.19,-0.59 -0.17,-0.58 -0.16,-0.58 -0.14,-0.58 -0.12,-0.57 -0.11,-0.57 -0.09,-0.57 -0.08,-0.56 -0.07,-0.55 -0.05,-0.54 -0.04,-0.54 -0.02,-0.53 -0.02,-0.51 -0.01,-0.51 c 0,-4.92 1.47,-12.55 8.37,-17.42 0.3,0 0.7,0 0.7,0.4 0,0.22 -0.1,0.29 -0.3,0.54 -4.7,4.18 -6.39,10.1 -6.39,16.45 0,9.4 3.59,14 6.49,16.58 0.1,0.14 0.2,0.25 0.2,0.42 0,0.42 -0.4,0.42 -0.7,0.42 z"
           inkscape:connector-curvature="0"
           style="fill:#000000;stroke-width:0" /><path
           id="path3037"
           d="m 1026.7,440.95 0,0.09 0,0.1 0,0.09 0.1,0.11 0,0.1 0,0.11 0.1,0.21 0,0.23 0.1,0.22 0,0.22 0.1,0.1 0,0.11 0,0.1 0,0.1 0.1,0.1 0,0.1 0,0.09 0,0.08 0,0.08 0.1,0.08 0,0.07 0,0.07 0,0.05 0,0.06 0,0.04 0,0.04 0,0.01 0,0.02 0,0.01 0,0.01 c 0,0.68 -0.5,1.11 -1.1,1.11 -0.7,0 -1.3,-0.43 -1.5,-1.02 -0.1,-0.27 -0.5,-1.73 -0.7,-2.61 -0.5,-1.98 -0.5,-2.05 -1,-4 -0.5,-1.92 -0.6,-2.2 -0.6,-3.2 0.1,-0.71 -0.1,-1.36 -1,-2.41 -0.4,-0.56 -1.1,-1.16 -2.3,-1.16 -1.4,0 -3.1,0.49 -3.1,3.21 0,1.78 0.9,4.36 1.6,6.14 0.6,1.53 0.8,1.84 0.8,2.44 0,1.67 -1.5,2.95 -3.4,2.95 -3.5,0 -5,-4.74 -5,-5.33 0,-0.45 0.5,-0.45 0.6,-0.45 0.4,0 0.5,0.17 0.6,0.56 0.9,2.89 2.4,4.25 3.8,4.25 0.5,0 0.8,-0.39 0.8,-1.22 0,-0.8 -0.3,-1.56 -0.5,-2.01 -2,-5.1 -2,-5.8 -2,-6.88 0,-4.11 3.8,-4.62 5.7,-4.62 0.6,0 2.3,0 3.9,2.32 0.8,-1.56 2.7,-2.32 4.8,-2.32 3.1,0 4.7,2.67 5.4,4.11 1.5,2.92 2.4,7.28 2.4,8.89 0,2.61 -1.5,2.75 -1.7,2.75 -0.9,0 -1.9,-0.96 -1.9,-1.86 0,-0.58 0.3,-0.86 0.6,-1.08 0.8,-0.69 1.3,-1.67 1.3,-2.78 0,-0.46 -1.5,-9.07 -5.9,-9.07 -2.8,0 -2.8,2.52 -2.8,3.11 0,0.94 0.1,1.5 0.6,3.49 z"
           inkscape:connector-curvature="0"
           style="fill:#000000;stroke-width:0" /><path
           id="path3039"
           d="m 1044.8,454.62 0,0.05 0,0.05 0,0.05 0,0.06 0,0.05 0,0.06 0,0.05 0,0.06 0,0.06 0,0.05 0,0.06 0,0.06 0,0.05 0,0.06 0,0.05 -0.1,0.05 0,0.05 0,0.05 0,0.05 -0.1,0.05 0,0.04 0,0.04 -0.1,0.04 0,0.01 0,0.02 0,0.02 -0.1,0.01 0,0.02 0,0.01 0,0.01 -0.1,0.01 0,0.01 0,0.01 0,0.01 -0.1,0.01 0,0.01 0,0 -0.1,0 0,0.01 -0.1,0 0,0 c -0.9,0 -0.9,-0.81 -0.9,-1.36 v -32.14 c 0,-0.52 0,-1.36 0.9,-1.36 0.8,0 0.8,0.81 0.8,1.36 z"
           inkscape:connector-curvature="0"
           style="fill:#000000;stroke-width:0" /><path
           id="path3041"
           d="m 1055.8,432.9 0.2,0.17 0.2,0.16 0.1,0.17 0.2,0.17 0.2,0.17 0.1,0.09 0.1,0.09 0.1,0.1 0.1,0.1 0.1,0.1 0.1,0.11 0.1,0.11 0.2,0.11 0.1,0.12 0.1,0.13 0.2,0.13 0.1,0.13 0.2,0.15 0.2,0.15 0.2,0.15 0.2,0.17 0.2,0.17 0.2,0.18 0.2,0.19 0.3,0.2 0.2,0.2 0.3,0.22 c 0.7,0.59 3.4,2.69 4.4,3.66 2.1,2.09 3.4,3.87 3.4,4.29 0,0.41 -0.4,0.41 -0.6,0.41 -0.3,0 -0.4,-0.06 -0.6,-0.34 -1,-1.6 -1.8,-2.13 -2.6,-2.13 -0.4,0 -1,0.03 -2,1.05 -1.2,1.18 -1.9,1.42 -2.8,1.42 -2.7,0 -4.6,-3.03 -4.6,-4.06 0,-0.33 0.3,-0.43 0.6,-0.43 0.4,0 0.5,0.1 0.6,0.49 0.5,1.22 2.5,1.3 3,1.3 0.8,0 1.7,-0.22 2.2,-0.33 1.9,-0.41 2.2,-0.41 3.1,-0.41 -1,-0.95 -1.6,-1.58 -4.9,-4.22 -2.7,-2.15 -3.6,-3.03 -4.3,-3.73 -2.1,-2.05 -3.1,-3.58 -3.1,-3.91 0,-0.4 0.4,-0.4 0.6,-0.4 0.3,0 0.4,0.06 0.6,0.34 0.9,1.33 2,2.12 3.2,2.12 0.4,0 0.9,-0.03 1.9,-0.9 1,-1.05 1.7,-1.56 2.9,-1.56 3.7,0 6,4.21 6,5.39 0,0.42 -0.4,0.45 -0.6,0.45 -0.4,0 -0.5,-0.17 -0.6,-0.55 -0.7,-1.75 -2.7,-2.58 -4.4,-2.58 -0.8,0 -1.7,0.18 -2.6,0.38 -1.6,0.34 -1.9,0.34 -2.5,0.34 -0.1,0 -0.6,0 -0.8,-0.03 z"
           inkscape:connector-curvature="0"
           style="fill:#000000;stroke-width:0" /><path
           id="path3043"
           d="m 1073.6,455.98 0,0 0,0 0,0 -0.1,0 0,0 0,0 -0.1,0 0,-0.01 0,0 0,0 -0.1,-0.01 0,0 0,-0.01 -0.1,-0.01 0,0 0,-0.01 0,-0.01 -0.1,-0.01 0,-0.02 0,-0.01 0,-0.02 0,-0.02 -0.1,-0.02 0,-0.01 0,-0.01 0,-0.01 0,-0.01 0,-0.01 0,-0.02 0,-0.01 0,-0.01 0,-0.02 0,-0.01 0,-0.02 0,-0.01 0,-0.02 0,-0.02 0,-0.01 0,-0.02 0,-0.02 -0.1,-0.02 c 0,-0.17 0.2,-0.28 0.4,-0.53 3,-2.75 6.3,-7.46 6.3,-16.44 0,-7.28 -2.3,-12.8 -6,-16.2 -0.6,-0.6 -0.7,-0.63 -0.7,-0.82 0,-0.17 0.2,-0.4 0.5,-0.4 0.4,0 3.7,2.29 6,6.65 1.6,2.89 2.6,6.66 2.6,10.74 0,4.9 -1.5,12.53 -8.4,17.42 z"
           inkscape:connector-curvature="0"
           style="fill:#000000;stroke-width:0" /><polyline
           id="polyline3045"
           points="730,417 1120.4,417 1120.4,419.04 730,419.04 "
           style="fill:#000000;fill-rule:nonzero;stroke-width:0" /><path
           id="path3047"
           d="m 749.14,396.55 0.02,0.02 0.02,0.02 0.01,0.02 0.02,0.02 0.02,0.02 0.01,0.01 0.02,0.02 0.02,0.02 0.01,0.01 0.02,0.02 0.01,0.01 0.01,0.02 0.02,0.01 0.01,0.01 0.01,0.02 0.01,0.01 0.01,0.01 0.01,0.02 0.02,0.02 0.02,0.02 0.02,0.02 0.01,0.02 0.01,0.02 0.02,0.02 0.01,0.01 0.01,0.02 0,0.01 0.01,0.02 0.01,0.01 0,0.01 0.01,0.02 0,0.01 0,0.01 0,0.01 0.01,0.02 0,0.02 0,0.02 0,0.03 c 0,0.11 0,0.17 -0.31,0.52 l -12.38,15.2 H 752 c 5.12,0 7.81,-0.74 8.43,-0.88 3.07,-0.84 6.13,-2.86 7.32,-5.89 h 1.18 l -3.31,8.47 H 733.6 c -0.76,0 -0.79,-0.03 -0.98,-0.2 -0.09,-0.11 -0.09,-0.19 -0.09,-1.16 L 746.5,396.1 732.93,380.87 c -0.4,-0.41 -0.4,-0.49 -0.4,-0.63 0,-0.48 0.45,-0.48 1.07,-0.48 h 32.02 l 3.31,8.95 h -1.18 c -1.19,-3.17 -4.25,-5.01 -6.72,-5.75 -0.71,-0.2 -3.35,-1.01 -8.75,-1.01 h -16.13 z"
           inkscape:connector-curvature="0"
           style="fill:#000000;stroke-width:0" /><path
           id="path3049"
           d="m 777.42,379.55 0.2,0.18 0.2,0.18 0.21,0.18 0.21,0.17 0.22,0.18 0.22,0.18 0.23,0.17 0.23,0.18 0.23,0.18 0.24,0.17 0.24,0.18 0.24,0.18 0.25,0.18 0.25,0.18 0.26,0.18 0.26,0.19 c 1.67,1.2 2.73,2.03 3.78,3.01 1.25,1.17 2.09,2.27 2.09,2.52 0,0.36 -0.37,0.36 -0.51,0.36 -0.36,0 -0.38,-0.03 -0.58,-0.3 -0.94,-1.33 -1.51,-1.42 -1.94,-1.42 -0.4,0 -0.78,0.06 -1.54,0.64 -0.85,0.66 -1.39,1.08 -2.35,1.08 -2.26,0 -3.73,-2.21 -3.73,-2.97 0,-0.38 0.34,-0.38 0.51,-0.38 0.28,0 0.41,0.05 0.54,0.3 0.09,0.3 0.34,0.91 2.34,0.91 0.69,0 1.22,-0.08 2.51,-0.28 0.93,-0.16 1.22,-0.16 1.65,-0.16 -0.72,-0.64 -1.5,-1.28 -3.36,-2.64 -1.8,-1.27 -2.88,-2.03 -4.02,-3.13 -1,-0.9 -2.17,-2.25 -2.17,-2.59 0,-0.36 0.37,-0.36 0.53,-0.36 0.3,0 0.37,0.03 0.52,0.23 0.73,1 1.62,1.49 2.5,1.49 0.68,0 1.04,-0.24 1.93,-0.94 0.71,-0.53 1.27,-0.78 2,-0.78 2.91,0 4.83,2.97 4.83,3.97 0,0.34 -0.42,0.34 -0.53,0.34 -0.39,0 -0.44,-0.09 -0.55,-0.39 -0.56,-1.5 -2.53,-1.76 -3.48,-1.76 -0.52,0 -1.17,0.06 -1.89,0.18 -1.39,0.24 -1.8,0.24 -2.14,0.24 -0.41,0 -0.46,0 -0.63,-0.03 z"
           inkscape:connector-curvature="0"
           style="fill:#000000;stroke-width:0" /><path
           id="path3051"
           d="m 810.95,399.36 0.14,1.12 2.38,9.44 c 0.28,1.08 0.31,1.19 1.78,1.19 h 4.08 c 3.23,0 5.25,-0.99 5.25,-3.46 0,-1.08 -0.41,-3.83 -2.16,-5.4 -1.25,-1.11 -3.23,-1.77 -5.75,-1.77 h -5.58 l -0.14,-1.12 h 6.32 c 5.89,0 10.87,3.76 10.87,7.56 0,2.94 -2.86,5.44 -7.64,5.44 h -12.19 c -0.7,0 -1.11,0 -1.11,-0.77 0,-0.48 0.38,-0.48 1.14,-0.48 0.57,0 0.71,0 1.33,-0.08 0.71,-0.07 0.77,-0.14 0.77,-0.49 0,-0.06 0,-0.23 -0.14,-0.76 l -4.6,-18.36 c -0.36,-1.36 -0.39,-1.61 -3.11,-1.61 -0.62,0 -1.04,0 -1.04,-0.77 0,-0.03 0,-0.48 0.56,-0.48 1.01,0 3.51,0.14 4.53,0.14 0.59,0 1.81,0 2.41,-0.03 0.68,-0.05 1.56,-0.11 2.23,-0.11 0.2,0 0.72,0 0.72,0.76 0,0.49 -0.41,0.49 -1.11,0.49 -0.03,0 -0.7,0 -1.33,0.08 -0.79,0.06 -0.79,0.17 -0.79,0.51 0,0.03 0,0.25 0.14,0.77 z"
           inkscape:connector-curvature="0"
           style="fill:#000000;stroke-width:0" /><path
           id="path3053"
           d="m 842.17,414.7 -0.6,-0.45 -0.58,-0.46 -0.56,-0.47 -0.52,-0.49 -0.5,-0.5 -0.47,-0.51 -0.45,-0.53 -0.42,-0.53 -0.4,-0.54 -0.38,-0.55 -0.35,-0.56 -0.33,-0.56 -0.31,-0.57 -0.29,-0.57 -0.26,-0.58 -0.25,-0.58 -0.23,-0.58 -0.21,-0.58 -0.19,-0.59 -0.17,-0.58 -0.16,-0.58 -0.13,-0.58 -0.13,-0.57 -0.11,-0.57 -0.09,-0.57 -0.08,-0.56 -0.06,-0.55 -0.05,-0.55 -0.04,-0.53 -0.03,-0.53 -0.02,-0.52 0,-0.5 c 0,-4.92 1.47,-12.55 8.37,-17.42 0.28,0 0.69,0 0.69,0.4 0,0.22 -0.09,0.28 -0.34,0.53 -4.64,4.19 -6.35,10.11 -6.35,16.46 0,9.4 3.6,14 6.45,16.58 0.15,0.14 0.24,0.25 0.24,0.42 0,0.42 -0.41,0.42 -0.69,0.42 z"
           inkscape:connector-curvature="0"
           style="fill:#000000;stroke-width:0" /><path
           id="path3055"
           d="m 851.25,391.62 0.17,0.17 0.17,0.16 0.16,0.17 0.17,0.17 0.18,0.17 0.09,0.09 0.1,0.09 0.1,0.1 0.11,0.1 0.11,0.1 0.12,0.1 0.12,0.11 0.13,0.12 0.14,0.12 0.14,0.12 0.15,0.14 0.16,0.13 0.17,0.15 0.18,0.15 0.19,0.15 0.2,0.17 0.2,0.17 0.22,0.18 0.24,0.19 0.24,0.2 0.26,0.2 0.27,0.22 c 0.73,0.59 3.34,2.69 4.36,3.65 2.12,2.1 3.45,3.88 3.45,4.3 0,0.41 -0.45,0.41 -0.59,0.41 -0.31,0 -0.43,-0.06 -0.6,-0.35 -1.08,-1.59 -1.81,-2.12 -2.64,-2.12 -0.42,0 -0.95,0.03 -2,1.05 -1.17,1.18 -1.94,1.42 -2.75,1.42 -2.78,0 -4.67,-3.03 -4.67,-4.06 0,-0.33 0.36,-0.43 0.6,-0.43 0.42,0 0.5,0.1 0.62,0.49 0.53,1.22 2.48,1.29 3.05,1.29 0.79,0 1.7,-0.21 2.18,-0.32 1.93,-0.41 2.16,-0.41 3.03,-0.41 -0.9,-0.95 -1.53,-1.58 -4.84,-4.22 -2.72,-2.15 -3.66,-3.03 -4.31,-3.73 -2.1,-2.05 -3.11,-3.58 -3.11,-3.91 0,-0.41 0.45,-0.41 0.59,-0.41 0.35,0 0.42,0.07 0.6,0.35 0.94,1.33 2.01,2.12 3.2,2.12 0.42,0 0.94,-0.03 1.87,-0.9 1.1,-1.05 1.79,-1.57 2.91,-1.57 3.72,0 6.06,4.22 6.06,5.4 0,0.42 -0.39,0.45 -0.59,0.45 -0.42,0 -0.5,-0.17 -0.63,-0.55 -0.67,-1.75 -2.71,-2.58 -4.43,-2.58 -0.8,0 -1.67,0.18 -2.53,0.38 -1.61,0.34 -1.89,0.34 -2.52,0.34 -0.08,0 -0.59,0 -0.8,-0.03 z"
           inkscape:connector-curvature="0"
           style="fill:#000000;stroke-width:0" /><path
           id="path3057"
           d="m 869.05,414.7 -0.02,0 -0.02,0 -0.03,0 -0.03,0 -0.02,0 -0.03,0 -0.03,-0.01 -0.03,0 -0.02,0 -0.03,0 -0.03,-0.01 -0.03,0 -0.03,-0.01 -0.02,-0.01 -0.03,0 -0.02,-0.01 -0.03,-0.01 -0.02,-0.02 -0.03,-0.01 -0.02,-0.01 -0.02,-0.02 -0.02,-0.02 -0.02,-0.02 -0.01,-0.01 -0.01,-0.01 -0.01,-0.01 0,-0.01 -0.01,-0.01 -0.01,-0.02 0,-0.01 -0.01,-0.01 0,-0.02 -0.01,-0.01 0,-0.02 -0.01,-0.02 0,-0.01 0,-0.02 0,-0.02 -0.01,-0.01 0,-0.02 0,-0.02 c 0,-0.17 0.11,-0.28 0.32,-0.53 3,-2.75 6.34,-7.46 6.34,-16.44 0,-7.28 -2.27,-12.8 -6.03,-16.2 -0.58,-0.6 -0.63,-0.63 -0.63,-0.82 0,-0.17 0.11,-0.4 0.46,-0.4 0.42,0 3.73,2.29 6.03,6.65 1.53,2.89 2.54,6.66 2.54,10.74 0,4.9 -1.46,12.53 -8.36,17.42 z"
           inkscape:connector-curvature="0"
           style="fill:#000000;stroke-width:0" /><path
           id="path3059"
           d="m 893.39,399.36 0.14,1.12 2.37,9.44 c 0.28,1.08 0.32,1.19 1.78,1.19 h 4.08 c 3.24,0 5.25,-0.99 5.25,-3.46 0,-1.08 -0.41,-3.83 -2.16,-5.4 -1.25,-1.11 -3.23,-1.77 -5.75,-1.77 h -5.57 l -0.14,-1.12 h 6.31 c 5.89,0 10.87,3.76 10.87,7.56 0,2.94 -2.85,5.44 -7.64,5.44 h -12.18 c -0.71,0 -1.11,0 -1.11,-0.77 0,-0.48 0.37,-0.48 1.14,-0.48 0.56,0 0.7,0 1.32,-0.08 0.71,-0.07 0.77,-0.14 0.77,-0.49 0,-0.06 0,-0.23 -0.14,-0.76 l -4.59,-18.36 c -0.36,-1.36 -0.39,-1.61 -3.11,-1.61 -0.63,0 -1.05,0 -1.05,-0.77 0,-0.03 0,-0.48 0.56,-0.48 1.02,0 3.52,0.14 4.53,0.14 0.6,0 1.82,0 2.41,-0.03 0.69,-0.05 1.56,-0.11 2.24,-0.11 0.2,0 0.71,0 0.71,0.76 0,0.49 -0.4,0.49 -1.11,0.49 -0.03,0 -0.7,0 -1.32,0.08 -0.8,0.06 -0.8,0.17 -0.8,0.51 0,0.03 0,0.25 0.14,0.77 z"
           inkscape:connector-curvature="0"
           style="fill:#000000;stroke-width:0" /><path
           id="path3061"
           d="m 924.6,414.7 -0.6,-0.45 -0.58,-0.46 -0.56,-0.47 -0.52,-0.49 -0.5,-0.5 -0.47,-0.51 -0.45,-0.53 -0.42,-0.53 -0.4,-0.54 -0.38,-0.55 -0.35,-0.56 -0.33,-0.56 -0.31,-0.57 -0.29,-0.57 -0.26,-0.58 -0.25,-0.58 -0.23,-0.58 -0.21,-0.58 -0.19,-0.59 -0.17,-0.58 -0.16,-0.58 -0.13,-0.58 -0.13,-0.57 -0.11,-0.57 -0.09,-0.57 -0.08,-0.56 -0.06,-0.55 -0.05,-0.55 -0.04,-0.53 -0.03,-0.53 -0.02,-0.52 0,-0.5 c 0,-4.92 1.47,-12.55 8.37,-17.42 0.28,0 0.69,0 0.69,0.4 0,0.22 -0.09,0.28 -0.34,0.53 -4.65,4.19 -6.35,10.11 -6.35,16.46 0,9.4 3.6,14 6.45,16.58 0.15,0.14 0.24,0.25 0.24,0.42 0,0.42 -0.41,0.42 -0.69,0.42 z"
           inkscape:connector-curvature="0"
           style="fill:#000000;stroke-width:0" /><path
           id="path3063"
           d="m 947.72,411.7 0,0 0,0.01 0,0 0,0.01 0.01,0 0,0.01 0,0 0,0.01 0.01,0.01 0,0 0.01,0.02 0,0.02 0.01,0.02 0,0.02 0.01,0.02 0,0.02 0.01,0.02 0.01,0.02 0,0.03 0.01,0.04 0.01,0.03 0,0.02 0.01,0.02 0,0.03 0.01,0.02 0,0.02 0.01,0.02 0,0.02 0,0.01 0.01,0.02 0,0.01 0,0 0,0.01 0,0.01 0,0 0,0.01 0,0 0,0.01 0,0 0,0 0,0 0,0.01 c 0,0.18 -0.13,0.5 -0.54,0.5 -0.71,0 -3.59,-0.29 -4.47,-0.36 -0.28,-0.03 -0.77,-0.07 -0.77,-0.8 0,-0.48 0.49,-0.48 0.91,-0.48 1.67,0 1.67,-0.25 1.67,-0.54 0,-0.23 -0.06,-0.45 -0.14,-0.76 l -1.98,-7.94 c -0.74,1.14 -1.93,2.05 -3.6,2.05 v -0.97 c 2.44,0 3.11,-2.64 3.11,-3.03 0,-0.14 -0.07,-0.39 -0.11,-0.49 l -1.64,-6.51 c -0.23,-0.99 -1,-1.67 -1.76,-2.35 -0.31,-0.26 -1.72,-1.39 -3.22,-1.39 -1.28,0 -2.53,0.91 -2.53,3.38 0,1.86 1,5.69 1.81,7.08 1.59,2.79 3.38,3.31 4.34,3.31 v 0.97 c -4.45,0 -8.98,-4.91 -8.98,-9.92 0,-3.38 2.27,-5.79 5.27,-5.79 1.87,0 3.54,1.08 4.93,2.44 0.67,-2.09 2.69,-2.44 3.6,-2.44 1.25,0 2.12,0.77 2.75,1.85 0.76,1.36 1.22,3.34 1.22,3.48 0,0.46 -0.46,0.46 -0.55,0.46 -0.5,0 -0.53,-0.14 -0.77,-1.08 -0.42,-1.67 -1.09,-3.74 -2.55,-3.74 -0.9,0 -1.15,0.77 -1.15,1.71 0,0.67 0.08,0.98 0.17,1.43 z"
           inkscape:connector-curvature="0"
           style="fill:#000000;stroke-width:0" /><path
           id="path3065"
           d="m 955.35,413.34 0,0.05 0,0.05 0,0.05 0,0.06 -0.01,0.05 0,0.06 0,0.05 -0.01,0.06 0,0.06 -0.01,0.05 -0.01,0.06 -0.01,0.06 -0.01,0.05 -0.01,0.06 -0.02,0.05 -0.02,0.05 -0.02,0.05 -0.02,0.05 -0.03,0.05 -0.03,0.04 -0.03,0.05 -0.04,0.04 -0.04,0.03 -0.02,0.02 -0.02,0.02 -0.02,0.02 -0.02,0.01 -0.03,0.01 -0.02,0.02 -0.03,0.01 -0.03,0.01 -0.03,0.01 -0.03,0.01 -0.03,0.01 -0.03,0.01 -0.03,0 -0.04,0.01 -0.03,0 -0.04,0.01 -0.04,0 -0.04,0 c -0.87,0 -0.87,-0.81 -0.87,-1.36 V 381.2 c 0,-0.52 0,-1.36 0.84,-1.36 0.88,0 0.88,0.81 0.88,1.36 z"
           inkscape:connector-curvature="0"
           style="fill:#000000;stroke-width:0" /><path
           id="path3067"
           d="m 966.32,391.62 0.17,0.17 0.16,0.16 0.17,0.17 0.17,0.17 0.18,0.17 0.09,0.09 0.1,0.09 0.1,0.1 0.11,0.1 0.11,0.1 0.12,0.1 0.12,0.11 0.13,0.12 0.13,0.12 0.15,0.12 0.15,0.14 0.16,0.13 0.17,0.15 0.18,0.15 0.18,0.15 0.2,0.17 0.21,0.17 0.22,0.18 0.23,0.19 0.25,0.2 0.25,0.2 0.27,0.22 c 0.74,0.59 3.35,2.69 4.36,3.65 2.13,2.1 3.46,3.88 3.46,4.3 0,0.41 -0.46,0.41 -0.6,0.41 -0.31,0 -0.42,-0.06 -0.59,-0.35 -1.08,-1.59 -1.81,-2.12 -2.64,-2.12 -0.42,0 -0.95,0.03 -2,1.05 -1.17,1.18 -1.94,1.42 -2.75,1.42 -2.78,0 -4.67,-3.03 -4.67,-4.06 0,-0.33 0.36,-0.43 0.59,-0.43 0.42,0 0.5,0.1 0.63,0.49 0.53,1.22 2.48,1.29 3.04,1.29 0.8,0 1.71,-0.21 2.19,-0.32 1.92,-0.41 2.16,-0.41 3.03,-0.41 -0.9,-0.95 -1.53,-1.58 -4.84,-4.22 -2.72,-2.15 -3.66,-3.03 -4.31,-3.73 -2.1,-2.05 -3.11,-3.58 -3.11,-3.91 0,-0.41 0.45,-0.41 0.59,-0.41 0.34,0 0.42,0.07 0.59,0.35 0.94,1.33 2.02,2.12 3.21,2.12 0.42,0 0.93,-0.03 1.87,-0.9 1.1,-1.05 1.78,-1.57 2.91,-1.57 3.72,0 6.06,4.22 6.06,5.4 0,0.42 -0.39,0.45 -0.59,0.45 -0.43,0 -0.5,-0.17 -0.63,-0.55 -0.67,-1.75 -2.72,-2.58 -4.44,-2.58 -0.79,0 -1.67,0.18 -2.53,0.38 -1.61,0.34 -1.89,0.34 -2.51,0.34 -0.08,0 -0.6,0 -0.8,-0.03 z"
           inkscape:connector-curvature="0"
           style="fill:#000000;stroke-width:0" /><path
           id="path3069"
           d="m 984.12,414.7 -0.02,0 -0.03,0 -0.02,0 -0.03,0 -0.03,0 -0.02,0 -0.03,-0.01 -0.03,0 -0.03,0 -0.03,0 -0.02,-0.01 -0.03,0 -0.03,-0.01 -0.03,-0.01 -0.02,0 -0.03,-0.01 -0.02,-0.01 -0.03,-0.02 -0.02,-0.01 -0.02,-0.01 -0.03,-0.02 -0.02,-0.02 -0.01,-0.02 -0.01,-0.01 -0.01,-0.01 -0.01,-0.01 -0.01,-0.01 0,-0.01 -0.01,-0.02 -0.01,-0.01 0,-0.01 -0.01,-0.02 0,-0.01 -0.01,-0.02 0,-0.02 0,-0.01 -0.01,-0.02 0,-0.02 0,-0.01 0,-0.02 0,-0.02 c 0,-0.17 0.11,-0.28 0.31,-0.53 3,-2.75 6.34,-7.46 6.34,-16.44 0,-7.28 -2.26,-12.8 -6.03,-16.2 -0.57,-0.6 -0.62,-0.63 -0.62,-0.82 0,-0.17 0.11,-0.4 0.45,-0.4 0.42,0 3.74,2.29 6.03,6.65 1.54,2.89 2.55,6.66 2.55,10.74 0,4.9 -1.47,12.53 -8.36,17.42 z"
           inkscape:connector-curvature="0"
           style="fill:#000000;stroke-width:0" /><path
           id="path3071"
           d="m 1008.5,399.36 0.1,1.12 2.4,9.44 c 0.2,1.08 0.3,1.19 1.8,1.19 h 4 c 3.3,0 5.3,-0.99 5.3,-3.46 0,-1.08 -0.4,-3.83 -2.2,-5.4 -1.2,-1.11 -3.2,-1.77 -5.7,-1.77 h -5.6 l -0.1,-1.12 h 6.3 c 5.9,0 10.8,3.76 10.8,7.56 0,2.94 -2.8,5.44 -7.6,5.44 h -12.2 c -0.7,0 -1.1,0 -1.1,-0.77 0,-0.48 0.4,-0.48 1.1,-0.48 0.6,0 0.7,0 1.4,-0.08 0.7,-0.07 0.7,-0.14 0.7,-0.49 0,-0.06 0,-0.23 -0.1,-0.76 l -4.6,-18.36 c -0.4,-1.36 -0.4,-1.61 -3.1,-1.61 -0.63,0 -1.05,0 -1.05,-0.77 0,-0.03 0,-0.48 0.56,-0.48 0.99,0 3.49,0.14 4.49,0.14 0.6,0 1.9,0 2.4,-0.03 0.7,-0.05 1.6,-0.11 2.3,-0.11 0.2,0 0.7,0 0.7,0.76 0,0.49 -0.4,0.49 -1.1,0.49 0,0 -0.7,0 -1.3,0.08 -0.8,0.06 -0.8,0.17 -0.8,0.51 0,0.03 0,0.25 0.1,0.77 z"
           inkscape:connector-curvature="0"
           style="fill:#000000;stroke-width:0" /><path
           id="path3073"
           d="m 1039.7,414.7 -0.6,-0.45 -0.6,-0.46 -0.6,-0.47 -0.5,-0.49 -0.5,-0.5 -0.5,-0.51 -0.4,-0.53 -0.4,-0.53 -0.4,-0.54 -0.4,-0.55 -0.4,-0.56 -0.3,-0.56 -0.3,-0.57 -0.3,-0.57 -0.3,-0.58 -0.2,-0.58 -0.2,-0.58 -0.2,-0.58 -0.2,-0.59 -0.2,-0.58 -0.2,-0.58 -0.1,-0.58 -0.1,-0.57 -0.1,-0.57 -0.1,-0.57 -0.1,-0.56 -0.1,-0.55 0,-0.55 -0.1,-0.53 0,-0.53 0,-0.52 0,-0.5 c 0,-4.92 1.5,-12.55 8.4,-17.42 0.2,0 0.7,0 0.7,0.4 0,0.22 -0.1,0.28 -0.4,0.53 -4.6,4.19 -6.3,10.11 -6.3,16.46 0,9.4 3.6,14 6.4,16.58 0.2,0.14 0.3,0.25 0.3,0.42 0,0.42 -0.5,0.42 -0.7,0.42 z"
           inkscape:connector-curvature="0"
           style="fill:#000000;stroke-width:0" /><path
           id="path3075"
           d="m 1061.2,399.67 0,0.09 0.1,0.09 0,0.1 0,0.1 0,0.11 0.1,0.11 0,0.21 0.1,0.22 0,0.23 0.1,0.22 0,0.1 0,0.11 0.1,0.1 0,0.1 0,0.1 0,0.1 0.1,0.09 0,0.08 0,0.08 0,0.08 0,0.07 0,0.06 0.1,0.06 0,0.05 0,0.05 0,0.04 0,0.01 0,0.01 0,0.02 0,0 c 0,0.69 -0.6,1.11 -1.2,1.11 -0.6,0 -1.3,-0.42 -1.5,-1.01 -0.1,-0.27 -0.4,-1.74 -0.7,-2.61 -0.4,-1.99 -0.4,-2.05 -1,-4 -0.4,-1.92 -0.5,-2.2 -0.5,-3.2 0.1,-0.71 -0.2,-1.36 -1,-2.41 -0.4,-0.56 -1.2,-1.16 -2.3,-1.16 -1.4,0 -3.2,0.49 -3.2,3.21 0,1.78 1,4.36 1.7,6.14 0.6,1.53 0.7,1.84 0.7,2.43 0,1.68 -1.4,2.96 -3.3,2.96 -3.5,0 -5.1,-4.74 -5.1,-5.33 0,-0.45 0.5,-0.45 0.6,-0.45 0.5,0 0.5,0.17 0.7,0.56 0.8,2.89 2.3,4.25 3.7,4.25 0.6,0 0.9,-0.39 0.9,-1.22 0,-0.8 -0.3,-1.56 -0.5,-2.02 -2,-5.09 -2,-5.79 -2,-6.87 0,-4.11 3.7,-4.63 5.6,-4.63 0.7,0 2.4,0 3.9,2.33 0.8,-1.56 2.8,-2.33 4.9,-2.33 3.1,0 4.6,2.68 5.3,4.11 1.5,2.93 2.5,7.29 2.5,8.89 0,2.61 -1.5,2.75 -1.8,2.75 -0.9,0 -1.9,-0.95 -1.9,-1.85 0,-0.58 0.4,-0.86 0.6,-1.08 0.9,-0.69 1.3,-1.67 1.3,-2.78 0,-0.46 -1.4,-9.07 -5.9,-9.07 -2.8,0 -2.8,2.52 -2.8,3.11 0,0.94 0.2,1.5 0.6,3.49 z"
           inkscape:connector-curvature="0"
           style="fill:#000000;stroke-width:0" /><path
           id="path3077"
           d="m 1079.4,413.34 0,0.05 0,0.05 0,0.05 0,0.06 0,0.05 0,0.06 0,0.05 0,0.06 0,0.06 0,0.05 0,0.06 0,0.06 0,0.05 -0.1,0.06 0,0.05 0,0.05 0,0.05 0,0.05 -0.1,0.05 0,0.04 0,0.05 -0.1,0.04 0,0.03 0,0.02 0,0.02 -0.1,0.02 0,0.01 0,0.01 0,0.02 -0.1,0.01 0,0.01 0,0.01 -0.1,0.01 0,0.01 0,0.01 0,0 -0.1,0.01 0,0 -0.1,0.01 0,0 0,0 c -0.9,0 -0.9,-0.81 -0.9,-1.36 V 381.2 c 0,-0.52 0,-1.36 0.8,-1.36 0.9,0 0.9,0.81 0.9,1.36 z"
           inkscape:connector-curvature="0"
           style="fill:#000000;stroke-width:0" /><path
           id="path3079"
           d="m 1090.4,391.62 0.2,0.17 0.1,0.16 0.2,0.17 0.2,0.17 0.1,0.17 0.1,0.09 0.1,0.09 0.1,0.1 0.1,0.1 0.1,0.1 0.2,0.1 0.1,0.11 0.1,0.12 0.1,0.12 0.2,0.12 0.1,0.14 0.2,0.13 0.2,0.15 0.2,0.15 0.1,0.15 0.2,0.17 0.2,0.17 0.3,0.18 0.2,0.19 0.2,0.2 0.3,0.2 0.3,0.22 c 0.7,0.59 3.3,2.69 4.3,3.65 2.2,2.1 3.5,3.88 3.5,4.3 0,0.41 -0.5,0.41 -0.6,0.41 -0.3,0 -0.4,-0.06 -0.6,-0.35 -1.1,-1.59 -1.8,-2.12 -2.6,-2.12 -0.5,0 -1,0.03 -2,1.05 -1.2,1.18 -2,1.42 -2.8,1.42 -2.8,0 -4.7,-3.03 -4.7,-4.06 0,-0.33 0.4,-0.43 0.6,-0.43 0.4,0 0.5,0.1 0.7,0.49 0.5,1.22 2.4,1.29 3,1.29 0.8,0 1.7,-0.21 2.2,-0.32 1.9,-0.41 2.1,-0.41 3,-0.41 -0.9,-0.95 -1.5,-1.58 -4.8,-4.22 -2.7,-2.15 -3.7,-3.03 -4.3,-3.73 -2.1,-2.05 -3.1,-3.58 -3.1,-3.91 0,-0.41 0.4,-0.41 0.5,-0.41 0.4,0 0.5,0.07 0.6,0.35 1,1.33 2.1,2.12 3.2,2.12 0.5,0 1,-0.03 1.9,-0.9 1.1,-1.05 1.8,-1.57 2.9,-1.57 3.7,0 6.1,4.22 6.1,5.4 0,0.42 -0.4,0.45 -0.6,0.45 -0.4,0 -0.5,-0.17 -0.6,-0.55 -0.7,-1.75 -2.8,-2.58 -4.5,-2.58 -0.8,0 -1.6,0.18 -2.5,0.38 -1.6,0.34 -1.9,0.34 -2.5,0.34 -0.1,0 -0.6,0 -0.8,-0.03 z"
           inkscape:connector-curvature="0"
           style="fill:#000000;stroke-width:0" /><path
           id="path3081"
           d="m 1108.2,414.7 0,0 -0.1,0 0,0 0,0 0,0 -0.1,0 0,-0.01 0,0 -0.1,0 0,0 0,-0.01 0,0 -0.1,-0.01 0,-0.01 0,0 0,-0.01 -0.1,-0.01 0,-0.02 0,-0.01 0,-0.01 -0.1,-0.02 0,-0.02 0,-0.02 0,-0.01 0,-0.01 0,-0.01 0,-0.01 0,-0.01 0,-0.02 -0.1,-0.01 0,-0.01 0,-0.02 0,-0.01 0,-0.02 0,-0.02 0,-0.01 0,-0.02 0,-0.02 0,-0.01 0,-0.02 0,-0.02 c 0,-0.17 0.1,-0.28 0.3,-0.53 3,-2.75 6.4,-7.46 6.4,-16.44 0,-7.28 -2.3,-12.8 -6.1,-16.2 -0.5,-0.6 -0.6,-0.63 -0.6,-0.82 0,-0.17 0.1,-0.4 0.5,-0.4 0.4,0 3.7,2.29 6,6.65 1.5,2.89 2.5,6.66 2.5,10.74 0,4.9 -1.4,12.53 -8.3,17.42 z"
           inkscape:connector-curvature="0"
           style="fill:#000000;stroke-width:0" /></g>    </g>
  </g>
</svg>
