<?xml version="1.0" encoding="UTF-8" standalone="no"?>
<!-- Created with Inkscape (http://www.inkscape.org/) -->

<svg
   xmlns:dc="http://purl.org/dc/elements/1.1/"
   xmlns:cc="http://creativecommons.org/ns#"
   xmlns:rdf="http://www.w3.org/1999/02/22-rdf-syntax-ns#"
   xmlns:svg="http://www.w3.org/2000/svg"
   xmlns="http://www.w3.org/2000/svg"
   xmlns:sodipodi="http://sodipodi.sourceforge.net/DTD/sodipodi-0.dtd"
   xmlns:inkscape="http://www.inkscape.org/namespaces/inkscape"
   width="280.50705"
   height="55.756405"
   id="svg3152"
   version="1.1"
   inkscape:version="0.48.4 r9939"
   sodipodi:docname="EM_mstep_Pz.svg">
  <sodipodi:namedview
     id="base"
     pagecolor="#ffffff"
     bordercolor="#666666"
     borderopacity="1.0"
     inkscape:pageopacity="0.0"
     inkscape:pageshadow="2"
     inkscape:zoom="2.8"
     inkscape:cx="115.59422"
     inkscape:cy="22.973224"
     inkscape:document-units="px"
     inkscape:current-layer="layer1"
     showgrid="false"
     inkscape:window-width="1440"
     inkscape:window-height="839"
     inkscape:window-x="0"
     inkscape:window-y="22"
     inkscape:window-maximized="1"
     fit-margin-top="10"
     fit-margin-left="10"
     fit-margin-bottom="10"
     fit-margin-right="10" />
  <defs
     id="defs3154" />
  <metadata
     id="metadata3157">
    <rdf:RDF>
      <cc:Work
         rdf:about="">
        <dc:format>image/svg+xml</dc:format>
        <dc:type
           rdf:resource="http://purl.org/dc/dcmitype/StillImage" />
        <dc:title />
      </cc:Work>
    </rdf:RDF>
  </metadata>
  <g
     id="layer1"
     inkscape:groupmode="layer"
     inkscape:label="Layer 1"
     transform="translate(-361.00835,-375.23416)">
    <g
       id="g6420"
       transform="matrix(0.4120981,0,0,0.4120981,247.27093,259.75819)">
      <g
         word-spacing="normal"
         letter-spacing="normal"
         font-size-adjust="none"
         font-stretch="normal"
         font-weight="normal"
         font-variant="normal"
         font-style="normal"
         stroke-miterlimit="10.433"
         xml:space="preserve"
         transform="matrix(1.0629921,0,0,-1.0629921,-186.02362,789.27165)"
         id="content"
         style="font-style:normal;font-variant:normal;font-weight:normal;font-stretch:normal;letter-spacing:normal;word-spacing:normal;text-anchor:start;fill:none;stroke:#000000;stroke-linecap:butt;stroke-linejoin:miter;stroke-miterlimit:10.43299961;stroke-opacity:1;stroke-dasharray:none;stroke-dashoffset:0"><path
           id="path6423"
           d="m 470.61,418.95 0.21,1.28 3.39,13.56 c 0.43,1.74 0.54,1.89 2.68,1.89 h 4.79 c 4.14,0 6.78,-1.34 6.78,-4.78 0,-1.95 -1,-6.23 -2.94,-8.03 -2.5,-2.23 -5.48,-2.64 -7.69,-2.64 h -7.01 l -0.21,-1.28 h 8.47 c 7.08,0 14,5.17 14,10.75 0,3.84 -3.28,7.53 -9.81,7.53 h -16.14 c -0.95,0 -1.5,0 -1.5,-0.95 0,-0.6 0.45,-0.6 1.45,-0.6 0.64,0 1.55,-0.04 2.14,-0.09 0.8,-0.11 1.1,-0.25 1.1,-0.8 0,-0.2 -0.05,-0.36 -0.21,-0.95 l -6.67,-26.75 c -0.5,-1.95 -0.59,-2.34 -4.53,-2.34 -0.84,0 -1.39,0 -1.39,-0.96 0,-0.59 0.59,-0.59 0.73,-0.59 1.41,0 4.94,0.16 6.33,0.16 1.05,0 2.14,-0.07 3.19,-0.07 1.11,0 2.2,-0.09 3.25,-0.09 0.34,0 0.98,0 0.98,1 0,0.55 -0.43,0.55 -1.39,0.55 -1.84,0 -3.23,0 -3.23,0.89 0,0.29 0.09,0.54 0.14,0.84 z"
           inkscape:connector-curvature="0"
           style="fill:#000000;stroke-width:0" /><path
           id="path6425"
           d="m 511,391.25 0,0.02 0,0.03 0,0.01 0,0.02 0,0.01 -0.01,0.02 0,0.01 -0.01,0.02 -0.01,0.02 -0.01,0.02 -0.01,0.02 -0.02,0.03 -0.01,0.02 -0.02,0.03 -0.02,0.03 -0.03,0.03 -0.02,0.03 -0.03,0.04 -0.02,0.02 -0.01,0.02 -0.02,0.02 -0.02,0.02 -0.02,0.02 -0.02,0.03 -0.02,0.02 -0.02,0.02 -0.02,0.03 -0.03,0.02 -0.02,0.03 -0.03,0.03 -0.03,0.03 -0.02,0.03 -0.03,0.03 -0.03,0.03 -0.03,0.03 -0.03,0.03 -0.04,0.04 -0.03,0.03 -0.04,0.04 -0.03,0.03 -0.04,0.04 -0.04,0.04 c -6.22,6.28 -7.81,15.69 -7.81,23.31 0,8.67 1.89,17.35 8.01,23.56 0.64,0.61 0.64,0.71 0.64,0.86 0,0.35 -0.18,0.49 -0.48,0.49 -0.5,0 -4.98,-3.38 -7.92,-9.7 -2.55,-5.49 -3.14,-11.02 -3.14,-15.21 0,-3.89 0.54,-9.9 3.28,-15.54 2.98,-6.13 7.28,-9.36 7.78,-9.36 0.3,0 0.48,0.14 0.48,0.5 z"
           inkscape:connector-curvature="0"
           style="fill:#000000;stroke-width:0" /><path
           id="path6427"
           d="m 520.46,407.34 0.25,0.27 0.24,0.25 0.24,0.25 0.22,0.24 0.23,0.23 0.21,0.22 0.21,0.22 0.21,0.21 0.2,0.2 0.2,0.19 0.19,0.19 0.19,0.19 0.18,0.17 0.18,0.18 0.35,0.33 0.35,0.32 0.33,0.3 0.33,0.29 0.32,0.29 0.65,0.56 0.32,0.29 0.34,0.28 c 0,0.05 3.08,2.69 4.87,4.49 4.74,4.64 5.83,7.03 5.83,7.21 0,0.5 -0.45,0.5 -0.55,0.5 -0.34,0 -0.5,-0.09 -0.75,-0.54 -1.48,-2.39 -2.53,-3.19 -3.73,-3.19 -1.2,0 -1.8,0.75 -2.55,1.59 -0.93,1.16 -1.78,2.14 -3.43,2.14 -3.74,0 -6.02,-4.62 -6.02,-5.67 0,-0.25 0.14,-0.54 0.59,-0.54 0.46,0 0.55,0.25 0.64,0.54 0.96,2.3 3.85,2.35 4.24,2.35 1.05,0 2,-0.36 3.14,-0.75 2,-0.75 2.55,-0.75 3.84,-0.75 -1.79,-2.14 -5.98,-5.74 -6.92,-6.53 l -4.48,-4.18 c -3.39,-3.34 -5.14,-6.18 -5.14,-6.53 0,-0.5 0.5,-0.5 0.59,-0.5 0.41,0 0.5,0.1 0.8,0.64 1.15,1.75 2.64,3.1 4.23,3.1 1.16,0 1.66,-0.46 2.89,-1.89 0.86,-1.05 1.75,-1.85 3.19,-1.85 4.94,0 7.83,6.33 7.83,7.67 0,0.25 -0.21,0.5 -0.6,0.5 -0.45,0 -0.54,-0.29 -0.7,-0.65 -1.14,-3.24 -4.33,-4.17 -5.98,-4.17 -0.99,0 -1.89,0.29 -2.94,0.64 -1.69,0.64 -2.44,0.84 -3.49,0.84 -0.09,0 -0.89,0 -1.34,-0.14 z"
           inkscape:connector-curvature="0"
           style="fill:#000000;stroke-width:0" /><path
           id="path6429"
           d="m 553.54,415.65 0,0.37 0,0.39 -0.01,0.39 -0.02,0.41 -0.04,0.84 -0.06,0.88 -0.08,0.92 -0.1,0.95 -0.14,0.97 -0.16,1.01 -0.2,1.02 -0.23,1.03 -0.27,1.05 -0.3,1.06 -0.35,1.07 -0.39,1.07 -0.22,0.53 -0.22,0.53 -0.24,0.53 -0.25,0.53 c -2.98,6.12 -7.26,9.36 -7.76,9.36 -0.3,0 -0.5,-0.19 -0.5,-0.49 0,-0.15 0,-0.25 0.93,-1.15 4.89,-4.92 7.74,-12.85 7.74,-23.27 0,-8.51 -1.85,-17.28 -8.03,-23.56 -0.64,-0.59 -0.64,-0.7 -0.64,-0.84 0,-0.3 0.2,-0.5 0.5,-0.5 0.5,0 4.97,3.39 7.92,9.71 2.53,5.47 3.12,11 3.12,15.19 z"
           inkscape:connector-curvature="0"
           style="fill:#000000;stroke-width:0" /><path
           id="path6431"
           d="m 606.62,419.5 0.14,0 0.14,0 0.15,0 0.07,0.01 0.07,0 0.08,0.01 0.07,0.01 0.07,0.01 0.07,0.01 0.07,0.01 0.06,0.02 0.07,0.02 0.06,0.02 0.06,0.02 0.06,0.03 0.06,0.03 0.05,0.04 0.05,0.03 0.05,0.05 0.04,0.04 0.04,0.05 0.02,0.03 0.01,0.03 0.02,0.02 0.02,0.03 0.01,0.03 0.01,0.04 0.02,0.03 0.01,0.04 0.01,0.03 0,0.04 0.01,0.04 0.01,0.04 0,0.04 0.01,0.04 0,0.04 0,0.05 c 0,1 -0.96,1 -1.64,1 h -29.85 c -0.7,0 -1.64,0 -1.64,-1 0,-0.98 0.94,-0.98 1.69,-0.98 z"
           inkscape:connector-curvature="0"
           style="fill:#000000;stroke-width:0" /><path
           id="path6433"
           d="m 606.67,409.82 0.06,0 0.07,0 0.14,0.01 0.13,0 0.07,0 0.07,0.01 0.07,0.01 0.07,0 0.07,0.01 0.07,0.02 0.07,0.01 0.06,0.02 0.06,0.02 0.07,0.02 0.06,0.02 0.05,0.03 0.06,0.03 0.05,0.04 0.05,0.04 0.05,0.04 0.04,0.05 0.02,0.02 0.02,0.03 0.02,0.02 0.01,0.03 0.02,0.03 0.02,0.03 0.01,0.03 0.01,0.03 0.02,0.04 0.01,0.03 0.01,0.04 0,0.04 0.01,0.04 0.01,0.04 0,0.04 0.01,0.04 0,0.05 0,0.04 c 0,1 -0.96,1 -1.69,1 h -29.75 c -0.75,0 -1.69,0 -1.69,-1 0,-1 0.94,-1 1.64,-1 z"
           inkscape:connector-curvature="0"
           style="fill:#000000;stroke-width:0" /><path
           id="path6435"
           d="m 650.26,437.95 0.02,0.02 0.02,0.02 0.01,0.02 0.02,0.02 0.02,0.02 0.02,0.01 0.01,0.02 0.02,0.02 0.01,0.01 0.02,0.02 0.01,0.01 0.01,0.02 0.02,0.01 0.01,0.01 0.01,0.02 0.01,0.01 0.01,0.01 0.01,0.01 0.02,0.03 0.02,0.02 0.02,0.02 0.01,0.02 0.01,0.02 0.02,0.01 0.01,0.02 0.01,0.02 0,0.01 0.01,0.02 0.01,0.01 0,0.01 0.01,0.02 0,0.01 0,0.01 0.01,0.01 0,0.01 0,0.03 0,0.02 0,0.03 c 0,0.11 0,0.17 -0.31,0.51 l -12.38,15.21 h 15.13 c 5.12,0 7.81,-0.74 8.43,-0.88 3.07,-0.84 6.13,-2.86 7.32,-5.89 h 1.18 l -3.31,8.47 h -32.01 c -0.77,0 -0.8,-0.03 -0.99,-0.2 -0.09,-0.11 -0.09,-0.19 -0.09,-1.16 l 13.97,-17.14 -13.57,-15.23 c -0.4,-0.41 -0.4,-0.49 -0.4,-0.63 0,-0.48 0.45,-0.48 1.08,-0.48 h 32.01 l 3.31,8.95 h -1.18 c -1.19,-3.17 -4.25,-5.02 -6.72,-5.75 -0.7,-0.2 -3.35,-1.02 -8.75,-1.02 h -16.13 z"
           inkscape:connector-curvature="0"
           style="fill:#000000;stroke-width:0" /><path
           id="path6437"
           d="m 689.32,435.02 0.01,0.02 0,0.01 0.01,0.02 0,0.01 0.01,0.02 0,0.01 0.01,0.02 0,0.01 0.01,0.02 0,0.03 0.01,0.02 0.01,0.02 0,0.02 0.01,0.02 0,0.02 0.01,0.01 0,0.02 0,0.02 0.01,0.01 0,0.01 0,0.02 0,0.01 0.01,0.01 0,0.01 0,0.01 0,0.01 0,0.02 0,0.02 0,0.03 0,0.02 0,0.01 0,0.01 c 0,0.42 -0.37,0.42 -0.78,0.41 l -3.06,-0.24 c -0.42,-0.01 -0.47,-0.05 -0.59,-0.14 -0.1,-0.12 -0.18,-0.42 -0.18,-0.58 0,-0.42 0.4,-0.42 0.75,-0.42 0.02,0 0.47,0 0.85,-0.05 0.47,-0.04 0.5,-0.12 0.5,-0.32 0,-0.13 -0.2,-0.88 -0.3,-1.32 l -1.17,-4.68 c -0.48,0.64 -1.42,1.5 -3,1.5 v -0.86 c 1.12,0 2.2,-0.68 2.59,-2.16 l -1.14,-4.69 c -0.11,-0.37 -0.11,-0.42 -0.55,-0.92 -0.92,-1.05 -2.21,-1.81 -3.46,-1.81 -0.88,0 -2.19,0.47 -2.19,2.53 0,1.16 0.59,3.76 1.47,5.06 0.97,1.38 2.23,1.99 3.28,1.99 v 0.86 c -3.5,0 -7,-3.43 -7,-6.96 0,-2.54 1.87,-4.34 4.36,-4.34 2.04,0 3.64,1.45 3.94,1.75 0.45,-1.22 1.82,-1.75 2.93,-1.75 1,0 1.67,0.58 2.21,1.4 0.64,0.97 0.98,2.29 0.98,2.47 0,0.35 -0.42,0.35 -0.52,0.35 -0.45,0 -0.46,-0.16 -0.59,-0.55 -0.45,-1.84 -1.09,-2.81 -1.97,-2.81 -0.7,0 -1,0.54 -1,1.31 0,0.28 0.03,0.55 0.1,0.8 z"
           inkscape:connector-curvature="0"
           style="fill:#000000;stroke-width:0" /><path
           id="path6439"
           d="m 719.85,437.95 0.02,0.02 0.02,0.02 0.02,0.02 0.02,0.02 0.02,0.02 0.01,0.01 0.02,0.02 0.01,0.02 0.02,0.01 0.01,0.02 0.02,0.01 0.01,0.02 0.01,0.01 0.02,0.01 0.01,0.02 0.01,0.01 0.01,0.01 0.01,0.01 0.02,0.03 0.02,0.02 0.01,0.02 0.02,0.02 0.01,0.02 0.01,0.01 0.01,0.02 0.01,0.02 0.01,0.01 0.01,0.02 0,0.01 0.01,0.01 0,0.02 0.01,0.01 0,0.01 0,0.01 0,0.01 0.01,0.03 0,0.02 0,0.03 c 0,0.11 0,0.17 -0.31,0.51 l -12.38,15.21 h 15.13 c 5.12,0 7.81,-0.74 8.43,-0.88 3.07,-0.84 6.13,-2.86 7.32,-5.89 h 1.18 l -3.31,8.47 h -32.02 c -0.76,0 -0.79,-0.03 -0.98,-0.2 -0.09,-0.11 -0.09,-0.19 -0.09,-1.16 l 13.97,-17.14 -13.57,-15.23 c -0.4,-0.41 -0.4,-0.49 -0.4,-0.63 0,-0.48 0.45,-0.48 1.07,-0.48 h 32.02 l 3.31,8.95 h -1.18 c -1.19,-3.17 -4.25,-5.02 -6.72,-5.75 -0.71,-0.2 -3.35,-1.02 -8.75,-1.02 h -16.13 z"
           inkscape:connector-curvature="0"
           style="fill:#000000;stroke-width:0" /><path
           id="path6441"
           d="m 755.32,420.2 0.03,-0.07 0.04,-0.06 0.05,-0.07 0.04,-0.07 0.06,-0.07 0.06,-0.07 0.06,-0.07 0.07,-0.08 0.07,-0.07 0.08,-0.08 0.09,-0.07 0.09,-0.07 0.09,-0.08 0.1,-0.07 0.11,-0.07 0.12,-0.07 0.12,-0.07 0.13,-0.07 0.13,-0.06 0.14,-0.06 0.15,-0.06 0.16,-0.05 0.16,-0.05 0.17,-0.05 0.18,-0.04 0.19,-0.04 0.19,-0.03 0.2,-0.03 0.22,-0.02 0.22,-0.02 0.22,-0.01 0.24,0 c 4.73,0 6.02,7.98 6.02,9.17 0,1.72 -1,2.14 -1.42,2.14 -0.79,0 -1.47,-0.8 -1.47,-1.44 0,-0.47 0.31,-0.72 0.47,-0.84 0.7,-0.53 0.96,-1.17 0.96,-1.91 0,-0.64 -1.25,-6.26 -4.43,-6.26 -0.94,0 -2.4,0.29 -2.4,2.26 0,0.05 0,0.52 0.18,1.27 0.23,1 0.95,3.86 1.29,5.19 0.11,0.39 0.11,0.43 0.11,0.56 0,0.55 -0.45,0.87 -0.92,0.87 -0.41,0 -0.86,-0.21 -1.09,-0.64 -0.11,-0.17 -0.33,-1.09 -0.49,-1.65 -0.34,-1.41 -0.34,-1.47 -0.71,-2.86 -0.21,-0.8 -0.43,-1.74 -0.46,-2.42 0.08,-0.39 0,-0.52 -0.22,-0.94 -0.95,-1.64 -2,-1.64 -2.39,-1.64 -0.37,0 -1.33,0.04 -1.97,0.59 -0.64,0.58 -0.64,1.5 -0.64,1.77 0,1.01 0.31,2.04 1.36,4.58 0.2,0.5 0.36,0.87 0.36,1.29 0,1.22 -1.17,2.21 -2.72,2.21 -2.62,0 -4.01,-3.19 -4.01,-3.86 0,-0.36 0.4,-0.36 0.53,-0.36 0.42,0 0.44,0.12 0.56,0.5 0.53,1.72 1.7,2.86 2.81,2.86 0.49,0 0.75,-0.27 0.75,-0.94 0,-0.5 -0.09,-0.78 -0.42,-1.5 -1.31,-3.24 -1.31,-3.88 -1.31,-4.49 0,-2.86 2.56,-3.51 4.58,-3.51 0.5,0 1.89,0 3.11,1.8 z"
           inkscape:connector-curvature="0"
           style="fill:#000000;stroke-width:0" /><path
           id="path6443"
           d="m 781.73,432.03 -0.01,-0.05 -0.02,-0.04 -0.01,-0.05 -0.01,-0.05 -0.02,-0.05 -0.01,-0.05 -0.02,-0.05 -0.01,-0.05 -0.03,-0.11 -0.03,-0.12 -0.03,-0.11 -0.02,-0.11 -0.02,-0.05 -0.01,-0.05 -0.01,-0.05 -0.01,-0.05 -0.01,-0.05 -0.01,-0.04 -0.01,-0.05 -0.01,-0.04 -0.01,-0.04 0,-0.03 -0.01,-0.03 0,-0.03 -0.01,-0.02 0,-0.03 0,0 0,-0.01 0,-0.01 0,0 c 0,-0.77 0.62,-1.11 1.18,-1.11 0.63,0 1.18,0.45 1.36,0.76 0.17,0.31 0.46,1.42 0.63,2.16 0.17,0.65 0.54,2.26 0.76,3.14 0.21,0.76 0.43,1.53 0.6,2.33 0.37,1.43 0.45,1.7 1.45,3.14 0.98,1.39 2.63,3.2 5.23,3.2 2.02,0 2.05,-1.78 2.05,-2.44 0,-2.09 -1.48,-5.95 -2.05,-7.42 -0.38,-0.98 -0.53,-1.3 -0.53,-1.89 0,-1.84 1.55,-2.98 3.32,-2.98 3.48,0 5.01,4.79 5.01,5.32 0,0.46 -0.45,0.46 -0.55,0.46 -0.5,0 -0.53,-0.21 -0.67,-0.6 -0.79,-2.78 -2.29,-4.22 -3.68,-4.22 -0.74,0 -0.88,0.49 -0.88,1.22 0,0.8 0.17,1.25 0.8,2.83 0.42,1.08 1.86,4.77 1.86,6.72 0,3.39 -2.69,3.97 -4.53,3.97 -2.9,0 -4.85,-1.77 -5.9,-3.16 -0.25,2.39 -2.29,3.16 -3.73,3.16 -1.5,0 -2.3,-1.08 -2.75,-1.88 -0.77,-1.28 -1.25,-3.28 -1.25,-3.45 0,-0.45 0.48,-0.45 0.6,-0.45 0.48,0 0.51,0.11 0.76,1.04 0.52,2.07 1.19,3.77 2.55,3.77 0.9,0 1.14,-0.77 1.14,-1.7 0,-0.67 -0.32,-1.96 -0.57,-2.89 -0.23,-0.96 -0.57,-2.38 -0.76,-3.14 z"
           inkscape:connector-curvature="0"
           style="fill:#000000;stroke-width:0" /><path
           id="path6445"
           d="m 814.45,455.98 -0.6,-0.45 -0.58,-0.46 -0.55,-0.47 -0.53,-0.49 -0.5,-0.5 -0.47,-0.51 -0.45,-0.53 -0.42,-0.53 -0.4,-0.54 -0.38,-0.55 -0.35,-0.56 -0.33,-0.56 -0.31,-0.57 -0.28,-0.57 -0.27,-0.58 -0.25,-0.58 -0.23,-0.58 -0.21,-0.58 -0.19,-0.59 -0.17,-0.58 -0.15,-0.58 -0.14,-0.58 -0.13,-0.57 -0.11,-0.57 -0.09,-0.57 -0.08,-0.56 -0.06,-0.55 -0.05,-0.54 -0.04,-0.54 -0.03,-0.53 -0.02,-0.51 0,-0.51 c 0,-4.92 1.47,-12.55 8.37,-17.42 0.28,0 0.69,0 0.69,0.4 0,0.22 -0.09,0.29 -0.34,0.54 -4.64,4.18 -6.35,10.1 -6.35,16.45 0,9.4 3.6,14 6.46,16.58 0.14,0.14 0.23,0.25 0.23,0.42 0,0.42 -0.41,0.42 -0.69,0.42 z"
           inkscape:connector-curvature="0"
           style="fill:#000000;stroke-width:0" /><path
           id="path6447"
           d="m 836,440.95 0.03,0.09 0.02,0.1 0.03,0.09 0.02,0.11 0.03,0.1 0.03,0.11 0.05,0.21 0.06,0.23 0.05,0.22 0.05,0.22 0.03,0.1 0.03,0.11 0.02,0.1 0.02,0.1 0.03,0.1 0.02,0.1 0.02,0.09 0.02,0.08 0.02,0.08 0.01,0.08 0.02,0.07 0.01,0.07 0.01,0.05 0.01,0.06 0.01,0.04 0.01,0.04 0,0.01 0,0.02 0,0.01 0,0.01 c 0,0.68 -0.55,1.11 -1.14,1.11 -0.67,0 -1.3,-0.43 -1.5,-1.02 -0.11,-0.27 -0.45,-1.73 -0.7,-2.61 -0.49,-1.98 -0.49,-2.05 -1,-4 -0.46,-1.92 -0.54,-2.2 -0.57,-3.2 0.15,-0.71 -0.14,-1.36 -0.98,-2.41 -0.44,-0.56 -1.14,-1.16 -2.33,-1.16 -1.36,0 -3.14,0.49 -3.14,3.21 0,1.78 0.98,4.36 1.67,6.14 0.6,1.53 0.74,1.84 0.74,2.44 0,1.67 -1.43,2.95 -3.31,2.95 -3.52,0 -5.08,-4.74 -5.08,-5.33 0,-0.45 0.48,-0.45 0.59,-0.45 0.49,0 0.52,0.17 0.62,0.56 0.88,2.89 2.38,4.25 3.77,4.25 0.6,0 0.86,-0.39 0.86,-1.22 0,-0.8 -0.31,-1.56 -0.48,-2.01 -1.99,-5.1 -1.99,-5.8 -1.99,-6.88 0,-4.11 3.74,-4.62 5.61,-4.62 0.67,0 2.38,0 3.94,2.32 0.79,-1.56 2.72,-2.32 4.84,-2.32 3.11,0 4.64,2.67 5.33,4.11 1.5,2.92 2.44,7.28 2.44,8.89 0,2.61 -1.49,2.75 -1.74,2.75 -0.9,0 -1.87,-0.96 -1.87,-1.86 0,-0.58 0.34,-0.86 0.58,-1.08 0.84,-0.69 1.29,-1.67 1.29,-2.78 0,-0.46 -1.46,-9.07 -5.89,-9.07 -2.82,0 -2.82,2.52 -2.82,3.11 0,0.94 0.13,1.5 0.63,3.49 z"
           inkscape:connector-curvature="0"
           style="fill:#000000;stroke-width:0" /><path
           id="path6449"
           d="m 854.79,430.4 0,-0.36 -0.02,-0.37 -0.03,-0.38 -0.04,-0.38 -0.03,-0.2 -0.03,-0.19 -0.04,-0.2 -0.05,-0.19 -0.04,-0.2 -0.06,-0.2 -0.06,-0.2 -0.07,-0.2 -0.08,-0.21 -0.08,-0.2 -0.09,-0.2 -0.1,-0.21 -0.1,-0.2 -0.12,-0.21 -0.12,-0.2 -0.14,-0.21 -0.14,-0.21 -0.15,-0.21 -0.16,-0.2 -0.17,-0.21 -0.18,-0.21 -0.2,-0.21 -0.2,-0.2 -0.22,-0.21 c -0.14,-0.14 -0.25,-0.25 -0.25,-0.42 0,-0.25 0.28,-0.49 0.49,-0.49 0.48,0 3.45,2.78 3.45,6.92 0,2.17 -0.84,3.8 -2.44,3.8 -1.15,0 -1.98,-0.91 -1.98,-1.98 0,-1.11 0.8,-2.02 2.01,-2.02 0.85,0 1.4,0.56 1.44,0.56 z"
           inkscape:connector-curvature="0"
           style="fill:#000000;stroke-width:0" /><path
           id="path6451"
           d="m 879.2,452.98 0.01,0 0,0.01 0,0 0,0.01 0,0 0.01,0.01 0,0 0,0.01 0.01,0.01 0,0.01 0,0.01 0.01,0.02 0,0.02 0.01,0.02 0.01,0.02 0,0.02 0.01,0.02 0,0.03 0.01,0.02 0.01,0.05 0.01,0.02 0,0.02 0.01,0.02 0,0.03 0.01,0.02 0,0.02 0,0.02 0.01,0.02 0,0.01 0.01,0.02 0,0.01 0,0 0,0.01 0,0.01 0,0 0,0.01 0,0 0,0.01 0,0 0,0 0,0.01 0,0 c 0,0.18 -0.14,0.5 -0.54,0.5 -0.71,0 -3.6,-0.28 -4.47,-0.36 -0.28,-0.03 -0.77,-0.06 -0.77,-0.8 0,-0.48 0.49,-0.48 0.91,-0.48 1.67,0 1.67,-0.25 1.67,-0.53 0,-0.24 -0.06,-0.46 -0.14,-0.77 l -1.98,-7.94 c -0.74,1.14 -1.93,2.05 -3.6,2.05 v -0.97 c 2.44,0 3.11,-2.64 3.11,-3.03 0,-0.14 -0.08,-0.39 -0.11,-0.49 l -1.64,-6.51 c -0.23,-0.99 -1,-1.67 -1.76,-2.34 -0.32,-0.27 -1.72,-1.4 -3.22,-1.4 -1.28,0 -2.53,0.91 -2.53,3.38 0,1.86 1,5.69 1.81,7.08 1.59,2.79 3.37,3.31 4.34,3.31 v 0.97 c -4.45,0 -8.98,-4.91 -8.98,-9.92 0,-3.38 2.26,-5.78 5.26,-5.78 1.88,0 3.55,1.07 4.94,2.43 0.67,-2.09 2.69,-2.43 3.59,-2.43 1.25,0 2.13,0.76 2.75,1.84 0.77,1.36 1.22,3.34 1.22,3.48 0,0.46 -0.45,0.46 -0.54,0.46 -0.5,0 -0.54,-0.14 -0.77,-1.08 -0.42,-1.67 -1.09,-3.74 -2.55,-3.74 -0.9,0 -1.15,0.77 -1.15,1.71 0,0.67 0.08,0.98 0.17,1.44 z"
           inkscape:connector-curvature="0"
           style="fill:#000000;stroke-width:0" /><path
           id="path6453"
           d="m 883.21,455.98 -0.02,0 -0.03,0 -0.02,0 -0.03,0 -0.03,0 -0.02,0 -0.03,0 -0.03,-0.01 -0.03,0 -0.03,0 -0.02,-0.01 -0.03,0 -0.03,-0.01 -0.03,-0.01 -0.02,0 -0.03,-0.01 -0.02,-0.01 -0.03,-0.01 -0.02,-0.02 -0.02,-0.01 -0.03,-0.02 -0.02,-0.02 -0.01,-0.02 -0.01,-0.01 -0.01,-0.01 -0.01,-0.01 -0.01,-0.01 0,-0.01 -0.01,-0.02 -0.01,-0.01 0,-0.01 -0.01,-0.02 0,-0.01 -0.01,-0.02 0,-0.01 0,-0.02 -0.01,-0.02 0,-0.01 0,-0.02 0,-0.02 0,-0.02 c 0,-0.17 0.11,-0.28 0.31,-0.53 3,-2.75 6.35,-7.46 6.35,-16.44 0,-7.28 -2.27,-12.8 -6.04,-16.2 -0.57,-0.6 -0.62,-0.63 -0.62,-0.82 0,-0.17 0.11,-0.4 0.45,-0.4 0.42,0 3.74,2.29 6.03,6.65 1.53,2.89 2.55,6.66 2.55,10.74 0,4.9 -1.47,12.53 -8.36,17.42 z"
           inkscape:connector-curvature="0"
           style="fill:#000000;stroke-width:0" /><path
           id="path6455"
           d="m 907.54,440.64 0.14,1.12 2.38,9.44 c 0.28,1.08 0.31,1.19 1.78,1.19 h 4.08 c 3.23,0 5.25,-0.99 5.25,-3.46 0,-1.07 -0.41,-3.82 -2.16,-5.4 -1.25,-1.11 -3.23,-1.77 -5.75,-1.77 h -5.58 l -0.14,-1.12 h 6.31 c 5.9,0 10.88,3.76 10.88,7.56 0,2.94 -2.86,5.44 -7.64,5.44 H 904.9 c -0.7,0 -1.11,0 -1.11,-0.77 0,-0.48 0.38,-0.48 1.14,-0.48 0.57,0 0.71,0 1.33,-0.08 0.71,-0.06 0.77,-0.14 0.77,-0.49 0,-0.06 0,-0.23 -0.14,-0.76 l -4.6,-18.36 c -0.36,-1.36 -0.39,-1.61 -3.11,-1.61 -0.62,0 -1.04,0 -1.04,-0.77 0,-0.03 0,-0.48 0.56,-0.48 1.02,0 3.52,0.14 4.53,0.14 0.59,0 1.81,0 2.41,-0.03 0.68,-0.05 1.56,-0.11 2.23,-0.11 0.2,0 0.72,0 0.72,0.77 0,0.48 -0.41,0.48 -1.11,0.48 -0.03,0 -0.7,0 -1.33,0.08 -0.8,0.06 -0.8,0.17 -0.8,0.51 0,0.03 0,0.25 0.15,0.77 z"
           inkscape:connector-curvature="0"
           style="fill:#000000;stroke-width:0" /><path
           id="path6457"
           d="m 938.76,455.98 -0.61,-0.45 -0.58,-0.46 -0.55,-0.47 -0.52,-0.49 -0.5,-0.5 -0.48,-0.51 -0.44,-0.53 -0.43,-0.53 -0.39,-0.54 -0.38,-0.55 -0.35,-0.56 -0.33,-0.56 -0.31,-0.57 -0.29,-0.57 -0.27,-0.58 -0.24,-0.58 -0.23,-0.58 -0.21,-0.58 -0.19,-0.59 -0.17,-0.58 -0.16,-0.58 -0.14,-0.58 -0.12,-0.57 -0.11,-0.57 -0.09,-0.57 -0.08,-0.56 -0.07,-0.55 -0.05,-0.54 -0.04,-0.54 -0.03,-0.53 -0.01,-0.51 -0.01,-0.51 c 0,-4.92 1.47,-12.55 8.38,-17.42 0.28,0 0.69,0 0.69,0.4 0,0.22 -0.1,0.29 -0.35,0.54 -4.64,4.18 -6.34,10.1 -6.34,16.45 0,9.4 3.59,14 6.45,16.58 0.14,0.14 0.24,0.25 0.24,0.42 0,0.42 -0.41,0.42 -0.69,0.42 z"
           inkscape:connector-curvature="0"
           style="fill:#000000;stroke-width:0" /><path
           id="path6459"
           d="m 947.84,432.9 0.17,0.17 0.16,0.16 0.17,0.17 0.17,0.17 0.18,0.17 0.09,0.09 0.1,0.09 0.1,0.1 0.11,0.1 0.11,0.1 0.11,0.11 0.13,0.11 0.13,0.11 0.13,0.12 0.15,0.13 0.15,0.13 0.16,0.13 0.17,0.15 0.17,0.15 0.19,0.15 0.2,0.17 0.21,0.17 0.22,0.18 0.23,0.19 0.25,0.2 0.25,0.2 0.27,0.22 c 0.74,0.59 3.35,2.69 4.36,3.66 2.13,2.09 3.46,3.87 3.46,4.29 0,0.41 -0.46,0.41 -0.6,0.41 -0.31,0 -0.42,-0.06 -0.59,-0.34 -1.08,-1.6 -1.81,-2.13 -2.64,-2.13 -0.42,0 -0.96,0.03 -2,1.05 -1.17,1.18 -1.94,1.42 -2.75,1.42 -2.78,0 -4.67,-3.03 -4.67,-4.06 0,-0.33 0.36,-0.43 0.59,-0.43 0.42,0 0.5,0.1 0.62,0.49 0.54,1.22 2.49,1.3 3.05,1.3 0.8,0 1.7,-0.22 2.19,-0.33 1.92,-0.41 2.16,-0.41 3.03,-0.41 -0.9,-0.95 -1.53,-1.58 -4.84,-4.22 -2.72,-2.15 -3.66,-3.03 -4.31,-3.73 -2.1,-2.05 -3.12,-3.58 -3.12,-3.91 0,-0.4 0.46,-0.4 0.6,-0.4 0.34,0 0.42,0.06 0.59,0.34 0.94,1.33 2.02,2.12 3.21,2.12 0.42,0 0.93,-0.03 1.87,-0.9 1.1,-1.05 1.78,-1.56 2.91,-1.56 3.72,0 6.06,4.21 6.06,5.39 0,0.42 -0.39,0.45 -0.59,0.45 -0.43,0 -0.5,-0.17 -0.63,-0.55 -0.67,-1.75 -2.72,-2.58 -4.44,-2.58 -0.79,0 -1.67,0.18 -2.53,0.38 -1.61,0.34 -1.89,0.34 -2.51,0.34 -0.08,0 -0.6,0 -0.8,-0.03 z"
           inkscape:connector-curvature="0"
           style="fill:#000000;stroke-width:0" /><path
           id="path6461"
           d="m 969.27,454.62 0,0.05 0,0.05 0,0.05 -0.01,0.06 0,0.05 0,0.06 0,0.05 -0.01,0.06 0,0.06 -0.01,0.05 -0.01,0.06 -0.01,0.06 -0.01,0.05 -0.01,0.06 -0.02,0.05 -0.02,0.05 -0.02,0.05 -0.02,0.05 -0.03,0.05 -0.03,0.05 -0.03,0.04 -0.04,0.04 -0.04,0.04 -0.02,0.01 -0.02,0.02 -0.02,0.02 -0.03,0.01 -0.02,0.02 -0.03,0.01 -0.02,0.01 -0.03,0.01 -0.03,0.01 -0.03,0.01 -0.03,0.01 -0.03,0.01 -0.04,0.01 -0.03,0 -0.03,0 -0.04,0.01 -0.04,0 -0.04,0 c -0.87,0 -0.87,-0.81 -0.87,-1.36 v -32.14 c 0,-0.52 0,-1.36 0.84,-1.36 0.88,0 0.88,0.81 0.88,1.36 z"
           inkscape:connector-curvature="0"
           style="fill:#000000;stroke-width:0" /><path
           id="path6463"
           d="m 992.71,440.95 0.02,0.09 0.03,0.1 0.02,0.09 0.03,0.11 0.02,0.1 0.03,0.11 0.05,0.21 0.06,0.23 0.05,0.22 0.06,0.22 0.02,0.1 0.03,0.11 0.02,0.1 0.03,0.1 0.02,0.1 0.02,0.1 0.02,0.09 0.02,0.08 0.02,0.08 0.02,0.08 0.01,0.07 0.01,0.07 0.02,0.05 0.01,0.06 0,0.04 0.01,0.04 0,0.01 0,0.02 0,0.01 0,0.01 c 0,0.68 -0.54,1.11 -1.14,1.11 -0.67,0 -1.29,-0.43 -1.5,-1.02 -0.11,-0.27 -0.45,-1.73 -0.7,-2.61 -0.49,-1.98 -0.49,-2.05 -1,-4 -0.45,-1.92 -0.53,-2.2 -0.56,-3.2 0.14,-0.71 -0.14,-1.36 -0.99,-2.41 -0.44,-0.56 -1.14,-1.16 -2.32,-1.16 -1.37,0 -3.15,0.49 -3.15,3.21 0,1.78 0.99,4.36 1.68,6.14 0.59,1.53 0.73,1.84 0.73,2.44 0,1.67 -1.42,2.95 -3.31,2.95 -3.52,0 -5.08,-4.74 -5.08,-5.33 0,-0.45 0.48,-0.45 0.59,-0.45 0.49,0 0.52,0.17 0.63,0.56 0.87,2.89 2.37,4.25 3.76,4.25 0.6,0 0.86,-0.39 0.86,-1.22 0,-0.8 -0.31,-1.56 -0.48,-2.01 -1.98,-5.1 -1.98,-5.8 -1.98,-6.88 0,-4.11 3.73,-4.62 5.6,-4.62 0.68,0 2.38,0 3.94,2.32 0.8,-1.56 2.72,-2.32 4.84,-2.32 3.12,0 4.65,2.67 5.33,4.11 1.49,2.92 2.39,7.28 2.39,8.89 0,2.61 -1.4,2.75 -1.68,2.75 -0.91,0 -1.88,-0.96 -1.88,-1.86 0,-0.58 0.34,-0.86 0.58,-1.08 0.84,-0.69 1.3,-1.67 1.3,-2.78 0,-0.46 -1.47,-9.07 -5.89,-9.07 -2.83,0 -2.83,2.52 -2.83,3.11 0,0.94 0.14,1.5 0.64,3.49 z"
           inkscape:connector-curvature="0"
           style="fill:#000000;stroke-width:0" /><path
           id="path6465"
           d="m 1011.5,430.4 0,-0.36 0,-0.37 -0.1,-0.38 0,-0.38 0,-0.2 -0.1,-0.19 0,-0.2 0,-0.19 -0.1,-0.2 -0.1,-0.2 0,-0.2 -0.1,-0.2 -0.1,-0.21 0,-0.2 -0.1,-0.2 -0.1,-0.21 -0.1,-0.2 -0.2,-0.21 -0.1,-0.2 -0.1,-0.21 -0.2,-0.21 -0.1,-0.21 -0.2,-0.2 -0.1,-0.21 -0.2,-0.21 -0.2,-0.21 -0.2,-0.2 -0.2,-0.21 c -0.2,-0.14 -0.3,-0.25 -0.3,-0.42 0,-0.25 0.3,-0.49 0.5,-0.49 0.5,0 3.5,2.78 3.5,6.92 0,2.17 -0.9,3.8 -2.5,3.8 -1.1,0 -2,-0.91 -2,-1.98 0,-1.11 0.8,-2.02 2,-2.02 0.9,0 1.5,0.56 1.5,0.56 z"
           inkscape:connector-curvature="0"
           style="fill:#000000;stroke-width:0" /><path
           id="path6467"
           d="m 1035.9,452.98 0,0 0,0.01 0,0 0,0.01 0,0 0,0.01 0,0 0,0.01 0,0.01 0,0.01 0,0.01 0,0.02 0,0.02 0,0.02 0.1,0.02 0,0.02 0,0.02 0,0.03 0,0.02 0,0.05 0,0.02 0,0.02 0,0.02 0,0.03 0,0.02 0,0.02 0,0.02 0,0.02 0,0.01 0,0.02 0,0.01 0,0 0,0.01 0,0.01 0,0 0,0.01 0,0 0,0.01 0,0 0,0 0,0.01 0,0 c 0,0.18 -0.1,0.5 -0.5,0.5 -0.7,0 -3.6,-0.28 -4.5,-0.36 -0.2,-0.03 -0.7,-0.06 -0.7,-0.8 0,-0.48 0.5,-0.48 0.9,-0.48 1.6,0 1.6,-0.25 1.6,-0.53 0,-0.24 0,-0.46 -0.1,-0.77 l -2,-7.94 c -0.7,1.14 -1.9,2.05 -3.6,2.05 v -0.97 c 2.5,0 3.1,-2.64 3.1,-3.03 0,-0.14 0,-0.39 -0.1,-0.49 l -1.6,-6.51 c -0.3,-0.99 -1,-1.67 -1.8,-2.34 -0.3,-0.27 -1.7,-1.4 -3.2,-1.4 -1.3,0 -2.5,0.91 -2.5,3.38 0,1.86 1,5.69 1.8,7.08 1.6,2.79 3.4,3.31 4.3,3.31 v 0.97 c -4.4,0 -9,-4.91 -9,-9.92 0,-3.38 2.3,-5.78 5.3,-5.78 1.9,0 3.5,1.07 4.9,2.43 0.7,-2.09 2.7,-2.43 3.6,-2.43 1.3,0 2.2,0.76 2.8,1.84 0.7,1.36 1.2,3.34 1.2,3.48 0,0.46 -0.5,0.46 -0.5,0.46 -0.5,0 -0.6,-0.14 -0.8,-1.08 -0.4,-1.67 -1.1,-3.74 -2.6,-3.74 -0.9,0 -1.1,0.77 -1.1,1.71 0,0.67 0.1,0.98 0.2,1.44 z"
           inkscape:connector-curvature="0"
           style="fill:#000000;stroke-width:0" /><path
           id="path6469"
           d="m 1039.9,455.98 0,0 0,0 -0.1,0 0,0 0,0 0,0 -0.1,0 0,-0.01 0,0 -0.1,0 0,-0.01 0,0 0,-0.01 -0.1,-0.01 0,0 0,-0.01 0,-0.01 -0.1,-0.01 0,-0.02 0,-0.01 0,-0.02 -0.1,-0.02 0,-0.02 0,-0.01 0,-0.01 0,-0.01 0,-0.01 0,-0.01 0,-0.02 0,-0.01 0,-0.01 0,-0.02 0,-0.01 0,-0.02 0,-0.01 -0.1,-0.02 0,-0.02 0,-0.01 0,-0.02 0,-0.02 0,-0.02 c 0,-0.17 0.1,-0.28 0.4,-0.53 3,-2.75 6.3,-7.46 6.3,-16.44 0,-7.28 -2.3,-12.8 -6,-16.2 -0.6,-0.6 -0.7,-0.63 -0.7,-0.82 0,-0.17 0.1,-0.4 0.5,-0.4 0.4,0 3.7,2.29 6,6.65 1.5,2.89 2.6,6.66 2.6,10.74 0,4.9 -1.5,12.53 -8.4,17.42 z"
           inkscape:connector-curvature="0"
           style="fill:#000000;stroke-width:0" /><polyline
           id="polyline6471"
           points="631,415 1052.1,415 1052.1,417.04 631,417.04 "
           style="fill:#000000;fill-rule:nonzero;stroke-width:0" /><path
           id="path6473"
           d="m 728.5,394.15 0.02,0.02 0.01,0.02 0.02,0.02 0.02,0.02 0.02,0.01 0.01,0.02 0.02,0.02 0.02,0.01 0.01,0.02 0.01,0.02 0.02,0.01 0.01,0.01 0.01,0.02 0.02,0.01 0.01,0.02 0.01,0.01 0.01,0.01 0.01,0.01 0.02,0.03 0.02,0.02 0.01,0.02 0.02,0.02 0.01,0.02 0.01,0.01 0.02,0.02 0,0.02 0.01,0.01 0.01,0.02 0.01,0.01 0,0.01 0.01,0.02 0,0.01 0,0.01 0,0.01 0.01,0.01 0,0.03 0,0.02 0,0.03 c 0,0.11 0,0.17 -0.32,0.51 l -12.37,15.21 h 15.12 c 5.13,0 7.82,-0.74 8.44,-0.88 3.06,-0.84 6.13,-2.86 7.31,-5.89 h 1.19 l -3.31,8.47 h -32.01 c -0.77,0 -0.8,-0.03 -0.99,-0.2 -0.09,-0.11 -0.09,-0.19 -0.09,-1.16 l 13.96,-17.14 -13.56,-15.24 c -0.4,-0.4 -0.4,-0.48 -0.4,-0.62 0,-0.48 0.45,-0.48 1.08,-0.48 h 32.01 l 3.31,8.95 h -1.19 c -1.18,-3.17 -4.25,-5.02 -6.71,-5.75 -0.71,-0.2 -3.35,-1.02 -8.75,-1.02 h -16.13 z"
           inkscape:connector-curvature="0"
           style="fill:#000000;stroke-width:0" /><path
           id="path6475"
           d="m 767.56,391.11 0.01,0.01 0,0.02 0.01,0.01 0,0.02 0.01,0.01 0,0.01 0,0.02 0.01,0.01 0.01,0.03 0,0.02 0.01,0.02 0.01,0.02 0,0.02 0.01,0.02 0,0.02 0.01,0.02 0,0.01 0,0.02 0.01,0.01 0,0.02 0,0.01 0,0.01 0,0.01 0.01,0.01 0,0.01 0,0.02 0,0.02 0,0.02 0,0.02 0,0.02 0,0.01 0,0.01 c 0,0.42 -0.37,0.42 -0.78,0.41 l -3.06,-0.24 c -0.42,-0.01 -0.47,-0.04 -0.6,-0.14 -0.09,-0.12 -0.17,-0.42 -0.17,-0.58 0,-0.42 0.39,-0.42 0.75,-0.42 0.02,0 0.47,0 0.85,-0.04 0.46,-0.05 0.5,-0.13 0.5,-0.33 0,-0.13 -0.21,-0.88 -0.3,-1.32 l -1.17,-4.68 c -0.49,0.64 -1.42,1.5 -3,1.5 v -0.86 c 1.12,0 2.2,-0.67 2.59,-2.16 l -1.14,-4.69 c -0.11,-0.37 -0.11,-0.42 -0.55,-0.92 -0.92,-1.04 -2.21,-1.81 -3.47,-1.81 -0.87,0 -2.18,0.47 -2.18,2.53 0,1.16 0.59,3.77 1.47,5.06 0.97,1.38 2.23,1.99 3.28,1.99 v 0.86 c -3.5,0 -7,-3.42 -7,-6.96 0,-2.54 1.87,-4.34 4.36,-4.34 2.04,0 3.64,1.45 3.93,1.75 0.46,-1.22 1.83,-1.75 2.94,-1.75 1,0 1.67,0.58 2.2,1.41 0.65,0.97 0.99,2.28 0.99,2.47 0,0.34 -0.42,0.34 -0.52,0.34 -0.45,0 -0.47,-0.16 -0.59,-0.55 -0.45,-1.84 -1.09,-2.81 -1.97,-2.81 -0.7,0 -1,0.55 -1,1.31 0,0.28 0.03,0.55 0.09,0.8 z"
           inkscape:connector-curvature="0"
           style="fill:#000000;stroke-width:0" /><path
           id="path6477"
           d="m 798.1,394.15 0.02,0.02 0.02,0.02 0.01,0.02 0.02,0.02 0.02,0.01 0.02,0.02 0.01,0.02 0.02,0.01 0.01,0.02 0.02,0.02 0.01,0.01 0.01,0.01 0.02,0.02 0.01,0.01 0.01,0.02 0.01,0.01 0.01,0.01 0.01,0.01 0.02,0.03 0.02,0.02 0.02,0.02 0.01,0.02 0.01,0.02 0.02,0.01 0.01,0.02 0.01,0.02 0,0.01 0.01,0.02 0.01,0.01 0,0.01 0.01,0.02 0,0.01 0,0.01 0.01,0.01 0,0.01 0,0.03 0,0.02 0,0.03 c 0,0.11 0,0.17 -0.31,0.51 l -12.38,15.21 h 15.13 c 5.12,0 7.81,-0.74 8.44,-0.88 3.06,-0.84 6.12,-2.86 7.31,-5.89 h 1.19 l -3.32,8.47 h -32.01 c -0.77,0 -0.8,-0.03 -0.99,-0.2 -0.09,-0.11 -0.09,-0.19 -0.09,-1.16 L 795.46,393.7 781.9,378.46 c -0.41,-0.4 -0.41,-0.48 -0.41,-0.62 0,-0.48 0.45,-0.48 1.08,-0.48 h 32.01 l 3.32,8.95 h -1.19 c -1.19,-3.17 -4.25,-5.02 -6.72,-5.75 -0.71,-0.2 -3.34,-1.02 -8.75,-1.02 h -16.13 z"
           inkscape:connector-curvature="0"
           style="fill:#000000;stroke-width:0" /><path
           id="path6479"
           d="m 833.55,376.28 0.04,-0.06 0.04,-0.07 0.04,-0.07 0.05,-0.06 0.06,-0.07 0.06,-0.08 0.06,-0.07 0.07,-0.07 0.07,-0.08 0.08,-0.07 0.08,-0.08 0.09,-0.07 0.1,-0.08 0.1,-0.07 0.11,-0.07 0.11,-0.07 0.13,-0.07 0.12,-0.07 0.14,-0.06 0.14,-0.06 0.15,-0.06 0.15,-0.05 0.17,-0.05 0.17,-0.05 0.18,-0.04 0.18,-0.04 0.2,-0.03 0.2,-0.03 0.21,-0.02 0.22,-0.02 0.23,-0.01 0.24,0 c 4.73,0 6.01,7.98 6.01,9.17 0,1.72 -1,2.14 -1.42,2.14 -0.78,0 -1.47,-0.79 -1.47,-1.43 0,-0.47 0.32,-0.72 0.47,-0.85 0.71,-0.53 0.97,-1.17 0.97,-1.9 0,-0.65 -1.25,-6.27 -4.44,-6.27 -0.93,0 -2.39,0.3 -2.39,2.27 0,0.04 0,0.51 0.18,1.26 0.23,1 0.95,3.86 1.29,5.19 0.11,0.39 0.11,0.44 0.11,0.56 0,0.55 -0.45,0.88 -0.92,0.88 -0.41,0 -0.86,-0.22 -1.09,-0.64 -0.11,-0.18 -0.33,-1.1 -0.49,-1.66 -0.34,-1.41 -0.34,-1.47 -0.72,-2.86 -0.2,-0.8 -0.42,-1.73 -0.45,-2.42 0.08,-0.39 0,-0.52 -0.22,-0.94 -0.95,-1.64 -2,-1.64 -2.39,-1.64 -0.37,0 -1.33,0.05 -1.97,0.59 -0.64,0.58 -0.64,1.5 -0.64,1.77 0,1.01 0.31,2.05 1.36,4.58 0.2,0.5 0.36,0.87 0.36,1.29 0,1.22 -1.17,2.21 -2.72,2.21 -2.62,0 -4.01,-3.19 -4.01,-3.86 0,-0.36 0.4,-0.36 0.53,-0.36 0.42,0 0.43,0.12 0.56,0.5 0.53,1.72 1.7,2.86 2.81,2.86 0.49,0 0.75,-0.27 0.75,-0.94 0,-0.5 -0.09,-0.78 -0.42,-1.5 -1.31,-3.23 -1.31,-3.87 -1.31,-4.48 0,-2.86 2.56,-3.52 4.58,-3.52 0.5,0 1.89,0 3.1,1.8 z"
           inkscape:connector-curvature="0"
           style="fill:#000000;stroke-width:0" /><path
           id="path6481"
           d="m 859.97,388.23 -0.01,-0.05 -0.02,-0.04 -0.01,-0.05 -0.02,-0.05 -0.01,-0.05 -0.02,-0.05 -0.01,-0.05 -0.01,-0.05 -0.03,-0.11 -0.03,-0.12 -0.03,-0.11 -0.03,-0.11 -0.01,-0.05 -0.01,-0.05 -0.01,-0.05 -0.01,-0.05 -0.01,-0.05 -0.01,-0.05 -0.01,-0.04 -0.01,-0.04 -0.01,-0.04 -0.01,-0.03 0,-0.03 -0.01,-0.03 0,-0.03 0,-0.02 0,0 0,-0.01 0,-0.01 -0.01,-0.01 c 0,-0.76 0.63,-1.1 1.19,-1.1 0.63,0 1.17,0.45 1.36,0.76 0.17,0.31 0.45,1.42 0.63,2.16 0.17,0.65 0.54,2.26 0.76,3.14 0.21,0.76 0.42,1.53 0.6,2.33 0.37,1.43 0.45,1.7 1.45,3.14 0.98,1.39 2.62,3.2 5.23,3.2 2.02,0 2.05,-1.78 2.05,-2.44 0,-2.09 -1.48,-5.95 -2.05,-7.42 -0.39,-0.98 -0.53,-1.3 -0.53,-1.89 0,-1.84 1.55,-2.98 3.31,-2.98 3.49,0 5.02,4.79 5.02,5.32 0,0.46 -0.45,0.46 -0.55,0.46 -0.5,0 -0.53,-0.21 -0.67,-0.6 -0.8,-2.78 -2.3,-4.22 -3.69,-4.22 -0.73,0 -0.87,0.49 -0.87,1.22 0,0.8 0.17,1.25 0.8,2.83 0.42,1.08 1.86,4.77 1.86,6.72 0,3.39 -2.69,3.97 -4.54,3.97 -2.89,0 -4.84,-1.77 -5.89,-3.16 -0.25,2.39 -2.29,3.16 -3.73,3.16 -1.5,0 -2.3,-1.08 -2.75,-1.88 -0.77,-1.28 -1.25,-3.28 -1.25,-3.45 0,-0.45 0.48,-0.45 0.59,-0.45 0.49,0 0.52,0.11 0.77,1.04 0.51,2.07 1.19,3.77 2.55,3.77 0.9,0 1.14,-0.77 1.14,-1.7 0,-0.68 -0.32,-1.96 -0.57,-2.89 -0.23,-0.96 -0.57,-2.38 -0.76,-3.14 z"
           inkscape:connector-curvature="0"
           style="fill:#000000;stroke-width:0" /><path
           id="path6483"
           d="m 892.69,412.18 -0.61,-0.45 -0.57,-0.46 -0.56,-0.47 -0.52,-0.49 -0.5,-0.5 -0.47,-0.51 -0.45,-0.53 -0.42,-0.53 -0.4,-0.54 -0.38,-0.55 -0.35,-0.56 -0.33,-0.56 -0.31,-0.57 -0.29,-0.57 -0.26,-0.58 -0.25,-0.58 -0.23,-0.58 -0.21,-0.58 -0.19,-0.59 -0.17,-0.58 -0.16,-0.58 -0.14,-0.58 -0.12,-0.57 -0.11,-0.57 -0.09,-0.57 -0.08,-0.56 -0.06,-0.55 -0.06,-0.55 -0.04,-0.53 -0.02,-0.53 -0.02,-0.52 0,-0.5 c 0,-4.92 1.46,-12.55 8.37,-17.42 0.28,0 0.69,0 0.69,0.4 0,0.22 -0.1,0.28 -0.35,0.53 -4.63,4.19 -6.34,10.11 -6.34,16.46 0,9.4 3.59,14 6.46,16.58 0.13,0.14 0.23,0.25 0.23,0.42 0,0.42 -0.41,0.42 -0.69,0.42 z"
           inkscape:connector-curvature="0"
           style="fill:#000000;stroke-width:0" /><path
           id="path6485"
           d="m 915.8,409.18 0.01,0 0,0.01 0,0 0,0.01 0.01,0 0,0.01 0,0 0,0.01 0.01,0.01 0,0 0.01,0.02 0,0.02 0.01,0.02 0,0.02 0.01,0.02 0,0.02 0.01,0.02 0.01,0.02 0,0.03 0.01,0.04 0.01,0.03 0,0.02 0.01,0.02 0,0.03 0.01,0.02 0,0.02 0.01,0.02 0,0.02 0,0.01 0.01,0.02 0,0.01 0,0 0,0.01 0,0.01 0,0 0,0.01 0,0 0,0.01 0,0 0,0 0,0.01 0.01,0 c 0,0.18 -0.15,0.5 -0.55,0.5 -0.7,0 -3.6,-0.28 -4.47,-0.36 -0.28,-0.03 -0.77,-0.07 -0.77,-0.8 0,-0.48 0.49,-0.48 0.91,-0.48 1.67,0 1.67,-0.25 1.67,-0.54 0,-0.23 -0.06,-0.45 -0.14,-0.76 l -1.98,-7.94 c -0.74,1.14 -1.92,2.05 -3.6,2.05 v -0.97 c 2.44,0 3.11,-2.64 3.11,-3.03 0,-0.14 -0.08,-0.39 -0.11,-0.49 l -1.64,-6.51 c -0.23,-0.99 -1,-1.67 -1.76,-2.35 -0.32,-0.26 -1.72,-1.39 -3.22,-1.39 -1.28,0 -2.53,0.91 -2.53,3.38 0,1.86 1,5.69 1.81,7.08 1.59,2.79 3.37,3.31 4.34,3.31 v 0.97 c -4.45,0 -8.98,-4.91 -8.98,-9.92 0,-3.38 2.26,-5.78 5.26,-5.78 1.88,0 3.55,1.07 4.94,2.43 0.67,-2.09 2.69,-2.43 3.6,-2.43 1.25,0 2.12,0.76 2.75,1.84 0.76,1.36 1.21,3.34 1.21,3.48 0,0.46 -0.45,0.46 -0.54,0.46 -0.5,0 -0.53,-0.14 -0.77,-1.08 -0.42,-1.67 -1.09,-3.74 -2.54,-3.74 -0.91,0 -1.16,0.77 -1.16,1.71 0,0.67 0.08,0.98 0.17,1.43 z"
           inkscape:connector-curvature="0"
           style="fill:#000000;stroke-width:0" /><path
           id="path6487"
           d="m 924.03,386.6 0,-0.36 -0.02,-0.37 -0.03,-0.38 -0.04,-0.38 -0.03,-0.2 -0.03,-0.19 -0.04,-0.2 -0.05,-0.19 -0.05,-0.2 -0.05,-0.2 -0.06,-0.2 -0.07,-0.2 -0.08,-0.21 -0.08,-0.2 -0.09,-0.2 -0.1,-0.21 -0.11,-0.2 -0.11,-0.21 -0.12,-0.2 -0.14,-0.21 -0.14,-0.21 -0.15,-0.21 -0.16,-0.2 -0.17,-0.21 -0.18,-0.21 -0.2,-0.21 -0.2,-0.21 -0.22,-0.2 c -0.14,-0.14 -0.25,-0.25 -0.25,-0.43 0,-0.25 0.28,-0.48 0.49,-0.48 0.48,0 3.45,2.78 3.45,6.92 0,2.17 -0.84,3.8 -2.44,3.8 -1.15,0 -1.98,-0.91 -1.98,-1.99 0,-1.1 0.8,-2.01 2.01,-2.01 0.85,0 1.39,0.56 1.44,0.56 z"
           inkscape:connector-curvature="0"
           style="fill:#000000;stroke-width:0" /><path
           id="path6489"
           d="m 946.88,397.15 0.02,0.09 0.03,0.09 0.02,0.1 0.03,0.11 0.03,0.1 0.02,0.11 0.06,0.21 0.05,0.22 0.06,0.23 0.05,0.22 0.03,0.1 0.02,0.11 0.03,0.1 0.02,0.1 0.02,0.1 0.02,0.1 0.02,0.09 0.02,0.08 0.02,0.08 0.02,0.08 0.01,0.07 0.02,0.06 0.01,0.06 0.01,0.05 0,0.05 0.01,0.04 0,0.01 0,0.01 0,0.02 0,0.01 c 0,0.68 -0.54,1.1 -1.13,1.1 -0.68,0 -1.3,-0.42 -1.5,-1.01 -0.12,-0.27 -0.46,-1.74 -0.71,-2.61 -0.48,-1.98 -0.48,-2.05 -1,-4 -0.45,-1.92 -0.53,-2.2 -0.56,-3.2 0.14,-0.71 -0.14,-1.36 -0.98,-2.41 -0.44,-0.56 -1.15,-1.16 -2.33,-1.16 -1.36,0 -3.14,0.49 -3.14,3.21 0,1.78 0.98,4.36 1.67,6.14 0.59,1.53 0.73,1.84 0.73,2.44 0,1.67 -1.42,2.95 -3.31,2.95 -3.52,0 -5.08,-4.74 -5.08,-5.33 0,-0.45 0.49,-0.45 0.59,-0.45 0.49,0 0.52,0.17 0.63,0.56 0.87,2.89 2.37,4.25 3.77,4.25 0.59,0 0.85,-0.39 0.85,-1.22 0,-0.8 -0.31,-1.56 -0.48,-2.01 -1.98,-5.1 -1.98,-5.8 -1.98,-6.88 0,-4.11 3.73,-4.62 5.61,-4.62 0.67,0 2.37,0 3.93,2.32 0.8,-1.56 2.72,-2.32 4.85,-2.32 3.11,0 4.64,2.67 5.32,4.1 1.5,2.93 2.44,7.29 2.44,8.9 0,2.6 -1.48,2.75 -1.73,2.75 -0.91,0 -1.88,-0.96 -1.88,-1.86 0,-0.58 0.35,-0.86 0.58,-1.08 0.84,-0.69 1.3,-1.67 1.3,-2.78 0,-0.46 -1.47,-9.07 -5.89,-9.07 -2.83,0 -2.83,2.52 -2.83,3.11 0,0.94 0.14,1.5 0.64,3.49 z"
           inkscape:connector-curvature="0"
           style="fill:#000000;stroke-width:0" /><path
           id="path6491"
           d="m 961.45,412.18 -0.02,0 -0.03,0 -0.03,0 -0.02,0 -0.03,0 -0.03,0 -0.02,0 -0.03,-0.01 -0.03,0 -0.03,0 -0.03,-0.01 -0.02,0 -0.03,-0.01 -0.03,-0.01 -0.02,0 -0.03,-0.01 -0.03,-0.01 -0.02,-0.02 -0.02,-0.01 -0.03,-0.01 -0.02,-0.02 -0.02,-0.02 -0.02,-0.02 0,-0.01 -0.01,-0.01 -0.01,-0.01 -0.01,-0.01 -0.01,-0.01 0,-0.02 -0.01,-0.01 0,-0.01 -0.01,-0.02 0,-0.01 -0.01,-0.02 0,-0.01 -0.01,-0.02 0,-0.02 0,-0.02 0,-0.01 0,-0.02 0,-0.02 c 0,-0.17 0.11,-0.28 0.31,-0.53 3,-2.75 6.34,-7.46 6.34,-16.44 0,-7.28 -2.26,-12.8 -6.03,-16.2 -0.58,-0.6 -0.62,-0.63 -0.62,-0.82 0,-0.17 0.11,-0.4 0.45,-0.4 0.42,0 3.74,2.29 6.03,6.65 1.53,2.89 2.55,6.66 2.55,10.74 0,4.9 -1.47,12.53 -8.36,17.42 z"
           inkscape:connector-curvature="0"
           style="fill:#000000;stroke-width:0" /></g>    </g>
  </g>
</svg>
