<?xml version="1.0" encoding="UTF-8" standalone="no"?>
<!-- Created with Inkscape (http://www.inkscape.org/) -->

<svg
   xmlns:dc="http://purl.org/dc/elements/1.1/"
   xmlns:cc="http://creativecommons.org/ns#"
   xmlns:rdf="http://www.w3.org/1999/02/22-rdf-syntax-ns#"
   xmlns:svg="http://www.w3.org/2000/svg"
   xmlns="http://www.w3.org/2000/svg"
   xmlns:sodipodi="http://sodipodi.sourceforge.net/DTD/sodipodi-0.dtd"
   xmlns:inkscape="http://www.inkscape.org/namespaces/inkscape"
   width="306.97006"
   height="139.7429"
   id="svg2"
   version="1.1"
   inkscape:version="0.48.4 r9939"
   sodipodi:docname="kl_diver.svg">
  <sodipodi:namedview
     id="base"
     pagecolor="#ffffff"
     bordercolor="#666666"
     borderopacity="1.0"
     inkscape:pageopacity="0.0"
     inkscape:pageshadow="2"
     inkscape:zoom="1.979899"
     inkscape:cx="218.74977"
     inkscape:cy="36.653358"
     inkscape:document-units="px"
     inkscape:current-layer="layer1"
     showgrid="false"
     inkscape:window-width="1440"
     inkscape:window-height="839"
     inkscape:window-x="0"
     inkscape:window-y="22"
     inkscape:window-maximized="1"
     fit-margin-top="10"
     fit-margin-left="10"
     fit-margin-bottom="10"
     fit-margin-right="10" />
  <defs
     id="defs4" />
  <metadata
     id="metadata7">
    <rdf:RDF>
      <cc:Work
         rdf:about="">
        <dc:format>image/svg+xml</dc:format>
        <dc:type
           rdf:resource="http://purl.org/dc/dcmitype/StillImage" />
        <dc:title></dc:title>
      </cc:Work>
    </rdf:RDF>
  </metadata>
  <g
     id="layer1"
     inkscape:groupmode="layer"
     inkscape:label="Layer 1"
     transform="translate(-511.74558,-361.78596)">
    <g
       id="g2990"
       transform="matrix(0.40620971,0,0,0.40620971,431.68877,242.73241)">
      <g
         word-spacing="normal"
         letter-spacing="normal"
         font-size-adjust="none"
         font-stretch="normal"
         font-weight="normal"
         font-variant="normal"
         font-style="normal"
         stroke-miterlimit="10.433"
         xml:space="preserve"
         transform="matrix(1.0629921,0,0,-1.0629921,-186.02362,789.27165)"
         id="content"
         style="font-style:normal;font-variant:normal;font-weight:normal;font-stretch:normal;letter-spacing:normal;word-spacing:normal;text-anchor:start;fill:none;stroke:#000000;stroke-linecap:butt;stroke-linejoin:miter;stroke-miterlimit:10.43299961;stroke-opacity:1;stroke-dasharray:none;stroke-dashoffset:0"><path
           id="path2993"
           d="M 476.49,416.91 458.8,395.05 c -0.39,-0.5 -0.44,-0.61 -0.44,-0.8 0,-0.56 0.44,-0.56 1.35,-0.56 H 501 l 4.29,12.41 h -1.24 c -1.25,-3.74 -4.59,-6.77 -8.83,-8.22 -0.79,-0.25 -4.23,-1.44 -11.54,-1.44 h -21.19 l 17.3,21.38 c 0.34,0.43 0.45,0.59 0.45,0.79 0,0.19 -0.06,0.25 -0.36,0.69 l -16.19,22.22 h 19.74 c 5.67,0 17.12,-0.34 20.62,-9.66 h 1.24 L 501,443.52 h -41.29 c -1.35,0 -1.39,-0.05 -1.39,-1.59 z"
           inkscape:connector-curvature="0"
           style="fill:#000000;stroke-width:0" /><path
           id="path2995"
           d="m 528.09,414.34 0,0 0,0.01 0.01,0 0,0.01 0,0 0,0.01 0.01,0 0,0.01 0,0.01 0,0 0.01,0.02 0.01,0.02 0,0.02 0.01,0.02 0,0.02 0.01,0.02 0,0.02 0.01,0.02 0.01,0.03 0.01,0.04 0,0.03 0.01,0.02 0,0.02 0.01,0.03 0,0.02 0.01,0.02 0,0.02 0,0.02 0.01,0.01 0,0.02 0,0.01 0,0 0,0.01 0.01,0.01 0,0 0,0.01 0,0 0,0.01 0,0 0,0 0,0.01 0,0 c 0,0.18 -0.14,0.5 -0.55,0.5 -0.7,0 -3.59,-0.28 -4.46,-0.36 -0.29,-0.03 -0.77,-0.07 -0.77,-0.8 0,-0.48 0.48,-0.48 0.9,-0.48 1.68,0 1.68,-0.25 1.68,-0.54 0,-0.23 -0.06,-0.45 -0.14,-0.76 l -1.99,-7.94 c -0.73,1.14 -1.92,2.05 -3.59,2.05 v -0.97 c 2.44,0 3.11,-2.64 3.11,-3.03 0,-0.14 -0.08,-0.39 -0.11,-0.49 l -1.64,-6.51 c -0.24,-0.99 -1,-1.67 -1.77,-2.35 -0.31,-0.26 -1.72,-1.39 -3.22,-1.39 -1.28,0 -2.53,0.91 -2.53,3.38 0,1.86 1,5.69 1.82,7.08 1.59,2.79 3.37,3.31 4.34,3.31 v 0.97 c -4.46,0 -8.99,-4.91 -8.99,-9.92 0,-3.38 2.27,-5.78 5.27,-5.78 1.88,0 3.55,1.07 4.94,2.43 0.67,-2.09 2.69,-2.43 3.59,-2.43 1.25,0 2.13,0.76 2.75,1.84 0.77,1.36 1.22,3.34 1.22,3.48 0,0.46 -0.45,0.46 -0.55,0.46 -0.5,0 -0.53,-0.14 -0.76,-1.08 -0.43,-1.67 -1.1,-3.74 -2.55,-3.74 -0.91,0 -1.16,0.77 -1.16,1.71 0,0.67 0.08,0.98 0.18,1.43 z"
           inkscape:connector-curvature="0"
           style="fill:#000000;stroke-width:0" /><path
           id="path2997"
           d="m 560.61,416.91 -17.69,-21.86 c -0.39,-0.5 -0.44,-0.61 -0.44,-0.8 0,-0.56 0.44,-0.56 1.35,-0.56 h 41.29 l 4.29,12.41 h -1.24 c -1.25,-3.74 -4.59,-6.77 -8.83,-8.22 -0.79,-0.25 -4.23,-1.44 -11.54,-1.44 h -21.19 l 17.3,21.38 c 0.34,0.43 0.45,0.59 0.45,0.79 0,0.19 -0.06,0.25 -0.36,0.69 l -16.19,22.22 h 19.74 c 5.67,0 17.12,-0.34 20.62,-9.66 h 1.24 l -4.29,11.66 h -41.29 c -1.35,0 -1.39,-0.05 -1.39,-1.59 z"
           inkscape:connector-curvature="0"
           style="fill:#000000;stroke-width:0" /><path
           id="path2999"
           d="m 610.53,402.31 0.02,0.09 0.03,0.1 0.02,0.09 0.03,0.11 0.02,0.1 0.03,0.11 0.06,0.21 0.05,0.23 0.05,0.22 0.06,0.22 0.02,0.1 0.03,0.11 0.02,0.1 0.03,0.1 0.02,0.1 0.02,0.1 0.02,0.09 0.02,0.08 0.02,0.08 0.02,0.08 0.01,0.07 0.01,0.07 0.02,0.05 0.01,0.05 0,0.05 0.01,0.04 0,0.01 0,0.01 0,0.02 0,0.01 c 0,0.68 -0.54,1.1 -1.14,1.1 -0.67,0 -1.29,-0.42 -1.5,-1.01 -0.11,-0.27 -0.45,-1.74 -0.7,-2.61 -0.49,-1.98 -0.49,-2.05 -1,-4 -0.45,-1.92 -0.53,-2.2 -0.56,-3.2 0.14,-0.71 -0.14,-1.36 -0.99,-2.41 -0.44,-0.56 -1.14,-1.16 -2.32,-1.16 -1.37,0 -3.15,0.49 -3.15,3.21 0,1.78 0.99,4.36 1.68,6.14 0.59,1.53 0.73,1.84 0.73,2.44 0,1.67 -1.42,2.95 -3.31,2.95 -3.52,0 -5.08,-4.74 -5.08,-5.33 0,-0.45 0.48,-0.45 0.59,-0.45 0.49,0 0.52,0.17 0.63,0.56 0.87,2.89 2.37,4.25 3.76,4.25 0.6,0 0.86,-0.39 0.86,-1.22 0,-0.8 -0.31,-1.56 -0.48,-2.01 -1.98,-5.1 -1.98,-5.8 -1.98,-6.88 0,-4.11 3.73,-4.62 5.6,-4.62 0.68,0 2.38,0 3.94,2.32 0.8,-1.56 2.72,-2.32 4.84,-2.32 3.12,0 4.65,2.67 5.33,4.1 1.5,2.93 2.44,7.29 2.44,8.9 0,2.6 -1.48,2.75 -1.73,2.75 -0.91,0 -1.88,-0.96 -1.88,-1.86 0,-0.58 0.34,-0.86 0.58,-1.08 0.84,-0.69 1.3,-1.67 1.3,-2.78 0,-0.46 -1.47,-9.07 -5.89,-9.07 -2.83,0 -2.83,2.52 -2.83,3.11 0,0.94 0.14,1.5 0.64,3.49 z"
           inkscape:connector-curvature="0"
           style="fill:#000000;stroke-width:0" /><path
           id="path3001"
           d="m 637.15,409.14 -0.01,-0.07 -0.02,-0.08 -0.02,-0.07 -0.01,-0.08 -0.04,-0.16 -0.03,-0.16 -0.04,-0.16 -0.04,-0.16 -0.04,-0.16 -0.03,-0.16 -0.02,-0.08 -0.02,-0.07 -0.01,-0.07 -0.02,-0.07 -0.01,-0.07 -0.02,-0.07 -0.01,-0.06 -0.01,-0.06 -0.01,-0.06 -0.01,-0.05 -0.01,-0.05 -0.01,-0.04 0,-0.04 -0.01,-0.04 0,-0.03 0,-0.02 c 0,-0.89 0.7,-1.35 1.44,-1.35 0.61,0 1.5,0.39 1.84,1.39 0.06,0.11 0.66,2.44 0.95,3.69 l 1.1,4.48 c 0.29,1.1 0.59,2.19 0.84,3.35 0.2,0.84 0.61,2.28 0.66,2.48 0.75,1.55 3.39,6.08 8.11,6.08 2.25,0 2.7,-1.84 2.7,-3.48 0,-3.1 -2.45,-9.47 -3.25,-11.61 -0.44,-1.14 -0.49,-1.75 -0.49,-2.3 0,-2.33 1.74,-4.08 4.08,-4.08 4.69,0 6.54,7.27 6.54,7.67 0,0.5 -0.46,0.5 -0.62,0.5 -0.48,0 -0.48,-0.15 -0.73,-0.9 -1,-3.38 -2.64,-6.17 -5.09,-6.17 -0.85,0 -1.19,0.5 -1.19,1.64 0,1.25 0.45,2.45 0.89,3.54 0.95,2.64 3.05,8.11 3.05,10.96 0,3.34 -2.14,5.32 -5.74,5.32 -4.48,0 -6.92,-3.18 -7.76,-4.32 -0.25,2.79 -2.3,4.32 -4.6,4.32 -2.28,0 -3.23,-1.93 -3.73,-2.82 -0.8,-1.71 -1.5,-4.64 -1.5,-4.85 0,-0.5 0.5,-0.5 0.61,-0.5 0.5,0 0.54,0.07 0.84,1.16 0.85,3.53 1.85,5.92 3.64,5.92 0.99,0 1.55,-0.64 1.55,-2.28 0,-1.05 -0.16,-1.61 -0.8,-4.19 z"
           inkscape:connector-curvature="0"
           style="fill:#000000;stroke-width:0" /><path
           id="path3003"
           d="m 679.12,394.25 0,0.02 0,0.03 0,0.01 0,0.02 0,0.01 -0.01,0.02 0,0.01 -0.01,0.02 -0.01,0.02 -0.01,0.02 -0.01,0.02 -0.02,0.03 -0.01,0.02 -0.02,0.03 -0.02,0.03 -0.03,0.03 -0.02,0.03 -0.03,0.04 -0.02,0.02 -0.01,0.02 -0.02,0.02 -0.02,0.02 -0.02,0.02 -0.02,0.03 -0.02,0.02 -0.02,0.02 -0.02,0.03 -0.03,0.02 -0.02,0.03 -0.03,0.03 -0.02,0.03 -0.03,0.03 -0.03,0.03 -0.03,0.03 -0.03,0.03 -0.03,0.03 -0.04,0.04 -0.03,0.03 -0.04,0.04 -0.03,0.03 -0.04,0.04 -0.04,0.04 c -6.22,6.28 -7.81,15.69 -7.81,23.31 0,8.67 1.89,17.35 8.01,23.56 0.64,0.61 0.64,0.71 0.64,0.86 0,0.35 -0.18,0.49 -0.48,0.49 -0.5,0 -4.98,-3.38 -7.92,-9.7 -2.55,-5.49 -3.14,-11.02 -3.14,-15.21 0,-3.89 0.54,-9.9 3.28,-15.54 2.98,-6.13 7.28,-9.36 7.78,-9.36 0.3,0 0.48,0.14 0.48,0.5 z"
           inkscape:connector-curvature="0"
           style="fill:#000000;stroke-width:0" /><path
           id="path3005"
           d="m 704.97,423.09 0.03,0.1 0.02,0.11 0.03,0.12 0.03,0.11 0.03,0.12 0.03,0.12 0.06,0.25 0.06,0.25 0.06,0.25 0.06,0.24 0.06,0.25 0.03,0.11 0.03,0.12 0.03,0.11 0.02,0.11 0.03,0.1 0.02,0.1 0.02,0.1 0.02,0.09 0.02,0.08 0.02,0.08 0.01,0.07 0.01,0.06 0.01,0.06 0.01,0.05 0,0.04 0,0.03 c 0,0.91 -0.7,1.35 -1.45,1.35 -0.59,0 -1.49,-0.39 -1.83,-1.39 -0.16,-0.35 -2.5,-9.86 -2.84,-11.16 -0.36,-1.5 -0.45,-2.39 -0.45,-3.3 0,-0.54 0,-0.64 0.04,-0.89 -1.14,-2.64 -2.64,-4.18 -4.58,-4.18 -3.98,0 -3.98,3.68 -3.98,4.53 0,1.59 0.25,3.54 2.59,9.67 0.55,1.48 0.85,2.19 0.85,3.19 0,2.23 -1.64,4.07 -4.1,4.07 -4.73,0 -6.57,-7.21 -6.57,-7.67 0,-0.5 0.5,-0.5 0.6,-0.5 0.5,0 0.55,0.11 0.8,0.91 1.35,4.62 3.28,6.17 5.03,6.17 0.44,0 1.25,-0.05 1.25,-1.64 0,-1.25 -0.56,-2.64 -0.9,-3.48 -2.19,-5.88 -2.78,-8.18 -2.78,-10.07 0,-4.53 3.32,-6.28 7.06,-6.28 0.86,0 3.19,0 5.19,3.49 1.29,-3.19 4.73,-3.49 6.23,-3.49 3.73,0 5.92,3.14 7.22,6.13 1.68,3.89 3.28,10.56 3.28,12.95 0,2.75 -1.35,3.48 -2.19,3.48 -1.25,0 -2.48,-1.29 -2.48,-2.39 0,-0.64 0.29,-0.93 0.73,-1.34 0.55,-0.55 1.8,-1.84 1.8,-4.23 0,-1.69 -1.44,-6.58 -2.74,-9.11 -1.29,-2.64 -3.04,-4.39 -5.48,-4.39 -2.34,0 -3.69,1.5 -3.69,4.32 0,1.41 0.35,2.96 0.55,3.64 z"
           inkscape:connector-curvature="0"
           style="fill:#000000;stroke-width:0" /><path
           id="path3007"
           d="m 729.02,406.25 0,0.3 -0.01,0.3 -0.02,0.29 -0.03,0.28 -0.03,0.27 -0.04,0.26 -0.04,0.26 -0.05,0.24 -0.06,0.24 -0.07,0.23 -0.07,0.22 -0.07,0.21 -0.09,0.2 -0.09,0.19 -0.09,0.19 -0.1,0.17 -0.11,0.16 -0.11,0.16 -0.12,0.14 -0.12,0.13 -0.13,0.13 -0.13,0.11 -0.14,0.1 -0.15,0.1 -0.14,0.08 -0.16,0.07 -0.16,0.06 -0.16,0.05 -0.17,0.04 -0.17,0.03 -0.18,0.01 -0.18,0.01 c -1.64,0 -2.64,-1.25 -2.64,-2.64 0,-1.34 1,-2.64 2.64,-2.64 0.6,0 1.25,0.2 1.75,0.64 0.14,0.11 0.2,0.16 0.25,0.16 0.05,0 0.1,-0.05 0.1,-0.75 0,-3.69 -1.74,-6.68 -3.4,-8.32 -0.54,-0.54 -0.54,-0.65 -0.54,-0.79 0,-0.36 0.25,-0.55 0.5,-0.55 0.54,0 4.53,3.83 4.53,9.66 z"
           inkscape:connector-curvature="0"
           style="fill:#000000;stroke-width:0" /><path
           id="path3009"
           d="m 766.69,440.23 0,0 0,0.01 0,0 0,0.01 0,0.02 0,0.01 0,0.02 -0.01,0.02 0,0.02 0,0.02 -0.01,0.02 -0.01,0.02 0,0.02 -0.01,0.03 -0.01,0.02 -0.01,0.03 -0.02,0.02 -0.01,0.03 -0.02,0.02 -0.02,0.02 -0.03,0.03 -0.01,0.01 -0.01,0.01 -0.01,0.01 -0.02,0.01 -0.01,0.01 -0.02,0.01 -0.01,0.01 -0.02,0.01 -0.02,0.01 -0.01,0.01 -0.02,0 -0.02,0.01 -0.02,0.01 -0.02,0 -0.03,0.01 -0.02,0.01 -0.02,0 -0.03,0 -0.02,0.01 -0.03,0 -0.02,0 -0.03,0.01 -0.03,0 -0.03,0 c -0.75,0 -5.48,-0.46 -6.33,-0.55 -0.4,-0.05 -0.7,-0.3 -0.7,-0.95 0,-0.6 0.45,-0.6 1.2,-0.6 2.39,0 2.49,-0.34 2.49,-0.84 l -0.14,-1 -3,-11.81 c -0.89,1.84 -2.35,3.18 -4.58,3.18 l 0.04,-1.09 c 3.24,0 3.94,-4.08 3.94,-4.37 0,-0.32 -0.09,-0.61 -0.14,-0.86 l -2.5,-9.77 c -0.25,-0.89 -0.25,-0.98 -1,-1.84 -2.18,-2.74 -4.23,-3.53 -5.62,-3.53 -2.49,0 -3.19,2.73 -3.19,4.68 0,2.49 1.59,8.61 2.73,10.91 1.55,2.94 3.8,4.78 5.78,4.78 l -0.04,1.09 c -5.83,0 -12,-7.31 -12,-14.59 0,-4.69 2.73,-7.97 6.62,-7.97 0.99,0 3.49,0.21 6.47,3.74 0.41,-2.1 2.14,-3.74 4.53,-3.74 1.75,0 2.89,1.14 3.69,2.74 0.85,1.79 1.5,4.84 1.5,4.93 0,0.5 -0.45,0.5 -0.59,0.5 -0.5,0 -0.55,-0.2 -0.71,-0.9 -0.84,-3.24 -1.75,-6.17 -3.78,-6.17 -1.34,0 -1.5,1.29 -1.5,2.29 0,1.19 0.1,1.55 0.3,2.39 z"
           inkscape:connector-curvature="0"
           style="fill:#000000;stroke-width:0" /><path
           id="path3011"
           d="m 781.3,418.65 0,0.37 -0.01,0.39 -0.01,0.39 -0.01,0.41 -0.04,0.84 -0.06,0.88 -0.08,0.92 -0.11,0.95 -0.13,0.97 -0.17,1.01 -0.19,1.02 -0.23,1.03 -0.27,1.05 -0.31,1.06 -0.35,1.07 -0.39,1.07 -0.21,0.53 -0.23,0.53 -0.23,0.53 -0.25,0.53 c -2.99,6.12 -7.27,9.36 -7.77,9.36 -0.3,0 -0.5,-0.19 -0.5,-0.49 0,-0.15 0,-0.25 0.94,-1.15 4.89,-4.92 7.73,-12.85 7.73,-23.27 0,-8.51 -1.84,-17.28 -8.03,-23.56 -0.64,-0.59 -0.64,-0.7 -0.64,-0.84 0,-0.3 0.2,-0.5 0.5,-0.5 0.5,0 4.97,3.39 7.92,9.71 2.53,5.47 3.13,11 3.13,15.19 z"
           inkscape:connector-curvature="0"
           style="fill:#000000;stroke-width:0" /><path
           id="path3013"
           d="m 799.08,440.23 0,0 0,0.01 0,0 0,0.01 0,0.02 0,0.01 0,0.02 0,0.02 -0.01,0.02 0,0.02 -0.01,0.02 0,0.02 -0.01,0.02 -0.01,0.03 -0.01,0.02 -0.02,0.03 -0.01,0.02 -0.02,0.03 -0.01,0.02 -0.03,0.02 -0.02,0.03 -0.01,0.01 -0.01,0.01 -0.02,0.01 -0.01,0.01 -0.02,0.01 -0.01,0.01 -0.02,0.01 -0.01,0.01 -0.02,0.01 -0.02,0.01 -0.02,0 -0.02,0.01 -0.02,0.01 -0.02,0 -0.02,0.01 -0.03,0.01 -0.02,0 -0.03,0 -0.02,0.01 -0.03,0 -0.03,0 -0.02,0.01 -0.03,0 -0.03,0 c -1.15,0 -4.78,-0.41 -6.08,-0.5 -0.39,-0.05 -0.94,-0.1 -0.94,-1.05 0,-0.55 0.49,-0.55 1.24,-0.55 2.38,0 2.45,-0.45 2.45,-0.84 l -0.16,-1 -6.28,-24.91 c -0.14,-0.54 -0.25,-0.9 -0.25,-1.7 0,-2.83 2.2,-4.58 4.53,-4.58 1.66,0 2.89,1 3.75,2.78 0.89,1.91 1.49,4.8 1.49,4.89 0,0.5 -0.44,0.5 -0.6,0.5 -0.5,0 -0.55,-0.2 -0.7,-0.9 -0.85,-3.24 -1.78,-6.17 -3.78,-6.17 -1.5,0 -1.5,1.59 -1.5,2.29 0,1.19 0.06,1.44 0.3,2.39 z"
           inkscape:connector-curvature="0"
           style="fill:#000000;stroke-width:0" /><path
           id="path3015"
           d="m 825.42,419.79 -0.01,0.48 -0.03,0.47 -0.05,0.46 -0.07,0.44 -0.08,0.44 -0.11,0.42 -0.12,0.4 -0.14,0.4 -0.16,0.38 -0.17,0.36 -0.19,0.36 -0.21,0.34 -0.22,0.32 -0.23,0.31 -0.25,0.3 -0.26,0.28 -0.28,0.26 -0.28,0.25 -0.3,0.24 -0.31,0.22 -0.33,0.2 -0.33,0.19 -0.35,0.17 -0.35,0.15 -0.36,0.13 -0.38,0.12 -0.38,0.1 -0.39,0.09 -0.39,0.06 -0.41,0.05 -0.41,0.03 -0.42,0 -0.04,-1.09 c 2.89,0 4.39,-2.39 4.39,-5.37 0,-1.96 -1,-7.18 -2.89,-10.43 -1.75,-2.89 -4.49,-4.57 -6.79,-4.57 h 0 c -2.14,0 -4.32,1.54 -4.32,5.43 0,2.44 1.29,7.82 2.89,10.36 2.48,3.83 5.33,4.58 6.72,4.58 l 0.04,1.09 c -6.67,0 -13.34,-7.06 -13.34,-14.14 0,-4.93 3.33,-8.42 7.97,-8.42 6.62,0 13.34,6.88 13.34,14.14 z"
           inkscape:connector-curvature="0"
           style="fill:#000000;stroke-width:0" /><path
           id="path3017"
           d="m 849.65,424.98 0.01,0.06 0.01,0.05 0.01,0.05 0.01,0.06 0.02,0.1 0.01,0.05 0.02,0.06 0.01,0.05 0.01,0.06 0.01,0.05 0,0.06 0.01,0.06 0,0.06 0.01,0.03 0,0.03 0,0.03 0,0.03 c 0,0.86 -0.59,1.36 -1.44,1.36 -0.5,0 -1.84,-0.36 -2.05,-2.16 -0.89,1.85 -2.64,3.14 -4.62,3.14 l 0.05,-1.09 c 3.28,0 3.98,-4.03 3.98,-4.28 0,-0.25 -0.09,-0.55 -0.16,-0.75 l -2.39,-9.52 c -0.29,-1.29 -1.43,-2.53 -2.53,-3.48 -1.04,-0.89 -2.59,-1.8 -4.04,-1.8 -2.49,0 -3.24,2.6 -3.24,4.58 0,2.41 1.45,8.28 2.8,10.81 1.34,2.46 3.48,4.44 5.58,4.44 l -0.05,1.09 c -5.69,0 -11.86,-6.96 -11.86,-14.14 0,-4.93 3.03,-7.87 6.63,-7.87 2.93,0 5.28,2.34 5.78,2.89 l 0.04,-0.05 c -1.04,-4.43 -1.64,-6.48 -1.64,-6.58 -0.2,-0.45 -1.89,-5.39 -7.17,-5.39 -0.95,0 -2.59,0.07 -4,0.5 1.5,0.46 2.05,1.75 2.05,2.6 0,0.79 -0.55,1.75 -1.89,1.75 -1.1,0 -2.69,-0.91 -2.69,-2.89 0,-2.05 1.84,-3.05 6.62,-3.05 6.22,0 9.82,3.89 10.57,6.88 z"
           inkscape:connector-curvature="0"
           style="fill:#000000;stroke-width:0" /><path
           id="path3019"
           d="m 866.83,421.95 0.2,1.28 3.4,13.56 c 0.43,1.74 0.54,1.89 2.68,1.89 h 4.79 c 4.13,0 6.78,-1.34 6.78,-4.78 0,-1.95 -1,-6.23 -2.94,-8.03 -2.5,-2.23 -5.49,-2.64 -7.69,-2.64 h -7.02 l -0.2,-1.28 h 8.47 c 7.08,0 14,5.17 14,10.75 0,3.84 -3.28,7.53 -9.81,7.53 h -16.14 c -0.95,0 -1.5,0 -1.5,-0.95 0,-0.6 0.45,-0.6 1.45,-0.6 0.64,0 1.55,-0.04 2.14,-0.09 0.8,-0.11 1.09,-0.25 1.09,-0.8 0,-0.2 -0.04,-0.36 -0.2,-0.95 l -6.67,-26.75 c -0.5,-1.95 -0.59,-2.34 -4.53,-2.34 -0.85,0 -1.39,0 -1.39,-0.96 0,-0.59 0.59,-0.59 0.73,-0.59 1.41,0 4.94,0.16 6.33,0.16 1.05,0 2.14,-0.07 3.19,-0.07 1.11,0 2.2,-0.09 3.25,-0.09 0.34,0 0.98,0 0.98,1 0,0.55 -0.44,0.55 -1.39,0.55 -1.84,0 -3.23,0 -3.23,0.89 0,0.29 0.09,0.54 0.14,0.84 z"
           inkscape:connector-curvature="0"
           style="fill:#000000;stroke-width:0" /><path
           id="path3021"
           d="m 907.22,394.25 0,0.02 0,0.03 0,0.01 -0.01,0.02 0,0.01 0,0.02 -0.01,0.01 -0.01,0.02 -0.01,0.02 -0.01,0.02 -0.01,0.02 -0.01,0.03 -0.02,0.02 -0.02,0.03 -0.02,0.03 -0.02,0.03 -0.03,0.03 -0.03,0.04 -0.01,0.02 -0.02,0.02 -0.02,0.02 -0.02,0.02 -0.01,0.02 -0.02,0.03 -0.03,0.02 -0.02,0.02 -0.02,0.03 -0.02,0.02 -0.03,0.03 -0.02,0.03 -0.03,0.03 -0.03,0.03 -0.03,0.03 -0.03,0.03 -0.03,0.03 -0.03,0.03 -0.03,0.04 -0.04,0.03 -0.03,0.04 -0.04,0.03 -0.04,0.04 -0.03,0.04 c -6.22,6.28 -7.82,15.69 -7.82,23.31 0,8.67 1.89,17.35 8.02,23.56 0.64,0.61 0.64,0.71 0.64,0.86 0,0.35 -0.19,0.49 -0.49,0.49 -0.5,0 -4.98,-3.38 -7.92,-9.7 -2.54,-5.49 -3.14,-11.02 -3.14,-15.21 0,-3.89 0.55,-9.9 3.28,-15.54 2.99,-6.13 7.28,-9.36 7.78,-9.36 0.3,0 0.49,0.14 0.49,0.5 z"
           inkscape:connector-curvature="0"
           style="fill:#000000;stroke-width:0" /><path
           id="path3023"
           d="m 933.07,423.09 0.02,0.1 0.03,0.11 0.02,0.12 0.03,0.11 0.03,0.12 0.03,0.12 0.06,0.25 0.06,0.25 0.06,0.25 0.06,0.24 0.06,0.25 0.03,0.11 0.03,0.12 0.03,0.11 0.02,0.11 0.03,0.1 0.02,0.1 0.02,0.1 0.02,0.09 0.02,0.08 0.02,0.08 0.01,0.07 0.01,0.06 0.01,0.06 0.01,0.05 0,0.04 0.01,0.03 c 0,0.91 -0.71,1.35 -1.46,1.35 -0.59,0 -1.48,-0.39 -1.83,-1.39 -0.15,-0.35 -2.5,-9.86 -2.84,-11.16 -0.36,-1.5 -0.45,-2.39 -0.45,-3.3 0,-0.54 0,-0.64 0.04,-0.89 -1.13,-2.64 -2.63,-4.18 -4.57,-4.18 -3.99,0 -3.99,3.68 -3.99,4.53 0,1.59 0.25,3.54 2.6,9.67 0.54,1.48 0.84,2.19 0.84,3.19 0,2.23 -1.64,4.07 -4.09,4.07 -4.74,0 -6.58,-7.21 -6.58,-7.67 0,-0.5 0.5,-0.5 0.61,-0.5 0.5,0 0.55,0.11 0.8,0.91 1.34,4.62 3.28,6.17 5.03,6.17 0.43,0 1.25,-0.05 1.25,-1.64 0,-1.25 -0.57,-2.64 -0.91,-3.48 -2.19,-5.88 -2.78,-8.18 -2.78,-10.07 0,-4.53 3.33,-6.28 7.06,-6.28 0.86,0 3.19,0 5.19,3.49 1.29,-3.19 4.73,-3.49 6.23,-3.49 3.74,0 5.93,3.14 7.22,6.13 1.69,3.89 3.28,10.56 3.28,12.95 0,2.75 -1.34,3.48 -2.19,3.48 -1.25,0 -2.48,-1.29 -2.48,-2.39 0,-0.64 0.3,-0.93 0.73,-1.34 0.55,-0.55 1.8,-1.84 1.8,-4.23 0,-1.69 -1.43,-6.58 -2.73,-9.11 -1.3,-2.64 -3.05,-4.39 -5.49,-4.39 -2.34,0 -3.68,1.5 -3.68,4.32 0,1.41 0.34,2.96 0.54,3.64 z"
           inkscape:connector-curvature="0"
           style="fill:#000000;stroke-width:0" /><path
           id="path3025"
           d="m 957.12,406.25 -0.01,0.3 -0.01,0.3 -0.02,0.29 -0.02,0.28 -0.03,0.27 -0.04,0.26 -0.04,0.26 -0.06,0.24 -0.05,0.24 -0.07,0.23 -0.07,0.22 -0.08,0.21 -0.08,0.2 -0.09,0.19 -0.09,0.19 -0.1,0.17 -0.11,0.16 -0.11,0.16 -0.12,0.14 -0.12,0.13 -0.13,0.13 -0.14,0.11 -0.13,0.1 -0.15,0.1 -0.15,0.08 -0.15,0.07 -0.16,0.06 -0.16,0.05 -0.17,0.04 -0.17,0.03 -0.18,0.01 -0.18,0.01 c -1.64,0 -2.64,-1.25 -2.64,-2.64 0,-1.34 1,-2.64 2.64,-2.64 0.59,0 1.25,0.2 1.75,0.64 0.14,0.11 0.2,0.16 0.25,0.16 0.05,0 0.09,-0.05 0.09,-0.75 0,-3.69 -1.73,-6.68 -3.39,-8.32 -0.54,-0.54 -0.54,-0.65 -0.54,-0.79 0,-0.36 0.25,-0.55 0.5,-0.55 0.54,0 4.53,3.83 4.53,9.66 z"
           inkscape:connector-curvature="0"
           style="fill:#000000;stroke-width:0" /><path
           id="path3027"
           d="m 994.79,440.23 0,0 0,0.01 0,0 0,0.01 0,0.02 0,0.01 -0.01,0.02 0,0.02 0,0.02 -0.01,0.02 0,0.02 -0.01,0.02 0,0.02 -0.01,0.03 -0.01,0.02 -0.02,0.03 -0.01,0.02 -0.02,0.03 -0.02,0.02 -0.02,0.02 -0.02,0.03 -0.01,0.01 -0.01,0.01 -0.02,0.01 -0.01,0.01 -0.01,0.01 -0.02,0.01 -0.01,0.01 -0.02,0.01 -0.02,0.01 -0.02,0.01 -0.02,0 -0.01,0.01 -0.03,0.01 -0.02,0 -0.02,0.01 -0.02,0.01 -0.02,0 -0.03,0 -0.02,0.01 -0.03,0 -0.03,0 -0.02,0.01 -0.03,0 -0.03,0 c -0.75,0 -5.49,-0.46 -6.33,-0.55 -0.41,-0.05 -0.7,-0.3 -0.7,-0.95 0,-0.6 0.45,-0.6 1.2,-0.6 2.39,0 2.48,-0.34 2.48,-0.84 l -0.14,-1 -3,-11.81 c -0.89,1.84 -2.34,3.18 -4.57,3.18 l 0.04,-1.09 c 3.24,0 3.94,-4.08 3.94,-4.37 0,-0.32 -0.09,-0.61 -0.14,-0.86 l -2.5,-9.77 c -0.25,-0.89 -0.25,-0.98 -1,-1.84 -2.19,-2.74 -4.23,-3.53 -5.63,-3.53 -2.48,0 -3.18,2.73 -3.18,4.68 0,2.49 1.59,8.61 2.73,10.91 1.55,2.94 3.8,4.78 5.78,4.78 l -0.04,1.09 c -5.83,0 -12,-7.31 -12,-14.59 0,-4.69 2.73,-7.97 6.62,-7.97 0.99,0 3.49,0.21 6.47,3.74 0.41,-2.1 2.14,-3.74 4.53,-3.74 1.75,0 2.89,1.14 3.69,2.74 0.84,1.79 1.5,4.84 1.5,4.93 0,0.5 -0.45,0.5 -0.6,0.5 -0.5,0 -0.54,-0.2 -0.7,-0.9 -0.84,-3.24 -1.75,-6.17 -3.78,-6.17 -1.34,0 -1.5,1.29 -1.5,2.29 0,1.19 0.09,1.55 0.3,2.39 z"
           inkscape:connector-curvature="0"
           style="fill:#000000;stroke-width:0" /><path
           id="path3029"
           d="m 1002.9,441.78 0,0.16 0,0.17 0,0.16 0,0.08 0,0.08 0,0.08 0,0.08 0,0.07 0,0.07 0,0.07 -0.1,0.07 0,0.07 0,0.06 0,0.06 0,0.06 -0.1,0.06 0,0.05 -0.1,0.05 0,0.05 0,0.04 -0.1,0.04 0,0.01 0,0.02 -0.1,0.02 0,0.01 0,0.01 -0.1,0.02 0,0.01 0,0.01 -0.1,0.01 0,0.01 -0.1,0 0,0.01 0,0 -0.1,0.01 0,0 -0.1,0 c -1,0 -1,-0.89 -1,-1.78 v -46.24 c 0,-0.9 0,-1.79 1,-1.79 1,0 1,0.89 1,1.79 z"
           inkscape:connector-curvature="0"
           style="fill:#000000;stroke-width:0" /><path
           id="path3031"
           d="m 1031.5,431.11 0,0.31 0,0.34 -0.1,0.36 0,0.37 0,0.39 0,0.39 -0.1,0.41 -0.1,0.41 0,0.42 -0.1,0.43 -0.1,0.42 -0.1,0.43 -0.1,0.42 -0.1,0.42 -0.2,0.41 -0.1,0.41 -0.2,0.4 -0.2,0.38 -0.2,0.37 -0.2,0.36 -0.2,0.34 -0.3,0.32 -0.2,0.3 -0.3,0.27 -0.3,0.25 -0.2,0.12 -0.2,0.1 -0.1,0.1 -0.2,0.1 -0.2,0.08 -0.2,0.08 -0.2,0.07 -0.2,0.06 -0.2,0.05 -0.2,0.05 -0.2,0.03 -0.2,0.02 -0.3,0.02 -0.2,0 -0.1,-1.09 c 2.5,0 2.8,-3.19 2.8,-6.03 0,-2.44 -0.4,-4.99 -1.6,-9.92 h -10.4 c 0.8,3.2 1.8,7.18 3.8,10.72 1.4,2.43 3.2,5.23 5.4,5.23 l 0.1,1.09 c -6.9,0 -14.6,-14.04 -14.6,-25.45 0,-4.69 1.4,-10.22 6,-10.22 v 1.1 c -1.7,0 -2.7,1.45 -2.7,6.07 0,2.1 0.3,4.99 1.6,9.86 h 10.3 c -0.5,-2.28 -1.5,-6.51 -3.5,-10.11 -1.7,-3.39 -3.6,-5.82 -5.7,-5.82 v -1.1 c 7,0 14.6,14.3 14.6,25.46 z"
           inkscape:connector-curvature="0"
           style="fill:#000000;stroke-width:0" /><path
           id="path3033"
           d="m 1048,418.65 0,0.37 0,0.39 0,0.39 0,0.41 0,0.84 -0.1,0.88 -0.1,0.92 -0.1,0.95 -0.1,0.97 -0.2,1.01 -0.2,1.02 -0.2,1.03 -0.3,1.05 -0.3,1.06 -0.3,1.07 -0.4,1.07 -0.2,0.53 -0.3,0.53 -0.2,0.53 -0.2,0.53 c -3,6.12 -7.3,9.36 -7.8,9.36 -0.3,0 -0.5,-0.19 -0.5,-0.49 0,-0.15 0,-0.25 0.9,-1.15 4.9,-4.92 7.8,-12.85 7.8,-23.27 0,-8.51 -1.9,-17.28 -8.1,-23.56 -0.6,-0.59 -0.6,-0.7 -0.6,-0.84 0,-0.3 0.2,-0.5 0.5,-0.5 0.5,0 4.9,3.39 7.9,9.71 2.5,5.47 3.1,11 3.1,15.19 z"
           inkscape:connector-curvature="0"
           style="fill:#000000;stroke-width:0" /><path
           id="path3035"
           d="m 415.11,362.74 0.14,0 0.15,0 0.14,0 0.07,0.01 0.08,0 0.07,0.01 0.07,0.01 0.07,0.01 0.07,0.01 0.07,0.01 0.06,0.02 0.07,0.02 0.06,0.02 0.06,0.03 0.06,0.02 0.06,0.03 0.05,0.04 0.05,0.04 0.05,0.04 0.04,0.04 0.04,0.05 0.02,0.03 0.02,0.03 0.01,0.03 0.02,0.03 0.01,0.03 0.02,0.03 0.01,0.03 0.01,0.04 0.01,0.03 0.01,0.04 0,0.04 0.01,0.04 0,0.04 0.01,0.04 0,0.05 0,0.04 c 0,1 -0.95,1 -1.64,1 h -29.84 c -0.71,0 -1.64,0 -1.64,-1 0,-0.98 0.93,-0.98 1.68,-0.98 z"
           inkscape:connector-curvature="0"
           style="fill:#000000;stroke-width:0" /><path
           id="path3037"
           d="m 415.16,353.07 0.07,0 0.06,0 0.14,0 0.14,0 0.07,0.01 0.07,0 0.07,0.01 0.07,0.01 0.06,0.01 0.07,0.01 0.07,0.01 0.06,0.02 0.07,0.02 0.06,0.02 0.06,0.03 0.06,0.02 0.05,0.04 0.05,0.03 0.05,0.04 0.05,0.04 0.04,0.05 0.02,0.02 0.02,0.03 0.02,0.02 0.02,0.03 0.01,0.03 0.02,0.03 0.01,0.03 0.02,0.04 0.01,0.03 0.01,0.04 0.01,0.03 0.01,0.04 0,0.04 0.01,0.04 0,0.04 0.01,0.05 0,0.04 0,0.05 c 0,1 -0.95,1 -1.69,1 h -29.75 c -0.75,0 -1.68,0 -1.68,-1 0,-1 0.93,-1 1.64,-1 z"
           inkscape:connector-curvature="0"
           style="fill:#000000;stroke-width:0" /><path
           id="path3039"
           d="m 466.27,357.89 0.15,0.01 0.16,0 0.16,0 0.08,0.01 0.08,0 0.07,0.01 0.08,0.01 0.07,0.01 0.07,0.01 0.07,0.01 0.07,0.02 0.06,0.02 0.07,0.02 0.06,0.02 0.06,0.03 0.05,0.03 0.05,0.04 0.05,0.04 0.05,0.04 0.04,0.05 0.04,0.05 0.02,0.02 0.02,0.03 0.01,0.03 0.02,0.03 0.01,0.03 0.01,0.04 0.01,0.03 0.02,0.03 0,0.04 0.01,0.04 0.01,0.04 0.01,0.04 0,0.04 0,0.04 0.01,0.05 0,0.04 c 0,1 -0.91,1 -1.75,1 h -26.96 c -0.84,0 -1.73,0 -1.73,-1 0,-1 0.89,-1 1.73,-1 z"
           inkscape:connector-curvature="0"
           style="fill:#000000;stroke-width:0" /><path
           id="path3041"
           d="m 501.45,357.15 -17.69,-21.86 c -0.39,-0.5 -0.44,-0.61 -0.44,-0.79 0,-0.57 0.44,-0.57 1.35,-0.57 h 41.3 l 4.28,12.41 h -1.24 c -1.25,-3.73 -4.59,-6.77 -8.83,-8.22 -0.79,-0.25 -4.23,-1.44 -11.54,-1.44 h -21.19 l 17.3,21.38 c 0.34,0.44 0.45,0.59 0.45,0.8 0,0.18 -0.06,0.25 -0.36,0.68 l -16.19,22.22 h 19.74 c 5.67,0 17.12,-0.34 20.62,-9.65 h 1.24 l -4.28,11.65 h -41.3 c -1.35,0 -1.39,-0.05 -1.39,-1.59 z"
           inkscape:connector-curvature="0"
           style="fill:#000000;stroke-width:0" /><path
           id="path3043"
           d="m 552.93,354.58 0,0.01 0,0 0.01,0 0,0.01 0,0 0,0.01 0.01,0.01 0,0 0,0.01 0,0.01 0.01,0.01 0.01,0.02 0,0.02 0.01,0.02 0,0.02 0.01,0.02 0,0.02 0.01,0.03 0.01,0.02 0.01,0.05 0,0.02 0.01,0.02 0,0.03 0.01,0.02 0,0.02 0.01,0.02 0,0.02 0,0.02 0.01,0.02 0,0.01 0,0.01 0,0.01 0,0 0.01,0.01 0,0 0,0.01 0,0 0,0.01 0,0 0,0 0,0.01 0,0 c 0,0.19 -0.14,0.5 -0.55,0.5 -0.7,0 -3.59,-0.28 -4.47,-0.36 -0.28,-0.03 -0.76,-0.06 -0.76,-0.8 0,-0.48 0.48,-0.48 0.91,-0.48 1.67,0 1.67,-0.25 1.67,-0.53 0,-0.24 -0.07,-0.46 -0.14,-0.77 l -1.99,-7.94 c -0.73,1.14 -1.92,2.05 -3.59,2.05 v -0.97 c 2.44,0 3.11,-2.64 3.11,-3.03 0,-0.14 -0.08,-0.39 -0.11,-0.48 l -1.64,-6.52 c -0.24,-0.98 -1,-1.67 -1.77,-2.34 -0.31,-0.27 -1.72,-1.39 -3.22,-1.39 -1.28,0 -2.53,0.9 -2.53,3.37 0,1.86 1,5.69 1.81,7.08 1.6,2.8 3.38,3.31 4.35,3.31 v 0.97 c -4.45,0 -8.99,-4.91 -8.99,-9.92 0,-3.38 2.27,-5.78 5.27,-5.78 1.87,0 3.55,1.08 4.94,2.44 0.67,-2.1 2.68,-2.44 3.59,-2.44 1.25,0 2.13,0.76 2.75,1.84 0.77,1.36 1.22,3.35 1.22,3.49 0,0.45 -0.45,0.45 -0.55,0.45 -0.5,0 -0.53,-0.14 -0.76,-1.08 -0.42,-1.67 -1.1,-3.73 -2.55,-3.73 -0.91,0 -1.16,0.76 -1.16,1.7 0,0.67 0.08,0.98 0.18,1.44 z"
           inkscape:connector-curvature="0"
           style="fill:#000000;stroke-width:0" /><path
           id="path3045"
           d="m 585.57,357.15 -17.69,-21.86 c -0.39,-0.5 -0.43,-0.61 -0.43,-0.79 0,-0.57 0.43,-0.57 1.34,-0.57 h 41.3 l 4.28,12.41 h -1.24 c -1.25,-3.73 -4.59,-6.77 -8.83,-8.22 -0.79,-0.25 -4.23,-1.44 -11.54,-1.44 h -21.19 l 17.3,21.38 c 0.34,0.44 0.45,0.59 0.45,0.8 0,0.18 -0.06,0.25 -0.36,0.68 l -16.19,22.22 h 19.74 c 5.67,0 17.12,-0.34 20.62,-9.65 h 1.24 l -4.28,11.65 h -41.3 c -1.34,0 -1.39,-0.05 -1.39,-1.59 z"
           inkscape:connector-curvature="0"
           style="fill:#000000;stroke-width:0" /><path
           id="path3047"
           d="m 635.49,342.55 0.02,0.09 0.03,0.1 0.02,0.1 0.03,0.1 0.02,0.1 0.03,0.11 0.06,0.22 0.05,0.22 0.06,0.22 0.05,0.22 0.02,0.11 0.03,0.1 0.02,0.11 0.03,0.1 0.02,0.09 0.02,0.1 0.02,0.09 0.02,0.09 0.02,0.08 0.02,0.07 0.01,0.07 0.02,0.07 0.01,0.06 0.01,0.05 0,0.04 0.01,0.04 0,0.01 0,0.02 0,0.01 0.01,0.01 c 0,0.69 -0.55,1.11 -1.15,1.11 -0.67,0 -1.29,-0.42 -1.5,-1.02 -0.1,-0.26 -0.45,-1.73 -0.7,-2.61 -0.48,-1.98 -0.48,-2.04 -1,-4 -0.45,-1.92 -0.53,-2.2 -0.56,-3.2 0.14,-0.7 -0.14,-1.36 -0.99,-2.41 -0.43,-0.56 -1.14,-1.15 -2.32,-1.15 -1.36,0 -3.15,0.48 -3.15,3.2 0,1.78 0.99,4.36 1.68,6.14 0.59,1.53 0.73,1.84 0.73,2.44 0,1.67 -1.42,2.95 -3.31,2.95 -3.52,0 -5.08,-4.73 -5.08,-5.33 0,-0.45 0.48,-0.45 0.6,-0.45 0.48,0 0.51,0.17 0.62,0.56 0.88,2.89 2.38,4.25 3.76,4.25 0.6,0 0.87,-0.39 0.87,-1.22 0,-0.79 -0.32,-1.56 -0.49,-2.01 -1.98,-5.1 -1.98,-5.8 -1.98,-6.88 0,-4.11 3.73,-4.62 5.6,-4.62 0.68,0 2.38,0 3.94,2.33 0.8,-1.57 2.72,-2.33 4.85,-2.33 3.11,0 4.64,2.67 5.33,4.11 1.5,2.92 2.43,7.28 2.43,8.89 0,2.61 -1.48,2.75 -1.73,2.75 -0.91,0 -1.88,-0.96 -1.88,-1.86 0,-0.58 0.35,-0.86 0.58,-1.08 0.85,-0.69 1.3,-1.67 1.3,-2.78 0,-0.45 -1.47,-9.06 -5.89,-9.06 -2.83,0 -2.83,2.51 -2.83,3.11 0,0.93 0.14,1.5 0.64,3.48 z"
           inkscape:connector-curvature="0"
           style="fill:#000000;stroke-width:0" /><path
           id="path3049"
           d="m 662.11,349.38 -0.02,-0.07 -0.01,-0.08 -0.02,-0.07 -0.02,-0.08 -0.03,-0.16 -0.04,-0.16 -0.04,-0.16 -0.03,-0.16 -0.04,-0.16 -0.04,-0.16 -0.01,-0.08 -0.02,-0.07 -0.02,-0.07 -0.01,-0.07 -0.02,-0.07 -0.01,-0.07 -0.01,-0.06 -0.02,-0.06 -0.01,-0.05 -0.01,-0.06 0,-0.04 -0.01,-0.05 -0.01,-0.04 0,-0.03 0,-0.04 0,-0.02 c 0,-0.89 0.7,-1.35 1.43,-1.35 0.61,0 1.5,0.4 1.85,1.4 0.06,0.1 0.65,2.43 0.95,3.68 l 1.09,4.49 c 0.3,1.09 0.6,2.18 0.85,3.34 0.2,0.84 0.61,2.28 0.65,2.49 0.75,1.54 3.4,6.07 8.11,6.07 2.25,0 2.71,-1.84 2.71,-3.48 0,-3.09 -2.46,-9.47 -3.25,-11.61 -0.44,-1.14 -0.49,-1.75 -0.49,-2.3 0,-2.33 1.74,-4.08 4.08,-4.08 4.69,0 6.53,7.27 6.53,7.68 0,0.5 -0.45,0.5 -0.61,0.5 -0.48,0 -0.48,-0.16 -0.73,-0.91 -1,-3.37 -2.64,-6.17 -5.1,-6.17 -0.84,0 -1.18,0.5 -1.18,1.64 0,1.25 0.45,2.45 0.89,3.55 0.95,2.64 3.04,8.11 3.04,10.95 0,3.34 -2.14,5.33 -5.73,5.33 -4.48,0 -6.92,-3.19 -7.77,-4.33 -0.25,2.8 -2.29,4.33 -4.59,4.33 -2.28,0 -3.23,-1.94 -3.73,-2.83 -0.8,-1.7 -1.5,-4.64 -1.5,-4.84 0,-0.5 0.5,-0.5 0.61,-0.5 0.5,0 0.54,0.06 0.84,1.15 0.84,3.53 1.84,5.92 3.64,5.92 0.98,0 1.55,-0.64 1.55,-2.28 0,-1.04 -0.16,-1.61 -0.8,-4.19 z"
           inkscape:connector-curvature="0"
           style="fill:#000000;stroke-width:0" /><path
           id="path3051"
           d="m 704.08,334.49 0,0.02 0,0.03 0,0.01 0,0.02 -0.01,0.01 0,0.02 -0.01,0.02 0,0.01 -0.01,0.02 -0.01,0.02 -0.01,0.03 -0.02,0.02 -0.01,0.02 -0.02,0.03 -0.02,0.03 -0.03,0.03 -0.02,0.04 -0.03,0.03 -0.02,0.02 -0.02,0.02 -0.01,0.02 -0.02,0.02 -0.02,0.02 -0.02,0.03 -0.02,0.02 -0.02,0.02 -0.03,0.03 -0.02,0.03 -0.03,0.02 -0.02,0.03 -0.03,0.03 -0.02,0.03 -0.03,0.03 -0.03,0.03 -0.03,0.03 -0.04,0.03 -0.03,0.04 -0.03,0.03 -0.04,0.04 -0.04,0.04 -0.03,0.03 -0.04,0.04 c -6.22,6.28 -7.81,15.69 -7.81,23.31 0,8.68 1.89,17.35 8.01,23.57 0.64,0.61 0.64,0.7 0.64,0.86 0,0.34 -0.18,0.48 -0.48,0.48 -0.5,0 -4.99,-3.37 -7.92,-9.7 -2.55,-5.49 -3.15,-11.02 -3.15,-15.21 0,-3.89 0.55,-9.9 3.29,-15.54 2.98,-6.13 7.28,-9.36 7.78,-9.36 0.3,0 0.48,0.14 0.48,0.5 z"
           inkscape:connector-curvature="0"
           style="fill:#000000;stroke-width:0" /><path
           id="path3053"
           d="m 729.93,363.33 0.02,0.11 0.03,0.11 0.03,0.11 0.02,0.11 0.03,0.12 0.03,0.12 0.06,0.25 0.06,0.25 0.07,0.25 0.06,0.25 0.06,0.24 0.03,0.12 0.03,0.11 0.02,0.11 0.03,0.11 0.02,0.11 0.03,0.1 0.02,0.09 0.02,0.09 0.02,0.08 0.01,0.08 0.02,0.07 0.01,0.07 0.01,0.05 0,0.05 0.01,0.04 0,0.04 c 0,0.9 -0.7,1.34 -1.45,1.34 -0.6,0 -1.49,-0.39 -1.83,-1.39 -0.16,-0.34 -2.5,-9.86 -2.85,-11.16 -0.35,-1.5 -0.45,-2.39 -0.45,-3.29 0,-0.55 0,-0.64 0.05,-0.89 -1.14,-2.64 -2.64,-4.19 -4.58,-4.19 -3.98,0 -3.98,3.69 -3.98,4.53 0,1.59 0.25,3.55 2.59,9.67 0.55,1.49 0.84,2.19 0.84,3.19 0,2.23 -1.64,4.08 -4.09,4.08 -4.73,0 -6.58,-7.22 -6.58,-7.67 0,-0.5 0.5,-0.5 0.61,-0.5 0.5,0 0.55,0.1 0.8,0.9 1.34,4.63 3.28,6.17 5.03,6.17 0.44,0 1.25,-0.04 1.25,-1.64 0,-1.25 -0.56,-2.64 -0.91,-3.48 -2.18,-5.88 -2.78,-8.17 -2.78,-10.06 0,-4.54 3.33,-6.29 7.06,-6.29 0.86,0 3.19,0 5.19,3.49 1.3,-3.19 4.74,-3.49 6.24,-3.49 3.73,0 5.92,3.15 7.21,6.13 1.69,3.89 3.29,10.56 3.29,12.95 0,2.75 -1.35,3.49 -2.19,3.49 -1.25,0 -2.49,-1.3 -2.49,-2.39 0,-0.64 0.3,-0.94 0.74,-1.35 0.55,-0.54 1.8,-1.84 1.8,-4.23 0,-1.69 -1.44,-6.58 -2.74,-9.11 -1.3,-2.64 -3.05,-4.39 -5.48,-4.39 -2.35,0 -3.69,1.5 -3.69,4.33 0,1.4 0.34,2.95 0.55,3.64 z"
           inkscape:connector-curvature="0"
           style="fill:#000000;stroke-width:0" /><path
           id="path3055"
           d="m 753.98,346.49 0,0.3 -0.01,0.3 -0.02,0.29 -0.03,0.28 -0.03,0.27 -0.04,0.27 -0.04,0.25 -0.05,0.25 -0.06,0.23 -0.07,0.23 -0.07,0.22 -0.07,0.21 -0.09,0.2 -0.09,0.2 -0.09,0.18 -0.1,0.17 -0.11,0.17 -0.11,0.15 -0.12,0.14 -0.12,0.14 -0.13,0.12 -0.13,0.11 -0.14,0.11 -0.15,0.09 -0.14,0.08 -0.16,0.07 -0.16,0.06 -0.16,0.05 -0.17,0.04 -0.17,0.03 -0.18,0.02 -0.18,0 c -1.64,0 -2.64,-1.25 -2.64,-2.64 0,-1.34 1,-2.64 2.64,-2.64 0.6,0 1.25,0.2 1.75,0.64 0.14,0.11 0.21,0.16 0.25,0.16 0.05,0 0.1,-0.05 0.1,-0.75 0,-3.69 -1.74,-6.67 -3.39,-8.31 -0.55,-0.55 -0.55,-0.66 -0.55,-0.8 0,-0.36 0.25,-0.55 0.5,-0.55 0.55,0 4.53,3.83 4.53,9.66 z"
           inkscape:connector-curvature="0"
           style="fill:#000000;stroke-width:0" /><path
           id="path3057"
           d="m 791.65,380.47 0,0.01 0,0 0,0.01 0,0.01 0,0.01 0,0.01 0,0.02 0,0.02 -0.01,0.02 0,0.02 -0.01,0.02 0,0.02 -0.01,0.03 -0.01,0.02 -0.01,0.02 -0.01,0.03 -0.02,0.02 -0.01,0.03 -0.02,0.02 -0.02,0.03 -0.02,0.02 -0.02,0.01 -0.01,0.01 -0.01,0.01 -0.02,0.01 -0.01,0.01 -0.02,0.01 -0.01,0.01 -0.02,0.01 -0.02,0.01 -0.01,0.01 -0.02,0.01 -0.02,0 -0.02,0.01 -0.02,0.01 -0.02,0 -0.03,0.01 -0.02,0 -0.02,0.01 -0.03,0 -0.03,0 -0.02,0.01 -0.03,0 -0.03,0 -0.03,0 c -0.75,0 -5.48,-0.45 -6.33,-0.55 -0.4,-0.04 -0.7,-0.29 -0.7,-0.95 0,-0.59 0.45,-0.59 1.2,-0.59 2.39,0 2.49,-0.35 2.49,-0.85 l -0.14,-1 -3,-11.81 c -0.89,1.84 -2.35,3.19 -4.58,3.19 l 0.05,-1.1 c 3.23,0 3.93,-4.07 3.93,-4.37 0,-0.31 -0.09,-0.61 -0.14,-0.86 l -2.5,-9.77 c -0.25,-0.89 -0.25,-0.98 -1,-1.84 -2.19,-2.73 -4.23,-3.53 -5.62,-3.53 -2.49,0 -3.19,2.73 -3.19,4.69 0,2.48 1.59,8.61 2.74,10.9 1.54,2.94 3.79,4.78 5.78,4.78 l -0.05,1.1 c -5.83,0 -12,-7.32 -12,-14.6 0,-4.68 2.73,-7.97 6.62,-7.97 0.99,0 3.49,0.21 6.47,3.74 0.41,-2.09 2.14,-3.74 4.53,-3.74 1.75,0 2.9,1.15 3.69,2.74 0.84,1.8 1.5,4.84 1.5,4.94 0,0.5 -0.45,0.5 -0.59,0.5 -0.5,0 -0.55,-0.21 -0.7,-0.91 -0.85,-3.23 -1.75,-6.17 -3.79,-6.17 -1.34,0 -1.5,1.3 -1.5,2.3 0,1.18 0.1,1.54 0.3,2.39 z"
           inkscape:connector-curvature="0"
           style="fill:#000000;stroke-width:0" /><path
           id="path3059"
           d="m 806.26,358.89 0,0.38 -0.01,0.38 -0.01,0.39 -0.01,0.41 -0.04,0.84 -0.06,0.88 -0.08,0.92 -0.11,0.95 -0.13,0.98 -0.17,1 -0.19,1.02 -0.23,1.04 -0.27,1.05 -0.31,1.06 -0.34,1.06 -0.4,1.07 -0.21,0.53 -0.23,0.53 -0.23,0.53 -0.25,0.53 c -2.99,6.13 -7.27,9.36 -7.77,9.36 -0.3,0 -0.5,-0.19 -0.5,-0.48 0,-0.16 0,-0.25 0.94,-1.16 4.89,-4.92 7.73,-12.84 7.73,-23.27 0,-8.51 -1.84,-17.28 -8.03,-23.56 -0.64,-0.59 -0.64,-0.7 -0.64,-0.84 0,-0.3 0.2,-0.5 0.5,-0.5 0.5,0 4.97,3.39 7.92,9.72 2.53,5.47 3.13,11 3.13,15.18 z"
           inkscape:connector-curvature="0"
           style="fill:#000000;stroke-width:0" /><path
           id="path3061"
           d="m 824.04,380.47 0,0.01 0,0 0,0.01 0,0.01 0,0.01 0,0.01 0,0.02 0,0.02 -0.01,0.02 0,0.02 -0.01,0.02 0,0.02 -0.01,0.03 -0.01,0.02 -0.01,0.02 -0.01,0.03 -0.02,0.02 -0.02,0.03 -0.01,0.02 -0.02,0.03 -0.03,0.02 -0.01,0.01 -0.01,0.01 -0.02,0.01 -0.01,0.01 -0.02,0.01 -0.01,0.01 -0.02,0.01 -0.01,0.01 -0.02,0.01 -0.02,0.01 -0.02,0.01 -0.02,0 -0.02,0.01 -0.02,0.01 -0.02,0 -0.03,0.01 -0.02,0 -0.03,0.01 -0.02,0 -0.03,0 -0.02,0.01 -0.03,0 -0.03,0 -0.03,0 c -1.14,0 -4.79,-0.41 -6.08,-0.5 -0.39,-0.05 -0.94,-0.09 -0.94,-1.05 0,-0.54 0.48,-0.54 1.23,-0.54 2.4,0 2.46,-0.46 2.46,-0.85 l -0.16,-1 -6.28,-24.9 c -0.14,-0.55 -0.25,-0.91 -0.25,-1.71 0,-2.83 2.2,-4.58 4.53,-4.58 1.66,0 2.89,1 3.75,2.79 0.89,1.9 1.49,4.79 1.49,4.89 0,0.5 -0.44,0.5 -0.6,0.5 -0.5,0 -0.54,-0.21 -0.7,-0.91 -0.84,-3.23 -1.78,-6.17 -3.78,-6.17 -1.5,0 -1.5,1.59 -1.5,2.3 0,1.18 0.06,1.43 0.29,2.39 z"
           inkscape:connector-curvature="0"
           style="fill:#000000;stroke-width:0" /><path
           id="path3063"
           d="m 850.38,360.04 -0.01,0.48 -0.03,0.46 -0.05,0.46 -0.07,0.45 -0.08,0.43 -0.11,0.42 -0.12,0.41 -0.14,0.39 -0.16,0.38 -0.17,0.37 -0.19,0.35 -0.21,0.34 -0.22,0.32 -0.23,0.32 -0.25,0.29 -0.26,0.28 -0.27,0.27 -0.29,0.25 -0.3,0.23 -0.31,0.22 -0.33,0.2 -0.33,0.19 -0.34,0.17 -0.36,0.15 -0.36,0.14 -0.38,0.11 -0.38,0.11 -0.39,0.08 -0.39,0.06 -0.41,0.05 -0.41,0.03 -0.42,0.01 c -6.67,0 -13.34,-7.07 -13.34,-14.14 0,-4.94 3.33,-8.43 7.97,-8.43 l 0.05,1.1 c -2.14,0 -4.33,1.55 -4.33,5.44 0,2.43 1.29,7.81 2.89,10.36 2.48,3.82 5.33,4.57 6.72,4.57 2.89,0 4.39,-2.39 4.39,-5.37 0,-1.95 -1,-7.17 -2.89,-10.42 -1.75,-2.89 -4.49,-4.58 -6.78,-4.58 h 0 l -0.05,-1.1 c 6.62,0 13.34,6.88 13.34,14.15 z"
           inkscape:connector-curvature="0"
           style="fill:#000000;stroke-width:0" /><path
           id="path3065"
           d="m 874.61,365.22 0.01,0.06 0.01,0.05 0.01,0.06 0.01,0.05 0.02,0.1 0.02,0.06 0.01,0.05 0.01,0.05 0.01,0.06 0.01,0.05 0,0.06 0.01,0.06 0.01,0.06 0,0.03 0,0.03 0,0.03 0,0.03 c 0,0.86 -0.59,1.36 -1.44,1.36 -0.5,0 -1.84,-0.36 -2.04,-2.15 -0.89,1.84 -2.65,3.14 -4.63,3.14 l 0.05,-1.1 c 3.28,0 3.98,-4.03 3.98,-4.28 0,-0.25 -0.09,-0.54 -0.15,-0.75 l -2.4,-9.51 c -0.29,-1.3 -1.43,-2.53 -2.53,-3.49 -1.04,-0.89 -2.59,-1.79 -4.04,-1.79 -2.49,0 -3.24,2.59 -3.24,4.57 0,2.41 1.46,8.28 2.8,10.82 1.34,2.45 3.48,4.43 5.58,4.43 l -0.05,1.1 c -5.69,0 -11.86,-6.97 -11.86,-14.14 0,-4.94 3.03,-7.88 6.63,-7.88 2.93,0 5.28,2.35 5.78,2.89 l 0.04,-0.04 c -1.04,-4.44 -1.64,-6.49 -1.64,-6.58 -0.2,-0.46 -1.89,-5.39 -7.17,-5.39 -0.95,0 -2.59,0.06 -4,0.5 1.5,0.45 2.05,1.75 2.05,2.59 0,0.8 -0.55,1.75 -1.89,1.75 -1.1,0 -2.69,-0.91 -2.69,-2.89 0,-2.05 1.84,-3.05 6.63,-3.05 6.21,0 9.81,3.89 10.56,6.88 z"
           inkscape:connector-curvature="0"
           style="fill:#000000;stroke-width:0" /><path
           id="path3067"
           d="m 962.67,388.16 0,0.04 0,0.04 0,0.04 0,0.04 0,0.04 0,0.04 0,0.04 0,0.03 0,0.04 -0.01,0.03 0,0.03 0,0.03 0,0.03 -0.01,0.03 0,0.03 0,0.02 -0.01,0.03 0,0.02 -0.01,0.02 0,0.03 -0.02,0.04 -0.01,0.04 -0.02,0.03 -0.02,0.03 -0.02,0.03 -0.02,0.03 -0.03,0.02 -0.03,0.02 -0.03,0.02 -0.04,0.01 -0.04,0.01 -0.05,0.01 -0.04,0.01 -0.03,0.01 -0.03,0 -0.02,0 -0.03,0.01 -0.03,0 -0.03,0 -0.03,0 -0.04,0.01 -0.03,0 -0.04,0 -0.03,0 -0.04,0 -0.04,0 -0.04,0 -0.04,0 -0.05,0 -0.04,0 -0.05,0 c -2.23,-2.2 -5.39,-2.23 -6.82,-2.23 v -1.25 c 0.84,0 3.14,0 5.04,0.96 v -17.76 c 0,-1.16 0,-1.61 -3.48,-1.61 h -1.31 V 366 c 0.62,0.03 4.9,0.14 6.2,0.14 1.08,0 5.47,-0.11 6.23,-0.14 v 1.25 h -1.32 c -3.49,0 -3.49,0.45 -3.49,1.61 z"
           inkscape:connector-curvature="0"
           style="fill:#000000;stroke-width:0" /><polyline
           id="polyline3069"
           points="883,358 1039.1,358 1039.1,360.04 883,360.04 "
           style="fill:#000000;fill-rule:nonzero;stroke-width:0" /><path
           id="path3071"
           d="m 894.84,340.08 0.14,1.12 2.37,9.44 c 0.28,1.08 0.31,1.19 1.78,1.19 h 4.08 c 3.24,0 5.25,-0.99 5.25,-3.45 0,-1.08 -0.41,-3.83 -2.16,-5.41 -1.25,-1.11 -3.23,-1.77 -5.75,-1.77 h -5.57 l -0.14,-1.12 h 6.31 c 5.89,0 10.87,3.76 10.87,7.56 0,2.94 -2.86,5.44 -7.64,5.44 H 892.2 c -0.71,0 -1.11,0 -1.11,-0.77 0,-0.48 0.37,-0.48 1.14,-0.48 0.56,0 0.7,0 1.32,-0.08 0.71,-0.06 0.77,-0.14 0.77,-0.48 0,-0.07 0,-0.24 -0.14,-0.77 l -4.59,-18.36 c -0.36,-1.36 -0.39,-1.61 -3.11,-1.61 -0.63,0 -1.05,0 -1.05,-0.76 0,-0.04 0,-0.49 0.56,-0.49 1.02,0 3.52,0.14 4.53,0.14 0.6,0 1.82,0 2.41,-0.03 0.69,-0.05 1.56,-0.11 2.23,-0.11 0.21,0 0.72,0 0.72,0.77 0,0.48 -0.4,0.48 -1.11,0.48 -0.03,0 -0.7,0 -1.32,0.08 -0.8,0.06 -0.8,0.17 -0.8,0.51 0,0.04 0,0.26 0.14,0.77 z"
           inkscape:connector-curvature="0"
           style="fill:#000000;stroke-width:0" /><path
           id="path3073"
           d="m 926.05,355.42 -0.61,-0.44 -0.57,-0.46 -0.56,-0.48 -0.52,-0.49 -0.5,-0.5 -0.47,-0.51 -0.45,-0.52 -0.42,-0.54 -0.4,-0.54 -0.38,-0.55 -0.35,-0.56 -0.33,-0.56 -0.31,-0.57 -0.29,-0.57 -0.26,-0.58 -0.25,-0.58 -0.23,-0.58 -0.21,-0.58 -0.19,-0.58 -0.17,-0.59 -0.16,-0.58 -0.14,-0.58 -0.12,-0.57 -0.11,-0.57 -0.09,-0.57 -0.08,-0.56 -0.06,-0.55 -0.06,-0.54 -0.04,-0.54 -0.02,-0.53 -0.02,-0.51 0,-0.51 c 0,-4.92 1.47,-12.55 8.37,-17.42 0.28,0 0.69,0 0.69,0.41 0,0.21 -0.09,0.28 -0.34,0.53 -4.65,4.18 -6.35,10.11 -6.35,16.45 0,9.41 3.6,14 6.45,16.58 0.15,0.14 0.24,0.25 0.24,0.42 0,0.42 -0.41,0.42 -0.69,0.42 z"
           inkscape:connector-curvature="0"
           style="fill:#000000;stroke-width:0" /><path
           id="path3075"
           d="m 947.6,340.39 0.03,0.09 0.02,0.1 0.03,0.1 0.02,0.1 0.03,0.1 0.03,0.11 0.05,0.22 0.05,0.22 0.06,0.22 0.05,0.22 0.03,0.11 0.02,0.1 0.03,0.11 0.02,0.1 0.02,0.09 0.03,0.1 0.02,0.09 0.02,0.09 0.01,0.08 0.02,0.07 0.02,0.07 0.01,0.07 0.01,0.06 0.01,0.05 0.01,0.04 0,0.04 0.01,0.01 0,0.02 0,0.01 0,0.01 c 0,0.69 -0.55,1.11 -1.14,1.11 -0.67,0 -1.3,-0.42 -1.5,-1.02 -0.11,-0.26 -0.46,-1.73 -0.71,-2.61 -0.48,-1.98 -0.48,-2.05 -1,-4 -0.45,-1.92 -0.53,-2.2 -0.56,-3.2 0.14,-0.7 -0.14,-1.36 -0.98,-2.41 -0.44,-0.56 -1.14,-1.15 -2.33,-1.15 -1.36,0 -3.14,0.48 -3.14,3.2 0,1.78 0.98,4.36 1.67,6.14 0.59,1.53 0.73,1.84 0.73,2.44 0,1.67 -1.42,2.95 -3.31,2.95 -3.51,0 -5.08,-4.73 -5.08,-5.33 0,-0.45 0.49,-0.45 0.6,-0.45 0.48,0 0.51,0.17 0.62,0.56 0.88,2.89 2.38,4.25 3.77,4.25 0.59,0 0.86,-0.39 0.86,-1.22 0,-0.79 -0.31,-1.56 -0.49,-2.01 -1.98,-5.1 -1.98,-5.8 -1.98,-6.88 0,-4.11 3.73,-4.62 5.61,-4.62 0.67,0 2.37,0 3.94,2.33 0.79,-1.57 2.71,-2.33 4.84,-2.33 3.11,0 4.64,2.67 5.33,4.11 1.5,2.92 2.44,7.28 2.44,8.89 0,2.61 -1.49,2.75 -1.74,2.75 -0.91,0 -1.87,-0.96 -1.87,-1.86 0,-0.58 0.34,-0.86 0.57,-1.08 0.85,-0.69 1.3,-1.67 1.3,-2.78 0,-0.45 -1.47,-9.06 -5.89,-9.06 -2.83,0 -2.83,2.51 -2.83,3.11 0,0.93 0.14,1.5 0.64,3.48 z"
           inkscape:connector-curvature="0"
           style="fill:#000000;stroke-width:0" /><path
           id="path3077"
           d="m 966.39,329.84 0,-0.36 -0.02,-0.37 -0.03,-0.38 -0.04,-0.38 -0.03,-0.19 -0.03,-0.2 -0.04,-0.2 -0.05,-0.19 -0.05,-0.2 -0.05,-0.2 -0.07,-0.2 -0.06,-0.2 -0.08,-0.2 -0.08,-0.21 -0.09,-0.2 -0.1,-0.21 -0.11,-0.2 -0.11,-0.21 -0.13,-0.2 -0.13,-0.21 -0.14,-0.21 -0.15,-0.2 -0.16,-0.21 -0.17,-0.21 -0.19,-0.21 -0.19,-0.2 -0.2,-0.21 -0.22,-0.21 c -0.14,-0.14 -0.25,-0.25 -0.25,-0.42 0,-0.25 0.28,-0.49 0.49,-0.49 0.48,0 3.45,2.78 3.45,6.92 0,2.18 -0.84,3.8 -2.44,3.8 -1.15,0 -1.98,-0.9 -1.98,-1.98 0,-1.11 0.79,-2.02 2.01,-2.02 0.85,0 1.39,0.56 1.44,0.56 z"
           inkscape:connector-curvature="0"
           style="fill:#000000;stroke-width:0" /><path
           id="path3079"
           d="m 990.8,352.42 0,0.01 0.01,0 0,0 0,0.01 0,0 0.01,0.01 0,0.01 0,0 0,0.01 0.01,0.01 0,0.01 0.01,0.02 0,0.02 0.01,0.02 0,0.02 0.01,0.02 0.01,0.02 0,0.03 0.01,0.02 0.01,0.05 0,0.02 0.01,0.02 0,0.03 0.01,0.02 0,0.02 0.01,0.02 0,0.02 0.01,0.02 0,0.02 0,0.01 0,0.01 0,0.01 0.01,0 0,0.01 0,0 0,0.01 0,0 0,0.01 0,0 0,0 0,0.01 0,0 c 0,0.19 -0.14,0.5 -0.54,0.5 -0.71,0 -3.6,-0.28 -4.47,-0.36 -0.28,-0.03 -0.77,-0.06 -0.77,-0.8 0,-0.48 0.49,-0.48 0.91,-0.48 1.67,0 1.67,-0.25 1.67,-0.53 0,-0.24 -0.06,-0.46 -0.14,-0.77 l -1.99,-7.94 c -0.73,1.14 -1.92,2.05 -3.59,2.05 v -0.97 c 2.44,0 3.11,-2.64 3.11,-3.03 0,-0.14 -0.08,-0.39 -0.11,-0.48 l -1.64,-6.52 c -0.23,-0.98 -1,-1.67 -1.77,-2.34 -0.31,-0.27 -1.71,-1.39 -3.21,-1.39 -1.29,0 -2.54,0.9 -2.54,3.37 0,1.86 1,5.69 1.82,7.08 1.59,2.8 3.37,3.31 4.34,3.31 v 0.97 c -4.45,0 -8.99,-4.91 -8.99,-9.92 0,-3.38 2.27,-5.78 5.27,-5.78 1.88,0 3.55,1.08 4.94,2.44 0.67,-2.1 2.69,-2.44 3.59,-2.44 1.25,0 2.13,0.76 2.75,1.84 0.77,1.36 1.22,3.34 1.22,3.49 0,0.45 -0.45,0.45 -0.55,0.45 -0.5,0 -0.53,-0.14 -0.76,-1.08 -0.42,-1.67 -1.09,-3.73 -2.55,-3.73 -0.91,0 -1.16,0.76 -1.16,1.7 0,0.67 0.08,0.98 0.18,1.44 z"
           inkscape:connector-curvature="0"
           style="fill:#000000;stroke-width:0" /><path
           id="path3081"
           d="m 998.43,354.06 0,0.05 0,0.05 0,0.06 0,0.05 0,0.05 0,0.06 0,0.06 -0.01,0.05 0,0.06 -0.01,0.06 -0.01,0.05 -0.01,0.06 -0.01,0.05 -0.02,0.06 -0.01,0.05 -0.02,0.06 -0.02,0.05 -0.03,0.05 -0.02,0.04 -0.03,0.05 -0.03,0.04 -0.04,0.04 -0.04,0.04 -0.02,0.02 -0.02,0.01 -0.02,0.02 -0.03,0.01 -0.02,0.02 -0.03,0.01 -0.03,0.01 -0.02,0.01 -0.03,0.02 -0.03,0 -0.03,0.01 -0.03,0.01 -0.04,0.01 -0.03,0 -0.04,0.01 -0.03,0 -0.04,0 -0.04,0 c -0.87,0 -0.87,-0.81 -0.87,-1.36 v -32.14 c 0,-0.51 0,-1.36 0.84,-1.36 0.87,0 0.87,0.82 0.87,1.36 z"
           inkscape:connector-curvature="0"
           style="fill:#000000;stroke-width:0" /><path
           id="path3083"
           d="m 1021.4,346.25 0,0.34 -0.1,0.35 0,0.34 0,0.34 0,0.35 -0.1,0.34 0,0.33 -0.1,0.33 -0.1,0.33 -0.1,0.32 -0.1,0.32 -0.1,0.31 -0.1,0.3 -0.1,0.29 -0.1,0.29 -0.2,0.27 -0.1,0.27 -0.2,0.25 -0.2,0.24 -0.1,0.22 -0.2,0.22 -0.2,0.2 -0.2,0.18 -0.3,0.17 -0.2,0.15 -0.2,0.13 -0.3,0.11 -0.3,0.1 -0.2,0.07 -0.3,0.06 -0.3,0.03 -0.4,0.01 0,-0.97 c 2.2,0 2.2,-3.87 2.2,-4.53 0,-1.36 -0.2,-3.39 -1,-6.31 h -8 c 1.8,7.53 4.8,10.84 6.8,10.84 l 0,0.97 c -5.2,0 -10.8,-9.34 -10.8,-17.31 0,-4.16 1.6,-7.56 4.8,-7.56 l 0.1,0.97 c -1.9,0 -2.2,2.65 -2.2,4.53 0,2.29 0.6,5.01 1,6.31 h 8 c -1,-3.8 -1.8,-5.69 -2.8,-7.39 -1.1,-1.81 -2.5,-3.45 -4,-3.45 l -0.1,-0.97 c 5.3,0 10.9,9.51 10.9,17.31 z"
           inkscape:connector-curvature="0"
           style="fill:#000000;stroke-width:0" /><path
           id="path3085"
           d="m 1026.7,355.42 0,0 0,0 -0.1,0 0,0 0,0 0,0 -0.1,0 0,0 0,-0.01 0,0 -0.1,-0.01 0,0 0,-0.01 -0.1,0 0,-0.01 0,-0.01 0,-0.01 -0.1,-0.01 0,-0.02 0,-0.01 0,-0.02 0,-0.02 -0.1,-0.01 0,-0.02 0,-0.01 0,-0.01 0,-0.01 0,-0.01 0,-0.01 0,-0.02 0,-0.01 0,-0.02 0,-0.01 0,-0.02 0,-0.01 0,-0.02 0,-0.02 0,-0.01 0,-0.02 0,-0.02 0,-0.02 c 0,-0.17 0.1,-0.28 0.3,-0.53 3,-2.75 6.3,-7.45 6.3,-16.44 0,-7.28 -2.3,-12.8 -6,-16.2 -0.6,-0.6 -0.6,-0.63 -0.6,-0.81 0,-0.18 0.1,-0.41 0.4,-0.41 0.4,0 3.7,2.3 6,6.66 1.6,2.89 2.6,6.65 2.6,10.73 0,4.91 -1.5,12.53 -8.4,17.42 z"
           inkscape:connector-curvature="0"
           style="fill:#000000;stroke-width:0" /><path
           id="path3087"
           d="m 416.85,290.12 0,0.1 -0.01,0.1 0,0.09 -0.01,0.09 0,0.09 -0.01,0.08 -0.01,0.08 -0.01,0.08 -0.02,0.08 -0.01,0.07 -0.02,0.06 -0.02,0.07 -0.02,0.06 -0.02,0.05 -0.02,0.06 -0.02,0.05 -0.02,0.05 -0.03,0.04 -0.02,0.04 -0.03,0.04 -0.03,0.03 -0.03,0.04 -0.03,0.02 -0.03,0.03 -0.03,0.02 -0.03,0.02 -0.03,0.02 -0.04,0.01 -0.03,0.01 -0.04,0.01 -0.03,0 -0.04,0 c -0.25,0 -0.66,-0.34 -0.7,-1.29 -0.21,-4.78 -3.49,-7.52 -6.99,-7.52 -3.12,0 -5.51,2.14 -7.97,4.28 -2.53,2.3 -5.12,4.58 -8.51,4.58 -5.44,0 -8.38,-5.48 -8.38,-10.01 0,-1.6 0.66,-1.6 0.71,-1.6 0.54,0 0.7,1 0.7,1.16 0.19,5.47 3.94,7.67 6.97,7.67 3.14,0 5.53,-2.14 7.97,-4.3 2.54,-2.28 5.14,-4.57 8.51,-4.57 5.44,0 8.38,5.48 8.38,10.01 z"
           inkscape:connector-curvature="0"
           style="fill:#000000;stroke-width:0" /><path
           id="path3089"
           d="m 466.27,284.93 0.15,0 0.16,0.01 0.16,0 0.08,0 0.08,0.01 0.07,0.01 0.08,0 0.07,0.01 0.07,0.02 0.07,0.01 0.07,0.02 0.06,0.02 0.07,0.02 0.06,0.02 0.06,0.03 0.05,0.03 0.05,0.04 0.05,0.04 0.05,0.04 0.04,0.05 0.04,0.05 0.02,0.02 0.02,0.03 0.01,0.03 0.02,0.03 0.01,0.03 0.01,0.03 0.01,0.04 0.02,0.03 0,0.04 0.01,0.04 0.01,0.04 0.01,0.04 0,0.04 0,0.04 0.01,0.05 0,0.04 c 0,1 -0.91,1 -1.75,1 h -26.96 c -0.84,0 -1.73,0 -1.73,-1 0,-1 0.89,-1 1.73,-1 z"
           inkscape:connector-curvature="0"
           style="fill:#000000;stroke-width:0" /><path
           id="path3091"
           d="m 501.45,284.19 -17.69,-21.86 c -0.39,-0.5 -0.44,-0.61 -0.44,-0.79 0,-0.57 0.44,-0.57 1.35,-0.57 h 41.3 l 4.28,12.41 h -1.24 c -1.25,-3.74 -4.59,-6.77 -8.83,-8.22 -0.79,-0.25 -4.23,-1.44 -11.54,-1.44 h -21.19 l 17.3,21.38 c 0.34,0.44 0.45,0.59 0.45,0.79 0,0.19 -0.06,0.25 -0.36,0.69 l -16.19,22.22 h 19.74 c 5.67,0 17.12,-0.34 20.62,-9.66 h 1.24 l -4.28,11.66 h -41.3 c -1.35,0 -1.39,-0.05 -1.39,-1.59 z"
           inkscape:connector-curvature="0"
           style="fill:#000000;stroke-width:0" /><path
           id="path3093"
           d="m 552.93,281.62 0,0 0,0.01 0.01,0 0,0.01 0,0 0,0.01 0.01,0 0,0.01 0,0.01 0,0.01 0.01,0.01 0.01,0.02 0,0.02 0.01,0.02 0,0.02 0.01,0.02 0,0.02 0.01,0.03 0.01,0.02 0.01,0.05 0,0.02 0.01,0.02 0,0.03 0.01,0.02 0,0.02 0.01,0.02 0,0.02 0,0.02 0.01,0.02 0,0.01 0,0.01 0,0.01 0,0 0.01,0.01 0,0 0,0.01 0,0 0,0.01 0,0 0,0 0,0.01 0,0 c 0,0.19 -0.14,0.5 -0.55,0.5 -0.7,0 -3.59,-0.28 -4.47,-0.36 -0.28,-0.03 -0.76,-0.06 -0.76,-0.8 0,-0.48 0.48,-0.48 0.91,-0.48 1.67,0 1.67,-0.25 1.67,-0.53 0,-0.24 -0.07,-0.46 -0.14,-0.77 l -1.99,-7.94 c -0.73,1.14 -1.92,2.05 -3.59,2.05 v -0.97 c 2.44,0 3.11,-2.64 3.11,-3.03 0,-0.14 -0.08,-0.39 -0.11,-0.48 l -1.64,-6.52 c -0.24,-0.98 -1,-1.67 -1.77,-2.34 -0.31,-0.27 -1.72,-1.39 -3.22,-1.39 -1.28,0 -2.53,0.9 -2.53,3.37 0,1.86 1,5.69 1.81,7.08 1.6,2.8 3.38,3.31 4.35,3.31 v 0.97 c -4.45,0 -8.99,-4.91 -8.99,-9.92 0,-3.38 2.27,-5.78 5.27,-5.78 1.87,0 3.55,1.07 4.94,2.43 0.67,-2.09 2.68,-2.43 3.59,-2.43 1.25,0 2.13,0.76 2.75,1.84 0.77,1.36 1.22,3.34 1.22,3.48 0,0.46 -0.45,0.46 -0.55,0.46 -0.5,0 -0.53,-0.14 -0.76,-1.08 -0.42,-1.67 -1.1,-3.73 -2.55,-3.73 -0.91,0 -1.16,0.76 -1.16,1.7 0,0.67 0.08,0.98 0.18,1.44 z"
           inkscape:connector-curvature="0"
           style="fill:#000000;stroke-width:0" /><path
           id="path3095"
           d="m 585.57,284.19 -17.69,-21.86 c -0.39,-0.5 -0.43,-0.61 -0.43,-0.79 0,-0.57 0.43,-0.57 1.34,-0.57 h 41.3 l 4.28,12.41 h -1.24 c -1.25,-3.74 -4.59,-6.77 -8.83,-8.22 -0.79,-0.25 -4.23,-1.44 -11.54,-1.44 h -21.19 l 17.3,21.38 c 0.34,0.44 0.45,0.59 0.45,0.79 0,0.19 -0.06,0.25 -0.36,0.69 l -16.19,22.22 h 19.74 c 5.67,0 17.12,-0.34 20.62,-9.66 h 1.24 l -4.28,11.66 h -41.3 c -1.34,0 -1.39,-0.05 -1.39,-1.59 z"
           inkscape:connector-curvature="0"
           style="fill:#000000;stroke-width:0" /><path
           id="path3097"
           d="m 635.49,269.59 0.02,0.09 0.03,0.1 0.02,0.1 0.03,0.1 0.02,0.1 0.03,0.11 0.06,0.21 0.05,0.23 0.06,0.22 0.05,0.22 0.02,0.11 0.03,0.1 0.02,0.1 0.03,0.11 0.02,0.09 0.02,0.1 0.02,0.09 0.02,0.08 0.02,0.09 0.02,0.07 0.01,0.07 0.02,0.07 0.01,0.05 0.01,0.06 0,0.04 0.01,0.04 0,0.01 0,0.02 0,0.01 0.01,0.01 c 0,0.68 -0.55,1.11 -1.15,1.11 -0.67,0 -1.29,-0.43 -1.5,-1.02 -0.1,-0.27 -0.45,-1.73 -0.7,-2.61 -0.48,-1.98 -0.48,-2.05 -1,-4 -0.45,-1.92 -0.53,-2.2 -0.56,-3.2 0.14,-0.71 -0.14,-1.36 -0.99,-2.41 -0.43,-0.56 -1.14,-1.15 -2.32,-1.15 -1.36,0 -3.15,0.48 -3.15,3.2 0,1.78 0.99,4.36 1.68,6.14 0.59,1.53 0.73,1.84 0.73,2.44 0,1.67 -1.42,2.95 -3.31,2.95 -3.52,0 -5.08,-4.73 -5.08,-5.33 0,-0.45 0.48,-0.45 0.6,-0.45 0.48,0 0.51,0.17 0.62,0.56 0.88,2.89 2.38,4.25 3.76,4.25 0.6,0 0.87,-0.39 0.87,-1.22 0,-0.79 -0.32,-1.56 -0.49,-2.01 -1.98,-5.1 -1.98,-5.8 -1.98,-6.88 0,-4.11 3.73,-4.62 5.6,-4.62 0.68,0 2.38,0 3.94,2.32 0.8,-1.56 2.72,-2.32 4.85,-2.32 3.11,0 4.64,2.67 5.33,4.11 1.5,2.92 2.43,7.28 2.43,8.89 0,2.61 -1.48,2.75 -1.73,2.75 -0.91,0 -1.88,-0.96 -1.88,-1.86 0,-0.58 0.35,-0.86 0.58,-1.08 0.85,-0.69 1.3,-1.67 1.3,-2.78 0,-0.46 -1.47,-9.06 -5.89,-9.06 -2.83,0 -2.83,2.51 -2.83,3.1 0,0.94 0.14,1.5 0.64,3.49 z"
           inkscape:connector-curvature="0"
           style="fill:#000000;stroke-width:0" /><path
           id="path3099"
           d="m 672.81,289.23 0.21,1.28 3.39,13.56 c 0.43,1.74 0.54,1.89 2.68,1.89 h 4.79 c 4.14,0 6.78,-1.34 6.78,-4.78 0,-1.95 -1,-6.23 -2.94,-8.03 -2.5,-2.23 -5.49,-2.64 -7.69,-2.64 h -7.01 l -0.21,-1.28 h 8.47 c 7.08,0 14,5.17 14,10.75 0,3.84 -3.28,7.53 -9.81,7.53 h -16.14 c -0.95,0 -1.5,0 -1.5,-0.95 0,-0.6 0.45,-0.6 1.45,-0.6 0.64,0 1.55,-0.04 2.14,-0.09 0.8,-0.11 1.1,-0.25 1.1,-0.8 0,-0.2 -0.05,-0.36 -0.21,-0.95 l -6.67,-26.75 c -0.5,-1.95 -0.59,-2.34 -4.53,-2.34 -0.84,0 -1.39,0 -1.39,-0.96 0,-0.59 0.59,-0.59 0.73,-0.59 1.41,0 4.94,0.16 6.33,0.16 1.05,0 2.14,-0.07 3.19,-0.07 1.11,0 2.2,-0.09 3.25,-0.09 0.34,0 0.98,0 0.98,1 0,0.55 -0.43,0.55 -1.39,0.55 -1.84,0 -3.23,0 -3.23,0.89 0,0.29 0.09,0.54 0.14,0.84 z"
           inkscape:connector-curvature="0"
           style="fill:#000000;stroke-width:0" /><path
           id="path3101"
           d="m 713.2,261.53 0,0.02 0,0.03 0,0.01 0,0.02 -0.01,0.01 0,0.02 -0.01,0.02 0,0.01 -0.01,0.02 -0.01,0.02 -0.01,0.02 -0.02,0.03 -0.01,0.02 -0.02,0.03 -0.02,0.03 -0.03,0.03 -0.02,0.03 -0.03,0.04 -0.02,0.02 -0.02,0.02 -0.01,0.02 -0.02,0.02 -0.02,0.02 -0.02,0.03 -0.02,0.02 -0.02,0.02 -0.03,0.03 -0.02,0.02 -0.02,0.03 -0.03,0.03 -0.03,0.03 -0.02,0.03 -0.03,0.03 -0.03,0.03 -0.03,0.03 -0.04,0.03 -0.03,0.04 -0.03,0.03 -0.04,0.04 -0.03,0.03 -0.04,0.04 -0.04,0.04 c -6.22,6.28 -7.81,15.69 -7.81,23.31 0,8.68 1.89,17.35 8.01,23.57 0.64,0.61 0.64,0.7 0.64,0.86 0,0.34 -0.18,0.48 -0.48,0.48 -0.5,0 -4.99,-3.38 -7.92,-9.7 -2.55,-5.49 -3.14,-11.02 -3.14,-15.21 0,-3.89 0.54,-9.9 3.28,-15.54 2.98,-6.13 7.28,-9.36 7.78,-9.36 0.3,0 0.48,0.14 0.48,0.5 z"
           inkscape:connector-curvature="0"
           style="fill:#000000;stroke-width:0" /><path
           id="path3103"
           d="m 739.05,290.37 0.03,0.11 0.02,0.1 0.03,0.12 0.03,0.11 0.02,0.12 0.03,0.12 0.06,0.25 0.07,0.25 0.06,0.25 0.06,0.25 0.06,0.24 0.03,0.12 0.03,0.11 0.02,0.11 0.03,0.11 0.02,0.1 0.03,0.1 0.02,0.1 0.02,0.09 0.02,0.08 0.01,0.08 0.02,0.07 0.01,0.07 0.01,0.05 0.01,0.05 0,0.04 0,0.04 c 0,0.9 -0.7,1.34 -1.45,1.34 -0.6,0 -1.49,-0.39 -1.83,-1.39 -0.16,-0.35 -2.5,-9.86 -2.84,-11.16 -0.36,-1.5 -0.46,-2.39 -0.46,-3.29 0,-0.55 0,-0.65 0.05,-0.9 -1.14,-2.64 -2.64,-4.18 -4.58,-4.18 -3.98,0 -3.98,3.68 -3.98,4.53 0,1.59 0.25,3.55 2.59,9.67 0.55,1.48 0.85,2.19 0.85,3.19 0,2.23 -1.65,4.08 -4.1,4.08 -4.73,0 -6.58,-7.22 -6.58,-7.68 0,-0.5 0.5,-0.5 0.61,-0.5 0.5,0 0.55,0.11 0.8,0.91 1.34,4.63 3.28,6.17 5.03,6.17 0.44,0 1.25,-0.04 1.25,-1.64 0,-1.25 -0.56,-2.64 -0.91,-3.48 -2.18,-5.88 -2.78,-8.17 -2.78,-10.07 0,-4.53 3.33,-6.28 7.06,-6.28 0.87,0 3.19,0 5.19,3.49 1.3,-3.19 4.74,-3.49 6.24,-3.49 3.73,0 5.92,3.14 7.22,6.13 1.68,3.89 3.28,10.56 3.28,12.95 0,2.75 -1.35,3.49 -2.19,3.49 -1.25,0 -2.49,-1.3 -2.49,-2.39 0,-0.65 0.3,-0.94 0.74,-1.35 0.55,-0.55 1.8,-1.84 1.8,-4.23 0,-1.69 -1.44,-6.58 -2.74,-9.11 -1.3,-2.64 -3.05,-4.39 -5.48,-4.39 -2.35,0 -3.69,1.5 -3.69,4.33 0,1.4 0.34,2.95 0.55,3.64 z"
           inkscape:connector-curvature="0"
           style="fill:#000000;stroke-width:0" /><path
           id="path3105"
           d="m 763.1,273.53 0,0.3 -0.01,0.3 -0.02,0.29 -0.02,0.28 -0.04,0.27 -0.03,0.26 -0.05,0.26 -0.05,0.25 -0.06,0.23 -0.06,0.23 -0.07,0.22 -0.08,0.21 -0.08,0.2 -0.09,0.2 -0.1,0.18 -0.1,0.17 -0.11,0.16 -0.11,0.16 -0.12,0.14 -0.12,0.13 -0.13,0.13 -0.13,0.11 -0.14,0.1 -0.14,0.1 -0.15,0.08 -0.16,0.07 -0.16,0.06 -0.16,0.05 -0.17,0.04 -0.17,0.03 -0.18,0.02 -0.18,0 c -1.64,0 -2.64,-1.25 -2.64,-2.64 0,-1.34 1,-2.64 2.64,-2.64 0.6,0 1.25,0.2 1.75,0.64 0.14,0.11 0.21,0.16 0.25,0.16 0.05,0 0.1,-0.05 0.1,-0.75 0,-3.69 -1.74,-6.67 -3.39,-8.32 -0.55,-0.54 -0.55,-0.65 -0.55,-0.79 0,-0.36 0.25,-0.55 0.5,-0.55 0.55,0 4.53,3.83 4.53,9.66 z"
           inkscape:connector-curvature="0"
           style="fill:#000000;stroke-width:0" /><path
           id="path3107"
           d="m 800.77,307.51 0,0 0,0.01 0,0.01 0,0.01 0,0.01 0,0.01 0,0.02 0,0.02 -0.01,0.02 0,0.02 -0.01,0.02 0,0.02 -0.01,0.03 -0.01,0.02 -0.01,0.02 -0.01,0.03 -0.02,0.02 -0.01,0.03 -0.02,0.02 -0.02,0.03 -0.02,0.02 -0.02,0.01 -0.01,0.01 -0.01,0.01 -0.01,0.01 -0.02,0.01 -0.01,0.01 -0.02,0.01 -0.02,0.01 -0.01,0.01 -0.02,0.01 -0.02,0.01 -0.02,0 -0.02,0.01 -0.02,0.01 -0.02,0 -0.03,0.01 -0.02,0 -0.02,0.01 -0.03,0 -0.02,0 -0.03,0.01 -0.03,0 -0.03,0 -0.03,0 c -0.75,0 -5.48,-0.45 -6.33,-0.55 -0.4,-0.05 -0.7,-0.3 -0.7,-0.95 0,-0.6 0.45,-0.6 1.2,-0.6 2.4,0 2.49,-0.34 2.49,-0.84 l -0.14,-1 -3,-11.81 c -0.89,1.84 -2.35,3.19 -4.58,3.19 l 0.05,-1.1 c 3.23,0 3.93,-4.08 3.93,-4.37 0,-0.32 -0.09,-0.61 -0.14,-0.86 l -2.5,-9.77 c -0.25,-0.89 -0.25,-0.98 -1,-1.84 -2.18,-2.74 -4.23,-3.53 -5.62,-3.53 -2.49,0 -3.19,2.73 -3.19,4.68 0,2.49 1.6,8.61 2.74,10.91 1.54,2.94 3.79,4.78 5.78,4.78 l -0.05,1.1 c -5.83,0 -12,-7.32 -12,-14.6 0,-4.69 2.73,-7.97 6.63,-7.97 0.98,0 3.48,0.21 6.46,3.74 0.41,-2.1 2.14,-3.74 4.54,-3.74 1.75,0 2.89,1.14 3.68,2.74 0.85,1.79 1.5,4.84 1.5,4.94 0,0.5 -0.45,0.5 -0.59,0.5 -0.5,0 -0.55,-0.21 -0.7,-0.91 -0.85,-3.24 -1.75,-6.17 -3.79,-6.17 -1.34,0 -1.5,1.29 -1.5,2.29 0,1.19 0.1,1.55 0.3,2.39 z"
           inkscape:connector-curvature="0"
           style="fill:#000000;stroke-width:0" /><path
           id="path3109"
           d="m 815.38,285.93 0,0.37 -0.01,0.39 -0.01,0.39 -0.01,0.41 -0.04,0.84 -0.06,0.88 -0.08,0.92 -0.11,0.95 -0.13,0.98 -0.17,1 -0.19,1.02 -0.23,1.03 -0.27,1.06 -0.31,1.05 -0.34,1.07 -0.4,1.07 -0.21,0.53 -0.22,0.53 -0.24,0.53 -0.25,0.53 c -2.99,6.13 -7.27,9.36 -7.77,9.36 -0.3,0 -0.5,-0.19 -0.5,-0.48 0,-0.16 0,-0.25 0.94,-1.16 4.89,-4.92 7.73,-12.84 7.73,-23.27 0,-8.51 -1.84,-17.28 -8.03,-23.56 -0.64,-0.59 -0.64,-0.7 -0.64,-0.84 0,-0.3 0.2,-0.5 0.5,-0.5 0.5,0 4.97,3.39 7.92,9.72 2.53,5.46 3.13,11 3.13,15.18 z"
           inkscape:connector-curvature="0"
           style="fill:#000000;stroke-width:0" /><path
           id="path3111"
           d="m 833.16,307.51 0,0 0,0.01 0,0.01 0,0.01 0,0.01 0,0.01 0,0.02 0,0.02 -0.01,0.02 0,0.02 -0.01,0.02 0,0.02 -0.01,0.03 -0.01,0.02 -0.01,0.02 -0.01,0.03 -0.02,0.02 -0.01,0.03 -0.02,0.02 -0.02,0.03 -0.03,0.02 -0.01,0.01 -0.01,0.01 -0.01,0.01 -0.02,0.01 -0.01,0.01 -0.02,0.01 -0.02,0.01 -0.01,0.01 -0.02,0.01 -0.02,0.01 -0.02,0.01 -0.02,0 -0.02,0.01 -0.02,0.01 -0.02,0 -0.03,0.01 -0.02,0 -0.02,0.01 -0.03,0 -0.03,0 -0.02,0.01 -0.03,0 -0.03,0 -0.03,0 c -1.14,0 -4.78,-0.41 -6.08,-0.5 -0.39,-0.05 -0.94,-0.1 -0.94,-1.05 0,-0.55 0.49,-0.55 1.24,-0.55 2.39,0 2.45,-0.45 2.45,-0.84 l -0.16,-1 -6.28,-24.91 c -0.14,-0.54 -0.25,-0.9 -0.25,-1.7 0,-2.83 2.21,-4.58 4.53,-4.58 1.66,0 2.89,1 3.75,2.78 0.89,1.91 1.49,4.8 1.49,4.9 0,0.5 -0.44,0.5 -0.6,0.5 -0.5,0 -0.54,-0.21 -0.7,-0.91 -0.84,-3.24 -1.78,-6.17 -3.78,-6.17 -1.5,0 -1.5,1.59 -1.5,2.29 0,1.19 0.06,1.44 0.3,2.39 z"
           inkscape:connector-curvature="0"
           style="fill:#000000;stroke-width:0" /><path
           id="path3113"
           d="m 859.5,287.07 -0.01,0.48 -0.03,0.47 -0.05,0.46 -0.07,0.45 -0.09,0.43 -0.1,0.42 -0.12,0.4 -0.14,0.4 -0.16,0.38 -0.17,0.37 -0.19,0.35 -0.21,0.34 -0.22,0.32 -0.23,0.31 -0.25,0.3 -0.26,0.28 -0.28,0.27 -0.29,0.25 -0.29,0.23 -0.32,0.22 -0.32,0.2 -0.33,0.19 -0.35,0.17 -0.35,0.15 -0.37,0.14 -0.37,0.11 -0.38,0.1 -0.39,0.09 -0.4,0.06 -0.4,0.05 -0.41,0.03 -0.42,0.01 c -6.67,0 -13.34,-7.07 -13.34,-14.14 0,-4.94 3.33,-8.43 7.97,-8.43 l 0.04,1.1 c -2.14,0 -4.32,1.54 -4.32,5.43 0,2.44 1.29,7.82 2.89,10.36 2.48,3.83 5.32,4.58 6.71,4.58 2.9,0 4.4,-2.39 4.4,-5.37 0,-1.96 -1,-7.17 -2.9,-10.42 -1.75,-2.9 -4.48,-4.58 -6.78,-4.58 h 0 l -0.04,-1.1 c 6.62,0 13.34,6.88 13.34,14.14 z"
           inkscape:connector-curvature="0"
           style="fill:#000000;stroke-width:0" /><path
           id="path3115"
           d="m 883.73,292.26 0.01,0.06 0.01,0.05 0.01,0.06 0.01,0.05 0.02,0.1 0.01,0.06 0.01,0.05 0.01,0.05 0.01,0.06 0.01,0.05 0.01,0.06 0.01,0.06 0,0.06 0,0.03 0.01,0.03 0,0.03 0,0.03 c 0,0.86 -0.6,1.36 -1.44,1.36 -0.5,0 -1.84,-0.36 -2.05,-2.15 -0.89,1.84 -2.64,3.14 -4.62,3.14 l 0.04,-1.1 c 3.29,0 3.99,-4.03 3.99,-4.28 0,-0.25 -0.09,-0.55 -0.16,-0.75 l -2.39,-9.51 c -0.29,-1.3 -1.44,-2.54 -2.53,-3.49 -1.05,-0.89 -2.59,-1.8 -4.05,-1.8 -2.48,0 -3.23,2.6 -3.23,4.58 0,2.41 1.45,8.28 2.8,10.81 1.34,2.46 3.48,4.44 5.57,4.44 l -0.04,1.1 c -5.69,0 -11.86,-6.97 -11.86,-14.14 0,-4.94 3.03,-7.88 6.62,-7.88 2.94,0 5.28,2.34 5.78,2.89 l 0.05,-0.05 c -1.05,-4.43 -1.64,-6.48 -1.64,-6.57 -0.2,-0.46 -1.89,-5.39 -7.17,-5.39 -0.95,0 -2.59,0.06 -4,0.5 1.5,0.45 2.05,1.75 2.05,2.59 0,0.8 -0.55,1.75 -1.89,1.75 -1.1,0 -2.69,-0.91 -2.69,-2.89 0,-2.05 1.84,-3.05 6.62,-3.05 6.22,0 9.82,3.89 10.57,6.88 z"
           inkscape:connector-curvature="0"
           style="fill:#000000;stroke-width:0" /><path
           id="path3117"
           d="m 971.67,315.2 0,0.04 0,0.04 0,0.04 0,0.04 0,0.04 0,0.04 0,0.04 0,0.03 0,0.03 -0.01,0.04 0,0.03 0,0.03 0,0.03 -0.01,0.03 0,0.02 0,0.03 -0.01,0.03 0,0.02 -0.01,0.02 0,0.03 -0.02,0.04 -0.01,0.04 -0.02,0.03 -0.02,0.03 -0.02,0.03 -0.02,0.02 -0.03,0.03 -0.03,0.02 -0.03,0.01 -0.04,0.02 -0.04,0.01 -0.05,0.01 -0.04,0.01 -0.03,0.01 -0.03,0 -0.02,0 -0.03,0.01 -0.03,0 -0.03,0 -0.03,0 -0.04,0 -0.03,0.01 -0.04,0 -0.03,0 -0.04,0 -0.04,0 -0.04,0 -0.04,0 -0.05,0 -0.04,0 -0.05,0 c -2.23,-2.2 -5.39,-2.23 -6.82,-2.23 v -1.25 c 0.84,0 3.14,0 5.04,0.96 V 295.9 c 0,-1.16 0,-1.61 -3.48,-1.61 h -1.31 v -1.25 c 0.62,0.03 4.9,0.14 6.2,0.14 1.08,0 5.47,-0.11 6.23,-0.14 v 1.25 h -1.32 c -3.49,0 -3.49,0.45 -3.49,1.61 z"
           inkscape:connector-curvature="0"
           style="fill:#000000;stroke-width:0" /><polyline
           id="polyline3119"
           points="892,285 1048.1,285 1048.1,287.04 892,287.04 "
           style="fill:#000000;fill-rule:nonzero;stroke-width:0" /><path
           id="path3121"
           d="m 903.84,267.12 0.14,1.12 2.37,9.44 c 0.28,1.08 0.31,1.19 1.78,1.19 h 4.08 c 3.24,0 5.25,-0.99 5.25,-3.46 0,-1.07 -0.41,-3.82 -2.16,-5.4 -1.25,-1.11 -3.23,-1.77 -5.75,-1.77 h -5.57 l -0.14,-1.12 h 6.31 c 5.89,0 10.87,3.76 10.87,7.56 0,2.94 -2.86,5.44 -7.64,5.44 H 901.2 c -0.71,0 -1.11,0 -1.11,-0.77 0,-0.48 0.37,-0.48 1.14,-0.48 0.56,0 0.7,0 1.32,-0.08 0.71,-0.06 0.77,-0.14 0.77,-0.49 0,-0.06 0,-0.23 -0.14,-0.76 l -4.59,-18.36 c -0.36,-1.36 -0.39,-1.61 -3.11,-1.61 -0.63,0 -1.05,0 -1.05,-0.77 0,-0.03 0,-0.48 0.56,-0.48 1.02,0 3.52,0.14 4.53,0.14 0.6,0 1.82,0 2.41,-0.03 0.69,-0.05 1.56,-0.11 2.23,-0.11 0.21,0 0.72,0 0.72,0.77 0,0.48 -0.4,0.48 -1.11,0.48 -0.03,0 -0.7,0 -1.32,0.08 -0.8,0.06 -0.8,0.17 -0.8,0.51 0,0.04 0,0.25 0.14,0.77 z"
           inkscape:connector-curvature="0"
           style="fill:#000000;stroke-width:0" /><path
           id="path3123"
           d="m 935.05,282.46 -0.61,-0.44 -0.57,-0.47 -0.56,-0.47 -0.52,-0.49 -0.5,-0.5 -0.47,-0.51 -0.45,-0.53 -0.42,-0.53 -0.4,-0.54 -0.38,-0.55 -0.35,-0.56 -0.33,-0.56 -0.31,-0.57 -0.29,-0.57 -0.26,-0.58 -0.25,-0.58 -0.23,-0.58 -0.21,-0.58 -0.19,-0.59 -0.17,-0.58 -0.16,-0.58 -0.14,-0.58 -0.12,-0.57 -0.11,-0.57 -0.09,-0.57 -0.08,-0.56 -0.06,-0.55 -0.06,-0.54 -0.04,-0.54 -0.02,-0.53 -0.02,-0.51 0,-0.51 c 0,-4.92 1.47,-12.55 8.37,-17.42 0.28,0 0.69,0 0.69,0.4 0,0.22 -0.09,0.29 -0.34,0.54 -4.65,4.18 -6.35,10.11 -6.35,16.45 0,9.41 3.6,14 6.45,16.58 0.15,0.14 0.24,0.25 0.24,0.42 0,0.42 -0.41,0.42 -0.69,0.42 z"
           inkscape:connector-curvature="0"
           style="fill:#000000;stroke-width:0" /><path
           id="path3125"
           d="m 956.6,267.43 0.03,0.09 0.02,0.1 0.03,0.1 0.02,0.1 0.03,0.1 0.03,0.11 0.05,0.21 0.05,0.23 0.06,0.22 0.05,0.22 0.03,0.11 0.02,0.1 0.03,0.1 0.02,0.11 0.02,0.09 0.03,0.1 0.02,0.09 0.02,0.08 0.01,0.09 0.02,0.07 0.02,0.07 0.01,0.07 0.01,0.05 0.01,0.06 0.01,0.04 0,0.04 0.01,0.01 0,0.02 0,0.01 0,0.01 c 0,0.68 -0.55,1.11 -1.14,1.11 -0.67,0 -1.3,-0.43 -1.5,-1.02 -0.11,-0.27 -0.46,-1.73 -0.71,-2.61 -0.48,-1.98 -0.48,-2.05 -1,-4 -0.45,-1.92 -0.53,-2.2 -0.56,-3.2 0.14,-0.71 -0.14,-1.36 -0.98,-2.41 -0.44,-0.56 -1.14,-1.15 -2.33,-1.15 -1.36,0 -3.14,0.48 -3.14,3.2 0,1.78 0.98,4.36 1.67,6.14 0.59,1.53 0.73,1.84 0.73,2.44 0,1.67 -1.42,2.95 -3.31,2.95 -3.51,0 -5.08,-4.73 -5.08,-5.33 0,-0.45 0.49,-0.45 0.6,-0.45 0.48,0 0.51,0.17 0.62,0.56 0.88,2.89 2.38,4.25 3.77,4.25 0.59,0 0.86,-0.39 0.86,-1.22 0,-0.79 -0.31,-1.56 -0.49,-2.01 -1.98,-5.1 -1.98,-5.8 -1.98,-6.88 0,-4.11 3.73,-4.62 5.61,-4.62 0.67,0 2.37,0 3.94,2.32 0.79,-1.56 2.71,-2.32 4.84,-2.32 3.11,0 4.64,2.67 5.33,4.11 1.5,2.92 2.44,7.28 2.44,8.89 0,2.61 -1.49,2.75 -1.74,2.75 -0.91,0 -1.87,-0.96 -1.87,-1.86 0,-0.58 0.34,-0.86 0.57,-1.08 0.85,-0.69 1.3,-1.67 1.3,-2.78 0,-0.46 -1.47,-9.06 -5.89,-9.06 -2.83,0 -2.83,2.51 -2.83,3.1 0,0.94 0.14,1.5 0.64,3.49 z"
           inkscape:connector-curvature="0"
           style="fill:#000000;stroke-width:0" /><path
           id="path3127"
           d="m 975.39,256.88 0,-0.36 -0.02,-0.37 -0.03,-0.38 -0.04,-0.38 -0.03,-0.2 -0.03,-0.19 -0.04,-0.2 -0.05,-0.19 -0.05,-0.2 -0.05,-0.2 -0.07,-0.2 -0.06,-0.2 -0.08,-0.21 -0.08,-0.2 -0.09,-0.2 -0.1,-0.21 -0.11,-0.2 -0.11,-0.21 -0.13,-0.2 -0.13,-0.21 -0.14,-0.21 -0.15,-0.2 -0.16,-0.21 -0.17,-0.21 -0.19,-0.21 -0.19,-0.21 -0.2,-0.2 -0.22,-0.21 c -0.14,-0.14 -0.25,-0.25 -0.25,-0.42 0,-0.25 0.28,-0.49 0.49,-0.49 0.48,0 3.45,2.78 3.45,6.92 0,2.18 -0.84,3.8 -2.44,3.8 -1.15,0 -1.98,-0.91 -1.98,-1.98 0,-1.11 0.79,-2.02 2.01,-2.02 0.85,0 1.39,0.56 1.44,0.56 z"
           inkscape:connector-curvature="0"
           style="fill:#000000;stroke-width:0" /><path
           id="path3129"
           d="m 999.8,279.46 0,0 0.01,0.01 0,0 0,0.01 0,0 0.01,0.01 0,0 0,0.01 0,0.01 0.01,0.01 0,0.01 0.01,0.02 0,0.02 0.01,0.02 0,0.02 0.01,0.02 0.01,0.02 0,0.03 0.01,0.02 0.01,0.05 0,0.02 0.01,0.02 0,0.03 0.01,0.02 0,0.02 0.01,0.02 0,0.02 0.01,0.02 0,0.02 0,0.01 0,0.01 0,0.01 0.01,0 0,0.01 0,0 0,0.01 0,0 0,0.01 0,0 0,0 0,0.01 0,0 c 0,0.19 -0.14,0.5 -0.54,0.5 -0.71,0 -3.6,-0.28 -4.47,-0.36 -0.28,-0.03 -0.77,-0.06 -0.77,-0.8 0,-0.48 0.49,-0.48 0.91,-0.48 1.67,0 1.67,-0.25 1.67,-0.53 0,-0.24 -0.06,-0.46 -0.14,-0.77 l -1.99,-7.94 c -0.73,1.14 -1.92,2.05 -3.59,2.05 v -0.97 c 2.44,0 3.11,-2.64 3.11,-3.03 0,-0.14 -0.08,-0.39 -0.11,-0.48 l -1.64,-6.52 c -0.23,-0.98 -1,-1.67 -1.77,-2.34 -0.31,-0.27 -1.71,-1.39 -3.21,-1.39 -1.29,0 -2.54,0.9 -2.54,3.37 0,1.86 1,5.69 1.82,7.08 1.59,2.8 3.37,3.31 4.34,3.31 v 0.97 c -4.45,0 -8.99,-4.91 -8.99,-9.92 0,-3.38 2.27,-5.78 5.27,-5.78 1.88,0 3.55,1.07 4.94,2.43 0.67,-2.09 2.69,-2.43 3.59,-2.43 1.25,0 2.13,0.76 2.75,1.84 0.77,1.36 1.22,3.34 1.22,3.48 0,0.46 -0.45,0.46 -0.55,0.46 -0.5,0 -0.53,-0.14 -0.76,-1.08 -0.42,-1.67 -1.09,-3.73 -2.55,-3.73 -0.91,0 -1.16,0.76 -1.16,1.7 0,0.67 0.08,0.98 0.18,1.44 z"
           inkscape:connector-curvature="0"
           style="fill:#000000;stroke-width:0" /><path
           id="path3131"
           d="m 1007.4,281.1 0,0.05 0,0.05 0,0.05 0,0.06 0,0.05 0,0.06 0,0.05 0,0.06 0,0.06 0,0.06 0,0.05 0,0.06 0,0.05 0,0.06 -0.1,0.05 0,0.05 0,0.06 0,0.04 0,0.05 -0.1,0.05 0,0.04 0,0.04 -0.1,0.04 0,0.01 0,0.02 0,0.02 -0.1,0.01 0,0.02 0,0.01 0,0.01 -0.1,0.01 0,0.01 0,0.01 -0.1,0.01 0,0.01 0,0.01 -0.1,0 0,0.01 0,0 -0.1,0 0,0 c -0.9,0 -0.9,-0.81 -0.9,-1.36 v -32.14 c 0,-0.51 0,-1.36 0.9,-1.36 0.8,0 0.8,0.81 0.8,1.36 z"
           inkscape:connector-curvature="0"
           style="fill:#000000;stroke-width:0" /><path
           id="path3133"
           d="m 1030.4,273.29 0,0.34 -0.1,0.35 0,0.34 0,0.34 0,0.35 -0.1,0.33 0,0.34 -0.1,0.33 -0.1,0.33 -0.1,0.32 -0.1,0.32 -0.1,0.31 -0.1,0.3 -0.1,0.29 -0.1,0.29 -0.2,0.27 -0.1,0.26 -0.2,0.26 -0.2,0.24 -0.1,0.22 -0.2,0.22 -0.2,0.19 -0.2,0.19 -0.3,0.16 -0.2,0.15 -0.2,0.14 -0.3,0.11 -0.3,0.1 -0.2,0.07 -0.3,0.06 -0.3,0.03 -0.3,0.01 -0.1,-0.97 c 2.2,0 2.2,-3.87 2.2,-4.53 0,-1.36 -0.3,-3.39 -1,-6.31 h -8 c 1.8,7.53 4.8,10.84 6.8,10.84 l 0.1,0.97 c -5.3,0 -10.9,-9.34 -10.9,-17.31 0,-4.16 1.6,-7.56 4.8,-7.56 l 0.1,0.97 c -1.9,0 -2.2,2.65 -2.2,4.53 0,2.29 0.6,5.01 1,6.31 h 8 c -1,-3.8 -1.8,-5.69 -2.8,-7.39 -1.1,-1.81 -2.5,-3.45 -4,-3.45 l -0.1,-0.97 c 5.3,0 10.9,9.51 10.9,17.31 z"
           inkscape:connector-curvature="0"
           style="fill:#000000;stroke-width:0" /><path
           id="path3135"
           d="m 1035.7,282.46 0,0 0,0 -0.1,0 0,0 0,0 0,0 -0.1,0 0,-0.01 0,0 0,0 -0.1,-0.01 0,0 0,-0.01 -0.1,0 0,-0.01 0,-0.01 0,-0.01 -0.1,-0.01 0,-0.02 0,-0.01 0,-0.02 0,-0.02 -0.1,-0.02 0,-0.01 0,-0.01 0,-0.01 0,-0.01 0,-0.01 0,-0.02 0,-0.01 0,-0.01 0,-0.02 0,-0.01 0,-0.02 0,-0.01 0,-0.02 0,-0.02 0,-0.01 0,-0.02 0,-0.02 0,-0.02 c 0,-0.17 0.1,-0.28 0.3,-0.53 3,-2.75 6.3,-7.46 6.3,-16.44 0,-7.28 -2.3,-12.8 -6,-16.2 -0.6,-0.6 -0.6,-0.63 -0.6,-0.82 0,-0.17 0.1,-0.4 0.4,-0.4 0.4,0 3.7,2.3 6,6.65 1.6,2.9 2.6,6.66 2.6,10.74 0,4.91 -1.5,12.53 -8.4,17.42 z"
           inkscape:connector-curvature="0"
           style="fill:#000000;stroke-width:0" /><path
           id="path3137"
           d="m 416.85,208.88 0,0.1 -0.01,0.1 0,0.09 -0.01,0.09 0,0.09 -0.01,0.08 -0.01,0.08 -0.01,0.08 -0.02,0.07 -0.01,0.07 -0.02,0.07 -0.02,0.06 -0.02,0.06 -0.02,0.06 -0.02,0.06 -0.02,0.05 -0.02,0.04 -0.03,0.05 -0.02,0.04 -0.03,0.04 -0.03,0.03 -0.03,0.03 -0.03,0.03 -0.03,0.03 -0.03,0.02 -0.03,0.02 -0.03,0.02 -0.04,0.01 -0.03,0.01 -0.04,0.01 -0.03,0 -0.04,0 c -0.25,0 -0.66,-0.34 -0.7,-1.29 -0.21,-4.78 -3.49,-7.52 -6.99,-7.52 -3.12,0 -5.51,2.14 -7.97,4.28 -2.53,2.3 -5.12,4.58 -8.51,4.58 -5.44,0 -8.38,-5.48 -8.38,-10.02 0,-1.59 0.66,-1.59 0.71,-1.59 0.54,0 0.7,1 0.7,1.16 0.19,5.47 3.94,7.67 6.97,7.67 3.14,0 5.53,-2.14 7.97,-4.3 2.54,-2.28 5.14,-4.58 8.51,-4.58 5.44,0 8.38,5.49 8.38,10.02 z"
           inkscape:connector-curvature="0"
           style="fill:#000000;stroke-width:0" /><path
           id="path3139"
           d="m 466.27,203.69 0.15,0 0.16,0 0.16,0.01 0.08,0 0.08,0.01 0.07,0 0.08,0.01 0.07,0.01 0.07,0.01 0.07,0.02 0.07,0.01 0.06,0.02 0.07,0.03 0.06,0.02 0.06,0.03 0.05,0.03 0.05,0.04 0.05,0.03 0.05,0.05 0.04,0.04 0.04,0.05 0.02,0.03 0.02,0.03 0.01,0.03 0.02,0.03 0.01,0.03 0.01,0.03 0.01,0.04 0.02,0.03 0,0.04 0.01,0.04 0.01,0.03 0.01,0.04 0,0.05 0,0.04 0.01,0.04 0,0.05 c 0,1 -0.91,1 -1.75,1 h -26.96 c -0.84,0 -1.73,0 -1.73,-1 0,-1 0.89,-1 1.73,-1 z"
           inkscape:connector-curvature="0"
           style="fill:#000000;stroke-width:0" /><path
           id="path3141"
           d="m 501.45,202.95 -17.69,-21.86 c -0.39,-0.5 -0.44,-0.61 -0.44,-0.8 0,-0.56 0.44,-0.56 1.35,-0.56 h 41.3 l 4.28,12.41 h -1.24 c -1.25,-3.74 -4.59,-6.77 -8.83,-8.22 -0.79,-0.25 -4.23,-1.44 -11.54,-1.44 h -21.19 l 17.3,21.37 c 0.34,0.44 0.45,0.6 0.45,0.8 0,0.19 -0.06,0.25 -0.36,0.69 l -16.19,22.22 h 19.74 c 5.67,0 17.12,-0.35 20.62,-9.66 h 1.24 l -4.28,11.66 h -41.3 c -1.35,0 -1.39,-0.05 -1.39,-1.6 z"
           inkscape:connector-curvature="0"
           style="fill:#000000;stroke-width:0" /><path
           id="path3143"
           d="m 552.93,200.5 0,0 0,0.01 0.01,0 0,0.01 0,0 0,0.01 0.01,0 0,0.01 0,0.01 0,0 0.01,0.02 0.01,0.02 0,0.02 0.01,0.02 0,0.02 0.01,0.02 0,0.02 0.01,0.03 0.01,0.02 0.01,0.05 0,0.02 0.01,0.02 0,0.02 0.01,0.03 0,0.02 0.01,0.02 0,0.02 0,0.02 0.01,0.01 0,0.02 0,0.01 0,0 0,0.01 0.01,0.01 0,0 0,0.01 0,0 0,0.01 0,0 0,0 0,0.01 0,0 c 0,0.18 -0.14,0.5 -0.55,0.5 -0.7,0 -3.59,-0.28 -4.47,-0.36 -0.28,-0.03 -0.76,-0.07 -0.76,-0.8 0,-0.48 0.48,-0.48 0.91,-0.48 1.67,0 1.67,-0.25 1.67,-0.53 0,-0.24 -0.07,-0.46 -0.14,-0.77 l -1.99,-7.94 c -0.73,1.14 -1.92,2.05 -3.59,2.05 v -0.97 c 2.44,0 3.11,-2.64 3.11,-3.03 0,-0.14 -0.08,-0.39 -0.11,-0.49 l -1.64,-6.51 c -0.24,-0.99 -1,-1.67 -1.77,-2.34 -0.31,-0.27 -1.72,-1.4 -3.22,-1.4 -1.28,0 -2.53,0.91 -2.53,3.38 0,1.86 1,5.69 1.81,7.08 1.6,2.79 3.38,3.31 4.35,3.31 v 0.97 c -4.45,0 -8.99,-4.91 -8.99,-9.92 0,-3.38 2.27,-5.78 5.27,-5.78 1.87,0 3.55,1.07 4.94,2.43 0.67,-2.09 2.68,-2.43 3.59,-2.43 1.25,0 2.13,0.76 2.75,1.84 0.77,1.36 1.22,3.34 1.22,3.48 0,0.46 -0.45,0.46 -0.55,0.46 -0.5,0 -0.53,-0.14 -0.76,-1.08 -0.42,-1.67 -1.1,-3.74 -2.55,-3.74 -0.91,0 -1.16,0.77 -1.16,1.71 0,0.67 0.08,0.98 0.18,1.43 z"
           inkscape:connector-curvature="0"
           style="fill:#000000;stroke-width:0" /><path
           id="path3145"
           d="m 585.57,202.95 -17.69,-21.86 c -0.39,-0.5 -0.43,-0.61 -0.43,-0.8 0,-0.56 0.43,-0.56 1.34,-0.56 h 41.3 l 4.28,12.41 h -1.24 c -1.25,-3.74 -4.59,-6.77 -8.83,-8.22 -0.79,-0.25 -4.23,-1.44 -11.54,-1.44 h -21.19 l 17.3,21.37 c 0.34,0.44 0.45,0.6 0.45,0.8 0,0.19 -0.06,0.25 -0.36,0.69 l -16.19,22.22 h 19.74 c 5.67,0 17.12,-0.35 20.62,-9.66 h 1.24 l -4.28,11.66 h -41.3 c -1.34,0 -1.39,-0.05 -1.39,-1.6 z"
           inkscape:connector-curvature="0"
           style="fill:#000000;stroke-width:0" /><path
           id="path3147"
           d="m 635.49,188.47 0.02,0.09 0.03,0.1 0.02,0.09 0.03,0.11 0.02,0.1 0.03,0.11 0.06,0.21 0.05,0.23 0.06,0.22 0.05,0.22 0.02,0.1 0.03,0.11 0.02,0.1 0.03,0.1 0.02,0.1 0.02,0.1 0.02,0.09 0.02,0.08 0.02,0.08 0.02,0.08 0.01,0.07 0.02,0.07 0.01,0.05 0.01,0.06 0,0.04 0.01,0.04 0,0.01 0,0.02 0,0.01 0.01,0.01 c 0,0.68 -0.55,1.11 -1.15,1.11 -0.67,0 -1.29,-0.43 -1.5,-1.02 -0.1,-0.27 -0.45,-1.74 -0.7,-2.61 -0.48,-1.98 -0.48,-2.05 -1,-4 -0.45,-1.92 -0.53,-2.2 -0.56,-3.2 0.14,-0.71 -0.14,-1.36 -0.99,-2.41 -0.43,-0.56 -1.14,-1.16 -2.32,-1.16 -1.36,0 -3.15,0.49 -3.15,3.21 0,1.78 0.99,4.36 1.68,6.14 0.59,1.53 0.73,1.84 0.73,2.44 0,1.67 -1.42,2.95 -3.31,2.95 -3.52,0 -5.08,-4.74 -5.08,-5.33 0,-0.45 0.48,-0.45 0.6,-0.45 0.48,0 0.51,0.17 0.62,0.56 0.88,2.89 2.38,4.25 3.76,4.25 0.6,0 0.87,-0.39 0.87,-1.22 0,-0.8 -0.32,-1.56 -0.49,-2.01 -1.98,-5.1 -1.98,-5.8 -1.98,-6.88 0,-4.11 3.73,-4.62 5.6,-4.62 0.68,0 2.38,0 3.94,2.32 0.8,-1.56 2.72,-2.32 4.85,-2.32 3.11,0 4.64,2.67 5.33,4.1 1.5,2.93 2.43,7.29 2.43,8.9 0,2.6 -1.48,2.75 -1.73,2.75 -0.91,0 -1.88,-0.96 -1.88,-1.86 0,-0.58 0.35,-0.86 0.58,-1.08 0.85,-0.69 1.3,-1.67 1.3,-2.78 0,-0.46 -1.47,-9.07 -5.89,-9.07 -2.83,0 -2.83,2.52 -2.83,3.11 0,0.94 0.14,1.5 0.64,3.49 z"
           inkscape:connector-curvature="0"
           style="fill:#000000;stroke-width:0" /><path
           id="path3149"
           d="m 672.81,207.99 0.21,1.28 3.39,13.56 c 0.43,1.74 0.54,1.89 2.68,1.89 h 4.79 c 4.14,0 6.78,-1.34 6.78,-4.78 0,-1.95 -1,-6.23 -2.94,-8.03 -2.5,-2.23 -5.49,-2.64 -7.69,-2.64 h -7.01 l -0.21,-1.28 h 8.47 c 7.08,0 14,5.17 14,10.75 0,3.84 -3.28,7.53 -9.81,7.53 h -16.14 c -0.95,0 -1.5,0 -1.5,-0.95 0,-0.6 0.45,-0.6 1.45,-0.6 0.64,0 1.55,-0.04 2.14,-0.09 0.8,-0.11 1.1,-0.25 1.1,-0.8 0,-0.2 -0.05,-0.36 -0.21,-0.95 l -6.67,-26.75 c -0.5,-1.95 -0.59,-2.34 -4.53,-2.34 -0.84,0 -1.39,0 -1.39,-0.96 0,-0.59 0.59,-0.59 0.73,-0.59 1.41,0 4.94,0.16 6.33,0.16 1.05,0 2.14,-0.07 3.19,-0.07 1.11,0 2.2,-0.09 3.25,-0.09 0.34,0 0.98,0 0.98,1 0,0.55 -0.43,0.55 -1.39,0.55 -1.84,0 -3.23,0 -3.23,0.89 0,0.29 0.09,0.54 0.14,0.84 z"
           inkscape:connector-curvature="0"
           style="fill:#000000;stroke-width:0" /><path
           id="path3151"
           d="m 713.2,180.29 0,0.02 0,0.03 0,0.01 0,0.02 -0.01,0.01 0,0.02 -0.01,0.01 0,0.02 -0.01,0.02 -0.01,0.02 -0.01,0.02 -0.02,0.03 -0.01,0.02 -0.02,0.03 -0.02,0.03 -0.03,0.03 -0.02,0.03 -0.03,0.04 -0.02,0.02 -0.02,0.02 -0.01,0.02 -0.02,0.02 -0.02,0.02 -0.02,0.02 -0.02,0.03 -0.02,0.02 -0.03,0.03 -0.02,0.02 -0.02,0.03 -0.03,0.03 -0.03,0.03 -0.02,0.02 -0.03,0.03 -0.03,0.04 -0.03,0.03 -0.04,0.03 -0.03,0.03 -0.03,0.04 -0.04,0.04 -0.03,0.03 -0.04,0.04 -0.04,0.04 c -6.22,6.28 -7.81,15.69 -7.81,23.31 0,8.67 1.89,17.35 8.01,23.56 0.64,0.61 0.64,0.71 0.64,0.86 0,0.35 -0.18,0.49 -0.48,0.49 -0.5,0 -4.99,-3.38 -7.92,-9.7 -2.55,-5.49 -3.14,-11.02 -3.14,-15.21 0,-3.89 0.54,-9.9 3.28,-15.54 2.98,-6.13 7.28,-9.36 7.78,-9.36 0.3,0 0.48,0.14 0.48,0.5 z"
           inkscape:connector-curvature="0"
           style="fill:#000000;stroke-width:0" /><path
           id="path3153"
           d="m 739.05,209.13 0.03,0.1 0.02,0.11 0.03,0.11 0.03,0.12 0.02,0.12 0.03,0.12 0.06,0.24 0.07,0.25 0.06,0.25 0.06,0.25 0.06,0.24 0.03,0.12 0.03,0.12 0.02,0.11 0.03,0.11 0.02,0.1 0.03,0.1 0.02,0.1 0.02,0.09 0.02,0.08 0.01,0.08 0.02,0.07 0.01,0.06 0.01,0.06 0.01,0.05 0,0.04 0,0.03 c 0,0.91 -0.7,1.35 -1.45,1.35 -0.6,0 -1.49,-0.39 -1.83,-1.39 -0.16,-0.35 -2.5,-9.86 -2.84,-11.16 -0.36,-1.5 -0.46,-2.39 -0.46,-3.3 0,-0.54 0,-0.64 0.05,-0.89 -1.14,-2.64 -2.64,-4.18 -4.58,-4.18 -3.98,0 -3.98,3.68 -3.98,4.53 0,1.59 0.25,3.54 2.59,9.67 0.55,1.48 0.85,2.19 0.85,3.19 0,2.23 -1.65,4.07 -4.1,4.07 -4.73,0 -6.58,-7.21 -6.58,-7.67 0,-0.5 0.5,-0.5 0.61,-0.5 0.5,0 0.55,0.11 0.8,0.91 1.34,4.62 3.28,6.17 5.03,6.17 0.44,0 1.25,-0.05 1.25,-1.64 0,-1.25 -0.56,-2.64 -0.91,-3.48 -2.18,-5.88 -2.78,-8.18 -2.78,-10.07 0,-4.53 3.33,-6.28 7.06,-6.28 0.87,0 3.19,0 5.19,3.49 1.3,-3.19 4.74,-3.49 6.24,-3.49 3.73,0 5.92,3.14 7.22,6.13 1.68,3.89 3.28,10.56 3.28,12.95 0,2.75 -1.35,3.48 -2.19,3.48 -1.25,0 -2.49,-1.29 -2.49,-2.39 0,-0.64 0.3,-0.93 0.74,-1.34 0.55,-0.55 1.8,-1.84 1.8,-4.23 0,-1.69 -1.44,-6.58 -2.74,-9.11 -1.3,-2.64 -3.05,-4.39 -5.48,-4.39 -2.35,0 -3.69,1.5 -3.69,4.32 0,1.41 0.34,2.96 0.55,3.64 z"
           inkscape:connector-curvature="0"
           style="fill:#000000;stroke-width:0" /><path
           id="path3155"
           d="m 763.1,192.29 0,0.3 -0.01,0.3 -0.02,0.29 -0.02,0.28 -0.04,0.27 -0.03,0.26 -0.05,0.26 -0.05,0.24 -0.06,0.24 -0.06,0.23 -0.07,0.22 -0.08,0.21 -0.08,0.2 -0.09,0.19 -0.1,0.19 -0.1,0.17 -0.11,0.16 -0.11,0.16 -0.12,0.14 -0.12,0.13 -0.13,0.13 -0.13,0.11 -0.14,0.1 -0.14,0.1 -0.15,0.08 -0.16,0.07 -0.16,0.06 -0.16,0.05 -0.17,0.04 -0.17,0.03 -0.18,0.01 -0.18,0.01 c -1.64,0 -2.64,-1.25 -2.64,-2.64 0,-1.34 1,-2.64 2.64,-2.64 0.6,0 1.25,0.2 1.75,0.64 0.14,0.11 0.21,0.16 0.25,0.16 0.05,0 0.1,-0.05 0.1,-0.75 0,-3.69 -1.74,-6.68 -3.39,-8.32 -0.55,-0.54 -0.55,-0.65 -0.55,-0.79 0,-0.36 0.25,-0.55 0.5,-0.55 0.55,0 4.53,3.83 4.53,9.66 z"
           inkscape:connector-curvature="0"
           style="fill:#000000;stroke-width:0" /><path
           id="path3157"
           d="m 800.77,226.27 0,0 0,0.01 0,0 0,0.01 0,0.02 0,0.01 0,0.02 0,0.02 -0.01,0.01 0,0.03 -0.01,0.02 0,0.02 -0.01,0.02 -0.01,0.03 -0.01,0.02 -0.01,0.03 -0.02,0.02 -0.01,0.02 -0.02,0.03 -0.02,0.02 -0.02,0.03 -0.02,0.01 -0.01,0.01 -0.01,0.01 -0.01,0.01 -0.02,0.01 -0.01,0.01 -0.02,0.01 -0.02,0.01 -0.01,0.01 -0.02,0 -0.02,0.01 -0.02,0.01 -0.02,0.01 -0.02,0 -0.02,0.01 -0.03,0 -0.02,0.01 -0.02,0 -0.03,0.01 -0.02,0 -0.03,0 -0.03,0 -0.03,0.01 -0.03,0 c -0.75,0 -5.48,-0.46 -6.33,-0.55 -0.4,-0.05 -0.7,-0.3 -0.7,-0.95 0,-0.6 0.45,-0.6 1.2,-0.6 2.4,0 2.49,-0.34 2.49,-0.84 l -0.14,-1 -3,-11.81 c -0.89,1.84 -2.35,3.18 -4.58,3.18 l 0.05,-1.09 c 3.23,0 3.93,-4.08 3.93,-4.37 0,-0.32 -0.09,-0.61 -0.14,-0.86 l -2.5,-9.77 c -0.25,-0.89 -0.25,-0.98 -1,-1.84 -2.18,-2.74 -4.23,-3.53 -5.62,-3.53 -2.49,0 -3.19,2.73 -3.19,4.68 0,2.49 1.6,8.61 2.74,10.91 1.54,2.94 3.79,4.78 5.78,4.78 l -0.05,1.09 c -5.83,0 -12,-7.31 -12,-14.59 0,-4.69 2.73,-7.97 6.63,-7.97 0.98,0 3.48,0.21 6.46,3.74 0.41,-2.1 2.14,-3.74 4.54,-3.74 1.75,0 2.89,1.14 3.68,2.74 0.85,1.79 1.5,4.84 1.5,4.93 0,0.5 -0.45,0.5 -0.59,0.5 -0.5,0 -0.55,-0.2 -0.7,-0.9 -0.85,-3.24 -1.75,-6.17 -3.79,-6.17 -1.34,0 -1.5,1.29 -1.5,2.29 0,1.19 0.1,1.55 0.3,2.39 z"
           inkscape:connector-curvature="0"
           style="fill:#000000;stroke-width:0" /><path
           id="path3159"
           d="m 815.38,204.69 0,0.37 -0.01,0.39 -0.01,0.39 -0.01,0.41 -0.04,0.84 -0.06,0.88 -0.08,0.92 -0.11,0.95 -0.13,0.97 -0.17,1 -0.19,1.03 -0.23,1.03 -0.27,1.05 -0.31,1.06 -0.34,1.07 -0.4,1.06 -0.21,0.54 -0.22,0.53 -0.24,0.53 -0.25,0.53 c -2.99,6.12 -7.27,9.36 -7.77,9.36 -0.3,0 -0.5,-0.19 -0.5,-0.49 0,-0.15 0,-0.25 0.94,-1.15 4.89,-4.92 7.73,-12.85 7.73,-23.27 0,-8.51 -1.84,-17.28 -8.03,-23.56 -0.64,-0.59 -0.64,-0.7 -0.64,-0.84 0,-0.3 0.2,-0.5 0.5,-0.5 0.5,0 4.97,3.39 7.92,9.71 2.53,5.47 3.13,11 3.13,15.19 z"
           inkscape:connector-curvature="0"
           style="fill:#000000;stroke-width:0" /><path
           id="path3161"
           d="m 833.16,226.27 0,0 0,0.01 0,0 0,0.01 0,0.02 0,0.01 0,0.02 0,0.02 -0.01,0.01 0,0.03 -0.01,0.02 0,0.02 -0.01,0.02 -0.01,0.03 -0.01,0.02 -0.01,0.03 -0.02,0.02 -0.01,0.02 -0.02,0.03 -0.02,0.02 -0.03,0.03 -0.01,0.01 -0.01,0.01 -0.01,0.01 -0.02,0.01 -0.01,0.01 -0.02,0.01 -0.02,0.01 -0.01,0.01 -0.02,0.01 -0.02,0 -0.02,0.01 -0.02,0.01 -0.02,0.01 -0.02,0 -0.02,0.01 -0.03,0 -0.02,0.01 -0.02,0 -0.03,0.01 -0.03,0 -0.02,0 -0.03,0 -0.03,0.01 -0.03,0 c -1.14,0 -4.78,-0.41 -6.08,-0.5 -0.39,-0.05 -0.94,-0.1 -0.94,-1.05 0,-0.55 0.49,-0.55 1.24,-0.55 2.39,0 2.45,-0.45 2.45,-0.84 l -0.16,-1 -6.28,-24.91 c -0.14,-0.54 -0.25,-0.9 -0.25,-1.7 0,-2.83 2.21,-4.58 4.53,-4.58 1.66,0 2.89,1 3.75,2.78 0.89,1.91 1.49,4.8 1.49,4.89 0,0.5 -0.44,0.5 -0.6,0.5 -0.5,0 -0.54,-0.2 -0.7,-0.9 -0.84,-3.24 -1.78,-6.17 -3.78,-6.17 -1.5,0 -1.5,1.59 -1.5,2.29 0,1.19 0.06,1.44 0.3,2.39 z"
           inkscape:connector-curvature="0"
           style="fill:#000000;stroke-width:0" /><path
           id="path3163"
           d="m 859.5,205.83 -0.01,0.48 -0.03,0.47 -0.05,0.46 -0.07,0.44 -0.09,0.44 -0.1,0.42 -0.12,0.4 -0.14,0.4 -0.16,0.38 -0.17,0.36 -0.19,0.36 -0.21,0.34 -0.22,0.32 -0.23,0.31 -0.25,0.3 -0.26,0.28 -0.28,0.26 -0.29,0.25 -0.29,0.24 -0.32,0.22 -0.32,0.2 -0.33,0.19 -0.35,0.17 -0.35,0.15 -0.37,0.13 -0.37,0.12 -0.38,0.1 -0.39,0.08 -0.4,0.07 -0.4,0.05 -0.41,0.02 -0.42,0.01 -0.05,-1.09 c 2.9,0 4.4,-2.39 4.4,-5.37 0,-1.96 -1,-7.18 -2.9,-10.43 -1.75,-2.89 -4.48,-4.57 -6.78,-4.57 h 0 c -2.14,0 -4.32,1.54 -4.32,5.43 0,2.44 1.29,7.82 2.89,10.36 2.48,3.83 5.32,4.58 6.71,4.58 l 0.05,1.09 c -6.67,0 -13.34,-7.06 -13.34,-14.14 0,-4.93 3.33,-8.42 7.97,-8.42 6.62,0 13.34,6.88 13.34,14.14 z"
           inkscape:connector-curvature="0"
           style="fill:#000000;stroke-width:0" /><path
           id="path3165"
           d="m 883.73,211.02 0.01,0.05 0.01,0.06 0.01,0.05 0.01,0.06 0.02,0.1 0.01,0.05 0.01,0.06 0.01,0.05 0.01,0.06 0.01,0.05 0.01,0.06 0.01,0.06 0,0.06 0,0.03 0.01,0.03 0,0.03 0,0.03 c 0,0.86 -0.6,1.36 -1.44,1.36 -0.5,0 -1.84,-0.36 -2.05,-2.16 -0.89,1.85 -2.64,3.14 -4.62,3.14 l 0.04,-1.09 c 3.29,0 3.99,-4.03 3.99,-4.28 0,-0.25 -0.09,-0.55 -0.16,-0.75 l -2.39,-9.52 c -0.29,-1.29 -1.44,-2.53 -2.53,-3.48 -1.05,-0.89 -2.59,-1.8 -4.05,-1.8 -2.48,0 -3.23,2.6 -3.23,4.58 0,2.41 1.45,8.28 2.8,10.81 1.34,2.46 3.48,4.44 5.57,4.44 l -0.04,1.09 c -5.69,0 -11.86,-6.96 -11.86,-14.14 0,-4.93 3.03,-7.87 6.62,-7.87 2.94,0 5.28,2.34 5.78,2.89 l 0.05,-0.05 c -1.05,-4.43 -1.64,-6.48 -1.64,-6.58 -0.2,-0.45 -1.89,-5.39 -7.17,-5.39 -0.95,0 -2.59,0.07 -4,0.5 1.5,0.46 2.05,1.75 2.05,2.6 0,0.79 -0.55,1.75 -1.89,1.75 -1.1,0 -2.69,-0.91 -2.69,-2.89 0,-2.05 1.84,-3.05 6.62,-3.05 6.22,0 9.82,3.89 10.57,6.88 z"
           inkscape:connector-curvature="0"
           style="fill:#000000;stroke-width:0" /><path
           id="path3167"
           d="m 919.8,227.16 0.14,1.12 2.37,9.44 c 0.28,1.08 0.31,1.19 1.78,1.19 h 4.08 c 3.24,0 5.25,-0.99 5.25,-3.46 0,-1.07 -0.4,-3.83 -2.15,-5.4 -1.25,-1.11 -3.24,-1.77 -5.75,-1.77 h -5.58 l -0.14,-1.12 h 6.31 c 5.89,0 10.87,3.76 10.87,7.56 0,2.94 -2.86,5.44 -7.64,5.44 h -12.18 c -0.71,0 -1.11,0 -1.11,-0.77 0,-0.48 0.37,-0.48 1.14,-0.48 0.56,0 0.7,0 1.33,-0.08 0.7,-0.06 0.76,-0.14 0.76,-0.49 0,-0.06 0,-0.23 -0.14,-0.76 l -4.59,-18.36 c -0.36,-1.36 -0.39,-1.61 -3.11,-1.61 -0.63,0 -1.05,0 -1.05,-0.77 0,-0.03 0,-0.48 0.56,-0.48 1.02,0 3.52,0.14 4.53,0.14 0.6,0 1.82,0 2.41,-0.03 0.69,-0.05 1.56,-0.11 2.23,-0.11 0.21,0 0.72,0 0.72,0.76 0,0.49 -0.4,0.49 -1.11,0.49 -0.03,0 -0.7,0 -1.32,0.08 -0.8,0.06 -0.8,0.17 -0.8,0.51 0,0.03 0,0.25 0.14,0.77 z"
           inkscape:connector-curvature="0"
           style="fill:#000000;stroke-width:0" /><path
           id="path3169"
           d="m 951.01,242.5 -0.6,-0.45 -0.58,-0.46 -0.56,-0.47 -0.52,-0.49 -0.5,-0.5 -0.47,-0.51 -0.45,-0.53 -0.42,-0.53 -0.4,-0.54 -0.38,-0.55 -0.35,-0.56 -0.33,-0.56 -0.31,-0.57 -0.29,-0.57 -0.26,-0.58 -0.25,-0.58 -0.23,-0.58 -0.21,-0.58 -0.19,-0.59 -0.17,-0.58 -0.16,-0.58 -0.13,-0.58 -0.13,-0.57 -0.11,-0.57 -0.09,-0.57 -0.08,-0.56 -0.06,-0.55 -0.05,-0.55 -0.04,-0.53 -0.03,-0.53 -0.02,-0.52 0,-0.5 c 0,-4.92 1.46,-12.55 8.37,-17.42 0.28,0 0.69,0 0.69,0.4 0,0.22 -0.1,0.29 -0.35,0.53 -4.63,4.19 -6.34,10.11 -6.34,16.46 0,9.4 3.59,14 6.46,16.58 0.13,0.14 0.23,0.25 0.23,0.42 0,0.42 -0.41,0.42 -0.69,0.42 z"
           inkscape:connector-curvature="0"
           style="fill:#000000;stroke-width:0" /><path
           id="path3171"
           d="m 972.56,227.47 0.03,0.09 0.02,0.1 0.03,0.09 0.02,0.11 0.03,0.1 0.03,0.11 0.05,0.21 0.06,0.23 0.05,0.22 0.05,0.22 0.03,0.1 0.02,0.11 0.03,0.1 0.02,0.1 0.03,0.1 0.02,0.1 0.02,0.09 0.02,0.08 0.02,0.08 0.01,0.08 0.02,0.07 0.01,0.07 0.01,0.05 0.01,0.06 0.01,0.04 0,0.04 0.01,0.01 0,0.02 0,0.01 0,0.01 c 0,0.68 -0.55,1.11 -1.14,1.11 -0.67,0 -1.3,-0.43 -1.5,-1.02 -0.11,-0.27 -0.46,-1.74 -0.7,-2.61 -0.49,-1.98 -0.49,-2.05 -1,-4 -0.46,-1.92 -0.54,-2.2 -0.57,-3.2 0.14,-0.71 -0.14,-1.36 -0.98,-2.41 -0.44,-0.56 -1.14,-1.16 -2.33,-1.16 -1.36,0 -3.14,0.49 -3.14,3.21 0,1.78 0.98,4.36 1.67,6.14 0.59,1.53 0.74,1.84 0.74,2.44 0,1.67 -1.43,2.95 -3.32,2.95 -3.51,0 -5.07,-4.74 -5.07,-5.33 0,-0.45 0.48,-0.45 0.59,-0.45 0.48,0 0.51,0.17 0.62,0.56 0.88,2.89 2.38,4.25 3.77,4.25 0.59,0 0.86,-0.39 0.86,-1.22 0,-0.8 -0.31,-1.56 -0.49,-2.01 -1.98,-5.1 -1.98,-5.8 -1.98,-6.88 0,-4.11 3.73,-4.62 5.61,-4.62 0.67,0 2.37,0 3.94,2.32 0.79,-1.56 2.72,-2.32 4.84,-2.32 3.11,0 4.64,2.67 5.33,4.1 1.5,2.93 2.44,7.29 2.44,8.9 0,2.6 -1.49,2.75 -1.74,2.75 -0.9,0 -1.87,-0.96 -1.87,-1.86 0,-0.58 0.34,-0.86 0.58,-1.08 0.84,-0.69 1.29,-1.67 1.29,-2.78 0,-0.46 -1.47,-9.07 -5.89,-9.07 -2.83,0 -2.83,2.52 -2.83,3.11 0,0.94 0.14,1.5 0.64,3.49 z"
           inkscape:connector-curvature="0"
           style="fill:#000000;stroke-width:0" /><path
           id="path3173"
           d="m 991.35,216.92 0,-0.36 -0.02,-0.37 -0.03,-0.38 -0.04,-0.38 -0.03,-0.2 -0.03,-0.19 -0.04,-0.2 -0.05,-0.19 -0.05,-0.2 -0.05,-0.2 -0.06,-0.2 -0.07,-0.2 -0.08,-0.21 -0.08,-0.2 -0.09,-0.2 -0.1,-0.21 -0.11,-0.2 -0.11,-0.21 -0.12,-0.2 -0.14,-0.21 -0.14,-0.21 -0.15,-0.21 -0.16,-0.2 -0.17,-0.21 -0.18,-0.21 -0.2,-0.21 -0.2,-0.2 -0.22,-0.21 c -0.14,-0.14 -0.25,-0.25 -0.25,-0.43 0,-0.24 0.28,-0.48 0.49,-0.48 0.48,0 3.45,2.78 3.45,6.92 0,2.17 -0.84,3.8 -2.44,3.8 -1.15,0 -1.98,-0.91 -1.98,-1.98 0,-1.11 0.8,-2.02 2.01,-2.02 0.85,0 1.39,0.56 1.44,0.56 z"
           inkscape:connector-curvature="0"
           style="fill:#000000;stroke-width:0" /><path
           id="path3175"
           d="m 1015.8,239.5 0,0 0,0.01 0,0 0,0.01 0,0 0,0.01 0,0 0,0.01 0,0.01 0,0 0,0.02 0,0.02 0,0.02 0,0.02 0,0.02 0,0.02 0,0.02 0,0.03 0,0.02 0,0.05 0.1,0.02 0,0.02 0,0.02 0,0.03 0,0.02 0,0.02 0,0.02 0,0.02 0,0.01 0,0.02 0,0.01 0,0 0,0.01 0,0.01 0,0 0,0.01 0,0 0,0.01 0,0 0,0 0,0.01 0,0 c 0,0.18 -0.1,0.5 -0.5,0.5 -0.7,0 -3.6,-0.28 -4.5,-0.36 -0.3,-0.03 -0.8,-0.07 -0.8,-0.8 0,-0.48 0.5,-0.48 0.9,-0.48 1.7,0 1.7,-0.25 1.7,-0.53 0,-0.24 -0.1,-0.46 -0.1,-0.77 l -2,-7.94 c -0.8,1.14 -1.9,2.05 -3.6,2.05 v -0.97 c 2.4,0 3.1,-2.64 3.1,-3.03 0,-0.14 -0.1,-0.39 -0.1,-0.49 l -1.7,-6.51 c -0.2,-0.99 -1,-1.67 -1.7,-2.34 -0.3,-0.27 -1.7,-1.4 -3.2,-1.4 -1.3,0 -2.6,0.91 -2.6,3.38 0,1.86 1,5.69 1.8,7.08 1.6,2.79 3.4,3.31 4.4,3.31 v 0.97 c -4.5,0 -9,-4.91 -9,-9.92 0,-3.38 2.3,-5.78 5.3,-5.78 1.8,0 3.5,1.07 4.9,2.43 0.7,-2.09 2.7,-2.43 3.6,-2.43 1.2,0 2.1,0.76 2.7,1.84 0.8,1.36 1.3,3.34 1.3,3.48 0,0.46 -0.5,0.46 -0.6,0.46 -0.5,0 -0.5,-0.14 -0.7,-1.08 -0.5,-1.67 -1.1,-3.74 -2.6,-3.74 -0.9,0 -1.1,0.77 -1.1,1.71 0,0.67 0,0.98 0.1,1.43 z"
           inkscape:connector-curvature="0"
           style="fill:#000000;stroke-width:0" /><path
           id="path3177"
           d="m 1019.8,242.5 -0.1,0 0,0 0,0 0,0 -0.1,0 0,0 0,0 0,-0.01 -0.1,0 0,0 0,-0.01 -0.1,0 0,-0.01 0,-0.01 0,0 -0.1,-0.01 0,-0.01 0,-0.02 0,-0.01 -0.1,-0.01 0,-0.02 0,-0.02 0,-0.02 0,-0.01 0,-0.01 0,-0.01 0,-0.01 -0.1,-0.01 0,-0.02 0,-0.01 0,-0.01 0,-0.02 0,-0.01 0,-0.02 0,-0.01 0,-0.02 0,-0.02 0,-0.02 0,-0.01 0,-0.02 0,-0.02 c 0,-0.17 0.1,-0.28 0.3,-0.53 3,-2.75 6.4,-7.46 6.4,-16.44 0,-7.28 -2.3,-12.8 -6.1,-16.2 -0.6,-0.6 -0.6,-0.63 -0.6,-0.82 0,-0.17 0.1,-0.4 0.4,-0.4 0.5,0 3.8,2.29 6.1,6.65 1.5,2.89 2.5,6.66 2.5,10.74 0,4.9 -1.4,12.53 -8.3,17.42 z"
           inkscape:connector-curvature="0"
           style="fill:#000000;stroke-width:0" /><polyline
           id="polyline3179"
           points="892,204 1048.1,204 1048.1,206.04 892,206.04 "
           style="fill:#000000;fill-rule:nonzero;stroke-width:0" /><path
           id="path3181"
           d="m 903.84,185.88 0.14,1.12 2.37,9.44 c 0.28,1.08 0.31,1.18 1.78,1.18 h 4.08 c 3.24,0 5.25,-0.98 5.25,-3.45 0,-1.08 -0.41,-3.83 -2.16,-5.4 -1.25,-1.11 -3.23,-1.77 -5.75,-1.77 h -5.57 l -0.14,-1.12 h 6.31 c 5.89,0 10.87,3.76 10.87,7.56 0,2.94 -2.86,5.44 -7.64,5.44 H 901.2 c -0.71,0 -1.11,0 -1.11,-0.77 0,-0.49 0.37,-0.49 1.14,-0.49 0.56,0 0.7,0 1.32,-0.07 0.71,-0.07 0.77,-0.14 0.77,-0.49 0,-0.06 0,-0.23 -0.14,-0.76 l -4.59,-18.36 c -0.36,-1.36 -0.39,-1.61 -3.11,-1.61 -0.63,0 -1.05,0 -1.05,-0.77 0,-0.03 0,-0.48 0.56,-0.48 1.02,0 3.52,0.14 4.53,0.14 0.6,0 1.82,0 2.41,-0.03 0.69,-0.05 1.56,-0.11 2.23,-0.11 0.21,0 0.72,0 0.72,0.76 0,0.49 -0.4,0.49 -1.11,0.49 -0.03,0 -0.7,0 -1.32,0.08 -0.8,0.06 -0.8,0.17 -0.8,0.51 0,0.03 0,0.25 0.14,0.77 z"
           inkscape:connector-curvature="0"
           style="fill:#000000;stroke-width:0" /><path
           id="path3183"
           d="m 935.05,201.22 -0.61,-0.45 -0.57,-0.46 -0.56,-0.47 -0.52,-0.49 -0.5,-0.5 -0.47,-0.51 -0.45,-0.53 -0.42,-0.53 -0.4,-0.54 -0.38,-0.55 -0.35,-0.56 -0.33,-0.56 -0.31,-0.57 -0.29,-0.57 -0.26,-0.58 -0.25,-0.58 -0.23,-0.58 -0.21,-0.58 -0.19,-0.59 -0.17,-0.58 -0.16,-0.58 -0.14,-0.58 -0.12,-0.57 -0.11,-0.57 -0.09,-0.57 -0.08,-0.56 -0.06,-0.55 -0.06,-0.55 -0.04,-0.53 -0.02,-0.53 -0.02,-0.52 0,-0.5 c 0,-4.92 1.47,-12.55 8.37,-17.42 0.28,0 0.69,0 0.69,0.4 0,0.22 -0.09,0.28 -0.34,0.53 -4.65,4.19 -6.35,10.11 -6.35,16.46 0,9.4 3.6,14 6.45,16.58 0.15,0.14 0.24,0.24 0.24,0.42 0,0.42 -0.41,0.42 -0.69,0.42 z"
           inkscape:connector-curvature="0"
           style="fill:#000000;stroke-width:0" /><path
           id="path3185"
           d="m 956.6,186.19 0.03,0.09 0.02,0.09 0.03,0.1 0.02,0.1 0.03,0.11 0.03,0.11 0.05,0.21 0.05,0.22 0.06,0.23 0.05,0.22 0.03,0.1 0.02,0.11 0.03,0.1 0.02,0.1 0.02,0.1 0.03,0.1 0.02,0.09 0.02,0.08 0.01,0.08 0.02,0.08 0.02,0.07 0.01,0.06 0.01,0.06 0.01,0.05 0.01,0.05 0,0.03 0.01,0.02 0,0.01 0,0.01 0,0.01 c 0,0.69 -0.55,1.11 -1.14,1.11 -0.67,0 -1.3,-0.42 -1.5,-1.01 -0.11,-0.27 -0.46,-1.74 -0.71,-2.61 -0.48,-1.99 -0.48,-2.05 -1,-4 -0.45,-1.92 -0.53,-2.2 -0.56,-3.2 0.14,-0.71 -0.14,-1.36 -0.98,-2.41 -0.44,-0.56 -1.14,-1.16 -2.33,-1.16 -1.36,0 -3.14,0.49 -3.14,3.21 0,1.78 0.98,4.36 1.67,6.14 0.59,1.53 0.73,1.84 0.73,2.43 0,1.68 -1.42,2.96 -3.31,2.96 -3.51,0 -5.08,-4.74 -5.08,-5.33 0,-0.45 0.49,-0.45 0.6,-0.45 0.48,0 0.51,0.17 0.62,0.56 0.88,2.89 2.38,4.25 3.77,4.25 0.59,0 0.86,-0.39 0.86,-1.22 0,-0.8 -0.31,-1.56 -0.49,-2.02 -1.98,-5.09 -1.98,-5.79 -1.98,-6.87 0,-4.11 3.73,-4.63 5.61,-4.63 0.67,0 2.37,0 3.94,2.33 0.79,-1.56 2.71,-2.33 4.84,-2.33 3.11,0 4.64,2.68 5.33,4.11 1.5,2.93 2.44,7.28 2.44,8.89 0,2.61 -1.49,2.75 -1.74,2.75 -0.91,0 -1.87,-0.95 -1.87,-1.86 0,-0.57 0.34,-0.85 0.57,-1.07 0.85,-0.69 1.3,-1.67 1.3,-2.78 0,-0.46 -1.47,-9.07 -5.89,-9.07 -2.83,0 -2.83,2.52 -2.83,3.11 0,0.94 0.14,1.5 0.64,3.49 z"
           inkscape:connector-curvature="0"
           style="fill:#000000;stroke-width:0" /><path
           id="path3187"
           d="m 975.39,175.64 0,-0.36 -0.02,-0.37 -0.03,-0.38 -0.04,-0.38 -0.03,-0.2 -0.03,-0.19 -0.04,-0.2 -0.05,-0.2 -0.05,-0.19 -0.05,-0.2 -0.07,-0.2 -0.06,-0.21 -0.08,-0.2 -0.08,-0.2 -0.09,-0.2 -0.1,-0.21 -0.11,-0.2 -0.11,-0.21 -0.13,-0.21 -0.13,-0.2 -0.14,-0.21 -0.15,-0.21 -0.16,-0.2 -0.17,-0.21 -0.19,-0.21 -0.19,-0.21 -0.2,-0.21 -0.22,-0.2 c -0.14,-0.15 -0.25,-0.25 -0.25,-0.43 0,-0.25 0.28,-0.48 0.49,-0.48 0.48,0 3.45,2.78 3.45,6.92 0,2.17 -0.84,3.8 -2.44,3.8 -1.15,0 -1.98,-0.91 -1.98,-1.99 0,-1.11 0.79,-2.01 2.01,-2.01 0.85,0 1.39,0.56 1.44,0.56 z"
           inkscape:connector-curvature="0"
           style="fill:#000000;stroke-width:0" /><path
           id="path3189"
           d="m 999.8,198.22 0,0 0.01,0.01 0,0 0,0.01 0,0 0.01,0.01 0,0 0,0.01 0,0.01 0.01,0 0,0.02 0.01,0.02 0,0.02 0.01,0.02 0,0.02 0.01,0.02 0.01,0.02 0,0.02 0.01,0.03 0.01,0.04 0,0.03 0.01,0.02 0,0.02 0.01,0.03 0,0.02 0.01,0.02 0,0.02 0.01,0.02 0,0.01 0,0.02 0,0.01 0,0 0.01,0.01 0,0.01 0,0 0,0.01 0,0 0,0.01 0,0 0,0 0,0 0,0.01 c 0,0.18 -0.14,0.5 -0.54,0.5 -0.71,0 -3.6,-0.29 -4.47,-0.36 -0.28,-0.03 -0.77,-0.07 -0.77,-0.8 0,-0.49 0.49,-0.49 0.91,-0.49 1.67,0 1.67,-0.24 1.67,-0.53 0,-0.23 -0.06,-0.45 -0.14,-0.76 l -1.99,-7.94 c -0.73,1.14 -1.92,2.05 -3.59,2.05 v -0.97 c 2.44,0 3.11,-2.64 3.11,-3.03 0,-0.14 -0.08,-0.39 -0.11,-0.49 l -1.64,-6.51 c -0.23,-0.99 -1,-1.67 -1.77,-2.35 -0.31,-0.26 -1.71,-1.39 -3.21,-1.39 -1.29,0 -2.54,0.91 -2.54,3.38 0,1.86 1,5.69 1.82,7.08 1.59,2.79 3.37,3.31 4.34,3.31 v 0.97 c -4.45,0 -8.99,-4.91 -8.99,-9.92 0,-3.38 2.27,-5.79 5.27,-5.79 1.88,0 3.55,1.08 4.94,2.44 0.67,-2.09 2.69,-2.44 3.59,-2.44 1.25,0 2.13,0.77 2.75,1.85 0.77,1.36 1.22,3.34 1.22,3.48 0,0.46 -0.45,0.46 -0.55,0.46 -0.5,0 -0.53,-0.14 -0.76,-1.08 -0.42,-1.67 -1.09,-3.74 -2.55,-3.74 -0.91,0 -1.16,0.77 -1.16,1.71 0,0.67 0.08,0.98 0.18,1.43 z"
           inkscape:connector-curvature="0"
           style="fill:#000000;stroke-width:0" /><path
           id="path3191"
           d="m 1007.4,199.86 0,0.05 0,0.05 0,0.05 0,0.06 0,0.05 0,0.06 0,0.05 0,0.06 0,0.06 0,0.05 0,0.06 0,0.06 0,0.05 0,0.06 -0.1,0.05 0,0.05 0,0.05 0,0.05 0,0.05 -0.1,0.04 0,0.05 0,0.04 -0.1,0.03 0,0.02 0,0.02 0,0.01 -0.1,0.02 0,0.01 0,0.02 0,0.01 -0.1,0.01 0,0.01 0,0.01 -0.1,0.01 0,0.01 0,0 -0.1,0.01 0,0 0,0.01 -0.1,0 0,0 c -0.9,0 -0.9,-0.81 -0.9,-1.36 v -32.14 c 0,-0.52 0,-1.36 0.9,-1.36 0.8,0 0.8,0.81 0.8,1.36 z"
           inkscape:connector-curvature="0"
           style="fill:#000000;stroke-width:0" /><path
           id="path3193"
           d="m 1030.4,192.05 0,0.34 -0.1,0.34 0,0.35 0,0.34 0,0.34 -0.1,0.34 0,0.34 -0.1,0.33 -0.1,0.33 -0.1,0.32 -0.1,0.32 -0.1,0.31 -0.1,0.3 -0.1,0.29 -0.1,0.28 -0.2,0.28 -0.1,0.26 -0.2,0.25 -0.2,0.24 -0.1,0.23 -0.2,0.21 -0.2,0.2 -0.2,0.18 -0.3,0.17 -0.2,0.15 -0.2,0.13 -0.3,0.12 -0.3,0.09 -0.2,0.08 -0.3,0.05 -0.3,0.04 -0.3,0.01 -0.1,-0.97 c 2.2,0 2.2,-3.87 2.2,-4.53 0,-1.36 -0.3,-3.39 -1,-6.31 h -8 c 1.8,7.53 4.8,10.84 6.8,10.84 l 0.1,0.97 c -5.3,0 -10.9,-9.34 -10.9,-17.31 0,-4.16 1.6,-7.57 4.8,-7.57 l 0.1,0.97 c -1.9,0 -2.2,2.66 -2.2,4.53 0,2.3 0.6,5.02 1,6.32 h 8 c -1,-3.8 -1.8,-5.69 -2.8,-7.39 -1.1,-1.82 -2.5,-3.46 -4,-3.46 l -0.1,-0.97 c 5.3,0 10.9,9.52 10.9,17.32 z"
           inkscape:connector-curvature="0"
           style="fill:#000000;stroke-width:0" /><path
           id="path3195"
           d="m 1035.7,201.22 0,0 0,0 -0.1,0 0,0 0,0 0,0 -0.1,-0.01 0,0 0,0 0,0 -0.1,-0.01 0,0 0,-0.01 -0.1,-0.01 0,0 0,-0.01 0,-0.01 -0.1,-0.02 0,-0.01 0,-0.01 0,-0.02 0,-0.02 -0.1,-0.02 0,-0.01 0,-0.01 0,-0.01 0,-0.01 0,-0.01 0,-0.02 0,-0.01 0,-0.01 0,-0.02 0,-0.01 0,-0.02 0,-0.02 0,-0.01 0,-0.02 0,-0.02 0,-0.01 0,-0.02 0,-0.02 c 0,-0.18 0.1,-0.28 0.3,-0.53 3,-2.75 6.3,-7.46 6.3,-16.44 0,-7.28 -2.3,-12.8 -6,-16.21 -0.6,-0.59 -0.6,-0.62 -0.6,-0.81 0,-0.17 0.1,-0.4 0.4,-0.4 0.4,0 3.7,2.29 6,6.65 1.6,2.89 2.6,6.66 2.6,10.74 0,4.9 -1.5,12.53 -8.4,17.42 z"
           inkscape:connector-curvature="0"
           style="fill:#000000;stroke-width:0" /></g>    </g>
  </g>
</svg>
