<?xml version="1.0" encoding="UTF-8" standalone="no"?>
<!-- Created with Inkscape (http://www.inkscape.org/) -->

<svg
   xmlns:dc="http://purl.org/dc/elements/1.1/"
   xmlns:cc="http://creativecommons.org/ns#"
   xmlns:rdf="http://www.w3.org/1999/02/22-rdf-syntax-ns#"
   xmlns:svg="http://www.w3.org/2000/svg"
   xmlns="http://www.w3.org/2000/svg"
   xmlns:sodipodi="http://sodipodi.sourceforge.net/DTD/sodipodi-0.dtd"
   xmlns:inkscape="http://www.inkscape.org/namespaces/inkscape"
   width="275.77197"
   height="38.103069"
   id="svg6256"
   version="1.1"
   inkscape:version="0.48.4 r9939"
   sodipodi:docname="New document 31">
  <sodipodi:namedview
     id="base"
     pagecolor="#ffffff"
     bordercolor="#666666"
     borderopacity="1.0"
     inkscape:pageopacity="0.0"
     inkscape:pageshadow="2"
     inkscape:zoom="2.8"
     inkscape:cx="212.91304"
     inkscape:cy="-6.7992056"
     inkscape:document-units="px"
     inkscape:current-layer="layer1"
     showgrid="false"
     inkscape:window-width="1440"
     inkscape:window-height="839"
     inkscape:window-x="0"
     inkscape:window-y="22"
     inkscape:window-maximized="1"
     fit-margin-top="10"
     fit-margin-left="10"
     fit-margin-bottom="10"
     fit-margin-right="10" />
  <defs
     id="defs6258" />
  <metadata
     id="metadata6261">
    <rdf:RDF>
      <cc:Work
         rdf:about="">
        <dc:format>image/svg+xml</dc:format>
        <dc:type
           rdf:resource="http://purl.org/dc/dcmitype/StillImage" />
        <dc:title></dc:title>
      </cc:Work>
    </rdf:RDF>
  </metadata>
  <g
     id="layer1"
     inkscape:groupmode="layer"
     inkscape:label="Layer 1"
     transform="translate(-742.86487,-420.40289)">
    <g
       id="g6269"
       transform="matrix(0.3231555,0,0,0.3231555,655.81593,327.71348)">
      <g
         word-spacing="normal"
         letter-spacing="normal"
         font-size-adjust="none"
         font-stretch="normal"
         font-weight="normal"
         font-variant="normal"
         font-style="normal"
         stroke-miterlimit="10.433"
         xml:space="preserve"
         transform="matrix(1.0629921,0,0,-1.0629921,-186.02362,789.27165)"
         id="content"
         style="font-style:normal;font-variant:normal;font-weight:normal;font-stretch:normal;letter-spacing:normal;word-spacing:normal;text-anchor:start;fill:none;stroke:#000000;stroke-linecap:butt;stroke-linejoin:miter;stroke-miterlimit:10.43299961;stroke-opacity:1;stroke-dasharray:none;stroke-dashoffset:0"><path
           id="path6272"
           d="m 470.61,421.95 0.21,1.28 3.39,13.56 c 0.43,1.74 0.54,1.89 2.68,1.89 h 4.79 c 4.14,0 6.78,-1.34 6.78,-4.78 0,-1.95 -1,-6.23 -2.94,-8.03 -2.5,-2.23 -5.48,-2.64 -7.69,-2.64 h -7.01 l -0.21,-1.28 h 8.47 c 7.08,0 14,5.17 14,10.75 0,3.84 -3.28,7.53 -9.81,7.53 h -16.14 c -0.95,0 -1.5,0 -1.5,-0.95 0,-0.6 0.45,-0.6 1.45,-0.6 0.64,0 1.55,-0.04 2.14,-0.09 0.8,-0.11 1.1,-0.25 1.1,-0.8 0,-0.2 -0.05,-0.36 -0.21,-0.95 l -6.67,-26.75 c -0.5,-1.95 -0.59,-2.34 -4.53,-2.34 -0.84,0 -1.39,0 -1.39,-0.96 0,-0.59 0.59,-0.59 0.73,-0.59 1.41,0 4.94,0.16 6.33,0.16 1.05,0 2.14,-0.07 3.19,-0.07 1.11,0 2.2,-0.09 3.25,-0.09 0.34,0 0.98,0 0.98,1 0,0.55 -0.43,0.55 -1.39,0.55 -1.84,0 -3.23,0 -3.23,0.89 0,0.29 0.09,0.54 0.14,0.84 z"
           inkscape:connector-curvature="0"
           style="fill:#000000;stroke-width:0" /><path
           id="path6274"
           d="m 511,394.25 0,0.02 0,0.03 0,0.01 0,0.02 0,0.01 -0.01,0.02 0,0.01 -0.01,0.02 -0.01,0.02 -0.01,0.02 -0.01,0.02 -0.02,0.03 -0.01,0.02 -0.02,0.03 -0.02,0.03 -0.03,0.03 -0.02,0.03 -0.03,0.04 -0.02,0.02 -0.01,0.02 -0.02,0.02 -0.02,0.02 -0.02,0.02 -0.02,0.03 -0.02,0.02 -0.02,0.02 -0.02,0.03 -0.03,0.02 -0.02,0.03 -0.03,0.03 -0.03,0.03 -0.02,0.03 -0.03,0.03 -0.03,0.03 -0.03,0.03 -0.03,0.03 -0.04,0.04 -0.03,0.03 -0.04,0.04 -0.03,0.03 -0.04,0.04 -0.04,0.04 c -6.22,6.28 -7.81,15.69 -7.81,23.31 0,8.67 1.89,17.35 8.01,23.56 0.64,0.61 0.64,0.71 0.64,0.86 0,0.35 -0.18,0.49 -0.48,0.49 -0.5,0 -4.98,-3.38 -7.92,-9.7 -2.55,-5.49 -3.14,-11.02 -3.14,-15.21 0,-3.89 0.54,-9.9 3.28,-15.54 2.98,-6.13 7.28,-9.36 7.78,-9.36 0.3,0 0.48,0.14 0.48,0.5 z"
           inkscape:connector-curvature="0"
           style="fill:#000000;stroke-width:0" /><path
           id="path6276"
           d="m 536.85,423.09 0.03,0.1 0.02,0.11 0.03,0.12 0.03,0.11 0.02,0.12 0.03,0.12 0.06,0.25 0.07,0.25 0.06,0.25 0.06,0.24 0.06,0.25 0.03,0.11 0.03,0.12 0.02,0.11 0.03,0.11 0.03,0.1 0.02,0.1 0.02,0.1 0.02,0.09 0.02,0.08 0.01,0.08 0.02,0.07 0.01,0.06 0.01,0.06 0.01,0.05 0,0.04 0,0.03 c 0,0.91 -0.7,1.35 -1.45,1.35 -0.6,0 -1.49,-0.39 -1.83,-1.39 -0.16,-0.35 -2.5,-9.86 -2.84,-11.16 -0.36,-1.5 -0.46,-2.39 -0.46,-3.3 0,-0.54 0,-0.64 0.05,-0.89 -1.14,-2.64 -2.64,-4.18 -4.58,-4.18 -3.98,0 -3.98,3.68 -3.98,4.53 0,1.59 0.25,3.54 2.59,9.67 0.55,1.48 0.85,2.19 0.85,3.19 0,2.23 -1.65,4.07 -4.1,4.07 -4.73,0 -6.58,-7.21 -6.58,-7.67 0,-0.5 0.5,-0.5 0.61,-0.5 0.5,0 0.55,0.11 0.8,0.91 1.34,4.62 3.28,6.17 5.03,6.17 0.44,0 1.25,-0.05 1.25,-1.64 0,-1.25 -0.56,-2.64 -0.91,-3.48 -2.18,-5.88 -2.78,-8.18 -2.78,-10.07 0,-4.53 3.33,-6.28 7.07,-6.28 0.86,0 3.18,0 5.18,3.49 1.3,-3.19 4.74,-3.49 6.24,-3.49 3.73,0 5.92,3.14 7.22,6.13 1.68,3.89 3.28,10.56 3.28,12.95 0,2.75 -1.35,3.48 -2.19,3.48 -1.25,0 -2.48,-1.29 -2.48,-2.39 0,-0.64 0.29,-0.93 0.73,-1.34 0.55,-0.55 1.8,-1.84 1.8,-4.23 0,-1.69 -1.44,-6.58 -2.74,-9.11 -1.29,-2.64 -3.04,-4.39 -5.48,-4.39 -2.35,0 -3.69,1.5 -3.69,4.32 0,1.41 0.34,2.96 0.55,3.64 z"
           inkscape:connector-curvature="0"
           style="fill:#000000;stroke-width:0" /><path
           id="path6278"
           d="m 560.9,406.25 0,0.3 -0.01,0.3 -0.02,0.29 -0.02,0.28 -0.04,0.27 -0.03,0.26 -0.05,0.26 -0.05,0.24 -0.06,0.24 -0.06,0.23 -0.07,0.22 -0.08,0.21 -0.08,0.2 -0.09,0.19 -0.1,0.19 -0.1,0.17 -0.11,0.16 -0.11,0.16 -0.12,0.14 -0.12,0.13 -0.13,0.13 -0.13,0.11 -0.14,0.1 -0.14,0.1 -0.15,0.08 -0.16,0.07 -0.15,0.06 -0.17,0.05 -0.17,0.04 -0.17,0.03 -0.17,0.01 -0.18,0.01 c -1.65,0 -2.65,-1.25 -2.65,-2.64 0,-1.34 1,-2.64 2.65,-2.64 0.59,0 1.25,0.2 1.75,0.64 0.13,0.11 0.2,0.16 0.25,0.16 0.04,0 0.09,-0.05 0.09,-0.75 0,-3.69 -1.74,-6.68 -3.39,-8.32 -0.55,-0.54 -0.55,-0.65 -0.55,-0.79 0,-0.36 0.25,-0.55 0.5,-0.55 0.55,0 4.53,3.83 4.53,9.66 z"
           inkscape:connector-curvature="0"
           style="fill:#000000;stroke-width:0" /><path
           id="path6280"
           d="m 598.57,440.23 0,0 0,0.01 0,0 0,0.01 0,0.02 0,0.01 0,0.02 -0.01,0.02 0,0.02 0,0.02 -0.01,0.02 -0.01,0.02 0,0.02 -0.01,0.03 -0.01,0.02 -0.02,0.03 -0.01,0.02 -0.02,0.03 -0.01,0.02 -0.02,0.02 -0.03,0.03 -0.01,0.01 -0.01,0.01 -0.01,0.01 -0.02,0.01 -0.01,0.01 -0.02,0.01 -0.01,0.01 -0.02,0.01 -0.02,0.01 -0.02,0.01 -0.01,0 -0.02,0.01 -0.02,0.01 -0.02,0 -0.03,0.01 -0.02,0.01 -0.02,0 -0.03,0 -0.02,0.01 -0.03,0 -0.02,0 -0.03,0.01 -0.03,0 -0.03,0 c -0.75,0 -5.48,-0.46 -6.33,-0.55 -0.4,-0.05 -0.7,-0.3 -0.7,-0.95 0,-0.6 0.45,-0.6 1.2,-0.6 2.39,0 2.49,-0.34 2.49,-0.84 l -0.14,-1 -3,-11.81 c -0.9,1.84 -2.35,3.18 -4.58,3.18 l 0.04,-1.09 c 3.24,0 3.94,-4.08 3.94,-4.37 0,-0.32 -0.09,-0.61 -0.14,-0.86 l -2.5,-9.77 c -0.25,-0.89 -0.25,-0.98 -1,-1.84 -2.19,-2.74 -4.23,-3.53 -5.62,-3.53 -2.49,0 -3.19,2.73 -3.19,4.68 0,2.49 1.59,8.61 2.73,10.91 1.55,2.94 3.8,4.78 5.78,4.78 l -0.04,1.09 c -5.83,0 -12,-7.31 -12,-14.59 0,-4.69 2.73,-7.97 6.62,-7.97 0.99,0 3.49,0.21 6.47,3.74 0.41,-2.1 2.14,-3.74 4.53,-3.74 1.75,0 2.89,1.14 3.69,2.74 0.84,1.79 1.5,4.84 1.5,4.93 0,0.5 -0.45,0.5 -0.59,0.5 -0.5,0 -0.55,-0.2 -0.71,-0.9 -0.84,-3.24 -1.75,-6.17 -3.78,-6.17 -1.34,0 -1.5,1.29 -1.5,2.29 0,1.19 0.1,1.55 0.3,2.39 z"
           inkscape:connector-curvature="0"
           style="fill:#000000;stroke-width:0" /><path
           id="path6282"
           d="m 606.71,441.78 0,0.16 0,0.17 -0.01,0.16 0,0.08 -0.01,0.08 -0.01,0.08 0,0.08 -0.01,0.07 -0.02,0.07 -0.01,0.07 -0.02,0.07 -0.02,0.07 -0.02,0.06 -0.02,0.06 -0.03,0.06 -0.03,0.06 -0.04,0.05 -0.04,0.05 -0.04,0.05 -0.04,0.04 -0.05,0.04 -0.03,0.01 -0.03,0.02 -0.03,0.02 -0.03,0.01 -0.03,0.01 -0.03,0.02 -0.04,0.01 -0.03,0.01 -0.04,0.01 -0.04,0.01 -0.04,0 -0.04,0.01 -0.04,0 -0.04,0.01 -0.05,0 -0.04,0 c -1,0 -1,-0.89 -1,-1.78 v -46.24 c 0,-0.9 0,-1.79 1,-1.79 1,0 1,0.89 1,1.79 z"
           inkscape:connector-curvature="0"
           style="fill:#000000;stroke-width:0" /><path
           id="path6284"
           d="m 635.25,431.11 0,0.31 -0.01,0.34 -0.01,0.36 -0.02,0.37 -0.03,0.39 -0.04,0.39 -0.05,0.41 -0.06,0.41 -0.06,0.42 -0.08,0.43 -0.09,0.42 -0.1,0.43 -0.11,0.42 -0.13,0.42 -0.14,0.41 -0.15,0.41 -0.17,0.4 -0.19,0.38 -0.2,0.37 -0.22,0.36 -0.23,0.34 -0.25,0.32 -0.27,0.3 -0.29,0.27 -0.31,0.25 -0.16,0.12 -0.17,0.1 -0.17,0.1 -0.18,0.1 -0.19,0.08 -0.18,0.08 -0.2,0.07 -0.2,0.06 -0.2,0.05 -0.22,0.05 -0.21,0.03 -0.23,0.02 -0.22,0.02 -0.24,0 -0.05,-1.09 c 2.44,0 2.74,-3.19 2.74,-6.03 0,-2.44 -0.39,-4.99 -1.6,-9.92 h -10.4 c 0.84,3.2 1.84,7.18 3.82,10.72 1.37,2.43 3.19,5.23 5.44,5.23 l 0.05,1.09 c -6.92,0 -14.59,-14.04 -14.59,-25.45 0,-4.69 1.43,-10.22 5.98,-10.22 v 1.1 c -1.66,0 -2.7,1.45 -2.7,6.07 0,2.1 0.29,4.99 1.59,9.86 h 10.38 c -0.55,-2.28 -1.6,-6.51 -3.5,-10.11 -1.74,-3.39 -3.63,-5.82 -5.77,-5.82 v -1.1 c 7.02,0 14.59,14.3 14.59,25.46 z"
           inkscape:connector-curvature="0"
           style="fill:#000000;stroke-width:0" /><path
           id="path6286"
           d="m 651.81,418.65 0,0.37 0,0.39 -0.01,0.39 -0.02,0.41 -0.04,0.84 -0.06,0.88 -0.08,0.92 -0.1,0.95 -0.14,0.97 -0.16,1.01 -0.2,1.02 -0.23,1.03 -0.27,1.05 -0.3,1.06 -0.35,1.07 -0.39,1.07 -0.22,0.53 -0.22,0.53 -0.24,0.53 -0.25,0.53 c -2.98,6.12 -7.26,9.36 -7.76,9.36 -0.3,0 -0.5,-0.19 -0.5,-0.49 0,-0.15 0,-0.25 0.93,-1.15 4.89,-4.92 7.74,-12.85 7.74,-23.27 0,-8.51 -1.85,-17.28 -8.03,-23.56 -0.64,-0.59 -0.64,-0.7 -0.64,-0.84 0,-0.3 0.2,-0.5 0.5,-0.5 0.5,0 4.96,3.39 7.92,9.71 2.53,5.47 3.12,11 3.12,15.19 z"
           inkscape:connector-curvature="0"
           style="fill:#000000;stroke-width:0" /><path
           id="path6288"
           d="m 704.9,422.5 0.13,0 0.15,0 0.14,0 0.08,0.01 0.07,0 0.07,0.01 0.07,0.01 0.07,0.01 0.07,0.01 0.07,0.01 0.07,0.02 0.06,0.02 0.06,0.02 0.06,0.02 0.06,0.03 0.06,0.03 0.05,0.04 0.05,0.03 0.05,0.05 0.04,0.04 0.04,0.05 0.02,0.03 0.02,0.03 0.01,0.02 0.02,0.03 0.01,0.03 0.02,0.04 0.01,0.03 0.01,0.04 0.01,0.03 0.01,0.04 0.01,0.04 0,0.04 0.01,0.04 0,0.04 0,0.04 0,0.05 c 0,1 -0.95,1 -1.64,1 H 675.1 c -0.7,0 -1.64,0 -1.64,-1 0,-0.98 0.94,-0.98 1.69,-0.98 z"
           inkscape:connector-curvature="0"
           style="fill:#000000;stroke-width:0" /><path
           id="path6290"
           d="m 704.94,412.82 0.07,0 0.06,0 0.14,0.01 0.14,0 0.07,0 0.07,0.01 0.07,0.01 0.07,0 0.06,0.01 0.07,0.02 0.07,0.01 0.06,0.02 0.07,0.02 0.06,0.02 0.06,0.02 0.06,0.03 0.05,0.03 0.05,0.04 0.05,0.04 0.05,0.04 0.04,0.05 0.02,0.02 0.02,0.03 0.02,0.02 0.02,0.03 0.01,0.03 0.02,0.03 0.01,0.03 0.02,0.03 0.01,0.04 0.01,0.03 0.01,0.04 0.01,0.04 0.01,0.04 0,0.04 0.01,0.04 0,0.04 0,0.05 0,0.04 c 0,1 -0.95,1 -1.68,1 h -29.75 c -0.75,0 -1.69,0 -1.69,-1 0,-1 0.94,-1 1.64,-1 z"
           inkscape:connector-curvature="0"
           style="fill:#000000;stroke-width:0" /><path
           id="path6292"
           d="m 744.21,416.91 -17.69,-21.86 c -0.39,-0.5 -0.44,-0.61 -0.44,-0.8 0,-0.56 0.44,-0.56 1.35,-0.56 h 41.29 L 773,406.1 h -1.23 c -1.25,-3.74 -4.59,-6.77 -8.83,-8.22 -0.79,-0.25 -4.23,-1.44 -11.54,-1.44 h -21.19 l 17.29,21.38 c 0.35,0.43 0.46,0.59 0.46,0.79 0,0.19 -0.06,0.25 -0.36,0.69 l -16.19,22.22 h 19.74 c 5.67,0 17.12,-0.34 20.62,-9.66 H 773 l -4.28,11.66 h -41.29 c -1.35,0 -1.4,-0.05 -1.4,-1.59 z"
           inkscape:connector-curvature="0"
           style="fill:#000000;stroke-width:0" /><path
           id="path6294"
           d="m 781.78,394.26 0.17,0.17 0.16,0.16 0.17,0.17 0.17,0.17 0.18,0.17 0.09,0.09 0.1,0.09 0.1,0.1 0.11,0.1 0.11,0.1 0.12,0.11 0.12,0.11 0.13,0.11 0.13,0.12 0.15,0.13 0.15,0.13 0.16,0.13 0.17,0.15 0.18,0.15 0.18,0.15 0.2,0.17 0.21,0.17 0.22,0.18 0.23,0.19 0.25,0.2 0.26,0.2 0.27,0.22 c 0.73,0.59 3.34,2.69 4.35,3.66 2.13,2.09 3.46,3.87 3.46,4.29 0,0.41 -0.46,0.41 -0.6,0.41 -0.31,0 -0.42,-0.06 -0.59,-0.35 -1.08,-1.59 -1.81,-2.12 -2.64,-2.12 -0.42,0 -0.95,0.03 -2,1.05 -1.17,1.18 -1.94,1.42 -2.75,1.42 -2.78,0 -4.67,-3.03 -4.67,-4.06 0,-0.33 0.36,-0.43 0.59,-0.43 0.42,0 0.5,0.1 0.63,0.49 0.53,1.22 2.48,1.3 3.04,1.3 0.8,0 1.71,-0.22 2.19,-0.33 1.92,-0.41 2.16,-0.41 3.03,-0.41 -0.9,-0.95 -1.53,-1.58 -4.84,-4.22 -2.72,-2.15 -3.66,-3.03 -4.31,-3.73 -2.1,-2.05 -3.11,-3.58 -3.11,-3.91 0,-0.4 0.45,-0.4 0.59,-0.4 0.34,0 0.42,0.06 0.59,0.34 0.94,1.33 2.02,2.12 3.21,2.12 0.42,0 0.94,-0.03 1.87,-0.9 1.1,-1.05 1.78,-1.56 2.91,-1.56 3.72,0 6.06,4.21 6.06,5.39 0,0.42 -0.39,0.45 -0.59,0.45 -0.42,0 -0.5,-0.17 -0.63,-0.55 -0.67,-1.75 -2.72,-2.58 -4.44,-2.58 -0.79,0 -1.67,0.18 -2.53,0.38 -1.61,0.34 -1.89,0.34 -2.51,0.34 -0.08,0 -0.6,0 -0.8,-0.03 z"
           inkscape:connector-curvature="0"
           style="fill:#000000;stroke-width:0" /><path
           id="path6296"
           d="m 822.22,421.95 0.2,1.28 3.39,13.56 c 0.44,1.74 0.54,1.89 2.69,1.89 h 4.78 c 4.14,0 6.78,-1.34 6.78,-4.78 0,-1.95 -1,-6.23 -2.94,-8.03 -2.5,-2.23 -5.48,-2.64 -7.69,-2.64 h -7.01 l -0.2,-1.28 h 8.46 c 7.08,0 14,5.17 14,10.75 0,3.84 -3.28,7.53 -9.81,7.53 h -16.14 c -0.95,0 -1.5,0 -1.5,-0.95 0,-0.6 0.45,-0.6 1.45,-0.6 0.64,0 1.55,-0.04 2.14,-0.09 0.8,-0.11 1.1,-0.25 1.1,-0.8 0,-0.2 -0.05,-0.36 -0.2,-0.95 l -6.68,-26.75 c -0.5,-1.95 -0.59,-2.34 -4.53,-2.34 -0.84,0 -1.39,0 -1.39,-0.96 0,-0.59 0.6,-0.59 0.73,-0.59 1.41,0 4.94,0.16 6.33,0.16 1.05,0 2.14,-0.07 3.19,-0.07 1.11,0 2.2,-0.09 3.25,-0.09 0.35,0 0.98,0 0.98,1 0,0.55 -0.43,0.55 -1.38,0.55 -1.85,0 -3.24,0 -3.24,0.89 0,0.29 0.09,0.54 0.14,0.84 z"
           inkscape:connector-curvature="0"
           style="fill:#000000;stroke-width:0" /><path
           id="path6298"
           d="m 862.6,394.25 0,0.02 0,0.03 0,0.01 0,0.02 -0.01,0.01 0,0.02 -0.01,0.01 0,0.02 -0.01,0.02 -0.01,0.02 -0.01,0.02 -0.02,0.03 -0.01,0.02 -0.02,0.03 -0.02,0.03 -0.03,0.03 -0.02,0.03 -0.03,0.04 -0.02,0.02 -0.02,0.02 -0.01,0.02 -0.02,0.02 -0.02,0.02 -0.02,0.03 -0.02,0.02 -0.02,0.02 -0.03,0.03 -0.02,0.02 -0.03,0.03 -0.02,0.03 -0.03,0.03 -0.02,0.03 -0.03,0.03 -0.03,0.03 -0.03,0.03 -0.04,0.03 -0.03,0.04 -0.03,0.03 -0.04,0.04 -0.04,0.03 -0.03,0.04 -0.04,0.04 c -6.22,6.28 -7.81,15.69 -7.81,23.31 0,8.67 1.89,17.35 8.01,23.56 0.64,0.61 0.64,0.71 0.64,0.86 0,0.35 -0.19,0.49 -0.48,0.49 -0.5,0 -4.99,-3.38 -7.92,-9.7 -2.55,-5.49 -3.15,-11.02 -3.15,-15.21 0,-3.89 0.55,-9.9 3.29,-15.54 2.98,-6.13 7.28,-9.36 7.78,-9.36 0.29,0 0.48,0.14 0.48,0.5 z"
           inkscape:connector-curvature="0"
           style="fill:#000000;stroke-width:0" /><path
           id="path6300"
           d="m 891.14,440.23 0,0 0,0.01 0,0 0,0.01 0,0.02 -0.01,0.01 0,0.02 0,0.02 0,0.02 -0.01,0.02 0,0.02 -0.01,0.02 -0.01,0.02 -0.01,0.03 -0.01,0.02 -0.01,0.03 -0.01,0.02 -0.02,0.03 -0.02,0.02 -0.02,0.02 -0.02,0.03 -0.01,0.01 -0.01,0.01 -0.02,0.01 -0.01,0.01 -0.02,0.01 -0.01,0.01 -0.02,0.01 -0.01,0.01 -0.02,0.01 -0.02,0.01 -0.02,0 -0.02,0.01 -0.02,0.01 -0.02,0 -0.02,0.01 -0.02,0.01 -0.03,0 -0.02,0 -0.03,0.01 -0.02,0 -0.03,0 -0.03,0.01 -0.02,0 -0.03,0 c -0.75,0 -5.49,-0.46 -6.33,-0.55 -0.41,-0.05 -0.7,-0.3 -0.7,-0.95 0,-0.6 0.45,-0.6 1.2,-0.6 2.39,0 2.48,-0.34 2.48,-0.84 l -0.14,-1 -3,-11.81 c -0.89,1.84 -2.34,3.18 -4.58,3.18 l 0.05,-1.09 c 3.24,0 3.94,-4.08 3.94,-4.37 0,-0.32 -0.1,-0.61 -0.14,-0.86 l -2.5,-9.77 c -0.25,-0.89 -0.25,-0.98 -1,-1.84 -2.19,-2.74 -4.24,-3.53 -5.63,-3.53 -2.48,0 -3.18,2.73 -3.18,4.68 0,2.49 1.59,8.61 2.73,10.91 1.55,2.94 3.8,4.78 5.78,4.78 l -0.05,1.09 c -5.83,0 -12,-7.31 -12,-14.59 0,-4.69 2.74,-7.97 6.63,-7.97 0.98,0 3.48,0.21 6.47,3.74 0.4,-2.1 2.14,-3.74 4.53,-3.74 1.75,0 2.89,1.14 3.69,2.74 0.84,1.79 1.5,4.84 1.5,4.93 0,0.5 -0.46,0.5 -0.6,0.5 -0.5,0 -0.55,-0.2 -0.7,-0.9 -0.85,-3.24 -1.75,-6.17 -3.78,-6.17 -1.35,0 -1.5,1.29 -1.5,2.29 0,1.19 0.09,1.55 0.3,2.39 z"
           inkscape:connector-curvature="0"
           style="fill:#000000;stroke-width:0" /><path
           id="path6302"
           d="m 905.74,418.65 0,0.37 0,0.39 -0.01,0.39 -0.02,0.41 -0.04,0.84 -0.06,0.88 -0.08,0.92 -0.11,0.95 -0.13,0.97 -0.16,1.01 -0.2,1.02 -0.23,1.03 -0.27,1.05 -0.3,1.06 -0.35,1.07 -0.39,1.07 -0.22,0.53 -0.22,0.53 -0.24,0.53 -0.25,0.53 c -2.98,6.12 -7.26,9.36 -7.76,9.36 -0.3,0 -0.5,-0.19 -0.5,-0.49 0,-0.15 0,-0.25 0.93,-1.15 4.89,-4.92 7.74,-12.85 7.74,-23.27 0,-8.51 -1.85,-17.28 -8.03,-23.56 -0.64,-0.59 -0.64,-0.7 -0.64,-0.84 0,-0.3 0.2,-0.5 0.5,-0.5 0.5,0 4.96,3.39 7.92,9.71 2.53,5.47 3.12,11 3.12,15.19 z"
           inkscape:connector-curvature="0"
           style="fill:#000000;stroke-width:0" /><path
           id="path6304"
           d="m 925.76,421.95 0.21,1.28 3.38,13.56 c 0.44,1.74 0.55,1.89 2.69,1.89 h 4.78 c 4.15,0 6.78,-1.34 6.78,-4.78 0,-1.95 -1,-6.23 -2.93,-8.03 -2.5,-2.23 -5.49,-2.64 -7.69,-2.64 h -7.01 l -0.21,-1.28 h 8.47 c 7.08,0 14,5.17 14,10.75 0,3.84 -3.28,7.53 -9.81,7.53 h -16.14 c -0.96,0 -1.5,0 -1.5,-0.95 0,-0.6 0.45,-0.6 1.45,-0.6 0.64,0 1.55,-0.04 2.14,-0.09 0.8,-0.11 1.1,-0.25 1.1,-0.8 0,-0.2 -0.05,-0.36 -0.21,-0.95 l -6.67,-26.75 c -0.5,-1.95 -0.59,-2.34 -4.53,-2.34 -0.84,0 -1.39,0 -1.39,-0.96 0,-0.59 0.59,-0.59 0.73,-0.59 1.41,0 4.94,0.16 6.33,0.16 1.05,0 2.14,-0.07 3.19,-0.07 1.11,0 2.2,-0.09 3.25,-0.09 0.34,0 0.98,0 0.98,1 0,0.55 -0.43,0.55 -1.39,0.55 -1.84,0 -3.23,0 -3.23,0.89 0,0.29 0.09,0.54 0.14,0.84 z"
           inkscape:connector-curvature="0"
           style="fill:#000000;stroke-width:0" /><path
           id="path6306"
           d="m 966.15,394.25 0,0.02 0,0.03 0,0.01 0,0.02 -0.01,0.01 0,0.02 -0.01,0.01 0,0.02 -0.01,0.02 -0.01,0.02 -0.01,0.02 -0.02,0.03 -0.01,0.02 -0.02,0.03 -0.02,0.03 -0.03,0.03 -0.02,0.03 -0.03,0.04 -0.02,0.02 -0.02,0.02 -0.01,0.02 -0.02,0.02 -0.02,0.02 -0.02,0.03 -0.02,0.02 -0.02,0.02 -0.03,0.03 -0.02,0.02 -0.02,0.03 -0.03,0.03 -0.03,0.03 -0.02,0.03 -0.03,0.03 -0.03,0.03 -0.03,0.03 -0.04,0.03 -0.03,0.04 -0.03,0.03 -0.04,0.04 -0.03,0.03 -0.04,0.04 -0.04,0.04 c -6.22,6.28 -7.81,15.69 -7.81,23.31 0,8.67 1.89,17.35 8.01,23.56 0.64,0.61 0.64,0.71 0.64,0.86 0,0.35 -0.18,0.49 -0.48,0.49 -0.5,0 -4.99,-3.38 -7.92,-9.7 -2.55,-5.49 -3.15,-11.02 -3.15,-15.21 0,-3.89 0.55,-9.9 3.29,-15.54 2.98,-6.13 7.28,-9.36 7.78,-9.36 0.3,0 0.48,0.14 0.48,0.5 z"
           inkscape:connector-curvature="0"
           style="fill:#000000;stroke-width:0" /><path
           id="path6308"
           d="m 975.61,410.34 0.25,0.27 0.24,0.25 0.23,0.25 0.23,0.24 0.22,0.23 0.22,0.22 0.21,0.22 0.21,0.21 0.2,0.2 0.2,0.19 0.19,0.19 0.19,0.19 0.18,0.17 0.18,0.18 0.35,0.33 0.34,0.32 0.34,0.3 0.32,0.29 0.33,0.29 0.65,0.56 0.32,0.29 0.34,0.28 c 0,0.05 3.07,2.69 4.87,4.49 4.74,4.64 5.83,7.03 5.83,7.21 0,0.5 -0.45,0.5 -0.55,0.5 -0.34,0 -0.5,-0.09 -0.75,-0.54 -1.48,-2.39 -2.53,-3.19 -3.73,-3.19 -1.2,0 -1.8,0.75 -2.55,1.59 -0.94,1.16 -1.78,2.14 -3.44,2.14 -3.73,0 -6.01,-4.62 -6.01,-5.67 0,-0.25 0.14,-0.54 0.59,-0.54 0.46,0 0.55,0.25 0.64,0.54 0.96,2.3 3.85,2.35 4.24,2.35 1.04,0 2,-0.36 3.14,-0.75 2,-0.75 2.55,-0.75 3.84,-0.75 -1.79,-2.14 -5.98,-5.74 -6.92,-6.53 l -4.48,-4.18 c -3.39,-3.34 -5.15,-6.18 -5.15,-6.53 0,-0.5 0.5,-0.5 0.6,-0.5 0.4,0 0.5,0.1 0.8,0.64 1.15,1.75 2.64,3.1 4.23,3.1 1.16,0 1.66,-0.46 2.89,-1.89 0.86,-1.05 1.75,-1.85 3.19,-1.85 4.94,0 7.83,6.33 7.83,7.67 0,0.25 -0.21,0.5 -0.6,0.5 -0.45,0 -0.54,-0.29 -0.7,-0.65 -1.14,-3.24 -4.33,-4.17 -5.98,-4.17 -0.99,0 -1.9,0.29 -2.94,0.64 -1.69,0.64 -2.44,0.84 -3.49,0.84 -0.09,0 -0.89,0 -1.34,-0.14 z"
           inkscape:connector-curvature="0"
           style="fill:#000000;stroke-width:0" /><path
           id="path6310"
           d="m 1002.2,441.78 0,0.16 0,0.17 0,0.16 0,0.08 0,0.08 0,0.08 0,0.08 0,0.07 0,0.07 0,0.07 -0.1,0.07 0,0.07 0,0.06 0,0.06 -0.1,0.06 0,0.06 0,0.05 -0.1,0.05 0,0.05 -0.1,0.04 0,0.04 0,0.01 -0.1,0.02 0,0.02 0,0.01 0,0.01 -0.1,0.02 0,0.01 0,0.01 -0.1,0.01 0,0.01 -0.1,0 0,0.01 0,0 -0.1,0.01 0,0 -0.1,0 c -1,0 -1,-0.89 -1,-1.78 v -46.24 c 0,-0.9 0,-1.79 1,-1.79 1,0 1,0.89 1,1.79 z"
           inkscape:connector-curvature="0"
           style="fill:#000000;stroke-width:0" /><path
           id="path6312"
           d="m 1033.8,440.23 0,0 0,0.01 0,0 0,0.01 0,0.02 0,0.01 0,0.02 0,0.02 0,0.02 0,0.02 0,0.02 0,0.02 0,0.02 0,0.03 -0.1,0.02 0,0.03 0,0.02 0,0.03 0,0.02 0,0.02 -0.1,0.03 0,0.01 0,0.01 0,0.01 0,0.01 0,0.01 0,0.01 -0.1,0.01 0,0.01 0,0.01 0,0.01 0,0 0,0.01 -0.1,0.01 0,0 0,0.01 0,0.01 -0.1,0 0,0 0,0.01 0,0 -0.1,0 0,0.01 0,0 0,0 c -0.8,0 -5.5,-0.46 -6.4,-0.55 -0.4,-0.05 -0.7,-0.3 -0.7,-0.95 0,-0.6 0.5,-0.6 1.2,-0.6 2.4,0 2.5,-0.34 2.5,-0.84 l -0.1,-1 -3,-11.81 c -0.9,1.84 -2.4,3.18 -4.6,3.18 l 0,-1.09 c 3.3,0 4,-4.08 4,-4.37 0,-0.32 -0.1,-0.61 -0.2,-0.86 l -2.5,-9.77 c -0.2,-0.89 -0.2,-0.98 -1,-1.84 -2.2,-2.74 -4.2,-3.53 -5.6,-3.53 -2.5,0 -3.2,2.73 -3.2,4.68 0,2.49 1.6,8.61 2.8,10.91 1.5,2.94 3.8,4.78 5.7,4.78 l 0,1.09 c -5.8,0 -12,-7.31 -12,-14.59 0,-4.69 2.7,-7.97 6.6,-7.97 1,0 3.5,0.21 6.5,3.74 0.4,-2.1 2.1,-3.74 4.5,-3.74 1.8,0 2.9,1.14 3.7,2.74 0.8,1.79 1.5,4.84 1.5,4.93 0,0.5 -0.4,0.5 -0.6,0.5 -0.5,0 -0.5,-0.2 -0.7,-0.9 -0.8,-3.24 -1.7,-6.17 -3.8,-6.17 -1.3,0 -1.5,1.29 -1.5,2.29 0,1.19 0.1,1.55 0.3,2.39 z"
           inkscape:connector-curvature="0"
           style="fill:#000000;stroke-width:0" /><path
           id="path6314"
           d="m 1048.4,418.65 0,0.37 0,0.39 0,0.39 0,0.41 -0.1,0.84 0,0.88 -0.1,0.92 -0.1,0.95 -0.1,0.97 -0.2,1.01 -0.2,1.02 -0.2,1.03 -0.3,1.05 -0.3,1.06 -0.4,1.07 -0.3,1.07 -0.3,0.53 -0.2,0.53 -0.2,0.53 -0.3,0.53 c -3,6.12 -7.2,9.36 -7.7,9.36 -0.3,0 -0.5,-0.19 -0.5,-0.49 0,-0.15 0,-0.25 0.9,-1.15 4.9,-4.92 7.7,-12.85 7.7,-23.27 0,-8.51 -1.8,-17.28 -8,-23.56 -0.6,-0.59 -0.6,-0.7 -0.6,-0.84 0,-0.3 0.2,-0.5 0.5,-0.5 0.5,0 4.9,3.39 7.9,9.71 2.5,5.47 3.1,11 3.1,15.19 z"
           inkscape:connector-curvature="0"
           style="fill:#000000;stroke-width:0" /><path
           id="path6316"
           d="m 1068.4,421.95 0.2,1.28 3.4,13.56 c 0.5,1.74 0.6,1.89 2.7,1.89 h 4.8 c 4.1,0 6.8,-1.34 6.8,-4.78 0,-1.95 -1,-6.23 -3,-8.03 -2.5,-2.23 -5.5,-2.64 -7.7,-2.64 h -7 l -0.2,-1.28 h 8.5 c 7.1,0 14,5.17 14,10.75 0,3.84 -3.3,7.53 -9.8,7.53 h -16.2 c -0.9,0 -1.5,0 -1.5,-0.95 0,-0.6 0.5,-0.6 1.5,-0.6 0.6,0 1.5,-0.04 2.1,-0.09 0.8,-0.11 1.1,-0.25 1.1,-0.8 0,-0.2 0,-0.36 -0.2,-0.95 l -6.7,-26.75 c -0.4,-1.95 -0.5,-2.34 -4.5,-2.34 -0.8,0 -1.4,0 -1.4,-0.96 0,-0.59 0.6,-0.59 0.8,-0.59 1.4,0 4.9,0.16 6.3,0.16 1,0 2.1,-0.07 3.2,-0.07 1.1,0 2.2,-0.09 3.2,-0.09 0.4,0 1,0 1,1 0,0.55 -0.4,0.55 -1.4,0.55 -1.8,0 -3.2,0 -3.2,0.89 0,0.29 0.1,0.54 0.1,0.84 z"
           inkscape:connector-curvature="0"
           style="fill:#000000;stroke-width:0" /><path
           id="path6318"
           d="m 1108.8,394.25 0,0.02 0,0.03 0,0.01 0,0.02 0,0.01 0,0.02 0,0.01 0,0.02 0,0.02 0,0.02 0,0.02 -0.1,0.03 0,0.02 0,0.03 0,0.03 0,0.03 -0.1,0.03 0,0.04 0,0.02 0,0.02 0,0.02 -0.1,0.02 0,0.02 0,0.03 0,0.02 0,0.02 -0.1,0.03 0,0.02 0,0.03 0,0.03 -0.1,0.03 0,0.03 0,0.03 0,0.03 -0.1,0.03 0,0.03 0,0.04 -0.1,0.03 0,0.04 -0.1,0.03 0,0.04 0,0.04 c -6.2,6.28 -7.8,15.69 -7.8,23.31 0,8.67 1.9,17.35 8,23.56 0.6,0.61 0.6,0.71 0.6,0.86 0,0.35 -0.2,0.49 -0.5,0.49 -0.5,0 -5,-3.38 -7.9,-9.7 -2.5,-5.49 -3.1,-11.02 -3.1,-15.21 0,-3.89 0.5,-9.9 3.3,-15.54 2.9,-6.13 7.2,-9.36 7.7,-9.36 0.3,0 0.5,0.14 0.5,0.5 z"
           inkscape:connector-curvature="0"
           style="fill:#000000;stroke-width:0" /><path
           id="path6320"
           d="m 1134.7,423.09 0,0.1 0,0.11 0,0.12 0.1,0.11 0,0.12 0,0.12 0.1,0.25 0,0.25 0.1,0.25 0.1,0.24 0,0.25 0.1,0.11 0,0.12 0,0.11 0,0.11 0.1,0.1 0,0.1 0,0.1 0,0.09 0,0.08 0.1,0.08 0,0.07 0,0.06 0,0.06 0,0.05 0,0.04 0,0.03 c 0,0.91 -0.7,1.35 -1.4,1.35 -0.6,0 -1.5,-0.39 -1.9,-1.39 -0.1,-0.35 -2.5,-9.86 -2.8,-11.16 -0.4,-1.5 -0.5,-2.39 -0.5,-3.3 0,-0.54 0,-0.64 0.1,-0.89 -1.2,-2.64 -2.7,-4.18 -4.6,-4.18 -4,0 -4,3.68 -4,4.53 0,1.59 0.3,3.54 2.6,9.67 0.6,1.48 0.9,2.19 0.9,3.19 0,2.23 -1.7,4.07 -4.1,4.07 -4.8,0 -6.6,-7.21 -6.6,-7.67 0,-0.5 0.5,-0.5 0.6,-0.5 0.5,0 0.5,0.11 0.8,0.91 1.3,4.62 3.3,6.17 5,6.17 0.5,0 1.3,-0.05 1.3,-1.64 0,-1.25 -0.6,-2.64 -0.9,-3.48 -2.2,-5.88 -2.8,-8.18 -2.8,-10.07 0,-4.53 3.3,-6.28 7.1,-6.28 0.8,0 3.1,0 5.1,3.49 1.3,-3.19 4.8,-3.49 6.3,-3.49 3.7,0 5.9,3.14 7.2,6.13 1.7,3.89 3.3,10.56 3.3,12.95 0,2.75 -1.4,3.48 -2.2,3.48 -1.3,0 -2.5,-1.29 -2.5,-2.39 0,-0.64 0.3,-0.93 0.7,-1.34 0.6,-0.55 1.8,-1.84 1.8,-4.23 0,-1.69 -1.4,-6.58 -2.7,-9.11 -1.3,-2.64 -3,-4.39 -5.5,-4.39 -2.3,0 -3.7,1.5 -3.7,4.32 0,1.41 0.4,2.96 0.6,3.64 z"
           inkscape:connector-curvature="0"
           style="fill:#000000;stroke-width:0" /><path
           id="path6322"
           d="m 1156.5,441.78 0,0.16 0,0.17 0,0.16 0,0.08 0,0.08 0,0.08 0,0.08 0,0.07 0,0.07 0,0.07 -0.1,0.07 0,0.07 0,0.06 0,0.06 0,0.06 -0.1,0.06 0,0.05 -0.1,0.05 0,0.05 0,0.04 -0.1,0.04 0,0.01 0,0.02 -0.1,0.02 0,0.01 0,0.01 -0.1,0.02 0,0.01 0,0.01 -0.1,0.01 0,0.01 -0.1,0 0,0.01 0,0 -0.1,0.01 0,0 -0.1,0 c -1,0 -1,-0.89 -1,-1.78 v -46.24 c 0,-0.9 0,-1.79 1,-1.79 1,0 1,0.89 1,1.79 z"
           inkscape:connector-curvature="0"
           style="fill:#000000;stroke-width:0" /><path
           id="path6324"
           d="m 1169,410.34 0.3,0.27 0.2,0.25 0.3,0.25 0.2,0.24 0.2,0.23 0.2,0.22 0.2,0.22 0.2,0.21 0.2,0.2 0.2,0.19 0.2,0.19 0.2,0.19 0.2,0.17 0.2,0.18 0.3,0.33 0.4,0.32 0.3,0.3 0.3,0.29 0.4,0.29 0.6,0.56 0.3,0.29 0.4,0.28 c 0,0.05 3,2.69 4.8,4.49 4.8,4.64 5.9,7.03 5.9,7.21 0,0.5 -0.5,0.5 -0.6,0.5 -0.3,0 -0.5,-0.09 -0.7,-0.54 -1.5,-2.39 -2.6,-3.19 -3.8,-3.19 -1.2,0 -1.8,0.75 -2.5,1.59 -0.9,1.16 -1.8,2.14 -3.4,2.14 -3.8,0 -6.1,-4.62 -6.1,-5.67 0,-0.25 0.2,-0.54 0.6,-0.54 0.5,0 0.6,0.25 0.7,0.54 0.9,2.3 3.8,2.35 4.2,2.35 1.1,0 2,-0.36 3.1,-0.75 2,-0.75 2.6,-0.75 3.9,-0.75 -1.8,-2.14 -6,-5.74 -6.9,-6.53 l -4.5,-4.18 c -3.4,-3.34 -5.2,-6.18 -5.2,-6.53 0,-0.5 0.5,-0.5 0.6,-0.5 0.4,0 0.5,0.1 0.8,0.64 1.2,1.75 2.7,3.1 4.3,3.1 1.1,0 1.6,-0.46 2.9,-1.89 0.8,-1.05 1.7,-1.85 3.1,-1.85 5,0 7.9,6.33 7.9,7.67 0,0.25 -0.2,0.5 -0.6,0.5 -0.5,0 -0.6,-0.29 -0.7,-0.65 -1.2,-3.24 -4.4,-4.17 -6,-4.17 -1,0 -1.9,0.29 -2.9,0.64 -1.7,0.64 -2.5,0.84 -3.5,0.84 -0.1,0 -0.9,0 -1.4,-0.14 z"
           inkscape:connector-curvature="0"
           style="fill:#000000;stroke-width:0" /><path
           id="path6326"
           d="m 1202.1,418.65 0,0.37 0,0.39 0,0.39 0,0.41 -0.1,0.84 0,0.88 -0.1,0.92 -0.1,0.95 -0.1,0.97 -0.2,1.01 -0.2,1.02 -0.2,1.03 -0.3,1.05 -0.3,1.06 -0.4,1.07 -0.3,1.07 -0.3,0.53 -0.2,0.53 -0.2,0.53 -0.3,0.53 c -3,6.12 -7.2,9.36 -7.7,9.36 -0.3,0 -0.5,-0.19 -0.5,-0.49 0,-0.15 0,-0.25 0.9,-1.15 4.9,-4.92 7.7,-12.85 7.7,-23.27 0,-8.51 -1.8,-17.28 -8,-23.56 -0.6,-0.59 -0.6,-0.7 -0.6,-0.84 0,-0.3 0.2,-0.5 0.5,-0.5 0.5,0 4.9,3.39 7.9,9.71 2.5,5.47 3.1,11 3.1,15.19 z"
           inkscape:connector-curvature="0"
           style="fill:#000000;stroke-width:0" /></g>    </g>
  </g>
</svg>
