<?xml version="1.0" encoding="UTF-8" standalone="no"?>
<!-- Created with Inkscape (http://www.inkscape.org/) -->

<svg
   xmlns:dc="http://purl.org/dc/elements/1.1/"
   xmlns:cc="http://creativecommons.org/ns#"
   xmlns:rdf="http://www.w3.org/1999/02/22-rdf-syntax-ns#"
   xmlns:svg="http://www.w3.org/2000/svg"
   xmlns="http://www.w3.org/2000/svg"
   xmlns:sodipodi="http://sodipodi.sourceforge.net/DTD/sodipodi-0.dtd"
   xmlns:inkscape="http://www.inkscape.org/namespaces/inkscape"
   width="299.9675"
   height="253.76468"
   id="svg5391"
   version="1.1"
   inkscape:version="0.48.4 r9939"
   sodipodi:docname="affine_vector.svg">
  <sodipodi:namedview
     id="base"
     pagecolor="#ffffff"
     bordercolor="#666666"
     borderopacity="1.0"
     inkscape:pageopacity="0.0"
     inkscape:pageshadow="2"
     inkscape:zoom="1.979899"
     inkscape:cx="88.544344"
     inkscape:cy="128.96941"
     inkscape:document-units="px"
     inkscape:current-layer="layer1"
     showgrid="false"
     inkscape:window-width="1440"
     inkscape:window-height="839"
     inkscape:window-x="0"
     inkscape:window-y="22"
     inkscape:window-maximized="1"
     fit-margin-top="10"
     fit-margin-left="10"
     fit-margin-bottom="10"
     fit-margin-right="10" />
  <defs
     id="defs5393">
    <marker
       inkscape:stockid="Arrow1Mend"
       orient="auto"
       refY="0"
       refX="0"
       id="Arrow1Mend"
       style="overflow:visible">
      <path
         inkscape:connector-curvature="0"
         id="path3863"
         d="M 0,0 5,-5 -12.5,0 5,5 0,0 z"
         style="fill-rule:evenodd;stroke:#000000;stroke-width:1pt"
         transform="matrix(-0.4,0,0,-0.4,-4,0)" />
    </marker>
    <marker
       inkscape:stockid="Arrow1Lend"
       orient="auto"
       refY="0"
       refX="0"
       id="Arrow1Lend"
       style="overflow:visible">
      <path
         inkscape:connector-curvature="0"
         id="path3802"
         d="M 0,0 5,-5 -12.5,0 5,5 0,0 z"
         style="fill-rule:evenodd;stroke:#000000;stroke-width:1pt"
         transform="matrix(-0.8,0,0,-0.8,-10,0)" />
    </marker>
    <marker
       inkscape:stockid="Arrow1Lend"
       orient="auto"
       refY="0"
       refX="0"
       id="marker5454"
       style="overflow:visible">
      <path
         inkscape:connector-curvature="0"
         id="path5456"
         d="M 0,0 5,-5 -12.5,0 5,5 0,0 z"
         style="fill-rule:evenodd;stroke:#000000;stroke-width:1pt"
         transform="matrix(-0.8,0,0,-0.8,-10,0)" />
    </marker>
  </defs>
  <metadata
     id="metadata5396">
    <rdf:RDF>
      <cc:Work
         rdf:about="">
        <dc:format>image/svg+xml</dc:format>
        <dc:type
           rdf:resource="http://purl.org/dc/dcmitype/StillImage" />
        <dc:title />
      </cc:Work>
    </rdf:RDF>
  </metadata>
  <g
     id="layer1"
     inkscape:groupmode="layer"
     inkscape:label="Layer 1"
     transform="translate(-288.01148,-434.88958)">
    <path
       style="fill:#000000;fill-opacity:1;stroke:#000000;stroke-width:0.57324576px;stroke-linecap:butt;stroke-linejoin:miter;stroke-opacity:1;marker-end:url(#Arrow1Mend)"
       d="m 432.91123,678.36763 0,-230.24863"
       id="path7237"
       inkscape:connector-curvature="0" />
    <path
       style="fill:none;stroke:#000000;stroke-width:0.62348837;stroke-linecap:butt;stroke-linejoin:miter;stroke-miterlimit:4;stroke-opacity:1;stroke-dasharray:none;marker-end:url(#Arrow1Mend)"
       d="m 298.32322,570.1077 273.96998,0"
       id="path7621"
       inkscape:connector-curvature="0" />
    <path
       style="fill:none;stroke:#000000;stroke-width:1.121382px;stroke-linecap:butt;stroke-linejoin:miter;stroke-opacity:1"
       d="M 349.53288,487.03576 513.13451,650.63738"
       id="path3050"
       inkscape:connector-curvature="0" />
    <path
       style="fill:none;stroke:#000000;stroke-width:1.121382px;stroke-linecap:butt;stroke-linejoin:miter;stroke-opacity:1"
       d="M 395.89001,457.29912 559.49163,620.90074"
       id="path3050-6"
       inkscape:connector-curvature="0" />
    <path
       style="fill:none;stroke:#000000;stroke-width:0.560691;stroke-linecap:butt;stroke-linejoin:miter;stroke-miterlimit:4;stroke-opacity:1;stroke-dasharray:none;marker-end:url(#Arrow1Mend)"
       d="m 395.99014,585.95768 c 0.46922,-12.1807 8.76168,-20.44976 17.62171,-28.43505"
       id="path4670"
       inkscape:connector-curvature="0"
       sodipodi:nodetypes="cc" />
    <g
       style="font-size:6.3907876px;font-style:normal;font-variant:normal;font-weight:normal;font-stretch:normal;text-align:start;line-height:125%;letter-spacing:0px;word-spacing:0px;writing-mode:lr-tb;text-anchor:start;fill:#000000;fill-opacity:1;stroke:none;font-family:DejaVu Sans Mono;-inkscape-font-specification:DejaVu Sans Mono"
       id="text5044"
       transform="matrix(1.4130169,0,0,1.4130169,-145.19404,-221.17177)">
      <path
         d="m 373.82633,574.20963 0.59602,0 1.01416,2.93327 1.01728,-2.93327 0.59602,0 -1.24196,3.49496 -0.73956,0 -1.24196,-3.49496"
         id="path5393"
         inkscape:connector-curvature="0" />
      <path
         d="m 380.82874,575.81357 0,0.28084 -2.48704,0 0,0.0187 c 0,0.38071 0.0988,0.67507 0.29645,0.88311 0.19971,0.20803 0.48055,0.31205 0.84253,0.31205 0.18307,0 0.37446,-0.0291 0.57417,-0.0874 0.19971,-0.0583 0.41295,-0.14666 0.63971,-0.26524 l 0,0.57105 c -0.21844,0.0895 -0.4296,0.15603 -0.63347,0.19971 -0.20179,0.0458 -0.39734,0.0686 -0.58665,0.0686 -0.54297,0 -0.96736,-0.16226 -1.27316,-0.48679 -0.30581,-0.32662 -0.45872,-0.77597 -0.45872,-1.34806 0,-0.55753 0.14979,-1.00272 0.44935,-1.33558 0.29957,-0.33285 0.699,-0.49927 1.19828,-0.49928 0.44519,10e-6 0.79572,0.15083 1.05161,0.45248 0.25795,0.30165 0.38693,0.71355 0.38694,1.23572 m -0.57417,-0.16851 c -0.008,-0.33701 -0.0884,-0.59289 -0.24028,-0.76764 -0.14979,-0.17683 -0.36614,-0.26524 -0.64907,-0.26525 -0.27668,10e-6 -0.50448,0.0915 -0.68339,0.27461 -0.17891,0.18307 -0.285,0.43687 -0.31829,0.7614 l 1.89103,-0.003"
         id="path5395"
         inkscape:connector-curvature="0" />
      <path
         d="m 384.51405,577.52672 c -0.15395,0.0895 -0.31309,0.15603 -0.47744,0.19971 -0.16226,0.0458 -0.32869,0.0686 -0.49928,0.0686 -0.54089,0 -0.96423,-0.16226 -1.27004,-0.48679 -0.30373,-0.32454 -0.45559,-0.77389 -0.45559,-1.34806 0,-0.57417 0.15186,-1.02352 0.45559,-1.34806 0.30581,-0.32453 0.72915,-0.48679 1.27004,-0.4868 0.16851,10e-6 0.33285,0.0218 0.49304,0.0655 0.16019,0.0437 0.32141,0.11131 0.48368,0.20284 l 0,0.60225 c -0.15187,-0.13521 -0.30477,-0.23299 -0.45871,-0.29332 -0.15187,-0.0603 -0.32454,-0.0905 -0.51801,-0.0905 -0.3599,1e-5 -0.63658,0.1165 -0.83005,0.3495 -0.19347,0.233 -0.29021,0.56585 -0.29021,0.99856 0,0.43063 0.0967,0.76348 0.29021,0.99856 0.19555,0.233 0.47223,0.3495 0.83005,0.3495 0.19971,0 0.37862,-0.0302 0.53673,-0.0905 0.1581,-0.0624 0.30477,-0.1581 0.43999,-0.28708 l 0,0.59601"
         id="path5397"
         inkscape:connector-curvature="0" />
      <path
         d="m 386.96365,573.21731 0,0.99232 1.30436,0 0,0.44623 -1.30436,0 0,1.89726 c -10e-6,0.25797 0.0489,0.43792 0.14666,0.53985 0.0978,0.10194 0.26836,0.15291 0.51176,0.15291 l 0.64594,0 0,0.45871 -0.70211,0 c -0.43063,0 -0.73436,-0.0863 -0.91118,-0.259 -0.17683,-0.17267 -0.26525,-0.47016 -0.26525,-0.89247 l 0,-1.89726 -0.93303,0 0,-0.44623 0.93303,0 0,-0.99232 0.57418,0"
         id="path5399"
         inkscape:connector-curvature="0" />
      <path
         d="m 390.81434,574.61217 c -0.29124,10e-6 -0.51176,0.11338 -0.66154,0.34014 -0.14979,0.22676 -0.22468,0.56273 -0.22468,1.00792 0,0.44311 0.0749,0.77909 0.22468,1.00792 0.14978,0.22676 0.3703,0.34014 0.66154,0.34014 0.29333,0 0.51488,-0.11338 0.66467,-0.34014 0.14978,-0.22883 0.22467,-0.56481 0.22468,-1.00792 -10e-6,-0.44519 -0.0749,-0.78116 -0.22468,-1.00792 -0.14979,-0.22676 -0.37134,-0.34013 -0.66467,-0.34014 m 0,-0.4868 c 0.48472,10e-6 0.85502,0.15707 1.1109,0.4712 0.25796,0.31413 0.38694,0.76869 0.38694,1.36366 0,0.59706 -0.12794,1.05265 -0.38382,1.36678 -0.25588,0.31205 -0.62722,0.46807 -1.11402,0.46807 -0.48472,0 -0.85501,-0.15602 -1.11089,-0.46807 -0.25589,-0.31413 -0.38383,-0.76972 -0.38383,-1.36678 0,-0.59497 0.12794,-1.04953 0.38383,-1.36366 0.25588,-0.31413 0.62617,-0.47119 1.11089,-0.4712"
         id="path5401"
         inkscape:connector-curvature="0" />
      <path
         d="m 396.34075,574.93046 c -0.12274,-0.0957 -0.24756,-0.16538 -0.37446,-0.20907 -0.1269,-0.0437 -0.26628,-0.0655 -0.41815,-0.0655 -0.35782,0 -0.63138,0.11234 -0.82069,0.33701 -0.18931,0.22468 -0.28396,0.54921 -0.28396,0.9736 l 0,1.73812 -0.5773,0 0,-3.49496 0.5773,0 0,0.68339 c 0.0957,-0.24756 0.24235,-0.43687 0.43999,-0.56793 0.19971,-0.13314 0.43582,-0.19971 0.70835,-0.19972 0.14146,10e-6 0.27356,0.0177 0.39631,0.053 0.12273,0.0354 0.24027,0.0905 0.35261,0.16539 l 0,0.58665"
         id="path5403"
         inkscape:connector-curvature="0" />
      <path
         d="m 376.55053,582.31981 0,0.56169 c -0.16435,-0.0957 -0.32974,-0.16746 -0.49616,-0.21531 -0.16643,-0.0479 -0.33598,-0.0718 -0.50864,-0.0718 -0.26004,0 -0.45456,0.0426 -0.58353,0.12794 -0.12691,0.0832 -0.19036,0.21115 -0.19036,0.38382 0,0.15603 0.0478,0.27252 0.14355,0.34949 0.0957,0.077 0.33389,0.15187 0.71459,0.22468 l 0.23092,0.0437 c 0.285,0.0541 0.50032,0.16227 0.64594,0.32453 0.1477,0.16227 0.22156,0.37342 0.22156,0.63346 0,0.34534 -0.12274,0.61578 -0.36822,0.81133 -0.24548,0.19347 -0.58666,0.29021 -1.02352,0.29021 -0.17267,0 -0.35366,-0.0187 -0.54297,-0.0562 -0.18931,-0.0354 -0.39423,-0.0894 -0.61474,-0.16227 l 0,-0.59289 c 0.21427,0.11026 0.41919,0.19347 0.61474,0.24964 0.19555,0.0541 0.3807,0.0811 0.55545,0.0811 0.2538,0 0.45039,-0.051 0.58977,-0.1529 0.13938,-0.10402 0.20907,-0.2486 0.20908,-0.43375 -10e-6,-0.26628 -0.25485,-0.45039 -0.76453,-0.55233 l -0.025,-0.006 -0.21532,-0.0437 c -0.33077,-0.0645 -0.57209,-0.17267 -0.72395,-0.32453 -0.15187,-0.15394 -0.2278,-0.36302 -0.2278,-0.62722 0,-0.33493 0.11338,-0.59289 0.34014,-0.77389 0.22675,-0.18306 0.55024,-0.2746 0.97047,-0.2746 0.18723,0 0.36718,0.0177 0.53985,0.053 0.17266,0.0333 0.34221,0.0842 0.50864,0.1529"
         id="path5405"
         inkscape:connector-curvature="0" />
      <path
         d="m 378.52893,585.25308 0,1.76933 -0.57729,0 0,-4.8243 0.57729,0 0,0.44623 c 0.0957,-0.17266 0.22259,-0.30372 0.3807,-0.39318 0.16018,-0.0915 0.34429,-0.1373 0.55233,-0.1373 0.4223,0 0.75308,0.16331 0.99232,0.48992 0.24131,0.32661 0.36197,0.77909 0.36198,1.35742 -10e-6,0.56793 -0.12067,1.01416 -0.36198,1.33869 -0.24132,0.32245 -0.5721,0.48368 -0.99232,0.48368 -0.2122,0 -0.39839,-0.0447 -0.55857,-0.13418 -0.15811,-0.0915 -0.28293,-0.22364 -0.37446,-0.39631 m 1.68507,-1.30437 c 0,-0.44519 -0.0707,-0.78116 -0.21219,-1.00792 -0.13939,-0.22675 -0.34742,-0.34013 -0.62411,-0.34013 -0.27876,0 -0.48992,0.11442 -0.63346,0.34325 -0.14354,0.22676 -0.21531,0.56169 -0.21531,1.0048 0,0.44104 0.0718,0.77597 0.21531,1.00481 0.14354,0.22883 0.3547,0.34325 0.63346,0.34325 0.27669,0 0.48472,-0.11338 0.62411,-0.34013 0.14146,-0.22676 0.21219,-0.56273 0.21219,-1.00793"
         id="path5407"
         inkscape:connector-curvature="0" />
      <path
         d="m 383.39379,583.93623 -0.19035,0 c -0.33494,0 -0.5877,0.0593 -0.75828,0.17787 -0.16851,0.1165 -0.25276,0.29125 -0.25276,0.52424 0,0.21012 0.0634,0.37343 0.19035,0.48992 0.1269,0.1165 0.30269,0.17475 0.52736,0.17475 0.31621,0 0.56481,-0.10922 0.7458,-0.32765 0.18099,-0.22052 0.27252,-0.52424 0.27461,-0.91119 l 0,-0.12794 -0.53673,0 m 1.11402,-0.23716 0,1.994 -0.57729,0 0,-0.518 c -0.12275,0.20803 -0.27773,0.36198 -0.46496,0.46184 -0.18515,0.0978 -0.41087,0.14666 -0.67715,0.14666 -0.35574,0 -0.6397,-0.0999 -0.85189,-0.29957 -0.2122,-0.20179 -0.3183,-0.47119 -0.31829,-0.80821 -10e-6,-0.38902 0.13002,-0.68443 0.39006,-0.88622 0.26212,-0.20179 0.64594,-0.30269 1.15146,-0.30269 l 0.77077,0 0,-0.0905 c -0.002,-0.27877 -0.0728,-0.48056 -0.2122,-0.60538 -0.13938,-0.1269 -0.36198,-0.19035 -0.66778,-0.19035 -0.19556,0 -0.39319,0.0281 -0.5929,0.0842 -0.19971,0.0562 -0.39422,0.13835 -0.58353,0.24652 l 0,-0.57417 c 0.21219,-0.0811 0.41502,-0.14146 0.60849,-0.18099 0.19555,-0.0416 0.38486,-0.0624 0.56794,-0.0624 0.28916,0 0.53568,0.0426 0.73955,0.12794 0.20595,0.0853 0.37238,0.21324 0.49928,0.38382 0.079,0.10402 0.13522,0.233 0.16851,0.38694 0.0333,0.15187 0.0499,0.38071 0.0499,0.68651"
         id="path5409"
         inkscape:connector-curvature="0" />
      <path
         d="m 388.35851,585.51521 c -0.15395,0.0894 -0.31309,0.15602 -0.47744,0.19971 -0.16227,0.0458 -0.32869,0.0687 -0.49928,0.0687 -0.54089,0 -0.96423,-0.16227 -1.27004,-0.4868 -0.30373,-0.32453 -0.4556,-0.77388 -0.4556,-1.34806 0,-0.57417 0.15187,-1.02352 0.4556,-1.34805 0.30581,-0.32453 0.72915,-0.4868 1.27004,-0.4868 0.16851,0 0.33285,0.0218 0.49304,0.0655 0.16018,0.0437 0.32141,0.1113 0.48368,0.20283 l 0,0.60226 c -0.15187,-0.13522 -0.30477,-0.233 -0.45871,-0.29333 -0.15187,-0.0603 -0.32454,-0.0905 -0.51801,-0.0905 -0.3599,0 -0.63658,0.1165 -0.83005,0.34949 -0.19347,0.233 -0.29021,0.56586 -0.29021,0.99856 0,0.43063 0.0967,0.76349 0.29021,0.99856 0.19555,0.233 0.47223,0.3495 0.83005,0.3495 0.19971,0 0.37862,-0.0302 0.53673,-0.0905 0.1581,-0.0624 0.30476,-0.15811 0.43999,-0.28709 l 0,0.59602"
         id="path5411"
         inkscape:connector-curvature="0" />
      <path
         d="m 392.36211,583.80205 0,0.28085 -2.48704,0 0,0.0187 c 0,0.3807 0.0988,0.67507 0.29645,0.8831 0.19971,0.20803 0.48056,0.31205 0.84254,0.31205 0.18306,0 0.37445,-0.0291 0.57417,-0.0874 0.19971,-0.0582 0.41294,-0.14667 0.6397,-0.26525 l 0,0.57106 c -0.21844,0.0894 -0.42959,0.15602 -0.63346,0.19971 -0.2018,0.0458 -0.39735,0.0687 -0.58666,0.0687 -0.54296,0 -0.96735,-0.16227 -1.27316,-0.4868 -0.30581,-0.32661 -0.45871,-0.77596 -0.45871,-1.34806 0,-0.55752 0.14978,-1.00271 0.44935,-1.33557 0.29957,-0.33285 0.69899,-0.49928 1.19827,-0.49928 0.44519,0 0.79573,0.15083 1.05161,0.45247 0.25796,0.30165 0.38694,0.71356 0.38694,1.23572 m -0.57417,-0.16851 c -0.008,-0.33701 -0.0884,-0.59289 -0.24028,-0.76764 -0.14978,-0.17683 -0.36614,-0.26524 -0.64906,-0.26524 -0.27669,0 -0.50449,0.0915 -0.68339,0.2746 -0.17891,0.18307 -0.28501,0.43687 -0.31829,0.7614 l 1.89102,-0.003"
         id="path5413"
         inkscape:connector-curvature="0" />
    </g>
    <path
       style="fill:none;stroke:#000000;stroke-width:0.560691;stroke-linecap:butt;stroke-linejoin:miter;stroke-miterlimit:4;stroke-opacity:1;stroke-dasharray:none;marker-end:url(#Arrow1Mend)"
       d="m 501.72044,518.67475 c -12.74625,-1.46476 -19.12755,5.5571 -25.63159,12.4153"
       id="path5050"
       inkscape:connector-curvature="0"
       sodipodi:nodetypes="cc" />
    <g
       style="font-size:7.20892954px;font-style:normal;font-variant:normal;font-weight:normal;font-stretch:normal;text-align:start;line-height:125%;letter-spacing:0px;word-spacing:0px;writing-mode:lr-tb;text-anchor:start;fill:#000000;fill-opacity:1;stroke:none;font-family:DejaVu Sans Mono;-inkscape-font-specification:DejaVu Sans Mono"
       id="text5238"
       transform="matrix(1.2477477,0,0,1.2477477,-97.12587,-117.36027)">
      <path
         d="m 484.35427,504.88711 -0.21472,0 c -0.37781,10e-6 -0.66293,0.0669 -0.85536,0.20064 -0.19008,0.13142 -0.28512,0.32854 -0.28511,0.59136 -10e-6,0.23701 0.0716,0.42123 0.21471,0.55264 0.14315,0.13141 0.34144,0.19712 0.59488,0.19712 0.35669,0 0.63712,-0.1232 0.84128,-0.3696 0.20415,-0.24875 0.30741,-0.59136 0.30976,-1.02784 l 0,-0.14432 -0.60544,0 m 1.25663,-0.26751 0,2.24927 -0.65119,0 0,-0.58432 c -0.13846,0.23466 -0.31328,0.40832 -0.52448,0.52096 -0.20886,0.11029 -0.46347,0.16544 -0.76384,0.16544 -0.40128,0 -0.7216,-0.11264 -0.96095,-0.33792 -0.23936,-0.22763 -0.35904,-0.53152 -0.35904,-0.91168 0,-0.43882 0.14666,-0.77205 0.44,-0.99967 0.29567,-0.22763 0.72863,-0.34144 1.29887,-0.34144 l 0.86944,0 0,-0.10208 c -0.002,-0.31445 -0.0821,-0.54208 -0.23936,-0.68288 -0.15723,-0.14314 -0.40832,-0.21472 -0.75328,-0.21472 -0.22059,0 -0.44352,0.0317 -0.6688,0.095 -0.22528,0.0634 -0.44469,0.15606 -0.65823,0.27808 l 0,-0.64768 c 0.23935,-0.0915 0.46815,-0.15957 0.68639,-0.20416 0.22059,-0.0469 0.43413,-0.0704 0.64064,-0.0704 0.32618,1e-5 0.60426,0.0481 0.83424,0.14432 0.23231,0.0962 0.42005,0.24054 0.5632,0.43296 0.0892,0.11734 0.15252,0.26283 0.19007,0.43648 0.0376,0.17131 0.0563,0.42944 0.0563,0.7744"
         id="path5370"
         inkscape:connector-curvature="0" />
      <path
         d="m 489.96161,501.39177 0,0.53856 -0.73568,0 c -0.23232,0 -0.39424,0.0481 -0.48576,0.14432 -0.0892,0.0939 -0.13376,0.26165 -0.13376,0.50335 l 0,0.34848 1.3552,0 0,0.50336 -1.3552,0 0,3.43903 -0.64768,0 0,-3.43903 -1.05247,0 0,-0.50336 1.05247,0 0,-0.27456 c 0,-0.43178 0.0986,-0.74975 0.29568,-0.95391 0.19947,-0.20416 0.50922,-0.30624 0.92928,-0.30624 l 0.77792,0"
         id="path5372"
         inkscape:connector-curvature="0" />
      <path
         d="m 494.29823,501.39177 0,0.53856 -0.73568,0 c -0.23232,0 -0.39424,0.0481 -0.48576,0.14432 -0.0892,0.0939 -0.13376,0.26165 -0.13376,0.50335 l 0,0.34848 1.3552,0 0,0.50336 -1.3552,0 0,3.43903 -0.64767,0 0,-3.43903 -1.05248,0 0,-0.50336 1.05248,0 0,-0.27456 c -1e-5,-0.43178 0.0985,-0.74975 0.29567,-0.95391 0.19947,-0.20416 0.50923,-0.30624 0.92928,-0.30624 l 0.77792,0"
         id="path5374"
         inkscape:connector-curvature="0" />
      <path
         d="m 495.79422,502.92648 1.65791,0 0,3.43903 1.2848,0 0,0.50336 -3.21727,0 0,-0.50336 1.2848,0 0,-2.93567 -1.01024,0 0,-0.50336 m 1.01024,-1.53471 0.64767,0 0,0.82016 -0.64767,0 0,-0.82016"
         id="path5376"
         inkscape:connector-curvature="0" />
      <path
         d="m 502.92923,504.426 0,2.44287 -0.6512,0 0,-2.44287 c 0,-0.35435 -0.0622,-0.61482 -0.18656,-0.78144 -0.12437,-0.16661 -0.31914,-0.24992 -0.58431,-0.24992 -0.30272,0 -0.53622,0.10795 -0.70048,0.32384 -0.16192,0.21355 -0.24288,0.52096 -0.24288,0.92224 l 0,2.22815 -0.64768,0 0,-3.94239 0.64768,0 0,0.59136 c 0.11499,-0.22528 0.27104,-0.39541 0.46816,-0.5104 0.19712,-0.11733 0.43061,-0.17599 0.70048,-0.176 0.40127,1e-5 0.70047,0.13259 0.89759,0.39776 0.19946,0.26283 0.2992,0.66176 0.2992,1.1968"
         id="path5378"
         inkscape:connector-curvature="0" />
      <path
         d="m 507.48057,504.73575 0,0.3168 -2.80543,0 0,0.0211 c 0,0.42944 0.11147,0.76149 0.3344,0.99616 0.22528,0.23467 0.54208,0.352 0.9504,0.352 0.2065,0 0.42239,-0.0328 0.64768,-0.0986 0.22527,-0.0657 0.4658,-0.16544 0.72159,-0.2992 l 0,0.64416 c -0.2464,0.1009 -0.48458,0.176 -0.71455,0.22528 -0.22763,0.0516 -0.44822,0.0774 -0.66176,0.0774 -0.61248,0 -1.0912,-0.18304 -1.43615,-0.54912 -0.34496,-0.36843 -0.51744,-0.8753 -0.51744,-1.52064 0,-0.6289 0.16896,-1.13108 0.50688,-1.50655 0.33791,-0.37546 0.78847,-0.56319 1.35167,-0.5632 0.50218,10e-6 0.89759,0.17014 1.18623,0.5104 0.29099,0.34027 0.43648,0.80491 0.43648,1.39391 m -0.64767,-0.19007 c -0.009,-0.38016 -0.0997,-0.6688 -0.27104,-0.86592 -0.16897,-0.19946 -0.41302,-0.2992 -0.73216,-0.2992 -0.31211,0 -0.56907,0.10326 -0.77088,0.30976 -0.20181,0.20651 -0.32149,0.4928 -0.35904,0.85888 l 2.13312,-0.004"
         id="path5380"
         inkscape:connector-curvature="0" />
      <path
         d="m 485.30819,512.07492 0,0.6336 c -0.18539,-0.10794 -0.37195,-0.1889 -0.55968,-0.24288 -0.18774,-0.054 -0.37899,-0.081 -0.57376,-0.081 -0.29333,10e-6 -0.51275,0.0481 -0.65824,0.14432 -0.14314,0.0939 -0.21472,0.23819 -0.21472,0.43296 0,0.176 0.054,0.30741 0.16192,0.39424 0.10795,0.0868 0.37664,0.17131 0.80608,0.25344 l 0.26048,0.0493 c 0.32149,0.061 0.56437,0.18304 0.72864,0.36608 0.1666,0.18304 0.24991,0.42122 0.24991,0.71455 0,0.38955 -0.13845,0.69461 -0.41535,0.9152 -0.27691,0.21824 -0.66176,0.32736 -1.15456,0.32736 -0.19477,0 -0.39893,-0.0211 -0.61248,-0.0634 -0.21354,-0.0399 -0.44469,-0.10091 -0.69343,-0.18304 l 0,-0.6688 c 0.2417,0.12437 0.47285,0.21824 0.69343,0.2816 0.22059,0.061 0.42944,0.0915 0.62656,0.0915 0.28629,0 0.50805,-0.0575 0.66528,-0.17248 0.15722,-0.11733 0.23583,-0.28042 0.23584,-0.48928 -10e-6,-0.30037 -0.28747,-0.50805 -0.8624,-0.62303 l -0.0282,-0.007 -0.24288,-0.0493 c -0.37312,-0.0728 -0.64533,-0.19478 -0.81663,-0.36608 -0.17131,-0.17365 -0.25696,-0.40949 -0.25696,-0.70752 0,-0.37781 0.12789,-0.66879 0.38367,-0.87296 0.25579,-0.2065 0.62069,-0.30975 1.09472,-0.30976 0.2112,1e-5 0.41418,0.02 0.60896,0.0598 0.19477,0.0376 0.38602,0.0951 0.57376,0.17248"
         id="path5382"
         inkscape:connector-curvature="0" />
      <path
         d="m 487.53986,515.38371 0,1.99583 -0.6512,0 0,-5.4419 0.6512,0 0,0.50336 c 0.10794,-0.19477 0.25109,-0.34261 0.42943,-0.44352 0.18069,-0.10324 0.38837,-0.15487 0.62304,-0.15488 0.47637,10e-6 0.84949,0.18422 1.11936,0.55264 0.27221,0.36843 0.40831,0.87883 0.40832,1.5312 -10e-6,0.64063 -0.13611,1.14399 -0.40832,1.51007 -0.27222,0.36373 -0.64534,0.5456 -1.11936,0.5456 -0.23936,0 -0.44939,-0.0505 -0.63008,-0.15136 -0.17834,-0.10325 -0.31914,-0.25227 -0.42239,-0.44704 m 1.90079,-1.47135 c -1e-5,-0.50219 -0.0798,-0.88117 -0.23936,-1.13696 -0.15723,-0.25578 -0.3919,-0.38367 -0.704,-0.38368 -0.31445,1e-5 -0.55264,0.12907 -0.71456,0.3872 -0.16192,0.25579 -0.24288,0.6336 -0.24287,1.13344 -10e-6,0.49749 0.081,0.8753 0.24287,1.13343 0.16192,0.25813 0.40011,0.3872 0.71456,0.3872 0.3121,0 0.54677,-0.12789 0.704,-0.38368 0.15957,-0.25578 0.23935,-0.63477 0.23936,-1.13695"
         id="path5384"
         inkscape:connector-curvature="0" />
      <path
         d="m 493.02751,513.89828 -0.21472,0 c -0.37781,0 -0.66293,0.0669 -0.85535,0.20064 -0.19008,0.13141 -0.28512,0.32853 -0.28512,0.59135 0,0.23702 0.0716,0.42123 0.21472,0.55264 0.14314,0.13141 0.34143,0.19712 0.59488,0.19712 0.35668,0 0.63711,-0.1232 0.84127,-0.3696 0.20416,-0.24874 0.30741,-0.59135 0.30976,-1.02783 l 0,-0.14432 -0.60544,0 m 1.25664,-0.26752 0,2.24927 -0.6512,0 0,-0.58432 c -0.13846,0.23467 -0.31328,0.40832 -0.52448,0.52096 -0.20885,0.11029 -0.46346,0.16544 -0.76383,0.16544 -0.40128,0 -0.7216,-0.11264 -0.96096,-0.33792 -0.23936,-0.22763 -0.35904,-0.53152 -0.35904,-0.91168 0,-0.43882 0.14667,-0.77205 0.44,-0.99967 0.29568,-0.22763 0.72863,-0.34144 1.29887,-0.34144 l 0.86944,0 0,-0.10208 c -0.002,-0.31445 -0.0821,-0.54208 -0.23936,-0.68288 -0.15723,-0.14314 -0.40832,-0.21471 -0.75328,-0.21472 -0.22058,1e-5 -0.44352,0.0317 -0.66879,0.095 -0.22528,0.0634 -0.4447,0.15606 -0.65824,0.27808 l 0,-0.64768 c 0.23936,-0.0915 0.46816,-0.15956 0.6864,-0.20416 0.22058,-0.0469 0.43413,-0.0704 0.64063,-0.0704 0.32619,1e-5 0.60427,0.0481 0.83424,0.14432 0.23232,0.0962 0.42005,0.24054 0.5632,0.43296 0.0892,0.11734 0.15253,0.26283 0.19008,0.43648 0.0375,0.17131 0.0563,0.42944 0.0563,0.7744"
         id="path5386"
         inkscape:connector-curvature="0" />
      <path
         d="m 498.62781,515.67939 c -0.17366,0.10091 -0.35318,0.176 -0.53856,0.22528 -0.18304,0.0516 -0.37077,0.0774 -0.5632,0.0774 -0.61013,0 -1.08767,-0.18304 -1.43263,-0.54912 -0.34261,-0.36608 -0.51392,-0.87296 -0.51392,-1.52063 0,-0.64768 0.17131,-1.15456 0.51392,-1.52064 0.34496,-0.36607 0.8225,-0.54911 1.43263,-0.54912 0.19008,1e-5 0.37547,0.0247 0.55616,0.0739 0.18069,0.0493 0.36256,0.12555 0.5456,0.2288 l 0,0.67936 c -0.17131,-0.15253 -0.34379,-0.26282 -0.51744,-0.33088 -0.17131,-0.068 -0.36608,-0.10207 -0.58432,-0.10208 -0.40597,10e-6 -0.71808,0.13142 -0.93631,0.39424 -0.21824,0.26283 -0.32736,0.63829 -0.32736,1.1264 0,0.48576 0.10912,0.86122 0.32736,1.12639 0.22058,0.26283 0.53269,0.39424 0.93631,0.39424 0.22528,0 0.42709,-0.034 0.60544,-0.10208 0.17834,-0.0704 0.34378,-0.17834 0.49632,-0.32384 l 0,0.67232"
         id="path5388"
         inkscape:connector-curvature="0" />
      <path
         d="m 503.14395,513.74692 0,0.3168 -2.80543,0 0,0.0211 c 0,0.42944 0.11147,0.76149 0.3344,0.99615 0.22528,0.23467 0.54208,0.352 0.9504,0.352 0.2065,0 0.42239,-0.0329 0.64767,-0.0986 0.22528,-0.0657 0.46581,-0.16544 0.7216,-0.2992 l 0,0.64416 c -0.2464,0.10091 -0.48459,0.176 -0.71456,0.22528 -0.22762,0.0516 -0.44821,0.0774 -0.66175,0.0774 -0.61248,0 -1.0912,-0.18304 -1.43616,-0.54912 -0.34496,-0.36842 -0.51744,-0.8753 -0.51744,-1.52063 0,-0.62891 0.16896,-1.13109 0.50688,-1.50656 0.33792,-0.37546 0.78848,-0.56319 1.35168,-0.5632 0.50218,1e-5 0.89759,0.17014 1.18623,0.5104 0.29098,0.34027 0.43648,0.80491 0.43648,1.39392 m -0.64768,-0.19008 c -0.009,-0.38016 -0.0997,-0.6688 -0.27104,-0.86592 -0.16896,-0.19946 -0.41301,-0.29919 -0.73215,-0.2992 -0.31211,10e-6 -0.56907,0.10326 -0.77088,0.30976 -0.20181,0.20651 -0.32149,0.4928 -0.35904,0.85888 l 2.13311,-0.004"
         id="path5390"
         inkscape:connector-curvature="0" />
    </g>
    <g
       transform="matrix(0.83887745,0,0,0.83887745,361.61058,371.58045)"
       id="g5270">
      <g
         style="font-style:normal;font-variant:normal;font-weight:normal;font-stretch:normal;letter-spacing:normal;word-spacing:normal;text-anchor:start;fill:none;stroke:#000000;stroke-linecap:butt;stroke-linejoin:miter;stroke-miterlimit:10.43299961;stroke-opacity:1;stroke-dasharray:none;stroke-dashoffset:0"
         id="content"
         transform="matrix(0.31793081,0,0,-0.31793081,-55.637892,223.53071)"
         xml:space="preserve"
         stroke-miterlimit="10.433"
         font-style="normal"
         font-variant="normal"
         font-weight="normal"
         font-stretch="normal"
         font-size-adjust="none"
         letter-spacing="normal"
         word-spacing="normal"><path
           style="fill:#000000;stroke-width:0"
           inkscape:connector-curvature="0"
           d="m 472.16,421.25 0.03,0.13 0.04,0.15 0.04,0.16 0.04,0.18 0.06,0.19 0.06,0.21 0.06,0.22 0.07,0.22 0.08,0.23 0.09,0.24 0.1,0.25 0.1,0.24 0.11,0.25 0.12,0.25 0.13,0.25 0.14,0.25 0.15,0.24 0.15,0.24 0.17,0.23 0.18,0.22 0.18,0.22 0.2,0.2 0.21,0.19 0.22,0.18 0.23,0.16 0.25,0.14 0.12,0.07 0.13,0.06 0.14,0.05 0.13,0.05 0.14,0.05 0.14,0.04 0.15,0.03 0.15,0.03 0.15,0.02 0.16,0.02 0.16,0.01 0.16,0 c 0.25,0 1.44,0 2.48,-0.64 -1.39,-0.25 -2.39,-1.5 -2.39,-2.69 0,-0.79 0.55,-1.75 1.89,-1.75 1.1,0 2.69,0.89 2.69,2.89 0,2.6 -2.94,3.28 -4.63,3.28 -2.89,0 -4.64,-2.64 -5.23,-3.78 -1.25,3.28 -3.94,3.78 -5.37,3.78 -5.19,0 -8.04,-6.42 -8.04,-7.67 0,-0.5 0.5,-0.5 0.61,-0.5 0.39,0 0.55,0.11 0.64,0.55 1.69,5.28 4.99,6.53 6.68,6.53 0.95,0 2.68,-0.44 2.68,-3.33 0,-1.54 -0.84,-4.89 -2.68,-11.86 -0.8,-3.09 -2.54,-5.18 -4.74,-5.18 -0.3,0 -1.44,0 -2.48,0.65 1.25,0.24 2.34,1.28 2.34,2.69 0,1.34 -1.09,1.73 -1.84,1.73 -1.5,0 -2.75,-1.29 -2.75,-2.89 0,-2.28 2.5,-3.28 4.68,-3.28 3.3,0 5.08,3.49 5.24,3.78 0.59,-1.84 2.39,-3.78 5.37,-3.78 5.14,0 7.99,6.42 7.99,7.67 0,0.5 -0.45,0.5 -0.61,0.5 -0.44,0 -0.55,-0.2 -0.64,-0.54 -1.64,-5.33 -5.03,-6.53 -6.63,-6.53 -1.95,0 -2.75,1.59 -2.75,3.29 0,1.1 0.3,2.19 0.86,4.38 z"
           id="path5273" /><path
           style="fill:#000000;stroke-width:0"
           inkscape:connector-curvature="0"
           d="m 501.55,405.11 h -1.18 c -0.1,-0.77 -0.46,-2.83 -0.91,-3.18 -0.26,-0.2 -2.95,-0.2 -3.44,-0.2 h -6.42 c 3.66,3.23 4.88,4.2 6.97,5.84 2.58,2.07 4.98,4.22 4.98,7.54 0,4.21 -3.68,6.79 -8.15,6.79 -4.31,0 -7.25,-3.03 -7.25,-6.23 0,-1.78 1.5,-1.96 1.86,-1.96 0.83,0 1.84,0.6 1.84,1.85 0,0.62 -0.25,1.84 -2.06,1.84 1.08,2.47 3.45,3.24 5.09,3.24 3.49,0 5.3,-2.71 5.3,-5.53 0,-3.04 -2.16,-5.44 -3.28,-6.69 l -8.39,-8.3 c -0.36,-0.31 -0.36,-0.39 -0.36,-1.36 h 14.36 z"
           id="path5275" /></g>    </g>
    <g
       id="g5331"
       transform="matrix(0.35767018,0,0,0.35767018,499.21434,520.51035)">
      <g
         word-spacing="normal"
         letter-spacing="normal"
         font-size-adjust="none"
         font-stretch="normal"
         font-weight="normal"
         font-variant="normal"
         font-style="normal"
         stroke-miterlimit="10.433"
         xml:space="preserve"
         transform="matrix(0.67665039,0,0,-0.67665039,-118.41382,439.47093)"
         id="g5333"
         style="font-style:normal;font-variant:normal;font-weight:normal;font-stretch:normal;letter-spacing:normal;word-spacing:normal;text-anchor:start;fill:none;stroke:#000000;stroke-linecap:butt;stroke-linejoin:miter;stroke-miterlimit:10.43299961;stroke-opacity:1;stroke-dasharray:none;stroke-dashoffset:0"><path
           id="path5335"
           d="m 472.16,421.25 0.03,0.13 0.04,0.15 0.04,0.16 0.04,0.18 0.06,0.19 0.06,0.21 0.06,0.22 0.07,0.22 0.08,0.23 0.09,0.24 0.1,0.25 0.1,0.24 0.11,0.25 0.12,0.25 0.13,0.25 0.14,0.25 0.15,0.24 0.15,0.24 0.17,0.23 0.18,0.22 0.18,0.22 0.2,0.2 0.21,0.19 0.22,0.18 0.23,0.16 0.25,0.14 0.12,0.07 0.13,0.06 0.14,0.05 0.13,0.05 0.14,0.05 0.14,0.04 0.15,0.03 0.15,0.03 0.15,0.02 0.16,0.02 0.16,0.01 0.16,0 c 0.25,0 1.44,0 2.48,-0.64 -1.39,-0.25 -2.39,-1.5 -2.39,-2.69 0,-0.79 0.55,-1.75 1.89,-1.75 1.1,0 2.69,0.89 2.69,2.89 0,2.6 -2.94,3.28 -4.63,3.28 -2.89,0 -4.64,-2.64 -5.23,-3.78 -1.25,3.28 -3.94,3.78 -5.37,3.78 -5.19,0 -8.04,-6.42 -8.04,-7.67 0,-0.5 0.5,-0.5 0.61,-0.5 0.39,0 0.55,0.11 0.64,0.55 1.69,5.28 4.99,6.53 6.68,6.53 0.95,0 2.68,-0.44 2.68,-3.33 0,-1.54 -0.84,-4.89 -2.68,-11.86 -0.8,-3.09 -2.54,-5.18 -4.74,-5.18 -0.3,0 -1.44,0 -2.48,0.65 1.25,0.24 2.34,1.28 2.34,2.69 0,1.34 -1.09,1.73 -1.84,1.73 -1.5,0 -2.75,-1.29 -2.75,-2.89 0,-2.28 2.5,-3.28 4.68,-3.28 3.3,0 5.08,3.49 5.24,3.78 0.59,-1.84 2.39,-3.78 5.37,-3.78 5.14,0 7.99,6.42 7.99,7.67 0,0.5 -0.45,0.5 -0.61,0.5 -0.44,0 -0.55,-0.2 -0.64,-0.54 -1.64,-5.33 -5.03,-6.53 -6.63,-6.53 -1.95,0 -2.75,1.59 -2.75,3.29 0,1.1 0.3,2.19 0.86,4.38 z"
           inkscape:connector-curvature="0"
           style="fill:#000000;stroke-width:0" /><path
           id="path5337"
           d="m 495.63,420.92 0,0.04 0,0.04 0,0.05 0,0.04 0,0.03 0,0.04 0,0.04 0,0.03 0,0.04 0,0.03 -0.01,0.03 0,0.03 0,0.03 -0.01,0.03 0,0.03 0,0.02 -0.01,0.03 0,0.02 -0.01,0.03 0,0.02 -0.01,0.04 -0.02,0.04 -0.02,0.03 -0.02,0.03 -0.02,0.03 -0.02,0.03 -0.03,0.02 -0.03,0.02 -0.03,0.02 -0.04,0.01 -0.04,0.01 -0.05,0.02 -0.02,0 -0.02,0 -0.03,0.01 -0.03,0 -0.02,0.01 -0.03,0 -0.03,0 -0.03,0 -0.03,0 -0.04,0.01 -0.03,0 -0.04,0 -0.03,0 -0.04,0 -0.04,0 -0.04,0 -0.04,0 -0.04,0 -0.05,0 -0.04,0 c -2.24,-2.2 -5.39,-2.23 -6.83,-2.23 v -1.25 c 0.84,0 3.14,0 5.04,0.97 v -17.77 c 0,-1.16 0,-1.61 -3.48,-1.61 h -1.31 v -1.25 c 0.62,0.03 4.9,0.14 6.2,0.14 1.08,0 5.47,-0.11 6.24,-0.14 v 1.25 h -1.33 c -3.49,0 -3.49,0.45 -3.49,1.61 z"
           inkscape:connector-curvature="0"
           style="fill:#000000;stroke-width:0" /></g>    </g>
  </g>
</svg>
