<?xml version="1.0" encoding="UTF-8" standalone="no"?>
<!-- Created with Inkscape (http://www.inkscape.org/) -->

<svg
   xmlns:dc="http://purl.org/dc/elements/1.1/"
   xmlns:cc="http://creativecommons.org/ns#"
   xmlns:rdf="http://www.w3.org/1999/02/22-rdf-syntax-ns#"
   xmlns:svg="http://www.w3.org/2000/svg"
   xmlns="http://www.w3.org/2000/svg"
   xmlns:sodipodi="http://sodipodi.sourceforge.net/DTD/sodipodi-0.dtd"
   xmlns:inkscape="http://www.inkscape.org/namespaces/inkscape"
   width="343.56131"
   height="267.77808"
   id="svg2"
   version="1.1"
   inkscape:version="0.48.4 r9939"
   sodipodi:docname="matrix.svg">
  <defs
     id="defs4">
    <marker
       inkscape:stockid="Arrow2Lend"
       orient="auto"
       refY="0"
       refX="0"
       id="Arrow2Lend"
       style="overflow:visible">
      <path
         id="path3792"
         style="fill-rule:evenodd;stroke-width:0.625;stroke-linejoin:round"
         d="M 8.7185878,4.0337352 -2.2072895,0.01601326 8.7185884,-4.0017078 c -1.7454984,2.3720609 -1.7354408,5.6174519 -6e-7,8.035443 z"
         transform="matrix(-1.1,0,0,-1.1,-1.1,0)"
         inkscape:connector-curvature="0" />
    </marker>
    <marker
       inkscape:stockid="Arrow1Mend"
       orient="auto"
       refY="0"
       refX="0"
       id="Arrow1Mend"
       style="overflow:visible">
      <path
         id="path3780"
         d="M 0,0 5,-5 -12.5,0 5,5 0,0 z"
         style="fill-rule:evenodd;stroke:#000000;stroke-width:1pt"
         transform="matrix(-0.4,0,0,-0.4,-4,0)"
         inkscape:connector-curvature="0" />
    </marker>
  </defs>
  <sodipodi:namedview
     id="base"
     pagecolor="#ffffff"
     bordercolor="#666666"
     borderopacity="1.0"
     inkscape:pageopacity="0.0"
     inkscape:pageshadow="2"
     inkscape:zoom="1.4"
     inkscape:cx="28.951704"
     inkscape:cy="161.9808"
     inkscape:document-units="px"
     inkscape:current-layer="layer1"
     showgrid="false"
     fit-margin-top="10"
     fit-margin-left="10"
     fit-margin-bottom="10"
     fit-margin-right="10"
     inkscape:window-width="1440"
     inkscape:window-height="839"
     inkscape:window-x="0"
     inkscape:window-y="22"
     inkscape:window-maximized="1" />
  <metadata
     id="metadata7">
    <rdf:RDF>
      <cc:Work
         rdf:about="">
        <dc:format>image/svg+xml</dc:format>
        <dc:type
           rdf:resource="http://purl.org/dc/dcmitype/StillImage" />
        <dc:title />
      </cc:Work>
    </rdf:RDF>
  </metadata>
  <g
     inkscape:label="Layer 1"
     inkscape:groupmode="layer"
     id="layer1"
     transform="translate(-110.74568,-110.28025)">
    <rect
       style="fill:#97d4e7;fill-opacity:0.57254902;stroke:#030333;stroke-width:0.257;stroke-linecap:square;stroke-linejoin:bevel;stroke-miterlimit:4;stroke-opacity:1;stroke-dasharray:none;stroke-dashoffset:0"
       id="rect2985"
       width="303.82758"
       height="226.71422"
       x="140.35092"
       y="141.21561" />
    <g
       style="font-size:20.63954926px;font-style:normal;font-variant:normal;font-weight:normal;font-stretch:normal;text-align:start;line-height:125%;letter-spacing:0px;word-spacing:0px;writing-mode:lr-tb;text-anchor:start;fill:#000000;fill-opacity:1;stroke:none;font-family:DejaVu Sans Mono;-inkscape-font-specification:DejaVu Sans Mono"
       id="text3755">
      <path
         d="m 154.93138,124.67422 4.7467,0 0,9.84611 3.67843,0 0,1.44114 -9.2112,0 0,-1.44114 3.67843,0 0,-8.40497 -2.89236,0 0,-1.44114 m 2.89236,-4.39397 1.85434,0 0,2.34815 -1.85434,0 0,-2.34815"
         style=""
         id="path3141" />
    </g>
    <path
       style="fill:none;stroke:#000000;stroke-width:1.07014525px;stroke-linecap:butt;stroke-linejoin:miter;stroke-opacity:1;marker-end:url(#Arrow1Mend)"
       d="m 169.62665,127.85894 32.10436,0"
       id="path3763"
       inkscape:connector-curvature="0" />
    <g
       style="font-size:20.63954926px;font-style:normal;font-variant:normal;font-weight:normal;font-stretch:normal;text-align:start;line-height:125%;letter-spacing:0px;word-spacing:0px;writing-mode:lr-tb;text-anchor:start;fill:#000000;fill-opacity:1;stroke:none;font-family:DejaVu Sans Mono;-inkscape-font-specification:DejaVu Sans Mono"
       id="text3759">
      <path
         d="m 124.91794,165.97423 0,-10.04767 -3.1947,0 0,-1.44114 5.04903,0 0,11.48881 c -1e-5,1.31013 -0.30234,2.31792 -0.90701,3.02337 -0.59796,0.71217 -1.45122,1.06826 -2.55979,1.06826 l -2.55979,0 0,-1.57215 2.35823,0 c 0.60467,0 1.05818,-0.21164 1.36052,-0.63491 0.30233,-0.41655 0.4535,-1.04474 0.45351,-1.88457 m 0,-15.88278 1.85433,0 0,2.34816 -1.85433,0 0,-2.34816"
         style=""
         id="path3144" />
    </g>
    <path
       style="fill:none;stroke:#000000;stroke-width:1.07014525px;stroke-linecap:butt;stroke-linejoin:miter;stroke-opacity:1;marker-end:url(#Arrow1Mend)"
       d="m 125.59781,171.42915 0,29.04679"
       id="path3765"
       inkscape:connector-curvature="0" />
    <rect
       style="fill:#1ec22a;fill-opacity:0.57254902;stroke:#030333;stroke-width:0.57832551;stroke-linecap:square;stroke-linejoin:bevel;stroke-miterlimit:4;stroke-opacity:1;stroke-dasharray:none;stroke-dashoffset:0"
       id="rect4771-6"
       width="16.527182"
       height="68.550034"
       x="362.54102"
       y="181.67387" />
    <rect
       style="fill:#1ec22a;fill-opacity:0.57254902;stroke:#030333;stroke-width:0.60900003;stroke-linecap:square;stroke-linejoin:bevel;stroke-miterlimit:4;stroke-opacity:1;stroke-dasharray:none;stroke-dashoffset:0"
       id="rect4771-6-4"
       width="76.095741"
       height="16.496744"
       x="286.2374"
       y="164.8093" />
    <g
       style="font-size:13.41953182px;font-style:normal;font-variant:normal;font-weight:normal;font-stretch:normal;text-align:start;line-height:125%;letter-spacing:0px;word-spacing:0px;writing-mode:lr-tb;text-anchor:start;fill:#000000;fill-opacity:1;stroke:none;font-family:DejaVu Sans Mono;-inkscape-font-specification:DejaVu Sans Mono"
       id="text4817">
      <path
         d="m 387.02285,166.44291 2.77827,0 0,0.93701 -1.5726,0 0,10.09086 1.5726,0 0,0.93701 -2.77827,0 0,-11.96488"
         style=""
         id="path3147" />
      <path
         d="m 393.73917,169.2998 3.08623,0 0,6.4018 2.39167,0 0,0.93701 -5.98899,0 0,-0.93701 2.39166,0 0,-5.46479 -1.88057,0 0,-0.93701 m 1.88057,-2.85689 1.20566,0 0,1.52674 -1.20566,0 0,-1.52674"
         style=""
         id="path3149" />
      <path
         d="m 403.42378,174.6532 1.65123,0 0,1.35637 -1.29085,2.50961 -1.00908,0 0.6487,-2.50961 0,-1.35637"
         style=""
         id="path3151" />
      <path
         d="m 412.13861,176.76966 0,-6.53285 -2.07715,0 0,-0.93701 3.28281,0 0,7.46986 c 0,0.85183 -0.19658,1.50708 -0.58973,1.96575 -0.38878,0.46304 -0.94356,0.69457 -1.66433,0.69457 l -1.66434,0 0,-1.02219 1.53329,0 c 0.39315,0 0.68801,-0.13761 0.88459,-0.41281 0.19657,-0.27084 0.29486,-0.67928 0.29486,-1.22532 m 0,-10.32675 1.20566,0 0,1.52674 -1.20566,0 0,-1.52674"
         style=""
         id="path3153" />
      <path
         d="m 421.32522,166.44291 0,11.96488 -2.77826,0 0,-0.93701 1.5726,0 0,-10.09086 -1.5726,0 0,-0.93701 2.77826,0"
         style=""
         id="path3155" />
    </g>
    <path
       style="fill:none;stroke:#000000;stroke-width:0.4;stroke-linecap:butt;stroke-linejoin:miter;stroke-miterlimit:4;stroke-opacity:1;stroke-dasharray:none"
       d="M 140.47933,141.47321 444.03869,367.47355"
       id="path6772"
       inkscape:connector-curvature="0" />
    <rect
       style="fill:#1e95c2;fill-opacity:0.57254902;stroke:#030333;stroke-width:0.60900003;stroke-linecap:square;stroke-linejoin:bevel;stroke-miterlimit:4;stroke-opacity:1;stroke-dasharray:none;stroke-dashoffset:0"
       id="rect4771-6-5"
       width="16.643545"
       height="16.344969"
       x="362.60391"
       y="164.90778" />
    <path
       style="fill:none;stroke:#000000;stroke-width:1px;stroke-linecap:butt;stroke-linejoin:miter;stroke-opacity:1"
       d="m 89.903577,157.87195 54.043163,40.91118"
       id="path6792"
       inkscape:connector-curvature="0"
       transform="translate(110.83638,110.28025)" />
    <path
       style="fill:none;stroke:#000000;stroke-width:1px;stroke-linecap:butt;stroke-linejoin:miter;stroke-opacity:1"
       d="M 143.44166,157.87195 91.923882,200.80343"
       id="path6794"
       inkscape:connector-curvature="0"
       transform="translate(110.83638,110.28025)" />
  </g>
</svg>
