<?xml version="1.0" encoding="UTF-8" standalone="no"?>
<!-- Created with Inkscape (http://www.inkscape.org/) -->

<svg
   xmlns:dc="http://purl.org/dc/elements/1.1/"
   xmlns:cc="http://creativecommons.org/ns#"
   xmlns:rdf="http://www.w3.org/1999/02/22-rdf-syntax-ns#"
   xmlns:svg="http://www.w3.org/2000/svg"
   xmlns="http://www.w3.org/2000/svg"
   xmlns:sodipodi="http://sodipodi.sourceforge.net/DTD/sodipodi-0.dtd"
   xmlns:inkscape="http://www.inkscape.org/namespaces/inkscape"
   width="382.89474"
   height="135.67632"
   id="svg5844"
   version="1.1"
   inkscape:version="0.48.5 r10040"
   sodipodi:docname="transvg.svg">
  <sodipodi:namedview
     id="base"
     pagecolor="#ffffff"
     bordercolor="#666666"
     borderopacity="1.0"
     inkscape:pageopacity="0.0"
     inkscape:pageshadow="2"
     inkscape:zoom="1.3763574"
     inkscape:cx="191.44737"
     inkscape:cy="125.9626"
     inkscape:document-units="px"
     inkscape:current-layer="layer1"
     showgrid="false"
     inkscape:window-width="690"
     inkscape:window-height="852"
     inkscape:window-x="15"
     inkscape:window-y="33"
     inkscape:window-maximized="0"
     fit-margin-top="10"
     fit-margin-left="10"
     fit-margin-bottom="10"
     fit-margin-right="10" />
  <defs
     id="defs5846">
    <marker
       inkscape:stockid="Arrow1Mend"
       orient="auto"
       refY="0"
       refX="0"
       id="Arrow1Mend"
       style="overflow:visible">
      <path
         inkscape:connector-curvature="0"
         id="path4584"
         d="M 0,0 5,-5 -12.5,0 5,5 0,0 z"
         style="fill-rule:evenodd;stroke:#000000;stroke-width:1pt"
         transform="matrix(-0.4,0,0,-0.4,-4,0)" />
    </marker>
  </defs>
  <metadata
     id="metadata5849">
    <rdf:RDF>
      <cc:Work
         rdf:about="">
        <dc:format>image/svg+xml</dc:format>
        <dc:type
           rdf:resource="http://purl.org/dc/dcmitype/StillImage" />
        <dc:title />
      </cc:Work>
    </rdf:RDF>
  </metadata>
  <g
     id="layer1"
     inkscape:groupmode="layer"
     inkscape:label="Layer 1"
     transform="translate(86.691628,-411.21728)">
    <path
       transform="matrix(0.58388604,0,0,0.58388604,-143.66603,335.57509)"
       d="m 194.28571,309.50504 c 0,18.93547 -15.35023,34.28571 -34.28571,34.28571 -18.93548,0 -34.28571,-15.35024 -34.28571,-34.28571 0,-18.93548 15.35023,-34.28572 34.28571,-34.28572 18.93548,0 34.28571,15.35024 34.28571,34.28572 z"
       sodipodi:ry="34.285713"
       sodipodi:rx="34.285713"
       sodipodi:cy="309.50504"
       sodipodi:cx="160"
       id="path4204"
       style="fill:#53b953;fill-opacity:0.62149533;stroke:#81998f;stroke-width:2;stroke-linecap:square;stroke-linejoin:bevel;stroke-miterlimit:4;stroke-opacity:1;stroke-dasharray:none;stroke-dashoffset:0"
       sodipodi:type="arc" />
    <path
       transform="matrix(0.58388604,0,0,0.58388604,-58.666025,335.57509)"
       d="m 194.28571,309.50504 c 0,18.93547 -15.35023,34.28571 -34.28571,34.28571 -18.93548,0 -34.28571,-15.35024 -34.28571,-34.28571 0,-18.93548 15.35023,-34.28572 34.28571,-34.28572 18.93548,0 34.28571,15.35024 34.28571,34.28572 z"
       sodipodi:ry="34.285713"
       sodipodi:rx="34.285713"
       sodipodi:cy="309.50504"
       sodipodi:cx="160"
       id="path4204-8"
       style="fill:#53b953;fill-opacity:0.62149533;stroke:#81998f;stroke-width:2;stroke-linecap:square;stroke-linejoin:bevel;stroke-miterlimit:4;stroke-opacity:1;stroke-dasharray:none;stroke-dashoffset:0"
       sodipodi:type="arc" />
    <path
       transform="matrix(0.58388604,0,0,0.58388604,26.664085,335.57509)"
       d="m 194.28571,309.50504 c 0,18.93547 -15.35023,34.28571 -34.28571,34.28571 -18.93548,0 -34.28571,-15.35024 -34.28571,-34.28571 0,-18.93548 15.35023,-34.28572 34.28571,-34.28572 18.93548,0 34.28571,15.35024 34.28571,34.28572 z"
       sodipodi:ry="34.285713"
       sodipodi:rx="34.285713"
       sodipodi:cy="309.50504"
       sodipodi:cx="160"
       id="path4204-8-3"
       style="fill:#53b953;fill-opacity:0.62149533;stroke:#81998f;stroke-width:2;stroke-linecap:square;stroke-linejoin:bevel;stroke-miterlimit:4;stroke-opacity:1;stroke-dasharray:none;stroke-dashoffset:0"
       sodipodi:type="arc" />
    <path
       transform="matrix(0.58388604,0,0,0.58388604,166.33397,335.57509)"
       d="m 194.28571,309.50504 c 0,18.93547 -15.35023,34.28571 -34.28571,34.28571 -18.93548,0 -34.28571,-15.35024 -34.28571,-34.28571 0,-18.93548 15.35023,-34.28572 34.28571,-34.28572 18.93548,0 34.28571,15.35024 34.28571,34.28572 z"
       sodipodi:ry="34.285713"
       sodipodi:rx="34.285713"
       sodipodi:cy="309.50504"
       sodipodi:cx="160"
       id="path4204-8-6"
       style="fill:#53b953;fill-opacity:0.62149533;stroke:#81998f;stroke-width:2;stroke-linecap:square;stroke-linejoin:bevel;stroke-miterlimit:4;stroke-opacity:1;stroke-dasharray:none;stroke-dashoffset:0"
       sodipodi:type="arc" />
    <g
       transform="translate(-98,182)"
       id="g3187">
      <g
         style="font-style:normal;font-variant:normal;font-weight:normal;font-stretch:normal;letter-spacing:normal;word-spacing:normal;text-anchor:start;fill:none;stroke:#000000;stroke-linecap:butt;stroke-linejoin:miter;stroke-miterlimit:10.43299961;stroke-opacity:1;stroke-dasharray:none;stroke-dashoffset:0"
         id="g3189"
         transform="matrix(0.36034293,0,0,-0.36034293,-63.060012,403.49762)"
         xml:space="preserve"
         stroke-miterlimit="10.433"
         font-style="normal"
         font-variant="normal"
         font-weight="normal"
         font-stretch="normal"
         font-size-adjust="none"
         letter-spacing="normal"
         word-spacing="normal"><path
           style="fill:#000000;stroke-width:0"
           inkscape:connector-curvature="0"
           d="m 474.16,365.77 0.1,0 0.1,0 0.09,0 0.08,0 0.09,0.01 0.07,0 0.08,0 0.07,0 0.07,0.01 0.06,0 0.06,0.01 0.05,0.01 0.05,0.01 0.05,0.01 0.04,0.02 0.05,0.01 0.03,0.02 0.04,0.02 0.03,0.02 0.03,0.02 0.03,0.03 0.02,0.03 0.02,0.03 0.02,0.04 0.01,0.04 0.02,0.04 0.01,0.05 0.01,0.04 0,0.06 0.01,0.05 0,0.06 0,0.07 c 0.09,34.92 4.13,63.92 21.56,88.28 0.36,0.45 0.36,0.54 0.36,0.64 0,0.5 -0.36,0.5 -1.15,0.5 -0.8,0 -0.89,0 -0.99,-0.1 -0.2,-0.15 -6.53,-7.42 -11.56,-17.43 -6.58,-13.16 -10.72,-28.25 -12.56,-46.39 -0.14,-1.53 -1.19,-11.91 -1.19,-23.71 v -1.95 c 0.05,-0.55 0.34,-0.55 1.39,-0.55 z"
           id="path3191" /><path
           style="fill:#000000;stroke-width:0"
           inkscape:connector-curvature="0"
           d="m 471.41,366.8 -0.1,0 -0.09,0 -0.09,0 -0.08,0 -0.08,0 -0.07,0 -0.07,0 -0.07,0 -0.07,-0.01 -0.06,0 -0.05,-0.01 -0.06,0 -0.05,-0.01 -0.05,-0.01 -0.04,-0.01 -0.04,-0.01 -0.04,-0.02 -0.03,-0.01 -0.04,-0.02 -0.03,-0.02 -0.02,-0.02 -0.03,-0.02 -0.02,-0.03 -0.02,-0.03 -0.02,-0.03 -0.01,-0.03 -0.02,-0.03 -0.01,-0.04 -0.01,-0.04 -0.01,-0.05 0,-0.04 -0.01,-0.05 v -1.94 c 0,-30.44 5.42,-48.28 6.97,-53.31 3.39,-11.06 8.92,-22.72 17.25,-32.99 0.73,-0.89 0.94,-1.14 1.14,-1.23 0.09,-0.06 0.14,-0.11 0.94,-0.11 0.79,0 1.15,0 1.15,0.5 0,0.11 0,0.2 -0.29,0.66 -16.6,23.01 -21.58,50.71 -21.63,88.28 0,0.68 -0.3,0.68 -1.39,0.68 z"
           id="path3193" /><path
           style="fill:#000000;stroke-width:0"
           inkscape:connector-curvature="0"
           d="m 522.12,430.06 0,0.75 -0.01,0.74 -0.02,0.75 -0.04,0.74 -0.04,0.75 -0.06,0.74 -0.08,0.74 -0.09,0.73 -0.12,0.74 -0.14,0.72 -0.16,0.73 -0.19,0.71 -0.21,0.72 -0.25,0.7 -0.28,0.7 -0.15,0.35 -0.16,0.34 c -2.28,4.8 -6.37,5.6 -8.47,5.6 -2.98,0 -6.62,-1.3 -8.67,-5.94 -1.59,-3.44 -1.84,-7.33 -1.84,-11.31 0,-3.74 0.2,-8.22 2.25,-12 2.14,-4.03 5.78,-5.03 8.22,-5.03 v 1.09 c -1.94,0 -4.9,1.25 -5.79,6.03 -0.54,2.99 -0.54,7.56 -0.54,10.52 0,3.19 0,6.47 0.4,9.15 0.94,5.94 4.68,6.38 5.93,6.38 1.64,0 4.93,-0.89 5.87,-5.83 0.5,-2.78 0.5,-6.58 0.5,-9.7 0,-3.75 0,-7.13 -0.55,-10.31 -0.75,-4.74 -3.59,-6.24 -5.82,-6.24 h 0 v -1.09 c 2.68,0 6.46,1.04 8.67,5.78 1.59,3.44 1.84,7.31 1.84,11.25 z"
           id="path3195" /><path
           style="fill:#000000;stroke-width:0"
           inkscape:connector-curvature="0"
           d="m 533.72,416.76 0,0.14 -0.01,0.13 -0.02,0.13 -0.02,0.13 -0.03,0.12 -0.04,0.13 -0.04,0.12 -0.05,0.12 -0.05,0.12 -0.06,0.11 -0.06,0.11 -0.07,0.11 -0.08,0.1 -0.08,0.1 -0.08,0.1 -0.09,0.09 -0.09,0.09 -0.09,0.08 -0.1,0.08 -0.11,0.08 -0.11,0.06 -0.11,0.07 -0.11,0.06 -0.12,0.05 -0.12,0.05 -0.12,0.04 -0.12,0.04 -0.13,0.03 -0.13,0.02 -0.13,0.02 -0.14,0.01 -0.13,0 c -1.44,0 -2.64,-1.2 -2.64,-2.64 0,-1.44 1.2,-2.64 2.64,-2.64 1.45,0 2.64,1.2 2.64,2.64 z"
           id="path3197" /><path
           style="fill:#000000;stroke-width:0"
           inkscape:connector-curvature="0"
           d="m 552.59,446.01 0,0.06 0,0.05 0,0.05 0,0.05 0,0.05 0,0.05 0,0.04 0,0.05 0,0.04 0,0.04 0,0.04 0,0.04 -0.01,0.04 0,0.04 0,0.03 0,0.04 -0.01,0.06 -0.01,0.06 -0.01,0.05 -0.02,0.05 -0.01,0.05 -0.02,0.04 -0.02,0.04 -0.03,0.04 -0.03,0.03 -0.03,0.02 -0.03,0.03 -0.04,0.02 -0.05,0.02 -0.02,0.01 -0.03,0.01 -0.02,0 -0.03,0.01 -0.03,0.01 -0.03,0 -0.03,0.01 -0.03,0 -0.03,0.01 -0.04,0 -0.03,0 -0.04,0.01 -0.04,0 -0.04,0 -0.04,0 -0.05,0.01 -0.04,0 -0.05,0 -0.04,0 -0.05,0 -0.05,0 -0.06,0 c -3.09,-3.19 -7.47,-3.19 -9.06,-3.19 v -1.55 c 1,0 3.94,0 6.52,1.3 v -25.81 c 0,-1.8 -0.14,-2.39 -4.63,-2.39 h -1.59 v -1.55 c 1.75,0.16 6.08,0.16 8.06,0.16 2,0 6.33,0 8.08,-0.16 v 1.55 h -1.6 c -4.48,0 -4.64,0.54 -4.64,2.39 z"
           id="path3199" /><path
           style="fill:#000000;stroke-width:0"
           inkscape:connector-curvature="0"
           d="m 578.3,432.15 0.33,0.18 0.33,0.18 0.32,0.18 0.31,0.19 0.31,0.19 0.29,0.2 0.29,0.2 0.28,0.2 0.27,0.21 0.26,0.22 0.26,0.22 0.24,0.22 0.23,0.23 0.23,0.23 0.21,0.23 0.2,0.24 0.2,0.25 0.18,0.24 0.17,0.26 0.16,0.25 0.15,0.26 0.14,0.27 0.12,0.27 0.12,0.27 0.1,0.28 0.08,0.28 0.08,0.28 0.06,0.29 0.05,0.3 0.03,0.29 0.02,0.31 0.01,0.3 c 0,4.59 -4.43,7.44 -8.97,7.44 l -0.04,-1.25 c 3.64,0 6.83,-2.6 6.83,-6.19 0,-2.83 -1.96,-5.22 -4.94,-6.97 l -6.18,3.99 c -2.29,1.5 -2.5,3.18 -2.5,4.03 0,3.04 3.25,5.14 6.79,5.14 l 0.04,1.25 c -4.98,0 -9.01,-3.69 -9.01,-8.33 0,-0.89 0.09,-3.14 2.18,-5.48 0.55,-0.6 2.4,-1.85 3.65,-2.69 l 1.14,-0.75 6.14,-3.88 c 1.39,-0.95 3.73,-2.45 3.73,-5.48 0,-3.69 -3.73,-6.28 -7.83,-6.28 -4.28,0 -7.87,3.09 -7.87,7.22 0,2.89 1.59,6.07 5.83,8.42 h 0 l -1.14,0.75 c -2.9,-1.44 -7.18,-4.24 -7.18,-9.17 0,-5.28 5.08,-8.61 10.32,-8.61 5.62,0 10.36,4.14 10.36,9.47 0,1.78 -0.55,4.03 -2.44,6.12 -0.96,1.05 -1.75,1.55 -4.94,3.53 z"
           id="path3201" /><path
           style="fill:#000000;stroke-width:0"
           inkscape:connector-curvature="0"
           d="m 522.12,370.3 0,0.74 -0.01,0.75 -0.02,0.75 -0.04,0.74 -0.04,0.75 -0.06,0.74 -0.08,0.74 -0.09,0.73 -0.12,0.73 -0.14,0.73 -0.16,0.72 -0.19,0.72 -0.21,0.72 -0.25,0.7 -0.28,0.7 -0.15,0.35 -0.16,0.34 c -2.28,4.8 -6.37,5.6 -8.47,5.6 -2.98,0 -6.62,-1.3 -8.67,-5.94 -1.59,-3.44 -1.84,-7.33 -1.84,-11.31 0,-3.74 0.2,-8.22 2.25,-12 2.14,-4.03 5.78,-5.03 8.22,-5.03 v 1.09 c -1.94,0 -4.9,1.25 -5.79,6.03 -0.54,2.99 -0.54,7.56 -0.54,10.52 0,3.18 0,6.47 0.4,9.15 0.94,5.94 4.68,6.38 5.93,6.38 1.64,0 4.93,-0.89 5.87,-5.83 0.5,-2.78 0.5,-6.58 0.5,-9.7 0,-3.75 0,-7.13 -0.55,-10.32 -0.75,-4.73 -3.59,-6.23 -5.82,-6.23 h 0 v -1.09 c 2.68,0 6.46,1.04 8.67,5.78 1.59,3.43 1.84,7.31 1.84,11.25 z"
           id="path3203" /><path
           style="fill:#000000;stroke-width:0"
           inkscape:connector-curvature="0"
           d="m 533.72,357 0,0.13 -0.01,0.14 -0.02,0.13 -0.02,0.13 -0.03,0.12 -0.04,0.13 -0.04,0.12 -0.05,0.12 -0.05,0.12 -0.06,0.11 -0.06,0.11 -0.07,0.11 -0.08,0.1 -0.08,0.1 -0.08,0.1 -0.09,0.09 -0.09,0.09 -0.09,0.08 -0.1,0.08 -0.11,0.07 -0.11,0.07 -0.11,0.07 -0.11,0.06 -0.12,0.05 -0.12,0.05 -0.12,0.04 -0.12,0.04 -0.13,0.03 -0.13,0.02 -0.13,0.02 -0.14,0.01 -0.13,0 c -1.44,0 -2.64,-1.2 -2.64,-2.64 0,-1.44 1.2,-2.64 2.64,-2.64 1.45,0 2.64,1.2 2.64,2.64 z"
           id="path3205" /><path
           style="fill:#000000;stroke-width:0"
           inkscape:connector-curvature="0"
           d="m 544.53,370.7 v 1.19 c 0,12.61 6.17,14.41 8.72,14.41 1.19,0 3.28,-0.3 4.37,-2 -0.73,0 -2.73,0 -2.73,-2.24 0,-1.54 1.2,-2.29 2.3,-2.29 0.79,0 2.28,0.45 2.28,2.39 0,3 -2.19,5.39 -6.31,5.39 -6.39,0 -13.11,-6.44 -13.11,-17.44 0,-13.31 5.78,-16.84 10.4,-16.84 5.53,0 10.27,4.68 10.27,11.25 0,6.32 -4.44,11.12 -9.97,11.12 l -0.05,-1.16 c 0.8,0 3.1,0 4.64,-3.09 0.89,-1.83 0.89,-4.37 0.89,-6.81 0,-2.39 0,-4.89 -0.84,-6.69 -1.5,-2.98 -3.78,-3.23 -4.94,-3.23 h 0 c -3.14,0 -4.62,2.98 -4.92,3.73 -0.91,2.34 -0.91,6.33 -0.91,7.23 0,3.88 1.6,8.86 6.08,8.86 l 0.05,1.16 c -3.37,0 -5.22,-2.55 -6.22,-4.94 z"
           id="path3207" /><path
           style="fill:#000000;stroke-width:0"
           inkscape:connector-curvature="0"
           d="m 577.55,362.58 v -4.33 c 0,-1.8 -0.09,-2.34 -3.78,-2.34 h -1.05 v -1.55 c 2.05,0.16 4.64,0.16 6.74,0.16 2.09,0 4.73,0 6.76,-0.16 v 1.55 h -1.04 c -3.69,0 -3.78,0.54 -3.78,2.34 v 4.33 h 4.98 v 1.54 h -4.98 v 22.68 c 0,1 0,1.29 -0.8,1.29 -0.45,0 -0.6,0 -1,-0.61 l -15.3,-23.36 h 1.41 l 12.15,18.58 v -18.58 h -12.15 -1.41 v -1.54 z"
           id="path3209" /><path
           style="fill:#000000;stroke-width:0"
           inkscape:connector-curvature="0"
           d="m 522.12,310.54 0,0.75 -0.01,0.74 -0.02,0.75 -0.04,0.74 -0.04,0.75 -0.06,0.74 -0.08,0.74 -0.09,0.73 -0.12,0.74 -0.14,0.72 -0.16,0.73 -0.19,0.71 -0.21,0.72 -0.25,0.7 -0.28,0.7 -0.15,0.35 -0.16,0.35 c -2.28,4.79 -6.37,5.59 -8.47,5.59 -2.98,0 -6.62,-1.3 -8.67,-5.94 -1.59,-3.44 -1.84,-7.33 -1.84,-11.31 0,-3.74 0.2,-8.22 2.25,-12 2.14,-4.03 5.78,-5.03 8.22,-5.03 v 1.09 c -1.94,0 -4.9,1.25 -5.79,6.03 -0.54,2.99 -0.54,7.57 -0.54,10.52 0,3.19 0,6.47 0.4,9.15 0.94,5.94 4.68,6.38 5.93,6.38 1.64,0 4.93,-0.89 5.87,-5.83 0.5,-2.78 0.5,-6.58 0.5,-9.7 0,-3.75 0,-7.13 -0.55,-10.31 -0.75,-4.74 -3.59,-6.24 -5.82,-6.24 h 0 v -1.09 c 2.68,0 6.46,1.04 8.67,5.78 1.59,3.44 1.84,7.31 1.84,11.25 z"
           id="path3211" /><path
           style="fill:#000000;stroke-width:0"
           inkscape:connector-curvature="0"
           d="m 533.72,297.24 0,0.14 -0.01,0.13 -0.02,0.13 -0.02,0.13 -0.03,0.13 -0.04,0.12 -0.04,0.12 -0.05,0.12 -0.05,0.12 -0.06,0.11 -0.06,0.11 -0.07,0.11 -0.08,0.1 -0.08,0.1 -0.08,0.1 -0.09,0.09 -0.09,0.09 -0.09,0.08 -0.1,0.08 -0.11,0.08 -0.11,0.07 -0.11,0.06 -0.11,0.06 -0.12,0.05 -0.12,0.05 -0.12,0.04 -0.12,0.04 -0.13,0.03 -0.13,0.02 -0.13,0.02 -0.14,0.01 -0.13,0 c -1.44,0 -2.64,-1.2 -2.64,-2.64 0,-1.44 1.2,-2.64 2.64,-2.64 1.45,0 2.64,1.2 2.64,2.64 z"
           id="path3213" /><path
           style="fill:#000000;stroke-width:0"
           inkscape:connector-curvature="0"
           d="m 552.59,326.49 0,0.06 0,0.05 0,0.05 0,0.05 0,0.05 0,0.05 0,0.04 0,0.05 0,0.04 0,0.04 0,0.04 0,0.04 -0.01,0.04 0,0.04 0,0.03 0,0.04 -0.01,0.06 -0.01,0.06 -0.01,0.05 -0.02,0.05 -0.01,0.05 -0.02,0.04 -0.02,0.04 -0.03,0.04 -0.03,0.03 -0.03,0.03 -0.03,0.02 -0.04,0.02 -0.05,0.02 -0.02,0.01 -0.03,0.01 -0.02,0 -0.03,0.01 -0.03,0.01 -0.03,0 -0.03,0.01 -0.03,0 -0.03,0.01 -0.04,0 -0.03,0 -0.04,0.01 -0.04,0 -0.04,0 -0.04,0 -0.05,0.01 -0.04,0 -0.05,0 -0.04,0 -0.05,0 -0.05,0 -0.06,0 c -3.09,-3.19 -7.47,-3.19 -9.06,-3.19 v -1.55 c 1,0 3.94,0 6.52,1.3 v -25.81 c 0,-1.8 -0.14,-2.39 -4.63,-2.39 h -1.59 v -1.55 c 1.75,0.16 6.08,0.16 8.06,0.16 2,0 6.33,0 8.08,-0.16 v 1.55 h -1.6 c -4.48,0 -4.64,0.55 -4.64,2.39 z"
           id="path3215" /><path
           style="fill:#000000;stroke-width:0"
           inkscape:connector-curvature="0"
           d="m 578.3,312.63 0.33,0.18 0.33,0.18 0.32,0.18 0.31,0.19 0.31,0.19 0.29,0.2 0.29,0.2 0.28,0.21 0.27,0.21 0.26,0.21 0.26,0.22 0.24,0.22 0.23,0.23 0.23,0.23 0.21,0.23 0.2,0.24 0.2,0.25 0.18,0.25 0.17,0.25 0.16,0.25 0.15,0.26 0.14,0.27 0.12,0.27 0.12,0.27 0.1,0.28 0.08,0.28 0.08,0.28 0.06,0.29 0.05,0.3 0.03,0.29 0.02,0.31 0.01,0.3 c 0,4.6 -4.43,7.44 -8.97,7.44 l -0.04,-1.25 c 3.64,0 6.83,-2.59 6.83,-6.19 0,-2.83 -1.96,-5.22 -4.94,-6.97 l -6.18,3.99 c -2.29,1.5 -2.5,3.18 -2.5,4.03 0,3.05 3.25,5.14 6.79,5.14 l 0.04,1.25 c -4.98,0 -9.01,-3.69 -9.01,-8.33 0,-0.89 0.09,-3.14 2.18,-5.48 0.55,-0.6 2.4,-1.85 3.65,-2.69 l 1.14,-0.75 6.14,-3.88 c 1.39,-0.95 3.73,-2.45 3.73,-5.48 0,-3.69 -3.73,-6.28 -7.83,-6.28 -4.28,0 -7.87,3.09 -7.87,7.22 0,2.89 1.59,6.08 5.83,8.42 h 0 l -1.14,0.75 c -2.9,-1.44 -7.18,-4.24 -7.18,-9.17 0,-5.28 5.08,-8.61 10.32,-8.61 5.62,0 10.36,4.14 10.36,9.47 0,1.78 -0.55,4.03 -2.44,6.12 -0.96,1.05 -1.75,1.55 -4.94,3.53 z"
           id="path3217" /><path
           style="fill:#000000;stroke-width:0"
           inkscape:connector-curvature="0"
           d="m 616.81,368.27 -0.02,2.82 -0.04,2.74 -0.08,2.67 -0.1,2.6 -0.12,2.52 -0.15,2.44 -0.17,2.38 -0.19,2.29 -0.21,2.23 -0.23,2.15 -0.24,2.07 -0.25,2.01 -0.27,1.92 -0.27,1.86 -0.28,1.77 -0.29,1.71 -0.29,1.63 -0.3,1.55 -0.3,1.48 -0.29,1.41 -0.3,1.33 -0.29,1.26 -0.28,1.18 -0.28,1.11 -0.26,1.03 -0.26,0.96 -0.24,0.89 -0.23,0.8 -0.21,0.74 -0.2,0.66 -0.18,0.58 -0.15,0.51 c -3.39,11.06 -8.92,22.72 -17.25,32.98 -0.75,0.91 -0.94,1.16 -1.14,1.25 -0.1,0.05 -0.16,0.1 -0.95,0.1 -0.74,0 -1.15,0 -1.15,-0.5 0,-0.1 0,-0.19 0.65,-1.1 17.34,-24.2 21.23,-54.09 21.28,-87.82 0,-0.71 0.29,-0.71 1.39,-0.71 h 2.75 c 1.05,0 1.34,0 1.39,0.55 z"
           id="path3219" /><path
           style="fill:#000000;stroke-width:0"
           inkscape:connector-curvature="0"
           d="m 616.81,366.26 -0.01,0.05 0,0.04 -0.01,0.05 -0.01,0.04 -0.01,0.04 -0.02,0.03 -0.01,0.03 -0.02,0.03 -0.02,0.03 -0.02,0.03 -0.03,0.02 -0.03,0.02 -0.03,0.02 -0.03,0.02 -0.03,0.01 -0.04,0.02 -0.04,0.01 -0.05,0.01 -0.04,0.01 -0.05,0.01 -0.06,0 -0.05,0.01 -0.07,0 -0.06,0.01 -0.07,0 -0.07,0 -0.07,0 -0.08,0 -0.09,0 -0.08,0 -0.1,0 -0.09,0 h -2.75 c -1.1,0 -1.39,0 -1.39,-0.68 0,-5.14 -0.05,-17 -1.35,-29.39 -2.68,-25.77 -9.31,-43.6 -20.23,-58.89 -0.35,-0.46 -0.35,-0.55 -0.35,-0.66 0,-0.5 0.41,-0.5 1.15,-0.5 0.79,0 0.9,0 1,0.11 0.2,0.14 6.53,7.42 11.56,17.44 6.58,13.14 10.7,28.25 12.54,46.37 0.16,1.55 1.21,11.91 1.21,23.72 z"
           id="path3221" /></g>    </g>
    <g
       transform="translate(-12.669889,182)"
       id="g3305">
      <g
         style="font-style:normal;font-variant:normal;font-weight:normal;font-stretch:normal;letter-spacing:normal;word-spacing:normal;text-anchor:start;fill:none;stroke:#000000;stroke-linecap:butt;stroke-linejoin:miter;stroke-miterlimit:10.43299961;stroke-opacity:1;stroke-dasharray:none;stroke-dashoffset:0"
         word-spacing="normal"
         letter-spacing="normal"
         font-size-adjust="none"
         font-stretch="normal"
         font-weight="normal"
         font-variant="normal"
         font-style="normal"
         stroke-miterlimit="10.433"
         xml:space="preserve"
         transform="matrix(0.36034293,0,0,-0.36034293,-63.060012,403.49762)"
         id="g3307"><path
           style="fill:#000000;stroke-width:0"
           inkscape:connector-curvature="0"
           id="path3309"
           d="m 474.16,365.77 0.1,0 0.1,0 0.09,0 0.08,0 0.09,0.01 0.07,0 0.08,0 0.07,0 0.07,0.01 0.06,0 0.06,0.01 0.05,0.01 0.05,0.01 0.05,0.01 0.04,0.02 0.05,0.01 0.03,0.02 0.04,0.02 0.03,0.02 0.03,0.02 0.03,0.03 0.02,0.03 0.02,0.03 0.02,0.04 0.01,0.04 0.02,0.04 0.01,0.05 0.01,0.04 0,0.06 0.01,0.05 0,0.06 0,0.07 c 0.09,34.92 4.13,63.92 21.56,88.28 0.36,0.45 0.36,0.54 0.36,0.64 0,0.5 -0.36,0.5 -1.15,0.5 -0.8,0 -0.89,0 -0.99,-0.1 -0.2,-0.15 -6.53,-7.42 -11.56,-17.43 -6.58,-13.16 -10.72,-28.25 -12.56,-46.39 -0.14,-1.53 -1.19,-11.91 -1.19,-23.71 v -1.95 c 0.05,-0.55 0.34,-0.55 1.39,-0.55 z" /><path
           style="fill:#000000;stroke-width:0"
           inkscape:connector-curvature="0"
           id="path3311"
           d="m 471.41,366.8 -0.1,0 -0.09,0 -0.09,0 -0.08,0 -0.08,0 -0.07,0 -0.07,0 -0.07,0 -0.07,-0.01 -0.06,0 -0.05,-0.01 -0.06,0 -0.05,-0.01 -0.05,-0.01 -0.04,-0.01 -0.04,-0.01 -0.04,-0.02 -0.03,-0.01 -0.04,-0.02 -0.03,-0.02 -0.02,-0.02 -0.03,-0.02 -0.02,-0.03 -0.02,-0.03 -0.02,-0.03 -0.01,-0.03 -0.02,-0.03 -0.01,-0.04 -0.01,-0.04 -0.01,-0.05 0,-0.04 -0.01,-0.05 v -1.94 c 0,-30.44 5.42,-48.28 6.97,-53.31 3.39,-11.06 8.92,-22.72 17.25,-32.99 0.73,-0.89 0.94,-1.14 1.14,-1.23 0.09,-0.06 0.14,-0.11 0.94,-0.11 0.79,0 1.15,0 1.15,0.5 0,0.11 0,0.2 -0.29,0.66 -16.6,23.01 -21.58,50.71 -21.63,88.28 0,0.68 -0.3,0.68 -1.39,0.68 z" /><path
           style="fill:#000000;stroke-width:0"
           inkscape:connector-curvature="0"
           id="path3313"
           d="m 522.12,430.06 0,0.75 -0.01,0.74 -0.02,0.75 -0.04,0.74 -0.04,0.75 -0.06,0.74 -0.08,0.74 -0.09,0.73 -0.12,0.74 -0.14,0.72 -0.16,0.73 -0.19,0.71 -0.21,0.72 -0.25,0.7 -0.28,0.7 -0.15,0.35 -0.16,0.34 c -2.28,4.8 -6.37,5.6 -8.47,5.6 -2.98,0 -6.62,-1.3 -8.67,-5.94 -1.59,-3.44 -1.84,-7.33 -1.84,-11.31 0,-3.74 0.2,-8.22 2.25,-12 2.14,-4.03 5.78,-5.03 8.22,-5.03 v 1.09 c -1.94,0 -4.9,1.25 -5.79,6.03 -0.54,2.99 -0.54,7.56 -0.54,10.52 0,3.19 0,6.47 0.4,9.15 0.94,5.94 4.68,6.38 5.93,6.38 1.64,0 4.93,-0.89 5.87,-5.83 0.5,-2.78 0.5,-6.58 0.5,-9.7 0,-3.75 0,-7.13 -0.55,-10.31 -0.75,-4.74 -3.59,-6.24 -5.82,-6.24 h 0 v -1.09 c 2.68,0 6.46,1.04 8.67,5.78 1.59,3.44 1.84,7.31 1.84,11.25 z" /><path
           style="fill:#000000;stroke-width:0"
           inkscape:connector-curvature="0"
           id="path3315"
           d="m 533.72,416.76 0,0.14 -0.01,0.13 -0.02,0.13 -0.02,0.13 -0.03,0.12 -0.04,0.13 -0.04,0.12 -0.05,0.12 -0.05,0.12 -0.06,0.11 -0.06,0.11 -0.07,0.11 -0.08,0.1 -0.08,0.1 -0.08,0.1 -0.09,0.09 -0.09,0.09 -0.09,0.08 -0.1,0.08 -0.11,0.08 -0.11,0.06 -0.11,0.07 -0.11,0.06 -0.12,0.05 -0.12,0.05 -0.12,0.04 -0.12,0.04 -0.13,0.03 -0.13,0.02 -0.13,0.02 -0.14,0.01 -0.13,0 c -1.44,0 -2.64,-1.2 -2.64,-2.64 0,-1.44 1.2,-2.64 2.64,-2.64 1.45,0 2.64,1.2 2.64,2.64 z" /><path
           style="fill:#000000;stroke-width:0"
           inkscape:connector-curvature="0"
           id="path3317"
           d="m 552.59,446.01 0,0.06 0,0.05 0,0.05 0,0.05 0,0.05 0,0.05 0,0.04 0,0.05 0,0.04 0,0.04 0,0.04 0,0.04 -0.01,0.04 0,0.04 0,0.03 0,0.04 -0.01,0.06 -0.01,0.06 -0.01,0.05 -0.02,0.05 -0.01,0.05 -0.02,0.04 -0.02,0.04 -0.03,0.04 -0.03,0.03 -0.03,0.02 -0.03,0.03 -0.04,0.02 -0.05,0.02 -0.02,0.01 -0.03,0.01 -0.02,0 -0.03,0.01 -0.03,0.01 -0.03,0 -0.03,0.01 -0.03,0 -0.03,0.01 -0.04,0 -0.03,0 -0.04,0.01 -0.04,0 -0.04,0 -0.04,0 -0.05,0.01 -0.04,0 -0.05,0 -0.04,0 -0.05,0 -0.05,0 -0.06,0 c -3.09,-3.19 -7.47,-3.19 -9.06,-3.19 v -1.55 c 1,0 3.94,0 6.52,1.3 v -25.81 c 0,-1.8 -0.14,-2.39 -4.63,-2.39 h -1.59 v -1.55 c 1.75,0.16 6.08,0.16 8.06,0.16 2,0 6.33,0 8.08,-0.16 v 1.55 h -1.6 c -4.48,0 -4.64,0.54 -4.64,2.39 z" /><path
           style="fill:#000000;stroke-width:0"
           inkscape:connector-curvature="0"
           id="path3319"
           d="m 577.55,446.01 0,0.06 0,0.05 0,0.05 0,0.05 0,0.05 0,0.05 0,0.04 0,0.05 0,0.04 0,0.04 0,0.04 -0.01,0.04 0,0.04 0,0.04 0,0.03 -0.01,0.04 0,0.06 -0.01,0.06 -0.02,0.05 -0.01,0.05 -0.02,0.05 -0.01,0.04 -0.03,0.04 -0.02,0.04 -0.03,0.03 -0.03,0.02 -0.04,0.03 -0.04,0.02 -0.04,0.02 -0.03,0.01 -0.02,0.01 -0.03,0 -0.02,0.01 -0.03,0.01 -0.03,0 -0.03,0.01 -0.03,0 -0.04,0.01 -0.03,0 -0.04,0 -0.03,0.01 -0.04,0 -0.04,0 -0.05,0 -0.04,0.01 -0.04,0 -0.05,0 -0.05,0 -0.05,0 -0.05,0 -0.05,0 c -3.09,-3.19 -7.47,-3.19 -9.06,-3.19 v -1.55 c 1,0 3.93,0 6.51,1.3 v -25.81 c 0,-1.8 -0.14,-2.39 -4.62,-2.39 h -1.59 v -1.55 c 1.75,0.16 6.07,0.16 8.06,0.16 2,0 6.32,0 8.07,-0.16 v 1.55 h -1.59 c -4.48,0 -4.64,0.54 -4.64,2.39 z" /><path
           style="fill:#000000;stroke-width:0"
           inkscape:connector-curvature="0"
           id="path3321"
           d="m 522.12,370.3 0,0.74 -0.01,0.75 -0.02,0.75 -0.04,0.74 -0.04,0.75 -0.06,0.74 -0.08,0.74 -0.09,0.73 -0.12,0.73 -0.14,0.73 -0.16,0.72 -0.19,0.72 -0.21,0.72 -0.25,0.7 -0.28,0.7 -0.15,0.35 -0.16,0.34 c -2.28,4.8 -6.37,5.6 -8.47,5.6 -2.98,0 -6.62,-1.3 -8.67,-5.94 -1.59,-3.44 -1.84,-7.33 -1.84,-11.31 0,-3.74 0.2,-8.22 2.25,-12 2.14,-4.03 5.78,-5.03 8.22,-5.03 v 1.09 c -1.94,0 -4.9,1.25 -5.79,6.03 -0.54,2.99 -0.54,7.56 -0.54,10.52 0,3.18 0,6.47 0.4,9.15 0.94,5.94 4.68,6.38 5.93,6.38 1.64,0 4.93,-0.89 5.87,-5.83 0.5,-2.78 0.5,-6.58 0.5,-9.7 0,-3.75 0,-7.13 -0.55,-10.32 -0.75,-4.73 -3.59,-6.23 -5.82,-6.23 h 0 v -1.09 c 2.68,0 6.46,1.04 8.67,5.78 1.59,3.43 1.84,7.31 1.84,11.25 z" /><path
           style="fill:#000000;stroke-width:0"
           inkscape:connector-curvature="0"
           id="path3323"
           d="m 533.72,357 0,0.13 -0.01,0.14 -0.02,0.13 -0.02,0.13 -0.03,0.12 -0.04,0.13 -0.04,0.12 -0.05,0.12 -0.05,0.12 -0.06,0.11 -0.06,0.11 -0.07,0.11 -0.08,0.1 -0.08,0.1 -0.08,0.1 -0.09,0.09 -0.09,0.09 -0.09,0.08 -0.1,0.08 -0.11,0.07 -0.11,0.07 -0.11,0.07 -0.11,0.06 -0.12,0.05 -0.12,0.05 -0.12,0.04 -0.12,0.04 -0.13,0.03 -0.13,0.02 -0.13,0.02 -0.14,0.01 -0.13,0 c -1.44,0 -2.64,-1.2 -2.64,-2.64 0,-1.44 1.2,-2.64 2.64,-2.64 1.45,0 2.64,1.2 2.64,2.64 z" /><path
           style="fill:#000000;stroke-width:0"
           inkscape:connector-curvature="0"
           id="path3325"
           d="m 552.41,371.89 0.37,0.13 0.38,0.15 0.36,0.15 0.36,0.17 0.34,0.18 0.34,0.19 0.33,0.2 0.33,0.22 0.31,0.22 0.3,0.23 0.29,0.24 0.28,0.25 0.27,0.26 0.26,0.27 0.25,0.27 0.24,0.29 0.22,0.29 0.22,0.3 0.2,0.3 0.19,0.32 0.17,0.32 0.16,0.32 0.15,0.33 0.13,0.34 0.12,0.34 0.1,0.34 0.09,0.35 0.07,0.36 0.06,0.36 0.04,0.36 0.03,0.36 0.01,0.37 c 0,4.08 -4.4,6.88 -9.18,6.88 -5.03,0 -8.81,-3 -8.81,-6.78 0,-1.65 1.09,-2.6 2.55,-2.6 1.53,0 2.53,1.1 2.53,2.55 0,2.48 -2.35,2.48 -3.08,2.48 1.53,2.44 4.83,3.1 6.63,3.1 2.03,0 4.78,-1.1 4.78,-5.58 0,-0.61 -0.11,-3.49 -1.41,-5.69 -1.48,-2.39 -3.19,-2.53 -4.42,-2.59 -0.41,-0.05 -1.59,-0.14 -1.95,-0.14 -0.4,-0.05 -0.75,-0.1 -0.75,-0.6 0,-0.54 0.35,-0.54 1.2,-0.54 h 2.19 c 4.09,0 5.93,-3.39 5.93,-8.28 0,-6.77 -3.43,-8.22 -5.64,-8.22 -2.14,0 -5.87,0.84 -7.61,3.78 1.74,-0.24 3.28,0.86 3.28,2.75 0,1.79 -1.34,2.78 -2.79,2.78 -1.19,0 -2.78,-0.69 -2.78,-2.89 0,-4.53 4.62,-7.81 10.06,-7.81 6.08,0 10.61,4.53 10.61,9.61 0,4.09 -3.14,7.96 -8.31,9.01 z" /><path
           style="fill:#000000;stroke-width:0"
           inkscape:connector-curvature="0"
           id="path3327"
           d="m 577.55,386.25 0,0.05 0,0.06 0,0.05 0,0.05 0,0.05 0,0.05 0,0.04 0,0.05 0,0.04 0,0.04 0,0.04 -0.01,0.04 0,0.04 0,0.03 0,0.04 -0.01,0.03 0,0.07 -0.01,0.06 -0.02,0.05 -0.01,0.05 -0.02,0.05 -0.01,0.04 -0.03,0.04 -0.02,0.03 -0.03,0.04 -0.03,0.02 -0.04,0.03 -0.04,0.02 -0.04,0.02 -0.03,0.01 -0.02,0.01 -0.03,0 -0.02,0.01 -0.03,0.01 -0.03,0 -0.03,0.01 -0.03,0 -0.04,0.01 -0.03,0 -0.04,0 -0.03,0.01 -0.04,0 -0.04,0 -0.05,0 -0.04,0 -0.04,0 -0.05,0.01 -0.05,0 -0.05,0 -0.05,0 -0.05,0 c -3.09,-3.19 -7.47,-3.19 -9.06,-3.19 v -1.55 c 1,0 3.93,0 6.51,1.3 V 358.3 c 0,-1.8 -0.14,-2.39 -4.62,-2.39 h -1.59 v -1.55 c 1.75,0.16 6.07,0.16 8.06,0.16 2,0 6.32,0 8.07,-0.16 v 1.55 h -1.59 c -4.48,0 -4.64,0.54 -4.64,2.39 z" /><path
           style="fill:#000000;stroke-width:0"
           inkscape:connector-curvature="0"
           id="path3329"
           d="m 522.12,310.54 0,0.75 -0.01,0.74 -0.02,0.75 -0.04,0.74 -0.04,0.75 -0.06,0.74 -0.08,0.74 -0.09,0.73 -0.12,0.74 -0.14,0.72 -0.16,0.73 -0.19,0.71 -0.21,0.72 -0.25,0.7 -0.28,0.7 -0.15,0.35 -0.16,0.35 c -2.28,4.79 -6.37,5.59 -8.47,5.59 -2.98,0 -6.62,-1.3 -8.67,-5.94 -1.59,-3.44 -1.84,-7.33 -1.84,-11.31 0,-3.74 0.2,-8.22 2.25,-12 2.14,-4.03 5.78,-5.03 8.22,-5.03 v 1.09 c -1.94,0 -4.9,1.25 -5.79,6.03 -0.54,2.99 -0.54,7.57 -0.54,10.52 0,3.19 0,6.47 0.4,9.15 0.94,5.94 4.68,6.38 5.93,6.38 1.64,0 4.93,-0.89 5.87,-5.83 0.5,-2.78 0.5,-6.58 0.5,-9.7 0,-3.75 0,-7.13 -0.55,-10.31 -0.75,-4.74 -3.59,-6.24 -5.82,-6.24 h 0 v -1.09 c 2.68,0 6.46,1.04 8.67,5.78 1.59,3.44 1.84,7.31 1.84,11.25 z" /><path
           style="fill:#000000;stroke-width:0"
           inkscape:connector-curvature="0"
           id="path3331"
           d="m 533.72,297.24 0,0.14 -0.01,0.13 -0.02,0.13 -0.02,0.13 -0.03,0.13 -0.04,0.12 -0.04,0.12 -0.05,0.12 -0.05,0.12 -0.06,0.11 -0.06,0.11 -0.07,0.11 -0.08,0.1 -0.08,0.1 -0.08,0.1 -0.09,0.09 -0.09,0.09 -0.09,0.08 -0.1,0.08 -0.11,0.08 -0.11,0.07 -0.11,0.06 -0.11,0.06 -0.12,0.05 -0.12,0.05 -0.12,0.04 -0.12,0.04 -0.13,0.03 -0.13,0.02 -0.13,0.02 -0.14,0.01 -0.13,0 c -1.44,0 -2.64,-1.2 -2.64,-2.64 0,-1.44 1.2,-2.64 2.64,-2.64 1.45,0 2.64,1.2 2.64,2.64 z" /><path
           style="fill:#000000;stroke-width:0"
           inkscape:connector-curvature="0"
           id="path3333"
           d="m 560.33,304.62 -0.01,0.55 -0.04,0.55 -0.06,0.53 -0.08,0.54 -0.1,0.52 -0.13,0.51 -0.14,0.51 -0.17,0.49 -0.18,0.48 -0.21,0.47 -0.22,0.46 -0.24,0.44 -0.26,0.43 -0.28,0.41 -0.29,0.4 -0.31,0.38 -0.33,0.36 -0.34,0.35 -0.35,0.33 -0.37,0.3 -0.39,0.29 -0.39,0.27 -0.41,0.24 -0.42,0.22 -0.44,0.2 -0.44,0.17 -0.46,0.15 -0.46,0.13 -0.48,0.09 -0.48,0.08 -0.49,0.04 -0.5,0.01 c -2.39,0 -4.53,-0.79 -6.33,-2.53 v 9.71 c 1,-0.3 2.64,-0.65 4.24,-0.65 6.12,0 9.61,4.54 9.61,5.19 0,0.3 -0.15,0.55 -0.5,0.55 -0.05,0 -0.15,0 -0.4,-0.16 -1,-0.45 -3.43,-1.43 -6.78,-1.43 -1.98,0 -4.28,0.34 -6.62,1.39 -0.39,0.14 -0.5,0.14 -0.6,0.14 -0.5,0 -0.5,-0.39 -0.5,-1.19 v -14.75 c 0,-0.89 0,-1.3 0.71,-1.3 0.34,0 0.43,0.16 0.64,0.46 0.55,0.79 2.39,3.48 6.42,3.48 2.59,0 3.84,-2.3 4.23,-3.19 0.82,-1.84 0.91,-3.78 0.91,-6.28 0,-1.73 0,-4.73 -1.2,-6.83 -1.19,-1.93 -3.03,-3.23 -5.33,-3.23 -3.64,0 -6.47,2.64 -7.33,5.58 0.16,-0.05 0.31,-0.1 0.86,-0.1 1.64,0 2.49,1.25 2.49,2.44 0,1.2 -0.85,2.44 -2.49,2.44 -0.7,0 -2.45,-0.35 -2.45,-2.64 0,-4.28 3.44,-9.11 9.03,-9.11 5.76,0 10.86,4.78 10.86,11.11 z" /><path
           style="fill:#000000;stroke-width:0"
           inkscape:connector-curvature="0"
           id="path3335"
           d="m 578.3,312.63 0.33,0.18 0.33,0.18 0.32,0.18 0.31,0.19 0.31,0.19 0.29,0.2 0.29,0.2 0.28,0.21 0.27,0.21 0.26,0.21 0.26,0.22 0.24,0.22 0.23,0.23 0.23,0.23 0.21,0.23 0.2,0.24 0.2,0.25 0.18,0.25 0.17,0.25 0.16,0.25 0.15,0.26 0.14,0.27 0.12,0.27 0.12,0.27 0.1,0.28 0.08,0.28 0.08,0.28 0.06,0.29 0.05,0.3 0.03,0.29 0.02,0.31 0.01,0.3 c 0,4.6 -4.43,7.44 -8.97,7.44 l -0.04,-1.25 c 3.64,0 6.83,-2.59 6.83,-6.19 0,-2.83 -1.96,-5.22 -4.94,-6.97 l -6.18,3.99 c -2.29,1.5 -2.5,3.18 -2.5,4.03 0,3.05 3.25,5.14 6.79,5.14 l 0.04,1.25 c -4.98,0 -9.01,-3.69 -9.01,-8.33 0,-0.89 0.09,-3.14 2.18,-5.48 0.55,-0.6 2.4,-1.85 3.65,-2.69 l 1.14,-0.75 6.14,-3.88 c 1.39,-0.95 3.73,-2.45 3.73,-5.48 0,-3.69 -3.73,-6.28 -7.83,-6.28 -4.28,0 -7.87,3.09 -7.87,7.22 0,2.89 1.59,6.08 5.83,8.42 h 0 l -1.14,0.75 c -2.9,-1.44 -7.18,-4.24 -7.18,-9.17 0,-5.28 5.08,-8.61 10.32,-8.61 5.62,0 10.36,4.14 10.36,9.47 0,1.78 -0.55,4.03 -2.44,6.12 -0.96,1.05 -1.75,1.55 -4.94,3.53 z" /><path
           style="fill:#000000;stroke-width:0"
           inkscape:connector-curvature="0"
           id="path3337"
           d="m 616.81,368.27 -0.02,2.82 -0.04,2.74 -0.08,2.67 -0.1,2.6 -0.12,2.52 -0.15,2.44 -0.17,2.38 -0.19,2.29 -0.21,2.23 -0.23,2.15 -0.24,2.07 -0.25,2.01 -0.27,1.92 -0.27,1.86 -0.28,1.77 -0.29,1.71 -0.29,1.63 -0.3,1.55 -0.3,1.48 -0.29,1.41 -0.3,1.33 -0.29,1.26 -0.28,1.18 -0.28,1.11 -0.26,1.03 -0.26,0.96 -0.24,0.89 -0.23,0.8 -0.21,0.74 -0.2,0.66 -0.18,0.58 -0.15,0.51 c -3.39,11.06 -8.92,22.72 -17.25,32.98 -0.75,0.91 -0.94,1.16 -1.14,1.25 -0.1,0.05 -0.16,0.1 -0.95,0.1 -0.74,0 -1.15,0 -1.15,-0.5 0,-0.1 0,-0.19 0.65,-1.1 17.34,-24.2 21.23,-54.09 21.28,-87.82 0,-0.71 0.29,-0.71 1.39,-0.71 h 2.75 c 1.05,0 1.34,0 1.39,0.55 z" /><path
           style="fill:#000000;stroke-width:0"
           inkscape:connector-curvature="0"
           id="path3339"
           d="m 616.81,366.26 -0.01,0.05 0,0.04 -0.01,0.05 -0.01,0.04 -0.01,0.04 -0.02,0.03 -0.01,0.03 -0.02,0.03 -0.02,0.03 -0.02,0.03 -0.03,0.02 -0.03,0.02 -0.03,0.02 -0.03,0.02 -0.03,0.01 -0.04,0.02 -0.04,0.01 -0.05,0.01 -0.04,0.01 -0.05,0.01 -0.06,0 -0.05,0.01 -0.07,0 -0.06,0.01 -0.07,0 -0.07,0 -0.07,0 -0.08,0 -0.09,0 -0.08,0 -0.1,0 -0.09,0 h -2.75 c -1.1,0 -1.39,0 -1.39,-0.68 0,-5.14 -0.05,-17 -1.35,-29.39 -2.68,-25.77 -9.31,-43.6 -20.23,-58.89 -0.35,-0.46 -0.35,-0.55 -0.35,-0.66 0,-0.5 0.41,-0.5 1.15,-0.5 0.79,0 0.9,0 1,0.11 0.2,0.14 6.53,7.42 11.56,17.44 6.58,13.14 10.7,28.25 12.54,46.37 0.16,1.55 1.21,11.91 1.21,23.72 z" /></g>    </g>
    <g
       transform="translate(127,182)"
       id="g3459">
      <g
         style="font-style:normal;font-variant:normal;font-weight:normal;font-stretch:normal;letter-spacing:normal;word-spacing:normal;text-anchor:start;fill:none;stroke:#000000;stroke-linecap:butt;stroke-linejoin:miter;stroke-miterlimit:10.43299961;stroke-opacity:1;stroke-dasharray:none;stroke-dashoffset:0"
         id="g3461"
         transform="matrix(0.36034293,0,0,-0.36034293,-63.060012,403.49762)"
         xml:space="preserve"
         stroke-miterlimit="10.433"
         font-style="normal"
         font-variant="normal"
         font-weight="normal"
         font-stretch="normal"
         font-size-adjust="none"
         letter-spacing="normal"
         word-spacing="normal"><path
           style="fill:#000000;stroke-width:0"
           inkscape:connector-curvature="0"
           d="m 474.16,365.77 0.1,0 0.1,0 0.09,0 0.08,0 0.09,0.01 0.07,0 0.08,0 0.07,0 0.07,0.01 0.06,0 0.06,0.01 0.05,0.01 0.05,0.01 0.05,0.01 0.04,0.02 0.05,0.01 0.03,0.02 0.04,0.02 0.03,0.02 0.03,0.02 0.03,0.03 0.02,0.03 0.02,0.03 0.02,0.04 0.01,0.04 0.02,0.04 0.01,0.05 0.01,0.04 0,0.06 0.01,0.05 0,0.06 0,0.07 c 0.09,34.92 4.13,63.92 21.56,88.28 0.36,0.45 0.36,0.54 0.36,0.64 0,0.5 -0.36,0.5 -1.15,0.5 -0.8,0 -0.89,0 -0.99,-0.1 -0.2,-0.15 -6.53,-7.42 -11.56,-17.43 -6.58,-13.16 -10.72,-28.25 -12.56,-46.39 -0.14,-1.53 -1.19,-11.91 -1.19,-23.71 v -1.95 c 0.05,-0.55 0.34,-0.55 1.39,-0.55 z"
           id="path3463" /><path
           style="fill:#000000;stroke-width:0"
           inkscape:connector-curvature="0"
           d="m 471.41,366.8 -0.1,0 -0.09,0 -0.09,0 -0.08,0 -0.08,0 -0.07,0 -0.07,0 -0.07,0 -0.07,-0.01 -0.06,0 -0.05,-0.01 -0.06,0 -0.05,-0.01 -0.05,-0.01 -0.04,-0.01 -0.04,-0.01 -0.04,-0.02 -0.03,-0.01 -0.04,-0.02 -0.03,-0.02 -0.02,-0.02 -0.03,-0.02 -0.02,-0.03 -0.02,-0.03 -0.02,-0.03 -0.01,-0.03 -0.02,-0.03 -0.01,-0.04 -0.01,-0.04 -0.01,-0.05 0,-0.04 -0.01,-0.05 v -1.94 c 0,-30.44 5.42,-48.28 6.97,-53.31 3.39,-11.06 8.92,-22.72 17.25,-32.99 0.73,-0.89 0.94,-1.14 1.14,-1.23 0.09,-0.06 0.14,-0.11 0.94,-0.11 0.79,0 1.15,0 1.15,0.5 0,0.11 0,0.2 -0.29,0.66 -16.6,23.01 -21.58,50.71 -21.63,88.28 0,0.68 -0.3,0.68 -1.39,0.68 z"
           id="path3465" /><path
           style="fill:#000000;stroke-width:0"
           inkscape:connector-curvature="0"
           d="m 522.12,430.06 0,0.75 -0.01,0.74 -0.02,0.75 -0.04,0.74 -0.04,0.75 -0.06,0.74 -0.08,0.74 -0.09,0.73 -0.12,0.74 -0.14,0.72 -0.16,0.73 -0.19,0.71 -0.21,0.72 -0.25,0.7 -0.28,0.7 -0.15,0.35 -0.16,0.34 c -2.28,4.8 -6.37,5.6 -8.47,5.6 -2.98,0 -6.62,-1.3 -8.67,-5.94 -1.59,-3.44 -1.84,-7.33 -1.84,-11.31 0,-3.74 0.2,-8.22 2.25,-12 2.14,-4.03 5.78,-5.03 8.22,-5.03 v 1.09 c -1.94,0 -4.9,1.25 -5.79,6.03 -0.54,2.99 -0.54,7.56 -0.54,10.52 0,3.19 0,6.47 0.4,9.15 0.94,5.94 4.68,6.38 5.93,6.38 1.64,0 4.93,-0.89 5.87,-5.83 0.5,-2.78 0.5,-6.58 0.5,-9.7 0,-3.75 0,-7.13 -0.55,-10.31 -0.75,-4.74 -3.59,-6.24 -5.82,-6.24 h 0 v -1.09 c 2.68,0 6.46,1.04 8.67,5.78 1.59,3.44 1.84,7.31 1.84,11.25 z"
           id="path3467" /><path
           style="fill:#000000;stroke-width:0"
           inkscape:connector-curvature="0"
           d="m 533.72,416.76 0,0.14 -0.01,0.13 -0.02,0.13 -0.02,0.13 -0.03,0.12 -0.04,0.13 -0.04,0.12 -0.05,0.12 -0.05,0.12 -0.06,0.11 -0.06,0.11 -0.07,0.11 -0.08,0.1 -0.08,0.1 -0.08,0.1 -0.09,0.09 -0.09,0.09 -0.09,0.08 -0.1,0.08 -0.11,0.08 -0.11,0.06 -0.11,0.07 -0.11,0.06 -0.12,0.05 -0.12,0.05 -0.12,0.04 -0.12,0.04 -0.13,0.03 -0.13,0.02 -0.13,0.02 -0.14,0.01 -0.13,0 c -1.44,0 -2.64,-1.2 -2.64,-2.64 0,-1.44 1.2,-2.64 2.64,-2.64 1.45,0 2.64,1.2 2.64,2.64 z"
           id="path3469" /><path
           style="fill:#000000;stroke-width:0"
           inkscape:connector-curvature="0"
           d="m 544.28,417.96 5.28,5.13 c 7.77,6.87 10.77,9.56 10.77,14.55 0,5.68 -4.49,9.67 -10.56,9.67 -5.65,0 -9.33,-4.6 -9.33,-9.03 0,-2.78 2.5,-2.78 2.64,-2.78 0.86,0 2.59,0.59 2.59,2.64 0,1.29 -0.89,2.59 -2.64,2.59 -0.39,0 -0.5,0 -0.64,-0.05 1.14,3.24 3.83,5.08 6.72,5.08 4.53,0 6.69,-4.05 6.69,-8.12 0,-3.99 -2.5,-7.93 -5.24,-11.02 L 541,415.96 c -0.56,-0.54 -0.56,-0.64 -0.56,-1.84 h 18.48 l 1.41,8.67 h -1.25 c -0.25,-1.5 -0.6,-3.68 -1.1,-4.43 -0.36,-0.4 -3.64,-0.4 -4.73,-0.4 z"
           id="path3471" /><path
           style="fill:#000000;stroke-width:0"
           inkscape:connector-curvature="0"
           d="m 569.24,417.96 5.28,5.13 c 7.76,6.87 10.76,9.56 10.76,14.55 0,5.68 -4.48,9.67 -10.56,9.67 -5.64,0 -9.32,-4.6 -9.32,-9.03 0,-2.78 2.5,-2.78 2.63,-2.78 0.87,0 2.6,0.59 2.6,2.64 0,1.29 -0.89,2.59 -2.64,2.59 -0.39,0 -0.5,0 -0.64,-0.05 1.14,3.24 3.83,5.08 6.72,5.08 4.53,0 6.68,-4.05 6.68,-8.12 0,-3.99 -2.5,-7.93 -5.23,-11.02 l -9.56,-10.66 c -0.56,-0.54 -0.56,-0.64 -0.56,-1.84 h 18.48 l 1.4,8.67 h -1.25 c -0.25,-1.5 -0.59,-3.68 -1.09,-4.43 -0.36,-0.4 -3.64,-0.4 -4.73,-0.4 z"
           id="path3473" /><path
           style="fill:#000000;stroke-width:0"
           inkscape:connector-curvature="0"
           d="m 522.12,370.3 0,0.74 -0.01,0.75 -0.02,0.75 -0.04,0.74 -0.04,0.75 -0.06,0.74 -0.08,0.74 -0.09,0.73 -0.12,0.73 -0.14,0.73 -0.16,0.72 -0.19,0.72 -0.21,0.72 -0.25,0.7 -0.28,0.7 -0.15,0.35 -0.16,0.34 c -2.28,4.8 -6.37,5.6 -8.47,5.6 -2.98,0 -6.62,-1.3 -8.67,-5.94 -1.59,-3.44 -1.84,-7.33 -1.84,-11.31 0,-3.74 0.2,-8.22 2.25,-12 2.14,-4.03 5.78,-5.03 8.22,-5.03 v 1.09 c -1.94,0 -4.9,1.25 -5.79,6.03 -0.54,2.99 -0.54,7.56 -0.54,10.52 0,3.18 0,6.47 0.4,9.15 0.94,5.94 4.68,6.38 5.93,6.38 1.64,0 4.93,-0.89 5.87,-5.83 0.5,-2.78 0.5,-6.58 0.5,-9.7 0,-3.75 0,-7.13 -0.55,-10.32 -0.75,-4.73 -3.59,-6.23 -5.82,-6.23 h 0 v -1.09 c 2.68,0 6.46,1.04 8.67,5.78 1.59,3.43 1.84,7.31 1.84,11.25 z"
           id="path3475" /><path
           style="fill:#000000;stroke-width:0"
           inkscape:connector-curvature="0"
           d="m 533.72,357 0,0.13 -0.01,0.14 -0.02,0.13 -0.02,0.13 -0.03,0.12 -0.04,0.13 -0.04,0.12 -0.05,0.12 -0.05,0.12 -0.06,0.11 -0.06,0.11 -0.07,0.11 -0.08,0.1 -0.08,0.1 -0.08,0.1 -0.09,0.09 -0.09,0.09 -0.09,0.08 -0.1,0.08 -0.11,0.07 -0.11,0.07 -0.11,0.07 -0.11,0.06 -0.12,0.05 -0.12,0.05 -0.12,0.04 -0.12,0.04 -0.13,0.03 -0.13,0.02 -0.13,0.02 -0.14,0.01 -0.13,0 c -1.44,0 -2.64,-1.2 -2.64,-2.64 0,-1.44 1.2,-2.64 2.64,-2.64 1.45,0 2.64,1.2 2.64,2.64 z"
           id="path3477" /><path
           style="fill:#000000;stroke-width:0"
           inkscape:connector-curvature="0"
           d="m 552.59,362.58 v -4.33 c 0,-1.8 -0.09,-2.34 -3.78,-2.34 h -1.04 v -1.55 c 2.04,0.16 4.64,0.16 6.73,0.16 2.09,0 4.73,0 6.77,-0.16 v 1.55 h -1.05 c -3.69,0 -3.78,0.54 -3.78,2.34 v 4.33 h 4.98 v 1.54 h -4.98 v 22.68 c 0,1 0,1.29 -0.8,1.29 -0.45,0 -0.59,0 -1,-0.61 l -15.3,-23.36 h 1.41 l 12.16,18.58 v -18.58 h -12.16 -1.41 v -1.54 z"
           id="path3479" /><path
           style="fill:#000000;stroke-width:0"
           inkscape:connector-curvature="0"
           d="m 577.55,386.25 0,0.05 0,0.06 0,0.05 0,0.05 0,0.05 0,0.05 0,0.04 0,0.05 0,0.04 0,0.04 0,0.04 -0.01,0.04 0,0.04 0,0.03 0,0.04 -0.01,0.03 0,0.07 -0.01,0.06 -0.02,0.05 -0.01,0.05 -0.02,0.05 -0.01,0.04 -0.03,0.04 -0.02,0.03 -0.03,0.04 -0.03,0.02 -0.04,0.03 -0.04,0.02 -0.04,0.02 -0.03,0.01 -0.02,0.01 -0.03,0 -0.02,0.01 -0.03,0.01 -0.03,0 -0.03,0.01 -0.03,0 -0.04,0.01 -0.03,0 -0.04,0 -0.03,0.01 -0.04,0 -0.04,0 -0.05,0 -0.04,0 -0.04,0 -0.05,0.01 -0.05,0 -0.05,0 -0.05,0 -0.05,0 c -3.09,-3.19 -7.47,-3.19 -9.06,-3.19 v -1.55 c 1,0 3.93,0 6.51,1.3 V 358.3 c 0,-1.8 -0.14,-2.39 -4.62,-2.39 h -1.59 v -1.55 c 1.75,0.16 6.07,0.16 8.06,0.16 2,0 6.32,0 8.07,-0.16 v 1.55 h -1.59 c -4.48,0 -4.64,0.54 -4.64,2.39 z"
           id="path3481" /><path
           style="fill:#000000;stroke-width:0"
           inkscape:connector-curvature="0"
           d="m 522.12,310.54 0,0.75 -0.01,0.74 -0.02,0.75 -0.04,0.74 -0.04,0.75 -0.06,0.74 -0.08,0.74 -0.09,0.73 -0.12,0.74 -0.14,0.72 -0.16,0.73 -0.19,0.71 -0.21,0.72 -0.25,0.7 -0.28,0.7 -0.15,0.35 -0.16,0.35 c -2.28,4.79 -6.37,5.59 -8.47,5.59 -2.98,0 -6.62,-1.3 -8.67,-5.94 -1.59,-3.44 -1.84,-7.33 -1.84,-11.31 0,-3.74 0.2,-8.22 2.25,-12 2.14,-4.03 5.78,-5.03 8.22,-5.03 v 1.09 c -1.94,0 -4.9,1.25 -5.79,6.03 -0.54,2.99 -0.54,7.57 -0.54,10.52 0,3.19 0,6.47 0.4,9.15 0.94,5.94 4.68,6.38 5.93,6.38 1.64,0 4.93,-0.89 5.87,-5.83 0.5,-2.78 0.5,-6.58 0.5,-9.7 0,-3.75 0,-7.13 -0.55,-10.31 -0.75,-4.74 -3.59,-6.24 -5.82,-6.24 h 0 v -1.09 c 2.68,0 6.46,1.04 8.67,5.78 1.59,3.44 1.84,7.31 1.84,11.25 z"
           id="path3483" /><path
           style="fill:#000000;stroke-width:0"
           inkscape:connector-curvature="0"
           d="m 533.72,297.24 0,0.14 -0.01,0.13 -0.02,0.13 -0.02,0.13 -0.03,0.13 -0.04,0.12 -0.04,0.12 -0.05,0.12 -0.05,0.12 -0.06,0.11 -0.06,0.11 -0.07,0.11 -0.08,0.1 -0.08,0.1 -0.08,0.1 -0.09,0.09 -0.09,0.09 -0.09,0.08 -0.1,0.08 -0.11,0.08 -0.11,0.07 -0.11,0.06 -0.11,0.06 -0.12,0.05 -0.12,0.05 -0.12,0.04 -0.12,0.04 -0.13,0.03 -0.13,0.02 -0.13,0.02 -0.14,0.01 -0.13,0 c -1.44,0 -2.64,-1.2 -2.64,-2.64 0,-1.44 1.2,-2.64 2.64,-2.64 1.45,0 2.64,1.2 2.64,2.64 z"
           id="path3485" /><path
           style="fill:#000000;stroke-width:0"
           inkscape:connector-curvature="0"
           d="m 552.41,312.13 0.37,0.14 0.38,0.14 0.36,0.16 0.36,0.16 0.34,0.18 0.34,0.2 0.33,0.2 0.33,0.21 0.31,0.22 0.3,0.23 0.29,0.24 0.28,0.25 0.27,0.26 0.26,0.27 0.25,0.28 0.24,0.28 0.22,0.29 0.22,0.3 0.2,0.31 0.19,0.31 0.17,0.32 0.16,0.32 0.15,0.33 0.13,0.34 0.12,0.34 0.1,0.35 0.09,0.35 0.07,0.35 0.06,0.36 0.04,0.36 0.03,0.37 0.01,0.36 c 0,4.08 -4.4,6.88 -9.18,6.88 -5.03,0 -8.81,-3 -8.81,-6.78 0,-1.64 1.09,-2.6 2.55,-2.6 1.53,0 2.53,1.1 2.53,2.55 0,2.49 -2.35,2.49 -3.08,2.49 1.53,2.43 4.83,3.09 6.63,3.09 2.03,0 4.78,-1.09 4.78,-5.58 0,-0.61 -0.11,-3.48 -1.41,-5.69 -1.48,-2.39 -3.19,-2.53 -4.42,-2.59 -0.41,-0.05 -1.59,-0.14 -1.95,-0.14 -0.4,-0.05 -0.75,-0.09 -0.75,-0.59 0,-0.55 0.35,-0.55 1.2,-0.55 h 2.19 c 4.09,0 5.93,-3.39 5.93,-8.28 0,-6.77 -3.43,-8.22 -5.64,-8.22 -2.14,0 -5.87,0.84 -7.61,3.78 1.74,-0.23 3.28,0.86 3.28,2.75 0,1.8 -1.34,2.78 -2.79,2.78 -1.19,0 -2.78,-0.69 -2.78,-2.89 0,-4.53 4.62,-7.81 10.06,-7.81 6.08,0 10.61,4.53 10.61,9.61 0,4.09 -3.14,7.97 -8.31,9.01 z"
           id="path3487" /><path
           style="fill:#000000;stroke-width:0"
           inkscape:connector-curvature="0"
           d="m 586.63,324.95 0.04,0.05 0.04,0.05 0.03,0.05 0.03,0.05 0.03,0.04 0.03,0.05 0.03,0.04 0.02,0.04 0.02,0.04 0.02,0.04 0.02,0.04 0.02,0.04 0.01,0.04 0.02,0.04 0.01,0.04 0.01,0.04 0.01,0.05 0.01,0.04 0.01,0.05 0,0.05 0.01,0.05 0,0.05 0.01,0.06 0,0.06 0,0.06 0,0.07 0,0.07 0.01,0.08 0,0.08 0,0.08 0,0.09 0,0.05 0,0.05 h -12.1 c -6.07,0 -6.19,0.66 -6.39,1.59 h -1.23 l -1.64,-10.25 h 1.23 c 0.16,0.8 0.61,3.94 1.25,4.53 0.34,0.3 4.24,0.3 4.88,0.3 h 10.33 c -0.57,-0.8 -4.49,-6.23 -5.6,-7.87 -4.48,-6.72 -6.12,-13.66 -6.12,-18.74 0,-0.5 0,-2.73 2.29,-2.73 2.3,0 2.3,2.23 2.3,2.73 v 2.55 c 0,2.73 0.14,5.48 0.55,8.17 0.18,1.14 0.89,5.42 3.08,8.52 z"
           id="path3489" /><path
           style="fill:#000000;stroke-width:0"
           inkscape:connector-curvature="0"
           d="m 616.81,368.27 -0.02,2.82 -0.04,2.74 -0.08,2.67 -0.1,2.6 -0.12,2.52 -0.15,2.44 -0.17,2.38 -0.19,2.29 -0.21,2.23 -0.23,2.15 -0.24,2.07 -0.25,2.01 -0.27,1.92 -0.27,1.86 -0.28,1.77 -0.29,1.71 -0.29,1.63 -0.3,1.55 -0.3,1.48 -0.29,1.41 -0.3,1.33 -0.29,1.26 -0.28,1.18 -0.28,1.11 -0.26,1.03 -0.26,0.96 -0.24,0.89 -0.23,0.8 -0.21,0.74 -0.2,0.66 -0.18,0.58 -0.15,0.51 c -3.39,11.06 -8.92,22.72 -17.25,32.98 -0.75,0.91 -0.94,1.16 -1.14,1.25 -0.1,0.05 -0.16,0.1 -0.95,0.1 -0.74,0 -1.15,0 -1.15,-0.5 0,-0.1 0,-0.19 0.65,-1.1 17.34,-24.2 21.23,-54.09 21.28,-87.82 0,-0.71 0.29,-0.71 1.39,-0.71 h 2.75 c 1.05,0 1.34,0 1.39,0.55 z"
           id="path3491" /><path
           style="fill:#000000;stroke-width:0"
           inkscape:connector-curvature="0"
           d="m 616.81,366.26 -0.01,0.05 0,0.04 -0.01,0.05 -0.01,0.04 -0.01,0.04 -0.02,0.03 -0.01,0.03 -0.02,0.03 -0.02,0.03 -0.02,0.03 -0.03,0.02 -0.03,0.02 -0.03,0.02 -0.03,0.02 -0.03,0.01 -0.04,0.02 -0.04,0.01 -0.05,0.01 -0.04,0.01 -0.05,0.01 -0.06,0 -0.05,0.01 -0.07,0 -0.06,0.01 -0.07,0 -0.07,0 -0.07,0 -0.08,0 -0.09,0 -0.08,0 -0.1,0 -0.09,0 h -2.75 c -1.1,0 -1.39,0 -1.39,-0.68 0,-5.14 -0.05,-17 -1.35,-29.39 -2.68,-25.77 -9.31,-43.6 -20.23,-58.89 -0.35,-0.46 -0.35,-0.55 -0.35,-0.66 0,-0.5 0.41,-0.5 1.15,-0.5 0.79,0 0.9,0 1,0.11 0.2,0.14 6.53,7.42 11.56,17.44 6.58,13.14 10.7,28.25 12.54,46.37 0.16,1.55 1.21,11.91 1.21,23.72 z"
           id="path3493" /></g>    </g>
    <g
       id="g3649"
       transform="translate(-183,182)">
      <g
         word-spacing="normal"
         letter-spacing="normal"
         font-size-adjust="none"
         font-stretch="normal"
         font-weight="normal"
         font-variant="normal"
         font-style="normal"
         stroke-miterlimit="10.433"
         xml:space="preserve"
         transform="matrix(0.36034293,0,0,-0.36034293,-63.060012,403.49762)"
         id="g3651"
         style="font-style:normal;font-variant:normal;font-weight:normal;font-stretch:normal;letter-spacing:normal;word-spacing:normal;text-anchor:start;fill:none;stroke:#000000;stroke-linecap:butt;stroke-linejoin:miter;stroke-miterlimit:10.43299961;stroke-opacity:1;stroke-dasharray:none;stroke-dashoffset:0"><path
           id="path3653"
           d="m 474.16,365.77 0.1,0 0.1,0 0.09,0 0.08,0 0.09,0.01 0.07,0 0.08,0 0.07,0 0.07,0.01 0.06,0 0.06,0.01 0.05,0.01 0.05,0.01 0.05,0.01 0.04,0.02 0.05,0.01 0.03,0.02 0.04,0.02 0.03,0.02 0.03,0.02 0.03,0.03 0.02,0.03 0.02,0.03 0.02,0.04 0.01,0.04 0.02,0.04 0.01,0.05 0.01,0.04 0,0.06 0.01,0.05 0,0.06 0,0.07 c 0.09,34.92 4.13,63.92 21.56,88.28 0.36,0.45 0.36,0.54 0.36,0.64 0,0.5 -0.36,0.5 -1.15,0.5 -0.8,0 -0.89,0 -0.99,-0.1 -0.2,-0.15 -6.53,-7.42 -11.56,-17.43 -6.58,-13.16 -10.72,-28.25 -12.56,-46.39 -0.14,-1.53 -1.19,-11.91 -1.19,-23.71 v -1.95 c 0.05,-0.55 0.34,-0.55 1.39,-0.55 z"
           inkscape:connector-curvature="0"
           style="fill:#000000;stroke-width:0" /><path
           id="path3655"
           d="m 471.41,366.8 -0.1,0 -0.09,0 -0.09,0 -0.08,0 -0.08,0 -0.07,0 -0.07,0 -0.07,0 -0.07,-0.01 -0.06,0 -0.05,-0.01 -0.06,0 -0.05,-0.01 -0.05,-0.01 -0.04,-0.01 -0.04,-0.01 -0.04,-0.02 -0.03,-0.01 -0.04,-0.02 -0.03,-0.02 -0.02,-0.02 -0.03,-0.02 -0.02,-0.03 -0.02,-0.03 -0.02,-0.03 -0.01,-0.03 -0.02,-0.03 -0.01,-0.04 -0.01,-0.04 -0.01,-0.05 0,-0.04 -0.01,-0.05 v -1.94 c 0,-30.44 5.42,-48.28 6.97,-53.31 3.39,-11.06 8.92,-22.72 17.25,-32.99 0.73,-0.89 0.94,-1.14 1.14,-1.23 0.09,-0.06 0.14,-0.11 0.94,-0.11 0.79,0 1.15,0 1.15,0.5 0,0.11 0,0.2 -0.29,0.66 -16.6,23.01 -21.58,50.71 -21.63,88.28 0,0.68 -0.3,0.68 -1.39,0.68 z"
           inkscape:connector-curvature="0"
           style="fill:#000000;stroke-width:0" /><path
           id="path3657"
           d="m 522.12,430.06 0,0.75 -0.01,0.74 -0.02,0.75 -0.04,0.74 -0.04,0.75 -0.06,0.74 -0.08,0.74 -0.09,0.73 -0.12,0.74 -0.14,0.72 -0.16,0.73 -0.19,0.71 -0.21,0.72 -0.25,0.7 -0.28,0.7 -0.15,0.35 -0.16,0.34 c -2.28,4.8 -6.37,5.6 -8.47,5.6 -2.98,0 -6.62,-1.3 -8.67,-5.94 -1.59,-3.44 -1.84,-7.33 -1.84,-11.31 0,-3.74 0.2,-8.22 2.25,-12 2.14,-4.03 5.78,-5.03 8.22,-5.03 v 1.09 c -1.94,0 -4.9,1.25 -5.79,6.03 -0.54,2.99 -0.54,7.56 -0.54,10.52 0,3.19 0,6.47 0.4,9.15 0.94,5.94 4.68,6.38 5.93,6.38 1.64,0 4.93,-0.89 5.87,-5.83 0.5,-2.78 0.5,-6.58 0.5,-9.7 0,-3.75 0,-7.13 -0.55,-10.31 -0.75,-4.74 -3.59,-6.24 -5.82,-6.24 h 0 v -1.09 c 2.68,0 6.46,1.04 8.67,5.78 1.59,3.44 1.84,7.31 1.84,11.25 z"
           inkscape:connector-curvature="0"
           style="fill:#000000;stroke-width:0" /><path
           id="path3659"
           d="m 533.72,416.76 0,0.14 -0.01,0.13 -0.02,0.13 -0.02,0.13 -0.03,0.12 -0.04,0.13 -0.04,0.12 -0.05,0.12 -0.05,0.12 -0.06,0.11 -0.06,0.11 -0.07,0.11 -0.08,0.1 -0.08,0.1 -0.08,0.1 -0.09,0.09 -0.09,0.09 -0.09,0.08 -0.1,0.08 -0.11,0.08 -0.11,0.06 -0.11,0.07 -0.11,0.06 -0.12,0.05 -0.12,0.05 -0.12,0.04 -0.12,0.04 -0.13,0.03 -0.13,0.02 -0.13,0.02 -0.14,0.01 -0.13,0 c -1.44,0 -2.64,-1.2 -2.64,-2.64 0,-1.44 1.2,-2.64 2.64,-2.64 1.45,0 2.64,1.2 2.64,2.64 z"
           inkscape:connector-curvature="0"
           style="fill:#000000;stroke-width:0" /><path
           id="path3661"
           d="m 560.33,424.14 -0.01,0.55 -0.04,0.55 -0.06,0.53 -0.08,0.54 -0.1,0.52 -0.13,0.51 -0.14,0.51 -0.17,0.49 -0.18,0.48 -0.21,0.47 -0.22,0.46 -0.24,0.44 -0.26,0.43 -0.28,0.41 -0.29,0.4 -0.31,0.38 -0.33,0.36 -0.34,0.35 -0.35,0.33 -0.37,0.3 -0.39,0.29 -0.39,0.27 -0.41,0.24 -0.42,0.22 -0.44,0.2 -0.44,0.17 -0.46,0.15 -0.46,0.13 -0.48,0.09 -0.48,0.08 -0.49,0.04 -0.5,0.01 c -2.39,0 -4.53,-0.79 -6.33,-2.53 v 9.7 c 1,-0.29 2.64,-0.64 4.24,-0.64 6.12,0 9.61,4.54 9.61,5.19 0,0.3 -0.15,0.55 -0.5,0.55 -0.05,0 -0.15,0 -0.4,-0.16 -1,-0.45 -3.43,-1.44 -6.78,-1.44 -1.98,0 -4.28,0.35 -6.62,1.4 -0.39,0.14 -0.5,0.14 -0.6,0.14 -0.5,0 -0.5,-0.39 -0.5,-1.19 v -14.75 c 0,-0.89 0,-1.3 0.71,-1.3 0.34,0 0.43,0.16 0.64,0.45 0.55,0.8 2.39,3.49 6.42,3.49 2.59,0 3.84,-2.3 4.23,-3.19 0.82,-1.84 0.91,-3.78 0.91,-6.28 0,-1.73 0,-4.73 -1.2,-6.83 -1.19,-1.94 -3.03,-3.23 -5.33,-3.23 -3.64,0 -6.47,2.64 -7.33,5.58 0.16,-0.05 0.31,-0.1 0.86,-0.1 1.64,0 2.49,1.25 2.49,2.44 0,1.2 -0.85,2.44 -2.49,2.44 -0.7,0 -2.45,-0.35 -2.45,-2.64 0,-4.28 3.44,-9.11 9.03,-9.11 5.76,0 10.86,4.78 10.86,11.11 z"
           inkscape:connector-curvature="0"
           style="fill:#000000;stroke-width:0" /><path
           id="path3663"
           d="m 585.83,430.06 0,0.75 -0.01,0.74 -0.02,0.75 -0.03,0.74 -0.05,0.75 -0.06,0.74 -0.08,0.74 -0.09,0.73 -0.12,0.74 -0.14,0.72 -0.16,0.73 -0.19,0.71 -0.21,0.72 -0.25,0.7 -0.28,0.7 -0.15,0.35 -0.16,0.34 c -2.28,4.8 -6.37,5.6 -8.47,5.6 -2.98,0 -6.62,-1.3 -8.67,-5.94 -1.59,-3.44 -1.84,-7.33 -1.84,-11.31 0,-3.74 0.2,-8.22 2.25,-12 2.14,-4.03 5.78,-5.03 8.22,-5.03 v 1.09 c -1.94,0 -4.89,1.25 -5.79,6.03 -0.54,2.99 -0.54,7.56 -0.54,10.52 0,3.19 0,6.47 0.41,9.15 0.93,5.94 4.67,6.38 5.92,6.38 1.64,0 4.93,-0.89 5.87,-5.83 0.5,-2.78 0.5,-6.58 0.5,-9.7 0,-3.75 0,-7.13 -0.54,-10.31 -0.75,-4.74 -3.6,-6.24 -5.83,-6.24 h 0 v -1.09 c 2.68,0 6.46,1.04 8.67,5.78 1.59,3.44 1.84,7.31 1.84,11.25 z"
           inkscape:connector-curvature="0"
           style="fill:#000000;stroke-width:0" /><path
           id="path3665"
           d="m 522.12,370.3 0,0.74 -0.01,0.75 -0.02,0.75 -0.04,0.74 -0.04,0.75 -0.06,0.74 -0.08,0.74 -0.09,0.73 -0.12,0.73 -0.14,0.73 -0.16,0.72 -0.19,0.72 -0.21,0.72 -0.25,0.7 -0.28,0.7 -0.15,0.35 -0.16,0.34 c -2.28,4.8 -6.37,5.6 -8.47,5.6 -2.98,0 -6.62,-1.3 -8.67,-5.94 -1.59,-3.44 -1.84,-7.33 -1.84,-11.31 0,-3.74 0.2,-8.22 2.25,-12 2.14,-4.03 5.78,-5.03 8.22,-5.03 v 1.09 c -1.94,0 -4.9,1.25 -5.79,6.03 -0.54,2.99 -0.54,7.56 -0.54,10.52 0,3.18 0,6.47 0.4,9.15 0.94,5.94 4.68,6.38 5.93,6.38 1.64,0 4.93,-0.89 5.87,-5.83 0.5,-2.78 0.5,-6.58 0.5,-9.7 0,-3.75 0,-7.13 -0.55,-10.32 -0.75,-4.73 -3.59,-6.23 -5.82,-6.23 h 0 v -1.09 c 2.68,0 6.46,1.04 8.67,5.78 1.59,3.43 1.84,7.31 1.84,11.25 z"
           inkscape:connector-curvature="0"
           style="fill:#000000;stroke-width:0" /><path
           id="path3667"
           d="m 533.72,357 0,0.13 -0.01,0.14 -0.02,0.13 -0.02,0.13 -0.03,0.12 -0.04,0.13 -0.04,0.12 -0.05,0.12 -0.05,0.12 -0.06,0.11 -0.06,0.11 -0.07,0.11 -0.08,0.1 -0.08,0.1 -0.08,0.1 -0.09,0.09 -0.09,0.09 -0.09,0.08 -0.1,0.08 -0.11,0.07 -0.11,0.07 -0.11,0.07 -0.11,0.06 -0.12,0.05 -0.12,0.05 -0.12,0.04 -0.12,0.04 -0.13,0.03 -0.13,0.02 -0.13,0.02 -0.14,0.01 -0.13,0 c -1.44,0 -2.64,-1.2 -2.64,-2.64 0,-1.44 1.2,-2.64 2.64,-2.64 1.45,0 2.64,1.2 2.64,2.64 z"
           inkscape:connector-curvature="0"
           style="fill:#000000;stroke-width:0" /><path
           id="path3669"
           d="m 544.28,358.2 5.28,5.13 c 7.77,6.87 10.77,9.56 10.77,14.55 0,5.68 -4.49,9.67 -10.56,9.67 -5.65,0 -9.33,-4.6 -9.33,-9.03 0,-2.79 2.5,-2.79 2.64,-2.79 0.86,0 2.59,0.6 2.59,2.65 0,1.29 -0.89,2.59 -2.64,2.59 -0.39,0 -0.5,0 -0.64,-0.05 1.14,3.24 3.83,5.08 6.72,5.08 4.53,0 6.69,-4.05 6.69,-8.12 0,-3.99 -2.5,-7.93 -5.24,-11.02 L 541,356.2 c -0.56,-0.54 -0.56,-0.64 -0.56,-1.84 h 18.48 l 1.41,8.67 h -1.25 c -0.25,-1.5 -0.6,-3.69 -1.1,-4.44 -0.36,-0.39 -3.64,-0.39 -4.73,-0.39 z"
           inkscape:connector-curvature="0"
           style="fill:#000000;stroke-width:0" /><path
           id="path3671"
           d="m 585.83,370.3 0,0.74 -0.01,0.75 -0.02,0.75 -0.03,0.74 -0.05,0.75 -0.06,0.74 -0.08,0.74 -0.09,0.73 -0.12,0.73 -0.14,0.73 -0.16,0.72 -0.19,0.72 -0.21,0.72 -0.25,0.7 -0.28,0.7 -0.15,0.35 -0.16,0.34 c -2.28,4.8 -6.37,5.6 -8.47,5.6 -2.98,0 -6.62,-1.3 -8.67,-5.94 -1.59,-3.44 -1.84,-7.33 -1.84,-11.31 0,-3.74 0.2,-8.22 2.25,-12 2.14,-4.03 5.78,-5.03 8.22,-5.03 v 1.09 c -1.94,0 -4.89,1.25 -5.79,6.03 -0.54,2.99 -0.54,7.56 -0.54,10.52 0,3.18 0,6.47 0.41,9.15 0.93,5.94 4.67,6.38 5.92,6.38 1.64,0 4.93,-0.89 5.87,-5.83 0.5,-2.78 0.5,-6.58 0.5,-9.7 0,-3.75 0,-7.13 -0.54,-10.32 -0.75,-4.73 -3.6,-6.23 -5.83,-6.23 h 0 v -1.09 c 2.68,0 6.46,1.04 8.67,5.78 1.59,3.43 1.84,7.31 1.84,11.25 z"
           inkscape:connector-curvature="0"
           style="fill:#000000;stroke-width:0" /><path
           id="path3673"
           d="m 522.12,310.54 0,0.75 -0.01,0.74 -0.02,0.75 -0.04,0.74 -0.04,0.75 -0.06,0.74 -0.08,0.74 -0.09,0.73 -0.12,0.74 -0.14,0.72 -0.16,0.73 -0.19,0.71 -0.21,0.72 -0.25,0.7 -0.28,0.7 -0.15,0.35 -0.16,0.35 c -2.28,4.79 -6.37,5.59 -8.47,5.59 -2.98,0 -6.62,-1.3 -8.67,-5.94 -1.59,-3.44 -1.84,-7.33 -1.84,-11.31 0,-3.74 0.2,-8.22 2.25,-12 2.14,-4.03 5.78,-5.03 8.22,-5.03 v 1.09 c -1.94,0 -4.9,1.25 -5.79,6.03 -0.54,2.99 -0.54,7.57 -0.54,10.52 0,3.19 0,6.47 0.4,9.15 0.94,5.94 4.68,6.38 5.93,6.38 1.64,0 4.93,-0.89 5.87,-5.83 0.5,-2.78 0.5,-6.58 0.5,-9.7 0,-3.75 0,-7.13 -0.55,-10.31 -0.75,-4.74 -3.59,-6.24 -5.82,-6.24 h 0 v -1.09 c 2.68,0 6.46,1.04 8.67,5.78 1.59,3.44 1.84,7.31 1.84,11.25 z"
           inkscape:connector-curvature="0"
           style="fill:#000000;stroke-width:0" /><path
           id="path3675"
           d="m 533.72,297.24 0,0.14 -0.01,0.13 -0.02,0.13 -0.02,0.13 -0.03,0.13 -0.04,0.12 -0.04,0.12 -0.05,0.12 -0.05,0.12 -0.06,0.11 -0.06,0.11 -0.07,0.11 -0.08,0.1 -0.08,0.1 -0.08,0.1 -0.09,0.09 -0.09,0.09 -0.09,0.08 -0.1,0.08 -0.11,0.08 -0.11,0.07 -0.11,0.06 -0.11,0.06 -0.12,0.05 -0.12,0.05 -0.12,0.04 -0.12,0.04 -0.13,0.03 -0.13,0.02 -0.13,0.02 -0.14,0.01 -0.13,0 c -1.44,0 -2.64,-1.2 -2.64,-2.64 0,-1.44 1.2,-2.64 2.64,-2.64 1.45,0 2.64,1.2 2.64,2.64 z"
           inkscape:connector-curvature="0"
           style="fill:#000000;stroke-width:0" /><path
           id="path3677"
           d="m 552.41,312.13 0.37,0.14 0.38,0.14 0.36,0.16 0.36,0.16 0.34,0.18 0.34,0.2 0.33,0.2 0.33,0.21 0.31,0.22 0.3,0.23 0.29,0.24 0.28,0.25 0.27,0.26 0.26,0.27 0.25,0.28 0.24,0.28 0.22,0.29 0.22,0.3 0.2,0.31 0.19,0.31 0.17,0.32 0.16,0.32 0.15,0.33 0.13,0.34 0.12,0.34 0.1,0.35 0.09,0.35 0.07,0.35 0.06,0.36 0.04,0.36 0.03,0.37 0.01,0.36 c 0,4.08 -4.4,6.88 -9.18,6.88 -5.03,0 -8.81,-3 -8.81,-6.78 0,-1.64 1.09,-2.6 2.55,-2.6 1.53,0 2.53,1.1 2.53,2.55 0,2.49 -2.35,2.49 -3.08,2.49 1.53,2.43 4.83,3.09 6.63,3.09 2.03,0 4.78,-1.09 4.78,-5.58 0,-0.61 -0.11,-3.48 -1.41,-5.69 -1.48,-2.39 -3.19,-2.53 -4.42,-2.59 -0.41,-0.05 -1.59,-0.14 -1.95,-0.14 -0.4,-0.05 -0.75,-0.09 -0.75,-0.59 0,-0.55 0.35,-0.55 1.2,-0.55 h 2.19 c 4.09,0 5.93,-3.39 5.93,-8.28 0,-6.77 -3.43,-8.22 -5.64,-8.22 -2.14,0 -5.87,0.84 -7.61,3.78 1.74,-0.23 3.28,0.86 3.28,2.75 0,1.8 -1.34,2.78 -2.79,2.78 -1.19,0 -2.78,-0.69 -2.78,-2.89 0,-4.53 4.62,-7.81 10.06,-7.81 6.08,0 10.61,4.53 10.61,9.61 0,4.09 -3.14,7.97 -8.31,9.01 z"
           inkscape:connector-curvature="0"
           style="fill:#000000;stroke-width:0" /><path
           id="path3679"
           d="m 585.83,310.54 0,0.75 -0.01,0.74 -0.02,0.75 -0.03,0.74 -0.05,0.75 -0.06,0.74 -0.08,0.74 -0.09,0.73 -0.12,0.74 -0.14,0.72 -0.16,0.73 -0.19,0.71 -0.21,0.72 -0.25,0.7 -0.28,0.7 -0.15,0.35 -0.16,0.35 c -2.28,4.79 -6.37,5.59 -8.47,5.59 -2.98,0 -6.62,-1.3 -8.67,-5.94 -1.59,-3.44 -1.84,-7.33 -1.84,-11.31 0,-3.74 0.2,-8.22 2.25,-12 2.14,-4.03 5.78,-5.03 8.22,-5.03 v 1.09 c -1.94,0 -4.89,1.25 -5.79,6.03 -0.54,2.99 -0.54,7.57 -0.54,10.52 0,3.19 0,6.47 0.41,9.15 0.93,5.94 4.67,6.38 5.92,6.38 1.64,0 4.93,-0.89 5.87,-5.83 0.5,-2.78 0.5,-6.58 0.5,-9.7 0,-3.75 0,-7.13 -0.54,-10.31 -0.75,-4.74 -3.6,-6.24 -5.83,-6.24 h 0 v -1.09 c 2.68,0 6.46,1.04 8.67,5.78 1.59,3.44 1.84,7.31 1.84,11.25 z"
           inkscape:connector-curvature="0"
           style="fill:#000000;stroke-width:0" /><path
           id="path3681"
           d="m 616.81,368.27 -0.02,2.82 -0.04,2.74 -0.08,2.67 -0.1,2.6 -0.12,2.52 -0.15,2.44 -0.17,2.38 -0.19,2.29 -0.21,2.23 -0.23,2.15 -0.24,2.07 -0.25,2.01 -0.27,1.92 -0.27,1.86 -0.28,1.77 -0.29,1.71 -0.29,1.63 -0.3,1.55 -0.3,1.48 -0.29,1.41 -0.3,1.33 -0.29,1.26 -0.28,1.18 -0.28,1.11 -0.26,1.03 -0.26,0.96 -0.24,0.89 -0.23,0.8 -0.21,0.74 -0.2,0.66 -0.18,0.58 -0.15,0.51 c -3.39,11.06 -8.92,22.72 -17.25,32.98 -0.75,0.91 -0.94,1.16 -1.14,1.25 -0.1,0.05 -0.16,0.1 -0.95,0.1 -0.74,0 -1.15,0 -1.15,-0.5 0,-0.1 0,-0.19 0.65,-1.1 17.34,-24.2 21.23,-54.09 21.28,-87.82 0,-0.71 0.29,-0.71 1.39,-0.71 h 2.75 c 1.05,0 1.34,0 1.39,0.55 z"
           inkscape:connector-curvature="0"
           style="fill:#000000;stroke-width:0" /><path
           id="path3683"
           d="m 616.81,366.26 -0.01,0.05 0,0.04 -0.01,0.05 -0.01,0.04 -0.01,0.04 -0.02,0.03 -0.01,0.03 -0.02,0.03 -0.02,0.03 -0.02,0.03 -0.03,0.02 -0.03,0.02 -0.03,0.02 -0.03,0.02 -0.03,0.01 -0.04,0.02 -0.04,0.01 -0.05,0.01 -0.04,0.01 -0.05,0.01 -0.06,0 -0.05,0.01 -0.07,0 -0.06,0.01 -0.07,0 -0.07,0 -0.07,0 -0.08,0 -0.09,0 -0.08,0 -0.1,0 -0.09,0 h -2.75 c -1.1,0 -1.39,0 -1.39,-0.68 0,-5.14 -0.05,-17 -1.35,-29.39 -2.68,-25.77 -9.31,-43.6 -20.23,-58.89 -0.35,-0.46 -0.35,-0.55 -0.35,-0.66 0,-0.5 0.41,-0.5 1.15,-0.5 0.79,0 0.9,0 1,0.11 0.2,0.14 6.53,7.42 11.56,17.44 6.58,13.14 10.7,28.25 12.54,46.37 0.16,1.55 1.21,11.91 1.21,23.72 z"
           inkscape:connector-curvature="0"
           style="fill:#000000;stroke-width:0" /></g>    </g>
    <path
       style="fill:none;stroke:#000000;stroke-width:1px;stroke-linecap:butt;stroke-linejoin:miter;stroke-opacity:1;marker-end:url(#Arrow1Mend)"
       d="m 55.861436,221.83446 42.072853,0"
       id="path3779"
       inkscape:connector-curvature="0"
       transform="translate(-84.888549,294.65354)" />
    <path
       style="fill:none;stroke:#000000;stroke-width:1;stroke-linecap:butt;stroke-linejoin:miter;stroke-miterlimit:4;stroke-opacity:1;stroke-dasharray:none;marker-end:url(#Arrow1Mend)"
       d="m 56.179251,516.488 42.446869,0"
       id="path3781"
       inkscape:connector-curvature="0" />
    <path
       style="fill:none;stroke:#000000;stroke-width:1px;stroke-linecap:butt;stroke-linejoin:miter;stroke-opacity:1;marker-end:url(#Arrow1Mend)"
       d="m 226.62772,222.18801 24.04163,0"
       id="path3783"
       inkscape:connector-curvature="0"
       transform="translate(-84.888549,294.65354)" />
    <path
       style="fill:none;stroke:#000000;stroke-width:1px;stroke-linecap:butt;stroke-linejoin:miter;stroke-opacity:1;marker-end:url(#Arrow1Mend)"
       d="m 212.63005,517.19511 24.04163,0"
       id="path3783-8"
       inkscape:connector-curvature="0" />
    <g
       transform="matrix(1.1621091,0,0,1.1621091,59.381747,223.30447)"
       id="g5648">
      <g
         style="font-style:normal;font-variant:normal;font-weight:normal;font-stretch:normal;letter-spacing:normal;word-spacing:normal;text-anchor:start;fill:none;stroke:#000000;stroke-linecap:butt;stroke-linejoin:miter;stroke-miterlimit:10.43299961;stroke-opacity:1;stroke-dasharray:none;stroke-dashoffset:0"
         id="content"
         transform="matrix(0.36034293,0,0,-0.36034293,-63.060012,403.49762)"
         xml:space="preserve"
         stroke-miterlimit="10.433"
         font-style="normal"
         font-variant="normal"
         font-weight="normal"
         font-stretch="normal"
         font-size-adjust="none"
         letter-spacing="normal"
         word-spacing="normal"><path
           style="fill:#000000;stroke-width:0"
           inkscape:connector-curvature="0"
           d="m 465.08,418.65 0,0.14 -0.01,0.13 -0.02,0.13 -0.02,0.13 -0.03,0.13 -0.04,0.13 -0.04,0.12 -0.05,0.12 -0.05,0.11 -0.06,0.12 -0.06,0.11 -0.07,0.11 -0.07,0.1 -0.08,0.1 -0.09,0.1 -0.08,0.09 -0.1,0.08 -0.09,0.09 -0.1,0.08 -0.1,0.07 -0.11,0.07 -0.11,0.06 -0.12,0.06 -0.11,0.05 -0.12,0.05 -0.13,0.04 -0.12,0.04 -0.13,0.03 -0.13,0.02 -0.13,0.02 -0.13,0.01 -0.14,0 c -1.44,0 -2.64,-1.18 -2.64,-2.64 0,-1.44 1.2,-2.64 2.64,-2.64 1.45,0 2.64,1.2 2.64,2.64 z"
           id="path5651" /><path
           style="fill:#000000;stroke-width:0"
           inkscape:connector-curvature="0"
           d="m 487.16,418.65 0,0.14 -0.01,0.13 -0.02,0.13 -0.02,0.13 -0.03,0.13 -0.04,0.13 -0.04,0.12 -0.05,0.12 -0.05,0.11 -0.06,0.12 -0.06,0.11 -0.07,0.11 -0.08,0.1 -0.07,0.1 -0.09,0.1 -0.09,0.09 -0.09,0.08 -0.09,0.09 -0.1,0.08 -0.11,0.07 -0.1,0.07 -0.11,0.06 -0.12,0.06 -0.11,0.05 -0.12,0.05 -0.13,0.04 -0.12,0.04 -0.13,0.03 -0.13,0.02 -0.13,0.02 -0.13,0.01 -0.14,0 c -1.44,0 -2.64,-1.18 -2.64,-2.64 0,-1.44 1.2,-2.64 2.64,-2.64 1.45,0 2.64,1.2 2.64,2.64 z"
           id="path5653" /><path
           style="fill:#000000;stroke-width:0"
           inkscape:connector-curvature="0"
           d="m 509.23,418.65 0,0.14 -0.01,0.13 -0.02,0.13 -0.02,0.13 -0.03,0.13 -0.04,0.13 -0.04,0.12 -0.04,0.12 -0.06,0.11 -0.06,0.12 -0.06,0.11 -0.07,0.11 -0.07,0.1 -0.08,0.1 -0.08,0.1 -0.09,0.09 -0.09,0.08 -0.1,0.09 -0.1,0.08 -0.1,0.07 -0.11,0.07 -0.11,0.06 -0.11,0.06 -0.12,0.05 -0.12,0.05 -0.12,0.04 -0.13,0.04 -0.13,0.03 -0.13,0.02 -0.13,0.02 -0.13,0.01 -0.14,0 c -1.43,0 -2.64,-1.18 -2.64,-2.64 0,-1.44 1.21,-2.64 2.64,-2.64 1.46,0 2.64,1.2 2.64,2.64 z"
           id="path5655" /></g>    </g>
    <g
       id="g5839"
       transform="matrix(2.06536,0,0,2.06536,-177.37747,94.383839)">
      <g
         word-spacing="normal"
         letter-spacing="normal"
         font-size-adjust="none"
         font-stretch="normal"
         font-weight="normal"
         font-variant="normal"
         font-style="normal"
         stroke-miterlimit="10.433"
         xml:space="preserve"
         transform="matrix(0.19382331,0,0,-0.19382331,-33.91908,287.17106)"
         id="g5841"
         style="font-style:normal;font-variant:normal;font-weight:normal;font-stretch:normal;letter-spacing:normal;word-spacing:normal;text-anchor:start;fill:none;stroke:#000000;stroke-linecap:butt;stroke-linejoin:miter;stroke-miterlimit:10.43299961;stroke-opacity:1;stroke-dasharray:none;stroke-dashoffset:0"><path
           id="path5843"
           d="m 472.16,421.25 0.03,0.13 0.04,0.15 0.04,0.16 0.04,0.18 0.06,0.19 0.06,0.21 0.06,0.22 0.07,0.22 0.08,0.23 0.09,0.24 0.1,0.25 0.1,0.24 0.11,0.25 0.12,0.25 0.13,0.25 0.14,0.25 0.15,0.24 0.15,0.24 0.17,0.23 0.18,0.22 0.18,0.22 0.2,0.2 0.21,0.19 0.22,0.18 0.23,0.16 0.25,0.14 0.12,0.07 0.13,0.06 0.14,0.05 0.13,0.05 0.14,0.05 0.14,0.04 0.15,0.03 0.15,0.03 0.15,0.02 0.16,0.02 0.16,0.01 0.16,0 c 0.25,0 1.44,0 2.48,-0.64 -1.39,-0.25 -2.39,-1.5 -2.39,-2.69 0,-0.79 0.55,-1.75 1.89,-1.75 1.1,0 2.69,0.89 2.69,2.89 0,2.6 -2.94,3.28 -4.63,3.28 -2.89,0 -4.64,-2.64 -5.23,-3.78 -1.25,3.28 -3.94,3.78 -5.37,3.78 -5.19,0 -8.04,-6.42 -8.04,-7.67 0,-0.5 0.5,-0.5 0.61,-0.5 0.39,0 0.55,0.11 0.64,0.55 1.69,5.28 4.99,6.53 6.68,6.53 0.95,0 2.68,-0.44 2.68,-3.33 0,-1.54 -0.84,-4.89 -2.68,-11.86 -0.8,-3.09 -2.54,-5.18 -4.74,-5.18 -0.3,0 -1.44,0 -2.48,0.65 1.25,0.24 2.34,1.28 2.34,2.69 0,1.34 -1.09,1.73 -1.84,1.73 -1.5,0 -2.75,-1.29 -2.75,-2.89 0,-2.28 2.5,-3.28 4.68,-3.28 3.3,0 5.08,3.49 5.24,3.78 0.59,-1.84 2.39,-3.78 5.37,-3.78 5.14,0 7.99,6.42 7.99,7.67 0,0.5 -0.45,0.5 -0.61,0.5 -0.44,0 -0.55,-0.2 -0.64,-0.54 -1.64,-5.33 -5.03,-6.53 -6.63,-6.53 -1.95,0 -2.75,1.59 -2.75,3.29 0,1.1 0.3,2.19 0.86,4.38 z"
           inkscape:connector-curvature="0"
           style="fill:#000000;stroke-width:0" /><path
           id="path5845"
           d="m 496.34,450.34 -0.61,-0.45 -0.58,-0.46 -0.55,-0.47 -0.53,-0.49 -0.49,-0.5 -0.48,-0.51 -0.44,-0.53 -0.43,-0.53 -0.4,-0.54 -0.37,-0.55 -0.35,-0.56 -0.34,-0.56 -0.3,-0.57 -0.29,-0.57 -0.27,-0.58 -0.25,-0.58 -0.22,-0.58 -0.21,-0.58 -0.19,-0.59 -0.18,-0.58 -0.15,-0.58 -0.14,-0.58 -0.12,-0.57 -0.11,-0.57 -0.1,-0.57 -0.07,-0.56 -0.07,-0.55 -0.05,-0.55 -0.04,-0.53 -0.03,-0.53 -0.01,-0.52 -0.01,-0.5 c 0,-4.92 1.47,-12.55 8.38,-17.42 0.28,0 0.68,0 0.68,0.4 0,0.22 -0.09,0.28 -0.34,0.53 -4.64,4.19 -6.34,10.11 -6.34,16.46 0,9.4 3.59,14 6.45,16.58 0.14,0.14 0.23,0.25 0.23,0.42 0,0.42 -0.4,0.42 -0.68,0.42 z"
           inkscape:connector-curvature="0"
           style="fill:#000000;stroke-width:0" /><path
           id="path5847"
           d="m 511.23,446.36 0,0.04 0,0.04 0,0.04 0,0.04 0,0.04 0,0.04 0,0.04 0,0.03 -0.01,0.04 0,0.03 0,0.03 0,0.03 0,0.03 -0.01,0.03 0,0.03 -0.01,0.02 0,0.03 0,0.02 -0.01,0.02 0,0.03 -0.02,0.04 -0.01,0.04 -0.02,0.03 -0.02,0.03 -0.02,0.03 -0.02,0.03 -0.03,0.02 -0.03,0.02 -0.04,0.01 -0.03,0.02 -0.04,0.01 -0.05,0.01 -0.02,0.01 -0.03,0 -0.02,0.01 -0.03,0 -0.02,0 -0.03,0.01 -0.03,0 -0.03,0 -0.04,0 -0.03,0 -0.03,0.01 -0.04,0 -0.04,0 -0.03,0 -0.04,0 -0.04,0 -0.04,0 -0.05,0 -0.04,0 -0.05,0 c -2.23,-2.2 -5.39,-2.23 -6.82,-2.23 v -1.25 c 0.84,0 3.14,0 5.04,0.96 v -17.76 c 0,-1.16 0,-1.61 -3.48,-1.61 h -1.31 v -1.25 c 0.62,0.03 4.9,0.14 6.2,0.14 1.08,0 5.47,-0.11 6.23,-0.14 v 1.25 h -1.32 c -3.49,0 -3.49,0.45 -3.49,1.61 z"
           inkscape:connector-curvature="0"
           style="fill:#000000;stroke-width:0" /><path
           id="path5849"
           d="m 522.5,450.34 -0.03,0 -0.02,0 -0.03,0 -0.02,0 -0.03,0 -0.03,0 -0.03,0 -0.02,-0.01 -0.03,0 -0.03,0 -0.03,-0.01 -0.03,0 -0.02,-0.01 -0.03,-0.01 -0.03,0 -0.02,-0.01 -0.03,-0.01 -0.02,-0.02 -0.03,-0.01 -0.02,-0.01 -0.02,-0.02 -0.02,-0.02 -0.02,-0.02 -0.01,-0.01 -0.01,-0.01 0,-0.01 -0.01,-0.01 -0.01,-0.01 -0.01,-0.02 0,-0.01 -0.01,-0.01 0,-0.02 -0.01,-0.01 0,-0.02 -0.01,-0.01 0,-0.02 0,-0.02 0,-0.02 0,-0.01 -0.01,-0.02 0,-0.02 c 0,-0.17 0.11,-0.28 0.32,-0.53 3,-2.75 6.34,-7.46 6.34,-16.44 0,-7.28 -2.26,-12.8 -6.03,-16.2 -0.58,-0.6 -0.63,-0.63 -0.63,-0.82 0,-0.17 0.11,-0.4 0.46,-0.4 0.42,0 3.73,2.29 6.03,6.65 1.53,2.89 2.54,6.66 2.54,10.74 0,4.9 -1.46,12.53 -8.35,17.42 z"
           inkscape:connector-curvature="0"
           style="fill:#000000;stroke-width:0" /></g>    </g>
    <g
       id="g6045"
       transform="matrix(2.0146286,0,0,2.0146286,-91.0511,103.79771)">
      <g
         id="g6047"
         transform="matrix(0.19382331,0,0,-0.19382331,-33.91908,287.17106)"
         xml:space="preserve"
         stroke-miterlimit="10.433"
         font-style="normal"
         font-variant="normal"
         font-weight="normal"
         font-stretch="normal"
         font-size-adjust="none"
         letter-spacing="normal"
         word-spacing="normal"
         style="font-style:normal;font-variant:normal;font-weight:normal;font-stretch:normal;letter-spacing:normal;word-spacing:normal;text-anchor:start;fill:none;stroke:#000000;stroke-linecap:butt;stroke-linejoin:miter;stroke-miterlimit:10.43299961;stroke-opacity:1;stroke-dasharray:none;stroke-dashoffset:0"><path
           d="m 472.16,421.25 0.03,0.13 0.04,0.15 0.04,0.16 0.04,0.18 0.06,0.19 0.06,0.21 0.06,0.22 0.07,0.22 0.08,0.23 0.09,0.24 0.1,0.25 0.1,0.24 0.11,0.25 0.12,0.25 0.13,0.25 0.14,0.25 0.15,0.24 0.15,0.24 0.17,0.23 0.18,0.22 0.18,0.22 0.2,0.2 0.21,0.19 0.22,0.18 0.23,0.16 0.25,0.14 0.12,0.07 0.13,0.06 0.14,0.05 0.13,0.05 0.14,0.05 0.14,0.04 0.15,0.03 0.15,0.03 0.15,0.02 0.16,0.02 0.16,0.01 0.16,0 c 0.25,0 1.44,0 2.48,-0.64 -1.39,-0.25 -2.39,-1.5 -2.39,-2.69 0,-0.79 0.55,-1.75 1.89,-1.75 1.1,0 2.69,0.89 2.69,2.89 0,2.6 -2.94,3.28 -4.63,3.28 -2.89,0 -4.64,-2.64 -5.23,-3.78 -1.25,3.28 -3.94,3.78 -5.37,3.78 -5.19,0 -8.04,-6.42 -8.04,-7.67 0,-0.5 0.5,-0.5 0.61,-0.5 0.39,0 0.55,0.11 0.64,0.55 1.69,5.28 4.99,6.53 6.68,6.53 0.95,0 2.68,-0.44 2.68,-3.33 0,-1.54 -0.84,-4.89 -2.68,-11.86 -0.8,-3.09 -2.54,-5.18 -4.74,-5.18 -0.3,0 -1.44,0 -2.48,0.65 1.25,0.24 2.34,1.28 2.34,2.69 0,1.34 -1.09,1.73 -1.84,1.73 -1.5,0 -2.75,-1.29 -2.75,-2.89 0,-2.28 2.5,-3.28 4.68,-3.28 3.3,0 5.08,3.49 5.24,3.78 0.59,-1.84 2.39,-3.78 5.37,-3.78 5.14,0 7.99,6.42 7.99,7.67 0,0.5 -0.45,0.5 -0.61,0.5 -0.44,0 -0.55,-0.2 -0.64,-0.54 -1.64,-5.33 -5.03,-6.53 -6.63,-6.53 -1.95,0 -2.75,1.59 -2.75,3.29 0,1.1 0.3,2.19 0.86,4.38 z"
           id="path6049"
           inkscape:connector-curvature="0"
           style="fill:#000000;stroke-width:0" /><path
           d="m 496.34,450.34 -0.61,-0.45 -0.58,-0.46 -0.55,-0.47 -0.53,-0.49 -0.49,-0.5 -0.48,-0.51 -0.44,-0.53 -0.43,-0.53 -0.4,-0.54 -0.37,-0.55 -0.35,-0.56 -0.34,-0.56 -0.3,-0.57 -0.29,-0.57 -0.27,-0.58 -0.25,-0.58 -0.22,-0.58 -0.21,-0.58 -0.19,-0.59 -0.18,-0.58 -0.15,-0.58 -0.14,-0.58 -0.12,-0.57 -0.11,-0.57 -0.1,-0.57 -0.07,-0.56 -0.07,-0.55 -0.05,-0.55 -0.04,-0.53 -0.03,-0.53 -0.01,-0.52 -0.01,-0.5 c 0,-4.92 1.47,-12.55 8.38,-17.42 0.28,0 0.68,0 0.68,0.4 0,0.22 -0.09,0.28 -0.34,0.53 -4.64,4.19 -6.34,10.11 -6.34,16.46 0,9.4 3.59,14 6.45,16.58 0.14,0.14 0.23,0.25 0.23,0.42 0,0.42 -0.4,0.42 -0.68,0.42 z"
           id="path6051"
           inkscape:connector-curvature="0"
           style="fill:#000000;stroke-width:0" /><path
           d="m 517.15,430.54 h -1.18 c -0.1,-0.76 -0.46,-2.83 -0.91,-3.17 -0.27,-0.2 -2.96,-0.2 -3.44,-0.2 h -6.42 c 3.66,3.23 4.87,4.2 6.97,5.84 2.58,2.06 4.98,4.22 4.98,7.53 0,4.22 -3.68,6.8 -8.15,6.8 -4.32,0 -7.25,-3.03 -7.25,-6.23 0,-1.79 1.5,-1.96 1.86,-1.96 0.82,0 1.84,0.6 1.84,1.85 0,0.62 -0.25,1.84 -2.06,1.84 1.07,2.47 3.45,3.23 5.09,3.23 3.48,0 5.3,-2.7 5.3,-5.53 0,-3.03 -2.16,-5.43 -3.28,-6.68 l -8.39,-8.3 c -0.36,-0.31 -0.36,-0.39 -0.36,-1.36 h 14.35 z"
           id="path6053"
           inkscape:connector-curvature="0"
           style="fill:#000000;stroke-width:0" /><path
           d="m 522.5,450.34 -0.03,0 -0.02,0 -0.03,0 -0.02,0 -0.03,0 -0.03,0 -0.03,0 -0.02,-0.01 -0.03,0 -0.03,0 -0.03,-0.01 -0.03,0 -0.02,-0.01 -0.03,-0.01 -0.03,0 -0.02,-0.01 -0.03,-0.01 -0.02,-0.02 -0.03,-0.01 -0.02,-0.01 -0.02,-0.02 -0.02,-0.02 -0.02,-0.02 -0.01,-0.01 -0.01,-0.01 0,-0.01 -0.01,-0.01 -0.01,-0.01 -0.01,-0.02 0,-0.01 -0.01,-0.01 0,-0.02 -0.01,-0.01 0,-0.02 -0.01,-0.01 0,-0.02 0,-0.02 0,-0.02 0,-0.01 -0.01,-0.02 0,-0.02 c 0,-0.17 0.11,-0.28 0.32,-0.53 3,-2.75 6.34,-7.46 6.34,-16.44 0,-7.28 -2.26,-12.8 -6.03,-16.2 -0.58,-0.6 -0.63,-0.63 -0.63,-0.82 0,-0.17 0.11,-0.4 0.46,-0.4 0.42,0 3.73,2.29 6.03,6.65 1.53,2.89 2.54,6.66 2.54,10.74 0,4.9 -1.46,12.53 -8.35,17.42 z"
           id="path6055"
           inkscape:connector-curvature="0"
           style="fill:#000000;stroke-width:0" /></g>    </g>
    <g
       id="g6263"
       transform="matrix(2.0653601,0,0,2.0653601,-6.6369351,92.930717)">
      <g
         word-spacing="normal"
         letter-spacing="normal"
         font-size-adjust="none"
         font-stretch="normal"
         font-weight="normal"
         font-variant="normal"
         font-style="normal"
         stroke-miterlimit="10.433"
         xml:space="preserve"
         transform="matrix(0.19382331,0,0,-0.19382331,-33.91908,287.17106)"
         id="g6265"
         style="font-style:normal;font-variant:normal;font-weight:normal;font-stretch:normal;letter-spacing:normal;word-spacing:normal;text-anchor:start;fill:none;stroke:#000000;stroke-linecap:butt;stroke-linejoin:miter;stroke-miterlimit:10.43299961;stroke-opacity:1;stroke-dasharray:none;stroke-dashoffset:0"><path
           id="path6267"
           d="m 472.16,421.25 0.03,0.13 0.04,0.15 0.04,0.16 0.04,0.18 0.06,0.19 0.06,0.21 0.06,0.22 0.07,0.22 0.08,0.23 0.09,0.24 0.1,0.25 0.1,0.24 0.11,0.25 0.12,0.25 0.13,0.25 0.14,0.25 0.15,0.24 0.15,0.24 0.17,0.23 0.18,0.22 0.18,0.22 0.2,0.2 0.21,0.19 0.22,0.18 0.23,0.16 0.25,0.14 0.12,0.07 0.13,0.06 0.14,0.05 0.13,0.05 0.14,0.05 0.14,0.04 0.15,0.03 0.15,0.03 0.15,0.02 0.16,0.02 0.16,0.01 0.16,0 c 0.25,0 1.44,0 2.48,-0.64 -1.39,-0.25 -2.39,-1.5 -2.39,-2.69 0,-0.79 0.55,-1.75 1.89,-1.75 1.1,0 2.69,0.89 2.69,2.89 0,2.6 -2.94,3.28 -4.63,3.28 -2.89,0 -4.64,-2.64 -5.23,-3.78 -1.25,3.28 -3.94,3.78 -5.37,3.78 -5.19,0 -8.04,-6.42 -8.04,-7.67 0,-0.5 0.5,-0.5 0.61,-0.5 0.39,0 0.55,0.11 0.64,0.55 1.69,5.28 4.99,6.53 6.68,6.53 0.95,0 2.68,-0.44 2.68,-3.33 0,-1.54 -0.84,-4.89 -2.68,-11.86 -0.8,-3.09 -2.54,-5.18 -4.74,-5.18 -0.3,0 -1.44,0 -2.48,0.65 1.25,0.24 2.34,1.28 2.34,2.69 0,1.34 -1.09,1.73 -1.84,1.73 -1.5,0 -2.75,-1.29 -2.75,-2.89 0,-2.28 2.5,-3.28 4.68,-3.28 3.3,0 5.08,3.49 5.24,3.78 0.59,-1.84 2.39,-3.78 5.37,-3.78 5.14,0 7.99,6.42 7.99,7.67 0,0.5 -0.45,0.5 -0.61,0.5 -0.44,0 -0.55,-0.2 -0.64,-0.54 -1.64,-5.33 -5.03,-6.53 -6.63,-6.53 -1.95,0 -2.75,1.59 -2.75,3.29 0,1.1 0.3,2.19 0.86,4.38 z"
           inkscape:connector-curvature="0"
           style="fill:#000000;stroke-width:0" /><path
           id="path6269"
           d="m 496.34,450.34 -0.61,-0.45 -0.58,-0.46 -0.55,-0.47 -0.53,-0.49 -0.49,-0.5 -0.48,-0.51 -0.44,-0.53 -0.43,-0.53 -0.4,-0.54 -0.37,-0.55 -0.35,-0.56 -0.34,-0.56 -0.3,-0.57 -0.29,-0.57 -0.27,-0.58 -0.25,-0.58 -0.22,-0.58 -0.21,-0.58 -0.19,-0.59 -0.18,-0.58 -0.15,-0.58 -0.14,-0.58 -0.12,-0.57 -0.11,-0.57 -0.1,-0.57 -0.07,-0.56 -0.07,-0.55 -0.05,-0.55 -0.04,-0.53 -0.03,-0.53 -0.01,-0.52 -0.01,-0.5 c 0,-4.92 1.47,-12.55 8.38,-17.42 0.28,0 0.68,0 0.68,0.4 0,0.22 -0.09,0.28 -0.34,0.53 -4.64,4.19 -6.34,10.11 -6.34,16.46 0,9.4 3.59,14 6.45,16.58 0.14,0.14 0.23,0.25 0.23,0.42 0,0.42 -0.4,0.42 -0.68,0.42 z"
           inkscape:connector-curvature="0"
           style="fill:#000000;stroke-width:0" /><path
           id="path6271"
           d="m 509.07,435.84 0.26,-0.01 0.24,-0.01 0.25,-0.03 0.24,-0.04 0.23,-0.05 0.22,-0.06 0.23,-0.07 0.21,-0.08 0.21,-0.1 0.2,-0.1 0.2,-0.12 0.19,-0.12 0.18,-0.14 0.17,-0.15 0.17,-0.16 0.16,-0.17 0.15,-0.18 0.14,-0.19 0.14,-0.21 0.12,-0.21 0.12,-0.23 0.11,-0.23 0.1,-0.25 0.09,-0.25 0.08,-0.27 0.07,-0.28 0.06,-0.29 0.05,-0.3 0.04,-0.31 0.02,-0.32 0.02,-0.34 0.01,-0.34 c 0,-4.33 -2.52,-5.61 -4.54,-5.61 -1.39,0 -4.46,0.38 -5.92,2.44 1.63,0.06 2.02,1.22 2.02,1.95 0,1.11 -0.85,1.91 -1.92,1.91 -0.97,0 -1.96,-0.6 -1.96,-2.02 0,-3.28 3.63,-5.4 7.85,-5.4 4.84,0 8.19,3.25 8.19,6.73 0,2.72 -2.22,5.44 -6.07,6.23 3.66,1.33 4.99,3.94 4.99,6.07 0,2.75 -3.17,4.81 -7.03,4.81 -3.88,0 -6.83,-1.89 -6.83,-4.67 0,-1.19 0.76,-1.85 1.81,-1.85 1.08,0 1.77,0.8 1.77,1.77 0,1.02 -0.69,1.75 -1.77,1.81 1.22,1.55 3.61,1.92 4.91,1.92 1.56,0 3.76,-0.76 3.76,-3.79 0,-1.47 -0.48,-3.07 -1.39,-4.14 -1.16,-1.33 -2.12,-1.41 -3.87,-1.5 -0.88,-0.08 -0.94,-0.08 -1.11,-0.11 -0.08,0 -0.36,-0.07 -0.36,-0.46 0,-0.48 0.31,-0.48 0.9,-0.48 z"
           inkscape:connector-curvature="0"
           style="fill:#000000;stroke-width:0" /><path
           id="path6273"
           d="m 522.5,450.34 -0.03,0 -0.02,0 -0.03,0 -0.02,0 -0.03,0 -0.03,0 -0.03,0 -0.02,-0.01 -0.03,0 -0.03,0 -0.03,-0.01 -0.03,0 -0.02,-0.01 -0.03,-0.01 -0.03,0 -0.02,-0.01 -0.03,-0.01 -0.02,-0.02 -0.03,-0.01 -0.02,-0.01 -0.02,-0.02 -0.02,-0.02 -0.02,-0.02 -0.01,-0.01 -0.01,-0.01 0,-0.01 -0.01,-0.01 -0.01,-0.01 -0.01,-0.02 0,-0.01 -0.01,-0.01 0,-0.02 -0.01,-0.01 0,-0.02 -0.01,-0.01 0,-0.02 0,-0.02 0,-0.02 0,-0.01 -0.01,-0.02 0,-0.02 c 0,-0.17 0.11,-0.28 0.32,-0.53 3,-2.75 6.34,-7.46 6.34,-16.44 0,-7.28 -2.26,-12.8 -6.03,-16.2 -0.58,-0.6 -0.63,-0.63 -0.63,-0.82 0,-0.17 0.11,-0.4 0.46,-0.4 0.42,0 3.73,2.29 6.03,6.65 1.53,2.89 2.54,6.66 2.54,10.74 0,4.9 -1.46,12.53 -8.35,17.42 z"
           inkscape:connector-curvature="0"
           style="fill:#000000;stroke-width:0" /></g>    </g>
    <g
       id="g6735"
       transform="matrix(1.7601917,0,0,1.7601917,148.08619,156.83541)">
      <g
         word-spacing="normal"
         letter-spacing="normal"
         font-size-adjust="none"
         font-stretch="normal"
         font-weight="normal"
         font-variant="normal"
         font-style="normal"
         stroke-miterlimit="10.433"
         xml:space="preserve"
         transform="matrix(0.19382331,0,0,-0.19382331,-33.91908,287.17106)"
         id="g6737"
         style="font-style:normal;font-variant:normal;font-weight:normal;font-stretch:normal;letter-spacing:normal;word-spacing:normal;text-anchor:start;fill:none;stroke:#000000;stroke-linecap:butt;stroke-linejoin:miter;stroke-miterlimit:10.43299961;stroke-opacity:1;stroke-dasharray:none;stroke-dashoffset:0"><path
           id="path6739"
           d="m 472.16,421.25 0.03,0.13 0.04,0.15 0.04,0.16 0.04,0.18 0.06,0.19 0.06,0.21 0.06,0.22 0.07,0.22 0.08,0.23 0.09,0.24 0.1,0.25 0.1,0.24 0.11,0.25 0.12,0.25 0.13,0.25 0.14,0.25 0.15,0.24 0.15,0.24 0.17,0.23 0.18,0.22 0.18,0.22 0.2,0.2 0.21,0.19 0.22,0.18 0.23,0.16 0.25,0.14 0.12,0.07 0.13,0.06 0.14,0.05 0.13,0.05 0.14,0.05 0.14,0.04 0.15,0.03 0.15,0.03 0.15,0.02 0.16,0.02 0.16,0.01 0.16,0 c 0.25,0 1.44,0 2.48,-0.64 -1.39,-0.25 -2.39,-1.5 -2.39,-2.69 0,-0.79 0.55,-1.75 1.89,-1.75 1.1,0 2.69,0.89 2.69,2.89 0,2.6 -2.94,3.28 -4.63,3.28 -2.89,0 -4.64,-2.64 -5.23,-3.78 -1.25,3.28 -3.94,3.78 -5.37,3.78 -5.19,0 -8.04,-6.42 -8.04,-7.67 0,-0.5 0.5,-0.5 0.61,-0.5 0.39,0 0.55,0.11 0.64,0.55 1.69,5.28 4.99,6.53 6.68,6.53 0.95,0 2.68,-0.44 2.68,-3.33 0,-1.54 -0.84,-4.89 -2.68,-11.86 -0.8,-3.09 -2.54,-5.18 -4.74,-5.18 -0.3,0 -1.44,0 -2.48,0.65 1.25,0.24 2.34,1.28 2.34,2.69 0,1.34 -1.09,1.73 -1.84,1.73 -1.5,0 -2.75,-1.29 -2.75,-2.89 0,-2.28 2.5,-3.28 4.68,-3.28 3.3,0 5.08,3.49 5.24,3.78 0.59,-1.84 2.39,-3.78 5.37,-3.78 5.14,0 7.99,6.42 7.99,7.67 0,0.5 -0.45,0.5 -0.61,0.5 -0.44,0 -0.55,-0.2 -0.64,-0.54 -1.64,-5.33 -5.03,-6.53 -6.63,-6.53 -1.95,0 -2.75,1.59 -2.75,3.29 0,1.1 0.3,2.19 0.86,4.38 z"
           inkscape:connector-curvature="0"
           style="fill:#000000;stroke-width:0" /><path
           id="path6741"
           d="m 496.34,450.34 -0.61,-0.45 -0.58,-0.46 -0.55,-0.47 -0.53,-0.49 -0.49,-0.5 -0.48,-0.51 -0.44,-0.53 -0.43,-0.53 -0.4,-0.54 -0.37,-0.55 -0.35,-0.56 -0.34,-0.56 -0.3,-0.57 -0.29,-0.57 -0.27,-0.58 -0.25,-0.58 -0.22,-0.58 -0.21,-0.58 -0.19,-0.59 -0.18,-0.58 -0.15,-0.58 -0.14,-0.58 -0.12,-0.57 -0.11,-0.57 -0.1,-0.57 -0.07,-0.56 -0.07,-0.55 -0.05,-0.55 -0.04,-0.53 -0.03,-0.53 -0.01,-0.52 -0.01,-0.5 c 0,-4.92 1.47,-12.55 8.38,-17.42 0.28,0 0.68,0 0.68,0.4 0,0.22 -0.09,0.28 -0.34,0.53 -4.64,4.19 -6.34,10.11 -6.34,16.46 0,9.4 3.59,14 6.45,16.58 0.14,0.14 0.23,0.25 0.23,0.42 0,0.42 -0.4,0.42 -0.68,0.42 z"
           inkscape:connector-curvature="0"
           style="fill:#000000;stroke-width:0" /><path
           id="path6743"
           d="m 504.96,443.64 0.17,-0.04 0.16,-0.04 0.15,-0.04 0.15,-0.03 0.15,-0.03 0.14,-0.03 0.14,-0.03 0.14,-0.02 0.13,-0.03 0.13,-0.02 0.12,-0.02 0.12,-0.02 0.12,-0.01 0.11,-0.02 0.11,-0.01 0.1,-0.01 0.11,-0.01 0.09,-0.01 0.1,-0.01 0.09,0 0.09,-0.01 0.08,0 0.08,-0.01 0.08,0 0.08,0 0.07,0 0.07,0 0.07,-0.01 0.06,0 0.06,0 0.06,0 0.05,0 c 4.59,0 7.31,3.14 7.31,3.68 0,0.37 -0.23,0.48 -0.4,0.48 -0.08,0 -0.15,0 -0.28,-0.11 -0.85,-0.31 -2.69,-1.02 -5.27,-1.02 -0.97,0 -2.83,0.08 -5.09,0.96 -0.35,0.17 -0.41,0.17 -0.46,0.17 -0.45,0 -0.45,-0.39 -0.45,-0.94 v -10.28 c 0,-0.59 0,-1.01 0.56,-1.01 0.31,0 0.35,0.06 0.7,0.48 1.5,1.92 3.63,2.2 4.85,2.2 2.08,0 3.03,-1.67 3.2,-1.95 0.63,-1.16 0.83,-2.47 0.83,-4.5 0,-1.05 0,-3.09 -1.05,-4.63 -0.86,-1.26 -2.36,-2.09 -4.06,-2.09 -2.27,0 -4.61,1.25 -5.48,3.55 1.32,-0.1 1.98,0.76 1.98,1.7 0,1.5 -1.28,1.78 -1.73,1.78 -0.07,0 -1.75,0 -1.75,-1.87 0,-3.14 2.86,-6.28 7.04,-6.28 4.46,0 8.36,3.31 8.36,7.7 0,3.94 -3,7.56 -7.31,7.56 -1.53,0 -3.34,-0.37 -4.88,-1.7 z"
           inkscape:connector-curvature="0"
           style="fill:#000000;stroke-width:0" /><path
           id="path6745"
           d="m 531.73,436.78 0.25,0.12 0.25,0.13 0.24,0.13 0.23,0.13 0.23,0.13 0.22,0.14 0.22,0.14 0.2,0.14 0.2,0.14 0.2,0.15 0.18,0.15 0.18,0.15 0.18,0.15 0.16,0.16 0.16,0.16 0.15,0.16 0.14,0.16 0.13,0.17 0.13,0.18 0.11,0.17 0.11,0.18 0.1,0.18 0.09,0.19 0.08,0.19 0.07,0.19 0.07,0.2 0.05,0.2 0.04,0.2 0.04,0.21 0.02,0.22 0.02,0.22 0,0.22 c 0,3.39 -3.51,5.2 -6.89,5.2 l -0.07,-1.02 c 2.71,0 5.12,-1.7 5.12,-4.18 0,-3.1 -3.62,-4.66 -3.69,-4.66 -0.08,0 -0.14,0.03 -0.39,0.17 l -4.22,2.44 c -0.9,0.52 -1.87,1.47 -1.87,2.75 0,2.2 2.55,3.48 5.05,3.48 l 0.07,1.02 c -3.84,0 -6.97,-2.52 -6.97,-5.83 0,-1.62 0.77,-2.81 1.4,-3.51 0.62,-0.74 0.87,-0.88 2.92,-2.1 -1.96,-0.83 -5.41,-2.72 -5.41,-6.37 0,-3.86 4.02,-6.03 7.99,-6.03 l 0.07,1.12 c -3.22,0 -5.97,2.05 -5.97,4.91 0,2.58 1.93,4.56 4.43,5.72 h 0 l 4.78,-2.75 c 0.9,-0.54 2.64,-1.58 2.64,-3.63 0,-2.61 -2.89,-4.25 -5.88,-4.25 l -0.07,-1.12 c 4.42,0 8.04,2.82 8.04,6.59 0,2.3 -1.36,4.25 -3.37,5.44 -0.46,0.28 -1.67,0.97 -2.16,1.25 z"
           inkscape:connector-curvature="0"
           style="fill:#000000;stroke-width:0" /><path
           id="path6747"
           d="m 542.29,450.34 -0.02,0 -0.03,0 -0.02,0 -0.03,0 -0.02,0 -0.03,0 -0.03,0 -0.03,-0.01 -0.03,0 -0.02,0 -0.03,-0.01 -0.03,0 -0.03,-0.01 -0.02,-0.01 -0.03,0 -0.03,-0.01 -0.02,-0.01 -0.03,-0.02 -0.02,-0.01 -0.02,-0.01 -0.02,-0.02 -0.02,-0.02 -0.02,-0.02 -0.01,-0.01 -0.01,-0.01 -0.01,-0.01 0,-0.01 -0.01,-0.01 -0.01,-0.02 0,-0.01 -0.01,-0.01 -0.01,-0.02 0,-0.01 0,-0.02 -0.01,-0.01 0,-0.02 0,-0.02 -0.01,-0.02 0,-0.01 0,-0.02 0,-0.02 c 0,-0.17 0.11,-0.28 0.31,-0.53 3,-2.75 6.35,-7.46 6.35,-16.44 0,-7.28 -2.27,-12.8 -6.03,-16.2 -0.58,-0.6 -0.63,-0.63 -0.63,-0.82 0,-0.17 0.11,-0.4 0.45,-0.4 0.43,0 3.74,2.29 6.03,6.65 1.54,2.89 2.55,6.66 2.55,10.74 0,4.9 -1.47,12.53 -8.36,17.42 z"
           inkscape:connector-curvature="0"
           style="fill:#000000;stroke-width:0" /></g>    </g>
  </g>
</svg>
